<?xml version="1.0" encoding="UTF-8"?>
<svg width="111" height="115" viewBox="0 0 111 115" fill="none" xmlns="http://www.w3.org/2000/svg">
<path d="M110.786 53.7877C109.543 82.1189 83.7456 103.998 53.1645 102.656C22.5834 101.315 -1.19714 77.2584 0.0466488 48.9271C1.29044 20.5959 27.0874 -1.28289 57.6685 0.0585308C88.2496 1.4042 112.03 25.4565 110.786 53.7877Z" fill="#B4CBF9"/>
<path opacity="0.1" d="M95.9076 47.6536C95.9076 70.3432 76.4357 88.7368 52.4174 88.7368C28.3991 88.7368 8.92725 70.3432 8.92725 47.6536C8.92725 24.964 28.3991 6.57031 52.4174 6.57031C76.4357 6.57031 95.9076 24.964 95.9076 47.6536Z" fill="#91B3FA"/>
<g opacity="0.7">
<g style="mix-blend-mode:soft-light">
<path fill-rule="evenodd" clip-rule="evenodd" d="M69.5758 51.6058C69.5631 60.6604 68.9433 69.7363 67.3472 78.6635C66.9439 80.8964 66.4727 83.1166 65.9166 85.3112C65.3563 87.5101 64.711 89.6878 63.9172 91.8188C63.1191 93.9413 62.1937 96.0384 60.9372 97.9486C60.3047 98.8995 59.5873 99.8122 58.7001 100.559C58.2586 100.933 57.7704 101.26 57.2355 101.502C56.7049 101.744 56.1191 101.897 55.529 101.905C54.939 101.922 54.3447 101.807 53.8013 101.587C53.2537 101.37 52.7571 101.056 52.3028 100.695C51.3944 99.9693 50.66 99.0693 50.019 98.1269C48.7413 96.2294 47.7989 94.1366 46.9966 92.0183C46.1943 89.8916 45.5405 87.7139 44.9759 85.5192C44.4114 83.3203 43.9402 81.1044 43.5326 78.8715C42.7176 74.4143 42.1657 69.9103 41.7879 65.3979C41.4186 60.8812 41.2318 56.3517 41.2106 51.818C41.1979 49.5555 41.2616 47.2886 41.3422 45.026C41.4271 42.7634 41.5502 40.5008 41.7158 38.2425C42.0511 33.7258 42.552 29.2176 43.2949 24.7476C43.6685 22.5147 44.1057 20.2861 44.6279 18.0829C45.1542 15.8797 45.7613 13.6893 46.5211 11.5498C46.8989 10.4801 47.3149 9.42307 47.7904 8.39153C48.2616 7.36 48.7922 6.34968 49.4162 5.39455C50.0402 4.44367 50.7576 3.53948 51.6491 2.80934C52.0991 2.45276 52.5915 2.13863 53.1306 1.92638C53.6655 1.70988 54.2471 1.60375 54.8286 1.62498C55.4059 1.64196 55.979 1.78629 56.5054 2.01552C57.036 2.249 57.52 2.56737 57.9657 2.9282C58.8571 3.6541 59.5958 4.53706 60.2495 5.46672C61.5485 7.33877 62.5291 9.40609 63.3823 11.5074C64.2228 13.6129 64.919 15.7736 65.5261 17.9598C66.1289 20.146 66.6425 22.3534 67.084 24.5778C68.8372 33.4711 69.5503 42.5469 69.5758 51.6058ZM68.9051 51.6058C68.9136 47.0933 68.7438 42.5809 68.366 38.0812C67.9967 33.5857 67.4363 29.103 66.6043 24.6669C66.1883 22.451 65.7001 20.2479 65.1228 18.0702C64.5455 15.8882 63.8748 13.7318 63.0597 11.6305C62.2404 9.53769 61.2895 7.47886 60.0288 5.61954C59.392 4.69837 58.6789 3.81965 57.8171 3.10649C57.3884 2.75415 56.9257 2.44002 56.4205 2.21079C55.9153 1.9858 55.372 1.83723 54.8201 1.82025C54.2683 1.80327 53.7207 1.91788 53.207 2.12589C52.6976 2.33389 52.2264 2.63954 51.7977 2.99187C50.9402 3.70504 50.2482 4.60073 49.6455 5.54313C49.0427 6.48977 48.529 7.49159 48.0706 8.51888C47.6121 9.54618 47.2131 10.5989 46.8437 11.6644C46.1178 13.7954 45.5363 15.9774 45.0354 18.1763C44.5387 20.3752 44.1312 22.5954 43.7831 24.824C43.0912 29.2855 42.6412 33.781 42.3568 38.2849C42.0681 42.7889 41.9705 47.3056 41.979 51.818C41.9662 56.3305 42.119 60.843 42.4544 65.3427C42.7898 69.8424 43.3076 74.3294 44.0845 78.7739C44.4708 80.9983 44.925 83.2057 45.4684 85.3919C46.0117 87.5823 46.6442 89.7473 47.4211 91.857C48.2022 93.9626 49.1191 96.0341 50.3544 97.9019C50.9741 98.8274 51.6831 99.7061 52.5406 100.402C52.9651 100.746 53.432 101.043 53.9372 101.251C54.4381 101.455 54.9772 101.57 55.5206 101.548C56.0597 101.536 56.5903 101.396 57.0827 101.166C57.5794 100.937 58.0336 100.627 58.4539 100.266C59.2944 99.549 59.9863 98.6576 60.5976 97.7279C61.8074 95.8431 62.7116 93.7673 63.4842 91.6575C64.2483 89.5435 64.8766 87.3743 65.4114 85.1881C65.9506 82.9977 66.4005 80.786 66.7826 78.5659C67.5509 74.1214 68.0646 69.6301 68.4042 65.1347C68.748 60.6349 68.9093 56.1182 68.9051 51.6058Z" fill="white"/>
</g>
<g style="mix-blend-mode:soft-light">
<path fill-rule="evenodd" clip-rule="evenodd" d="M92.4228 51.6057C92.3931 57.4384 91.6417 63.271 90.0796 68.8957C88.4919 74.5076 86.0977 79.9072 82.8461 84.7508C81.2202 87.1705 79.3779 89.45 77.3233 91.5173C75.2645 93.5847 72.9891 95.4397 70.5185 96.9934C68.0479 98.5428 65.3778 99.7824 62.5846 100.623C59.7914 101.463 56.875 101.905 53.9587 101.909C51.0382 101.905 48.1218 101.472 45.3286 100.631C42.5311 99.7909 39.861 98.5513 37.3862 97.0062C34.9156 95.4525 32.636 93.6017 30.5772 91.5343C28.5141 89.4713 26.6675 87.1917 25.0417 84.772C21.7815 79.9242 19.3831 74.5246 17.7869 68.9084C17.0016 66.0982 16.4201 63.2286 16.0295 60.3377C15.6475 57.4426 15.4522 54.5263 15.4395 51.6057C15.4564 48.6851 15.6517 45.7688 16.038 42.878C16.4243 39.9829 17.0101 37.1175 17.7997 34.3073C19.4001 28.6954 21.8027 23.2957 25.0629 18.4564C26.693 16.0367 28.5353 13.7614 30.5984 11.6983C32.6572 9.63524 34.9368 7.78442 37.4074 6.23498C39.878 4.69404 42.5524 3.46723 45.3413 2.62672C48.1303 1.78621 51.0424 1.34473 53.9587 1.34473C56.8708 1.34897 59.7829 1.79045 62.5719 2.63521C65.3608 3.47572 68.031 4.70678 70.5015 6.25196C72.9679 7.80139 75.2432 9.65222 77.2978 11.7153C79.3566 13.7784 81.199 16.058 82.8248 18.4734C86.0765 23.3169 88.4749 28.7081 90.0711 34.32C91.6332 39.9404 92.3888 45.7731 92.4228 51.6057ZM91.6545 51.6057C91.646 45.841 90.9286 40.0678 89.4046 34.5025C87.8764 28.9458 85.5714 23.5801 82.4003 18.7578C80.8169 16.3466 79.017 14.0755 77.0007 12.0082C74.9843 9.94937 72.7599 8.08157 70.3233 6.53214C67.8824 4.9912 65.2505 3.75165 62.487 2.91114C59.7277 2.07062 56.8453 1.62914 53.9587 1.62065C51.0721 1.63339 48.1897 2.07487 45.4305 2.91963C42.6712 3.76014 40.0393 5.00393 37.6027 6.54487C35.1703 8.09855 32.9459 9.96635 30.9295 12.0252C28.9174 14.0925 27.1217 16.3636 25.5426 18.7748C22.3758 23.5971 20.0793 28.9628 18.5553 34.5153C17.7997 37.2958 17.2478 40.1314 16.8785 42.9883C16.505 45.8452 16.3182 48.7233 16.3139 51.6057C16.3224 54.4881 16.5092 57.3662 16.8828 60.2231C17.2563 63.08 17.8082 65.9157 18.568 68.6919C20.092 74.2444 22.397 79.6058 25.5638 84.4239C27.143 86.8309 28.9428 89.1019 30.955 91.165C32.9671 93.2239 35.1873 95.0874 37.6197 96.6326C40.0563 98.1735 42.6882 99.4088 45.4432 100.249C48.1982 101.094 51.0721 101.54 53.9587 101.553C56.8411 101.54 59.7192 101.098 62.4742 100.258C65.2292 99.4173 67.8654 98.1863 70.302 96.6496C72.7387 95.1044 74.9631 93.2408 76.9794 91.182C78.9958 89.1189 80.7957 86.8478 82.3791 84.4409C85.5544 79.6228 87.8594 74.2614 89.3961 68.7046C90.9201 63.1437 91.6417 57.3704 91.6545 51.6057Z" fill="white"/>
</g>
<g style="mix-blend-mode:soft-light">
<path d="M9.07194 31.8028C9.04222 31.8028 9.021 31.7816 9.021 31.7519C9.021 31.7264 9.04647 31.7009 9.07194 31.7009L20.6226 31.6075L32.1733 31.5566L55.2789 31.5142L78.3803 31.5609L89.931 31.616L101.486 31.7179C101.503 31.7179 101.52 31.7349 101.516 31.7519C101.516 31.7731 101.503 31.7858 101.486 31.7858L89.931 31.8877L78.3803 31.9429L55.2789 31.9938L32.1733 31.9471L20.6226 31.8962L9.07194 31.8028Z" fill="white"/>
</g>
<g style="mix-blend-mode:soft-light">
<path d="M22.4224 12.403C22.4224 12.3775 22.4478 12.3563 22.4733 12.3521C25.2071 12.3096 27.9409 12.2926 30.6747 12.2587L38.876 12.2077C41.6098 12.1865 44.3436 12.1865 47.0774 12.1823L55.2788 12.1653L71.6815 12.212L79.8829 12.2714C82.6167 12.3054 85.3505 12.3224 88.0843 12.369C88.1012 12.369 88.1182 12.386 88.1182 12.403C88.114 12.4242 88.1012 12.437 88.0843 12.437C85.3505 12.4837 82.6167 12.5049 79.8829 12.5388L71.6815 12.5983L55.2788 12.645L47.0774 12.628C44.3436 12.6195 41.6098 12.6237 38.876 12.6025L30.6747 12.5473C27.9409 12.5176 25.2071 12.4964 22.4733 12.4539C22.4436 12.4539 22.4224 12.4327 22.4224 12.403Z" fill="white"/>
</g>
<g style="mix-blend-mode:soft-light">
<path d="M5.05597 51.1515C5.0305 51.1515 5.00928 51.1261 5.00928 51.1006C5.00928 51.0709 5.0305 51.0497 5.05597 51.0497L17.6127 50.9563L30.1695 50.9053L55.2788 50.8586L80.388 50.9096L92.9448 50.9648L105.497 51.0666C105.519 51.0666 105.531 51.0836 105.531 51.1006C105.531 51.1176 105.519 51.1346 105.497 51.1346L92.9448 51.2365L80.388 51.2916L55.2788 51.3383L30.1695 51.2959L17.6127 51.2449L5.05597 51.1515Z" fill="white"/>
</g>
<g style="mix-blend-mode:soft-light">
<path d="M9.07194 70.3985L20.6226 70.3052L32.1733 70.25L55.2789 70.2075L78.3803 70.2542L89.931 70.3136L101.486 70.4155C101.503 70.4155 101.52 70.4283 101.516 70.4495C101.516 70.4665 101.503 70.4834 101.486 70.4834L89.931 70.5811L78.3803 70.6405L55.2789 70.6872L32.1733 70.6448L20.6226 70.5938L9.07194 70.5004C9.04222 70.4962 9.021 70.475 9.021 70.4495C9.021 70.4198 9.04647 70.3985 9.07194 70.3985Z" fill="white"/>
</g>
<g style="mix-blend-mode:soft-light">
<path d="M89.914 89.7939C89.914 89.8916 89.8333 89.9722 89.7357 89.9722H24.1247C24.0271 89.9722 23.9507 89.8916 23.9507 89.7939C23.9507 89.6963 24.0271 89.6199 24.1247 89.6199H89.7357C89.8333 89.6199 89.914 89.6963 89.914 89.7939Z" fill="white"/>
</g>
</g>
<path d="M104.304 33.9384L105.554 108.248C105.589 110.315 103.924 112.008 101.856 112.004L43.4683 111.926C41.269 111.922 39.5112 110.099 39.5847 107.899L42.1015 34.0004C42.1983 31.1933 44.4788 28.9514 47.286 28.905L98.2169 28.0493C101.523 27.9912 104.249 30.628 104.304 33.9384Z" fill="url(#paint0_linear_288_6134)"/>
<path d="M93.1369 110.757C93.133 110.664 93.2066 110.59 93.2956 110.587L99.8275 110.393C101.845 110.331 103.455 108.643 103.424 106.626L103.258 96.7639C103.254 96.6709 103.328 96.6012 103.421 96.5935C103.514 96.5935 103.587 96.6671 103.591 96.7561L103.757 106.618C103.792 108.817 102.034 110.66 99.8352 110.726L93.3072 110.92C93.2143 110.92 93.1369 110.85 93.1369 110.757Z" fill="#DCF0F0"/>
<path d="M103.374 93.8717C103.281 93.8756 103.208 93.802 103.208 93.7091L103.181 92.11C103.177 92.0209 103.251 91.9435 103.343 91.9435C103.436 91.9396 103.51 92.0132 103.514 92.1061L103.537 93.7052C103.541 93.7943 103.467 93.8717 103.378 93.8717C103.376 93.8717 103.374 93.8717 103.374 93.8717Z" fill="#DCF0F0"/>
<path d="M100.052 29.1527L100.904 107.063C100.911 107.81 100.358 108.445 99.6144 108.534C87.4218 110.021 53.14 108.693 44.8155 108.341C43.7971 108.298 43.0073 107.442 43.0421 106.424L45.737 32.1922C45.7718 31.29 46.5423 30.5931 47.4445 30.6473C67.2415 31.8321 91.1079 28.5139 98.0502 27.453C99.0956 27.2942 100.04 28.0957 100.052 29.1527Z" fill="#0C73E3"/>
<path d="M99.262 31.0267L100.083 106.002C100.091 106.718 99.5562 107.33 98.8438 107.419C87.1081 108.848 54.1195 107.57 46.1086 107.233C45.129 107.191 44.3662 106.366 44.4011 105.387L46.9952 33.95C47.0262 33.0788 47.7696 32.409 48.6369 32.4632C67.6905 33.6015 90.6586 30.4111 97.3376 29.3889C98.3443 29.234 99.2503 30.0084 99.262 31.0267Z" fill="#D3E1FE"/>
<g opacity="0.6">
<path d="M49.2876 38.7243C49.0127 38.7282 48.7998 38.5075 48.8152 38.2365V38.2016C48.8307 37.9267 49.063 37.6983 49.338 37.6944L92.5599 36.6257C92.8348 36.618 92.9239 36.7884 92.7574 37.0052L92.2889 37.6131C92.1224 37.8299 91.7623 38.0119 91.4913 38.0158L49.2876 38.7243Z" fill="white"/>
</g>
<g opacity="0.6">
<path d="M92.6104 39.479C92.8814 39.4713 92.9704 39.6416 92.8039 39.8585L92.3393 40.4663C92.1728 40.6832 91.8127 40.8613 91.5378 40.869L49.3342 41.5776C49.0631 41.5815 48.8502 41.3608 48.8618 41.0897L48.8657 41.0549C48.8773 40.78 49.1135 40.5515 49.3845 40.5438L92.6104 39.479Z" fill="white"/>
</g>
<path fill-rule="evenodd" clip-rule="evenodd" d="M84.1306 64.1856C84.1073 61.9554 84.1151 59.8646 84.4326 58.765C84.6223 58.099 85.2844 57.6421 86.0433 57.6576C86.051 57.6576 86.0588 57.6576 86.0665 57.6576C87.1274 57.6847 88.9356 57.8667 90.5269 58.0293C91.2587 58.1029 91.9247 58.1687 92.4087 58.2113C92.7571 58.2384 93.0785 58.4049 93.2876 58.6604C93.4734 58.8927 93.5586 59.1754 93.5238 59.4619L92.9469 64.2631C92.8578 65.0065 92.1647 65.5679 91.34 65.5602L85.6057 65.5253C85.6006 65.5253 85.5954 65.5253 85.5903 65.5253C84.7926 65.5137 84.1383 64.9135 84.1306 64.1856ZM92.37 58.6759C91.8821 58.6372 91.2161 58.5675 90.4805 58.4939C88.9743 58.3429 87.1003 58.1532 86.0549 58.1222C85.5167 58.0951 85.0133 58.432 84.8817 58.8927C84.5797 59.9343 84.5758 61.9864 84.5991 64.1818C84.6029 64.658 85.0521 65.0491 85.598 65.0607C85.6032 65.0607 85.607 65.0607 85.6096 65.0607L91.3439 65.0955C91.9324 65.0955 92.4203 64.7161 92.4822 64.2089L93.0592 59.4077C93.0785 59.249 93.032 59.0863 92.9236 58.9586C92.7959 58.7959 92.5906 58.6953 92.37 58.6759Z" fill="white"/>
<path opacity="0.6" d="M92.4671 59.942L92.0064 63.779C91.9444 64.2785 91.472 64.6541 90.9106 64.6502L86.3263 64.6231C85.7803 64.6192 85.339 64.2243 85.3351 63.7364C85.3157 62.1064 85.3119 60.3408 85.5674 59.458C85.6952 59.005 86.1637 58.6914 86.6902 58.7068C87.9293 58.7417 90.5428 59.0476 91.7469 59.1482C92.1922 59.187 92.5175 59.5432 92.4671 59.942Z" fill="white"/>
<g opacity="0.6">
<path d="M80.611 60.457C80.8859 60.457 81.0485 60.67 80.9749 60.9333L80.4406 62.8266C80.367 63.0899 80.0844 63.3029 79.8095 63.299L51.0026 62.8499C50.7315 62.846 50.5147 62.6176 50.5263 62.3465L50.5689 61.2043C50.5805 60.9294 50.8128 60.7048 51.0839 60.701L80.611 60.457Z" fill="white"/>
</g>
<path fill-rule="evenodd" clip-rule="evenodd" d="M83.7975 51.3155C83.7743 49.0853 83.7821 46.9945 84.0996 45.8949C84.2893 45.225 84.9514 44.772 85.7103 44.7875C85.718 44.7875 85.7257 44.7875 85.7335 44.7875C86.7944 44.8146 88.6026 44.9966 90.1939 45.1592C90.9257 45.2328 91.5917 45.2986 92.0757 45.3412C92.4241 45.3683 92.7455 45.5348 92.9546 45.7903C93.1404 46.0226 93.2256 46.3053 93.1908 46.5918L92.6139 51.393C92.5248 52.1364 91.8317 52.6978 91.007 52.69L85.2727 52.6552C85.2676 52.6552 85.2624 52.6552 85.2573 52.6552C84.4596 52.6436 83.8053 52.0434 83.7975 51.3155ZM92.0369 45.8058C91.5491 45.7671 90.8831 45.6974 90.1475 45.6238C88.6413 45.4728 86.7673 45.2831 85.7219 45.2521C85.1837 45.225 84.6803 45.5619 84.5487 46.0226C84.2506 47.0642 84.2428 49.1163 84.266 51.3078C84.2699 51.7879 84.7191 52.1789 85.265 52.1906C85.2702 52.1906 85.274 52.1906 85.2766 52.1906L91.0109 52.2215C91.5994 52.2254 92.0873 51.846 92.1492 51.3387L92.7261 46.5376C92.7455 46.3788 92.699 46.2162 92.5906 46.0885C92.4629 45.9258 92.2576 45.8252 92.0369 45.8058Z" fill="white"/>
<path opacity="0.6" d="M92.134 47.0719L91.6733 50.9089C91.6152 51.4084 91.1389 51.784 90.5775 51.7801L85.9971 51.753C85.4472 51.7491 85.0059 51.3542 85.002 50.8663C84.9865 49.2363 84.9788 47.4707 85.2343 46.5879C85.3659 46.1349 85.8306 45.8212 86.3571 45.8367C87.5962 45.8716 90.2097 46.1775 91.4138 46.2781C91.8591 46.3168 92.1844 46.6731 92.134 47.0719Z" fill="white"/>
<g opacity="0.6">
<path d="M80.278 47.5869C80.5529 47.5869 80.7155 47.7999 80.6419 48.0632L80.1115 49.9565C80.0379 50.2198 79.7514 50.4328 79.4765 50.4289L50.6734 49.9797C50.3985 49.9759 50.1817 49.7474 50.1933 49.4764L50.2359 48.3342C50.2475 48.0593 50.4798 47.8347 50.7509 47.8308L80.278 47.5869Z" fill="white"/>
</g>
<path fill-rule="evenodd" clip-rule="evenodd" d="M83.941 76.4674C83.9178 74.2411 83.9217 72.1503 84.2392 71.0507C84.4327 70.3808 85.091 69.9278 85.8537 69.9394C85.8615 69.9394 85.8692 69.9394 85.877 69.9394C86.9379 69.9704 88.7422 70.1524 90.3374 70.315C91.0692 70.3886 91.7351 70.4544 92.2153 70.4931C92.5676 70.5241 92.8851 70.6906 93.0981 70.9461C93.2839 71.1784 93.3691 71.4611 93.3342 71.7476L92.7535 76.5488C92.6644 77.2922 91.9752 77.8497 91.1505 77.8458L85.4162 77.811C85.411 77.811 85.4059 77.811 85.4007 77.811C84.5992 77.7994 83.9449 77.1992 83.941 76.4674ZM92.1765 70.9616C91.6926 70.919 91.0227 70.8532 90.2909 70.7796C88.7848 70.6286 86.9069 70.4389 85.8615 70.4079C85.3272 70.3847 84.8238 70.7177 84.6883 71.1784C84.3902 72.22 84.3863 74.2721 84.4056 76.4636C84.4134 76.9437 84.8587 77.3347 85.4085 77.3425C85.411 77.3425 85.4149 77.3425 85.4201 77.3425L91.1505 77.3773C91.739 77.3812 92.2307 77.0018 92.2888 76.4907L92.8696 71.6895C92.889 71.5308 92.8386 71.372 92.7341 71.2404C92.6024 71.0816 92.4011 70.981 92.1765 70.9616Z" fill="white"/>
<path opacity="0.6" d="M92.2771 72.2238L91.8164 76.0608C91.7544 76.5603 91.282 76.9397 90.7167 76.9359L86.1363 76.9088C85.5904 76.9049 85.1451 76.51 85.1412 76.0182C85.1257 74.3882 85.1219 72.6226 85.3735 71.7436C85.5052 71.2868 85.9698 70.977 86.4964 70.9925C87.7393 71.0273 90.3528 71.3332 91.5531 71.4339C91.9983 71.4726 92.3236 71.8288 92.2771 72.2238Z" fill="white"/>
<g opacity="0.6">
<path d="M80.4215 72.7424C80.6926 72.7424 80.8552 72.9554 80.7816 73.2187L80.2512 75.112C80.1776 75.3753 79.8949 75.5883 79.62 75.5844L50.8131 75.1353C50.5382 75.1314 50.3253 74.903 50.3369 74.6319L50.3795 73.4858C50.3872 73.2148 50.6195 72.9864 50.8944 72.9864L80.4215 72.7424Z" fill="white"/>
</g>
<path fill-rule="evenodd" clip-rule="evenodd" d="M84.2932 88.2728C84.2699 86.0465 84.2777 83.9556 84.5913 82.8521C84.7849 82.1784 85.4741 81.7293 86.2291 81.7448C87.29 81.7757 89.1756 81.9655 90.6896 82.1165C91.4213 82.19 92.0873 82.2597 92.5674 82.2985C92.9198 82.3294 93.2373 82.492 93.4502 82.7515C93.6361 82.9799 93.7213 83.2664 93.6864 83.5491L93.1095 88.3502C93.0166 89.0975 92.3274 89.6551 91.5027 89.6512L85.7684 89.6163C85.7632 89.6163 85.758 89.6163 85.7529 89.6163C84.9553 89.6047 84.3009 89.0046 84.2932 88.2728ZM92.5287 82.767C92.0447 82.7244 91.3788 82.6585 90.6431 82.585C89.1369 82.4301 87.2591 82.2404 86.2136 82.2133C85.6793 82.1978 85.176 82.5191 85.0405 82.9799C84.7423 84.0214 84.7384 86.0774 84.7578 88.2689C84.7656 88.749 85.2302 89.1285 85.7722 89.1478L91.5027 89.1827C92.0912 89.1866 92.5829 88.8032 92.6449 88.296L93.2218 83.4949C93.2411 83.3361 93.1947 83.1774 93.0863 83.0457C92.9546 82.887 92.7533 82.7824 92.5287 82.767Z" fill="white"/>
<path opacity="0.6" d="M92.6297 84.0292L92.1689 87.8662C92.107 88.3657 91.6346 88.7413 91.0693 88.7413L86.4888 88.7103C85.9429 88.7103 85.5015 88.3115 85.4938 87.8236C85.4783 86.1936 85.4744 84.428 85.7261 83.5452C85.8577 83.0922 86.3262 82.7824 86.8489 82.7979C88.0918 82.8328 90.7053 83.1387 91.9056 83.2393C92.3509 83.2742 92.6761 83.6343 92.6297 84.0292Z" fill="white"/>
<g opacity="0.6">
<path d="M80.7736 84.5479C81.0446 84.544 81.2111 84.757 81.1337 85.0203L80.6032 86.9175C80.5296 87.1808 80.247 87.3937 79.9721 87.386L51.1652 86.9407C50.8941 86.9369 50.6773 86.7084 50.6889 86.4335L50.7315 85.2913C50.7393 85.0164 50.9716 84.7918 51.2465 84.7918L80.7736 84.5479Z" fill="white"/>
</g>
<g opacity="0.6">
<path d="M77.9976 96.6746C78.2725 96.6707 78.4429 96.8837 78.3732 97.1508L77.8969 99.0403C77.8311 99.3036 77.5523 99.5166 77.2813 99.5127L51.6261 99.1139C51.3551 99.11 51.1382 98.8816 51.1499 98.6106L51.1886 97.4645C51.1963 97.1934 51.4286 96.965 51.7035 96.965L77.9976 96.6746Z" fill="white"/>
</g>
<g opacity="0.6">
<path d="M92.0799 97.476C92.3548 97.4644 92.5523 97.6774 92.5174 97.9484L92.3432 99.3849C92.3122 99.6559 92.0605 99.8766 91.7856 99.8727L82.6906 99.7295C82.4156 99.7256 82.1988 99.4972 82.2027 99.2261L82.2259 98.4053C82.2298 98.1343 82.4582 97.8981 82.7331 97.8865L92.0799 97.476Z" fill="white"/>
</g>
<path fill-rule="evenodd" clip-rule="evenodd" d="M69.4214 18.4625C71.2412 17.1538 72.8403 17.1499 73.9748 17.4635C75.0047 17.7501 75.6862 18.7296 75.6087 19.7983L75.2099 25.1067L69.4408 25.7184C69.4408 25.7184 65.8593 21.0334 69.4214 18.4625ZM72.035 22.6945C72.8326 22.6828 73.4676 22.0285 73.4521 21.2309C73.4405 20.4333 72.7822 19.8022 71.9885 19.8138C71.1909 19.8293 70.5598 20.4836 70.5714 21.2812C70.583 22.075 71.2412 22.71 72.035 22.6945Z" fill="url(#paint1_linear_288_6134)"/>
<path d="M74.5713 23.0314C74.4164 23.0197 74.2964 22.8842 74.308 22.7255L74.3738 21.8814C74.3854 21.7227 74.521 21.6026 74.6797 21.6181C74.8385 21.6297 74.9546 21.7653 74.943 21.924L74.881 22.7681C74.8733 22.8842 74.7959 22.9772 74.6991 23.0159C74.6603 23.0275 74.6178 23.0352 74.5713 23.0314ZM74.6952 21.3742C74.5403 21.3626 74.4203 21.2271 74.4319 21.0683L74.4822 20.4295C74.5403 19.6125 74.0176 18.8613 73.2355 18.6445C72.6082 18.4741 71.9655 18.4587 71.3266 18.598C71.1718 18.6329 71.0208 18.5361 70.9859 18.3812C70.9511 18.2263 71.0517 18.0753 71.2027 18.0405C71.9345 17.8779 72.6702 17.8972 73.3865 18.0947C74.4319 18.3851 75.1327 19.384 75.0514 20.4682L75.0049 21.1109C74.9933 21.2271 74.9198 21.32 74.8191 21.3587C74.7842 21.3742 74.7417 21.3781 74.6952 21.3742Z" fill="#DCF0F0"/>
<path d="M61.4302 29.1488L61.5386 26.5856C61.5734 25.7725 62.2239 25.1182 63.0409 25.0756L81.4014 24.1386C82.3191 24.0921 83.0973 24.8162 83.1128 25.7338L83.1554 28.3977L61.4302 29.1488Z" fill="url(#paint2_linear_288_6134)"/>
<path d="M77.0414 25.2422L76.2516 25.2538C76.1586 25.2577 76.0812 25.1841 76.0812 25.0912C76.0773 25.0021 76.147 24.9247 76.2438 24.9247L77.0337 24.9092C77.1266 24.9092 77.2002 24.9827 77.2041 25.0718C77.2041 25.1647 77.1344 25.2383 77.0414 25.2422Z" fill="#DCF0F0"/>
<path d="M82.1487 27.728C81.9899 27.728 81.8621 27.6041 81.8583 27.4454L81.8389 26.3651C81.8312 25.7688 81.3356 25.2887 80.7393 25.3003L77.8315 25.3507C77.6727 25.3507 77.545 25.2268 77.5411 25.068C77.5372 24.9093 77.665 24.7815 77.8238 24.7776L80.7277 24.7273C81.1691 24.7196 81.5911 24.8861 81.9086 25.1919C82.2261 25.5017 82.4042 25.916 82.412 26.3574L82.4313 27.4338C82.4313 27.5577 82.3577 27.6661 82.2493 27.7087C82.2183 27.719 82.1848 27.7254 82.1487 27.728Z" fill="#DCF0F0"/>
<path d="M90.6514 28.9476L90.7482 30.4189C90.7985 31.1778 90.2061 31.8205 89.4472 31.8321L56.4857 32.3858C55.2196 32.409 54.24 31.2823 54.4375 30.0317L54.4607 29.8768C54.6388 28.7346 55.6146 27.8867 56.7684 27.8673L88.8974 27.3291C89.8189 27.3136 90.5933 28.026 90.6514 28.9476Z" fill="url(#paint3_linear_288_6134)"/>
<path d="M91.8206 61.8432C90.2796 64.267 88.7385 64.6309 88.7385 64.6309C86.4503 61.6147 86.4503 58.3933 86.6555 56.7245C86.6942 56.4302 87.1085 56.3915 87.1937 56.6819L88.8779 62.4588C88.936 62.6563 89.1916 62.7027 89.3155 62.5401L90.5429 60.91C90.8061 60.5654 91.3017 60.5035 91.6425 60.7706C91.9677 61.0301 92.0451 61.4908 91.8206 61.8432Z" fill="#0C73E3"/>
<path d="M91.3715 48.1444C89.8305 50.5683 88.2856 50.9361 88.2856 50.9361C85.9973 47.9199 85.9973 44.6946 86.2064 43.0297C86.2412 42.7315 86.6594 42.6967 86.7446 42.9832L88.425 48.7601C88.4831 48.9575 88.7386 49.004 88.8625 48.8414L90.0938 47.2152C90.3571 46.8667 90.8488 46.8048 91.1895 47.0758C91.5148 47.3313 91.5922 47.796 91.3715 48.1444Z" fill="#0C73E3"/>
<path d="M91.1624 73.6797C89.6214 76.1035 88.0803 76.4674 88.0803 76.4674C85.792 73.4512 85.792 70.2298 85.9973 68.5649C86.036 68.2668 86.4503 68.228 86.5355 68.5184L88.2197 74.2953C88.2778 74.4928 88.5333 74.5392 88.6572 74.3766L89.8846 72.7466C90.1479 72.402 90.6435 72.34 90.9843 72.6072C91.3095 72.8666 91.3869 73.3273 91.1624 73.6797Z" fill="#0C73E3"/>
<path d="M91.6733 84.9431C90.1323 87.367 88.5874 87.7309 88.5874 87.7309C86.2991 84.7147 86.2991 81.4933 86.5082 79.8245C86.543 79.5264 86.9612 79.4915 87.0425 79.7819L88.7268 85.5588C88.7848 85.7524 89.0404 85.8027 89.1643 85.6362L90.3956 84.01C90.655 83.6654 91.1506 83.5996 91.4913 83.8706C91.8165 84.1262 91.894 84.5908 91.6733 84.9431Z" fill="#1081E8"/>
<path d="M33.2598 112.084C30.5387 112.029 28.3865 109.758 28.4842 107.037L29.8086 86.4696C29.8765 84.5296 31.3793 82.9463 33.3107 82.7849C47.4679 81.5921 64.7663 81.5963 73.1587 81.6897C75.9519 81.7194 78.1975 83.9948 78.1975 86.788V108.064C78.1975 110.738 76.0029 112.895 73.3243 112.844L33.2598 112.084Z" fill="url(#paint4_linear_288_6134)"/>
<path d="M73.3414 89.0889C73.3754 90.9015 73.3202 93.7712 73.2778 95.6305C73.2565 96.5941 72.4076 97.3285 71.4482 97.2181L64.5458 96.4073C63.6246 96.3012 62.9751 95.4522 63.1152 94.5353L63.96 88.8851C64.0831 88.0828 64.7708 87.4885 65.5816 87.4885H71.7029C72.5943 87.4885 73.3245 88.1974 73.3414 89.0889Z" fill="white"/>
<path opacity="0.4" d="M55.3 99.8034L49.5395 100.423C48.7329 100.512 48.0452 99.8458 48.1047 99.0393L49.3654 81.9064C51.7808 81.83 54.1581 81.7748 56.4589 81.7366V98.5129C56.4589 99.1751 55.9579 99.7312 55.3 99.8034Z" fill="white"/>
<path d="M52.9395 96.8362C52.9183 97.1418 52.6636 97.3795 52.3622 97.3795C52.3509 97.3795 52.3395 97.3795 52.3282 97.3795C52.0056 97.3626 51.7636 97.0866 51.7806 96.7683L52.6509 81.8173C53.0414 81.8046 53.4277 81.7961 53.8097 81.7876L52.9395 96.8362Z" fill="white"/>
<path d="M70.1358 94.484C70.0297 94.4798 69.949 94.3864 69.9533 94.2802L70.2547 89.5725C70.2589 89.4664 70.3438 89.3815 70.4584 89.39C70.5646 89.3985 70.6452 89.4919 70.6367 89.598L70.3396 94.3057C70.3311 94.4076 70.2462 94.4882 70.1486 94.4882C70.1429 94.4882 70.1387 94.4868 70.1358 94.484Z" fill="url(#paint5_linear_288_6134)"/>
<path d="M69.5248 94.4883C69.4187 94.4841 69.3338 94.395 69.338 94.2888L69.4951 89.4877C69.4994 89.3816 69.5715 89.2967 69.6946 89.3009C69.8008 89.3052 69.8857 89.3943 69.8814 89.5004L69.7243 94.3016C69.7201 94.4034 69.6352 94.4883 69.5333 94.4883C69.5291 94.4883 69.5248 94.4883 69.5248 94.4883Z" fill="url(#paint6_linear_288_6134)"/>
<path fill-rule="evenodd" clip-rule="evenodd" d="M68.6969 94.4842C68.5907 94.4799 68.5101 94.3908 68.5143 94.2847C68.5907 92.6716 68.7393 89.5982 68.7393 89.4921C68.7393 89.3859 68.8284 89.301 68.9346 89.301C69.0407 89.301 69.1256 89.3859 69.1256 89.4963C69.1256 89.5727 68.9388 93.5121 68.9006 94.3017C68.8964 94.4078 68.8115 94.4884 68.7096 94.4884C68.7039 94.4884 68.6997 94.487 68.6969 94.4842ZM68.7351 89.4963H68.7393H68.7351Z" fill="url(#paint7_linear_288_6134)"/>
<path d="M67.4063 94.6793C67.1941 94.6708 67.0285 94.4925 67.0328 94.2803C67.0922 92.6205 67.1771 89.9164 67.1644 89.6362C67.1389 89.4452 67.2578 89.2627 67.4488 89.2117C67.6526 89.1565 67.8648 89.2754 67.92 89.4834C67.9412 89.5513 67.9709 89.6575 67.8054 94.3057C67.7969 94.5138 67.6271 94.6793 67.4191 94.6793C67.4163 94.6793 67.412 94.6793 67.4063 94.6793Z" fill="url(#paint8_linear_288_6134)"/>
<path d="M66.3921 94.2931V89.5854C66.3921 89.4793 66.477 89.3901 66.5831 89.3901C66.6892 89.3901 66.7784 89.4793 66.7784 89.5854V94.2931C66.7784 94.3993 66.6892 94.4884 66.5831 94.4884C66.477 94.4884 66.3921 94.3993 66.3921 94.2931Z" fill="url(#paint9_linear_288_6134)"/>
<path d="M65.9037 94.4884C65.7976 94.4841 65.7127 94.395 65.7169 94.2888C65.8231 89.5472 65.9207 89.4792 66.0268 89.4113C66.116 89.3519 66.2348 89.3774 66.2943 89.4665C66.3367 89.5302 66.3367 89.6066 66.3028 89.666C66.2264 89.9886 66.1372 92.663 66.099 94.2973C66.099 94.4035 66.0141 94.4884 65.908 94.4884H65.9037Z" fill="url(#paint10_linear_288_6134)"/>
<path d="M71.1675 94.9127C70.951 94.9042 70.7897 94.7217 70.7982 94.5094L71.0571 89.564C71.0698 89.3517 71.2609 89.1819 71.4646 89.1989C71.6769 89.2117 71.8382 89.39 71.8297 89.6022L71.5708 94.5476C71.5623 94.7557 71.3882 94.917 71.1845 94.917C71.1788 94.917 71.1731 94.9155 71.1675 94.9127Z" fill="url(#paint11_linear_288_6134)"/>
<path d="M71.0703 81.9363L42.9344 81.4014C41.0199 81.3675 39.5129 79.7714 39.5808 77.8611L40.5105 63.4153C40.5572 62.0527 41.6142 60.9447 42.9683 60.8301C52.9102 59.9896 65.0636 59.9938 70.9515 60.0575C72.9169 60.0787 74.4918 61.6749 74.4918 63.6403V78.5785C74.4918 80.4591 72.9509 81.9745 71.0703 81.9363Z" fill="url(#paint12_linear_288_6134)"/>
<path d="M71.083 65.2575C71.1085 66.5268 71.0702 68.5431 71.0363 69.8464C71.0236 70.5256 70.425 71.0435 69.7543 70.9628L64.9065 70.394C64.257 70.3176 63.8028 69.7232 63.9004 69.0823L64.4947 65.1132C64.5796 64.5486 65.0636 64.1326 65.6324 64.1326H69.9283C70.5566 64.1326 71.0703 64.6292 71.083 65.2575Z" fill="white"/>
<path opacity="0.4" d="M58.4116 72.7797L54.3661 73.2169C53.8015 73.2763 53.3176 72.8094 53.36 72.2405L54.243 60.2102C55.941 60.1592 57.6135 60.121 59.2266 60.0913V71.8712C59.2266 72.3382 58.8743 72.7287 58.4116 72.7797Z" fill="white"/>
<path d="M56.7519 70.6952C56.7434 70.9117 56.5609 71.0773 56.3486 71.0773C56.3401 71.0773 56.3316 71.0773 56.3232 71.0773C56.0982 71.0646 55.9284 70.8735 55.9411 70.6485L56.5524 60.1464C56.8241 60.1407 57.0957 60.1351 57.3674 60.1294L56.7519 70.6952Z" fill="white"/>
<path d="M68.829 69.0441C68.7568 69.0399 68.6974 68.9762 68.7059 68.8998L68.9139 65.5929C68.9181 65.5207 68.9776 65.4613 69.0582 65.4698C69.1304 65.474 69.1898 65.5377 69.1856 65.6099L68.9733 68.9168C68.9691 68.9889 68.9097 69.0441 68.8375 69.0441C68.8347 69.0441 68.8318 69.0441 68.829 69.0441Z" fill="url(#paint13_linear_288_6134)"/>
<path d="M68.4048 69.0442C68.3283 69.0442 68.2689 68.9805 68.2732 68.9041L68.3835 65.5336C68.3835 65.4614 68.4345 65.402 68.5236 65.4062C68.5958 65.4062 68.6552 65.4699 68.6552 65.5463L68.5448 68.9168C68.5406 68.989 68.4812 69.0442 68.409 69.0442C68.4048 69.0442 68.4048 69.0442 68.4048 69.0442Z" fill="url(#paint14_linear_288_6134)"/>
<path fill-rule="evenodd" clip-rule="evenodd" d="M67.823 69.0442C67.7466 69.0442 67.6914 68.9805 67.6914 68.9041C67.7466 67.7707 67.8485 65.6142 67.8527 65.5378C67.8527 65.4657 67.9121 65.4062 67.9886 65.4062C68.0607 65.4062 68.1244 65.4657 68.1244 65.5378C68.1244 65.5973 67.9886 68.3608 67.9631 68.9169C67.9588 68.989 67.8994 69.0442 67.8272 69.0442C67.8272 69.0442 67.8258 69.0442 67.823 69.0442ZM67.8485 65.5378H67.8527H67.8485Z" fill="url(#paint15_linear_288_6134)"/>
<path d="M66.9147 69.18C66.7661 69.1757 66.6472 69.0484 66.6557 68.8998C66.6939 67.7367 66.7533 65.8349 66.7449 65.6396C66.7279 65.508 66.8128 65.3764 66.9444 65.3425C67.0887 65.3 67.2373 65.3849 67.2755 65.5335C67.2882 65.5802 67.3094 65.6524 67.1948 68.921C67.1906 69.0654 67.0717 69.18 66.9231 69.18C66.9203 69.18 66.9175 69.18 66.9147 69.18Z" fill="url(#paint16_linear_288_6134)"/>
<path d="M66.2017 68.9083V65.6014C66.2017 65.5292 66.2611 65.4656 66.3375 65.4656C66.4139 65.4656 66.4733 65.5292 66.4733 65.6014V68.9083C66.4733 68.9847 66.4139 69.0441 66.3375 69.0441C66.2611 69.0441 66.2017 68.9847 66.2017 68.9083Z" fill="url(#paint17_linear_288_6134)"/>
<path d="M65.8577 69.0442C65.7855 69.0442 65.7261 68.9805 65.7261 68.9083C65.8025 65.576 65.8704 65.5293 65.9468 65.4826C66.0105 65.4401 66.0911 65.4571 66.1336 65.5208C66.1633 65.5632 66.1633 65.6184 66.1378 65.6609C66.0869 65.8859 66.0232 67.7622 65.9978 68.9126C65.9978 68.989 65.9383 69.0442 65.8619 69.0442H65.8577Z" fill="url(#paint18_linear_288_6134)"/>
<path d="M69.555 69.3455C69.4064 69.337 69.2918 69.2096 69.296 69.0611L69.4786 65.5886C69.487 65.4401 69.6229 65.3212 69.763 65.3339C69.9115 65.3382 70.0262 65.4655 70.0219 65.6184L69.8394 69.0908C69.8309 69.2351 69.712 69.3455 69.5677 69.3455C69.5649 69.3455 69.5606 69.3455 69.555 69.3455Z" fill="url(#paint19_linear_288_6134)"/>
<path d="M50.4692 112.785L26.1537 112.25C24.4982 112.216 23.195 110.62 23.2544 108.71L24.0567 94.2638C24.0991 92.9011 25.0118 91.7889 26.1835 91.6743C34.7754 90.838 45.2775 90.8423 50.3673 90.9059C52.0653 90.9272 53.428 92.5233 53.428 94.4887V109.427C53.428 111.307 52.095 112.823 50.4692 112.785Z" fill="url(#paint20_linear_288_6134)"/>
<path d="M50.4775 96.106C50.4987 97.3752 50.469 99.3916 50.4393 100.695C50.4266 101.374 49.9129 101.892 49.3314 101.811L45.1415 101.242C44.5812 101.166 44.1906 100.572 44.2713 99.9307L44.7849 95.9574C44.8613 95.3971 45.2774 94.9768 45.7698 94.9768H49.4842C50.0233 94.9768 50.469 95.4777 50.4775 96.106Z" fill="white"/>
<path opacity="0.4" d="M39.5297 103.628L36.0318 104.065C35.5437 104.125 35.1277 103.658 35.1616 103.089L35.9257 91.0586C37.3945 91.0076 38.8378 90.9652 40.2302 90.9397V102.72C40.2302 103.187 39.9288 103.577 39.5297 103.628Z" fill="white"/>
<path d="M38.0947 101.544C38.0863 101.76 37.9292 101.926 37.7466 101.926C37.7382 101.926 37.7311 101.926 37.7254 101.926C37.5302 101.913 37.3816 101.718 37.3943 101.497L37.9207 90.995C38.1584 90.9894 38.3933 90.9837 38.6254 90.978L38.0947 101.544Z" fill="white"/>
<path d="M48.5335 99.8925C48.4698 99.8882 48.4189 99.8246 48.4231 99.7482L48.6056 96.4413C48.6099 96.3691 48.6608 96.3097 48.7287 96.3139C48.7924 96.3224 48.8434 96.3861 48.8391 96.4583L48.6566 99.7651C48.6523 99.8373 48.6014 99.8925 48.542 99.8925C48.5391 99.8925 48.5363 99.8925 48.5335 99.8925Z" fill="url(#paint21_linear_288_6134)"/>
<path d="M48.1639 99.8927C48.1003 99.8927 48.0493 99.829 48.0493 99.7526L48.1469 96.382C48.1469 96.3099 48.1936 96.2462 48.2658 96.2504C48.3295 96.2547 48.3804 96.3184 48.3804 96.3905L48.2828 99.7611C48.2828 99.8375 48.2318 99.8927 48.1682 99.8927H48.1639Z" fill="url(#paint22_linear_288_6134)"/>
<path fill-rule="evenodd" clip-rule="evenodd" d="M47.6634 99.8925C47.5955 99.8882 47.5488 99.8245 47.5488 99.7524C47.5955 98.619 47.6847 96.4583 47.6889 96.3861C47.6889 96.3139 47.7399 96.2502 47.8035 96.2502C47.8672 96.2502 47.9224 96.3139 47.9224 96.3861C47.9224 96.4455 47.8078 99.209 47.7823 99.7651C47.7823 99.8373 47.7314 99.8925 47.6677 99.8925C47.6649 99.8925 47.6634 99.8925 47.6634 99.8925ZM47.6847 96.3861H47.6889H47.6847Z" fill="url(#paint23_linear_288_6134)"/>
<path d="M46.878 100.028C46.7464 100.024 46.6487 99.8968 46.653 99.7482C46.6869 98.5851 46.7379 96.6833 46.7336 96.488C46.7166 96.3522 46.7888 96.2248 46.9034 96.1909C47.0265 96.1484 47.1581 96.2333 47.1921 96.3777C47.2006 96.4286 47.2176 96.5008 47.1199 99.7694C47.1157 99.9138 47.0138 100.028 46.8864 100.028C46.8836 100.028 46.8808 100.028 46.878 100.028Z" fill="url(#paint24_linear_288_6134)"/>
<path d="M46.2622 99.7567V96.4498C46.2622 96.3776 46.3131 96.314 46.3768 96.314C46.4447 96.314 46.4957 96.3776 46.4957 96.4498V99.7567C46.4957 99.8331 46.4447 99.8925 46.3768 99.8925C46.3131 99.8925 46.2622 99.8331 46.2622 99.7567Z" fill="url(#paint25_linear_288_6134)"/>
<path d="M45.9652 99.8928C45.9015 99.8928 45.8506 99.8291 45.8506 99.7569C45.9143 96.4246 45.9779 96.3779 46.0416 96.3312C46.0926 96.2888 46.169 96.3057 46.2029 96.3694C46.2284 96.4119 46.2284 96.4671 46.2072 96.5095C46.1605 96.7345 46.1095 98.6108 46.0841 99.7612C46.0841 99.8334 46.0331 99.8928 45.9694 99.8928H45.9652Z" fill="url(#paint26_linear_288_6134)"/>
<path d="M49.1573 100.194C49.0299 100.185 48.928 100.058 48.9365 99.9095L49.0936 96.4371C49.0978 96.2885 49.2167 96.1697 49.3398 96.1782C49.4672 96.1867 49.569 96.314 49.5605 96.4668L49.4035 99.9393C49.3992 100.084 49.2931 100.194 49.17 100.194C49.1672 100.194 49.1629 100.194 49.1573 100.194Z" fill="url(#paint27_linear_288_6134)"/>
<path d="M51.0716 50.5103C51.0716 50.5103 49.4033 52.0215 46.7374 53.2823C42.5518 55.2605 35.9126 56.6146 29.439 50.5103L25.1006 42.2367C25.1006 42.2367 28.2674 40.6788 32.3298 43.8796C35.4117 46.3077 39.5421 50.3108 45.8842 49.3556C47.9175 49.0542 50.1716 48.2434 52.6932 46.7068L54.7987 45.5733C54.7987 45.5733 55.8345 47.6704 51.0716 50.5103Z" fill="url(#paint28_linear_288_6134)"/>
<path d="M61.2254 49.3214C58.5426 49.6356 55.8809 49.4828 53.2533 48.6932L52.1538 47.2499C52.4807 46.524 53.1004 45.5604 54.2084 45.0128C56.1399 44.0576 57.4601 43.4548 57.4601 43.4548C57.4601 43.4548 57.6851 44.5373 56.7172 44.9109C55.7536 45.2802 55.8173 45.8278 55.8173 45.8278L60.0835 47.547C60.5207 47.7211 60.8561 48.0861 60.9919 48.5361L61.2254 49.3214Z" fill="url(#paint29_linear_288_6134)"/>
<path d="M25.6823 109.096L34.2488 113.031C34.461 113.128 34.6308 113.307 34.7157 113.523C34.8176 113.786 34.6351 114.071 34.3549 114.083C32.4956 114.168 27.3082 113.969 24.8843 113.871C24.1711 113.842 23.6235 113.222 23.6872 112.509C23.8442 110.692 24.1711 108.849 24.1711 108.849L25.6823 109.096Z" fill="url(#paint30_linear_288_6134)"/>
<path d="M26.0683 107.432L26.688 109.881C25.665 110.671 24.1665 109.97 24.1665 109.97L23.9033 107.771L26.0683 107.432Z" fill="url(#paint31_linear_288_6134)"/>
<path d="M23.4833 64.9644C23.3729 65.5629 23.6871 96.161 26.6883 109.214C26.7392 109.427 27.0491 109.847 26.943 110.029C26.6841 110.475 24.7653 110.348 23.6828 110.386C23.3475 110.399 23.1649 110.004 23.0715 109.673C22.2141 106.642 18.1006 91.4702 17.5658 76.9778C16.963 60.783 17.5658 76.4259 17.5658 76.4259L17.2983 66.1657L23.4833 64.9644Z" fill="url(#paint32_linear_288_6134)"/>
<path d="M16.2455 109.915C17.2983 111.065 17.6379 112.542 17.7483 113.442C17.8035 113.897 17.4469 114.291 16.9927 114.296C16.0036 114.304 14.7725 114.202 13.9745 114.122C13.5202 114.079 13.2103 113.65 13.2995 113.205C13.8004 110.738 14.3183 109.809 14.3183 109.809L16.2455 109.915Z" fill="url(#paint33_linear_288_6134)"/>
<path d="M15.9783 106.85L16.2669 110.433C15.0741 110.756 14.4713 110.31 14.4713 110.31L13.8643 106.982L15.9783 106.85Z" fill="url(#paint34_linear_288_6134)"/>
<path d="M23.4026 64.6587L23.3304 71.2767L19.5651 74.3458C19.2085 74.6133 18.9496 74.9996 18.8349 75.441C16.5469 84.1815 16.7888 106.298 16.653 109.898C16.6445 110.174 16.4662 110.407 16.2158 110.484C15.4856 110.709 14.7428 110.645 14.2928 110.564C14.0296 110.522 13.8173 110.31 13.7579 110.038C12.7476 105.581 9.94164 81.6303 12.3953 66.1614L23.4026 64.6587Z" fill="url(#paint35_linear_288_6134)"/>
<path d="M35.9891 46.7194C36.3245 48.1457 33.1832 52.1233 34.8217 54.0208C31.6083 53.2822 29.4391 50.5102 27.8981 48.532C27.8981 48.532 24.7228 60.2779 23.6107 65.6054C23.4833 66.221 23.5852 66.8662 22.9824 67.0403C21.3268 67.5199 16.0036 68.076 12.6203 67.5327C11.9284 67.4181 12.3019 66.6837 12.234 65.9917C11.9029 62.6042 11.2619 52.3185 12.8538 43.0389C12.8538 43.0389 19.9939 41.2348 26.4676 41.3409C28.4627 41.3749 33.0855 43.4549 35.9891 46.7194Z" fill="#0C73E3"/>
<path d="M24.1032 36.0854L23.4367 41.2389C23.3985 41.5403 23.2244 41.7992 22.974 41.9606C20.5331 43.5057 18.5125 42.61 17.9521 42.3002C17.8587 42.2492 17.8205 42.1388 17.8545 42.0412L19.9133 36.0854H24.1032Z" fill="url(#paint36_linear_288_6134)"/>
<path d="M24.3918 30.5713C24.3918 30.5713 26.6544 34.829 26.3657 36.5483C26.0771 38.2675 23.2711 38.1444 20.826 36.7478L19.1152 32.1504L24.3918 30.5713Z" fill="url(#paint37_linear_288_6134)"/>
<path d="M20.6137 34.6295C20.533 34.6677 20.4906 34.7611 20.5203 34.8503L21.1613 36.7096C21.2037 36.8327 21.1018 36.96 20.9745 36.9473C19.4081 36.7648 17.4554 35.2748 17.3832 33.6107C17.3535 32.9867 17.5021 32.3669 17.6676 31.7641C17.7822 31.3439 17.9053 30.9194 18.1431 30.5543C18.5124 29.994 19.1109 29.6289 19.6883 29.2893C20.0279 29.0855 20.3717 28.8818 20.7538 28.7799C21.5433 28.5676 22.3966 28.8181 23.0928 29.2384C23.6234 29.561 24.8884 30.7538 24.2007 31.3821C23.5894 31.9467 22.2013 32.1037 21.416 32.2905C19.9727 32.6344 20.3802 32.8976 20.3802 32.8976C20.4906 33.39 20.8302 33.9546 21.0085 34.2305C21.0679 34.3239 21.0339 34.447 20.932 34.4894L20.6137 34.6295Z" fill="url(#paint38_linear_288_6134)"/>
<path d="M21.6878 35.5806C20.911 35.9286 19.3446 35.5084 19.4634 34.5787C19.5823 33.6491 21.1912 34.7528 21.1912 34.7528L21.6878 35.5806Z" fill="url(#paint39_linear_288_6134)"/>
<path d="M25.2154 29.5271C21.9127 23.2869 13.3505 28.954 17.3366 34.2136C20.2996 32.2439 23.6447 29.3148 25.2154 29.5271Z" fill="url(#paint40_linear_288_6134)"/>
<path d="M20.0024 32.04C21.5349 30.6095 23.1395 29.5185 24.9521 29.3784C24.9549 29.3784 24.9577 29.3784 24.9606 29.3784L28.5986 29.6289C28.7301 29.6374 28.7556 29.8157 28.6325 29.8581C27.6604 30.1935 26.8836 30.8047 26.3487 31.7684C26.2765 31.9 26.1407 31.9806 25.9879 31.9849L20.0576 32.1716C19.9854 32.1716 19.9515 32.0867 20.0024 32.04Z" fill="url(#paint41_linear_288_6134)"/>
<path d="M10.7524 55.0566C8.47286 53.9062 6.14235 53.5708 4.86035 53.4774C5.97679 47.6405 12.7518 43.0347 12.7518 43.0347C16.844 45.2888 17.2091 48.4216 13.5881 52.4883C13.5881 52.4883 11.2533 52.3015 10.7524 55.0566Z" fill="url(#paint42_linear_288_6134)"/>
<path d="M22.4687 58.5461C22.4687 58.5461 10.2346 67.2314 5.73913 59.0045C4.70335 57.1113 4.52506 55.2392 4.86041 53.4775C6.14241 53.5709 8.47292 53.9063 10.7525 55.0567C10.6209 55.7783 10.7482 56.5382 11.2831 57.2981C13.8514 60.9742 21.4584 56.6698 21.4584 56.6698L22.4687 58.5461Z" fill="url(#paint43_linear_288_6134)"/>
<path d="M20.5457 62.1118L24.6974 47.6109C24.7441 47.4453 24.8841 47.3265 25.0539 47.3052C25.8095 47.2161 27.9872 46.9699 30.5045 46.7576C33.5397 46.5029 37.0588 46.2949 39.1644 46.469C39.4615 46.4944 39.6441 46.8128 39.5125 47.0802C38.3154 49.4999 33.3911 59.3483 30.929 62.5746C30.8441 62.6807 30.721 62.7444 30.5852 62.7444L20.949 62.6552C20.6688 62.651 20.4693 62.3835 20.5457 62.1118Z" fill="url(#paint44_linear_288_6134)"/>
<path d="M30.9373 45.501L33.947 45.0001C34.1083 44.9704 34.2399 45.1232 34.189 45.2802L33.8918 46.1844C33.8621 46.2608 33.7942 46.3203 33.7135 46.3288L30.8142 46.7151C30.6656 46.7363 30.5425 46.6004 30.5765 46.4519L30.7633 45.6623C30.7802 45.5774 30.8524 45.5137 30.9373 45.501Z" fill="url(#paint45_linear_288_6134)"/>
<path d="M28.6831 48.0481L28.9294 46.7576C28.9548 46.626 29.0609 46.5284 29.1925 46.5156L35.2757 45.9001C35.4794 45.8789 35.645 46.0656 35.594 46.2652L35.2077 47.8783C35.178 48.0056 35.0634 48.099 34.9318 48.1032L28.9888 48.4046C28.7978 48.4131 28.6449 48.2391 28.6831 48.0481Z" fill="url(#paint46_linear_288_6134)"/>
<path d="M21.5474 58.6099C21.5474 58.6099 20.9701 56.2284 21.2036 55.3879C21.437 54.5432 21.887 53.4564 23.394 53.6984C24.901 53.9404 26.6796 54.5729 26.6796 54.5729C26.6796 54.5729 26.5905 55.6723 25.4443 55.32L26.1575 55.8676C26.1575 55.8676 26.0556 56.7463 25.0877 56.2794L25.7457 57.0053C25.7457 57.0053 25.334 57.7312 24.6208 57.2642C23.9076 56.8015 23.568 58.8943 21.5474 58.6099Z" fill="url(#paint47_linear_288_6134)"/>
<path d="M19.1367 53.766L16.8869 54.9376L14.8068 53.766L14.6455 49.7205C14.6455 49.7205 18.6613 49.5931 19.1367 49.5549V53.766Z" fill="url(#paint48_linear_288_6134)"/>
<path d="M19.6119 50.735L16.9588 51.9194L14.4585 51.2699L14.6538 49.7205L19.4549 49.5549L19.6119 50.735Z" fill="url(#paint49_linear_288_6134)"/>
<defs>
<linearGradient id="paint0_linear_288_6134" x1="39.6544" y1="27.9718" x2="105.519" y2="27.9718" gradientUnits="userSpaceOnUse">
<stop stop-color="#4E97E5"/>
<stop offset="1" stop-color="#227FE4"/>
</linearGradient>
<linearGradient id="paint1_linear_288_6134" x1="76.5961" y1="8.50009" x2="73.7502" y2="45.8484" gradientUnits="userSpaceOnUse">
<stop stop-color="#0C73E3"/>
<stop offset="1" stop-color="#0C73E3"/>
</linearGradient>
<linearGradient id="paint2_linear_288_6134" x1="53.4696" y1="19.1167" x2="77.1965" y2="49.2672" gradientUnits="userSpaceOnUse">
<stop stop-color="#0C73E3"/>
<stop offset="1" stop-color="#0C73E3"/>
</linearGradient>
<linearGradient id="paint3_linear_288_6134" x1="49.6944" y1="23.0933" x2="66.2468" y2="52.3067" gradientUnits="userSpaceOnUse">
<stop stop-color="#0C73E3"/>
<stop offset="1" stop-color="#0C73E3"/>
</linearGradient>
<linearGradient id="paint4_linear_288_6134" x1="53.3392" y1="81.6528" x2="53.3392" y2="112.845" gradientUnits="userSpaceOnUse">
<stop stop-color="#4E97E5"/>
<stop offset="1" stop-color="#1075E4"/>
</linearGradient>
<linearGradient id="paint5_linear_288_6134" x1="66.5827" y1="89.7041" x2="78.7107" y2="107.329" gradientUnits="userSpaceOnUse">
<stop stop-color="#09005D"/>
<stop offset="1" stop-color="#1A0F91"/>
</linearGradient>
<linearGradient id="paint6_linear_288_6134" x1="66.1373" y1="89.9334" x2="78.3459" y2="107.678" gradientUnits="userSpaceOnUse">
<stop stop-color="#09005D"/>
<stop offset="1" stop-color="#1A0F91"/>
</linearGradient>
<linearGradient id="paint7_linear_288_6134" x1="65.5641" y1="90.2901" x2="77.8194" y2="108.102" gradientUnits="userSpaceOnUse">
<stop stop-color="#09005D"/>
<stop offset="1" stop-color="#1A0F91"/>
</linearGradient>
<linearGradient id="paint8_linear_288_6134" x1="64.5962" y1="91.2833" x2="76.427" y2="108.476" gradientUnits="userSpaceOnUse">
<stop stop-color="#09005D"/>
<stop offset="1" stop-color="#1A0F91"/>
</linearGradient>
<linearGradient id="paint9_linear_288_6134" x1="64.0913" y1="91.2112" x2="76.4484" y2="109.168" gradientUnits="userSpaceOnUse">
<stop stop-color="#09005D"/>
<stop offset="1" stop-color="#1A0F91"/>
</linearGradient>
<linearGradient id="paint10_linear_288_6134" x1="63.6751" y1="91.6612" x2="75.7988" y2="109.282" gradientUnits="userSpaceOnUse">
<stop stop-color="#09005D"/>
<stop offset="1" stop-color="#1A0F91"/>
</linearGradient>
<linearGradient id="paint11_linear_288_6134" x1="67.0116" y1="89.4282" x2="79.1269" y2="107.028" gradientUnits="userSpaceOnUse">
<stop stop-color="#09005D"/>
<stop offset="1" stop-color="#1A0F91"/>
</linearGradient>
<linearGradient id="paint12_linear_288_6134" x1="57.0352" y1="60.0325" x2="57.0352" y2="81.937" gradientUnits="userSpaceOnUse">
<stop stop-color="#5298E4"/>
<stop offset="1" stop-color="#0C73E3"/>
</linearGradient>
<linearGradient id="paint13_linear_288_6134" x1="66.3159" y1="65.699" x2="74.8357" y2="78.0818" gradientUnits="userSpaceOnUse">
<stop stop-color="#09005D"/>
<stop offset="1" stop-color="#1A0F91"/>
</linearGradient>
<linearGradient id="paint14_linear_288_6134" x1="66.0021" y1="65.8647" x2="74.577" y2="78.3238" gradientUnits="userSpaceOnUse">
<stop stop-color="#09005D"/>
<stop offset="1" stop-color="#1A0F91"/>
</linearGradient>
<linearGradient id="paint15_linear_288_6134" x1="65.5986" y1="66.1152" x2="74.2075" y2="78.6209" gradientUnits="userSpaceOnUse">
<stop stop-color="#09005D"/>
<stop offset="1" stop-color="#1A0F91"/>
</linearGradient>
<linearGradient id="paint16_linear_288_6134" x1="64.9195" y1="66.8112" x2="73.2312" y2="78.8841" gradientUnits="userSpaceOnUse">
<stop stop-color="#09005D"/>
<stop offset="1" stop-color="#1A0F91"/>
</linearGradient>
<linearGradient id="paint17_linear_288_6134" x1="64.5673" y1="66.7603" x2="73.2441" y2="79.368" gradientUnits="userSpaceOnUse">
<stop stop-color="#09005D"/>
<stop offset="1" stop-color="#1A0F91"/>
</linearGradient>
<linearGradient id="paint18_linear_288_6134" x1="64.2743" y1="67.0745" x2="72.7898" y2="79.4529" gradientUnits="userSpaceOnUse">
<stop stop-color="#09005D"/>
<stop offset="1" stop-color="#1A0F91"/>
</linearGradient>
<linearGradient id="paint19_linear_288_6134" x1="66.6174" y1="65.508" x2="75.1244" y2="77.8695" gradientUnits="userSpaceOnUse">
<stop stop-color="#09005D"/>
<stop offset="1" stop-color="#1A0F91"/>
</linearGradient>
<linearGradient id="paint20_linear_288_6134" x1="38.3402" y1="90.8809" x2="38.3402" y2="112.785" gradientUnits="userSpaceOnUse">
<stop stop-color="#4F97E5"/>
<stop offset="1" stop-color="#1578E4"/>
</linearGradient>
<linearGradient id="paint21_linear_288_6134" x1="46.0204" y1="96.5304" x2="54.5529" y2="108.93" gradientUnits="userSpaceOnUse">
<stop stop-color="#09005D"/>
<stop offset="1" stop-color="#1A0F91"/>
</linearGradient>
<linearGradient id="paint22_linear_288_6134" x1="45.774" y1="96.7004" x2="54.3405" y2="109.147" gradientUnits="userSpaceOnUse">
<stop stop-color="#09005D"/>
<stop offset="1" stop-color="#1A0F91"/>
</linearGradient>
<linearGradient id="paint23_linear_288_6134" x1="45.4475" y1="96.9464" x2="54.0564" y2="109.457" gradientUnits="userSpaceOnUse">
<stop stop-color="#09005D"/>
<stop offset="1" stop-color="#1A0F91"/>
</linearGradient>
<linearGradient id="paint24_linear_288_6134" x1="44.9125" y1="97.6427" x2="53.1818" y2="109.66" gradientUnits="userSpaceOnUse">
<stop stop-color="#09005D"/>
<stop offset="1" stop-color="#1A0F91"/>
</linearGradient>
<linearGradient id="paint25_linear_288_6134" x1="44.6236" y1="97.6045" x2="53.2665" y2="110.165" gradientUnits="userSpaceOnUse">
<stop stop-color="#09005D"/>
<stop offset="1" stop-color="#1A0F91"/>
</linearGradient>
<linearGradient id="paint26_linear_288_6134" x1="44.3903" y1="97.9104" x2="52.9058" y2="110.289" gradientUnits="userSpaceOnUse">
<stop stop-color="#09005D"/>
<stop offset="1" stop-color="#1A0F91"/>
</linearGradient>
<linearGradient id="paint27_linear_288_6134" x1="46.2452" y1="96.3395" x2="54.731" y2="108.667" gradientUnits="userSpaceOnUse">
<stop stop-color="#09005D"/>
<stop offset="1" stop-color="#1A0F91"/>
</linearGradient>
<linearGradient id="paint28_linear_288_6134" x1="65.3518" y1="32.2312" x2="22.8804" y2="86.5717" gradientUnits="userSpaceOnUse">
<stop stop-color="#FEBBBA"/>
<stop offset="1" stop-color="#FF928E"/>
</linearGradient>
<linearGradient id="paint29_linear_288_6134" x1="68.2042" y1="40.1395" x2="39.8433" y2="76.4216" gradientUnits="userSpaceOnUse">
<stop stop-color="#FEBBBA"/>
<stop offset="1" stop-color="#FF928E"/>
</linearGradient>
<linearGradient id="paint30_linear_288_6134" x1="25.1644" y1="103.844" x2="23.2754" y2="113.026" gradientUnits="userSpaceOnUse">
<stop stop-color="#0C73E3"/>
<stop offset="1" stop-color="#0C73E3"/>
</linearGradient>
<linearGradient id="paint31_linear_288_6134" x1="23.9033" y1="107.355" x2="26.688" y2="107.355" gradientUnits="userSpaceOnUse">
<stop stop-color="#FEBBBA"/>
<stop offset="1" stop-color="#FF928E"/>
</linearGradient>
<linearGradient id="paint32_linear_288_6134" x1="16.7125" y1="38.7641" x2="30.0376" y2="96.6831" gradientUnits="userSpaceOnUse">
<stop/>
<stop offset="1"/>
</linearGradient>
<linearGradient id="paint33_linear_288_6134" x1="13.1254" y1="105.457" x2="13.2103" y2="114.648" gradientUnits="userSpaceOnUse">
<stop stop-color="#0C73E3"/>
<stop offset="1" stop-color="#0C73E3"/>
</linearGradient>
<linearGradient id="paint34_linear_288_6134" x1="13.8643" y1="106.774" x2="16.2669" y2="106.774" gradientUnits="userSpaceOnUse">
<stop stop-color="#FEBBBA"/>
<stop offset="1" stop-color="#FF928E"/>
</linearGradient>
<linearGradient id="paint35_linear_288_6134" x1="16.1436" y1="32.6173" x2="30.2031" y2="93.7243" gradientUnits="userSpaceOnUse">
<stop stop-color="#161616"/>
<stop offset="1" stop-color="#161616"/>
</linearGradient>
<linearGradient id="paint36_linear_288_6134" x1="17.863" y1="36.009" x2="24.1032" y2="36.009" gradientUnits="userSpaceOnUse">
<stop stop-color="#FEBBBA"/>
<stop offset="1" stop-color="#FF928E"/>
</linearGradient>
<linearGradient id="paint37_linear_288_6134" x1="23.5301" y1="38.1741" x2="16.8866" y2="34.1201" gradientUnits="userSpaceOnUse">
<stop stop-color="#FEBBBA"/>
<stop offset="1" stop-color="#FF928E"/>
</linearGradient>
<linearGradient id="paint38_linear_288_6134" x1="18.4105" y1="25.7107" x2="25.3808" y2="31.2165" gradientUnits="userSpaceOnUse">
<stop stop-color="#161616"/>
<stop offset="1" stop-color="#161616"/>
</linearGradient>
<linearGradient id="paint39_linear_288_6134" x1="23.1481" y1="37.6012" x2="17.2475" y2="34.0056" gradientUnits="userSpaceOnUse">
<stop stop-color="#FEBBBA"/>
<stop offset="1" stop-color="#FF928E"/>
</linearGradient>
<linearGradient id="paint40_linear_288_6134" x1="287.71" y1="243.484" x2="296.344" y2="250.943" gradientUnits="userSpaceOnUse">
<stop stop-color="#0C73E3"/>
<stop offset="1" stop-color="#1A0F91"/>
</linearGradient>
<linearGradient id="paint41_linear_288_6134" x1="28.9466" y1="29.7605" x2="17.0351" y2="40.0504" gradientUnits="userSpaceOnUse">
<stop stop-color="#0C73E3"/>
<stop offset="1" stop-color="#1A0F91"/>
</linearGradient>
<linearGradient id="paint42_linear_288_6134" x1="53.5295" y1="86.2786" x2="82.3361" y2="113.791" gradientUnits="userSpaceOnUse">
<stop stop-color="#0C73E3"/>
<stop offset="1" stop-color="#1A0F91"/>
</linearGradient>
<linearGradient id="paint43_linear_288_6134" x1="4.88588" y1="53.4224" x2="22.4687" y2="53.4224" gradientUnits="userSpaceOnUse">
<stop stop-color="#FEBBBA"/>
<stop offset="1" stop-color="#FF928E"/>
</linearGradient>
<linearGradient id="paint44_linear_288_6134" x1="59.1329" y1="37.7709" x2="46.3639" y2="49.0499" gradientUnits="userSpaceOnUse">
<stop stop-color="#FF928E"/>
<stop offset="1" stop-color="#0F2851"/>
</linearGradient>
<linearGradient id="paint45_linear_288_6134" x1="33.6796" y1="47.7721" x2="31.6462" y2="56.6866" gradientUnits="userSpaceOnUse">
<stop stop-color="#FF928E"/>
<stop offset="1" stop-color="#FE7062"/>
</linearGradient>
<linearGradient id="paint46_linear_288_6134" x1="34.7832" y1="51.512" x2="33.7984" y2="57.4126" gradientUnits="userSpaceOnUse">
<stop stop-color="#FF928E"/>
<stop offset="1" stop-color="#FE7062"/>
</linearGradient>
<linearGradient id="paint47_linear_288_6134" x1="21.3224" y1="53.588" x2="26.6796" y2="53.588" gradientUnits="userSpaceOnUse">
<stop stop-color="#FEBBBA"/>
<stop offset="1" stop-color="#FF928E"/>
</linearGradient>
<linearGradient id="paint48_linear_288_6134" x1="13.7286" y1="38.5773" x2="15.0827" y2="59.3057" gradientUnits="userSpaceOnUse">
<stop stop-color="#0C74E4"/>
<stop offset="1" stop-color="#1D87FA"/>
</linearGradient>
<linearGradient id="paint49_linear_288_6134" x1="5.45057" y1="38.8617" x2="14.3948" y2="51.3294" gradientUnits="userSpaceOnUse">
<stop stop-color="#0C73E3"/>
<stop offset="1" stop-color="#0763C7"/>
</linearGradient>
</defs>
</svg>
