<?xml version="1.0" encoding="UTF-8"?>
<svg width="44" height="44" viewBox="0 0 44 44" fill="none" xmlns="http://www.w3.org/2000/svg">
<mask id="path-1-outside-1_288_441" maskUnits="userSpaceOnUse" x="6" y="0" width="32" height="43" fill="black">
<rect fill="white" x="6" width="32" height="43"/>
<path d="M36.9916 31.7913C36.9916 26.3227 32.0081 20.7115 28.8686 17.7219C29.0134 17.623 29.1485 17.512 29.274 17.3913C30.249 16.4042 30.249 14.8139 29.274 13.8244C28.8083 13.3635 28.3015 12.946 27.7585 12.5816L28.3353 12.251C29.3827 11.7031 30.2852 10.9164 30.9706 9.95344C31.7718 8.76125 31.726 7.19016 30.8548 6.04869C30.1067 5.25956 29.0255 4.88066 27.9467 5.02789L27.7006 5.06891C27.7778 4.75518 27.8212 4.43423 27.8309 4.11322C27.9033 2.98862 27.3482 1.91709 26.3902 1.32825C24.8336 0.464307 23.096 1.52614 22.2706 1.99432L19.4374 3.70052C19.2154 3.83325 18.7544 4.12044 18.5058 4.06252H18.5083C18.2766 3.9491 18.0739 3.78741 17.9146 3.58468C17.5284 3.12133 17.0023 2.79314 16.4159 2.65556C15.465 2.56144 14.5649 3.09961 14.1981 3.98045C13.9278 4.65862 13.8506 5.39709 13.976 6.11382C14.256 8.40645 15.1706 10.5761 16.621 12.3741C15.9525 12.7868 15.3347 13.2742 14.7748 13.8245C13.795 14.8116 13.795 16.4044 14.7748 17.3914C14.8979 17.5121 15.033 17.6207 15.1803 17.7124C12.043 20.7024 7.04987 26.3209 7.05728 31.7892C6.71941 34.6466 7.73304 40.1828 13.986 41.0156V41.018C14.4204 41.0662 14.85 41.1507 15.2699 41.2714C17.2368 41.8795 19.2833 42.186 21.3418 42.186H22.0006C24.2933 42.2536 26.5836 41.9471 28.7799 41.2811C29.1998 41.1604 29.6294 41.0735 30.0637 41.0253C36.3166 40.1854 37.3304 34.6495 36.9925 31.7921L36.9916 31.7913ZM26.4066 8.50296C26.4814 8.34609 26.5466 8.18199 26.6118 8.02512C26.6431 7.96238 26.6697 7.8948 26.6938 7.82723C26.759 7.68002 26.8265 7.52315 26.8845 7.37352C26.9424 7.22631 26.9593 7.19976 26.9906 7.11047C27.0244 7.01876 27.0655 6.92947 27.0968 6.84742H27.0993C27.4347 6.76537 27.775 6.70503 28.1201 6.66642C28.6582 6.57954 29.2085 6.74847 29.6018 7.12736C29.9976 7.72104 29.9976 8.49328 29.6018 9.0894C29.0516 9.82064 28.342 10.4191 27.5263 10.8342C27.0316 11.1383 26.5104 11.3941 25.9698 11.6017C25.6222 11.4593 25.2675 11.3386 24.9079 11.2373L24.9827 11.1214C25.0985 10.9573 25.2144 10.7908 25.3206 10.6194H25.3181C25.3519 10.576 25.3785 10.5302 25.4002 10.4795C25.4991 10.3154 25.5981 10.1585 25.6874 9.9944L25.7791 9.83029L26.0349 9.34521C26.0349 9.29695 26.0832 9.23903 26.1169 9.18111C26.1507 9.1232 26.2738 8.86014 26.3486 8.69603L26.4066 8.50296ZM15.6166 5.91588H15.6142C15.5321 5.49596 15.5611 5.06157 15.6986 4.6561C15.7976 4.43407 16.0196 4.26031 16.1596 4.27721C16.3912 4.38581 16.594 4.5475 16.7508 4.74781C17.1177 5.17979 17.6003 5.49832 18.1433 5.66248C18.9083 5.77107 19.6854 5.57318 20.3032 5.10983C21.2589 4.54993 22.1977 3.98041 23.1606 3.39639C23.9835 2.91855 24.9489 2.4069 25.5908 2.77135C25.9987 3.07301 26.2231 3.56536 26.1845 4.07215C26.1604 4.55482 26.0518 5.02784 25.8635 5.47186L25.7308 5.89178L25.6488 6.08967C25.0792 7.76209 24.2466 9.33077 23.1775 10.7353L23.0786 10.8415C22.7407 10.8415 22.4028 10.7932 22.0578 10.7932C20.7183 10.7932 19.3935 11.049 18.153 11.551C16.7774 9.95825 15.8966 8.00103 15.6142 5.91592L15.6166 5.91588ZM15.9472 14.9779H15.9448C19.3041 11.6258 24.7436 11.6258 28.1033 14.9779C28.2722 15.1396 28.3639 15.3641 28.3591 15.5957C28.3591 15.8274 28.2674 16.0494 28.1033 16.2135C27.944 16.3776 27.722 16.4669 27.4927 16.4597C26.8797 15.936 26.1967 15.492 25.468 15.142C23.3394 13.9016 20.7089 13.9016 18.5806 15.142C17.8518 15.492 17.1688 15.936 16.5559 16.4597C16.2035 16.4621 15.885 16.2497 15.7498 15.9239C15.6171 15.5981 15.6943 15.2241 15.9453 14.978L15.9472 14.9779ZM29.8504 39.3864C30.1135 38.5103 30.2124 37.5957 30.1472 36.6835C30.1038 36.2298 29.6984 35.8943 29.2447 35.9378C28.7886 35.9812 28.4556 36.3866 28.499 36.8403C28.5569 37.4002 28.499 39.0968 27.6761 39.8714C25.8178 40.3662 23.8968 40.5882 21.9758 40.5303C20.0693 40.5906 18.1651 40.3686 16.3238 39.8714C15.5009 39.1064 15.5009 37.4412 15.5009 36.8403C15.5443 36.3866 15.2089 35.9812 14.7552 35.9378C14.2991 35.8943 13.896 36.2298 13.8526 36.6835C13.8019 37.5981 13.9178 38.5152 14.1977 39.3864C7.97142 38.5635 8.67121 32.2118 8.7026 31.9727V31.8665C8.65433 26.381 14.5838 20.466 17.318 18.0189H17.3204C17.6993 17.8934 18.042 17.6786 18.3171 17.3914C18.6115 17.1018 18.9373 16.8484 19.2897 16.6336C19.8327 16.3778 20.4094 16.1992 21.0031 16.0978C21.2758 16.0568 21.5509 16.0351 21.826 16.0327H22.0239C22.3497 16.0254 22.6731 16.0448 22.9965 16.0906C23.5877 16.1896 24.1645 16.3705 24.7099 16.6264C25.0791 16.8387 25.4218 17.097 25.7307 17.3914C26.0251 17.6834 26.3871 17.8958 26.7853 18.0092C29.5365 20.4805 35.418 26.3713 35.3698 31.8327V31.9389C35.377 32.202 36.0769 38.5538 29.8505 39.3866L29.8504 39.3864Z"/>
</mask>
<path d="M36.9916 31.7913C36.9916 26.3227 32.0081 20.7115 28.8686 17.7219C29.0134 17.623 29.1485 17.512 29.274 17.3913C30.249 16.4042 30.249 14.8139 29.274 13.8244C28.8083 13.3635 28.3015 12.946 27.7585 12.5816L28.3353 12.251C29.3827 11.7031 30.2852 10.9164 30.9706 9.95344C31.7718 8.76125 31.726 7.19016 30.8548 6.04869C30.1067 5.25956 29.0255 4.88066 27.9467 5.02789L27.7006 5.06891C27.7778 4.75518 27.8212 4.43423 27.8309 4.11322C27.9033 2.98862 27.3482 1.91709 26.3902 1.32825C24.8336 0.464307 23.096 1.52614 22.2706 1.99432L19.4374 3.70052C19.2154 3.83325 18.7544 4.12044 18.5058 4.06252H18.5083C18.2766 3.9491 18.0739 3.78741 17.9146 3.58468C17.5284 3.12133 17.0023 2.79314 16.4159 2.65556C15.465 2.56144 14.5649 3.09961 14.1981 3.98045C13.9278 4.65862 13.8506 5.39709 13.976 6.11382C14.256 8.40645 15.1706 10.5761 16.621 12.3741C15.9525 12.7868 15.3347 13.2742 14.7748 13.8245C13.795 14.8116 13.795 16.4044 14.7748 17.3914C14.8979 17.5121 15.033 17.6207 15.1803 17.7124C12.043 20.7024 7.04987 26.3209 7.05728 31.7892C6.71941 34.6466 7.73304 40.1828 13.986 41.0156V41.018C14.4204 41.0662 14.85 41.1507 15.2699 41.2714C17.2368 41.8795 19.2833 42.186 21.3418 42.186H22.0006C24.2933 42.2536 26.5836 41.9471 28.7799 41.2811C29.1998 41.1604 29.6294 41.0735 30.0637 41.0253C36.3166 40.1854 37.3304 34.6495 36.9925 31.7921L36.9916 31.7913ZM26.4066 8.50296C26.4814 8.34609 26.5466 8.18199 26.6118 8.02512C26.6431 7.96238 26.6697 7.8948 26.6938 7.82723C26.759 7.68002 26.8265 7.52315 26.8845 7.37352C26.9424 7.22631 26.9593 7.19976 26.9906 7.11047C27.0244 7.01876 27.0655 6.92947 27.0968 6.84742H27.0993C27.4347 6.76537 27.775 6.70503 28.1201 6.66642C28.6582 6.57954 29.2085 6.74847 29.6018 7.12736C29.9976 7.72104 29.9976 8.49328 29.6018 9.0894C29.0516 9.82064 28.342 10.4191 27.5263 10.8342C27.0316 11.1383 26.5104 11.3941 25.9698 11.6017C25.6222 11.4593 25.2675 11.3386 24.9079 11.2373L24.9827 11.1214C25.0985 10.9573 25.2144 10.7908 25.3206 10.6194H25.3181C25.3519 10.576 25.3785 10.5302 25.4002 10.4795C25.4991 10.3154 25.5981 10.1585 25.6874 9.9944L25.7791 9.83029L26.0349 9.34521C26.0349 9.29695 26.0832 9.23903 26.1169 9.18111C26.1507 9.1232 26.2738 8.86014 26.3486 8.69603L26.4066 8.50296ZM15.6166 5.91588H15.6142C15.5321 5.49596 15.5611 5.06157 15.6986 4.6561C15.7976 4.43407 16.0196 4.26031 16.1596 4.27721C16.3912 4.38581 16.594 4.5475 16.7508 4.74781C17.1177 5.17979 17.6003 5.49832 18.1433 5.66248C18.9083 5.77107 19.6854 5.57318 20.3032 5.10983C21.2589 4.54993 22.1977 3.98041 23.1606 3.39639C23.9835 2.91855 24.9489 2.4069 25.5908 2.77135C25.9987 3.07301 26.2231 3.56536 26.1845 4.07215C26.1604 4.55482 26.0518 5.02784 25.8635 5.47186L25.7308 5.89178L25.6488 6.08967C25.0792 7.76209 24.2466 9.33077 23.1775 10.7353L23.0786 10.8415C22.7407 10.8415 22.4028 10.7932 22.0578 10.7932C20.7183 10.7932 19.3935 11.049 18.153 11.551C16.7774 9.95825 15.8966 8.00103 15.6142 5.91592L15.6166 5.91588ZM15.9472 14.9779H15.9448C19.3041 11.6258 24.7436 11.6258 28.1033 14.9779C28.2722 15.1396 28.3639 15.3641 28.3591 15.5957C28.3591 15.8274 28.2674 16.0494 28.1033 16.2135C27.944 16.3776 27.722 16.4669 27.4927 16.4597C26.8797 15.936 26.1967 15.492 25.468 15.142C23.3394 13.9016 20.7089 13.9016 18.5806 15.142C17.8518 15.492 17.1688 15.936 16.5559 16.4597C16.2035 16.4621 15.885 16.2497 15.7498 15.9239C15.6171 15.5981 15.6943 15.2241 15.9453 14.978L15.9472 14.9779ZM29.8504 39.3864C30.1135 38.5103 30.2124 37.5957 30.1472 36.6835C30.1038 36.2298 29.6984 35.8943 29.2447 35.9378C28.7886 35.9812 28.4556 36.3866 28.499 36.8403C28.5569 37.4002 28.499 39.0968 27.6761 39.8714C25.8178 40.3662 23.8968 40.5882 21.9758 40.5303C20.0693 40.5906 18.1651 40.3686 16.3238 39.8714C15.5009 39.1064 15.5009 37.4412 15.5009 36.8403C15.5443 36.3866 15.2089 35.9812 14.7552 35.9378C14.2991 35.8943 13.896 36.2298 13.8526 36.6835C13.8019 37.5981 13.9178 38.5152 14.1977 39.3864C7.97142 38.5635 8.67121 32.2118 8.7026 31.9727V31.8665C8.65433 26.381 14.5838 20.466 17.318 18.0189H17.3204C17.6993 17.8934 18.042 17.6786 18.3171 17.3914C18.6115 17.1018 18.9373 16.8484 19.2897 16.6336C19.8327 16.3778 20.4094 16.1992 21.0031 16.0978C21.2758 16.0568 21.5509 16.0351 21.826 16.0327H22.0239C22.3497 16.0254 22.6731 16.0448 22.9965 16.0906C23.5877 16.1896 24.1645 16.3705 24.7099 16.6264C25.0791 16.8387 25.4218 17.097 25.7307 17.3914C26.0251 17.6834 26.3871 17.8958 26.7853 18.0092C29.5365 20.4805 35.418 26.3713 35.3698 31.8327V31.9389C35.377 32.202 36.0769 38.5538 29.8505 39.3866L29.8504 39.3864Z" fill="#0F2851"/>
<path d="M36.9916 31.7913C36.9916 26.3227 32.0081 20.7115 28.8686 17.7219C29.0134 17.623 29.1485 17.512 29.274 17.3913C30.249 16.4042 30.249 14.8139 29.274 13.8244C28.8083 13.3635 28.3015 12.946 27.7585 12.5816L28.3353 12.251C29.3827 11.7031 30.2852 10.9164 30.9706 9.95344C31.7718 8.76125 31.726 7.19016 30.8548 6.04869C30.1067 5.25956 29.0255 4.88066 27.9467 5.02789L27.7006 5.06891C27.7778 4.75518 27.8212 4.43423 27.8309 4.11322C27.9033 2.98862 27.3482 1.91709 26.3902 1.32825C24.8336 0.464307 23.096 1.52614 22.2706 1.99432L19.4374 3.70052C19.2154 3.83325 18.7544 4.12044 18.5058 4.06252H18.5083C18.2766 3.9491 18.0739 3.78741 17.9146 3.58468C17.5284 3.12133 17.0023 2.79314 16.4159 2.65556C15.465 2.56144 14.5649 3.09961 14.1981 3.98045C13.9278 4.65862 13.8506 5.39709 13.976 6.11382C14.256 8.40645 15.1706 10.5761 16.621 12.3741C15.9525 12.7868 15.3347 13.2742 14.7748 13.8245C13.795 14.8116 13.795 16.4044 14.7748 17.3914C14.8979 17.5121 15.033 17.6207 15.1803 17.7124C12.043 20.7024 7.04987 26.3209 7.05728 31.7892C6.71941 34.6466 7.73304 40.1828 13.986 41.0156V41.018C14.4204 41.0662 14.85 41.1507 15.2699 41.2714C17.2368 41.8795 19.2833 42.186 21.3418 42.186H22.0006C24.2933 42.2536 26.5836 41.9471 28.7799 41.2811C29.1998 41.1604 29.6294 41.0735 30.0637 41.0253C36.3166 40.1854 37.3304 34.6495 36.9925 31.7921L36.9916 31.7913ZM26.4066 8.50296C26.4814 8.34609 26.5466 8.18199 26.6118 8.02512C26.6431 7.96238 26.6697 7.8948 26.6938 7.82723C26.759 7.68002 26.8265 7.52315 26.8845 7.37352C26.9424 7.22631 26.9593 7.19976 26.9906 7.11047C27.0244 7.01876 27.0655 6.92947 27.0968 6.84742H27.0993C27.4347 6.76537 27.775 6.70503 28.1201 6.66642C28.6582 6.57954 29.2085 6.74847 29.6018 7.12736C29.9976 7.72104 29.9976 8.49328 29.6018 9.0894C29.0516 9.82064 28.342 10.4191 27.5263 10.8342C27.0316 11.1383 26.5104 11.3941 25.9698 11.6017C25.6222 11.4593 25.2675 11.3386 24.9079 11.2373L24.9827 11.1214C25.0985 10.9573 25.2144 10.7908 25.3206 10.6194H25.3181C25.3519 10.576 25.3785 10.5302 25.4002 10.4795C25.4991 10.3154 25.5981 10.1585 25.6874 9.9944L25.7791 9.83029L26.0349 9.34521C26.0349 9.29695 26.0832 9.23903 26.1169 9.18111C26.1507 9.1232 26.2738 8.86014 26.3486 8.69603L26.4066 8.50296ZM15.6166 5.91588H15.6142C15.5321 5.49596 15.5611 5.06157 15.6986 4.6561C15.7976 4.43407 16.0196 4.26031 16.1596 4.27721C16.3912 4.38581 16.594 4.5475 16.7508 4.74781C17.1177 5.17979 17.6003 5.49832 18.1433 5.66248C18.9083 5.77107 19.6854 5.57318 20.3032 5.10983C21.2589 4.54993 22.1977 3.98041 23.1606 3.39639C23.9835 2.91855 24.9489 2.4069 25.5908 2.77135C25.9987 3.07301 26.2231 3.56536 26.1845 4.07215C26.1604 4.55482 26.0518 5.02784 25.8635 5.47186L25.7308 5.89178L25.6488 6.08967C25.0792 7.76209 24.2466 9.33077 23.1775 10.7353L23.0786 10.8415C22.7407 10.8415 22.4028 10.7932 22.0578 10.7932C20.7183 10.7932 19.3935 11.049 18.153 11.551C16.7774 9.95825 15.8966 8.00103 15.6142 5.91592L15.6166 5.91588ZM15.9472 14.9779H15.9448C19.3041 11.6258 24.7436 11.6258 28.1033 14.9779C28.2722 15.1396 28.3639 15.3641 28.3591 15.5957C28.3591 15.8274 28.2674 16.0494 28.1033 16.2135C27.944 16.3776 27.722 16.4669 27.4927 16.4597C26.8797 15.936 26.1967 15.492 25.468 15.142C23.3394 13.9016 20.7089 13.9016 18.5806 15.142C17.8518 15.492 17.1688 15.936 16.5559 16.4597C16.2035 16.4621 15.885 16.2497 15.7498 15.9239C15.6171 15.5981 15.6943 15.2241 15.9453 14.978L15.9472 14.9779ZM29.8504 39.3864C30.1135 38.5103 30.2124 37.5957 30.1472 36.6835C30.1038 36.2298 29.6984 35.8943 29.2447 35.9378C28.7886 35.9812 28.4556 36.3866 28.499 36.8403C28.5569 37.4002 28.499 39.0968 27.6761 39.8714C25.8178 40.3662 23.8968 40.5882 21.9758 40.5303C20.0693 40.5906 18.1651 40.3686 16.3238 39.8714C15.5009 39.1064 15.5009 37.4412 15.5009 36.8403C15.5443 36.3866 15.2089 35.9812 14.7552 35.9378C14.2991 35.8943 13.896 36.2298 13.8526 36.6835C13.8019 37.5981 13.9178 38.5152 14.1977 39.3864C7.97142 38.5635 8.67121 32.2118 8.7026 31.9727V31.8665C8.65433 26.381 14.5838 20.466 17.318 18.0189H17.3204C17.6993 17.8934 18.042 17.6786 18.3171 17.3914C18.6115 17.1018 18.9373 16.8484 19.2897 16.6336C19.8327 16.3778 20.4094 16.1992 21.0031 16.0978C21.2758 16.0568 21.5509 16.0351 21.826 16.0327H22.0239C22.3497 16.0254 22.6731 16.0448 22.9965 16.0906C23.5877 16.1896 24.1645 16.3705 24.7099 16.6264C25.0791 16.8387 25.4218 17.097 25.7307 17.3914C26.0251 17.6834 26.3871 17.8958 26.7853 18.0092C29.5365 20.4805 35.418 26.3713 35.3698 31.8327V31.9389C35.377 32.202 36.0769 38.5538 29.8505 39.3866L29.8504 39.3864Z" stroke="#0F2851" stroke-width="0.8" mask="url(#path-1-outside-1_288_441)"/>
<path d="M14.8317 29.3125H18.9513C19.5151 29.3125 19.9742 28.8565 19.9742 28.2896C19.9742 27.7254 19.5154 27.2667 18.9513 27.2667H14.8317C14.2675 27.2667 13.8088 27.7255 13.8088 28.2896C13.8088 28.8566 14.268 29.3125 14.8317 29.3125Z" fill="#0F2851" stroke="#0F2851" stroke-width="0.4"/>
<path d="M22.2699 31.3837H14.8561C14.2916 31.3837 13.8332 31.8429 13.8332 32.4091C13.8332 32.9732 14.292 33.432 14.8561 33.432H22.2699C22.8361 33.432 23.2952 32.9736 23.2952 32.4091C23.2952 31.8425 22.8364 31.3837 22.2699 31.3837Z" fill="#0F2851" stroke="#0F2851" stroke-width="0.4"/>
</svg>
