<?xml version="1.0" encoding="UTF-8"?>
<svg width="44" height="44" viewBox="0 0 44 44" fill="none" xmlns="http://www.w3.org/2000/svg">
<path d="M29.6108 16.2919H14.3895C13.8652 16.2919 13.439 16.7181 13.439 17.2441V26.7573V26.7556C13.439 27.2815 13.8652 27.7078 14.3895 27.7078H29.6108C30.135 27.7078 30.5613 27.2816 30.5613 26.7556V17.2441C30.5613 16.7182 30.135 16.2919 29.6108 16.2919V16.2919ZM28.6586 25.8051H22.9505V21.0492C22.9505 20.5232 22.526 20.0969 22 20.0969C21.474 20.0969 21.0495 20.5232 21.0495 21.0492V25.8051H15.3414V18.1944H17.244V22.9504C17.244 23.4763 17.6703 23.9026 18.1945 23.9026C18.7205 23.9026 19.1467 23.4763 19.1467 22.9504V18.1944H24.8549V22.9504H24.8531C24.8531 23.4763 25.2794 23.9026 25.8053 23.9026C26.3296 23.9026 26.7558 23.4763 26.7558 22.9504V18.1944H28.6585L28.6586 25.8051Z" fill="white"/>
<path d="M29.1432 35.5164C25.5132 37.1578 21.3934 37.34 17.6328 36.0269C13.8738 34.7137 10.763 32.0067 8.94453 28.4628C7.12601 24.9189 6.74109 20.8126 7.86688 16.992L9.03217 19.3485C9.26592 19.8194 9.83654 20.0119 10.3058 19.7799C10.7767 19.5461 10.9709 18.9772 10.7372 18.5063L8.59044 14.1647C8.56638 14.1303 8.54232 14.0977 8.51482 14.0667C8.4495 13.9516 8.35325 13.8571 8.23466 13.7952C8.202 13.7677 8.16591 13.7419 8.12982 13.7196C8.11435 13.7127 8.09888 13.7144 8.08341 13.7092C8.02154 13.6869 7.95794 13.6731 7.89435 13.6646C7.83763 13.6525 7.77747 13.6439 7.71903 13.6422C7.66403 13.6456 7.61075 13.656 7.55747 13.6697C7.48872 13.68 7.42341 13.6972 7.35981 13.7213C7.34606 13.7282 7.3306 13.7264 7.31513 13.7333L2.97356 15.8817C2.7484 15.9935 2.57481 16.1894 2.49405 16.4283C2.41327 16.6689 2.43045 16.9302 2.54217 17.1553C2.65389 17.3822 2.85155 17.5558 3.09046 17.6366C3.32937 17.7174 3.59232 17.6985 3.81747 17.5867L6.0312 16.4919C4.48605 21.7618 5.51899 27.4505 8.82071 31.8404C12.1207 36.2301 17.2995 38.803 22.7907 38.7823C25.252 38.784 27.684 38.2632 29.9271 37.2509C30.4049 37.0343 30.618 36.4706 30.4014 35.991C30.1849 35.5132 29.6211 35.3001 29.1433 35.5167L29.1432 35.5164Z" fill="white"/>
<path d="M41.4564 26.8453C41.3447 26.6184 41.1488 26.4465 40.9099 26.3658C40.6692 26.285 40.408 26.3022 40.1828 26.4139L37.9691 27.5087C39.2221 23.2222 38.7821 18.6177 36.7368 14.6458C34.6915 10.6755 31.2007 7.64187 26.9828 6.17227C22.765 4.70276 18.1432 4.90898 14.0732 6.74977C13.5954 6.96633 13.3823 7.53006 13.5989 8.00962C13.8154 8.48742 14.3792 8.70055 14.857 8.48398C18.487 6.84256 22.6067 6.65869 26.3674 7.97178C30.1263 9.28492 33.2371 11.9936 35.0557 15.5376C36.8742 19.0815 37.2591 23.1879 36.1333 27.0084L34.968 24.652C34.7343 24.181 34.1636 23.9885 33.6944 24.2206C33.2235 24.4543 33.0293 25.0232 33.2613 25.4941L35.4097 29.8357C35.451 29.9165 35.5025 29.9921 35.5627 30.0591L35.5644 30.0609C35.6435 30.1416 35.7346 30.2087 35.8377 30.2568C35.8497 30.2637 35.8583 30.274 35.8704 30.2809C35.8841 30.2877 35.8996 30.2843 35.9133 30.2894C36.0233 30.3359 36.1402 30.3616 36.2588 30.3651H36.2691H36.2674C36.3946 30.3616 36.52 30.3324 36.6369 30.2791C36.6524 30.2723 36.6696 30.2757 36.685 30.2671L41.0266 28.1187C41.4958 27.8866 41.69 27.316 41.4563 26.8451L41.4564 26.8453Z" fill="white"/>
</svg>
