<?xml version="1.0" encoding="UTF-8"?>
<svg width="44" height="44" viewBox="0 0 44 44" fill="none" xmlns="http://www.w3.org/2000/svg">
<path fill-rule="evenodd" clip-rule="evenodd" d="M28.5251 14.7204L35.9749 15.0324C37.7586 15.1069 39.236 16.2264 39.7857 17.9242C40.3383 19.622 39.8029 21.3972 38.4028 22.5052L32.5592 27.1348L34.5662 34.3156C35.0472 36.0363 34.4374 37.7857 32.9944 38.8336C31.5485 39.8844 29.6961 39.9216 28.2101 38.9338L22 34.8081L15.7899 38.9338C14.3039 39.9216 12.4514 39.8844 11.0056 38.8336C9.5597 37.7828 8.95274 36.0335 9.43378 34.3156L11.4408 27.1348L5.59718 22.5052C4.19708 21.3972 3.66173 19.622 4.2143 17.9242C4.76689 16.2264 6.24138 15.1068 8.02511 15.0324L15.4749 14.7204L18.0718 7.73144C18.6931 6.05649 20.2163 5 22 5C23.7866 5 25.3069 6.05649 25.9282 7.73144L28.5251 14.7204ZM25.3155 15.9143L22.7187 8.92536C22.5956 8.59324 22.3551 8.42718 22 8.42718C21.645 8.42718 21.4045 8.5961 21.2814 8.92536L18.6845 15.9143C18.1949 17.2342 17.0239 18.0845 15.6181 18.1418L8.1683 18.4539C7.81327 18.4682 7.58136 18.6457 7.4697 18.9836C7.3609 19.3186 7.44679 19.602 7.72165 19.8224L13.5653 24.4521C14.6705 25.3282 15.1171 26.7025 14.7364 28.0597L12.7293 35.2404C12.6348 35.5811 12.7322 35.8588 13.0185 36.0678C13.3048 36.2768 13.5997 36.2826 13.8946 36.085L20.1047 31.9592C21.2786 31.1805 22.7245 31.1805 23.8955 31.9592L30.1057 36.085C30.4006 36.2797 30.6955 36.274 30.9818 36.0678C31.2681 35.8588 31.3654 35.5811 31.271 35.2404L29.2639 28.0597C28.886 26.7025 29.3326 25.3282 30.4349 24.4521L36.2786 19.8224C36.5563 19.602 36.6422 19.3214 36.5306 18.9836C36.4218 18.6457 36.187 18.4682 35.832 18.4539L28.3822 18.1418C26.9735 18.0817 25.8054 17.2342 25.3157 15.9143H25.3155Z" fill="white"/>
</svg>
