<?xml version="1.0" encoding="UTF-8"?>
<svg width="44" height="44" viewBox="0 0 44 44" fill="none" xmlns="http://www.w3.org/2000/svg">
<path fill-rule="evenodd" clip-rule="evenodd" d="M37.3052 19.4203L29.8873 12.0591L32.6854 9.27991L40.1051 16.6411L37.3052 19.4203ZM33.3384 21.4244C32.9224 21.8386 32.6474 22.3525 32.5477 22.9128C32.247 24.5697 31.0043 25.5941 29.8046 26.7869L29.3182 27.2699L29.0827 27.0344L25.2826 23.2583C25.3651 23.2652 25.5748 23.2394 25.659 23.2326C26.142 23.193 27.022 22.973 27.4138 22.8149C27.7215 22.6894 27.8676 22.3405 27.7421 22.0363C27.6166 21.7304 27.266 21.5843 26.9584 21.7098C25.4115 22.3388 24.3442 22.1446 22.6392 20.6355L22.6082 20.6029L22.5893 20.5857L22.0823 20.0821L23.0586 19.1162C23.2923 18.8842 23.2923 18.506 23.0586 18.2723C22.8231 18.0402 22.4433 18.0402 22.2095 18.2723L20.8104 19.6593H20.8087L20.807 19.661L17.9951 22.454C17.5242 22.9215 16.7576 22.9215 16.2867 22.454C16.0598 22.2271 15.9326 21.9246 15.9326 21.6049C15.9326 21.2852 16.0598 20.9827 16.2867 20.7558L20.7641 16.311C20.9841 16.091 21.2282 15.9002 21.4912 15.7386C22.1168 15.3553 22.8387 15.1525 23.5777 15.1525C24.1432 15.1525 24.7138 15.2728 25.2243 15.5049C26.3896 16.0291 27.7732 15.785 28.6669 14.8964L29.8769 13.738L35.5041 19.3155L33.3384 21.4244ZM28.8438 29.6348C28.6891 29.7878 28.4846 29.872 28.2663 29.872C28.048 29.872 27.8417 29.7878 27.6871 29.6331L22.455 24.4358C22.2196 24.2038 21.8397 24.2038 21.606 24.4375C21.3705 24.6695 21.3705 25.0477 21.606 25.2814L27.3911 31.0287C27.5458 31.1834 27.6317 31.3879 27.6317 31.6045C27.6317 31.8211 27.5458 32.0256 27.3928 32.1786C27.0714 32.4965 26.5541 32.4965 26.2344 32.1803L25.0708 31.0236L25.0467 30.9995L19.5036 25.4736C19.2698 25.2415 18.8883 25.2415 18.6545 25.4736C18.4191 25.7073 18.4191 26.0837 18.6545 26.3175L24.2764 31.905C24.4259 32.0563 24.5084 32.2591 24.5084 32.4705C24.5084 32.6888 24.4225 32.8933 24.2695 33.0463C23.9498 33.3626 23.4308 33.3626 23.1128 33.0463L18.1492 28.1205C17.9154 27.8868 17.5339 27.8868 17.2984 28.1205C17.0646 28.3525 17.0646 28.7307 17.2984 28.9627L20.827 32.4827L20.8304 32.4861C20.9851 32.6391 21.0693 32.8436 21.0693 33.0602C21.0693 33.2768 20.9834 33.4813 20.8304 33.6343C20.6757 33.789 20.4695 33.8732 20.2512 33.8732L20.0965 33.8577C20.1928 33.208 19.9899 32.5205 19.4881 32.0221C19.079 31.6165 18.5359 31.393 17.9584 31.393H17.9102V31.3483L17.9085 31.2572V31.2486L17.8965 31.1094V31.106L17.8776 30.9736L17.8742 30.9599L17.8467 30.8258C17.6112 29.8925 16.7604 29.2016 15.7481 29.2016L15.6535 29.2033L15.6553 29.1346C15.6553 27.9486 14.6876 26.9879 13.4931 26.9879H13.4432L13.4466 26.8779C13.4466 25.7211 12.5237 24.7793 11.3704 24.7346C11.049 23.9457 10.8599 23.0897 10.6932 22.208C10.5815 21.6082 10.0813 21.1097 9.64131 20.6732L8.37803 19.4219L14.3061 13.5523L15.908 15.1439C16.4838 15.7162 17.271 16.0239 18.0754 16.0239C18.4363 16.0239 18.8007 15.962 19.1513 15.8348C19.3215 15.7729 19.4985 15.7299 19.6772 15.7007L15.4371 19.9117C14.9816 20.3637 14.7307 20.9652 14.7307 21.6046C14.7307 22.244 14.9816 22.8456 15.4371 23.2976C15.9063 23.7634 16.5234 23.9971 17.1404 23.9971C17.7574 23.9971 18.3761 23.7634 18.8454 23.2976L21.2327 20.9258L21.7397 21.4276L21.781 21.4706L21.7982 21.4861L28.8434 28.4847C28.9981 28.6377 29.0841 28.8422 29.0841 29.0588C29.0841 29.2771 28.9981 29.4799 28.8434 29.6346L28.8438 29.6348ZM18.638 34.2152C18.4575 34.3957 18.2152 34.4954 17.9591 34.4954C17.703 34.4954 17.4606 34.3957 17.2784 34.2152C16.9037 33.844 16.9037 33.2372 17.2784 32.866C17.4675 32.6804 17.7133 32.5875 17.9591 32.5875C18.2048 32.5875 18.4506 32.6804 18.638 32.866C19.0127 33.2372 19.0127 33.844 18.638 34.2152ZM14.7845 31.3552C14.7845 30.8276 15.216 30.4013 15.7453 30.4013C16.2764 30.4013 16.7061 30.8275 16.7061 31.3552C16.7061 31.8811 16.2764 32.3091 15.7453 32.3091C15.216 32.3091 14.7845 31.8812 14.7845 31.3552ZM13.4903 30.0953C12.961 30.0953 12.5295 29.6674 12.5295 29.1414C12.5295 28.6138 12.961 28.1875 13.4903 28.1875C14.0214 28.1875 14.4511 28.6138 14.4511 29.1414C14.4511 29.6674 14.0214 30.0953 13.4903 30.0953ZM11.2817 27.8386C10.7507 27.8386 10.321 27.4124 10.321 26.8864C10.321 26.3588 10.7507 25.9325 11.2817 25.9325C11.8111 25.9325 12.2408 26.3588 12.2408 26.8864C12.2408 27.4124 11.8111 27.8386 11.2817 27.8386ZM6.69255 19.4254L3.89441 16.6462L11.3282 9.26253L14.1263 12.0435L6.69255 19.4254ZM41.3786 16.2182L33.1097 8.01307C32.876 7.78104 32.4944 7.78104 32.2606 8.01307L28.6117 11.6362C28.4983 11.7479 28.4364 11.9009 28.4364 12.059C28.4364 12.2171 28.4983 12.3701 28.6117 12.4818L29.0277 12.8943L27.8177 14.0528C27.2745 14.5907 26.4324 14.7385 25.7208 14.4189C25.0539 14.1181 24.3131 13.9582 23.5775 13.9582C22.7044 13.9582 21.8519 14.1765 21.0939 14.589C20.7777 14.5117 20.4529 14.4721 20.1263 14.4721C19.6519 14.4721 19.1861 14.5529 18.741 14.7145C18.0328 14.9688 17.2715 14.8107 16.7576 14.2985L15.1557 12.7087L15.4015 12.4646C15.5149 12.3529 15.5785 12.2017 15.5785 12.0435C15.5785 11.8854 15.5149 11.7324 15.4015 11.6207L11.7525 7.99758C11.5188 7.76383 11.1373 7.76383 10.9035 7.99758L2.61916 16.2234C2.38541 16.4571 2.38541 16.8352 2.61916 17.0673L6.26808 20.6922C6.38152 20.8039 6.53449 20.8675 6.69261 20.8675C6.85245 20.8675 7.00542 20.8039 7.11886 20.6922L7.53652 20.2693L8.75167 21.512C9.01807 21.7767 9.40137 22.0259 9.46838 22.3886C9.64025 23.2995 9.85682 24.1933 10.1885 25.0286C9.55088 25.4015 9.12118 26.0908 9.12118 26.8779C9.12118 28.0656 10.0905 29.0263 11.2834 29.0263H11.3349L11.3315 29.1346C11.3315 30.3206 12.2992 31.2831 13.4937 31.2831L13.5882 31.2796L13.5865 31.3484C13.5865 32.5343 14.5559 33.4968 15.7487 33.4968L15.7986 33.4951C15.7865 34.0606 15.9962 34.6294 16.4294 35.0592C16.8384 35.4648 17.3816 35.6882 17.9591 35.6882C18.5366 35.6882 19.0797 35.4648 19.4888 35.0592L19.5867 34.9543C19.7999 35.0282 20.025 35.0677 20.2519 35.0677C20.7916 35.0677 21.3003 34.8581 21.6802 34.4782C21.883 34.2771 22.0359 34.0417 22.1374 33.7839L22.2628 33.8904C22.6564 34.2823 23.1738 34.4765 23.6911 34.4765C24.2085 34.4765 24.7258 34.2823 25.1194 33.8904C25.3291 33.6825 25.4219 33.3903 25.5216 33.1239C25.8739 33.3782 26.3964 33.6103 26.8141 33.6103C27.3314 33.6103 27.8436 33.4109 28.2424 33.0225C28.5947 32.6822 28.8319 32.3281 28.8285 31.7008C28.8267 31.5392 28.7288 31.1869 28.6721 31.0253C29.0571 30.9479 29.4111 30.7606 29.6947 30.477C30.0763 30.0989 30.286 29.5953 30.286 29.059C30.286 28.7479 30.2241 28.4695 30.0883 28.1927L30.6538 27.6307C32.0288 26.266 33.3866 25.0217 33.7304 23.1225C33.7871 22.8045 33.9452 22.5106 34.1893 22.2683L36.3549 20.1611L36.8809 20.687C36.9977 20.8022 37.1524 20.8606 37.3054 20.8606C37.4601 20.8606 37.613 20.8022 37.7316 20.687L41.3788 17.0622C41.4923 16.9522 41.5559 16.7992 41.5559 16.6411C41.5559 16.4829 41.4923 16.3317 41.3788 16.2182L41.3786 16.2182Z" fill="white"/>
</svg>
