<?xml version="1.0" encoding="UTF-8"?>
<svg width="32" height="40" viewBox="0 0 32 40" fill="none" xmlns="http://www.w3.org/2000/svg">
<path d="M21.2259 5.41959C21.2259 2.43059 18.7954 0 15.8063 0C12.8192 0 10.3867 2.43054 10.3867 5.41959C10.3867 8.40672 12.8191 10.8373 15.8063 10.8373C18.7935 10.8373 21.2259 8.40672 21.2259 5.41959ZM11.942 5.41959C11.942 3.28888 13.6755 1.55545 15.8062 1.55545C17.9369 1.55545 19.6684 3.28888 19.6684 5.41959C19.6684 7.54842 17.9369 9.28185 15.8062 9.28185C13.6755 9.28185 11.942 7.54842 11.942 5.41959Z" fill="white"/>
<path d="M26.0146 14.6509C28.655 14.6509 30.8026 12.5033 30.8026 9.86284C30.8026 7.22242 28.655 5.07483 26.0146 5.07483C23.3742 5.07483 21.2266 7.22242 21.2266 9.86284C21.2266 12.5033 23.3742 14.6509 26.0146 14.6509ZM26.0146 6.63206C27.7967 6.63206 29.2472 8.08249 29.2472 9.86467C29.2472 11.6468 27.7968 13.0973 26.0146 13.0973C24.2324 13.0973 22.782 11.6468 22.782 9.86467C22.782 8.08062 24.2324 6.63206 26.0146 6.63206Z" fill="white"/>
<path d="M31.9998 27.8253V19.4429C31.9998 18.0205 30.8417 16.8624 29.4193 16.8624H23.3814C23.0178 16.8624 22.6711 16.9411 22.3563 17.0779V16.4239C22.3563 14.8441 21.0726 13.5604 19.4929 13.5604H12.5069C10.9272 13.5604 9.64348 14.8441 9.64348 16.4239V17.0779C9.32865 16.9411 8.98384 16.8643 8.61842 16.8643H2.58046C1.15813 16.8643 0 18.0224 0 19.4447V27.8253C0 28.7754 0.59967 29.5887 1.44108 29.9035V37.195C1.44108 38.4187 2.43615 39.4138 3.65986 39.4138H7.53523C8.75894 39.4138 9.75588 38.4187 9.75588 37.195V29.9035C10.4324 29.6505 10.9459 29.0733 11.1239 28.3631C11.1857 28.3893 11.2457 28.4212 11.3094 28.4418V36.9682C11.3094 38.3174 12.4076 39.4137 13.7568 39.4137H18.2413C19.5905 39.4137 20.6887 38.3174 20.6887 36.9682V28.4432C20.7524 28.4207 20.8124 28.3908 20.8742 28.3645C21.0523 29.0729 21.5676 29.6501 22.2441 29.9049V37.1964C22.2441 38.4201 23.2392 39.4152 24.4629 39.4152H28.3383C29.562 39.4152 30.5571 38.4201 30.5571 37.1964V29.9049C31.4003 29.5882 32 28.7749 32 27.8248L31.9998 27.8253ZM9.64166 26.1237V27.8253C9.64166 28.1907 9.3437 28.4887 8.97828 28.4887C8.54914 28.4887 8.20057 28.8372 8.20057 29.2664V37.1969C8.20057 37.5623 7.90261 37.8603 7.53719 37.8603H3.66183C3.29641 37.8603 2.99845 37.5623 2.99845 37.1969V29.2664C2.99845 28.8372 2.64989 28.4887 2.22075 28.4887C1.85532 28.4887 1.55737 28.1907 1.55737 27.8253L1.5555 19.4429C1.5555 18.8769 2.01462 18.4178 2.58055 18.4178H8.61852C9.18259 18.4178 9.64357 18.8769 9.64357 19.4429L9.64166 26.1237ZM20.8013 19.4429V26.1218C20.8013 26.6128 20.4021 27.012 19.9111 27.012C19.482 27.012 19.1334 27.3605 19.1334 27.7896V36.9685C19.1334 37.4594 18.7343 37.8586 18.2433 37.8586H13.7589C13.2679 37.8586 12.8687 37.4595 12.8687 36.9685L12.8668 27.7916C12.8668 27.3624 12.5183 27.0139 12.0891 27.0139C11.5982 27.0139 11.199 26.6147 11.199 26.1237V16.4239C11.199 15.7024 11.7855 15.1159 12.507 15.1159H19.4949C20.2163 15.1159 20.8029 15.7024 20.8029 16.4239L20.8013 19.4429ZM30.445 27.8253C30.445 28.1908 30.147 28.4887 29.7797 28.4887C29.3506 28.4887 29.002 28.8373 29.002 29.2664V37.197C29.002 37.5624 28.7041 37.8603 28.3386 37.8603H24.4633C24.0978 37.8603 23.7999 37.5624 23.7999 37.197V29.2664C23.7999 28.8373 23.4513 28.4887 23.0222 28.4887C22.6568 28.4887 22.3588 28.1908 22.3588 27.8253V19.4448C22.3588 18.8789 22.8179 18.4198 23.3839 18.4198H29.4218C29.9878 18.4198 30.4469 18.8789 30.4469 19.4448L30.445 27.8253Z" fill="white"/>
<path d="M10.3876 9.8626C10.3876 7.22218 8.23996 5.07458 5.59954 5.07458C2.95911 5.07458 0.811523 7.22218 0.811523 9.8626C0.811523 12.503 2.95911 14.6506 5.59954 14.6506C8.23996 14.6506 10.3876 12.503 10.3876 9.8626ZM2.36683 9.8626C2.36683 8.08047 3.81727 6.62999 5.59944 6.62999C7.38157 6.62999 8.83205 8.08042 8.83205 9.8626C8.83205 11.6447 7.38162 13.0952 5.59944 13.0952C3.81731 13.0952 2.36683 11.6448 2.36683 9.8626Z" fill="white"/>
</svg>
