<?xml version="1.0" encoding="UTF-8"?>
<svg width="43" height="44" viewBox="0 0 43 44" fill="none" xmlns="http://www.w3.org/2000/svg">
<path d="M28.487 20.4455C28.3853 19.903 28.311 19.5018 28.3477 19.1325C28.4552 17.9167 29.065 17.1921 29.5765 16.826C30.5793 16.0586 31.967 16.0399 33.1489 16.1773C31.0308 12.1688 26.8244 9.43087 21.9999 9.43087C20.2118 9.43087 18.5489 9.80413 17.0098 10.4914C19.6144 12.8793 20.745 15.046 20.3599 17.1114L20.3596 17.1133C20.0746 18.538 19.1819 19.3236 18.3278 20.0752L18.3178 20.084L18.3172 20.0846C17.5281 20.7707 16.7293 21.4715 16.2279 22.8085L16.2276 22.8094C15.7924 23.9475 15.8249 24.8491 15.8592 25.7061L15.8593 25.7069L15.8597 25.7211C15.8937 26.7046 15.9328 27.8395 14.9476 28.6791C14.4018 29.1519 13.7127 29.4027 12.8562 29.4027C11.7586 29.4027 10.4293 29.0142 8.77356 28.2554C8.48961 28.1331 8.29467 27.8929 8.18088 27.6274L8.17963 27.6245L8.17967 27.6245C7.45094 25.8202 7.06875 23.9449 7.06875 21.9997C7.06875 16.7222 9.77761 11.9295 14.2916 9.22106L14.3272 9.19968H14.3282C14.3319 9.1971 14.3358 9.19452 14.3399 9.19206C14.3523 9.18462 14.3667 9.17793 14.383 9.17309C16.6351 7.82744 19.2315 7.06844 22.0002 7.06844C28.6326 7.06844 34.2579 11.4086 36.168 17.3817C36.6541 18.8752 36.8971 20.4376 36.8971 21.9998C36.8971 30.2297 30.1956 36.9312 21.9657 36.9312C20.2293 36.9312 18.4933 36.6186 16.8617 36.0285L16.8536 36.0255L16.8537 36.0253C16.5868 35.911 16.3129 35.6812 16.1908 35.3632C16.0356 35.0482 16.0368 34.7259 16.1942 34.411C16.261 34.2775 16.3197 34.1435 16.38 34.0055L16.3807 34.0039C16.44 33.8684 16.501 33.7291 16.5708 33.5892C16.5889 33.5482 16.6071 33.507 16.6255 33.4654C17.5454 31.3847 18.7944 28.5593 22.3379 27.5616L22.3579 27.556H22.3786C22.3956 27.556 22.4327 27.5508 22.4995 27.5375C22.5286 27.5317 22.5605 27.5249 22.5958 27.5175L22.6038 27.5158C22.6418 27.5077 22.6832 27.499 22.7269 27.4903L22.7269 27.4901C26.3264 26.7702 27.6214 25.8515 28.0686 25.2772M28.487 20.4455C28.487 20.4453 28.4869 20.4452 28.4869 20.445L28.6346 20.4185L28.4871 20.4461C28.4871 20.4459 28.4871 20.4457 28.487 20.4455ZM28.487 20.4455C28.6075 21.1166 28.7594 21.9886 28.751 22.8662C28.7425 23.7448 28.5732 24.6093 28.0686 25.2772M28.0686 25.2772C28.0689 25.2769 28.0691 25.2766 28.0693 25.2764L28.1877 25.3685L28.068 25.278C28.0682 25.2777 28.0684 25.2775 28.0686 25.2772ZM18.0376 16.6417L18.0377 16.6417C17.9121 17.2367 17.5437 17.5832 16.7456 18.2771L16.7446 18.278L16.7193 18.3004C15.8276 19.0891 14.7175 20.071 13.9886 21.9453L13.9881 21.9467C13.3926 23.523 13.4283 24.8546 13.4628 25.7865L13.4629 25.7878C13.4802 26.1685 13.4881 26.4329 13.4719 26.6188C13.4553 26.8092 13.4162 26.8736 13.3815 26.9013L13.3814 26.9011L13.3749 26.907C13.3183 26.958 13.2187 27.0059 13.0562 27.0302C12.8946 27.0543 12.6809 27.0534 12.4086 27.016C11.8751 26.9427 11.1353 26.7319 10.1587 26.3223C9.69501 24.9121 9.43147 23.4714 9.43147 21.9998C9.43147 17.8261 11.4318 14.0529 14.8068 11.6705C15.9939 12.6851 16.8632 13.6116 17.4058 14.4421C17.963 15.2947 18.1637 16.0268 18.0376 16.6417ZM29.9562 26.7317L29.9564 26.7318C30.7901 25.6498 31.0697 24.3691 31.109 23.1733C31.1481 21.983 30.9492 20.8642 30.8119 20.0919L30.8103 20.0826L30.8106 20.0826L30.8081 20.0725C30.7437 19.8147 30.7107 19.4576 30.7095 19.3581C30.7258 19.156 30.7719 19.0256 30.8226 18.9377C30.8731 18.8502 30.9332 18.7958 30.9923 18.7514C31.1531 18.6348 31.3808 18.5607 31.6581 18.5232C31.9342 18.4859 32.2474 18.4864 32.5682 18.5097C33.1654 18.5529 33.7718 18.6731 34.1862 18.759C34.4744 19.8169 34.6032 20.9073 34.6032 21.9995C34.6032 28.9293 28.964 34.5681 22.0346 34.5681C20.9706 34.5681 19.9394 34.4459 18.9401 34.1733C19.7465 32.3081 20.6644 30.5323 22.9901 29.8475C23.0063 29.8456 23.0209 29.8427 23.0297 29.8409L23.0578 29.8351L23.0867 29.8291C23.127 29.821 23.1669 29.8148 23.2034 29.8148H23.2198L23.2359 29.8113C23.2831 29.8008 23.3342 29.7895 23.389 29.7775C24.0504 29.6319 25.2444 29.3691 26.4686 28.925C27.7885 28.4462 29.1726 27.7469 29.9562 26.7317Z" fill="#0F2851" stroke="#0F2851" stroke-width="0.3"/>
<path d="M37.6928 10.5053C38.6751 11.8605 39.4887 13.3157 40.1008 14.8709L40.1006 14.8727L40.1152 14.9077C40.3103 15.3761 40.7431 15.6531 41.2161 15.6531C41.351 15.6531 41.4623 15.6239 41.5687 15.5959C41.5895 15.5905 41.6101 15.585 41.6306 15.5799L41.6405 15.5774L41.65 15.5737C42.2403 15.3375 42.5544 14.6685 42.3191 14.0411L42.3191 14.0411L42.3183 14.039C41.6263 12.2744 40.7262 10.6124 39.583 9.08807L39.583 9.08807L39.5819 9.08661C39.1905 8.57789 38.4441 8.4558 37.9278 8.85293C37.4196 9.24383 37.2973 9.98906 37.6928 10.5053Z" fill="#0F2851" stroke="#0F2851" stroke-width="0.3"/>
<path d="M6.59749 6.59725C-1.87573 15.0364 -1.91719 28.7874 6.47312 37.2781L6.47269 37.2784L6.59738 37.4031C10.8199 41.6256 16.3925 43.8063 22.0005 43.8063C26.0867 43.8063 30.2069 42.6482 33.8538 40.2647C34.6192 40.8291 35.5482 41.1595 36.5754 41.1595C39.1333 41.1595 41.1941 39.0986 41.1941 36.5408C41.1941 33.9831 39.1332 31.9222 36.5754 31.9222C34.0177 31.9222 31.9568 33.9831 31.9568 36.5408C31.9568 37.2063 32.1121 37.8388 32.3631 38.4092C24.7021 43.2419 14.7379 42.1973 8.25337 35.7129C0.680595 28.1401 0.680588 15.7915 8.25335 8.2187C14.5978 1.9085 24.3868 0.71422 32.0617 5.35246C32.6151 5.70672 33.3609 5.51061 33.6786 4.95917C34.0319 4.40537 33.8349 3.65965 33.2827 3.34277C24.6645 -1.88266 13.6924 -0.53242 6.59749 6.59725ZM36.5755 34.3189C37.8333 34.3189 38.8318 35.3174 38.8318 36.5752C38.8318 37.8329 37.8333 38.8314 36.5755 38.8314C35.3177 38.8314 34.3192 37.8329 34.3192 36.5752C34.3192 35.3188 35.3507 34.3189 36.5755 34.3189Z" fill="#0F2851" stroke="#0F2851" stroke-width="0.3"/>
</svg>
