<?xml version="1.0" encoding="utf-8"?>
<svg width="44" height="44" viewBox="0 0 44 44" fill="none" xmlns="http://www.w3.org/2000/svg">
<path d="M6.87354 20.4121C6.49369 20.4121 6.18604 20.7198 6.18604 21.0996V24.2827C6.18604 24.6626 6.49369 24.9702 6.87354 24.9702H10.0567C10.4365 24.9702 10.7442 24.6626 10.7442 24.2827V21.0996C10.7442 20.7198 10.4365 20.4121 10.0567 20.4121H6.87354ZM9.36917 23.5935H7.56104V21.7854H9.36917V23.5935Z" fill="white"/>
<path d="M13.2813 24.968H16.4644C16.8442 24.968 17.1519 24.6604 17.1519 24.2805V21.0991C17.1519 20.7193 16.8442 20.4116 16.4644 20.4116H13.2813C12.9014 20.4116 12.5938 20.7193 12.5938 21.0991V24.2823C12.5938 24.6604 12.9014 24.968 13.2813 24.968ZM13.9688 21.7866H15.7769V23.5948H13.9688V21.7866Z" fill="white"/>
<path d="M13.9683 17.124C13.9683 16.7442 13.6607 16.4365 13.2808 16.4365H6.87354C6.49369 16.4365 6.18604 16.7442 6.18604 17.124C6.18604 17.5039 6.49369 17.8115 6.87354 17.8115H13.2808C13.6607 17.8115 13.9683 17.5039 13.9683 17.124Z" fill="white"/>
<path d="M42.2609 20.2915C42.2591 20.2347 42.2557 20.178 42.2437 20.123C42.2437 20.1213 42.2437 20.1196 42.242 20.1196C42.2316 20.0663 42.2145 20.013 42.1938 19.9615C42.187 19.946 42.1801 19.9305 42.1732 19.9151C42.156 19.8772 42.1371 19.8394 42.1148 19.8051C42.1062 19.7913 42.0976 19.7776 42.089 19.7638C42.0563 19.7174 42.022 19.6727 41.9807 19.6315L36.5445 14.1953C36.5033 14.154 36.4586 14.1196 36.4122 14.087C36.3984 14.0784 36.3847 14.0698 36.3709 14.0612C36.3348 14.0389 36.297 14.0182 36.2592 14.001C36.2454 13.9942 36.23 13.9873 36.2162 13.9821C36.1097 13.9409 35.9979 13.9186 35.8828 13.9151C35.8759 13.9151 35.8708 13.9134 35.8656 13.9134H29.417V13.9117H27.492V13.9134L20.617 13.9117C20.0859 13.9117 19.6545 14.3431 19.6545 14.8742V27.2043H3.6631V3.37918H10.2081V11.1342C10.2081 11.4951 10.4092 11.8251 10.7306 11.9901C10.8681 12.0623 11.0194 12.0967 11.1706 12.0967C11.3683 12.0967 11.5642 12.0365 11.7292 11.9179L13.3517 10.7629L14.9707 11.9179C15.3059 12.1568 15.7545 12.1568 16.088 11.9179L17.7105 10.7629L19.3295 11.9179C19.6234 12.1276 20.0084 12.1551 20.3298 11.9901C20.6495 11.8251 20.8489 11.4951 20.8489 11.1342V3.37918H27.4867V13.2277H29.4117L29.4152 2.41514C29.4152 1.88406 28.9838 1.45264 28.4527 1.45264H2.70078C2.1697 1.45264 1.73828 1.88404 1.73828 2.41514V28.1653C1.73828 28.6963 2.16969 29.1278 2.70078 29.1278H19.6544V41.5837C19.6544 42.1148 20.0858 42.5462 20.6169 42.5462H41.3004C41.8315 42.5462 42.2629 42.1148 42.2629 41.5837V20.3106C42.2629 20.3037 42.2612 20.2986 42.2612 20.2917L42.2609 20.2915ZM12.1327 3.37742H18.9255V9.26594L18.2689 8.79501C17.9337 8.55783 17.4852 8.55783 17.1517 8.79501L15.5292 9.95001L13.9101 8.79501C13.575 8.55783 13.1264 8.55783 12.7929 8.79845L12.1329 9.26595L12.1327 3.37742ZM36.826 17.1978L38.9761 19.348H36.826V17.1978ZM40.3374 40.6225H21.5789V15.8365H34.899V20.3104C34.899 20.8415 35.3304 21.2729 35.8615 21.2729H40.3354L40.3374 40.6225Z" fill="white"/>
<path d="M36.2541 32.3418L32.7754 36.8448L31.2972 35.456C30.9088 35.0917 30.3004 35.1123 29.936 35.499C29.5716 35.8857 29.5922 36.4959 29.9789 36.8603L32.2305 38.9743C32.4093 39.1428 32.6447 39.2356 32.8888 39.2356C32.9146 39.2356 32.9404 39.2339 32.9644 39.2321C33.2343 39.2098 33.4835 39.0757 33.6502 38.8609L37.7769 33.5206C38.1018 33.0995 38.0244 32.4963 37.6033 32.1697C37.1839 31.8448 36.579 31.9222 36.2541 32.3416L36.2541 32.3418Z" fill="white"/>
<path d="M24.5356 26.5463H26.9677C27.3475 26.5463 27.6552 26.2386 27.6552 25.8588V23.4268C27.6552 23.0469 27.3475 22.7393 26.9677 22.7393H24.5356C24.1558 22.7393 23.8481 23.0469 23.8481 23.4268V25.8588C23.8481 26.2386 24.1558 26.5463 24.5356 26.5463ZM25.2231 24.1143H26.2802V25.1713H25.2231V24.1143Z" fill="white"/>
<path d="M29.7651 22.7393C29.3853 22.7393 29.0776 23.0469 29.0776 23.4268C29.0776 23.8066 29.3853 24.1143 29.7651 24.1143H35.8631C36.2429 24.1143 36.5506 23.8066 36.5506 23.4268C36.5506 23.0469 36.2429 22.7393 35.8631 22.7393H29.7651Z" fill="white"/>
<path d="M32.8147 26.5459C33.1945 26.5459 33.5022 26.2382 33.5022 25.8584C33.5022 25.4786 33.1945 25.1709 32.8147 25.1709H29.7656C29.3858 25.1709 29.0781 25.4786 29.0781 25.8584C29.0781 26.2382 29.3858 26.5459 29.7656 26.5459H32.8147Z" fill="white"/>
<path d="M27.6552 28.9419C27.6552 28.5621 27.3475 28.2544 26.9677 28.2544H24.5356C24.1558 28.2544 23.8481 28.5621 23.8481 28.9419V31.3739C23.8481 31.7537 24.1558 32.0614 24.5356 32.0614H26.9677C27.3475 32.0614 27.6552 31.7537 27.6552 31.3739V28.9419ZM26.2802 30.6847H25.2231V29.6277H26.2802V30.6847Z" fill="white"/>
<path d="M35.8636 30.8447C36.2434 30.8447 36.5511 30.5371 36.5511 30.1572C36.5511 29.7774 36.2434 29.4697 35.8636 29.4697H29.7656C29.3858 29.4697 29.0781 29.7774 29.0781 30.1572C29.0781 30.5371 29.3858 30.8447 29.7656 30.8447H35.8636Z" fill="white"/>
</svg>
