<?xml version="1.0" encoding="utf-8"?>
<svg width="44" height="44" viewBox="0 0 44 44" fill="none" xmlns="http://www.w3.org/2000/svg">
<g clip-path="url(#clip0_288_412)">
<path d="M21.9948 21.5464C21.8504 21.5464 21.6991 21.5103 21.5633 21.4381L1.80471 10.6599C1.50908 10.4983 1.32863 10.1752 1.33721 9.84172C1.3458 9.49969 1.55205 9.19545 1.86657 9.05971L21.6252 0.0775476C21.859 -0.030732 22.1288 -0.030732 22.3711 0.0775476L42.1298 9.05971C42.4443 9.20408 42.642 9.50829 42.6592 9.84172C42.6763 10.1734 42.489 10.4966 42.1917 10.6599L22.433 21.4381C22.2921 21.5017 22.1477 21.5464 21.9947 21.5464H21.9948ZM4.24867 9.94314L21.9965 19.6249L39.7514 9.94314L21.9952 1.86826L4.24867 9.94314Z" fill="#0F2851"/>
<path d="M31.874 16.1581C31.7296 16.1581 31.5956 16.122 31.4615 16.0601L12.6 6.18082C12.16 5.94707 11.9899 5.4091 12.2236 4.9691C12.4574 4.5291 12.9953 4.35895 13.4353 4.59269L32.2968 14.472C32.7368 14.7058 32.907 15.2437 32.6732 15.6837C32.5134 15.9776 32.1989 16.1581 31.874 16.1581V16.1581Z" fill="#0F2851"/>
<path d="M21.9946 44C21.8331 44 21.6801 43.9553 21.5357 43.8746C21.2659 43.713 21.0957 43.4156 21.0957 43.1028L21.0974 20.6492C21.0974 20.3175 21.2779 20.0201 21.5649 19.8586L41.3236 9.08032C41.602 8.92735 41.944 8.93594 42.2121 9.0975C42.482 9.25907 42.6521 9.55643 42.6521 9.86922V32.3229C42.6521 32.6546 42.4717 32.9519 42.1846 33.1135L22.426 43.8917C22.2919 43.9553 22.1476 44 21.9946 44L21.9946 44ZM22.8935 21.1785V41.5835L40.8561 31.7847V11.3797L22.8935 21.1785Z" fill="#0F2851"/>
<path d="M21.9949 44C21.8506 44 21.6993 43.9639 21.5635 43.8918L1.8049 33.1135C1.51787 32.9519 1.3374 32.6546 1.3374 32.3229L1.33912 9.87099C1.33912 9.55646 1.50928 9.26084 1.77912 9.09928C2.04896 8.93771 2.38927 8.92912 2.6677 9.08209L22.4263 19.8603C22.7134 20.0219 22.8938 20.3193 22.8938 20.651V43.1046C22.8938 43.4191 22.7237 43.7148 22.4538 43.8763C22.3198 43.9554 22.1565 44.0001 21.9949 44.0001L21.9949 44ZM3.13523 31.7847L21.0978 41.5836V21.1785L3.13523 11.3797V31.7847Z" fill="#0F2851"/>
<path d="M15.7075 33.2218C15.5734 33.2218 15.4291 33.1857 15.3036 33.1238L8.11926 29.5316C7.81332 29.3786 7.62598 29.0641 7.62598 28.7324V20.6492C7.62598 20.3346 7.78754 20.0476 8.04879 19.886C8.31004 19.7245 8.64178 19.7055 8.92021 19.8499L16.1045 23.4421C16.4105 23.5951 16.5978 23.9096 16.5978 24.2413V32.3246C16.5978 32.6391 16.4363 32.9262 16.175 33.0877C16.0409 33.1771 15.8794 33.2218 15.7075 33.2218H15.7075ZM9.42209 28.1754L14.8103 30.8704V24.7997L9.42209 22.1047V28.1754Z" fill="#0F2851"/>
<path d="M35.4678 30.5285C34.9745 30.5285 34.5688 30.1246 34.5688 29.6296V19.7503C34.5688 19.4186 34.7493 19.1126 35.0449 18.9596C35.3406 18.8067 35.6912 18.8256 35.9696 19.0043L38.6646 20.8004C39.0771 21.0788 39.1854 21.6357 38.9156 22.0482C38.6457 22.4607 38.0803 22.569 37.6678 22.2991L36.365 21.4363V29.6296C36.365 30.1246 35.9697 30.5285 35.4678 30.5285L35.4678 30.5285Z" fill="#0F2851"/>
<path d="M32.7728 24.2414C32.5837 24.2414 32.3963 24.1778 32.2331 24.0609C31.8377 23.7653 31.757 23.1981 32.0526 22.8028L34.7476 19.2106C35.0432 18.8153 35.6104 18.7345 36.0057 19.0301C36.401 19.3257 36.4818 19.8929 36.1862 20.2883L33.4912 23.8805C33.321 24.1159 33.0512 24.2414 32.7728 24.2414V24.2414Z" fill="#0F2851"/>
<path d="M28.2817 34.1207C27.7884 34.1207 27.3828 33.7168 27.3828 33.2218L27.3845 23.3424C27.3845 23.0107 27.565 22.7048 27.8606 22.5518C28.1562 22.3988 28.5069 22.4177 28.7853 22.5965L31.4803 24.3926C31.8928 24.671 32.0011 25.2279 31.7313 25.6404C31.4528 26.0529 30.896 26.1611 30.4835 25.8913L29.1807 25.0285V33.2217C29.1807 33.7167 28.7853 34.1207 28.2817 34.1207L28.2817 34.1207Z" fill="#0F2851"/>
<path d="M25.5887 27.8336C25.3996 27.8336 25.2123 27.77 25.049 27.6531C24.6537 27.3575 24.5729 26.7903 24.8685 26.395L27.5635 22.8028C27.8591 22.4074 28.4263 22.3267 28.8216 22.6223C29.2169 22.9179 29.2977 23.4851 29.0021 23.8804L26.3071 27.4726C26.1352 27.7081 25.8671 27.8336 25.5887 27.8336V27.8336Z" fill="#0F2851"/>
</g>
<defs>
<clipPath id="clip0_288_412">
<rect width="44" height="44" fill="white"/>
</clipPath>
</defs>
</svg>
