<?xml version="1.0" encoding="utf-8"?>
<svg width="44" height="44" viewBox="0 0 44 44" fill="none" xmlns="http://www.w3.org/2000/svg">
<path d="M2.87009 41.5422H41.1276C41.3923 41.5422 41.6054 41.3273 41.6054 41.0644L41.6072 26.1919C41.6072 25.9272 41.3923 25.7141 41.1294 25.7141H24.1946V23.2615C24.1946 22.9968 23.9798 22.7837 23.7169 22.7837H2.87185C2.60716 22.7837 2.39405 22.9985 2.39405 23.2615V41.0643C2.39233 41.329 2.60718 41.5421 2.87013 41.5421L2.87009 41.5422ZM33.696 26.6697V29.7772L32.7284 28.966C32.639 28.8921 32.529 28.8542 32.4207 28.8542C32.3107 28.8542 32.2025 28.892 32.1131 28.966L31.1472 29.7772V26.6714L33.696 26.6697ZM30.1915 26.6697V30.8033C30.1915 30.9889 30.2998 31.1591 30.4683 31.2364C30.5319 31.2674 30.6023 31.2811 30.6693 31.2811C30.7793 31.2811 30.8894 31.2433 30.977 31.1694L32.4225 29.956L33.868 31.1694C34.0106 31.2897 34.21 31.3155 34.3767 31.2364C34.5451 31.1574 34.6534 30.9889 34.6534 30.8033V26.6697H40.6502V40.5865H24.1951V26.6697L30.1915 26.6697ZM14.9134 23.7392V27.7542L13.602 26.6525C13.5126 26.5786 13.4043 26.5408 13.2943 26.5408C13.1843 26.5408 13.0761 26.5786 12.9867 26.6525L11.6753 27.7542V23.7392H14.9134ZM3.34977 23.7392H10.718V28.7803C10.718 28.9659 10.8263 29.1361 10.9947 29.2134C11.1615 29.2925 11.3608 29.2667 11.5035 29.1464L13.2944 27.6442L15.0853 29.1464C15.173 29.2203 15.283 29.2581 15.393 29.2581C15.4617 29.2581 15.5305 29.2427 15.5941 29.2135C15.7625 29.1344 15.8708 28.966 15.8708 28.7803V23.7392H23.239V40.5864H3.34972L3.34977 23.7392Z" fill="white"/>
<path d="M8.83594 12.2856C9.61281 14.3274 11.7424 15.5529 13.9096 15.1988L16.7112 14.7331L14.4063 19.0866C14.3186 19.2516 14.3358 19.451 14.4493 19.6006C14.5404 19.7209 14.683 19.7896 14.8291 19.7896C14.8635 19.7896 14.8979 19.7862 14.9322 19.7776L19.3802 18.7927C19.4816 18.7704 19.5727 18.7154 19.6397 18.6363L24.0363 13.5143C24.7152 13.3923 21.5785 13.9543 30.6706 12.3284C33.6681 11.7629 36.2635 9.91865 37.7898 7.2666C37.85 7.16347 37.8689 7.04144 37.8431 6.92457C37.3292 4.6077 31.9066 4.19692 29.9455 4.72113L25.891 5.85378L20.3822 2.52628C20.2396 2.44035 20.0625 2.43347 19.9147 2.51081L15.7829 4.6541C15.6471 4.72457 15.5525 4.85691 15.5302 5.00816C15.5079 5.15941 15.5594 5.3141 15.6711 5.42066L18.2974 7.97301L14.5952 9.006C13.9129 9.19163 13.1961 8.98366 12.7235 8.46458L9.02129 4.36022C8.90613 4.23303 8.73254 4.17631 8.56237 4.21412L6.51364 4.66785C6.37957 4.69707 6.26442 4.78472 6.19911 4.90676C6.13208 5.03051 6.12348 5.17489 6.17161 5.30551L8.83594 12.2856ZM16.8145 5.19759L20.1179 3.48401L24.6261 6.20823L19.3633 7.67774L16.8145 5.19759ZM8.49934 5.20791L12.0159 9.10604C12.7309 9.89325 13.8172 10.2078 14.8501 9.92761C17.4265 9.20746 24.2877 7.29276 30.2004 5.64276C31.1818 5.38151 33.1859 5.40042 34.7826 5.80604C32.696 7.37182 31.5874 7.5179 31.5548 7.52134C31.2952 7.54368 31.0993 7.77056 31.1182 8.03182C31.1371 8.28448 31.3468 8.47697 31.5943 8.47697C31.6063 8.47697 31.6166 8.47697 31.6287 8.47525C31.7868 8.46322 33.2116 8.29994 35.8619 6.17898C36.2298 6.34914 36.6818 6.60867 36.8554 6.97133C35.4546 9.28305 33.148 10.8883 30.4943 11.3885C30.429 11.4005 24.6436 12.4472 25.0115 12.3819L27.2132 9.81756C27.385 9.61819 27.3627 9.3157 27.1616 9.14383C26.9622 8.97368 26.6597 8.99602 26.4879 9.1954C26.4002 9.2968 19.0765 17.8286 19.0215 17.8924L15.7387 18.6194C16.1065 17.9234 14.4067 21.1357 19.3326 11.832C19.4564 11.5983 19.367 11.3095 19.1333 11.1857C18.8978 11.0603 18.6108 11.1514 18.487 11.3851L17.277 13.6693L13.757 14.2554C12.0383 14.539 10.3487 13.5662 9.73342 11.9454L7.26357 5.48136L8.49934 5.20791Z" fill="white"/>
</svg>
