<?xml version="1.0" encoding="utf-8"?>
<svg width="44" height="44" viewBox="0 0 44 44" fill="none" xmlns="http://www.w3.org/2000/svg">
<path d="M27.0313 21.2663C27.5705 20.7483 27.588 19.892 27.07 19.3526C26.552 18.8134 25.6957 18.796 25.1563 19.3139C25.1563 19.314 25.1563 19.314 25.1563 19.314L23.358 21.04V13.2603C23.358 12.5123 22.7529 11.9071 22.0049 11.9071C21.2588 11.9071 20.6518 12.5121 20.6518 13.2603V24.2141C20.6518 24.7572 20.9764 25.248 21.4751 25.4606C21.9739 25.6733 22.5519 25.567 22.9424 25.1919L27.0313 21.2663Z" fill="#0F2851" stroke="#0F2851" stroke-width="0.3"/>
<path d="M35.3284 9.08456L35.3295 9.08369L35.2018 8.96634C34.6507 8.45972 33.7942 8.49855 33.2898 9.04937C32.7853 9.6003 32.8221 10.4547 33.3728 10.9609L33.373 10.9611C37.1685 14.4415 39.1615 19.467 38.7834 24.6031C38.4053 29.7392 35.6965 34.4192 31.431 37.3049L31.515 37.4292L31.4309 37.3049C27.1669 40.1908 21.8142 40.9659 16.9062 39.4088C11.9982 37.8501 8.07316 34.131 6.25194 29.3137C4.43251 24.4959 4.91804 19.1108 7.57048 14.6969C10.1608 10.3864 14.54 7.46506 19.5022 6.7213L18.8093 7.63434H18.8076L18.7626 7.6936C18.3103 8.28895 18.4263 9.13761 19.0216 9.58987L19.0219 9.59005C19.6171 10.0403 20.4655 9.92445 20.9177 9.33104L20.9179 9.3308L23.4737 5.96384C23.4737 5.96382 23.4737 5.96381 23.4737 5.96379C23.8893 5.41669 23.8292 4.6473 23.3346 4.17015L23.3344 4.16992L20.287 1.24291C19.7478 0.724885 18.8915 0.742336 18.3736 1.27964L18.3734 1.27983C17.8553 1.81912 17.8728 2.67549 18.412 3.19349V3.1935L19.2715 4.01897C13.4601 4.83686 8.31671 8.22555 5.27158 13.2566L5.27156 13.2567C2.17465 18.3767 1.59443 24.6344 3.69539 30.2377H3.6954C5.79638 35.8392 10.35 40.1708 16.0499 41.9914L16.0956 41.8485L16.0499 41.9914C21.7516 43.8118 27.9717 42.9198 32.9303 39.5718L32.8464 39.4474C37.7691 36.1234 40.897 30.7301 41.3353 24.8073L41.4849 24.8184C41.924 18.9092 39.657 13.1223 35.3284 9.08456Z" fill="#0F2851" stroke="#0F2851" stroke-width="0.3"/>
<path d="M26.4464 7.12792L26.4902 7.13994C27.4258 7.39869 28.3365 7.73642 29.2124 8.15154L29.9527 8.55844L29.954 8.55914C30.6091 8.91086 31.4248 8.66933 31.7824 8.01789C32.14 7.36635 31.9042 6.54861 31.2565 6.18709V6.18708L31.2555 6.18653L30.4529 5.74653L30.453 5.74633L30.4455 5.74277C29.389 5.23705 28.2891 4.82653 27.158 4.5182L27.1574 4.51803C26.4367 4.32482 25.6963 4.74985 25.5008 5.46906C25.3037 6.18836 25.7272 6.93071 26.4464 7.12792Z" fill="#0F2851" stroke="#0F2851" stroke-width="0.3"/>
<path d="M20.6518 34.6051V36.5404C20.6518 37.2885 21.2588 37.8935 22.0049 37.8935C22.7529 37.8935 23.358 37.2884 23.358 36.5404V34.6051C23.358 33.8571 22.7529 33.252 22.0049 33.252C21.2588 33.252 20.6518 33.857 20.6518 34.6051Z" fill="#0F2851" stroke="#0F2851" stroke-width="0.3"/>
<path d="M12.807 23.4401V23.3846L12.8058 23.3832C12.7917 23.0463 12.6523 22.7249 12.4107 22.4833C12.1575 22.23 11.8134 22.087 11.4539 22.087H9.51857C8.77229 22.087 8.16543 22.6939 8.16543 23.4401C8.16543 24.1883 8.77243 24.7933 9.51857 24.7933H11.4539C12.2019 24.7933 12.807 24.1881 12.807 23.4401Z" fill="#0F2851" stroke="#0F2851" stroke-width="0.3"/>
<path d="M15.2389 17.2389L15.2782 17.1996L15.2783 17.1978C15.5066 16.9496 15.6353 16.6238 15.6353 16.2821C15.6353 15.9239 15.4931 15.5795 15.2389 15.3253L13.8705 13.9568C13.3428 13.4291 12.4845 13.4291 11.9569 13.9568C11.4278 14.4858 11.4292 15.3429 11.9568 15.8705L13.3253 17.2389C13.8542 17.7679 14.71 17.7678 15.2389 17.2389Z" fill="#0F2851" stroke="#0F2851" stroke-width="0.3"/>
<path d="M32.2389 33.2389L32.2782 33.1996L32.2783 33.1978C32.5066 32.9496 32.6353 32.6238 32.6353 32.2821C32.6353 31.9239 32.4931 31.5795 32.2389 31.3253L30.8705 29.9568C30.3428 29.4291 29.4845 29.4291 28.9569 29.9568C28.4278 30.4858 28.4292 31.3429 28.9568 31.8705L30.3253 33.2389C30.8542 33.7679 31.71 33.7678 32.2389 33.2389Z" fill="#0F2851" stroke="#0F2851" stroke-width="0.3"/>
<path d="M34.7339 24.7935C35.48 24.7935 36.087 24.1885 36.087 23.4404C36.087 22.6941 35.4802 22.0872 34.7339 22.0872H32.7969C32.0506 22.0872 31.4437 22.6941 31.4437 23.4404C31.4437 24.1885 32.0507 24.7935 32.7969 24.7935H34.7339Z" fill="#0F2851" stroke="#0F2851" stroke-width="0.3"/>
<path d="M28.5874 15.3574C28.5836 15.7193 28.7269 16.0671 28.9835 16.3238C29.2392 16.5814 29.5875 16.7222 29.9499 16.7203C30.3117 16.7183 30.6573 16.5695 30.9099 16.3114L32.2775 14.9438L32.279 14.9423C32.795 14.4108 32.7893 13.566 32.2655 13.0422C31.781 12.5578 31.0167 12.5161 30.4856 12.9258L30.4782 12.9174L30.3655 13.0301L29.0413 14.3543H29.0409L28.9973 14.3967C28.7383 14.6479 28.5894 14.9938 28.5874 15.3574ZM28.5874 15.3574C28.5874 15.3572 28.5874 15.3571 28.5874 15.357L28.7374 15.3586L28.5874 15.3578C28.5874 15.3576 28.5874 15.3575 28.5874 15.3574Z" fill="#0F2851" stroke="#0F2851" stroke-width="0.3"/>
<path d="M12.0001 32.7113C11.9963 33.0732 12.1396 33.421 12.3962 33.6777C12.6519 33.9353 13.0002 34.0761 13.3626 34.0742C13.7244 34.0722 14.07 33.9234 14.3226 33.6653L15.6902 32.2977L15.6917 32.2962C16.2077 31.7647 16.202 30.9199 15.6782 30.3961C15.1937 29.9117 14.4294 29.87 13.8983 30.2797L13.8909 30.2713L13.7782 30.384L12.454 31.7082H12.4536L12.41 31.7506C12.151 32.0018 12.0021 32.3477 12.0001 32.7113ZM12.0001 32.7113C12.0001 32.7111 12.0001 32.711 12.0001 32.7109L12.1501 32.7125L12.0001 32.7117C12.0001 32.7115 12.0001 32.7114 12.0001 32.7113Z" fill="#0F2851" stroke="#0F2851" stroke-width="0.3"/>
</svg>
