<?xml version="1.0" encoding="utf-8"?>
<svg width="44" height="44" viewBox="0 0 44 44" fill="none" xmlns="http://www.w3.org/2000/svg">
<path d="M40.7451 7.88372L22.1824 2.774C22.0638 2.74135 21.9366 2.74135 21.818 2.774L3.2553 7.88372C2.95623 7.96622 2.75 8.23779 2.75 8.54716V40.5624C2.75 40.7446 2.82219 40.9199 2.95109 41.0489C3.08 41.1778 3.25531 41.25 3.43751 41.25H7.43188C7.61406 41.25 7.78938 41.1778 7.9183 41.0489C8.0472 40.9199 8.11939 40.7446 8.11939 40.5624V17.3832H35.8808V40.5624C35.8808 40.7446 35.9529 40.9199 36.0818 41.0489C36.2108 41.1778 36.3861 41.25 36.5683 41.25H40.5626C40.7448 41.25 40.9201 41.1778 41.0491 41.0489C41.178 40.9199 41.2501 40.7446 41.2501 40.5624V8.54716C41.2501 8.23778 41.0439 7.96622 40.7449 7.88372H40.7451ZM4.12523 9.07137L22.0002 4.15041L39.8752 9.07137V11.2662H4.12523V9.07137ZM6.74459 39.8749H4.12523V12.6411H6.74459V39.8749ZM8.11959 16.0084V12.6414H35.881V16.0084H8.11959ZM37.256 39.8749V12.6411H39.8753V39.8749H37.256Z" fill="white"/>
<path d="M30.6887 29.9009H27.3749V21.8999C27.3749 21.1402 26.7596 20.5249 25.9999 20.5249H18.0007C17.241 20.5249 16.6257 21.1402 16.6257 21.8999V29.9009H13.312C12.554 29.9009 11.9387 30.5162 11.937 31.2759V39.2751C11.9387 40.0348 12.554 40.6501 13.312 40.6501H30.6885C31.4465 40.6501 32.0618 40.0348 32.0635 39.2751V31.2759C32.0618 30.5162 31.4465 29.9009 30.6885 29.9009H30.6887ZM27.8424 33.5824L25.5358 33.5807V31.2741H27.8407L27.8424 33.5824ZM23.1538 21.9V24.2066L20.8472 24.2048V21.8983L23.1538 21.9ZM18.0009 21.9H19.4739V24.2066L19.4722 24.2048C19.4739 24.9645 20.0892 25.5798 20.8472 25.5798H23.1538C23.9117 25.5798 24.527 24.9645 24.5288 24.2048V21.8983H26.0017L26 29.901H18.0008L18.0009 21.9ZM18.465 31.276V33.5825H16.1584V31.276H18.465ZM13.3121 31.276H14.7851V33.5825V33.5808C14.7851 34.3405 15.4004 34.9558 16.1601 34.9558H18.465C19.2247 34.9558 19.84 34.3405 19.84 33.5808V31.2742L21.313 31.276V39.2752H13.312L13.3121 31.276ZM22.6881 39.2752V31.276H24.1611V33.5825V33.5808C24.1611 34.3405 24.7764 34.9558 25.5361 34.9558H27.8409C28.6006 34.9558 29.2159 34.3405 29.2159 33.5808V31.2742H30.6889V39.2752L22.6881 39.2752Z" fill="white"/>
<path d="M22.0005 10.2712C23.0231 10.2712 23.9444 9.65423 24.3362 8.71061C24.7281 7.76531 24.5116 6.67904 23.788 5.95546C23.0661 5.23188 21.9781 5.01531 21.0328 5.40717C20.0892 5.79905 19.4722 6.72031 19.4722 7.74296C19.4739 9.13859 20.6048 10.2695 22.0005 10.2712ZM22.0005 6.58967C22.4662 6.58967 22.8873 6.86983 23.0661 7.30124C23.2449 7.73265 23.1452 8.22766 22.8152 8.55766C22.4869 8.88766 21.9902 8.98563 21.5587 8.8086C21.129 8.62985 20.8472 8.20875 20.8472 7.74296C20.8489 7.10531 21.3645 6.58968 22.0004 6.58968L22.0005 6.58967Z" fill="white"/>
</svg>
