<?xml version="1.0" encoding="utf-8"?>
<svg width="44" height="44" viewBox="0 0 44 44" fill="none" xmlns="http://www.w3.org/2000/svg">
<path d="M42.5665 24.2875C42.5665 24.0009 42.2791 23.7709 41.9917 23.7709H39.6321V14.9884C39.6321 14.6434 39.4014 14.4153 39.0574 14.4153C38.7114 14.4153 38.4827 14.6454 38.4827 14.9884V23.7709H34.1075V21.8195C34.1075 21.4744 33.8768 21.2463 33.5328 21.2463H29.5037V19.2949C29.5037 18.9499 29.273 18.7218 28.929 18.7218H15.1113C14.7653 18.7218 14.5366 18.9519 14.5366 19.2949V23.7729H12.2924V19.8701H12.5797C12.9258 19.8701 13.1545 19.64 13.1545 19.2969V16.7704C13.1545 16.4253 12.9238 16.1973 12.5797 16.1973H12.2924V14.9925C12.2924 14.6474 12.0617 14.4194 11.7176 14.4194H8.43729V10.8031C8.43729 10.458 8.20659 10.23 7.86256 10.23C7.51651 10.23 7.28782 10.46 7.28782 10.8031V14.4194H4.00748C3.66143 14.4194 3.43275 14.6495 3.43275 14.9925V23.7749H2.22464C1.87859 23.7749 1.6499 24.005 1.6499 24.3481V30.6037C1.6499 32.4401 3.1474 33.99 5.04562 33.99H36.3596C36.5903 33.99 36.821 33.8185 36.9344 33.5884C36.9344 33.5319 38.3732 29.3404 40.7328 28.1924C42.7382 27.1571 42.5662 24.4026 42.5662 24.2875L42.5665 24.2875ZM32.9539 23.7709H29.4995V22.3925H32.9539V23.7709ZM24.8934 23.7709V22.3925H28.3479V23.7709H24.8934ZM20.2896 23.7709V22.3925H23.744V23.7709H20.2896ZM28.348 21.2443H24.8936V19.866H28.348V21.2443ZM23.7422 21.2443H20.2878V19.866H23.7422V21.2443ZM15.7428 19.868H19.1972V21.2463H15.7428V19.868ZM15.7428 22.3925H19.1972V23.7709H15.7428V22.3925ZM8.49003 18.7197V17.3414H9.69814V18.7197H8.49003ZM10.8496 17.3999H12.0577V18.7783H10.8496V17.3999ZM4.63293 15.5615H11.1957V16.1932H7.91535C7.5693 16.1932 7.34061 16.4232 7.34061 16.7663V19.2929C7.34061 19.6379 7.57131 19.866 7.91535 19.866H11.1957V23.7689H4.63293V15.5615ZM35.9469 32.8396H5.03546C3.82735 32.8396 2.79124 31.8629 2.79124 30.6017V27.732H39.2273C37.4424 29.1668 36.2909 31.8064 35.9469 32.8396V32.8396ZM40.7815 26.6403V26.5838H2.79124V24.9189H41.4187C41.3559 25.4355 41.2426 26.1236 40.7812 26.6402L40.7815 26.6403Z" fill="white"/>
</svg>
