<?xml version="1.0" encoding="UTF-8"?>
<svg width="141" height="85" viewBox="0 0 141 85" fill="none" xmlns="http://www.w3.org/2000/svg">
<path d="M140.646 84.3861C140.646 84.4345 109.155 84.4668 70.3229 84.4668C31.4751 84.4668 0 84.4345 0 84.3861C0 84.3377 31.4751 84.2893 70.3229 84.2893C109.155 84.2893 140.646 84.3377 140.646 84.3861Z" fill="#263238"/>
<path d="M23.4546 5.6191C28.1302 -0.549184 33.0757 0.314014 36.4925 1.80663C39.9273 3.29925 42.2292 7.05777 41.9954 10.7983C41.9414 11.7874 41.7256 12.8124 42.1393 13.7116C42.7867 15.1683 44.6569 15.5819 45.7359 16.7328C47.2285 18.3153 46.9048 20.833 46.4013 22.9371C45.8978 25.0591 45.3583 27.4689 46.5991 29.2492C47.7501 30.8857 49.9081 31.3173 51.7064 32.1805C54.0622 33.3314 55.9684 35.4714 56.6518 38.0071C57.3352 40.5428 56.7417 43.4381 54.9614 45.3803C53.217 47.2685 50.6094 48.1137 48.0738 48.4914C40.6646 49.5704 32.8239 47.1786 27.267 42.1613C21.7282 37.1259 18.617 29.5369 18.9947 22.0559" fill="#263238"/>
<path d="M36.7438 2.07659C36.7438 2.11255 36.0964 2.02264 35.0714 2.1665C34.0643 2.31037 32.6976 2.75995 31.205 3.29945C29.7123 3.82097 28.2737 4.1087 27.2306 4.03677C26.6911 4.01879 26.2775 3.92887 26.0078 3.83895C25.72 3.74903 25.5762 3.6771 25.5762 3.6771C25.5942 3.62315 26.1876 3.8929 27.2306 3.91089C28.2557 3.94686 29.6584 3.64113 31.151 3.11962C32.6436 2.5981 34.0104 2.14852 35.0534 2.04062C35.5749 1.98667 36.0065 1.98667 36.2942 2.00465C36.582 2.04062 36.7438 2.0586 36.7438 2.07659Z" fill="#455A64"/>
<path d="M47.5159 51.1709C47.6958 51.7104 51.4363 69.3341 51.4363 69.3341L79.796 80.232L78.2135 84.3861L53.882 82.2461C39.6752 80.1241 38.8839 73.1465 39.7471 65.3598L41.2218 52.0161L47.5159 51.1709Z" fill="#FFBE9D"/>
<path d="M6.72949 41.6573C9.66078 37.2334 14.1027 34.6798 18.1669 33.2771L33.0931 34.3381C33.0931 34.3381 38.1284 33.6008 42.1747 37.683L43.5774 74.6748L46.9942 84.3858H11.4951L6.72949 41.6573Z" fill="#0C73E3"/>
<path d="M42.7317 52.879C42.7317 52.879 42.7017 52.861 42.6418 52.825C42.5818 52.7771 42.5039 52.7171 42.408 52.6452C42.3001 52.5553 42.1742 52.4474 42.0124 52.3395C41.8445 52.2436 41.6587 52.1237 41.4549 51.9798C41.2211 51.8719 40.9873 51.7281 40.7176 51.6022C40.4298 51.4943 40.1421 51.3324 39.8004 51.2425C39.135 50.9907 38.3258 50.8289 37.4446 50.739C36.5634 50.667 35.5743 50.703 34.5493 50.9188C33.5242 51.1346 32.4632 51.5482 31.4921 52.2136C30.503 52.843 29.5859 53.7602 29.0823 54.9111C28.8306 55.5046 28.6867 56.152 28.7407 56.7994C28.8126 57.4468 29.0464 58.0762 29.46 58.6157C29.8556 59.1372 30.4671 59.4969 31.0965 59.5868C31.7259 59.6767 32.4093 59.4249 32.715 58.8854C33.0207 58.3459 32.9488 57.6805 32.733 57.1231C32.643 56.8353 32.4812 56.5836 32.3193 56.3318C32.1395 56.098 31.9417 55.8822 31.7259 55.6844C30.8447 54.8931 29.7837 54.4436 28.7766 54.2098C27.7516 53.976 26.7625 53.976 25.8813 54.0479C24.101 54.2457 22.7162 54.7133 21.7631 55.019C21.2956 55.1749 20.9299 55.3008 20.6661 55.3967C20.5463 55.4326 20.4503 55.4626 20.3784 55.4866C20.3065 55.5106 20.2705 55.5165 20.2705 55.5046C20.2705 55.5046 20.3005 55.4926 20.3604 55.4686C20.4324 55.4446 20.5283 55.4086 20.6482 55.3607C20.8999 55.2708 21.2596 55.1269 21.7272 54.9471C22.6803 54.6234 24.065 54.1198 25.8633 53.922C26.7625 53.8321 27.7696 53.8321 28.8126 54.0659C29.8376 54.2997 30.9346 54.7493 31.8338 55.5585C31.9537 55.6544 32.0616 55.7623 32.1575 55.8822C32.2654 55.9901 32.3673 56.11 32.4632 56.2419C32.643 56.4936 32.7929 56.7694 32.9128 57.0691C33.1286 57.6446 33.2185 58.3639 32.8768 58.9754C32.697 59.2811 32.4272 59.5148 32.1035 59.6407C31.7798 59.7666 31.4202 59.8026 31.0785 59.7666C30.3771 59.6767 29.7477 59.2811 29.3161 58.7236C28.8665 58.1661 28.6328 57.4827 28.5608 56.8174C28.4889 56.134 28.6507 55.4506 28.9025 54.8392C29.442 53.6343 30.3951 52.7171 31.3842 52.0697C32.3913 51.4044 33.4703 50.9907 34.5133 50.7749C35.5563 50.5591 36.5634 50.5232 37.4626 50.6131C38.3618 50.703 39.153 50.8828 39.8364 51.1346C40.1781 51.2425 40.4658 51.4044 40.7535 51.5123C41.0233 51.6561 41.2751 51.8 41.4909 51.9259C41.6947 52.0697 41.8805 52.1956 42.0483 52.3035C42.2102 52.4114 42.3181 52.5193 42.426 52.6092C42.5219 52.6932 42.5998 52.7591 42.6598 52.8071C42.7077 52.855 42.7317 52.879 42.7317 52.879Z" fill="#FAFAFA"/>
<path d="M42.1748 37.6832L50.9866 53.5265L41.2217 56.5298L42.1748 37.6832Z" fill="#0C73E3"/>
<path d="M43.3617 74.8007C43.3617 74.8007 43.3558 74.7048 43.3438 74.513C43.3318 74.3211 43.3138 74.0574 43.2898 73.7217C43.2538 73.0204 43.2179 72.0133 43.1639 70.7904C43.056 68.3267 42.9301 64.9099 42.8222 61.1514C42.7143 57.3748 42.6424 53.958 42.6244 51.4943C42.6064 50.2534 42.6064 49.2464 42.6064 48.563C42.6184 48.2273 42.6244 47.9636 42.6244 47.7717C42.6244 47.5799 42.6304 47.484 42.6424 47.484C42.6544 47.484 42.6604 47.5799 42.6604 47.7717C42.6724 47.9636 42.6784 48.2273 42.6784 48.563C42.6964 49.2644 42.7143 50.2714 42.7503 51.4763C42.8222 53.976 42.9122 57.3749 43.0021 61.1334C43.11 64.9099 43.2179 68.3087 43.2898 70.7904C43.3258 72.0133 43.3438 73.0024 43.3617 73.7217C43.3617 74.0574 43.3677 74.3211 43.3797 74.513C43.3797 74.7048 43.3737 74.8007 43.3617 74.8007Z" fill="#263238"/>
<path d="M44.7826 42.5209C44.7826 42.5209 44.7167 42.5628 44.5848 42.6468C44.4409 42.7547 44.2431 42.8626 43.9554 42.9885C43.3979 43.2402 42.5347 43.528 41.4197 43.5459C40.3407 43.5639 38.974 43.2942 37.7511 42.4669C37.4454 42.2691 37.1577 42.0353 36.8879 41.7476C36.6362 41.4419 36.4204 41.0822 36.3664 40.6686C36.2945 40.273 36.3844 39.8054 36.6901 39.4817C36.9778 39.14 37.4814 39.0321 37.895 39.122C38.3266 39.212 38.7402 39.4637 38.956 39.8414C39.1718 40.219 39.2258 40.6686 39.1538 41.0642C39.0819 41.4779 38.8841 41.8375 38.6503 42.1432C38.3985 42.449 38.0928 42.6827 37.7691 42.8626C37.1037 43.2043 36.4024 43.3481 35.773 43.4201C35.1256 43.492 34.5141 43.492 33.9746 43.438C32.8776 43.3481 32.0144 43.0604 31.457 42.8446C31.1692 42.7187 30.9534 42.6108 30.8095 42.5389C30.6657 42.4669 30.5938 42.425 30.5938 42.413C30.5938 42.413 30.6717 42.443 30.8275 42.5029C30.9714 42.5748 31.1872 42.6648 31.4749 42.7727C32.0504 42.9705 32.8956 43.2222 33.9746 43.3122C34.5141 43.3481 35.1256 43.3481 35.755 43.2762C36.3844 43.1863 37.0678 43.0424 37.6792 42.7187C37.9849 42.5389 38.2906 42.3231 38.5064 42.0353C38.7402 41.7476 38.9021 41.4059 38.974 41.0283C39.0279 40.6686 38.992 40.273 38.7942 39.9313C38.6143 39.6076 38.2547 39.3738 37.859 39.3019C37.4814 39.2299 37.0678 39.3199 36.816 39.6076C36.5642 39.8773 36.4923 40.273 36.5462 40.6506C36.6002 41.0103 36.798 41.352 37.0318 41.6217C37.2656 41.8915 37.5533 42.1432 37.859 42.3231C39.0279 43.1323 40.3587 43.4201 41.4197 43.4021C42.5167 43.4201 43.3799 43.1503 43.9374 42.9345C44.4949 42.6827 44.7646 42.5029 44.7826 42.5209Z" fill="#FAFAFA"/>
<path d="M42.9118 74.4771C42.8998 74.4891 42.8638 74.4712 42.8039 74.4232C42.7319 74.3633 42.636 74.2913 42.5161 74.2074C42.2644 74.0276 41.8687 73.7758 41.3472 73.5061C40.2862 72.9845 38.6137 72.4091 36.4917 72.445C34.3697 72.445 31.852 73.1464 29.4243 74.5491C28.8308 74.9088 28.2374 75.3044 27.6979 75.7899C27.1404 76.2755 26.6548 76.851 26.3131 77.5163C25.9894 78.1997 25.8276 78.991 25.9894 79.7283C26.0794 80.1059 26.2592 80.4476 26.5469 80.6994C26.8167 80.9691 27.2123 81.077 27.572 80.9691C27.9496 80.8612 28.2194 80.5555 28.4172 80.2318C28.597 79.8901 28.7049 79.5125 28.7049 79.1348C28.7049 78.3616 28.4352 77.6063 28.0216 76.9948C27.6079 76.3654 27.0505 75.8439 26.439 75.4662C25.8096 75.0886 25.1442 74.8368 24.4608 74.693C23.0941 74.4052 21.7454 74.4771 20.5045 74.657C19.2637 74.8368 18.1307 75.0886 17.1236 75.3943C15.0735 76.0057 13.527 76.761 12.466 77.3185C11.9444 77.6063 11.5488 77.84 11.2791 78.0019C11.1592 78.0738 11.0633 78.1338 10.9913 78.1817C10.9194 78.2297 10.8834 78.2537 10.8834 78.2537C10.8714 78.2417 10.9014 78.2117 10.9733 78.1637C11.0453 78.1158 11.1412 78.0498 11.2611 77.9659C11.5308 77.8041 11.9265 77.5523 12.448 77.2466C13.473 76.6711 15.0376 75.8978 17.0697 75.2684C18.0947 74.9627 19.2457 74.675 20.4865 74.4951C21.7274 74.3153 23.0941 74.2254 24.4968 74.5311C25.1802 74.675 25.8815 74.9267 26.5289 75.3224C27.1584 75.718 27.7518 76.2395 28.1834 76.8869C28.615 77.5343 28.9027 78.3076 28.9027 79.1348C28.8848 79.5485 28.7769 79.9441 28.579 80.3217C28.3632 80.6814 28.0575 81.0231 27.6259 81.149C27.2123 81.2749 26.7268 81.149 26.421 80.8433C26.0973 80.5555 25.9175 80.1779 25.8096 79.7822C25.6298 78.973 25.8096 78.1458 26.1513 77.4444C26.511 76.7431 27.0145 76.1496 27.572 75.6641C28.1295 75.1605 28.7229 74.7649 29.3523 74.4052C31.7981 72.9845 34.3337 72.3012 36.4917 72.3012C38.6317 72.2832 40.3222 72.8946 41.3832 73.4341C42.4262 74.0096 42.9118 74.4771 42.9118 74.4771Z" fill="#FAFAFA"/>
<path d="M21.8172 67.5896L26.4209 64.3346C36.4197 56.6737 43.5231 55.8105 46.9399 55.5947C50.3567 55.3789 50.3567 57.5009 52.209 57.3391C54.0433 57.1772 54.1153 58.0045 54.1153 58.0045C54.6727 58.9216 51.9393 59.2273 51.9393 59.2273C51.9393 59.2273 55.3921 66.7983 55.7697 67.3558C56.1294 67.8953 55.6259 68.9923 54.6727 68.8124C54.3311 68.7585 51.5976 64.6763 51.5976 64.6763C51.5976 64.6763 48.8102 68.9923 47.3355 69.3699C45.8789 69.7296 41.473 65.5215 41.473 65.5215C41.473 65.5215 22.4646 82.3179 20.6303 83.0732C17.5012 84.386 15.6849 82.7136 13.8685 81.2569C12.0342 79.7823 5.21855 54.3538 7.23269 45.7398C7.25667 45.6559 7.27465 45.572 7.28664 45.4881C8.67136 40.0211 16.4941 40.2369 17.5731 45.7578L21.8172 67.5896Z" fill="#FFBE9D"/>
<path d="M26.4215 64.3347C26.4215 64.3347 26.4635 64.3047 26.5474 64.2448C26.6313 64.1729 26.7452 64.0829 26.8891 63.975C27.2008 63.7353 27.6504 63.3996 28.2378 62.968C29.4427 62.1228 31.2051 60.8819 33.5789 59.6051C35.9527 58.3283 38.9559 56.9436 42.5705 56.1163C43.4877 55.9365 44.4228 55.7567 45.3939 55.6488C45.8855 55.6008 46.383 55.5588 46.8865 55.5229C47.3901 55.5049 47.9116 55.4869 48.4151 55.5948C48.9366 55.6847 49.4402 55.8646 49.8898 56.1523C50.3393 56.44 50.735 56.8177 51.1846 57.0515C51.4183 57.1773 51.6701 57.2313 51.9219 57.2493C52.1916 57.2493 52.4614 57.2133 52.7491 57.2313C53.0189 57.2313 53.3066 57.2673 53.5763 57.3752C53.8461 57.4651 54.1338 57.6629 54.2058 58.0046L54.1878 57.9686C54.2597 58.0765 54.2957 58.2204 54.2597 58.3642C54.2237 58.4901 54.1338 58.598 54.0439 58.67C53.8461 58.8318 53.6123 58.9217 53.3785 59.0116C52.9289 59.1555 52.4434 59.2454 51.9399 59.3174L52.0118 59.1915C52.8031 60.8819 53.6123 62.6443 54.4575 64.4606C54.8891 65.3598 55.3027 66.2949 55.7703 67.1761C55.8243 67.284 55.9142 67.4099 55.9501 67.5537C55.9861 67.6976 55.9921 67.8355 55.9681 67.9673C55.9142 68.2371 55.7703 68.5068 55.5545 68.6867C55.3387 68.8665 55.033 68.9564 54.7632 68.9205L54.6553 68.9025C54.6374 68.9025 54.6014 68.9025 54.5834 68.8845C54.5654 68.8665 54.5474 68.8665 54.5295 68.8485C54.4755 68.7946 54.4216 68.7586 54.3856 68.7047C54.2897 68.6088 54.2058 68.5068 54.1338 68.3989C53.1807 67.1941 52.3535 65.9532 51.5262 64.7303H51.6881C51.0227 65.7374 50.3214 66.6905 49.5661 67.5897C49.1884 68.0393 48.7928 68.4709 48.3612 68.8485C48.2533 68.9384 48.1274 69.0284 48.0195 69.1183C47.8936 69.2082 47.7677 69.2801 47.6418 69.3521C47.498 69.406 47.3541 69.4779 47.1923 69.4779C47.0364 69.4779 46.8865 69.46 46.7427 69.424C46.1852 69.2621 45.6817 68.9744 45.2141 68.6687C44.7465 68.363 44.2969 68.0393 43.8653 67.6976C43.0021 67.0142 42.1929 66.3129 41.4196 65.5756L41.5275 65.5935C35.5031 70.8806 30.3419 75.3405 26.6553 78.4336C24.803 79.9622 23.3284 81.1671 22.3033 81.9584C21.7818 82.354 21.3682 82.6417 21.0804 82.8396C20.8107 83.0194 20.6309 83.0734 20.6309 83.0734C20.6309 83.0734 20.7927 83.0014 21.0804 82.8036C21.3502 82.6238 21.7458 82.3181 22.2673 81.9224C23.2924 81.1132 24.749 79.9083 26.5833 78.3437C30.2519 75.2326 35.4132 70.7727 41.4196 65.4497L41.4736 65.4137L41.5455 65.4677C42.3008 66.169 43.11 66.8883 43.9732 67.5537C44.4048 67.8954 44.8544 68.2191 45.304 68.5248C45.7716 68.8126 46.2571 69.1003 46.7966 69.2442C47.3361 69.442 47.8037 69.0643 48.2353 68.7047C48.6669 68.345 49.0445 67.9134 49.4222 67.4638C50.1775 66.5826 50.8788 65.6115 51.5262 64.6224L51.5982 64.5145L51.6881 64.6224C52.5153 65.8453 53.3426 67.0862 54.2777 68.291C54.3496 68.387 54.4276 68.4829 54.5115 68.5788C54.5654 68.6147 54.6014 68.6687 54.6553 68.7047L54.6733 68.7226C54.6913 68.7226 54.6733 68.7406 54.6733 68.7586C54.6733 68.7406 54.6733 68.8126 54.6733 68.7226H54.6913L54.7812 68.7406C55.015 68.7586 55.2488 68.6867 55.4286 68.5428C55.7883 68.2371 55.9322 67.6616 55.6085 67.284C55.1409 66.3668 54.7093 65.4497 54.2957 64.5505C53.4505 62.7342 52.6412 60.9718 51.8499 59.2634L51.796 59.1555L51.9219 59.1375C52.4074 59.0656 52.875 58.9757 53.3246 58.8318C53.5404 58.7599 53.7562 58.67 53.918 58.5441C54.0079 58.4721 54.0619 58.4002 54.0979 58.3103C54.1158 58.2384 54.0799 58.1484 54.0439 58.0585L54.0259 58.0405V58.0226C53.99 57.8068 53.7562 57.6089 53.5224 57.537C53.2706 57.4471 53.0009 57.4111 52.7491 57.4111C52.4794 57.3931 52.2096 57.4291 51.9219 57.4291C51.6521 57.4111 51.3644 57.3392 51.1126 57.2133C50.6091 56.9615 50.2314 56.5659 49.7998 56.2962C49.3682 56.0264 48.8827 55.8466 48.3971 55.7567C47.3901 55.5768 46.383 55.7207 45.4119 55.8106C44.4408 55.9185 43.5057 56.0804 42.6065 56.2782C39.0098 57.0694 36.0066 58.4362 33.6328 59.695C31.241 60.9718 29.4787 62.1947 28.2738 63.0039C27.6743 63.4355 27.2188 63.7652 26.907 63.993C26.7512 64.1009 26.6313 64.1848 26.5474 64.2448C26.4754 64.3047 26.4335 64.3347 26.4215 64.3347Z" fill="#EB996E"/>
<path d="M20.1084 73.7757C20.0904 73.7757 20.0724 73.6858 20.0365 73.5059C20.0005 73.3261 19.9645 73.0743 19.9465 72.7506C19.8926 72.1212 19.9465 71.222 20.2163 70.2689C20.4681 69.3338 20.8997 68.5425 21.2593 68.021C21.4392 67.7513 21.601 67.5534 21.7269 67.4276C21.8528 67.2837 21.9247 67.2297 21.9247 67.2297C21.9607 67.2477 21.7089 67.5534 21.3672 68.0929C21.0435 68.6145 20.6479 69.4057 20.3961 70.3229C20.1444 71.258 20.0724 72.1212 20.0724 72.7506C20.0724 73.38 20.1444 73.7757 20.1084 73.7757Z" fill="#EB996E"/>
<path d="M16.5844 38.4746L21.5118 61.2954L4.3377 62.4823C4.3377 62.4823 3.74425 51.1888 4.73333 44.6968C5.72241 38.2048 12.0526 36.3166 12.2324 36.1907L16.5844 38.4746Z" fill="#0C73E3"/>
<path d="M48.7385 68.4709C48.7026 68.4709 48.7565 68.2371 48.7385 67.8774C48.7385 67.5178 48.6486 67.0322 48.3968 66.5467C48.1271 66.0611 47.7854 65.7014 47.4797 65.5036C47.192 65.2878 46.9941 65.1979 46.9941 65.1619C46.9941 65.144 47.2279 65.1979 47.5696 65.3957C47.8933 65.5755 48.2889 65.9532 48.5587 66.4567C48.8284 66.9783 48.9004 67.4998 48.8824 67.8774C48.8464 68.2551 48.7565 68.4709 48.7385 68.4709Z" fill="#EB996E"/>
<path d="M50.3213 66.5465C50.2494 66.5465 50.2314 65.7552 49.7278 64.9819C49.2423 64.1907 48.5229 63.849 48.5589 63.795C48.5589 63.777 48.7567 63.831 49.0265 64.0108C49.2962 64.1727 49.6199 64.4784 49.8897 64.874C50.1414 65.2876 50.2853 65.7192 50.3213 66.0429C50.3573 66.3487 50.3393 66.5465 50.3213 66.5465Z" fill="#EB996E"/>
<path d="M50.3213 62.4463C50.3213 62.4283 50.4831 62.5002 50.6809 62.6801C50.8608 62.8419 51.1125 63.1476 51.2744 63.5073C51.4362 63.8849 51.4902 64.2446 51.4902 64.5144C51.4902 64.7841 51.4362 64.946 51.4182 64.928C51.3643 64.928 51.4182 64.2806 51.0945 63.5792C50.7888 62.8779 50.2673 62.4823 50.3213 62.4463Z" fill="#EB996E"/>
<path d="M19.408 50.5235C19.408 50.5355 19.3781 50.5355 19.3181 50.5235C19.2582 50.5235 19.1743 50.5175 19.0664 50.5055C18.8326 50.4696 18.5089 50.4336 18.0593 50.4336C17.1961 50.4156 15.9193 50.5235 14.4806 51.099C13.0419 51.6565 11.4234 52.7175 10.2725 54.4259C9.71502 55.2711 9.28342 56.3141 9.35535 57.4111C9.39132 57.9506 9.55317 58.5081 9.85888 58.9757C10.1646 59.4612 10.6142 59.8389 11.1537 60.0187C11.7112 60.1986 12.3046 60.1626 12.8082 59.9288C13.3297 59.713 13.6714 59.2274 13.8152 58.7239C13.9591 58.2024 13.9051 57.6449 13.7613 57.1414C13.6174 56.6199 13.3656 56.1523 13.0779 55.7567C11.8371 54.1022 10.0387 53.257 8.52812 53.0592C6.98155 52.8434 5.72271 53.221 4.93145 53.5447C4.53581 53.7066 4.2301 53.8864 4.03228 53.9943C3.94836 54.0423 3.87642 54.0842 3.81648 54.1202C3.75653 54.1561 3.72656 54.1741 3.72656 54.1741C3.72656 54.1741 4.10421 53.8504 4.89548 53.4728C5.68675 53.1311 6.96356 52.7355 8.5461 52.9333C10.0927 53.1131 11.945 53.9583 13.2038 55.6488C13.5275 56.0624 13.7793 56.5479 13.9231 57.0874C14.085 57.609 14.1389 58.2024 13.9951 58.7599C13.8512 59.3354 13.4556 59.8569 12.8981 60.1086C12.3406 60.3604 11.6932 60.3784 11.0997 60.1986C10.5063 60.0007 10.0207 59.5871 9.69703 59.0836C9.37333 58.58 9.21148 57.9866 9.17552 57.4291C9.10358 56.2602 9.55317 55.1812 10.1286 54.336C11.3155 52.5916 12.97 51.5306 14.4267 50.9731C15.9013 50.4156 17.1961 50.3257 18.0773 50.3617C18.9405 50.3976 19.408 50.5235 19.408 50.5235Z" fill="#FAFAFA"/>
<path d="M18.8326 41.2081C18.8326 41.226 18.6707 41.298 18.401 41.4239C18.2571 41.4778 18.0773 41.5498 17.8615 41.6037C17.6457 41.6756 17.4119 41.7656 17.1421 41.8015C16.8724 41.8735 16.5847 41.9454 16.261 41.9814C15.9373 42.0353 15.5956 42.0533 15.2179 42.0713C14.4986 42.0893 13.6893 42.0533 12.8441 41.9094C12.0169 41.7656 11.2436 41.5138 10.5602 41.244C10.2365 41.0822 9.91284 40.9563 9.62511 40.7945C9.33738 40.6326 9.08561 40.4708 8.85183 40.3269C8.61804 40.183 8.42023 40.0212 8.25838 39.8773C8.07854 39.7514 7.93468 39.6255 7.82678 39.5176C7.59299 39.3018 7.46711 39.1939 7.48509 39.176C7.50308 39.14 8.00661 39.6255 8.92376 40.201C9.15754 40.3449 9.40931 40.5067 9.69704 40.6506C9.98478 40.8124 10.3085 40.9383 10.6322 41.0822C11.2976 41.334 12.0708 41.5857 12.8801 41.7296C13.7073 41.8735 14.4986 41.9094 15.2179 41.9094C15.5776 41.8735 15.9193 41.8735 16.243 41.8195C16.5487 41.7835 16.8544 41.7296 17.1242 41.6756C18.1852 41.4598 18.8146 41.1721 18.8326 41.2081Z" fill="#FAFAFA"/>
<path d="M20.2531 52.2139C20.2531 52.2139 20.2651 52.2738 20.2891 52.3937C20.3131 52.5256 20.3371 52.6934 20.361 52.8972C20.433 53.3468 20.5409 53.9762 20.6488 54.7675C20.8826 56.404 21.2242 58.6699 21.6019 61.2955V61.3854H21.512C20.2711 61.4753 18.9044 61.5652 17.5017 61.6731C13.8691 61.9069 10.5961 62.1227 8.18633 62.2845C7.01741 62.3565 6.06429 62.4104 5.38093 62.4464C5.05722 62.4584 4.79946 62.4704 4.60764 62.4824C4.42781 62.4824 4.33789 62.4824 4.33789 62.4824C4.33789 62.4704 4.42781 62.4584 4.60764 62.4464C4.79946 62.4224 5.05123 62.3984 5.36294 62.3745C6.04631 62.3205 7.01741 62.2486 8.18633 62.1587C10.5781 61.9788 13.8691 61.745 17.4837 61.4753C18.9044 61.3854 20.2531 61.2955 21.494 61.2055L21.4221 61.3134C21.0624 58.6879 20.7567 56.422 20.5409 54.7855C20.451 53.9942 20.361 53.3648 20.3071 52.8972C20.2831 52.6934 20.2651 52.5256 20.2531 52.3937C20.2412 52.2738 20.2412 52.2139 20.2531 52.2139Z" fill="#263238"/>
<g opacity="0.2">
<path d="M15.3254 33.1695C15.9908 31.6229 17.897 30.8316 19.5695 31.1374C21.2419 31.4431 22.6446 32.648 23.5258 34.1046C24.407 35.5613 24.8386 37.2337 25.1803 38.8882C25.522 40.5606 25.7737 42.2511 26.3672 43.8336C27.1225 45.9017 28.4533 47.8978 28.2734 50.0918C28.1116 52.3038 26.2953 54.192 24.1373 54.7675C21.9972 55.325 19.6414 54.6596 17.879 53.2928C16.1347 51.9261 14.9478 49.93 14.2464 47.8259C13.563 45.7219 13.3293 43.4919 13.2393 41.262C13.1854 40.0571 13.1494 38.7803 12.538 37.7373C12.2323 37.1978 11.7467 36.6223 11.9266 36.0109" fill="black"/>
</g>
<path d="M32.4105 5.90681C35.9712 5.58311 39.0463 8.2986 39.2082 11.8593C39.388 15.8156 39.4599 20.6352 38.9384 23.5844C37.8774 29.483 33.3276 30.1663 33.3276 30.1663C33.3276 30.1663 33.1838 33.8709 33.1118 37.3957C33.0399 40.7585 30.0726 43.474 26.476 43.492C22.9332 43.51 20.0739 40.8484 20.0919 37.5215L20.2178 8.89205V6.96784L32.4105 5.90681Z" fill="#FFBE9D"/>
<path d="M37.8235 15.456C37.8235 15.8696 37.4998 16.1933 37.0682 16.2113C36.6546 16.2293 36.3129 15.9235 36.2949 15.5099C36.2949 15.1143 36.6366 14.7726 37.0502 14.7546C37.4638 14.7366 37.8055 15.0603 37.8235 15.456Z" fill="#263238"/>
<path d="M38.111 14.3592C38.021 14.4492 37.4636 14.0176 36.6363 13.9996C35.8271 13.9816 35.2156 14.3772 35.1257 14.2873C35.0898 14.2334 35.1797 14.0535 35.4494 13.8737C35.7012 13.6939 36.1508 13.514 36.6543 13.532C37.1758 13.532 37.5894 13.7298 37.8412 13.9276C38.075 14.1255 38.1649 14.3053 38.111 14.3592Z" fill="#263238"/>
<path d="M30.0728 15.33C30.0908 15.7257 29.7491 16.0674 29.3355 16.0674C28.9039 16.0853 28.5622 15.7796 28.5622 15.384C28.5442 14.9704 28.8859 14.6467 29.2995 14.6287C29.7311 14.6107 30.0728 14.9164 30.0728 15.33Z" fill="#263238"/>
<path d="M30.0729 14.359C29.983 14.4489 29.4075 14.0173 28.5982 14.0173C27.789 13.9813 27.1776 14.3949 27.0876 14.287C27.0517 14.2511 27.1416 14.0712 27.4113 13.8914C27.6631 13.6936 28.1127 13.5317 28.6162 13.5317C29.1377 13.5497 29.5514 13.7475 29.8031 13.9454C30.0369 14.1432 30.1268 14.323 30.0729 14.359Z" fill="#263238"/>
<path d="M32.9317 20.4734C32.9317 20.4375 33.4532 20.3476 34.2624 20.2576C34.4782 20.2397 34.6761 20.2037 34.712 20.0598C34.766 19.916 34.6761 19.6822 34.5861 19.4484C34.4063 18.9329 34.2085 18.3994 33.9927 17.8479C33.1834 15.564 32.59 13.6937 32.6799 13.6578C32.7698 13.6218 33.5071 15.4381 34.3344 17.722C34.5262 18.2855 34.712 18.825 34.8919 19.3405C34.9638 19.5743 35.1077 19.844 34.9818 20.1497C34.9278 20.3116 34.766 20.4195 34.6401 20.4555C34.5142 20.4914 34.3883 20.4914 34.2804 20.4914C33.4532 20.5274 32.9497 20.5274 32.9317 20.4734Z" fill="#263238"/>
<path d="M33.2194 31.551C27.2849 32.0006 25.4326 27.9004 25.4326 27.9004C29.335 30.3461 33.3273 30.1663 33.3273 30.1663L33.2194 31.551Z" fill="#EB996E"/>
<path d="M32.5908 22.4696C32.6628 22.5415 32.6448 22.6674 32.5908 22.7753C32.5369 22.8652 32.4469 22.9371 32.357 23.0091C32.0333 23.2608 31.6916 23.5126 31.296 23.6205C30.9004 23.7104 30.4508 23.6385 30.235 23.3148C30.0372 23.045 30.0911 22.6314 30.3069 22.3437C30.5227 22.0739 30.9004 21.8941 31.2421 21.8761C31.7636 21.8222 32.2671 22.038 32.5548 22.4336" fill="#EB996E"/>
<path d="M30.5227 20.9946C30.6486 20.9946 30.6486 21.8758 31.3859 22.5232C32.1412 23.1706 33.0943 23.0807 33.0943 23.2066C33.0943 23.2605 32.8785 23.3864 32.4829 23.3864C32.0873 23.3864 31.5118 23.2605 31.0622 22.8649C30.5947 22.4693 30.4148 21.9477 30.3968 21.5881C30.3609 21.2104 30.4688 20.9946 30.5227 20.9946Z" fill="#263238"/>
<path d="M30.3421 11.1582C30.2701 11.374 29.4429 11.2661 28.4898 11.356C27.5187 11.4459 26.7454 11.6977 26.6195 11.4999C26.5656 11.41 26.7094 11.1942 27.0152 10.9964C27.3389 10.7806 27.8424 10.5827 28.4179 10.5288C28.9933 10.4748 29.5148 10.5827 29.8565 10.7266C30.2162 10.8705 30.378 11.0503 30.3421 11.1582Z" fill="#263238"/>
<path d="M37.8597 11.9852C37.7158 12.1651 37.1583 11.9673 36.475 11.9313C35.7916 11.8953 35.2161 12.0392 35.0903 11.8414C35.0363 11.7515 35.1262 11.5716 35.378 11.3918C35.6298 11.2299 36.0434 11.0861 36.5109 11.1041C36.9785 11.14 37.3741 11.3019 37.6079 11.4997C37.8417 11.6975 37.9316 11.8953 37.8597 11.9852Z" fill="#263238"/>
<path d="M27.6446 5.02572C29.2452 7.11179 27.6267 10.115 25.8283 12.0212C24.012 13.9455 21.818 16.1754 22.3396 18.747C22.951 21.7502 27.0692 23.6205 26.4937 26.6237C26.2779 27.7207 25.4147 28.6558 25.4327 29.7708C25.4507 31.7849 28.0583 32.7381 28.8136 34.5903C29.8746 37.144 27.0692 39.7156 27.0512 42.467C27.0512 44.0316 27.9504 45.4882 28.0223 47.0528C28.1482 50.2538 24.3717 52.6276 21.2606 51.8723C18.1494 51.117 15.9914 48.1138 15.2721 44.9847C14.5708 41.8556 15.0383 38.6006 15.5059 35.4176C15.2182 36.7843 13.1681 37.0541 12.143 36.1009C11.1359 35.1478 11.01 33.5833 11.2079 32.2165C11.7474 28.7817 13.9773 25.8684 15.0024 22.5595C15.9195 19.6462 15.9015 16.553 16.2792 13.5498C16.6568 10.5286 17.556 7.39952 19.8399 5.38539C22.1058 3.37125 26.0801 3.1015 27.9683 5.4753" fill="#263238"/>
<path d="M19.5162 50.7394C19.5162 50.7394 19.5401 50.6974 19.5881 50.6135C19.648 50.5296 19.726 50.4157 19.8219 50.2718C20.0017 49.9661 20.2715 49.5165 20.5053 48.8871C20.739 48.2397 20.9548 47.4305 20.9908 46.4773C21.0088 45.5242 20.8829 44.4092 20.3974 43.2943C19.9298 42.1793 19.1026 41.1363 18.2214 40.0033C17.7898 39.4279 17.3402 38.8344 16.9625 38.169C16.5669 37.5036 16.2792 36.7663 16.1173 35.9571C15.9735 35.1658 15.9735 34.2846 16.3151 33.4934C16.495 33.0977 16.7288 32.7201 17.0525 32.4144C17.3582 32.0907 17.6999 31.8389 18.0595 31.5691C18.7609 31.0656 19.5162 30.5441 19.9118 29.7528C20.3074 28.9616 20.2895 28.0084 20.0737 27.1273C19.6421 25.3289 18.3832 23.9262 17.592 22.3617C17.1783 21.5884 16.8726 20.7432 16.8367 19.88C16.7827 19.0168 16.9985 18.1895 17.3042 17.4342C17.9516 15.9236 19.0306 14.7727 20.0916 13.8196C21.1706 12.8665 22.2137 12.0392 23.0769 11.194C23.9581 10.3488 24.6414 9.48559 25.055 8.62239C25.4866 7.75919 25.6845 6.93195 25.7384 6.26657C25.7744 5.5832 25.6845 5.06169 25.5766 4.72001C25.4687 4.37832 25.3967 4.21647 25.3967 4.19849C25.3967 4.19849 25.5046 4.37832 25.6125 4.72001C25.7204 5.04371 25.8463 5.5832 25.8103 6.26657C25.7744 6.94994 25.5766 7.77718 25.145 8.65836C24.7313 9.53954 24.048 10.4387 23.1848 11.2839C22.3036 12.1471 21.2606 12.9744 20.1995 13.9275C19.1565 14.8806 18.0955 16.0315 17.4661 17.5062C17.1604 18.2255 16.9625 19.0348 17.0165 19.862C17.0525 20.6892 17.3582 21.5164 17.7538 22.2717C18.1494 23.045 18.653 23.7824 19.1205 24.5556C19.6061 25.3289 20.0197 26.1741 20.2535 27.0913C20.4873 27.9904 20.5053 28.9975 20.0737 29.8427C19.66 30.688 18.8688 31.2275 18.1674 31.731C17.8078 31.9828 17.4661 32.2345 17.1783 32.5402C16.8726 32.828 16.6388 33.1876 16.477 33.5473C16.1533 34.3206 16.1533 35.1478 16.2792 35.9391C16.441 36.7124 16.7288 37.4497 17.0884 38.0971C17.4661 38.7445 17.9157 39.3379 18.3473 39.9134C19.2105 41.0464 20.0557 42.1074 20.5232 43.2403C21.0088 44.3733 21.1347 45.5062 21.0987 46.4773C21.0448 47.4484 20.829 48.2757 20.5772 48.9051C20.3254 49.5525 20.0557 50.0021 19.8579 50.3078C19.75 50.4517 19.66 50.5596 19.6061 50.6315C19.5581 50.7034 19.5282 50.7394 19.5162 50.7394Z" fill="#455A64"/>
<path d="M64.8699 56.7996H101.214C102.329 56.7996 103.013 58.0224 102.437 58.9756L87.0793 84.1163H30.6836V81.9942L49.9977 81.3288L63.6291 57.5189C63.8808 57.0693 64.3484 56.7996 64.8699 56.7996Z" fill="#263238"/>
<path d="M80.6955 70.2333C79.8503 71.564 78.5196 72.2294 77.7643 71.7439C76.991 71.2403 77.0629 69.7657 77.9081 68.4349C78.7713 67.1042 80.0841 66.4208 80.8574 66.9243C81.6307 67.4099 81.5587 68.9025 80.6955 70.2333Z" fill="#E0E0E0"/>
<path d="M107.276 74.3517C107.222 74.2442 107.142 74.0882 107.034 73.8839C106.824 73.4644 106.566 72.8353 106.34 71.9802C105.872 70.2863 105.695 67.6566 106.308 64.5591C106.598 63.0104 107.082 61.3326 107.663 59.5741C108.228 57.8156 108.889 55.9603 109.438 53.9437C109.97 51.9433 110.39 49.7815 110.309 47.539C110.212 45.2804 109.551 43.0218 108.792 40.7471C108.05 38.4724 107.276 36.2138 107.05 33.9391C106.776 31.6643 107.292 29.3896 108.325 27.5827C109.325 25.7275 110.583 24.1787 111.503 22.5977C112.455 21.0006 113.035 19.3711 113.406 17.8547C114.132 14.7894 113.923 12.2082 113.6 10.482C113.439 9.62692 113.261 8.96548 113.132 8.51376C113.057 8.30941 113.003 8.1427 112.971 8.01364C112.939 7.90609 112.922 7.84694 112.922 7.83618C112.922 7.83618 113.326 8.73962 113.697 10.4658C114.036 12.192 114.278 14.8056 113.584 17.9031C113.213 19.4357 112.616 21.0812 111.68 22.6945C110.745 24.3078 109.502 25.8565 108.518 27.6795C107.502 29.4864 107.018 31.6805 107.276 33.9229C107.518 36.1654 108.276 38.3917 109.018 40.6664C109.777 42.9412 110.454 45.232 110.535 47.5229C110.615 49.8137 110.18 51.9917 109.647 54.0083C109.099 56.0249 108.421 57.8801 107.841 59.6386C107.26 61.3971 106.776 63.0426 106.485 64.5914C105.84 67.6728 105.985 70.2701 106.421 71.9641C106.647 72.803 106.889 73.4483 107.082 73.8678C107.179 74.0721 107.254 74.2334 107.308 74.3517C107.351 74.4593 107.373 74.5131 107.373 74.5131C107.373 74.5131 107.341 74.4593 107.276 74.3517Z" fill="#263238"/>
<path d="M108.551 14.8056C108.583 14.6443 108.793 14.5797 108.922 14.7088C112.31 18.2419 110.422 24.2755 110.422 24.2755C108.147 18.8388 108.373 15.8058 108.551 14.8056Z" fill="#0C73E3"/>
<path d="M109.583 17.8062C109.729 18.4838 109.906 19.4195 110.067 20.452C110.245 21.5006 110.374 22.4525 110.439 23.1462C110.487 23.8237 110.503 24.2593 110.471 24.2593C110.422 24.2593 110.374 23.8399 110.261 23.1623C110.148 22.3879 110.003 21.5006 109.842 20.5004C109.68 19.5001 109.535 18.5967 109.406 17.8385C109.309 17.1448 109.245 16.7253 109.277 16.7253C109.309 16.7092 109.422 17.1286 109.583 17.8062Z" fill="#263238"/>
<path d="M102.13 31.0193C102.065 30.858 102.227 30.7128 102.388 30.7612C107.034 32.3099 108.196 38.521 108.196 38.521C103.646 34.7782 102.436 31.9873 102.13 31.0193Z" fill="#0C73E3"/>
<path d="M104.421 33.1971C104.873 33.7133 105.47 34.4554 106.115 35.3105C106.744 36.1494 107.293 36.9237 107.68 37.5045C108.051 38.0853 108.261 38.4725 108.228 38.4886C108.196 38.5048 107.954 38.166 107.535 37.6013C107.067 36.9883 106.518 36.2462 105.921 35.4395C105.308 34.649 104.76 33.9069 104.292 33.2939C103.889 32.7453 103.631 32.3904 103.663 32.3743C103.679 32.342 103.986 32.6647 104.421 33.1971Z" fill="#263238"/>
<path d="M105.824 45.1836C105.824 45.0223 106.018 44.9255 106.147 45.0223C110.148 47.8455 109.454 54.1373 109.454 54.1373C106.195 49.2329 105.84 46.2 105.824 45.1836Z" fill="#0C73E3"/>
<path d="M107.389 47.9263C107.664 48.5716 108.018 49.4589 108.389 50.443C108.761 51.4271 109.051 52.3466 109.245 53.0081C109.438 53.6695 109.535 54.089 109.503 54.1051C109.47 54.1051 109.325 53.7018 109.083 53.0565C108.825 52.3305 108.519 51.4755 108.164 50.5236C107.825 49.5718 107.502 48.7168 107.244 47.9908C107.002 47.3455 106.873 46.9422 106.905 46.926C106.938 46.9099 107.115 47.2971 107.389 47.9263Z" fill="#263238"/>
<path d="M102.001 61.0261C102.001 60.8486 102.178 60.7518 102.324 60.8325C106.421 63.5105 105.954 69.8346 105.954 69.8346C102.517 65.0431 102.049 62.0263 102.001 61.0261Z" fill="#0C73E3"/>
<path d="M103.678 63.7038C103.969 64.333 104.356 65.2042 104.759 66.1722C105.163 67.1563 105.485 68.0597 105.711 68.705C105.921 69.3665 106.018 69.7859 106.002 69.802C105.969 69.802 105.808 69.4149 105.55 68.7695C105.259 68.0436 104.921 67.2047 104.533 66.269C104.162 65.3333 103.808 64.4944 103.517 63.7684C103.259 63.1231 103.114 62.7359 103.146 62.7197C103.178 62.7036 103.372 63.0747 103.678 63.7038Z" fill="#263238"/>
<path d="M118.521 10.966C118.666 10.8692 118.844 10.9821 118.844 11.1596C118.731 16.0478 113.133 18.984 113.133 18.984C115.375 13.5311 117.682 11.5467 118.521 10.966Z" fill="#0C73E3"/>
<path d="M117.118 13.8052C116.747 14.386 116.214 15.1765 115.601 16.0315C114.972 16.8866 114.391 17.6448 113.956 18.1772C113.504 18.7096 113.198 19.0161 113.181 19C113.149 18.9677 113.407 18.6289 113.811 18.0804C114.278 17.4512 114.811 16.7091 115.408 15.9025C115.989 15.0797 116.521 14.3376 116.989 13.7084C117.392 13.1599 117.65 12.8211 117.682 12.8372C117.715 12.8534 117.489 13.2244 117.118 13.8052Z" fill="#263238"/>
<path d="M112.971 24.2755C113.116 24.1949 113.31 24.3078 113.294 24.4853C112.874 29.3574 107.099 31.9386 107.099 31.9386C109.68 26.6471 112.1 24.8079 112.971 24.2755Z" fill="#0C73E3"/>
<path d="M111.406 27.0341C111.003 27.5826 110.422 28.3409 109.745 29.1636C109.083 29.9703 108.454 30.6963 107.97 31.1964C107.502 31.6965 107.179 31.9869 107.147 31.9707C107.131 31.9385 107.405 31.6158 107.841 31.0834C108.341 30.4865 108.922 29.7928 109.567 29.0023C110.196 28.2279 110.777 27.5181 111.277 26.9212C111.713 26.3888 112.003 26.0661 112.019 26.0984C112.052 26.1145 111.81 26.4695 111.406 27.0341Z" fill="#263238"/>
<path d="M112.164 36.9237C112.261 36.7786 112.471 36.7947 112.535 36.956C114.391 41.4732 110.422 46.4098 110.422 46.4098C110.309 40.5214 111.632 37.7788 112.164 36.9237Z" fill="#0C73E3"/>
<path d="M112.019 40.0697C111.906 40.7634 111.729 41.6991 111.519 42.7316C111.293 43.7641 111.051 44.6837 110.858 45.3613C110.664 46.0227 110.519 46.426 110.487 46.4099C110.454 46.3938 110.551 45.9905 110.696 45.3129C110.874 44.5546 111.067 43.6673 111.277 42.6832C111.487 41.6991 111.681 40.7957 111.858 40.0374C112.003 39.376 112.116 38.9565 112.148 38.9565C112.181 38.9727 112.132 39.3921 112.019 40.0697Z" fill="#263238"/>
<path d="M112.245 55.67C112.39 55.5894 112.568 55.7023 112.552 55.8636C112.229 60.7519 106.502 63.4299 106.502 63.4299C108.986 58.0899 111.374 56.2185 112.245 55.67Z" fill="#0C73E3"/>
<path d="M110.713 58.4446C110.325 59.0093 109.745 59.7836 109.099 60.6064C108.438 61.4292 107.825 62.1713 107.357 62.6714C106.889 63.1876 106.567 63.478 106.55 63.4619C106.518 63.4296 106.792 63.107 107.228 62.5585C107.712 61.9616 108.277 61.2517 108.906 60.4612C109.535 59.6707 110.1 58.9447 110.584 58.3478C111.019 57.7993 111.293 57.4766 111.326 57.4928C111.342 57.5089 111.116 57.88 110.713 58.4446Z" fill="#263238"/>
<path d="M95.1123 38.6984C95.1231 38.806 95.1339 38.9404 95.1446 39.1017C95.1769 39.4782 95.2199 39.989 95.2737 40.6344C95.3705 41.9734 95.4995 43.8609 95.6609 46.1034V46.0872C96.0803 48.3458 97.2419 50.8464 98.8068 53.2986C99.9361 55.1055 101.146 56.751 102.179 58.2998C103.211 59.8324 104.082 61.2682 104.679 62.5427C105.292 63.8172 105.631 64.9142 105.808 65.6886C105.905 66.0597 105.97 66.3662 105.986 66.5759C106.018 66.7803 106.034 66.8824 106.034 66.8824C106.018 66.8824 105.986 66.7856 105.937 66.5759C105.905 66.3823 105.825 66.0919 105.728 65.7047C105.518 64.9465 105.147 63.8817 104.534 62.6234C103.921 61.365 103.034 59.9453 101.985 58.4127C100.952 56.8801 99.7425 55.2346 98.597 53.4115C97.0322 50.9594 95.8706 48.4104 95.4511 46.1356V46.1195C95.3382 43.8609 95.2253 41.9895 95.1607 40.6344C95.1285 39.989 95.107 39.4782 95.0962 39.1017C95.0855 38.9404 95.0801 38.806 95.0801 38.6984C95.0801 38.6016 95.0801 38.5532 95.0801 38.5532C95.0908 38.5532 95.1016 38.6016 95.1123 38.6984Z" fill="#263238"/>
<path d="M98.4999 52.9439C98.4999 52.9439 96.0638 47.1038 99.1291 43.2804C99.2259 43.1352 99.4517 43.1836 99.484 43.3449C99.7582 44.329 100.258 47.3297 98.4999 52.9439Z" fill="#0C73E3"/>
<path d="M98.9191 46.4423C98.8546 47.2167 98.79 48.1201 98.7255 49.1203C98.661 50.1367 98.5964 51.0401 98.548 51.8145C98.4996 52.5082 98.4835 52.9277 98.4513 52.9277C98.419 52.9277 98.3867 52.5082 98.3867 51.8145C98.3867 51.1208 98.419 50.169 98.4835 49.1042C98.5642 48.0556 98.661 47.1037 98.7416 46.4262C98.8384 45.7324 98.903 45.313 98.9352 45.313C98.9675 45.313 98.9514 45.7486 98.9191 46.4423Z" fill="#263238"/>
<g opacity="0.3">
<path d="M98.4999 52.9439C98.4999 52.9439 96.0638 47.1038 99.1291 43.2804C99.2259 43.1352 99.4517 43.1836 99.484 43.3449C99.7582 44.329 100.258 47.3297 98.4999 52.9439Z" fill="black"/>
</g>
<path d="M106.018 67.0279C106.018 67.0279 104.066 61.0103 107.421 57.445C107.534 57.3159 107.76 57.3643 107.792 57.5418C107.97 58.542 108.228 61.575 106.018 67.0279Z" fill="#0C73E3"/>
<path d="M106.954 60.5745C106.841 61.3328 106.712 62.2362 106.551 63.2365C106.405 64.2367 106.276 65.1401 106.163 65.8984C106.067 66.5921 106.002 67.0115 105.97 67.0115C105.937 67.0115 105.937 66.576 105.986 65.8822C106.05 65.1885 106.163 64.2528 106.325 63.2042C106.486 62.1556 106.647 61.2199 106.793 60.5423C106.938 59.8647 107.051 59.4453 107.083 59.4614C107.115 59.4614 107.051 59.8808 106.954 60.5745Z" fill="#263238"/>
<g opacity="0.3">
<path d="M106.018 67.0279C106.018 67.0279 104.066 61.0103 107.421 57.445C107.534 57.3159 107.76 57.3643 107.792 57.5418C107.97 58.542 108.228 61.575 106.018 67.0279Z" fill="black"/>
</g>
<path d="M95.4027 45.8131C95.4027 45.8131 90.224 42.1832 90.7403 37.3111C90.7726 37.1336 90.9661 37.053 91.0952 37.1659C91.8535 37.8596 93.8862 40.1182 95.4027 45.8131Z" fill="#0C73E3"/>
<g opacity="0.3">
<path d="M95.4027 45.8131C95.4027 45.8131 90.224 42.1832 90.7403 37.3111C90.7726 37.1336 90.9661 37.053 91.0952 37.1659C91.8535 37.8596 93.8862 40.1182 95.4027 45.8131Z" fill="black"/>
</g>
<path d="M92.2572 40.0859C92.6283 40.7796 93.0638 41.5701 93.5478 42.4574C94.0318 43.3447 94.4674 44.1514 94.8384 44.8289C95.1772 45.4258 95.387 45.7969 95.3547 45.8292C95.3386 45.8453 95.0643 45.4904 94.6933 44.9096C94.3222 44.3288 93.8382 43.506 93.3381 42.5703C92.838 41.6508 92.4185 40.7957 92.112 40.1665C91.8216 39.5374 91.6603 39.1502 91.6925 39.1341C91.7087 39.1179 91.9345 39.489 92.2572 40.0859Z" fill="#263238"/>
<path d="M103.921 61.0588C103.921 61.0588 97.6778 60.0908 96 55.4768C95.9355 55.3155 96.0807 55.1542 96.2581 55.2026C97.2261 55.493 100.049 56.6223 103.921 61.0588Z" fill="#0C73E3"/>
<g opacity="0.3">
<path d="M103.921 61.0588C103.921 61.0588 97.6778 60.0908 96 55.4768C95.9355 55.3155 96.0807 55.1542 96.2581 55.2026C97.2261 55.493 100.049 56.6223 103.921 61.0588Z" fill="black"/>
</g>
<path d="M98.5808 57.3161C99.2261 57.7678 99.9682 58.2841 100.791 58.881C101.614 59.4618 102.356 59.978 102.985 60.4297C103.55 60.8169 103.905 61.0589 103.889 61.0912C103.872 61.1235 103.485 60.9299 102.888 60.5749C102.307 60.2039 101.501 59.6876 100.646 59.0585C99.7908 58.4454 99.0325 57.8808 98.484 57.4452C97.9516 57.0096 97.629 56.7353 97.6451 56.7031C97.6612 56.6708 98.0162 56.9128 98.5808 57.3161Z" fill="#263238"/>
<path d="M111.326 72.561L109.535 84.3218L102.372 84.3057L99.9521 72.561H111.326Z" fill="#455A64"/>
<path d="M102.066 77.417C102.421 77.4492 102.856 77.4331 103.34 77.2718C103.808 77.0943 104.324 76.7878 104.679 76.2716C104.841 75.9973 104.954 75.6908 104.97 75.352C104.986 75.0132 104.857 74.6583 104.55 74.4808C104.26 74.3195 103.84 74.384 103.534 74.5937C103.211 74.7873 103.018 75.1745 102.921 75.5617C102.824 75.965 102.824 76.4006 102.84 76.8362C102.872 77.2718 102.953 77.7235 103.131 78.143C103.292 78.5624 103.55 78.9496 103.905 79.24C104.26 79.5465 104.695 79.7562 105.163 79.7724C105.631 79.7885 106.099 79.6272 106.486 79.3852C106.889 79.1432 107.228 78.8205 107.502 78.4656C107.793 78.1107 107.986 77.7074 108.019 77.2879C108.035 76.8685 107.89 76.4329 107.583 76.1909C107.277 75.9328 106.841 75.9489 106.502 76.1264C106.163 76.2877 105.921 76.6103 105.857 76.9653C105.728 77.6751 106.147 78.3688 106.664 78.6753C107.212 78.998 107.825 79.0141 108.309 78.9335C108.809 78.8528 109.213 78.6592 109.519 78.4979C109.842 78.3204 110.068 78.1591 110.229 78.0623C110.39 77.9494 110.471 77.901 110.471 77.901C110.471 77.9171 110.406 77.9816 110.245 78.0946C110.1 78.2075 109.874 78.3849 109.551 78.5624C109.245 78.7399 108.842 78.9496 108.325 79.0464C107.825 79.1432 107.18 79.1271 106.599 78.7883C106.018 78.4656 105.55 77.7396 105.696 76.933C105.76 76.5297 106.051 76.1586 106.422 75.965C106.793 75.7714 107.325 75.7553 107.696 76.0457C108.067 76.3361 108.228 76.8362 108.196 77.2879C108.18 77.7719 107.954 78.2236 107.664 78.5947C107.357 78.9657 107.002 79.2884 106.599 79.5465C106.18 79.8208 105.679 79.9982 105.163 79.966C104.631 79.9498 104.163 79.724 103.776 79.4013C103.405 79.0787 103.131 78.6592 102.953 78.2075C102.776 77.7719 102.695 77.304 102.663 76.8523C102.63 76.4006 102.647 75.9489 102.743 75.5294C102.856 75.0939 103.066 74.6905 103.437 74.4485C103.792 74.2065 104.26 74.1259 104.631 74.3517C105.002 74.5615 105.147 74.9971 105.115 75.352C105.099 75.723 104.97 76.0618 104.792 76.3361C104.405 76.8846 103.873 77.2073 103.373 77.3686C102.872 77.5299 102.421 77.546 102.05 77.4976C101.695 77.4492 101.42 77.3363 101.259 77.2557C101.162 77.2073 101.114 77.175 101.066 77.1427C101.022 77.1212 101.001 77.1051 101.001 77.0943C101.017 77.0782 101.356 77.3363 102.066 77.417Z" fill="#263238"/>
</svg>
