<?xml version="1.0" encoding="UTF-8"?>
<svg width="89" height="100" viewBox="0 0 89 100" fill="none" xmlns="http://www.w3.org/2000/svg">
<path d="M41.7201 99.9876H0V67.8149H41.7201V99.9876Z" fill="#CBE0E0"/>
<path d="M31.2627 99.7572C31.2141 99.7572 31.1777 92.5875 31.1777 83.7437C31.1777 74.8877 31.2141 67.718 31.2627 67.718C31.3112 67.718 31.3476 74.8877 31.3476 83.7437C31.3476 92.5875 31.3112 99.7572 31.2627 99.7572Z" fill="#B1C7C7"/>
<path d="M38.1778 96.2753H34.9751V92.6602H38.1778V96.2753Z" fill="#B8ABAB"/>
<path d="M17.4573 67.8879V74.7543H12.7261V67.8879H17.4573Z" fill="#B1C7C7"/>
<path d="M17.4573 93.0244V99.8908H12.7261V93.0244H17.4573Z" fill="#B1C7C7"/>
<path d="M86.9947 15.2497C86.9947 15.2497 89.1298 15.8199 87.3708 20.2964C85.5996 24.785 84.3015 27.0536 84.3015 27.0536C84.3015 27.0536 84.0104 28.0848 84.8596 28.1576C85.7088 28.2304 87.5164 27.7572 87.9895 28.7399C88.4869 29.7589 87.8075 30.8386 86.3275 31.8698C84.8596 32.901 81.7054 35.2666 81.4264 35.485C81.1473 35.6912 80.8926 36.1886 81.4628 36.3342C82.0329 36.4676 86.2183 36.504 86.0848 38.4814C85.9514 40.471 81.3657 42.6547 80.8683 42.9094C80.3709 43.152 80.2739 43.3825 80.3345 43.6616C80.4073 43.9406 81.8146 43.8193 83.0035 43.8799C84.1923 43.9406 85.5632 44.2075 85.3812 45.3478C85.2114 46.4882 82.6274 49.0965 75.858 50.4309L72.6675 50.8555L70.6779 48.3564C66.723 42.691 66.6745 39.0152 67.3417 38.0811C68.009 37.147 69.1857 37.8991 70.0835 38.6755C70.9691 39.4641 71.9032 40.5317 72.1458 40.3739C72.3884 40.2284 72.4734 39.9857 72.2914 39.4641C72.1094 38.9424 70.3261 34.1748 71.612 32.6583C72.8858 31.1419 75.9187 34.0292 76.4282 34.3203C76.9377 34.6115 77.0954 34.0898 77.0469 33.738C76.9862 33.3862 76.3675 29.492 76.0279 27.7208C75.6761 25.9618 75.9429 24.7244 76.9984 24.324C78.0296 23.9358 79.0001 25.5372 79.6673 26.071C80.3224 26.6169 80.8319 25.6706 80.8319 25.6706C80.8319 25.6706 81.4628 23.1351 83.3067 18.6829C85.1507 14.2307 87.0432 15.274 87.0432 15.274" fill="#CFE4E4"/>
<path d="M72.7769 50.1884C74.0871 46.9008 75.931 42.3757 77.9934 37.3776C80.0436 32.3794 81.8997 27.8544 83.2342 24.5668C83.8893 22.929 84.423 21.6067 84.7991 20.6847C84.9811 20.2237 85.1267 19.8719 85.2237 19.6292C85.2722 19.5079 85.3086 19.4149 85.3329 19.3502C85.3653 19.2855 85.3814 19.2532 85.3814 19.2532C85.3814 19.2532 85.3693 19.2855 85.345 19.3502C85.3208 19.423 85.2884 19.516 85.248 19.6292C85.1509 19.884 85.0175 20.2358 84.8355 20.6968C84.4837 21.6188 83.9499 22.9533 83.2948 24.6031C81.9968 27.8908 80.1406 32.4158 78.0904 37.414C76.0402 42.4121 74.1841 46.9372 72.8496 50.2248" fill="#BDBDBD"/>
<path d="M78.272 26.6171C78.2841 26.605 78.3205 26.6899 78.369 26.8233C78.4297 26.9568 78.5146 27.163 78.5995 27.4057C78.7936 27.9031 79.0241 28.6067 79.2789 29.371C79.5215 30.1352 79.7277 30.8267 79.8976 31.3605C79.9785 31.5951 80.0432 31.7932 80.0917 31.955C80.1402 32.1005 80.1645 32.1733 80.1523 32.1855C80.1523 32.1855 80.116 32.1127 80.0553 31.9671C79.9946 31.8336 79.9218 31.6274 79.8248 31.3848C79.6428 30.8874 79.4245 30.1838 79.1697 29.4074C78.9271 28.6552 78.6966 27.9637 78.5267 27.4299C78.4539 27.1954 78.3892 26.9972 78.3326 26.8355C78.2841 26.6899 78.272 26.6171 78.272 26.6171Z" fill="#BDBDBD"/>
<path d="M80.4556 32.2094C80.4435 32.1851 81.8508 31.6271 83.6098 30.972C85.3568 30.3169 86.7883 29.8074 86.8004 29.8316C86.8125 29.868 85.4053 30.4261 83.6462 31.0812C81.8993 31.7363 80.4678 32.2458 80.4556 32.2094Z" fill="#BDBDBD"/>
<path d="M76.9497 39.7431C76.9497 39.7431 77.0346 39.731 77.1802 39.7189C77.3581 39.7027 77.5725 39.6825 77.8232 39.6582C78.3691 39.6218 79.1091 39.5612 79.934 39.4641C80.759 39.3671 81.499 39.2579 82.0328 39.1729C82.2835 39.1325 82.4978 39.1002 82.6758 39.0759C82.8213 39.0516 82.9063 39.0395 82.9063 39.0516C82.9063 39.0638 82.8213 39.0759 82.6758 39.1123C82.5302 39.1487 82.3118 39.1972 82.0449 39.2457C81.5111 39.3549 80.7711 39.4762 79.9462 39.5733C79.1212 39.6703 78.3691 39.7189 77.8353 39.7431C77.5563 39.7553 77.3379 39.7553 77.1923 39.7553C77.0346 39.7553 76.9497 39.7553 76.9497 39.7431Z" fill="#BDBDBD"/>
<path d="M73.8685 35.1089C73.8685 35.1089 73.917 35.1695 74.002 35.2787C74.0869 35.3879 74.2082 35.5577 74.3538 35.764C74.6449 36.1643 75.0453 36.7345 75.482 37.3653C75.9066 37.9962 76.2948 38.5785 76.5738 38.991C76.7073 39.2093 76.8164 39.3792 76.8892 39.5005C76.962 39.6097 76.9984 39.6824 76.9984 39.6824C76.9863 39.6946 76.9378 39.6339 76.8528 39.5247C76.7679 39.4034 76.6587 39.2457 76.501 39.0395C76.2099 38.627 75.8217 38.0568 75.3849 37.426C74.9482 36.7952 74.5721 36.225 74.2931 35.8004C74.1597 35.5941 74.0383 35.4243 73.9656 35.303C73.8928 35.1817 73.8564 35.121 73.8685 35.1089Z" fill="#BDBDBD"/>
<path d="M69.9258 41.3688C69.9379 41.3567 69.9986 41.4416 70.1078 41.5872C70.2291 41.7489 70.3787 41.9511 70.5566 42.1938C70.9327 42.7154 71.4422 43.4433 72.0124 44.244C72.5704 45.0568 73.08 45.7847 73.4318 46.3185C73.6016 46.5692 73.7431 46.7795 73.8564 46.9493C73.9534 47.107 74.0019 47.1919 74.0019 47.1919C73.9898 47.1919 73.9292 47.1191 73.82 46.9736C73.6987 46.8118 73.549 46.6096 73.3711 46.367C72.995 45.8453 72.4855 45.1174 71.9153 44.3168C71.3573 43.504 70.8478 42.7761 70.496 42.2423C70.3261 41.9916 70.1846 41.7813 70.0714 41.6115C69.9743 41.4537 69.9258 41.3688 69.9258 41.3688Z" fill="#BDBDBD"/>
<path d="M73.9414 47.022C73.9414 47.022 74.0506 46.9977 74.2326 46.9735C74.4509 46.9492 74.7219 46.9209 75.0454 46.8885C75.7369 46.8036 76.671 46.6944 77.7143 46.5489C78.7576 46.4033 79.6917 46.2334 80.3711 46.1243C80.6946 46.0677 80.9615 46.0191 81.1718 45.9787C81.3659 45.9423 81.475 45.9302 81.475 45.9423C81.475 45.9423 81.3659 45.9787 81.1839 46.0151C80.9898 46.0636 80.7229 46.1243 80.3832 46.1971C79.716 46.3305 78.7697 46.5125 77.7264 46.658C76.6952 46.8036 75.7369 46.9007 75.0575 46.9613C74.7178 46.9977 74.4388 47.0099 74.2447 47.022C74.0506 47.0341 73.9414 47.0341 73.9414 47.022Z" fill="#BDBDBD"/>
<path d="M20.0532 98.7385C18.0394 98.0348 16.2682 96.7125 14.8852 95.0869C14.4849 94.6138 14.1088 94.1042 13.9268 93.5219C13.7448 92.9275 13.7812 92.2481 14.1452 91.7507C14.7032 91.0107 15.8315 90.9501 16.6928 91.2776C17.1538 91.4596 17.5905 91.7265 18.0758 91.8114C18.561 91.9084 19.1433 91.7629 19.3738 91.3261C19.6043 90.8773 19.3738 90.3071 19.0099 89.9795C18.6338 89.652 18.1486 89.5064 17.6754 89.3366C16.3895 88.8513 15.1764 88.1477 14.1088 87.2621C13.5871 86.8132 13.0534 86.1339 13.3081 85.4909C13.5022 85.0299 14.036 84.8115 14.5213 84.7509C15.0186 84.7024 15.5282 84.7509 16.0013 84.5932C16.4138 84.4597 16.8141 84.0473 16.6807 83.6227C16.6079 83.3922 16.3895 83.2345 16.1833 83.0889C15.0914 82.3003 14.0967 81.3541 13.2596 80.2865C12.7015 79.5586 12.192 78.6609 12.4225 77.7632C12.653 76.8776 13.6114 76.3317 14.5213 76.3802C15.419 76.4408 16.2439 76.9868 16.8262 77.6904C17.4207 78.3819 17.8089 79.2189 18.2214 80.0439C18.6338 80.8567 19.0706 81.6816 19.7257 82.3246C19.9076 82.5066 20.1624 82.6885 20.4171 82.6158C20.6598 82.543 20.7811 82.2518 20.8054 81.9849C20.8296 81.7302 20.769 81.4633 20.8296 81.1964C20.9509 80.5898 21.7031 80.238 22.2975 80.4078C22.9041 80.5777 23.3287 81.1357 23.5228 81.7423C23.7169 82.3367 23.7169 82.9797 23.7048 83.6105C23.6967 84.7913 23.6845 85.9681 23.6684 87.1408C23.6684 87.7716 23.729 88.5359 24.2749 88.8392C24.6753 89.0576 25.1727 88.9241 25.5851 88.7179C26.1917 88.4025 26.7255 87.9051 27.0773 87.3106C27.3321 86.8496 27.5504 86.3037 28.0114 86.0853C28.5816 85.8185 29.2852 86.2067 29.5885 86.7647C29.8918 87.3228 29.819 87.99 29.8312 88.6208C29.9525 92.418 29.2003 96.6518 25.9248 98.9204C23.9231 99.6362 22.067 99.4421 20.0532 98.7385Z" fill="#0C73E3"/>
<path d="M25.6338 100C25.4882 98.4958 25.4154 98.4716 24.8574 96.5669C24.2994 94.6502 23.5108 92.6 22.6252 90.477C22.3988 89.9513 22.1763 89.4296 21.958 88.912C21.7396 88.4025 21.5212 87.893 21.2786 87.4077C20.8055 86.4372 20.2717 85.5395 19.7379 84.7024C19.2041 83.8653 18.6704 83.0889 18.1608 82.3731C17.6513 81.6453 17.1661 80.978 16.6929 80.3957C15.7588 79.219 14.9096 78.3576 14.2909 77.7875C13.9876 77.4963 13.745 77.2779 13.5873 77.1324C13.5064 77.0596 13.4417 77.003 13.3932 76.9625C13.3527 76.9302 13.3325 76.9099 13.3325 76.9019C13.3325 76.9019 13.3568 76.9221 13.4053 76.9625C13.4538 76.9949 13.5185 77.0474 13.5994 77.1202C13.7693 77.2537 14.0119 77.472 14.3273 77.7511C14.946 78.3091 15.8195 79.1704 16.7657 80.3472C17.2388 80.9295 17.7241 81.5846 18.2336 82.3125C18.7431 83.0282 19.2891 83.8047 19.8228 84.6417C20.3688 85.4788 20.9025 86.3887 21.3878 87.3592C21.6304 87.8444 21.8488 88.354 22.0672 88.8635C22.2855 89.3811 22.5079 89.9027 22.7344 90.4284C23.62 92.5514 24.4085 94.6138 24.9545 96.5306C25.5125 98.4473 25.5853 98.4837 25.7066 99.988" fill="#263238"/>
<path d="M21.3757 87.08C21.3919 86.8778 21.4161 86.6271 21.4485 86.3279C21.5213 85.6728 21.6062 84.8114 21.7154 83.8652C21.8124 82.9068 21.9337 82.0333 22.0551 81.4146C22.1157 81.0992 22.1764 80.8444 22.2128 80.6746C22.2613 80.5048 22.2856 80.4077 22.2977 80.4077C22.3098 80.4077 22.2977 80.5048 22.2613 80.6867C22.2249 80.8566 22.1885 81.1113 22.14 81.4268C22.0429 82.0455 21.9337 82.9189 21.8246 83.8773C21.7275 84.8357 21.6305 85.7092 21.5334 86.34C21.4849 86.6554 21.4485 86.9102 21.4121 87.08C21.3878 87.262 21.3636 87.359 21.3514 87.3469C21.3393 87.3469 21.3514 87.2499 21.3757 87.08Z" fill="#263238"/>
<path d="M13.5751 85.8065C13.7813 85.8065 14.0846 85.8186 14.4607 85.855C15.2007 85.9156 16.2319 86.0491 17.3601 86.2675C18.4762 86.4858 19.4831 86.7406 20.1989 86.9589C20.5628 87.056 20.854 87.1531 21.0481 87.2258C21.2422 87.2986 21.3514 87.3472 21.3514 87.3472C21.3514 87.3593 21.2422 87.335 21.036 87.2744C20.8297 87.2137 20.5386 87.1288 20.1867 87.0317C19.4589 86.8376 18.452 86.6071 17.3359 86.3888C16.2076 86.1704 15.1886 86.0248 14.4486 85.9399C14.0725 85.8914 13.7692 85.8671 13.563 85.8429C13.3567 85.8307 13.2476 85.8186 13.2476 85.8065C13.2476 85.7943 13.3567 85.7943 13.5751 85.8065Z" fill="#263238"/>
<path d="M24.8938 96.276C24.9262 96.1952 24.9666 96.0941 25.0151 95.9728C25.1243 95.6937 25.2699 95.3177 25.4518 94.8688C25.8279 93.9347 26.3253 92.6245 26.8591 91.1808C27.405 89.7493 27.9024 88.4391 28.3027 87.5171C28.4968 87.0561 28.6667 86.6801 28.788 86.4253C28.8365 86.304 28.881 86.2069 28.9214 86.1342C28.9538 86.0614 28.974 86.029 28.9821 86.0371C28.9821 86.0371 28.97 86.0735 28.9457 86.1463C28.9134 86.2272 28.8729 86.3242 28.8244 86.4374C28.7152 86.7165 28.5575 87.0925 28.3755 87.5535C27.9995 88.4877 27.5142 89.7857 26.9683 91.2294C26.4345 92.673 25.925 93.9711 25.5368 94.8931C25.3305 95.3662 25.1728 95.7301 25.0515 95.9849C24.9949 96.1062 24.9504 96.2073 24.9181 96.2882C24.8776 96.3529 24.8574 96.3852 24.8574 96.3852C24.8493 96.3771 24.8615 96.3407 24.8938 96.276Z" fill="#263238"/>
<path d="M14.1937 92.891C14.2826 92.9152 14.3918 92.9435 14.5212 92.9759C14.8002 93.0487 15.1884 93.17 15.6858 93.3156C16.6685 93.6189 18.0029 94.0677 19.483 94.5651C20.9751 95.0746 22.3096 95.5356 23.2801 95.851C23.7532 96.0087 24.1414 96.1301 24.4326 96.2271C24.562 96.2756 24.6671 96.312 24.748 96.3363C24.8208 96.3606 24.8572 96.3767 24.8572 96.3848C24.8572 96.3848 24.8208 96.3767 24.748 96.3606C24.6591 96.3363 24.5499 96.308 24.4205 96.2756C24.1414 96.2028 23.7532 96.0815 23.2559 95.936C22.2732 95.6327 20.9266 95.1838 19.4466 94.6743C17.9665 94.1769 16.6321 93.7159 15.6616 93.4005C15.1884 93.2428 14.7881 93.1093 14.5091 93.0244C14.3797 92.9759 14.2745 92.9395 14.1937 92.9152C14.1209 92.891 14.0845 92.8748 14.0845 92.8667C14.0845 92.8667 14.1209 92.8748 14.1937 92.891Z" fill="#263238"/>
<path d="M65.3278 99.9875H31.5538C27.4777 99.9632 24.0323 96.4936 24.0445 92.4053L24.4084 7.36383C24.4205 3.27553 27.7446 -0.012098 31.8329 3.34662e-05L65.7524 0.157743C69.8286 0.182006 73.1283 3.50602 73.1041 7.58219L72.7523 92.6237C72.728 96.712 69.404 99.9996 65.3278 99.9875Z" fill="#263238"/>
<path d="M70.8597 8.58903L70.5079 91.6046C70.4957 94.4555 68.1665 96.7726 65.3035 96.7483L31.4567 96.6027C28.5937 96.5785 26.2887 94.2614 26.3008 91.3983L26.6526 8.39493C26.6648 5.5319 28.994 3.22693 31.8449 3.23906L37.6073 3.26332L39.9245 3.27546C40.7979 3.27546 41.5137 4.02761 41.5137 4.9496L41.5015 6.13848C41.5015 7.06047 42.2173 7.81262 43.0908 7.82475L55.9137 7.88541C56.7993 7.88541 57.5151 7.14539 57.5151 6.2234L57.5272 5.02239C57.5272 4.1004 58.243 3.36038 59.1285 3.36038L65.7038 3.39677C68.5668 3.4089 70.8718 5.73814 70.8597 8.58903Z" fill="#F5F5F5"/>
<path d="M55.5012 80.8076L56.0957 83.792H51.231C51.2674 83.0034 51.3037 82.0693 51.3401 81.0624L55.5012 80.8076Z" fill="#F5F5F5"/>
<path d="M50.855 81.0986C50.8186 82.0449 50.7822 82.9669 50.7458 83.7918H31.6145L31.5781 82.3118L50.855 81.0986Z" fill="#F5F5F5"/>
<path d="M65.1941 80.1887L65.3032 83.7918H56.3381L55.7437 80.7832L65.1941 80.1887Z" fill="#F5F5F5"/>
<path d="M49.0835 38.8205V28.6543L53.5236 28.9818L51.8252 38.8205H49.0835Z" fill="#F5F5F5"/>
<path d="M31.3113 81.8508L26.3374 82.1662L26.3495 78.7451L31.1779 76.8647L31.3113 81.8508Z" fill="#F5F5F5"/>
<path d="M31.1533 76.0887L26.3613 77.9691L26.4099 64.1877L30.8864 63.7146V66.9416L31.1533 76.0887Z" fill="#F5F5F5"/>
<path d="M30.8863 62.9743L26.4219 63.4475L26.4461 55.9138L30.8863 56.5083V62.9743Z" fill="#F5F5F5"/>
<path d="M65.2427 63.7146L64.7696 65.6799L64.8545 68.6642L58.9101 69.1131L58.5098 67.0386L63.7384 66.4684L63.9325 63.848L65.2427 63.7146Z" fill="#F5F5F5"/>
<path d="M54.106 64.8426L57.7575 64.4666L58.6674 69.125L54.4942 69.4404L54.106 64.8426Z" fill="#F5F5F5"/>
<path d="M64.8668 69.1494L65.1822 79.7038L55.6469 80.3104L55.4164 79.1457L54.8462 73.8079L54.5308 69.9258L64.8668 69.1494Z" fill="#F5F5F5"/>
<path fill-rule="evenodd" clip-rule="evenodd" d="M30.935 55.7683L26.4585 55.186L26.507 41.6958L38.3352 39.5486H51.789L52.2742 45.4323L38.2745 46.7789L38.3231 47.2642L52.3106 45.9176L53.2447 57.212L39.0995 55.3559L39.0145 56.0838L53.3054 57.952L53.8513 64.6243L38.8932 66.1286L31.1291 66.6745V56.4962L38.4808 52.2138L38.1168 51.583L30.935 55.7683ZM38.6627 65.2673L37.8863 53.803L31.8813 56.9936C31.9419 57.309 31.8813 65.704 31.8813 65.704L38.6627 65.2673Z" fill="#F5F5F5"/>
<path d="M63.2898 66.0316L58.413 66.5533L58.0005 64.4424L63.4354 63.8965L63.2898 66.0316Z" fill="#F5F5F5"/>
<path d="M55.1977 79.279L55.404 80.3223L51.3521 80.577C51.3682 80.1484 51.3844 79.7117 51.4006 79.2668L55.1977 79.279Z" fill="#F5F5F5"/>
<path d="M38.2623 38.8206L26.519 40.9557L26.5433 35.0962L31.8447 33.8952V27.3806L48.8409 28.6423V35.5815H43.406L42.6903 38.8206H38.2623Z" fill="#F5F5F5"/>
<path d="M48.9382 19.7016L48.7441 7.84912L55.9138 7.88552C55.9947 7.88552 56.0715 7.87743 56.1443 7.86125L60.3661 16.329L53.8757 18.9009L54.0213 19.4953L48.9382 19.7016Z" fill="#F5F5F5"/>
<path d="M61.0455 16.062L56.8237 7.5821C57.2362 7.29094 57.5152 6.78142 57.5152 6.22337L57.5274 5.02236C57.5274 4.10037 58.2431 3.36035 59.1287 3.36035L63.8478 3.38462L63.86 14.9459L61.0455 16.062Z" fill="#F5F5F5"/>
<path fill-rule="evenodd" clip-rule="evenodd" d="M30.292 14.1331L32.4757 3.23901L37.6073 3.26328H38.9175L39.4634 15.4433L30.292 14.1331ZM33.155 4.51282L31.6628 13.4294L38.4807 14.4242L38.3109 4.51282H33.155Z" fill="#F5F5F5"/>
<path d="M39.7182 15.4796L39.1602 3.27539H39.9244C40.7979 3.27539 41.5137 4.02754 41.5137 4.94953L41.5015 6.13841C41.5015 7.0604 42.2173 7.81255 43.0907 7.82469L48.5014 7.84895L48.6955 19.7135L39.7667 20.0775C39.7425 18.2456 39.7303 16.5351 39.7182 15.5888V15.4796Z" fill="#F5F5F5"/>
<path d="M26.6527 13.6114L26.6284 13.7691L26.6527 8.39488C26.6648 5.56825 28.9334 3.28754 31.7358 3.23901L29.5642 14.0239L26.6527 13.6114Z" fill="#F5F5F5"/>
<path d="M31.117 33.3132L26.5435 34.3565L26.5677 26.9927L31.117 27.3324V33.3132Z" fill="#F5F5F5"/>
<path d="M27.1983 25.8156L26.5796 25.7792L26.6281 13.854L29.5154 14.2665L27.1983 25.8156Z" fill="#F5F5F5"/>
<path d="M31.3958 76.2947L31.1289 66.9171L38.7717 66.3833L38.6989 75.955L31.3958 76.2947Z" fill="#F5F5F5"/>
<path d="M39.7183 66.2861L53.8757 64.8667L54.6036 73.8318L55.1616 79.0362H51.413C51.4858 77.3257 51.5464 75.603 51.595 74.3171C51.6677 72 51.6677 72 51.5222 71.9272L51.4009 72.1577L51.1704 72.1698C51.1825 72.3761 51.0612 75.5424 50.9277 78.927L40.1065 73.7469L39.7183 66.2861Z" fill="#F5F5F5"/>
<path d="M65.3032 63.4597L54.0938 64.6L53.5479 57.9399L66.5285 56.5933L66.6498 57.8549L65.3032 63.4597Z" fill="#F5F5F5"/>
<path d="M48.8408 38.8208H43.4302L43.9882 36.3096H48.8408V38.8208Z" fill="#F5F5F5"/>
<path fill-rule="evenodd" clip-rule="evenodd" d="M65.3277 44.1827L52.5168 45.408L52.0073 39.1846L52.5047 36.3215L64.6483 37.1586L65.3277 44.1827ZM53.3054 44.5709L64.7575 43.2122L64.1388 38.0321L53.5965 37.3648L52.9414 39.1846L53.3054 44.5709Z" fill="#F5F5F5"/>
<path d="M53.0385 51.7527L52.5532 45.8932L65.364 44.668L65.8978 50.1635L53.0385 51.7527Z" fill="#F5F5F5"/>
<path d="M31.372 83.7919H26.3374V82.324L26.3617 82.6515L31.3356 82.3361L31.372 83.7919Z" fill="#F5F5F5"/>
<path d="M64.1025 14.8609L64.0903 3.38452L65.7038 3.39665C68.5668 3.40878 70.8718 5.73802 70.8597 8.58891L70.8354 12.3982L70.7626 12.2162L64.1025 14.8609Z" fill="#F5F5F5"/>
<path fill-rule="evenodd" clip-rule="evenodd" d="M50.8671 80.6135L31.5538 81.8267L31.4082 76.7679H31.4203L31.4082 76.7557V76.5374L38.9418 76.1856L39.0146 66.3591L39.4756 66.3105L39.876 73.9048L50.9277 79.1942C50.9034 79.6713 50.8832 80.1445 50.8671 80.6135ZM31.8813 80.5529L49.2778 79.6066L42.4236 76.4282L31.8813 77.1682V80.5529Z" fill="#F5F5F5"/>
<path d="M65.1579 24.3236L61.2637 16.4988L63.8477 15.4797C63.8355 16.7293 64.1146 20.8661 68.0816 22.2733L67.6206 24.9544L65.1579 24.3236Z" fill="#F5F5F5"/>
<path d="M53.0991 52.4805L57.8183 51.8982L58.8737 56.6537L53.4873 57.2239L53.0991 52.4805Z" fill="#F5F5F5"/>
<path d="M65.4732 29.3215L64.2964 33.5554L64.5755 36.4184L52.626 35.5935L53.7663 29.0061L54.5913 29.0668H64.6604L65.4732 29.3215Z" fill="#F5F5F5"/>
<path fill-rule="evenodd" clip-rule="evenodd" d="M56.5567 27.8538L54.458 19.1919L60.5844 16.7656L64.5392 24.7117L64.4179 27.8538H56.5567ZM55.6833 20.029L57.2361 26.5436L63.4353 26.7741L63.9691 24.6268L60.3418 17.7361L55.6833 20.029Z" fill="#F5F5F5"/>
<path d="M66.5167 63.5807L70.6293 63.1682L70.5443 83.7917H66.5167L66.4075 80.1158L70.5443 79.849L70.5201 79.3637L66.3954 79.6306L66.177 72.2304L70.5443 71.9878L70.5322 71.7451L66.1649 71.9878L65.9829 65.8129L66.5167 63.5807Z" fill="#F5F5F5"/>
<path d="M39.5118 26.7376L27.9263 25.8763L30.2434 14.3635L39.4754 15.698C39.5239 19.5315 39.5603 24.9664 39.5118 26.7376Z" fill="#F5F5F5"/>
<path d="M49.0715 27.4413L48.9502 19.944L54.0818 19.7378L56.0592 27.8537H54.6641L49.0715 27.4413Z" fill="#F5F5F5"/>
<path d="M26.3129 91.5558C26.3008 91.5073 26.3008 91.4466 26.3008 91.3981L26.3129 89.6997V91.5558Z" fill="#F5F5F5"/>
<path d="M39.7665 20.3202L48.7074 19.9563L48.8287 27.4171L39.7544 26.7499C39.7908 25.5368 39.7787 22.8436 39.7665 20.3202Z" fill="#F5F5F5"/>
<path d="M66.4559 55.8653L59.1164 56.6295L58.0488 51.874L65.9707 50.8914L66.4559 55.8653Z" fill="#F5F5F5"/>
<path d="M64.1025 15.3828L70.8355 12.7139L70.8112 19.1921L68.6275 19.0222L68.118 22.0308C66.82 21.5456 63.9569 19.9442 64.1025 15.3828Z" fill="#F5F5F5"/>
<path d="M66.6259 29.6858L70.7628 30.996L70.7385 36.8433L65.801 36.5037L65.522 33.6649L66.6259 29.6858Z" fill="#F5F5F5"/>
<path d="M67.7418 56.5688C68.3241 56.678 69.4038 56.9449 70.6533 57.2725L70.6291 62.9257L66.5771 63.3382L67.8752 57.9397L67.7418 56.5688Z" fill="#F5F5F5"/>
<path d="M65.2547 25.0999L70.7866 26.5192L70.7624 29.7219L65.1455 27.9507L65.2547 25.0999Z" fill="#F5F5F5"/>
<path d="M66.5771 44.5468L70.7018 44.1465L70.6533 56.5206C68.9792 56.0717 68.1178 55.8897 67.669 55.8291L66.5771 44.5468Z" fill="#F5F5F5"/>
<path d="M65.8735 37.2437L70.7382 37.5833L70.714 43.6612L66.5286 44.0615L65.8735 37.2437Z" fill="#F5F5F5"/>
<path d="M69.0275 19.5437L70.8109 19.6771L70.7987 22.7464C70.1113 22.6089 69.3753 22.4229 68.5908 22.1884L69.0275 19.5437Z" fill="#F5F5F5"/>
<path d="M68.5426 22.4309C69.3514 22.6735 70.1035 22.8636 70.7991 23.0011L70.7869 25.7671L68.0938 25.0756L68.5426 22.4309Z" fill="#F5F5F5"/>
<path fill-rule="evenodd" clip-rule="evenodd" d="M26.3617 82.6515L26.3374 82.324V82.1662L31.3113 81.8508L31.1779 76.8648L26.3495 78.7452L26.3617 77.9688L31.1536 76.0884L30.8867 66.9413V63.7143L26.4102 64.1874L26.4223 63.4474L30.8867 62.9743V56.5082L26.4466 55.9138L26.4587 55.1859L30.9352 55.7682L38.117 51.5829L38.481 52.2137L31.1293 56.4961V66.6744L38.8935 66.1285L53.8515 64.6242L53.3056 57.9519L39.0148 56.0836L39.0997 55.3557L53.245 57.2118L52.3108 45.9175L38.3233 47.2641L38.2748 46.7788L52.2745 45.4322L51.7892 39.5485H38.3354L26.5072 41.6957L26.5194 40.9557L38.2626 38.8206H42.6906L43.4064 35.5815H48.8412V28.6423L31.8451 27.3806V33.8952L26.5436 35.0962V34.3562L31.1172 33.3129V27.3321L26.5679 26.9924L26.58 25.7793L27.1987 25.8156L29.5158 14.2665L26.6286 13.854V13.7691L26.6528 13.6114L29.5644 14.0239L31.7359 3.23901C31.7723 3.23901 31.8087 3.23901 31.8451 3.23901H32.4759L30.2923 14.1331L39.4636 15.4433L38.9177 3.26328L39.1603 3.27541L39.7184 15.4797V15.5888C39.7305 16.5351 39.7427 18.2456 39.7669 20.0775L48.6957 19.7135L48.5016 7.84897H48.7442L48.9383 19.7014L54.0214 19.4952L53.8758 18.9007L60.3661 16.3289L56.1444 7.8611C56.3991 7.8247 56.6296 7.72765 56.8237 7.58207L61.0455 16.062L63.86 14.9459L63.8479 3.38459H64.0905L64.1026 14.8609L70.7628 12.2163L70.8356 12.3983V12.7137L64.1026 15.3826C63.957 19.944 66.8201 21.5454 68.1181 22.0306L68.6276 19.022L70.8113 19.1919V19.6771L69.028 19.5437L68.5913 22.1883C69.3758 22.4229 70.1117 22.6089 70.7992 22.7464V23.0012C70.1036 22.8637 69.3515 22.6736 68.5427 22.431L68.0939 25.0756L70.787 25.7671V26.5193L65.2551 25.0999L65.1459 27.9508L70.7628 29.722V30.9958L66.626 29.6856L65.522 33.6647L65.801 36.5035L70.7385 36.8431V37.5832L65.8738 37.2435L66.5289 44.0614L70.7143 43.661L70.7021 44.1463L66.5774 44.5466L67.6693 55.8289C68.1181 55.8895 68.9795 56.0715 70.6536 56.5204V57.2725C69.4041 56.945 68.3244 56.6781 67.7421 56.5689L67.8755 57.9397L66.5774 63.3382L70.6293 62.9258V63.1684L66.5168 63.5809L65.983 65.813L66.165 71.988L70.5323 71.7453L70.5444 71.988L66.1771 72.2306L66.3955 79.6308L70.5202 79.3639L70.5444 79.8491L66.4076 80.116L66.5168 83.7919H65.3036L65.1945 80.1888L55.744 80.7833L56.3385 83.7919H56.0959L55.5014 80.8075L51.3403 81.0623C51.3039 82.0692 51.2675 83.0033 51.2311 83.7919H50.7459C50.7823 82.9669 50.8187 82.0449 50.8551 81.0987L31.5782 82.3118L31.6146 83.7919H31.372L31.3356 82.3361L26.3617 82.6515ZM55.4044 80.3223L55.1981 79.279L51.401 79.2668C51.3848 79.7116 51.3686 80.1484 51.3525 80.577L55.4044 80.3223ZM65.1823 79.7036L64.8669 69.1492L54.5309 69.9256L54.8463 73.8198L55.4165 79.1455L55.647 80.3101L65.1823 79.7036ZM58.413 66.5531L63.2898 66.0314L63.4354 63.8963L58.0005 64.4422L58.413 66.5531ZM54.1063 64.8304L54.4945 69.4403L58.6677 69.1249L57.7579 64.4665L54.1063 64.8304ZM64.7577 65.6796L65.2308 63.7022L63.9206 63.8356L63.7387 66.4681L58.4979 67.0262L58.8982 69.1007L64.8426 68.6518L64.7577 65.6796ZM53.0994 52.4806L53.4876 57.2118L58.874 56.6538L57.8064 51.8983L53.0994 52.4806ZM66.4561 55.8653L65.983 50.8914L58.0611 51.874L59.1287 56.6295L66.4561 55.8653ZM64.2967 33.5555L65.4735 29.3216L64.6607 29.0669H54.5916L53.7545 29.0062L52.6263 35.5936L64.5636 36.4185L64.2967 33.5555ZM61.276 16.4987L65.1702 24.3235L67.6329 24.9543L68.0817 22.2733C64.1269 20.866 63.8479 16.7292 63.86 15.4797L61.276 16.4987ZM54.4581 19.1919L56.569 27.8537H64.4302L64.5515 24.6996L60.5966 16.7656L54.4581 19.1919ZM48.9504 19.944L49.0717 27.4413L54.6765 27.8537H56.0716L54.0942 19.7257L48.9504 19.944ZM39.7669 20.3201C39.7912 22.8434 39.7912 25.5488 39.7548 26.7498L48.8291 27.4291L48.7078 19.9562L39.7669 20.3201ZM27.9266 25.8763L39.5122 26.7376C39.5607 24.9664 39.5243 19.5316 39.4758 15.698L30.2437 14.3757L27.9266 25.8763ZM49.0717 28.6544V38.8084H51.8134L53.5119 28.982L49.0717 28.6544ZM43.4306 38.8084H48.8291V36.3094H43.9765L43.4306 38.8084ZM52.5171 45.4079L65.3158 44.1705L64.6364 37.1464L52.4928 36.3094L52.0076 39.1724L52.5171 45.4079ZM52.5535 45.8932L53.0387 51.7527L65.8981 50.1756L65.3643 44.6679L52.5535 45.8932ZM54.0942 64.5878L65.2915 63.4595L66.6502 57.8548L66.5289 56.5931L53.5483 57.9397L54.0942 64.5878ZM53.8637 64.8547L39.7184 66.2862L40.1066 73.7349L50.9279 78.9271C51.0613 75.5303 51.1826 72.364 51.1705 72.1578L51.401 72.1457L51.5102 71.9273C51.6679 72.0001 51.6679 72.0001 51.583 74.3051C51.5466 75.6031 51.4738 77.3137 51.4131 79.0363H55.1617L54.6037 73.8319L53.8637 64.8547ZM31.1293 66.917L31.3962 76.2946L38.6994 75.9428L38.7721 66.3711L31.1293 66.917ZM31.5539 81.8266L50.8672 80.6013C50.8834 80.1322 50.9036 79.6631 50.9279 79.194L39.864 73.8926L39.4758 66.3104L39.0148 66.359L38.942 76.1854L31.4083 76.5372V76.7556L31.5539 81.8266Z" fill="white"/>
<path d="M49.2779 79.6067L31.8813 80.5529V77.1682L42.4236 76.4282L49.2779 79.6067Z" fill="#EBEBEB"/>
<path d="M64.7574 43.2121L53.3053 44.5708L52.9414 39.1845L53.5965 37.3647L64.1509 38.032L64.7574 43.2121Z" fill="#EBEBEB"/>
<path d="M26.313 91.5561V89.7L26.3373 83.792H31.3718H31.6144H50.7457H51.231H56.0957H56.3383H65.3035H66.5166H70.5443L70.5079 91.6046C70.4957 94.4555 68.1665 96.7726 65.3035 96.7484L31.4567 96.6028C28.6422 96.5785 26.3736 94.3464 26.313 91.5561Z" fill="#EBEBEB"/>
<path d="M31.6509 13.4295L33.143 4.50073H38.2989L38.4688 14.4243L31.6509 13.4295Z" fill="#EBEBEB"/>
<path d="M57.2481 26.5435L55.6953 20.0289L60.3417 17.7361L63.969 24.6268L63.4473 26.774L57.2481 26.5435Z" fill="#EBEBEB"/>
<path d="M37.8864 53.8149L38.6628 65.2792L31.8813 65.7038C31.8813 65.7038 31.9299 57.3209 31.8813 57.0055L37.8864 53.8149Z" fill="#EBEBEB"/>
<path d="M54.4943 63.8114L54.1304 58.6191L65.7644 57.127V58.0247L64.3572 62.8045L54.4943 63.8114Z" fill="#EBEBEB"/>
<path d="M45.893 20.6962C45.893 21.4726 45.2621 22.1156 44.4736 22.1156C43.6972 22.1156 43.0542 21.4726 43.0542 20.6962C43.0542 19.9077 43.6972 19.2769 44.4736 19.2769C45.2621 19.2769 45.893 19.9077 45.893 20.6962Z" fill="#0C73E3"/>
<g opacity="0.6">
<path d="M45.8932 20.6357C45.9174 21.4121 45.3109 22.0793 44.5345 22.1036C43.758 22.14 43.0908 21.5334 43.0544 20.757C43.0302 19.9684 43.6367 19.3133 44.4131 19.2769C45.1896 19.2406 45.8568 19.8471 45.8932 20.6357Z" fill="white"/>
</g>
<path d="M45.4199 20.6474C45.4199 21.1691 44.9953 21.5815 44.4736 21.5815C43.9519 21.5815 43.5273 21.1691 43.5273 20.6474C43.5273 20.1258 43.9519 19.7012 44.4736 19.7012C44.9953 19.7012 45.4199 20.1258 45.4199 20.6474Z" fill="#0C73E3"/>
<path d="M66.3709 77.2653C66.3709 77.5928 66.0918 77.8718 65.7643 77.8718C65.4246 77.8718 65.1577 77.5928 65.1577 77.2653C65.1577 76.9256 65.4246 76.6587 65.7643 76.6587C66.0918 76.6587 66.3709 76.9256 66.3709 77.2653Z" fill="#0C73E3"/>
<path d="M65.4005 77.0711L65.255 73.6743L55.0281 74.1716C54.7612 74.1838 54.4944 74.1231 54.2517 74.0018L39.7546 66.6866C39.4271 66.5167 39.2087 66.177 39.1845 65.8009L37.207 27.5262C37.207 27.3442 37.2677 27.1623 37.4011 27.041C37.5346 26.9075 37.7166 26.8469 37.8985 26.859L44.1098 27.32V20.5264H44.8377V27.417C44.8377 27.5869 44.7649 27.7567 44.6315 27.878C44.498 27.9993 44.3282 28.06 44.1462 28.0479L37.947 27.5869L39.9123 65.7646C39.9123 65.8737 39.9851 65.9829 40.0822 66.0314L54.5793 73.3588C54.7127 73.4195 54.8462 73.4559 54.9917 73.4438L65.3035 72.9464C65.4733 72.9342 65.6432 72.9949 65.7645 73.1041C65.8979 73.2254 65.9707 73.3831 65.9707 73.553L66.1284 77.0347L65.4005 77.0711Z" fill="#0C73E3"/>
<path d="M40.2277 44.1463C40.2277 45.1653 39.4149 45.9782 38.3958 45.9782C37.3889 45.9782 36.564 45.1653 36.564 44.1463C36.564 43.1394 37.3889 42.3145 38.3958 42.3145C39.4149 42.3145 40.2277 43.1394 40.2277 44.1463Z" fill="#0C73E3"/>
<path d="M39.6697 44.1464C39.6697 44.85 39.0995 45.4202 38.3959 45.4202C37.6922 45.4202 37.1221 44.85 37.1221 44.1464C37.1221 43.4427 37.6922 42.8726 38.3959 42.8726C39.0995 42.8726 39.6697 43.4427 39.6697 44.1464Z" fill="#FAFAFA"/>
<path fill-rule="evenodd" clip-rule="evenodd" d="M38.3958 45.5171C37.6437 45.5171 37.0371 44.8984 37.0371 44.1462C37.0371 43.3941 37.6437 42.7754 38.3958 42.7754C39.148 42.7754 39.7667 43.3941 39.7667 44.1462C39.7667 44.8984 39.148 45.5171 38.3958 45.5171ZM38.3958 42.9574C37.7407 42.9574 37.2191 43.4911 37.2191 44.1462C37.2191 44.8013 37.7407 45.3351 38.3958 45.3351C39.0509 45.3351 39.5847 44.8013 39.5847 44.1462C39.5847 43.4911 39.0509 42.9574 38.3958 42.9574Z" fill="#0C73E3"/>
<path d="M49.9692 37.2191V40.3854C49.9692 40.81 49.6295 41.1497 49.2049 41.1497H41.4408L40.5673 41.9019V41.1497H40.4703C40.0457 41.1497 39.6938 40.81 39.6938 40.3854V37.2191C39.6938 36.7945 40.0457 36.4548 40.4703 36.4548H49.2049C49.6295 36.4548 49.9692 36.7945 49.9692 37.2191Z" fill="#0C73E3"/>
<g opacity="0.4">
<path d="M49.9692 37.2191V40.3854C49.9692 40.81 49.6295 41.1497 49.2049 41.1497H41.4408L40.5673 41.9019V41.1497H40.4703C40.0457 41.1497 39.6938 40.81 39.6938 40.3854V37.2191C39.6938 36.7945 40.0457 36.4548 40.4703 36.4548H49.2049C49.6295 36.4548 49.9692 36.7945 49.9692 37.2191Z" fill="white"/>
</g>
<path fill-rule="evenodd" clip-rule="evenodd" d="M41.6592 38.7478C41.6592 38.4687 41.8897 38.2504 42.193 38.2504C42.4962 38.2504 42.7146 38.4566 42.7146 38.7478C42.7146 39.0389 42.4962 39.2573 42.193 39.2573C41.8897 39.2573 41.6592 39.0389 41.6592 38.7478ZM42.569 38.7478C42.569 38.5294 42.4113 38.3717 42.193 38.3717C41.9625 38.3717 41.8048 38.5294 41.8048 38.7478C41.8048 38.9661 41.9625 39.136 42.193 39.136C42.4113 39.136 42.569 38.9661 42.569 38.7478Z" fill="white"/>
<path fill-rule="evenodd" clip-rule="evenodd" d="M43.6851 38.869C43.6851 39.0995 43.5274 39.2572 43.309 39.2572C43.1998 39.2572 43.1028 39.2087 43.0421 39.1238V39.2451H42.9087V38.2018H43.0421V38.6143C43.1028 38.5293 43.1998 38.4929 43.309 38.4929C43.5274 38.4929 43.6851 38.6385 43.6851 38.869ZM43.5517 38.869C43.5517 38.7113 43.4425 38.6143 43.2969 38.6143C43.1513 38.6143 43.0421 38.7113 43.0421 38.869C43.0421 39.0267 43.1513 39.1359 43.2969 39.1359C43.4425 39.1359 43.5517 39.0267 43.5517 38.869Z" fill="white"/>
<path d="M43.6123 39.4876L43.6608 39.3784C43.6851 39.4026 43.7215 39.4148 43.77 39.4148C43.8428 39.4148 43.8792 39.3663 43.8792 39.2813V38.5049H44.0126V39.2813C44.0126 39.4269 43.9277 39.524 43.77 39.524C43.7094 39.524 43.6487 39.5118 43.6123 39.4876ZM43.8549 38.2623C43.8549 38.2138 43.8913 38.1774 43.9399 38.1774C44.0005 38.1774 44.0369 38.2138 44.0369 38.2623C44.0369 38.3108 44.0005 38.3593 43.9399 38.3593C43.8913 38.3593 43.8549 38.3229 43.8549 38.2623Z" fill="white"/>
<path fill-rule="evenodd" clip-rule="evenodd" d="M44.9466 38.9174H44.34C44.3521 39.0508 44.4613 39.1358 44.6069 39.1358C44.6958 39.1358 44.7686 39.1075 44.8252 39.0508L44.898 39.1358C44.8374 39.2086 44.7282 39.2571 44.6069 39.2571C44.3643 39.2571 44.2065 39.0994 44.2065 38.8689C44.2065 38.6505 44.3643 38.4928 44.5826 38.4928C44.7889 38.4928 44.9466 38.6505 44.9466 38.881C44.9466 38.8931 44.9466 38.9053 44.9466 38.9174ZM44.34 38.8203H44.8131C44.801 38.699 44.7039 38.602 44.5826 38.602C44.4492 38.602 44.3521 38.699 44.34 38.8203Z" fill="white"/>
<path d="M45.0679 38.8689C45.0679 38.6505 45.2256 38.4928 45.4561 38.4928C45.5895 38.4928 45.7108 38.5413 45.7594 38.6505L45.6623 38.7233C45.6138 38.6384 45.541 38.6141 45.4561 38.6141C45.3105 38.6141 45.2013 38.7112 45.2013 38.8689C45.2013 39.0387 45.3105 39.1358 45.4561 39.1358C45.541 39.1358 45.6138 39.0994 45.6623 39.0266L45.7594 39.0994C45.7108 39.1964 45.5895 39.2571 45.4561 39.2571C45.2256 39.2571 45.0679 39.0994 45.0679 38.8689Z" fill="white"/>
<path d="M46.3664 39.2088C46.33 39.2331 46.2693 39.2573 46.2087 39.2573C46.051 39.2573 45.966 39.1724 45.966 39.0268V38.6143H45.8447V38.5052H45.966V38.3353H46.1116V38.5052H46.3179V38.6143H46.1116V39.0147C46.1116 39.0996 46.148 39.136 46.2208 39.136C46.2572 39.136 46.3057 39.1239 46.33 39.1117L46.3664 39.2088Z" fill="white"/>
<path d="M46.5117 38.2623C46.5117 38.2138 46.5481 38.1774 46.5966 38.1774C46.6573 38.1774 46.6937 38.2138 46.6937 38.2623C46.6937 38.3108 46.6573 38.3593 46.5966 38.3593C46.5481 38.3593 46.5117 38.3229 46.5117 38.2623ZM46.536 38.5049H46.6694V39.2449H46.536V38.5049Z" fill="white"/>
<path d="M47.5917 38.505L47.2641 39.245H47.1186L46.791 38.505H46.9366L47.1914 39.0994L47.4582 38.505H47.5917Z" fill="white"/>
<path fill-rule="evenodd" clip-rule="evenodd" d="M48.3679 38.9174H47.7614C47.7735 39.0508 47.8827 39.1358 48.0283 39.1358C48.1172 39.1358 48.19 39.1075 48.2466 39.0508L48.3194 39.1358C48.2588 39.2086 48.1496 39.2571 48.0283 39.2571C47.7856 39.2571 47.6279 39.0994 47.6279 38.8689C47.6279 38.6505 47.7856 38.4928 48.004 38.4928C48.2224 38.4928 48.3679 38.6505 48.3679 38.881C48.3679 38.8931 48.3679 38.9053 48.3679 38.9174ZM47.7614 38.8203H48.2466C48.2224 38.699 48.1375 38.602 48.004 38.602C47.8706 38.602 47.7735 38.699 47.7614 38.8203Z" fill="white"/>
<path fill-rule="evenodd" clip-rule="evenodd" d="M46.0631 16.8506V16.8627C45.9903 16.9719 45.7962 17.2024 45.7962 17.2024L44.765 18.5854C44.6316 18.7552 44.3768 18.7552 44.2434 18.5854L43.1879 17.1903C43.103 17.0568 43.006 16.9719 42.9453 16.8627L42.9332 16.8506C42.7269 16.4988 42.6299 16.0742 42.7148 15.6132C42.8361 14.8853 43.4184 14.2909 44.1463 14.1574C45.3109 13.9391 46.3178 14.8125 46.3178 15.9407C46.3178 16.2683 46.2208 16.5837 46.0631 16.8506ZM45.2988 15.9286C45.2988 15.4798 44.947 15.1279 44.4981 15.1279C44.0614 15.1279 43.6974 15.4798 43.6974 15.9286C43.6974 16.3653 44.0614 16.7293 44.4981 16.7293C44.947 16.7293 45.2988 16.3653 45.2988 15.9286Z" fill="#0C73E3"/>
<path d="M34.5623 87.4797H34.2227V87.3584H35.0355V87.4797H34.6958V88.3411H34.5623V87.4797Z" fill="#263238"/>
<path fill-rule="evenodd" clip-rule="evenodd" d="M35.0234 87.9652C35.0234 87.7468 35.1933 87.5891 35.4116 87.5891C35.6421 87.5891 35.7998 87.7468 35.7998 87.9652C35.7998 88.1957 35.6421 88.3534 35.4116 88.3534C35.1933 88.3534 35.0234 88.1957 35.0234 87.9652ZM35.6664 87.9652C35.6664 87.8075 35.5572 87.7104 35.4116 87.7104C35.2661 87.7104 35.169 87.8075 35.169 87.9652C35.169 88.135 35.2661 88.2321 35.4116 88.2321C35.5572 88.2321 35.6664 88.135 35.6664 87.9652Z" fill="#263238"/>
<path d="M36.4064 88.3049C36.37 88.3412 36.3094 88.3534 36.2487 88.3534C36.091 88.3534 36.0061 88.2685 36.0061 88.1229V87.7104H35.8848V87.6012H36.0061V87.4314H36.1517V87.6012H36.3579V87.7104H36.1517V88.1108C36.1517 88.1957 36.1881 88.2442 36.2608 88.2442C36.2972 88.2442 36.3458 88.2199 36.37 88.2078L36.4064 88.3049Z" fill="#263238"/>
<path fill-rule="evenodd" clip-rule="evenodd" d="M37.1707 87.8924V88.3413H37.0373V88.2442C36.9888 88.317 36.916 88.3534 36.7946 88.3534C36.6248 88.3534 36.5156 88.2685 36.5156 88.135C36.5156 88.0137 36.6005 87.9167 36.8189 87.9167H37.0373V87.8924C37.0373 87.7711 36.9645 87.7104 36.831 87.7104C36.7461 87.7104 36.6491 87.7347 36.6005 87.7832L36.5399 87.6862C36.6127 87.6255 36.7219 87.5891 36.8432 87.5891C37.0494 87.5891 37.1707 87.6862 37.1707 87.8924ZM37.0373 88.1108V88.0137H36.8189C36.6855 88.0137 36.6491 88.0622 36.6491 88.1229C36.6491 88.2078 36.7097 88.2442 36.8189 88.2442C36.916 88.2442 37.0009 88.2078 37.0373 88.1108Z" fill="#263238"/>
<path d="M37.4131 87.2979H37.5587V88.3412H37.4131V87.2979Z" fill="#263238"/>
<path fill-rule="evenodd" clip-rule="evenodd" d="M38.8931 87.2979V88.3412H38.7718V88.2198C38.7111 88.3048 38.6141 88.3533 38.5049 88.3533C38.2865 88.3533 38.1167 88.1956 38.1167 87.9651C38.1167 87.7467 38.2865 87.589 38.5049 87.589C38.602 87.589 38.699 87.6254 38.7597 87.7103V87.2979H38.8931ZM38.7597 87.9651C38.7597 87.8074 38.6505 87.7103 38.5049 87.7103C38.3715 87.7103 38.2623 87.8074 38.2623 87.9651C38.2623 88.1349 38.3715 88.232 38.5049 88.232C38.6505 88.232 38.7597 88.1349 38.7597 87.9651Z" fill="#263238"/>
<path d="M39.1235 87.3707C39.1235 87.3101 39.1721 87.2737 39.2206 87.2737C39.2691 87.2737 39.3176 87.3101 39.3176 87.3586C39.3176 87.4193 39.2691 87.4557 39.2206 87.4557C39.1721 87.4557 39.1235 87.4193 39.1235 87.3707ZM39.1478 87.6012H39.2934V88.3413H39.1478V87.6012Z" fill="#263238"/>
<path d="M39.4512 88.2685L39.5118 88.1593C39.5725 88.2078 39.6695 88.2321 39.7666 88.2321C39.9 88.2321 39.9486 88.1957 39.9486 88.135C39.9486 87.9652 39.4754 88.1108 39.4754 87.8196C39.4754 87.674 39.5967 87.5891 39.7909 87.5891C39.8879 87.5891 39.9971 87.6134 40.0577 87.6619L39.9971 87.7589C39.9364 87.7226 39.8636 87.7104 39.7909 87.7104C39.6695 87.7104 39.6089 87.7468 39.6089 87.8075C39.6089 87.9894 40.082 87.8439 40.082 88.135C40.082 88.2685 39.9607 88.3534 39.7666 88.3534C39.6331 88.3534 39.5118 88.317 39.4512 88.2685Z" fill="#263238"/>
<path d="M40.6764 88.3049C40.6278 88.3412 40.5672 88.3534 40.5065 88.3534C40.3609 88.3534 40.276 88.2685 40.276 88.1229V87.7104H40.1426V87.6012H40.276V87.4314H40.4095V87.6012H40.6278V87.7104H40.4095V88.1108C40.4095 88.1957 40.4459 88.2442 40.5308 88.2442C40.5672 88.2442 40.6036 88.2199 40.6278 88.2078L40.6764 88.3049Z" fill="#263238"/>
<path fill-rule="evenodd" clip-rule="evenodd" d="M41.4285 87.8924V88.3413H41.3072V88.2442C41.2587 88.317 41.1738 88.3534 41.0525 88.3534C40.8826 88.3534 40.7734 88.2685 40.7734 88.135C40.7734 88.0137 40.8584 87.9167 41.0767 87.9167H41.2951V87.8924C41.2951 87.7711 41.2223 87.7104 41.0889 87.7104C41.0039 87.7104 40.919 87.7347 40.8584 87.7832L40.7977 87.6862C40.8826 87.6255 40.9918 87.5891 41.1131 87.5891C41.3194 87.5891 41.4285 87.6862 41.4285 87.8924ZM41.2951 88.1108V88.0137H41.0889C40.9554 88.0137 40.919 88.0622 40.919 88.1229C40.919 88.2078 40.9797 88.2442 41.0767 88.2442C41.1859 88.2442 41.2587 88.2078 41.2951 88.1108Z" fill="#263238"/>
<path d="M42.3872 87.9167V88.3413H42.2538V87.9288C42.2538 87.7832 42.181 87.7104 42.0475 87.7104C41.9141 87.7104 41.817 87.7953 41.817 87.9652V88.3413H41.6836V87.6012H41.8049V87.7104C41.8656 87.6376 41.9626 87.5891 42.0839 87.5891C42.2659 87.5891 42.3872 87.6983 42.3872 87.9167Z" fill="#263238"/>
<path d="M42.5811 87.9652C42.5811 87.7468 42.7388 87.5891 42.9693 87.5891C43.1027 87.5891 43.2119 87.6498 43.2725 87.7468L43.1755 87.8196C43.127 87.7468 43.0542 87.7104 42.9693 87.7104C42.8237 87.7104 42.7145 87.8075 42.7145 87.9652C42.7145 88.135 42.8237 88.2321 42.9693 88.2321C43.0542 88.2321 43.127 88.1957 43.1755 88.1229L43.2725 88.1957C43.2119 88.2927 43.1027 88.3534 42.9693 88.3534C42.7388 88.3534 42.5811 88.1957 42.5811 87.9652Z" fill="#263238"/>
<path fill-rule="evenodd" clip-rule="evenodd" d="M44.1096 88.0137H43.5031C43.5273 88.1472 43.6244 88.2321 43.7821 88.2321C43.863 88.2321 43.9317 88.2038 43.9883 88.1472L44.0733 88.2321C44.0005 88.3049 43.8913 88.3534 43.77 88.3534C43.5273 88.3534 43.3696 88.1957 43.3696 87.9652C43.3696 87.7468 43.5273 87.5891 43.7457 87.5891C43.9641 87.5891 44.1096 87.7468 44.1096 87.9773C44.1096 87.9895 44.1096 88.0016 44.1096 88.0137ZM43.5031 87.9167H43.9883C43.9762 87.7953 43.8792 87.6983 43.7457 87.6983C43.6123 87.6983 43.5152 87.7953 43.5031 87.9167Z" fill="#263238"/>
<path d="M35.4478 89.4573V91.8108H34.9018V89.894H34.4287V89.4573H35.4478Z" fill="#263238"/>
<path d="M36.4911 91.5077C36.4911 91.5926 36.479 91.6533 36.4062 91.8353L36.2121 92.3205H35.8724L36.0301 91.7867C35.9088 91.7504 35.8481 91.6412 35.8481 91.5077C35.8481 91.3136 35.9816 91.1802 36.1757 91.1802C36.3577 91.1802 36.4911 91.3136 36.4911 91.5077Z" fill="#263238"/>
<path d="M37.5952 89.4573V91.8108H37.0493V89.894H36.5762V89.4573H37.5952Z" fill="#263238"/>
<path fill-rule="evenodd" clip-rule="evenodd" d="M38.0073 90.6342C38.0073 89.8578 38.4319 89.4089 39.0142 89.4089C39.5965 89.4089 40.0211 89.8578 40.0211 90.6342C40.0211 91.4106 39.5965 91.8474 39.0142 91.8474C38.4319 91.8474 38.0073 91.4106 38.0073 90.6342ZM39.4752 90.6342C39.4752 90.1004 39.2811 89.8699 39.0142 89.8699C38.7473 89.8699 38.5532 90.1004 38.5532 90.6342C38.5532 91.168 38.7473 91.3864 39.0142 91.3864C39.2811 91.3864 39.4752 91.168 39.4752 90.6342Z" fill="#263238"/>
<path fill-rule="evenodd" clip-rule="evenodd" d="M40.2881 90.6342C40.2881 89.8578 40.7248 89.4089 41.295 89.4089C41.8773 89.4089 42.314 89.8578 42.314 90.6342C42.314 91.4106 41.8773 91.8474 41.295 91.8474C40.7248 91.8474 40.2881 91.4106 40.2881 90.6342ZM41.756 90.6342C41.756 90.1004 41.574 89.8699 41.295 89.8699C41.0281 89.8699 40.8461 90.1004 40.8461 90.6342C40.8461 91.168 41.0281 91.3864 41.295 91.3864C41.574 91.3864 41.756 91.168 41.756 90.6342Z" fill="#263238"/>
<path d="M46.6938 90.7675V91.8108H46.1722V90.8524C46.1722 90.5612 46.0387 90.4278 45.8325 90.4278C45.5899 90.4278 45.4322 90.5734 45.4322 90.9009V91.8108H44.8984V90.8524C44.8984 90.5612 44.7771 90.4278 44.5587 90.4278C44.3282 90.4278 44.1584 90.5734 44.1584 90.9009V91.8108H43.6367V89.9911H44.1341V90.2094C44.2797 90.0517 44.4738 89.9668 44.7043 89.9668C44.959 89.9668 45.1774 90.0638 45.2987 90.2701C45.4443 90.076 45.6869 89.9668 45.9538 89.9668C46.3906 89.9668 46.6938 90.2216 46.6938 90.7675Z" fill="#263238"/>
<path d="M33.046 89.2633C33.046 90.3915 32.1361 91.3013 31.0079 91.3013C29.8918 91.3013 28.9819 90.3915 28.9819 89.2633C28.9819 88.1472 29.8918 87.2373 31.0079 87.2373C32.1361 87.2373 33.046 88.1472 33.046 89.2633Z" fill="#E8505B"/>
<path d="M30.1828 89.6393C30.1828 89.6272 30.3769 89.615 30.7045 89.6029C31.0441 89.5908 31.5173 89.5908 32.0874 89.5786L32.0389 89.6757C31.8812 89.4937 31.7114 89.2875 31.5294 89.0691L31.493 89.0327L31.5294 88.9963C31.6911 88.7941 31.861 88.5798 32.0389 88.3534L32.0874 88.4626C32.0147 88.4626 31.9378 88.4626 31.8569 88.4626C31.2504 88.4626 30.6923 88.4504 30.1828 88.4504L30.2435 88.4019C30.2435 89.0085 30.2313 89.5301 30.2192 89.8941C30.2071 90.258 30.1949 90.4764 30.1828 90.4764C30.1707 90.4764 30.1707 90.258 30.1585 89.8941C30.1464 89.5301 30.1343 89.0085 30.1343 88.4019V88.3412H30.1828C30.6923 88.3412 31.2504 88.3412 31.8569 88.3291C31.9378 88.3291 32.0147 88.3291 32.0874 88.3291H32.2209L32.136 88.4383C31.958 88.6567 31.7842 88.8669 31.6143 89.0691V88.9963C31.7963 89.2147 31.9661 89.4088 32.1238 89.6029L32.2088 89.6878H32.0874C31.5173 89.6878 31.0441 89.6757 30.7045 89.6757C30.3769 89.6636 30.1828 89.6514 30.1828 89.6393Z" fill="#FAFAFA"/>
<path d="M65.0365 86.9824V91.8107C65.0365 92.4537 64.5148 92.9875 63.8597 92.9875H59.2134L57.8789 94.14V92.9875H57.7212C57.0782 92.9875 56.5444 92.4537 56.5444 91.8107V86.9824C56.5444 86.3273 57.0782 85.8057 57.7212 85.8057H63.8597C64.5148 85.8057 65.0365 86.3273 65.0365 86.9824Z" fill="#0C73E3"/>
<path d="M58.413 87.9165H61.7976C61.8462 87.9165 61.8947 87.965 61.8947 88.0136V88.3896C61.8947 88.4503 61.9311 88.4867 61.9917 88.4867L62.8531 88.4988C62.8773 88.4988 62.9016 88.5109 62.9259 88.5352L63.6659 89.53C63.6821 89.5462 63.6902 89.5664 63.6902 89.5906L63.7023 90.5005C63.7023 90.549 63.6538 90.5976 63.6052 90.5976H58.413C58.3523 90.5976 58.3159 90.549 58.3159 90.5005V88.0136C58.3159 87.965 58.3523 87.9165 58.413 87.9165Z" fill="#FAFAFA"/>
<path d="M62.1857 88.6566L62.8044 88.6323C62.8206 88.6323 62.8327 88.6404 62.8408 88.6566L63.3867 89.4451C63.411 89.4815 63.3867 89.5301 63.3382 89.5422L62.1857 89.5543C62.1615 89.5543 62.1372 89.5301 62.1372 89.5058V88.7051C62.1372 88.6809 62.1615 88.6566 62.1857 88.6566Z" fill="#0C73E3"/>
<path d="M63.7991 90.8405H58.2065V90.6707H63.7991V90.8405Z" fill="#FAFAFA"/>
<path d="M60.0629 90.731C60.0629 91.0464 59.8081 91.289 59.5048 91.289C59.2015 91.289 58.9468 91.0464 58.9468 90.731C58.9468 90.4277 59.2015 90.1851 59.5048 90.1851C59.8081 90.1851 60.0629 90.4277 60.0629 90.731Z" fill="#0C73E3"/>
<path d="M59.8323 90.7309C59.8323 90.9129 59.6868 91.0585 59.5048 91.0585C59.3228 91.0585 59.1772 90.9129 59.1772 90.7309C59.1772 90.5611 59.3228 90.4155 59.5048 90.4155C59.6868 90.4155 59.8323 90.5611 59.8323 90.7309Z" fill="#FAFAFA"/>
<path d="M61.8943 90.5976C61.87 90.5976 61.8579 89.991 61.8579 89.2631C61.8579 88.5231 61.87 87.9165 61.8943 87.9165C61.9064 87.9165 61.9186 88.5231 61.9186 89.2631C61.9186 89.991 61.9064 90.5976 61.8943 90.5976Z" fill="#0C73E3"/>
<path d="M63.0713 90.731C63.0713 91.0464 62.8286 91.289 62.5253 91.289C62.2099 91.289 61.9673 91.0464 61.9673 90.731C61.9673 90.4277 62.2099 90.1851 62.5253 90.1851C62.8286 90.1851 63.0713 90.4277 63.0713 90.731Z" fill="#0C73E3"/>
<path d="M62.8528 90.7309C62.8528 90.9129 62.6951 91.0585 62.5253 91.0585C62.3433 91.0585 62.1978 90.9129 62.1978 90.7309C62.1978 90.5611 62.3433 90.4155 62.5253 90.4155C62.6951 90.4155 62.8528 90.5611 62.8528 90.7309Z" fill="#FAFAFA"/>
<path d="M62.5252 89.7119C62.5252 89.724 62.4402 89.7362 62.3432 89.7362C62.2461 89.7362 62.1733 89.724 62.1733 89.7119C62.1733 89.6998 62.2461 89.6876 62.3432 89.6876C62.4402 89.6876 62.5252 89.6998 62.5252 89.7119Z" fill="#0C73E3"/>
</svg>
