<?xml version="1.0" encoding="UTF-8"?>
<svg width="158" height="87" viewBox="0 0 158 87" fill="none" xmlns="http://www.w3.org/2000/svg">
<path d="M122.304 65.5289H16.748V54.9863H122.304V65.5289Z" fill="#0C73E3"/>
<g opacity="0.4">
<path d="M122.304 65.5289H16.748V54.9863H122.304V65.5289Z" fill="black"/>
</g>
<path d="M99.4366 76.6301H68.2725V66.8601H99.4366V76.6301Z" fill="#455A64"/>
<path d="M139.099 62.4387V69.1779H61.4027L57.1357 75.3584H46.498V62.4387H139.099Z" fill="#263238"/>
<path d="M46.7708 38.1921V61.8921H28.7997C25.4954 61.8921 22.5478 63.9127 21.3592 66.9911L19.5526 71.7097H1.46266L0.357299 57.435C0.309756 54.737 0.713869 49.2933 1.36758 46.6785C2.15203 43.5882 5.9911 37.5384 7.7264 34.8166C10.163 31.0132 13.5979 25.3675 16.7476 23.8581C20.8482 21.885 40.8161 20.9698 45.0117 20.8034C45.4515 20.7797 45.808 21.1125 45.8437 21.5522L46.7708 38.1921Z" fill="#0C73E3"/>
<path d="M10.389 31.3934C4.10148 41.627 3.5904 44.3488 3.19817 45.1332C2.93669 45.6562 2.08092 45.9652 1.53418 46.1197C1.55795 46.0603 1.56984 46.0009 1.59361 45.9415C2.71086 42.7086 6.12204 37.3363 7.7266 34.8165C9.61642 31.8689 12.1124 27.8159 14.5965 25.4387C14.1686 26.449 12.3026 28.2675 10.389 31.3934Z" fill="#455A64"/>
<path d="M38.9269 26.639V37.443C38.9269 38.4771 38.2851 39.4041 37.3104 39.7726L15.845 47.7716C15.5597 47.8786 15.2507 47.9262 14.9417 47.9262H6.77621C6.5385 47.9262 6.3721 47.6884 6.44341 47.4626L9.605 39.3804C9.83082 38.9049 14.5138 27.8513 18.6856 26.425C21.8948 25.3196 31.9144 24.6422 36.5498 24.3807C37.8334 24.3094 38.9269 25.3434 38.9269 26.639Z" fill="#263238"/>
<path d="M7.3584 47.1417C7.3584 47.1417 10.3774 40.355 11.3995 38.1324C12.9328 34.7806 16.5222 27.8988 18.9469 27.1738C21.1695 26.5082 27.5759 25.6881 36.5852 25.177C36.6169 25.177 36.6486 25.177 36.6803 25.177C37.4766 25.177 38.1303 25.8307 38.1303 26.6389V37.6926C38.1303 38.2393 37.7857 38.7504 37.2627 38.9406L21.4072 40.9017C20.1236 41.0562 18.9707 41.7694 18.2575 42.851L15.512 47.0466C15.3456 47.11 15.1752 47.1417 15.0009 47.1417H7.3584Z" fill="#455A64"/>
<path d="M20.8367 41.0206L15.4287 47.0228L18.412 27.0906L19.1608 26.8291L17.6989 41.603C17.6632 41.9239 17.9841 42.1616 18.2932 42.0427L20.8367 41.0206Z" fill="#263238"/>
<path d="M0.00112616 58.8134C-0.0107595 58.5638 0.0724406 58.3499 0.203183 58.338L3.10328 58.0646C3.34099 58.0408 3.55494 58.4925 3.59059 59.0274L3.72133 61.25C3.73322 61.6065 3.62625 61.9037 3.47174 61.9275L0.524095 62.4385C0.393353 62.4623 0.26261 62.2721 0.238839 62.0107L0.00112616 58.8134Z" fill="#EBEBEB"/>
<path d="M20.8365 77.5336H0.000976562V69.178H20.8365V77.5336Z" fill="#263238"/>
<path d="M34.4691 63.4728C40.7566 63.556 45.7842 68.7381 45.701 75.0256C45.6059 81.325 40.4357 86.3526 34.1363 86.2576C27.8488 86.1625 22.8211 80.9922 22.9043 74.7047C22.9994 68.4053 28.1816 63.3777 34.4691 63.4728Z" fill="#263238"/>
<path d="M45.701 75.0017C45.701 75.0097 45.701 75.0176 45.701 75.0255C45.6059 81.3249 40.4357 86.3525 34.1363 86.2575C27.8488 86.1624 22.8211 80.9921 22.9043 74.7046C22.9123 74.6888 22.9162 74.6769 22.9162 74.6689L45.701 75.0017Z" fill="#263238"/>
<path d="M34.4214 66.8601C38.8309 66.9314 42.361 70.5565 42.3016 74.978C42.2421 79.3995 38.6051 82.9295 34.1837 82.8582C29.7741 82.7988 26.244 79.1618 26.3035 74.7522C26.3629 70.3307 29.9999 66.8007 34.4214 66.8601Z" fill="#FAFAFA"/>
<path d="M42.3018 74.978L26.3037 74.7522C26.3631 70.3307 30.0001 66.8007 34.4216 66.8601C38.8312 66.9314 42.3612 70.5565 42.3018 74.978Z" fill="#E0E0E0"/>
<path d="M34.3736 69.986C37.0597 70.0336 39.211 72.2443 39.1754 74.9305C39.1397 77.6285 36.929 79.7798 34.2309 79.7323C31.5448 79.6966 29.3935 77.4859 29.4291 74.7878C29.4648 72.1017 31.6874 69.9504 34.3736 69.986Z" fill="#263238"/>
<path d="M12.1958 42.9581H11.2687C10.2228 42.9581 9.37891 42.1023 9.37891 41.0563V33.5208C9.37891 32.4749 10.2228 31.6191 11.2687 31.6191H12.1958C13.2536 31.6191 14.0975 32.4749 14.0975 33.5208V41.0563C14.0975 42.1023 13.2536 42.9581 12.1958 42.9581Z" fill="#263238"/>
<path d="M7.41838 49.9703H7.18066V37.9777C7.18066 36.7892 8.15529 35.8264 9.34385 35.8264H9.91436V36.0641H9.34385C8.28603 36.0641 7.41838 36.9199 7.41838 37.9777V49.9703Z" fill="#263238"/>
<path d="M9.03439 49.9824L8.38068 38.7742C8.35691 38.382 8.48765 38.0016 8.76102 37.7164C9.03439 37.4311 9.39096 37.2766 9.78318 37.2766V37.5143C9.46227 37.5143 9.15324 37.6451 8.9393 37.8828C8.71348 38.1205 8.59462 38.4295 8.61839 38.7623L9.2721 49.9705L9.03439 49.9824Z" fill="#263238"/>
<path d="M9.78318 52.597H6.58594V48.8887H9.78318V52.597Z" fill="#263238"/>
<path d="M8.60625 42.0785H7.29883V41.8408H8.60625V42.0785Z" fill="#263238"/>
<path d="M19.4814 24.7018C19.4814 24.7018 19.5726 24.6899 19.7548 24.6662C19.945 24.6424 20.2263 24.6107 20.5987 24.5711C21.3356 24.4879 22.4172 24.3571 23.8316 24.1907C26.6485 23.8698 30.7372 23.4063 35.8718 22.8239C36.5136 22.7526 37.1673 22.6694 37.8448 22.6099C38.1895 22.5743 38.5341 22.6218 38.8788 22.6812C39.2235 22.7644 39.5563 22.8714 39.8653 23.0497C40.4953 23.4063 41.0301 23.9411 41.3748 24.6067C41.5412 24.9395 41.6601 25.308 41.7195 25.6883C41.7552 25.8666 41.7552 26.0568 41.767 26.2588C41.767 26.449 41.767 26.6392 41.767 26.8293C41.767 29.8958 41.767 33.1882 41.767 36.6825C41.7789 43.6713 41.7789 51.4326 41.7789 59.7288V59.7882H41.7195C39.0452 59.7882 36.2996 59.7882 33.4946 59.7882C32.0921 59.7882 30.6777 59.7882 29.2515 59.7882C28.5383 59.8001 27.8252 59.7764 27.1239 59.8952C26.4108 59.9784 25.7333 60.2042 25.0677 60.4657C22.9996 61.3572 21.3475 63.0925 20.5512 65.1368C20.468 65.3983 20.3491 65.6479 20.2897 65.9212C20.2302 66.1827 20.1352 66.4442 20.1114 66.7176L20.052 67.1217L20.0163 67.3238L20.0044 67.5258L19.9925 67.9299L19.9806 68.132V68.1558C20.0282 68.1082 19.9093 68.2389 19.9093 68.2271H19.8974H19.838H19.7429C18.6495 68.2271 17.5679 68.2271 16.4982 68.2271C12.2074 68.2271 8.05934 68.2271 4.10142 68.2271H4.04199V68.1676C4.04199 64.5782 4.04199 61.1313 4.04199 57.8271C4.04199 56.179 4.04595 54.5665 4.05388 52.9897C4.05388 52.2052 4.05388 51.4326 4.05388 50.672C4.05388 50.2916 4.04199 49.9113 4.05388 49.5309C4.0618 49.1506 4.08954 48.7742 4.13708 48.4018C4.31536 46.928 4.80267 45.5374 5.48016 44.3131C6.13783 43.0849 6.77173 41.8964 7.38186 40.7474C8.5942 38.4654 9.72333 36.3497 10.7455 34.4362C11.7677 32.5226 12.6829 30.811 13.4792 29.3134C13.6773 28.9331 13.8675 28.5726 14.0497 28.2318C14.1448 28.0536 14.228 27.8872 14.335 27.7208C14.43 27.5623 14.537 27.4117 14.6559 27.2691C15.1075 26.6986 15.6067 26.2588 16.094 25.926C17.0687 25.2604 17.9601 24.999 18.5544 24.8563C19.1605 24.7256 19.4814 24.7018 19.4814 24.7018C19.4814 24.7018 19.4022 24.7137 19.2437 24.7375C19.0892 24.7612 18.8634 24.8088 18.5663 24.8682C17.972 25.0227 17.0924 25.2842 16.1178 25.9617C15.6305 26.2945 15.1313 26.7343 14.6915 27.2929C14.5806 27.4355 14.4736 27.5861 14.3706 27.7445C14.2755 27.8991 14.1923 28.0773 14.0973 28.2556C13.915 28.6043 13.7248 28.9648 13.5267 29.3372C12.7304 30.8348 11.8152 32.5582 10.8049 34.4718C9.78276 36.3854 8.66551 38.5011 7.45317 40.795C6.84304 41.936 6.2131 43.1246 5.56335 44.3607C4.88587 45.573 4.41045 46.9517 4.23216 48.4137C4.18462 48.7861 4.15689 49.1585 4.14896 49.5309C4.14896 49.9113 4.14896 50.2916 4.14896 50.672C4.14896 51.4326 4.14896 52.2052 4.14896 52.9897C4.14896 54.5665 4.14896 56.179 4.14896 57.8271C4.16085 61.1313 4.16085 64.5782 4.16085 68.1676L4.10142 68.1082C8.05934 68.1082 12.2074 68.1082 16.4982 68.1082C17.5679 68.1082 18.6495 68.1042 19.7429 68.0963H19.838H19.8974H19.9093C19.9331 68.0844 19.8024 68.2152 19.8499 68.1558L19.8618 68.132V67.9299L19.8856 67.5139L19.8974 67.3119L19.9331 67.1098L19.9925 66.6938C20.0163 66.4204 20.1114 66.159 20.1708 65.8856C20.2302 65.6122 20.3491 65.3626 20.4442 65.1011C21.2405 63.0211 22.9164 61.2621 25.0202 60.3588C25.6858 60.0973 26.387 59.8596 27.112 59.7764C27.8252 59.6575 28.5502 59.6694 29.2515 59.6694C30.6777 59.6694 32.0921 59.6694 33.4946 59.6694C36.2996 59.6694 39.0452 59.6694 41.7195 59.6694L41.6601 59.7288C41.6601 51.4326 41.6601 43.6713 41.672 36.6825C41.672 33.1882 41.672 29.8958 41.672 26.8293C41.672 26.4371 41.6838 26.0568 41.6244 25.7002C41.5769 25.3318 41.4461 24.9752 41.2916 24.6543C40.9707 24.0006 40.4358 23.4657 39.8297 23.1329C39.5207 22.9546 39.1879 22.8477 38.8669 22.7645C38.5223 22.705 38.1895 22.6575 37.8567 22.6931C37.1792 22.7526 36.5255 22.8358 35.8836 22.9071C30.749 23.4657 26.6485 23.9292 23.8316 24.2383C22.4172 24.3928 21.3356 24.5116 20.5987 24.5948C20.2342 24.6265 19.9569 24.6543 19.7667 24.678C19.5765 24.6939 19.4814 24.7018 19.4814 24.7018Z" fill="#263238"/>
<path d="M37.9873 50.9809C37.9873 50.969 38.0468 50.969 38.1656 50.9453C38.2845 50.9215 38.4627 50.874 38.6529 50.7551C38.8431 50.6244 39.057 50.4104 39.1521 50.1014C39.2115 49.9469 39.2234 49.7805 39.2234 49.5903C39.2115 49.412 39.164 49.2218 39.0689 49.0436C38.8906 48.687 38.4865 48.3899 37.9992 48.3899C37.5079 48.3899 36.985 48.3899 36.4303 48.3899C35.3249 48.3899 34.1126 48.3899 32.8408 48.4017C32.5318 48.4017 32.2347 48.5206 32.0207 48.7108C31.8068 48.9128 31.6642 49.1981 31.6285 49.4833C31.6047 49.7686 31.6404 50.0538 31.783 50.3034C31.9138 50.5412 32.1277 50.7194 32.3773 50.8264C32.615 50.9334 32.8884 50.9215 33.1499 50.9215C33.4113 50.9215 33.6649 50.9215 33.9105 50.9215C34.4018 50.9294 34.8574 50.9334 35.2774 50.9334C36.1094 50.9453 36.775 50.9453 37.2623 50.9572C37.4842 50.9572 37.6624 50.9572 37.7972 50.9572C37.9239 50.9651 37.9873 50.973 37.9873 50.9809C37.9873 50.9809 37.9239 50.9849 37.7972 50.9928C37.6624 50.9928 37.4842 50.9968 37.2623 51.0047C36.775 51.0047 36.1094 51.0047 35.2774 51.0166C34.8574 51.0166 34.4018 51.0205 33.9105 51.0285C33.6649 51.0285 33.4113 51.0285 33.1499 51.0285C33.0191 51.0285 32.8884 51.0285 32.7458 51.0285C32.6031 51.0166 32.4724 50.9809 32.3298 50.9334C32.0683 50.8145 31.8306 50.6244 31.676 50.351C31.5215 50.0895 31.4859 49.7686 31.5096 49.4596C31.5453 49.1505 31.6998 48.8415 31.9375 48.6276C32.1752 48.4017 32.508 48.271 32.8408 48.271C34.1126 48.2829 35.3249 48.2829 36.4303 48.2829C36.985 48.2829 37.5079 48.2829 37.9992 48.2829C38.5222 48.2948 38.9619 48.6157 39.1521 48.996C39.2472 49.1981 39.2947 49.4001 39.2947 49.5903C39.3066 49.7805 39.2829 49.9706 39.2234 50.1252C39.1046 50.4461 38.8787 50.6719 38.6886 50.7908C38.4746 50.9215 38.2963 50.9572 38.1775 50.969C38.0467 50.9809 37.9873 50.9809 37.9873 50.9809Z" fill="#263238"/>
<path d="M37.5475 47.9857C37.5475 48.0214 36.6323 48.0451 35.5031 48.0451C34.374 48.0451 33.4707 48.0214 33.4707 47.9857C33.4707 47.9619 34.374 47.9263 35.5031 47.9263C36.6323 47.9263 37.5475 47.9619 37.5475 47.9857Z" fill="white"/>
<path d="M21.7756 77.6048L19.8857 77.4622C20.3849 70.6517 21.11 66.5749 22.1084 65.006C24.0338 61.9871 25.9355 61.4403 28.0512 61.0838C30.0242 60.751 32.0091 60.8223 33.9346 60.9055L34.3981 60.9174C38.3679 61.0719 46.676 60.9411 46.7592 60.9411L46.783 62.8428C46.6998 62.8428 38.3442 62.9736 34.3268 62.8191L33.8514 62.8072C32.0329 62.7359 30.1431 62.6527 28.3721 62.9617C26.4823 63.2826 25.2224 63.6511 23.7129 66.0282C23.2494 66.7532 22.3936 69.2136 21.7756 77.6048Z" fill="#263238"/>
<path d="M141.428 62.3791H47.7695V0.0151367H141.428V62.3791Z" fill="#0C73E3"/>
<path d="M140.3 61.1431C140.3 60.7389 140.288 37.8709 140.252 1.42955L140.3 1.47709C115.209 1.47709 83.3438 1.48897 48.7803 1.48897H48.7684L48.8397 1.42955C48.8278 22.6573 48.8278 42.8629 48.8278 61.1431L48.7684 61.0836C102.622 61.1193 139.789 61.1431 140.3 61.1431C139.789 61.1431 102.622 61.1668 48.7684 61.2025H48.7209V61.1431C48.7209 42.8629 48.709 22.6573 48.709 1.42955V1.37012H48.7684H48.7803C83.3438 1.37012 115.209 1.382 140.3 1.382H140.347V1.42955C140.324 37.8709 140.3 60.7389 140.3 61.1431Z" fill="#263238"/>
<path d="M34.4456 29.5513C34.4456 29.5513 34.4179 29.5751 34.3624 29.6226C34.2911 29.6702 34.204 29.7335 34.101 29.8128C33.8751 29.9792 33.5304 30.205 33.1263 30.4903C32.2943 31.0489 31.1414 31.8096 29.8459 32.6416C28.5623 33.4617 27.3856 34.1867 26.5298 34.7097C26.1019 34.9712 25.7454 35.1732 25.5076 35.3158C25.3967 35.3792 25.3016 35.4347 25.2224 35.4822C25.159 35.5139 25.1273 35.5298 25.1273 35.5298C25.1194 35.5219 25.1471 35.4981 25.2105 35.4585C25.2818 35.4109 25.3729 35.3515 25.4839 35.2802C25.7335 35.1138 26.0663 34.8998 26.4823 34.6384C27.338 34.0916 28.5028 33.3547 29.7865 32.5346C31.0582 31.7145 32.2111 30.9657 33.0669 30.4071C33.4829 30.1456 33.8157 29.9316 34.0772 29.7771C34.1802 29.7058 34.2713 29.6464 34.3506 29.5988C34.414 29.5592 34.4456 29.5434 34.4456 29.5513Z" fill="#FAFAFA"/>
<path d="M30.3929 30.6206C30.3929 30.6285 30.3652 30.6523 30.3097 30.6919C30.2384 30.7474 30.1512 30.8108 30.0482 30.8821C29.8224 31.0485 29.4777 31.2743 29.0617 31.5596C28.2416 32.1182 27.0768 32.8789 25.7932 33.7109C24.5095 34.531 23.3328 35.2679 22.4771 35.7909C22.0492 36.0405 21.6926 36.2544 21.4549 36.397C21.344 36.4604 21.2489 36.5119 21.1697 36.5515C21.1063 36.5912 21.0746 36.607 21.0746 36.5991C21.0666 36.5991 21.0944 36.5753 21.1578 36.5278C21.2291 36.4802 21.3202 36.4208 21.4311 36.3495C21.6807 36.195 22.0135 35.9691 22.4295 35.7077C23.2853 35.1609 24.4501 34.424 25.7337 33.6039C27.0055 32.7838 28.1584 32.035 29.0142 31.4883C29.4302 31.2268 29.763 31.0009 30.0245 30.8464C30.1275 30.7751 30.2186 30.7197 30.2978 30.68C30.3612 30.6404 30.3929 30.6206 30.3929 30.6206Z" fill="#FAFAFA"/>
<path d="M10.3773 37.5383C10.3773 37.5502 10.3417 37.467 10.306 37.3362C10.2704 37.1936 10.2228 37.0034 10.1634 36.7538C10.0445 36.2546 9.9019 35.5653 9.91378 34.7808C9.91378 33.9964 10.1158 33.2951 10.3654 32.8434C10.4843 32.6176 10.6032 32.4512 10.6982 32.3442C10.7933 32.2373 10.8527 32.1778 10.8527 32.1897C10.8765 32.2016 10.6507 32.4274 10.4367 32.8791C10.2228 33.3308 10.0326 34.0082 10.0326 34.7808C10.0208 35.5415 10.1515 36.2427 10.2466 36.7301C10.3417 37.2292 10.4011 37.5383 10.3773 37.5383Z" fill="#FAFAFA"/>
<path d="M0.702315 54.3921C0.702315 54.3921 0.69043 54.2971 0.69043 54.1307C0.69043 53.9643 0.702315 53.7147 0.714201 53.4056C0.726086 52.7995 0.773629 51.9556 0.844943 51.0285C0.916256 50.1014 1.01134 49.2576 1.08266 48.6514C1.11831 48.3424 1.15397 48.1046 1.17774 47.9382C1.2134 47.76 1.22528 47.6768 1.23717 47.6768C1.24906 47.6768 1.24906 47.7718 1.23717 47.9382C1.2134 48.1363 1.18963 48.378 1.16586 48.6633C1.11831 49.2932 1.047 50.1252 0.963799 51.0404C0.904371 51.9437 0.844943 52.7757 0.797401 53.4056C0.773629 53.6909 0.75382 53.9326 0.737972 54.1307C0.726087 54.2971 0.714201 54.3921 0.702315 54.3921Z" fill="#FAFAFA"/>
<path d="M26.7553 59.0157C26.7553 59.0395 26.2918 59.0989 25.5787 59.3366C25.2221 59.4436 24.818 59.61 24.3663 59.8239C23.9266 60.0497 23.463 60.3231 22.9995 60.6559C22.5478 61.0006 22.1437 61.3572 21.799 61.7137C21.4543 62.0703 21.181 62.415 20.967 62.724C20.5273 63.3302 20.3252 63.7581 20.3133 63.7462C20.3014 63.7462 20.349 63.6392 20.4441 63.449C20.4797 63.3539 20.5391 63.2351 20.6223 63.1044C20.6937 62.9736 20.7769 62.831 20.8957 62.6765C21.0978 62.3556 21.3711 61.999 21.7158 61.6305C22.0605 61.274 22.4646 60.9055 22.9282 60.5608C23.3917 60.2161 23.8671 59.9428 24.3188 59.7169C24.7704 59.5149 25.1983 59.3485 25.5549 59.2534C25.7332 59.194 25.8996 59.1583 26.0541 59.1227C26.1967 59.087 26.3275 59.0632 26.4225 59.0513C26.6365 59.0157 26.7553 59.0038 26.7553 59.0157Z" fill="#FAFAFA"/>
<path d="M50.1584 44.6577C50.1584 44.6577 50.1584 44.626 50.1584 44.5626C50.1584 44.4833 50.1544 44.3803 50.1465 44.2535C50.1465 43.9921 50.1346 43.5998 50.1346 43.1006C50.1227 42.1022 50.099 40.6522 50.0752 38.8693C50.0039 35.2799 49.9207 30.3354 49.8256 24.8799C49.7186 19.4125 49.6473 14.4681 49.6117 10.8786C49.5879 9.0958 49.5879 7.64575 49.5879 6.64735C49.5879 6.14815 49.5998 5.75593 49.5998 5.49444C49.5998 5.36766 49.5998 5.26466 49.5998 5.18542C49.5998 5.12203 49.6037 5.09033 49.6117 5.09033C49.6117 5.09033 49.6117 5.12203 49.6117 5.18542C49.6117 5.26466 49.6156 5.36766 49.6235 5.49444C49.6235 5.75593 49.6354 6.14815 49.6354 6.64735C49.6473 7.64575 49.6711 9.0958 49.6949 10.8786C49.7662 14.4681 49.8494 19.4125 49.9445 24.8681C50.0514 30.3355 50.1346 35.2799 50.1584 38.8575C50.1822 40.6522 50.1822 42.1022 50.1822 43.1006C50.1822 43.5998 50.1703 43.9921 50.1703 44.2535C50.1703 44.3803 50.1703 44.4833 50.1703 44.5626C50.1703 44.626 50.1663 44.6577 50.1584 44.6577Z" fill="#FAFAFA"/>
<path d="M118.644 63.4728C124.931 63.556 129.959 68.7381 129.876 75.0256C129.781 81.325 124.61 86.3526 118.311 86.2576C112.024 86.1625 106.996 80.9922 107.079 74.7047C107.174 68.4053 112.344 63.3777 118.644 63.4728Z" fill="#263238"/>
<path d="M129.876 75.0017C129.876 75.0097 129.876 75.0176 129.876 75.0255C129.781 81.3249 124.61 86.3525 118.311 86.2575C112.024 86.1624 106.996 80.9921 107.079 74.7046C107.087 74.6888 107.091 74.6769 107.091 74.6689L129.876 75.0017Z" fill="#263238"/>
<path d="M118.596 66.8601C123.006 66.9314 126.536 70.5565 126.476 74.978C126.417 79.3995 122.78 82.9295 118.358 82.8582C113.949 82.7988 110.419 79.1618 110.478 74.7522C110.538 70.3307 114.175 66.8007 118.596 66.8601Z" fill="#FAFAFA"/>
<path d="M126.477 74.978L110.479 74.7522C110.538 70.3307 114.175 66.8007 118.596 66.8601C123.006 66.9314 126.536 70.5565 126.477 74.978Z" fill="#E0E0E0"/>
<path d="M118.548 69.986C121.235 70.0336 123.386 72.2443 123.35 74.9305C123.315 77.6285 121.104 79.7798 118.406 79.7323C115.72 79.6966 113.568 77.4859 113.604 74.7878C113.64 72.1017 115.862 69.9504 118.548 69.986Z" fill="#263238"/>
<path d="M103.501 77.9848C103.501 77.9848 101.766 61.8203 118.513 61.8203C133.964 61.8203 133.62 75.7265 133.477 77.8778H131.052C131.052 77.8778 132.288 64.1737 118.513 64.1737C104.737 64.1737 105.938 78.1512 105.938 78.1512C105.938 78.1512 104.916 78.1037 103.501 77.9848Z" fill="#455A64"/>
<path d="M112.475 63.4964C112.475 63.4964 112.431 63.5122 112.344 63.5439C112.249 63.5677 112.118 63.6033 111.964 63.6628C111.631 63.7579 111.156 63.9361 110.597 64.1857C109.48 64.6968 108.006 65.6477 106.794 67.0858C105.581 68.5359 104.916 70.1405 104.607 71.329C104.44 71.9233 104.357 72.4225 104.31 72.7672C104.286 72.9336 104.274 73.0643 104.262 73.1594C104.254 73.2466 104.246 73.2902 104.238 73.2902C104.238 73.2902 104.238 73.2466 104.238 73.1594C104.25 73.0643 104.25 72.9336 104.262 72.7553C104.298 72.4106 104.369 71.9114 104.524 71.3053C104.809 70.1048 105.474 68.4646 106.699 67.0026C107.935 65.5407 109.42 64.6017 110.561 64.1144C111.132 63.8648 111.607 63.6984 111.94 63.6152C112.107 63.5677 112.249 63.5439 112.332 63.5202C112.42 63.4964 112.467 63.4885 112.475 63.4964Z" fill="#FAFAFA"/>
<path d="M156.036 78.7576C156.036 78.7576 157.771 81.8597 157.961 82.1093C158.116 82.3233 157.45 85.0926 157.272 85.8414C157.236 85.9603 157.153 86.0554 157.046 86.1029C156.844 86.1742 156.607 86.0672 156.547 85.8652L155.632 82.9889L153.611 79.9461L156.036 78.7576Z" fill="#455A64"/>
<g opacity="0.6">
<path d="M157.046 86.1028L157.83 81.8953L157.914 82.026C157.985 82.1449 158.009 82.2756 157.997 82.4063C157.949 82.7629 157.783 83.7375 157.272 85.8294C157.248 85.9602 157.153 86.0552 157.046 86.1028Z" fill="white"/>
</g>
<g opacity="0.6">
<path d="M156.559 81.3248C156.571 81.2178 156.737 81.1465 156.832 81.1821C156.939 81.2178 156.998 81.3842 156.951 81.4793C156.903 81.5862 156.773 81.6338 156.666 81.5862C156.571 81.5387 156.523 81.408 156.559 81.301" fill="white"/>
</g>
<path d="M156.891 84.2963C156.88 84.3201 156.713 84.2012 156.464 84.2369C156.226 84.2488 156.083 84.4033 156.071 84.3914C156.059 84.3795 156.083 84.3319 156.154 84.2725C156.214 84.225 156.333 84.1655 156.464 84.1537C156.594 84.1418 156.713 84.1655 156.784 84.2131C156.868 84.2487 156.903 84.2963 156.891 84.2963Z" fill="#263238"/>
<path d="M156.94 84.8549C156.928 84.8787 156.761 84.843 156.571 84.8905C156.381 84.95 156.262 85.0569 156.25 85.0451C156.227 85.0332 156.334 84.8787 156.559 84.8192C156.773 84.7598 156.952 84.8311 156.94 84.8549Z" fill="#263238"/>
<path d="M156.963 83.512C156.963 83.5358 156.713 83.4764 156.404 83.5358C156.107 83.5952 155.893 83.7378 155.881 83.7141C155.869 83.7022 156.072 83.512 156.392 83.4526C156.713 83.3932 156.975 83.4882 156.963 83.512Z" fill="#263238"/>
<path d="M156.429 82.5374C156.429 82.5612 156.215 82.5968 155.989 82.7276C155.763 82.8583 155.62 83.0247 155.597 83.0128C155.585 83.001 155.703 82.7989 155.953 82.6563C156.191 82.5136 156.429 82.5136 156.429 82.5374Z" fill="#263238"/>
<path d="M155.857 81.6218C155.857 81.6456 155.62 81.6574 155.394 81.812C155.156 81.9665 155.073 82.1804 155.049 82.1685C155.037 82.1685 155.049 82.1091 155.097 82.0259C155.132 81.9427 155.227 81.8357 155.346 81.7406C155.465 81.6574 155.608 81.6218 155.703 81.6099C155.798 81.598 155.857 81.6099 155.857 81.6218Z" fill="#263238"/>
<path d="M155.287 81.6339C155.287 81.6339 155.251 81.5983 155.215 81.5269C155.168 81.4437 155.12 81.313 155.108 81.1585C155.108 81.0753 155.097 80.9802 155.156 80.8851C155.18 80.8376 155.251 80.8019 155.311 80.8257C155.382 80.8376 155.418 80.8851 155.453 80.9327C155.572 81.1347 155.524 81.4318 155.322 81.5982C155.12 81.7646 154.835 81.7647 154.645 81.6458C154.597 81.6101 154.55 81.5745 154.538 81.5032C154.526 81.4319 154.574 81.3724 154.621 81.3487C154.728 81.313 154.823 81.3249 154.895 81.3249C155.061 81.3487 155.18 81.3962 155.263 81.4318C155.334 81.4794 155.382 81.515 155.37 81.515C155.37 81.5269 155.204 81.4081 154.895 81.3843C154.811 81.3843 154.728 81.3724 154.657 81.4081C154.621 81.4319 154.597 81.4556 154.609 81.4913C154.609 81.5269 154.645 81.5626 154.681 81.5864C154.847 81.6815 155.097 81.6696 155.275 81.5388C155.441 81.3962 155.489 81.1347 155.394 80.9683C155.37 80.9327 155.334 80.897 155.299 80.897C155.263 80.8851 155.227 80.897 155.204 80.9208C155.168 80.9921 155.168 81.0753 155.168 81.1585C155.18 81.4675 155.299 81.6339 155.287 81.6339Z" fill="#263238"/>
<path d="M151.686 81.6811L151.448 84.7476C151.448 84.7476 154.491 85.7817 154.503 86.3522L148.548 86.3403L148.714 81.5623L151.686 81.6811Z" fill="#455A64"/>
<g opacity="0.6">
<path d="M149.606 84.4148C149.713 84.3673 149.867 84.4624 149.903 84.5812C149.939 84.6882 149.832 84.8427 149.713 84.8665C149.594 84.8903 149.463 84.8071 149.451 84.6882C149.428 84.5694 149.511 84.4386 149.63 84.4148" fill="white"/>
</g>
<g opacity="0.6">
<path d="M148.548 86.3403L148.572 85.853L154.312 86.067C154.312 86.067 154.503 86.1621 154.526 86.3998L148.548 86.3403Z" fill="white"/>
</g>
<path d="M151.555 84.7239C151.543 84.7477 151.4 84.7595 151.258 84.8427C151.103 84.9259 151.032 85.0448 151.008 85.0329C150.972 85.0329 151.032 84.8546 151.21 84.7595C151.388 84.6526 151.555 84.6882 151.555 84.7239Z" fill="#263238"/>
<path d="M152.161 84.9973C152.173 85.033 152.042 85.0687 151.935 85.1875C151.828 85.3064 151.805 85.4371 151.769 85.4371C151.745 85.4371 151.733 85.2707 151.864 85.1281C151.995 84.9736 152.161 84.9736 152.161 84.9973Z" fill="#263238"/>
<path d="M152.494 85.758C152.458 85.7699 152.423 85.6154 152.506 85.4609C152.589 85.3063 152.732 85.2469 152.744 85.2707C152.756 85.2945 152.661 85.3777 152.601 85.5084C152.53 85.6391 152.518 85.758 152.494 85.758Z" fill="#263238"/>
<path d="M151.531 84.011C151.507 84.0466 151.376 83.9991 151.222 83.9991C151.056 83.9991 150.925 84.0466 150.913 84.0229C150.889 84.011 151.02 83.904 151.21 83.904C151.412 83.8921 151.543 83.9991 151.531 84.011Z" fill="#263238"/>
<g opacity="0.3">
<path d="M151.638 82.2873L151.603 82.834L148.679 82.6914L148.691 82.2041L151.638 82.2873Z" fill="black"/>
</g>
<path d="M151.567 83.3925C151.567 83.4044 151.448 83.4282 151.27 83.3806C151.175 83.3687 151.068 83.3331 150.961 83.2736C150.905 83.2499 150.85 83.2182 150.794 83.1786C150.759 83.1548 150.735 83.1429 150.699 83.1073C150.676 83.0716 150.652 83.0003 150.699 82.9527C150.723 82.9052 150.783 82.8933 150.83 82.8933C150.866 82.8933 150.901 82.9052 150.937 82.9052C151 82.929 151.06 82.9527 151.115 82.9765C151.234 83.0359 151.317 83.1073 151.389 83.1667C151.519 83.3093 151.567 83.4163 151.555 83.4163C151.543 83.4282 151.472 83.3331 151.341 83.2261C151.27 83.1667 151.187 83.1072 151.08 83.0597C151.024 83.0359 150.969 83.0161 150.913 83.0003C150.842 82.9884 150.794 82.9884 150.771 83.0122C150.771 83.0241 150.771 83.0241 150.783 83.0478C150.794 83.0597 150.818 83.0835 150.842 83.0954C150.897 83.135 150.949 83.1667 150.996 83.1905C151.103 83.2499 151.199 83.2855 151.282 83.3212C151.448 83.3687 151.567 83.3806 151.567 83.3925Z" fill="#263238"/>
<path d="M151.52 83.4404C151.508 83.4404 151.46 83.3335 151.46 83.1433C151.448 83.0482 151.472 82.9412 151.508 82.8224C151.531 82.7669 151.559 82.7075 151.591 82.6441C151.627 82.5847 151.674 82.5134 151.793 82.5015C151.852 82.5015 151.888 82.549 151.912 82.5847C151.924 82.6322 151.924 82.6679 151.936 82.7035C151.943 82.7748 151.94 82.8422 151.924 82.9056C151.9 83.0244 151.852 83.1314 151.793 83.2027C151.662 83.3572 151.543 83.381 151.543 83.3691C151.531 83.3572 151.638 83.3097 151.733 83.1671C151.781 83.0958 151.817 83.0007 151.84 82.8818C151.848 82.8263 151.848 82.7709 151.84 82.7154C151.829 82.6441 151.805 82.5966 151.781 82.6084C151.757 82.5966 151.698 82.6441 151.674 82.6916C151.642 82.7471 151.615 82.8026 151.591 82.858C151.555 82.965 151.531 83.0601 151.531 83.1552C151.508 83.3216 151.543 83.4285 151.52 83.4404Z" fill="#263238"/>
<path d="M153.862 56.5073C153.862 56.5073 154.955 58.7418 155.241 60.3345C155.312 60.7862 152.115 83.7255 152.115 83.7255L148.323 83.5828L150.094 62.2362L149.464 57.9574L153.862 56.5073Z" fill="#263238"/>
<path d="M149.464 57.9575C149.404 57.6484 151.116 69.0349 151.116 69.0349L157.522 79.2803L154.67 81.8476L147.408 72.5411C147.408 72.5411 146.492 71.9469 146.041 68.7853C145.827 67.3471 145.185 64.7917 144.9 62.5453C144.591 60.0374 144.65 57.9099 144.65 57.9099C144.65 57.9099 149.523 58.2665 149.464 57.9575Z" fill="#263238"/>
<path d="M147.622 72.767C147.677 72.8303 147.753 72.9135 147.848 73.0166C148.038 73.2424 148.299 73.5752 148.632 73.9912C149.286 74.8113 150.177 75.9642 151.14 77.236C152.115 78.5077 152.994 79.6606 153.636 80.5045C153.957 80.9086 154.218 81.2414 154.397 81.4791C154.484 81.5901 154.555 81.6812 154.611 81.7525C154.658 81.8159 154.678 81.8476 154.67 81.8476C154.67 81.8476 154.646 81.8199 154.599 81.7644C154.543 81.6931 154.468 81.6059 154.373 81.5029C154.183 81.2771 153.921 80.9443 153.588 80.5402C152.935 79.7082 152.055 78.5672 151.081 77.2835C150.106 76.0117 149.226 74.8588 148.585 74.0268C148.264 73.6108 148.002 73.278 147.824 73.0403C147.737 72.9294 147.665 72.8422 147.61 72.7788C147.562 72.7155 147.543 72.6798 147.551 72.6719C147.551 72.6719 147.574 72.7036 147.622 72.767Z" fill="#455A64"/>
<path d="M146.73 59.6455C146.754 59.6573 146.73 59.8 146.635 60.0139C146.54 60.2279 146.362 60.5012 146.101 60.7508C145.839 60.9885 145.554 61.1549 145.34 61.2262C145.114 61.3094 144.971 61.3213 144.971 61.3094C144.948 61.2738 145.518 61.1312 146.017 60.6557C146.528 60.1922 146.695 59.6336 146.73 59.6455Z" fill="#455A64"/>
<path d="M154.574 58.3497C154.586 58.3853 154.337 58.4804 154.028 58.4329C153.707 58.3853 153.493 58.2189 153.516 58.1952C153.528 58.1595 153.754 58.2665 154.039 58.3021C154.337 58.3497 154.574 58.314 154.574 58.3497Z" fill="#455A64"/>
<path d="M150.486 61.5112C150.494 61.5112 150.502 61.5627 150.51 61.6657C150.526 61.7767 150.546 61.9233 150.57 62.1055C150.617 62.4977 150.677 63.0445 150.748 63.7338C150.902 65.1245 151.104 67.0737 151.33 69.2844V69.2488C151.671 69.7955 152.02 70.3581 152.376 70.9365C153.802 73.2305 155.098 75.3105 156.037 76.8199C156.5 77.5687 156.869 78.1868 157.13 78.6147C157.257 78.8207 157.356 78.9831 157.428 79.102C157.491 79.2208 157.523 79.2803 157.523 79.2803C157.515 79.2803 157.475 79.2248 157.404 79.1139C157.325 79.0029 157.222 78.8445 157.095 78.6384C156.821 78.2106 156.441 77.6163 155.966 76.8675C155.015 75.358 153.707 73.2899 152.269 71.0079C151.913 70.4294 151.564 69.8668 151.223 69.3201L151.211 69.3082V69.2963C150.997 67.0737 150.807 65.1364 150.677 63.7338C150.617 63.0564 150.558 62.4977 150.522 62.1055C150.514 61.9233 150.506 61.7767 150.498 61.6657C150.49 61.5627 150.486 61.5112 150.486 61.5112Z" fill="#455A64"/>
<path d="M149.38 41.5315L151.651 42.2565L151.829 47.0702C151.829 47.0702 153.053 52.704 153.314 53.4171C153.826 54.8315 154.004 56.0557 154.004 56.0557C154.004 56.0557 153.564 59.2411 150.379 59.6214C147.193 60.0017 144.222 58.1714 144.222 58.1714C144.222 58.1714 143.164 53.4171 142.19 49.1502C141.262 45.0853 142.011 42.6725 142.011 42.6725L145.506 41.4126L149.38 41.5315Z" fill="#455A64"/>
<path d="M151.14 44.7407L149.048 44.9903L148.988 44.4554L151.068 44.2058L151.14 44.7407Z" fill="#FAFAFA"/>
<path d="M151.211 38.9763C151.329 38.9763 151.401 39.1308 151.353 39.2496C151.306 39.3566 151.199 39.4279 151.092 39.4874C150.676 39.7132 150.236 39.9152 149.772 39.9628C149.309 40.0103 148.81 39.9034 148.453 39.5943L150.842 36.302C151.163 36.5397 151.246 37.0508 151.009 37.3836C151.27 37.4906 151.294 37.9066 151.068 38.0492C151.294 38.0254 151.532 38.2037 151.567 38.4414C151.603 38.6791 151.436 38.9168 151.211 38.9763Z" fill="#263238"/>
<path d="M146.148 39.7605C146.029 39.8556 145.851 39.8675 145.72 39.7843C145.577 39.7011 145.518 39.5347 145.553 39.3802C145.411 39.4515 145.233 39.404 145.137 39.297C145.042 39.1781 145.042 38.9999 145.126 38.8691C145.031 39.0117 144.805 38.988 144.698 38.8572C144.591 38.7265 144.591 38.5363 144.674 38.3937C144.508 38.4412 144.329 38.3105 144.294 38.1441C144.246 37.9777 144.341 37.7994 144.484 37.6924C144.615 37.5973 144.793 37.5617 144.959 37.5617C144.9 37.4428 144.912 37.2764 144.995 37.1576C145.078 37.0387 145.233 36.9793 145.375 37.0031C145.316 36.9199 145.316 36.8129 145.375 36.7297C145.423 36.6584 145.53 36.6227 145.625 36.6465L146.148 39.7605Z" fill="#263238"/>
<path d="M148.465 33.4137L149.308 33.4851C150.271 33.5683 151.008 34.3765 150.996 35.3392C150.996 36.7536 150.972 38.6078 150.889 39.4279C150.747 40.8304 149.32 40.9255 149.32 40.9255C149.32 40.9255 149.32 41.3771 149.308 41.9358C149.285 42.9817 148.37 43.8018 147.324 43.7067C146.373 43.6235 145.648 42.8153 145.671 41.8644L145.767 36.0167C145.778 34.5429 146.991 33.3662 148.465 33.4137Z" fill="#FFBE9D"/>
<path d="M149.32 41.2822C147.906 41.2822 147.537 40.2244 147.537 40.2244C148.429 40.9018 149.32 40.9256 149.32 40.9256V41.2822Z" fill="#EB996E"/>
<path d="M150.605 36.7656C150.581 36.7893 150.438 36.6586 150.224 36.6467C150.01 36.6229 149.844 36.718 149.82 36.6943C149.808 36.6705 149.832 36.6348 149.915 36.5873C149.987 36.5397 150.106 36.5041 150.236 36.516C150.367 36.5279 150.486 36.5873 150.545 36.6467C150.605 36.7061 150.617 36.7537 150.605 36.7656Z" fill="#263238"/>
<path d="M148.311 36.8605C148.311 36.9675 148.216 37.0507 148.097 37.0388C147.99 37.0388 147.907 36.9437 147.907 36.8486C147.919 36.7416 148.014 36.6584 148.121 36.6584C148.228 36.6584 148.323 36.7535 148.311 36.8605Z" fill="#263238"/>
<path d="M150.415 37.0506C150.415 37.1457 150.32 37.2289 150.201 37.2289C150.094 37.2289 150.011 37.1338 150.011 37.0268C150.023 36.9199 150.118 36.8367 150.225 36.8485C150.332 36.8485 150.427 36.9436 150.415 37.0506Z" fill="#263238"/>
<path d="M148.501 36.5754C148.477 36.5992 148.335 36.4804 148.121 36.4566C147.907 36.4328 147.741 36.5279 147.717 36.5041C147.705 36.4922 147.729 36.4447 147.812 36.3972C147.883 36.3615 148.002 36.314 148.133 36.3258C148.275 36.3496 148.382 36.409 148.442 36.4566C148.501 36.516 148.525 36.5635 148.501 36.5754Z" fill="#263238"/>
<path d="M149.143 38.2512C149.143 38.2393 149.285 38.2274 149.499 38.2155C149.559 38.2155 149.618 38.2036 149.63 38.168C149.642 38.1323 149.63 38.0729 149.606 38.0016C149.567 37.8669 149.523 37.7242 149.475 37.5737C149.309 36.9556 149.178 36.4445 149.214 36.4445C149.238 36.4327 149.392 36.9319 149.57 37.5499C149.61 37.7005 149.65 37.8431 149.689 37.9778C149.701 38.0491 149.737 38.1204 149.701 38.2036C149.677 38.2393 149.63 38.263 149.594 38.2749C149.559 38.2868 149.535 38.2749 149.499 38.2749C149.285 38.2749 149.143 38.263 149.143 38.2512Z" fill="#263238"/>
<path d="M148.502 38.3462C148.537 38.3462 148.514 38.5721 148.704 38.7622C148.882 38.9405 149.143 38.9405 149.143 38.9762C149.143 38.9881 149.072 39.0118 148.977 39.0118C148.87 38.9999 148.716 38.9524 148.609 38.8454C148.49 38.7266 148.454 38.5958 148.454 38.4889C148.454 38.3938 148.49 38.3343 148.502 38.3462Z" fill="#263238"/>
<path d="M148.62 35.8739C148.596 35.9334 148.382 35.8858 148.132 35.8977C147.871 35.8977 147.657 35.9571 147.633 35.8977C147.621 35.8739 147.657 35.8264 147.752 35.767C147.835 35.7194 147.966 35.6838 148.12 35.6719C148.275 35.6719 148.418 35.7075 148.501 35.7551C148.596 35.8026 148.631 35.8502 148.62 35.8739Z" fill="#263238"/>
<path d="M150.628 36.1352C150.593 36.1827 150.45 36.1233 150.272 36.0995C150.093 36.0758 149.939 36.1114 149.903 36.052C149.891 36.0282 149.915 35.9807 149.987 35.945C150.058 35.8975 150.165 35.8737 150.296 35.8856C150.414 35.8975 150.521 35.9569 150.581 36.0045C150.64 36.0639 150.652 36.1233 150.628 36.1352Z" fill="#263238"/>
<path d="M146.088 38.501C146.076 38.5248 145.101 38.6674 145.161 37.7046C145.208 36.7419 146.124 37.0985 146.147 37.1104C146.147 37.1104 146.088 38.4653 146.088 38.501Z" fill="#FFBE9D"/>
<path d="M145.779 38.168C145.743 38.1799 145.684 38.2037 145.624 38.1799C145.482 38.1324 145.398 37.9422 145.398 37.752C145.398 37.645 145.434 37.5618 145.47 37.4786C145.517 37.4073 145.589 37.3479 145.66 37.3479C145.696 37.3479 145.731 37.3479 145.743 37.3717C145.767 37.3954 145.779 37.4192 145.779 37.4311C145.791 37.4786 145.767 37.4905 145.767 37.4905C145.767 37.4905 145.767 37.4668 145.755 37.443C145.743 37.4192 145.707 37.3836 145.66 37.3954C145.612 37.3954 145.565 37.443 145.529 37.5143C145.494 37.5856 145.47 37.6688 145.47 37.752C145.458 37.9303 145.541 38.0967 145.636 38.1324C145.684 38.1561 145.731 38.1442 145.767 38.1442C145.791 38.1324 145.803 38.1086 145.814 38.1205C145.814 38.1205 145.803 38.1442 145.779 38.168Z" fill="#EB996E"/>
<path d="M145.886 34.5547C146.29 33.8534 147.063 33.378 147.859 33.2473C148.656 33.1165 149.701 33.3661 150.248 33.9604C150.32 34.0436 150.32 34.2457 150.32 34.2694C150.32 34.2694 150.165 34.3526 150.129 34.3883C149.856 34.6141 149.476 34.7092 149.119 34.626C148.834 34.5547 148.572 34.3764 148.275 34.3289C147.824 34.2457 147.36 34.4953 147.087 34.8518C146.825 35.2203 146.718 35.6838 146.694 36.1355C146.671 36.5871 146.73 37.0507 146.742 37.5023C146.742 37.6093 146.754 37.7163 146.718 37.8114C146.683 37.9064 146.599 38.0015 146.492 38.0134C146.338 38.0372 146.207 37.8946 146.16 37.7519C146.112 37.6093 146.112 37.4548 146.064 37.3122C146.017 37.1695 145.767 37.015 145.625 37.0388C145.506 36.2781 145.494 35.2559 145.886 34.5547Z" fill="#263238"/>
<path d="M151.175 35.0896C151.02 35.3749 150.688 35.5175 150.367 35.5175C150.046 35.5294 149.737 35.4105 149.44 35.3036C149.143 35.1847 148.334 34.9827 148.013 34.9589C147.966 34.9589 147.906 34.947 147.895 34.9113C147.859 34.8519 147.918 34.7925 147.978 34.7568C148.418 34.4716 149.452 34.3527 149.986 34.3765C150.521 34.4003 151.056 34.6855 151.306 35.1609" fill="#263238"/>
<path d="M151.033 35.1252C151.033 35.1252 150.664 34.5784 149.904 34.4833C148.822 34.3407 146.73 34.7686 145.577 36.6584C145.577 36.6584 145.411 35.8383 145.446 35.4104C145.47 35.1252 145.791 33.4374 147.586 33.0571C147.586 33.0571 150.32 32.2845 151.033 35.1252Z" fill="#455A64"/>
<path d="M145.755 36.3019C146.385 35.5056 147.193 34.8875 148.096 34.424C148.988 33.9723 150.438 33.5682 151.424 33.4018C151.721 33.3543 152.03 33.3067 152.316 33.3899C152.613 33.4612 152.886 33.6871 152.934 33.9842C152.993 34.3527 152.292 34.8638 151.971 35.0539C151.65 35.256 150.996 35.5175 150.996 35.5175C150.996 35.5175 151.068 34.8519 149.998 34.6142C148.548 34.2932 145.755 36.3019 145.755 36.3019Z" fill="#455A64"/>
<path d="M152.507 33.4374C152.507 33.4493 152.4 33.3899 152.198 33.3899C151.996 33.378 151.71 33.3899 151.354 33.4493C150.641 33.5563 149.666 33.8059 148.644 34.21C147.622 34.6141 146.79 35.1846 146.267 35.6838C146.005 35.9334 145.827 36.1711 145.72 36.3375C145.625 36.5039 145.577 36.6109 145.565 36.6109C145.565 36.6109 145.573 36.5832 145.589 36.5277C145.605 36.4801 145.637 36.4088 145.684 36.3137C145.779 36.1355 145.946 35.8859 146.207 35.6244C146.718 35.1014 147.562 34.5071 148.596 34.103C149.63 33.687 150.617 33.4493 151.342 33.3542C151.698 33.3067 151.996 33.3186 152.209 33.3423C152.305 33.3542 152.388 33.3661 152.435 33.4018C152.483 33.4176 152.507 33.4295 152.507 33.4374Z" fill="#263238"/>
<path d="M149 33.5443C149.297 33.4136 149.571 33.3661 149.856 33.3423C149.975 33.4017 150.022 33.4493 150.129 33.5443C149.582 33.5562 149.024 33.8058 149.024 33.8058L149 33.5443Z" fill="#FAFAFA"/>
<path d="M151.342 36.0286C151.307 36.1831 151.176 36.3138 151.021 36.3495C151.081 36.1237 151.045 35.886 150.926 35.6958C150.7 35.8978 150.284 35.779 150.189 35.4937C149.999 35.6601 149.643 35.5413 149.607 35.2798C149.524 35.4224 149.334 35.4937 149.179 35.4462C149.025 35.3986 148.918 35.2441 148.918 35.0777C148.692 35.1966 148.371 35.1015 148.252 34.8757L148.335 34.84C148.454 34.84 148.573 34.7687 148.668 34.6855C148.775 34.6142 148.87 34.5191 148.989 34.4953C149.12 34.4716 149.274 34.531 149.298 34.6499C149.369 34.5191 149.524 34.424 149.678 34.4121C149.845 34.4121 149.999 34.4835 150.082 34.6142C150.154 34.4121 150.32 34.2339 150.522 34.1744C150.736 34.115 150.986 34.1982 151.081 34.3884C151.188 34.5785 151.093 34.8638 150.879 34.9232C151.033 34.9351 151.176 35.0302 151.235 35.1728C151.295 35.3036 151.283 35.4818 151.2 35.6007C151.318 35.6958 151.378 35.8741 151.342 36.0286Z" fill="#263238"/>
<path d="M147.253 35.6721C147.217 35.7671 147.11 35.8503 147.003 35.8503C147.075 35.9217 147.098 36.0286 147.075 36.1118C147.051 36.2069 146.968 36.2901 146.873 36.302C146.932 36.4327 146.92 36.5873 146.825 36.6942C146.742 36.7893 146.587 36.8369 146.468 36.8012C146.48 36.9319 146.433 37.0865 146.326 37.1697C146.219 37.2529 146.124 37.2053 145.993 37.1697L145.518 36.718C145.66 36.3852 145.922 36.1118 146.219 35.8979C146.516 35.6839 146.849 35.5294 147.182 35.363C147.265 35.4344 147.289 35.5651 147.253 35.6721Z" fill="#263238"/>
<path d="M151.65 42.2563C151.65 42.2563 153.065 43.1002 153.481 43.849C153.909 44.5978 156.155 50.089 156.06 50.9804C155.965 51.8718 153.861 52.4305 153.861 52.4305L151.65 49.566L152.661 48.9717L151.65 47.0344V42.2563Z" fill="#455A64"/>
<path d="M153.861 52.4307C153.861 52.4307 148.751 53.4528 146.896 51.254L147.431 49.3879C147.431 49.3879 150.807 50.1843 151.865 49.8396L153.861 52.4307Z" fill="#FFBE9D"/>
<path d="M154.384 47.8902C154.408 47.9259 153.79 48.1873 153.148 48.6865C152.506 49.1738 152.09 49.7087 152.055 49.6849C152.043 49.673 152.138 49.5304 152.304 49.3165C152.483 49.1144 152.744 48.841 153.065 48.5796C153.398 48.33 153.731 48.1517 153.968 48.0447C154.218 47.9259 154.384 47.8783 154.384 47.8902Z" fill="#263238"/>
<path d="M152.745 48.9004C152.721 48.9123 152.531 48.4963 152.293 47.9852C152.055 47.486 151.841 47.0819 151.877 47.0581C151.901 47.0462 152.162 47.4266 152.4 47.9377C152.638 48.4487 152.78 48.8885 152.745 48.9004Z" fill="#263238"/>
<path d="M151.615 45.8222C151.532 45.3943 151.473 45.0378 151.496 45.0259C151.508 45.0259 151.603 45.3706 151.699 45.8103C151.794 46.2501 151.841 46.6067 151.817 46.6067C151.806 46.6067 151.71 46.262 151.615 45.8222Z" fill="#263238"/>
<path d="M142.653 42.9578C142.748 43.0647 144.151 43.9918 144.626 45.5845C145.089 47.1772 145.612 48.8174 145.612 48.8174L147.431 49.0551L146.409 53.2745C146.409 53.2745 144.198 53.0368 142.986 51.0281C141.761 49.0076 141.013 46.5235 141.013 46.5235C141.013 46.5235 141.167 41.4126 142.653 42.9578Z" fill="#455A64"/>
<path d="M145.66 48.7698C145.66 48.7698 145.125 48.4845 144.816 48.2944C144.507 48.0923 144.578 47.9734 144.578 47.9734C144.578 47.9734 144.436 48.0566 144.222 47.9734C144.02 47.8784 143.853 47.6644 143.853 47.6644L144.055 47.4861C143.865 47.4386 143.794 47.1177 143.794 47.1177L144.329 47.0464C144.246 46.8681 144.329 46.666 144.329 46.666C144.329 46.666 145.826 47.189 145.933 47.2128C146.028 47.2365 146.813 48.9718 146.813 48.9718L145.66 48.7698Z" fill="#FFBE9D"/>
<path fill-rule="evenodd" clip-rule="evenodd" d="M145.648 48.7698C145.648 48.7698 145.125 48.4845 144.816 48.2944C144.555 48.128 144.567 48.0091 144.567 47.9853C144.531 47.9972 144.4 48.0566 144.222 47.9734C144.02 47.8902 143.854 47.6644 143.854 47.6644L144.044 47.4861C143.865 47.4386 143.794 47.1296 143.782 47.1177V47.1058L144.317 47.0345C144.246 46.8681 144.329 46.666 144.329 46.666C144.341 46.666 145.827 47.189 145.934 47.2128C146.029 47.2365 146.777 48.9005 146.813 48.9718V48.9837L145.648 48.7698ZM144.329 47.0345L143.794 47.1058C143.806 47.1414 143.889 47.4386 144.056 47.4742L143.865 47.6525C143.877 47.6763 144.032 47.8784 144.222 47.9616C144.424 48.0448 144.579 47.9616 144.579 47.9616L144.59 47.9497L144.579 47.9616C144.579 47.9616 144.519 48.0923 144.816 48.2825C145.113 48.4726 145.636 48.746 145.648 48.7579L146.801 48.96C146.528 48.3538 146.005 47.2246 145.922 47.2128C145.827 47.189 144.412 46.6898 144.329 46.666C144.317 46.6898 144.258 46.88 144.329 47.0345Z" fill="#EB996E"/>
<path d="M145.386 47.3554C145.517 47.403 145.648 47.4386 145.767 47.4981C145.886 47.5575 145.969 47.6645 146.016 47.7595C146.088 47.9378 146.1 48.0567 146.1 48.0567C146.088 48.0567 146.052 47.9497 145.957 47.7833C145.909 47.7001 145.85 47.6169 145.731 47.5694C145.624 47.5218 145.493 47.4862 145.351 47.4267C144.804 47.2366 144.364 47.0702 144.376 47.0464C144.388 47.0345 144.828 47.1653 145.386 47.3554Z" fill="#EB996E"/>
<path d="M144.305 47.5335C144.483 47.5692 144.721 47.593 144.994 47.6643C145.255 47.7356 145.481 47.8545 145.612 47.9852C145.743 48.1041 145.79 48.211 145.778 48.2229C145.766 48.2229 145.707 48.1397 145.576 48.0327C145.446 47.9258 145.22 47.8069 144.97 47.7475C144.709 47.6762 144.471 47.6405 144.293 47.593C144.126 47.5454 144.019 47.4979 144.031 47.486C144.031 47.4741 144.138 47.4979 144.305 47.5335Z" fill="#EB996E"/>
<path d="M145.019 48.1161C144.793 48.0329 144.603 48.021 144.603 47.9973C144.603 47.9735 144.805 47.9497 145.042 48.0329C145.268 48.1161 145.411 48.2706 145.399 48.2825C145.387 48.2944 145.232 48.1874 145.019 48.1161Z" fill="#EB996E"/>
<path d="M147.277 49.5066L151.888 47.177L152.732 48.9004C152.732 48.9004 148.477 53.1079 146.492 53.0604" fill="#FFBE9D"/>
<path d="M144.602 44.9547C144.662 45.1568 144.745 45.442 144.828 45.7511C144.911 46.072 144.983 46.3572 145.03 46.5593C145.078 46.7732 145.102 46.904 145.09 46.904C145.078 46.904 145.042 46.7851 144.971 46.5831C144.911 46.381 144.828 46.0957 144.745 45.7748C144.662 45.4658 144.59 45.1805 144.543 44.9666C144.495 44.7645 144.472 44.6338 144.483 44.6338C144.495 44.6219 144.531 44.7527 144.602 44.9547Z" fill="#263238"/>
<path d="M144.698 50.2081C144.709 50.1011 144.733 49.9704 144.781 49.7921C144.84 49.6257 144.912 49.4236 145.054 49.2335C145.197 49.0433 145.423 48.865 145.696 48.8175C145.981 48.7818 146.231 48.865 146.457 48.9126C146.679 48.9601 146.881 49.0076 147.063 49.0552C147.146 49.0671 147.229 49.0908 147.289 49.1265C147.36 49.1622 147.396 49.2216 147.408 49.2691C147.443 49.3761 147.372 49.4236 147.372 49.4118C147.372 49.4118 147.419 49.3642 147.384 49.281C147.36 49.2335 147.324 49.1978 147.265 49.1622C147.205 49.1384 147.134 49.1265 147.051 49.1027C146.869 49.071 146.667 49.0314 146.445 48.9839C146.219 48.9482 145.969 48.865 145.72 48.9007C145.458 48.9482 145.256 49.1027 145.114 49.281C144.971 49.4593 144.9 49.6495 144.84 49.8159C144.733 50.1487 144.698 50.3626 144.674 50.3507C144.674 50.3507 144.674 50.3032 144.698 50.2081Z" fill="#263238"/>
<path d="M144.127 49.2096C144.187 49.0788 144.317 48.9124 144.507 48.7817C144.686 48.6628 144.876 48.5915 145.019 48.5677C145.161 48.5321 145.244 48.5321 145.256 48.544C145.256 48.5677 144.9 48.6034 144.543 48.853C144.198 49.0907 144.068 49.4473 144.056 49.4235C144.044 49.4235 144.056 49.3403 144.127 49.2096Z" fill="#263238"/>
<path d="M141.048 46.6064C141.08 46.6698 141.116 46.753 141.155 46.856C141.239 47.0699 141.357 47.379 141.5 47.7712C141.643 48.1634 141.809 48.627 142.035 49.1143C142.273 49.6016 142.534 50.1483 142.855 50.6832C143.497 51.7767 144.448 52.4898 145.196 52.8107C145.577 52.9771 145.898 53.0603 146.124 53.096C146.349 53.1435 146.48 53.1435 146.48 53.1554C146.48 53.1554 146.448 53.1554 146.385 53.1554C146.322 53.1554 146.234 53.1475 146.124 53.1316C145.886 53.096 145.553 53.0246 145.173 52.8701C144.792 52.7037 144.353 52.4541 143.937 52.0976C143.521 51.741 143.116 51.2774 142.784 50.7307C142.463 50.184 142.201 49.6372 141.964 49.1499C141.738 48.6507 141.583 48.1753 141.441 47.795C141.31 47.4027 141.203 47.0937 141.12 46.8679C141.088 46.7649 141.06 46.6817 141.036 46.6183C141.021 46.5549 141.013 46.5232 141.013 46.5232C141.013 46.5232 141.025 46.5509 141.048 46.6064Z" fill="#263238"/>
<path d="M143.128 43.3859C143.544 43.6355 143.806 43.9207 143.794 43.9326C143.782 43.9564 143.497 43.6949 143.093 43.4572C142.689 43.2195 142.332 43.0887 142.332 43.0649C142.344 43.0531 142.724 43.1482 143.128 43.3859Z" fill="#263238"/>
<path d="M146.088 54.356C146.159 54.3956 146.254 54.4352 146.373 54.4748C146.48 54.5105 146.611 54.558 146.753 54.6056C147.038 54.7007 147.395 54.7958 147.787 54.879C148.18 54.9622 148.607 55.0335 149.071 55.081C149.534 55.1167 149.974 55.1286 150.366 55.1167C150.771 55.0929 151.127 55.0572 151.424 55.0216C151.579 54.9978 151.71 54.974 151.828 54.9503C151.947 54.9344 152.05 54.9146 152.137 54.8908C152.304 54.8671 152.399 54.8433 152.399 54.8552C152.399 54.8552 152.304 54.879 152.137 54.9265C152.058 54.9503 151.959 54.974 151.84 54.9978C151.721 55.0216 151.591 55.0572 151.436 55.0691C151.139 55.1286 150.771 55.1642 150.378 55.188C149.974 55.1999 149.523 55.1999 149.059 55.1642C148.596 55.1167 148.156 55.0454 147.764 54.9622C147.371 54.8671 147.027 54.7601 146.741 54.6531C146.599 54.6175 146.468 54.558 146.349 54.5105C146.238 54.4709 146.143 54.4313 146.064 54.3916C145.909 54.3203 145.826 54.2728 145.838 54.2728C145.838 54.2609 145.921 54.2966 146.088 54.356Z" fill="#263238"/>
<path d="M150.486 56.353C150.985 56.1866 151.389 56.0321 151.401 56.0559C151.401 56.0797 151.02 56.2698 150.509 56.4362C150.01 56.6026 149.582 56.6858 149.582 56.6621C149.57 56.6383 149.986 56.5194 150.486 56.353Z" fill="#263238"/>
<g opacity="0.3">
<path d="M153.16 52.8584C152.672 53.2387 151.959 53.417 151.341 53.4051C150.782 53.3932 150.224 53.215 149.665 53.2268C149.225 53.2387 148.798 53.3695 148.37 53.4883C147.657 53.6785 146.908 53.8092 146.183 53.6785C145.446 53.5596 144.745 53.1318 144.436 52.4543C145.398 53.1318 146.718 53.2625 147.811 52.8108C148.108 52.6801 148.393 52.5018 148.726 52.4543C149.118 52.3948 149.511 52.5256 149.903 52.5969C150.985 52.8108 152.007 52.7276 153.1 52.5494L153.16 52.8584Z" fill="black"/>
</g>
<g opacity="0.3">
<path d="M151.27 56.2102C150.806 57.0065 149.939 57.5533 149.023 57.6365C148.821 57.6484 148.619 57.6484 148.429 57.5889C148.239 57.5176 148.072 57.3869 147.989 57.2086C148.191 57.066 148.441 56.9947 148.679 56.9233C149.534 56.6856 150.39 56.4519 151.246 56.2221" fill="black"/>
</g>
<path d="M152.661 48.9719C152.673 48.9719 152.59 49.0551 152.459 49.1859C152.316 49.3166 152.114 49.5068 151.889 49.7445C151.651 49.9941 151.366 50.2912 151.021 50.5884C150.688 50.8855 150.296 51.1946 149.88 51.5036C149.464 51.8245 149.06 52.1098 148.668 52.3356C148.275 52.5733 147.895 52.7397 147.574 52.8467C147.253 52.9655 146.98 53.0012 146.79 53.0368C146.599 53.0606 146.492 53.0606 146.492 53.0606C146.481 53.0368 146.908 53.0012 147.55 52.7635C147.859 52.6446 148.228 52.4782 148.608 52.2405C148.988 52.0147 149.393 51.7294 149.809 51.4085C150.213 51.0876 150.605 50.7905 150.95 50.5052C151.294 50.2081 151.579 49.9228 151.817 49.6851C152.067 49.4474 152.281 49.2691 152.423 49.1502C152.578 49.0195 152.661 48.9601 152.661 48.9719Z" fill="#EB996E"/>
</svg>
