<?xml version="1.0" encoding="UTF-8"?>
<svg width="123" height="100" viewBox="0 0 123 100" fill="none" xmlns="http://www.w3.org/2000/svg">
<path d="M110.625 56.1778H81.2656V3.43921H110.625V56.1778Z" fill="#EBEBEB"/>
<path d="M109.141 54.6154H82.4346V4.96777H109.141V54.6154Z" fill="#FAFAFA"/>
<path d="M111.861 56.6612L110.625 56.1778V2.55127H111.861V56.6612Z" fill="#E0E0E0"/>
<path d="M109.726 19.7824H82.4346V19.2542H109.726V19.7824Z" fill="#E0E0E0"/>
<path d="M109.726 31.5957H82.4346V31.0674H109.726V31.5957Z" fill="#E0E0E0"/>
<path d="M109.726 43.4204H82.4346V42.8921H109.726V43.4204Z" fill="#E0E0E0"/>
<path d="M96.4621 19.5127V56.0206H95.1133V19.5127H96.4621Z" fill="#E0E0E0"/>
<path d="M88.1895 19.5125H87.5825V4.96777H88.1895V19.5125Z" fill="#E0E0E0"/>
<path d="M93.461 19.5125H92.854V4.96777H93.461V19.5125Z" fill="#E0E0E0"/>
<path d="M98.7325 19.5125H98.1255V4.96777H98.7325V19.5125Z" fill="#E0E0E0"/>
<path d="M104.004 19.5125H103.397V4.96777H104.004V19.5125Z" fill="#E0E0E0"/>
<path d="M81.2657 56.5038H80.0181V2.55127H81.2657V56.5038Z" fill="#E0E0E0"/>
<path d="M111.861 3.43922H80.0181V2.00049H111.861V3.43922Z" fill="#E0E0E0"/>
<path d="M112.704 58.1786H79.1411V56.8298H112.704V58.1786Z" fill="#E0E0E0"/>
<path d="M110.625 56.1777L112.704 56.8297H79.1411L81.2655 56.1777H110.625Z" fill="#E0E0E0"/>
<path d="M122.236 70.3292C122.236 70.3292 122.236 70.3143 122.236 70.2843C122.236 70.2543 122.236 70.2131 122.236 70.1606C122.228 70.0482 122.225 69.8909 122.225 69.6886C122.225 69.2727 122.213 68.6769 122.213 67.9351L122.236 67.9576C120.168 67.9688 116.874 67.9688 113.165 67.9801C113.188 67.9576 113.12 68.025 113.21 67.9351V67.9463V67.9688V68.0025V68.0812V68.2386C113.21 68.3435 113.21 68.4446 113.21 68.5421C113.21 68.7444 113.21 68.9467 113.21 69.149C113.21 69.5537 113.21 69.9471 113.21 70.3292L113.165 70.2843C115.75 70.2955 118.01 70.3068 119.628 70.3068C120.437 70.3068 121.089 70.318 121.539 70.318C121.756 70.318 121.929 70.3217 122.056 70.3292C122.108 70.3292 122.153 70.3292 122.191 70.3292C122.221 70.3292 122.236 70.3292 122.236 70.3292C122.236 70.3292 122.221 70.3292 122.191 70.3292C122.161 70.3367 122.12 70.3405 122.067 70.3405C121.947 70.3405 121.779 70.3405 121.561 70.3405C121.112 70.3517 120.46 70.3517 119.662 70.3517C118.032 70.363 115.762 70.363 113.165 70.3742H113.12V70.3292C113.12 69.9471 113.12 69.5537 113.12 69.149C113.12 68.9467 113.12 68.7444 113.12 68.5421C113.12 68.4446 113.12 68.3435 113.12 68.2386V68.0812V68.0025V67.9688V67.9463V67.9351C113.21 67.8339 113.143 67.9014 113.165 67.8901C116.874 67.8901 120.168 67.9014 122.236 67.9014H122.27V67.9351C122.258 68.6882 122.247 69.2952 122.247 69.711C122.247 69.9059 122.247 70.0595 122.247 70.1719C122.24 70.2243 122.236 70.2655 122.236 70.2955C122.236 70.318 122.236 70.3292 122.236 70.3292Z" fill="#E0E0E0"/>
<path d="M120.988 20.277C120.981 20.277 120.977 20.262 120.977 20.232C120.977 20.2021 120.977 20.1608 120.977 20.1084C120.977 19.996 120.973 19.8386 120.966 19.6363C120.966 19.2204 120.966 18.6247 120.955 17.8716L120.988 17.9053C118.909 17.9053 115.616 17.9166 111.906 17.9166C111.929 17.8941 111.861 17.9615 111.951 17.8716V17.8829V17.8941V17.9166V17.9503V18.029V18.1863C111.951 18.2838 111.951 18.3849 111.951 18.4898C111.951 18.6921 111.951 18.8945 111.951 19.0968C111.951 19.4939 111.951 19.8873 111.951 20.277L111.906 20.232C114.492 20.232 116.751 20.2433 118.381 20.2545C119.179 20.2545 119.831 20.2545 120.28 20.2658C120.505 20.2658 120.677 20.2658 120.797 20.2658C120.857 20.2658 120.902 20.2658 120.932 20.2658C120.962 20.2732 120.981 20.277 120.988 20.277C120.988 20.277 120.973 20.277 120.943 20.277C120.906 20.277 120.861 20.277 120.808 20.277C120.689 20.277 120.52 20.2807 120.303 20.2882C119.853 20.2882 119.212 20.2882 118.403 20.2995C116.773 20.2995 114.503 20.3107 111.906 20.322H111.861V20.277C111.861 19.8873 111.861 19.4939 111.861 19.0968C111.861 18.8945 111.861 18.6921 111.861 18.4898C111.861 18.3849 111.861 18.2838 111.861 18.1863V18.029V17.9503V17.9166V17.8941V17.8829V17.8716C111.951 17.7817 111.895 17.8491 111.906 17.8267C115.616 17.8379 118.909 17.8379 120.988 17.8491H121.011V17.8716C121 18.6359 121 19.2317 121 19.6476C120.992 19.8499 120.988 20.0072 120.988 20.1196C120.988 20.1646 120.988 20.2021 120.988 20.232C120.988 20.262 120.988 20.277 120.988 20.277Z" fill="#E0E0E0"/>
<path d="M122.214 17.8716C122.214 17.8716 122.214 17.8566 122.214 17.8266C122.214 17.7967 122.21 17.7554 122.202 17.703C122.202 17.5831 122.202 17.422 122.202 17.2197C122.191 16.8038 122.191 16.2081 122.18 15.4774L122.214 15.5112C120.797 15.5112 118.875 15.5112 116.762 15.5224C116.717 15.5561 116.818 15.4662 116.807 15.4774V15.4887V15.5112V15.5561V15.6348V15.7922C116.807 15.8971 116.807 15.9982 116.807 16.0957C116.807 16.3055 116.807 16.5115 116.807 16.7139C116.807 17.111 116.807 17.4969 116.807 17.8716L116.762 17.8266C118.336 17.8379 119.696 17.8491 120.662 17.8491C121.146 17.8604 121.528 17.8603 121.798 17.8603C121.925 17.8678 122.026 17.8716 122.101 17.8716C122.176 17.8716 122.214 17.8716 122.214 17.8716C122.214 17.8716 122.18 17.8753 122.112 17.8828C122.038 17.8828 121.94 17.8828 121.82 17.8828C121.55 17.8828 121.168 17.8941 120.696 17.8941C119.718 17.9053 118.347 17.9053 116.762 17.9165H116.717V17.8716C116.717 17.4969 116.717 17.111 116.717 16.7139C116.717 16.5115 116.717 16.3055 116.717 16.0957C116.717 15.9982 116.717 15.8971 116.717 15.7922V15.6348V15.5561V15.5112V15.4887V15.4774C116.706 15.4887 116.807 15.3875 116.762 15.4325C118.875 15.4325 120.797 15.4325 122.214 15.4437H122.247V15.4774C122.236 16.2081 122.236 16.815 122.225 17.2421C122.225 17.437 122.225 17.5943 122.225 17.7142C122.217 17.8191 122.214 17.8716 122.214 17.8716Z" fill="#E0E0E0"/>
<path d="M79.2758 73.9034H70.2051V71.498H79.2758V73.9034Z" fill="#E0E0E0"/>
<path d="M85.7949 68.9691H76.7241V66.575H85.7949V68.9691Z" fill="#EBEBEB"/>
<path d="M81.9624 71.4983C81.9624 71.4983 81.9624 71.4833 81.9624 71.4533C81.9624 71.4233 81.9624 71.3821 81.9624 71.3297C81.9549 71.2173 81.9512 71.0599 81.9512 70.8576C81.9512 70.4417 81.9399 69.846 81.9399 69.1041L81.9624 69.1266C79.8942 69.1266 76.6009 69.1379 72.8916 69.1491C72.9141 69.1266 72.8467 69.1941 72.9366 69.1041V69.1154V69.1379V69.1716V69.2503V69.4076C72.9366 69.5125 72.9366 69.6137 72.9366 69.7111C72.9366 69.9134 72.9366 70.1157 72.9366 70.3181C72.9366 70.7227 72.9366 71.1161 72.9366 71.4983L72.8916 71.4533C75.4769 71.4646 77.7361 71.4646 79.3547 71.4758C80.164 71.4758 80.8159 71.487 81.2655 71.487C81.4828 71.487 81.6552 71.4908 81.7826 71.4983C81.835 71.4983 81.88 71.4983 81.9174 71.4983C81.9474 71.4983 81.9624 71.4983 81.9624 71.4983C81.9624 71.4983 81.9474 71.4983 81.9174 71.4983C81.8875 71.4983 81.8463 71.502 81.7938 71.5095C81.6739 71.5095 81.5053 71.5095 81.288 71.5095C80.8384 71.5095 80.1865 71.5208 79.3884 71.5208C77.7586 71.532 75.4881 71.532 72.8916 71.5432H72.8467V71.4983C72.8467 71.1161 72.8467 70.7227 72.8467 70.3181C72.8467 70.1157 72.8467 69.9134 72.8467 69.7111C72.8467 69.6137 72.8467 69.5125 72.8467 69.4076V69.2503V69.1716V69.1379V69.1154V69.1041C72.9366 69.003 72.8692 69.0704 72.8916 69.0479C76.6009 69.0592 79.8942 69.0704 81.9624 69.0704H81.9961V69.1041C81.9849 69.8572 81.9849 70.4642 81.9736 70.8801C81.9736 71.0749 81.9736 71.2285 81.9736 71.3409C81.9662 71.3934 81.9624 71.4346 81.9624 71.4646C81.9624 71.487 81.9624 71.4983 81.9624 71.4983Z" fill="#E0E0E0"/>
<path d="M9.19386 57.875C9.19386 57.875 9.19386 57.86 9.19386 57.83C9.18636 57.8 9.18262 57.7588 9.18262 57.7064C9.18262 57.594 9.18262 57.4366 9.18262 57.2343C9.17138 56.8297 9.17138 56.2339 9.16013 55.4808L9.19386 55.5033C7.12568 55.5146 3.82108 55.5146 0.123085 55.5258C0.134325 55.5033 0.0781236 55.5708 0.168045 55.4808V55.4921V55.5146V55.5595V55.627V55.7843C0.168045 55.8892 0.168045 55.9904 0.168045 56.0878C0.168045 56.2976 0.168045 56.4999 0.168045 56.6948C0.168045 57.0994 0.168045 57.4928 0.168045 57.875L0.123085 57.83C2.69707 57.8413 4.96757 57.8525 6.58615 57.8525C7.39544 57.8637 8.03612 57.8637 8.49697 57.8637C8.71428 57.8712 8.88663 57.875 9.01401 57.875C9.06647 57.875 9.11143 57.875 9.14889 57.875C9.17887 57.875 9.19386 57.875 9.19386 57.875C9.19386 57.875 9.17887 57.8787 9.14889 57.8862C9.11892 57.8862 9.07771 57.8862 9.02526 57.8862C8.89787 57.8862 8.72927 57.8862 8.51945 57.8862C8.05861 57.8975 7.41792 57.8975 6.61987 57.9087C4.99005 57.9087 2.71955 57.9199 0.123085 57.9199H0.078125V57.875C0.078125 57.4928 0.078125 57.0994 0.078125 56.6948C0.078125 56.4999 0.078125 56.2976 0.078125 56.0878C0.078125 55.9904 0.078125 55.8892 0.078125 55.7843V55.627V55.5595V55.5146V55.4921V55.4808C0.168046 55.3909 0.100605 55.4471 0.123085 55.4359C3.82108 55.4359 7.12568 55.4471 9.19386 55.4471H9.21634V55.4808C9.21634 56.2339 9.20509 56.8409 9.20509 57.2568C9.20509 57.4591 9.20135 57.6127 9.19386 57.7176C9.19386 57.7701 9.19386 57.8113 9.19386 57.8413C9.19386 57.8637 9.19386 57.875 9.19386 57.875Z" fill="#E0E0E0"/>
<path d="M10.4192 55.4807C10.4192 55.4807 10.4192 55.4657 10.4192 55.4358C10.4192 55.3983 10.4192 55.3533 10.4192 55.3009C10.4117 55.1885 10.4079 55.0311 10.4079 54.8288C10.4079 54.4017 10.3967 53.806 10.3854 53.0753L10.4192 53.1091C9.01415 53.1091 7.09209 53.1203 4.96771 53.1203C4.93399 53.1653 5.02391 53.0641 5.01267 53.0753V53.0866V53.0978V53.1203V53.154V53.2327V53.3901C5.01267 53.495 5.01267 53.5999 5.01267 53.7048C5.01267 53.9071 5.01267 54.1094 5.01267 54.3118C5.01267 54.7164 5.01267 55.1061 5.01267 55.4807L4.96771 55.4358C6.54133 55.447 7.90138 55.447 8.86803 55.4583C9.35136 55.4583 9.73352 55.4695 10.0033 55.4695C10.1307 55.4695 10.2356 55.4695 10.318 55.4695C10.3854 55.477 10.4192 55.4807 10.4192 55.4807C10.4192 55.4807 10.3854 55.4807 10.318 55.4807C10.2431 55.4807 10.1457 55.4845 10.0258 55.492C9.756 55.492 9.37384 55.492 8.90175 55.5032C7.92386 55.5032 6.55257 55.5145 4.96771 55.5257H4.92275V55.4807C4.92275 55.1061 4.92275 54.7164 4.92275 54.3118C4.92275 54.1094 4.92275 53.9071 4.92275 53.7048C4.92275 53.5999 4.92275 53.495 4.92275 53.3901V53.2327V53.154V53.1203V53.0978V53.0866V53.0753C4.91151 53.0866 5.01267 52.9854 4.96771 53.0304C7.09209 53.0416 9.01415 53.0416 10.4192 53.0416H10.4529V53.0753C10.4529 53.8172 10.4416 54.4129 10.4416 54.84C10.4342 55.0424 10.4304 55.2035 10.4304 55.3234C10.4304 55.4283 10.4267 55.4807 10.4192 55.4807Z" fill="#E0E0E0"/>
<path d="M120.078 97.4049C120.078 97.3778 93.1885 97.3506 60.0433 97.3506C26.871 97.3506 0 97.3778 0 97.4049C0 97.4321 26.871 97.4502 60.0433 97.4502C93.1885 97.4502 120.078 97.4321 120.078 97.4049Z" fill="#263238"/>
<path d="M112.165 88.9316L113.603 94.6641L116.054 98.8679C116.234 99.1714 116.11 99.5648 115.795 99.7221C115.627 99.8008 115.413 99.8008 115.244 99.7109C114.143 99.1152 110.108 96.9121 110.029 96.485C109.928 95.9904 108.096 90.539 108.096 90.539L112.165 88.9316Z" fill="#0C73E3"/>
<g opacity="0.6">
<path d="M115.233 99.7109C112.176 98.0473 110.827 97.1818 110.355 96.8559C110.175 96.7322 110.04 96.5524 109.984 96.3388L109.917 96.1028L115.795 99.7221C115.626 99.812 115.402 99.812 115.233 99.7109Z" fill="white"/>
</g>
<g opacity="0.6">
<path d="M110.58 93.9447C110.748 94.0009 110.861 94.2032 110.804 94.3718C110.748 94.5516 110.546 94.6528 110.377 94.5966C110.209 94.5404 110.074 94.3043 110.141 94.1357C110.209 93.9784 110.456 93.8547 110.613 93.9559" fill="white"/>
</g>
<path d="M113.817 97.3618C113.851 97.2269 113.941 97.0583 114.098 96.9122C114.255 96.7661 114.446 96.6986 114.581 96.6762C114.727 96.6649 114.806 96.6874 114.806 96.6986C114.806 96.7324 114.469 96.7436 114.188 97.0021C113.896 97.2606 113.851 97.5979 113.806 97.5866C113.794 97.5866 113.783 97.4967 113.817 97.3618Z" fill="#263238"/>
<path d="M114.795 97.7441C115.099 97.553 115.413 97.598 115.402 97.6317C115.402 97.6654 115.132 97.6879 114.863 97.8565C114.593 98.0251 114.458 98.2611 114.424 98.2386C114.39 98.2274 114.48 97.9352 114.795 97.7441Z" fill="#263238"/>
<path d="M113.345 96.0802C113.761 95.7543 114.21 95.7206 114.21 95.7543C114.221 95.788 113.817 95.8779 113.412 96.1814C113.019 96.4736 112.816 96.8446 112.783 96.8221C112.749 96.8108 112.906 96.395 113.345 96.0802Z" fill="#263238"/>
<path d="M112.861 94.6754C113.3 94.5293 113.671 94.6079 113.671 94.6417C113.659 94.6754 113.311 94.6641 112.906 94.799C112.502 94.9227 112.221 95.1475 112.198 95.1138C112.176 95.0913 112.434 94.8103 112.861 94.6754Z" fill="#263238"/>
<path d="M111.884 93.2364C112.008 93.1352 112.199 93.0228 112.435 92.9666C112.671 92.9104 112.884 92.9217 113.042 92.9666C113.188 93.0004 113.278 93.0566 113.266 93.0678C113.255 93.1128 112.895 92.9779 112.457 93.0903C112.019 93.1914 111.76 93.4724 111.727 93.4387C111.715 93.4275 111.771 93.3488 111.884 93.2364Z" fill="#263238"/>
<path d="M111.917 92.1012C111.827 92.0225 111.726 91.9213 111.602 91.9101C111.535 91.8989 111.49 91.9326 111.456 91.9775C111.434 92.0337 111.434 92.1124 111.456 92.1799C111.546 92.4721 111.906 92.6969 112.254 92.6407C112.614 92.5957 112.895 92.2923 112.962 91.9888C112.974 91.9213 112.962 91.8427 112.929 91.8089C112.895 91.764 112.839 91.7527 112.783 91.7752C112.659 91.8202 112.569 91.9438 112.49 92.0337C112.187 92.4271 112.142 92.7531 112.119 92.7531C112.119 92.7419 112.119 92.6632 112.153 92.5283C112.198 92.3934 112.266 92.1911 112.423 91.9775C112.502 91.8764 112.58 91.7527 112.738 91.6741C112.816 91.6403 112.951 91.6516 113.019 91.7303C113.086 91.8202 113.086 91.9213 113.075 92.0113C113.007 92.3709 112.693 92.7081 112.277 92.7756C111.85 92.8318 111.445 92.5733 111.344 92.2136C111.321 92.1237 111.31 92.0225 111.355 91.9326C111.411 91.8314 111.524 91.7865 111.614 91.7977C111.793 91.8314 111.895 91.9551 111.985 92.045C112.164 92.2361 112.254 92.4271 112.311 92.562C112.355 92.6969 112.367 92.7756 112.367 92.7756C112.333 92.7868 112.277 92.4609 111.917 92.1012Z" fill="#263238"/>
<path d="M97.5191 89.6853L97.7102 97.2049L88.3472 97.1375C88.3696 96.2495 93.1692 94.6534 93.1692 94.6534L92.8432 89.8427L97.5191 89.6853Z" fill="#0C73E3"/>
<g opacity="0.6">
<path d="M96.0465 94.1588C96.2264 94.2037 96.3613 94.406 96.3275 94.5859C96.2938 94.777 96.0915 94.9119 95.9004 94.8669C95.7206 94.8219 95.552 94.5971 95.6082 94.4173C95.6644 94.2374 95.9116 94.0913 96.0802 94.17" fill="white"/>
</g>
<g opacity="0.6">
<path d="M88.291 97.2047C88.3472 96.8338 88.6395 96.6989 88.6395 96.6989L97.6877 96.4517L97.7102 97.2047H88.291Z" fill="white"/>
</g>
<path d="M93.5516 94.6758C93.8326 94.8444 93.9113 95.1141 93.8663 95.1254C93.8326 95.1366 93.7089 94.9455 93.4729 94.8106C93.2481 94.6758 93.0121 94.6533 93.0121 94.6083C93.0008 94.5746 93.2706 94.5072 93.5516 94.6758Z" fill="#263238"/>
<path d="M92.5174 95.2491C92.7198 95.4739 92.6973 95.7436 92.6523 95.7436C92.6074 95.7436 92.5624 95.5413 92.3938 95.3502C92.2364 95.1591 92.0341 95.0917 92.0454 95.0467C92.0454 95.0018 92.3151 95.013 92.5174 95.2491Z" fill="#263238"/>
<path d="M91.3484 95.8447C91.2472 95.6424 91.1123 95.5075 91.1348 95.4738C91.1573 95.4288 91.3709 95.5187 91.4945 95.766C91.6181 96.0133 91.5619 96.2494 91.517 96.2381C91.472 96.2381 91.4608 96.047 91.3484 95.8447Z" fill="#263238"/>
<path d="M93.5514 93.3267C93.8548 93.338 94.0572 93.4953 94.0347 93.5291C94.0122 93.574 93.8099 93.4953 93.5514 93.4841C93.2928 93.4729 93.0793 93.5516 93.0568 93.5066C93.0343 93.4729 93.2479 93.3155 93.5514 93.3267Z" fill="#263238"/>
<g opacity="0.3">
<path d="M97.5528 90.6968L97.5641 91.4723L92.9668 91.6522L92.9106 90.7867L97.5528 90.6968Z" fill="black"/>
</g>
<path d="M93.4501 92.4051C93.585 92.3601 93.7423 92.304 93.8997 92.214C93.9821 92.1766 94.0645 92.1278 94.147 92.0679C94.1919 92.0454 94.2257 92.0117 94.2481 91.9892C94.2706 91.9555 94.2706 91.9555 94.2594 91.933C94.2256 91.8881 94.147 91.8993 94.0458 91.9218C93.9484 91.9443 93.8585 91.9742 93.776 92.0117C93.6187 92.0904 93.4726 92.1803 93.3714 92.259C93.1578 92.4388 93.0567 92.585 93.0342 92.5625C93.0117 92.5625 93.0792 92.3826 93.2927 92.1803C93.4051 92.0791 93.54 91.9667 93.7198 91.8768C93.8098 91.8394 93.9072 91.8056 94.0121 91.7757C94.0571 91.7532 94.1133 91.7419 94.1807 91.7419C94.2481 91.7419 94.338 91.7757 94.383 91.8431C94.4504 91.9105 94.4167 92.0342 94.3718 92.0791C94.3268 92.1353 94.2819 92.1691 94.2369 92.2028C94.147 92.2627 94.057 92.3114 93.9671 92.3489C93.7985 92.4388 93.6299 92.4838 93.4838 92.5175C93.1916 92.5737 93.0117 92.5512 93.0117 92.5288C93.0117 92.5063 93.1916 92.495 93.4501 92.4051Z" fill="#263238"/>
<path d="M93.0792 92.1466C93.068 92.0117 93.0343 91.8431 92.9668 91.6745C92.9368 91.5921 92.8956 91.5097 92.8432 91.4273C92.8095 91.3486 92.7195 91.2811 92.6746 91.2811C92.6409 91.2699 92.6071 91.3486 92.5959 91.4497C92.5809 91.5472 92.5809 91.6371 92.5959 91.7195C92.6184 91.8993 92.6858 92.0455 92.7533 92.1579C92.8994 92.3827 93.0567 92.4726 93.0455 92.4951C93.0455 92.5063 92.8544 92.4614 92.6633 92.2253C92.5734 92.1017 92.4835 91.9443 92.4498 91.742C92.4273 91.6521 92.4273 91.5397 92.4385 91.4273C92.4498 91.3711 92.4498 91.3149 92.4835 91.2587C92.506 91.1912 92.5847 91.1238 92.6746 91.1238C92.8544 91.135 92.9219 91.2587 92.9781 91.3486C93.0305 91.4385 93.0717 91.5322 93.1017 91.6296C93.1691 91.8094 93.1916 91.9893 93.1916 92.1354C93.1804 92.4389 93.0905 92.6075 93.0792 92.5962C93.0455 92.585 93.0905 92.4164 93.0792 92.1466Z" fill="#263238"/>
<path d="M92.8207 47.838L107.096 47.7368L113.986 93.0345L108.062 93.7763L100.475 56.5378L98.2047 93.9112L98.1935 94.0236L91.7979 93.9112L92.8207 47.838Z" fill="#263238"/>
<path d="M99.8795 55.0203C99.8233 54.6831 99.7783 54.2111 99.7559 53.6828C99.7446 53.1545 99.7671 52.6824 99.8008 52.3452C99.8345 51.9968 99.8683 51.7944 99.8795 51.7944C99.902 51.7944 99.8907 52.008 99.8795 52.3452C99.8683 52.6936 99.857 53.1657 99.8795 53.6828C99.8907 54.1998 99.9244 54.6719 99.9582 55.0091C99.9919 55.3463 100.014 55.5599 100.003 55.5599C99.9807 55.5599 99.9357 55.3576 99.8795 55.0203Z" fill="#455A64"/>
<path d="M98.5531 52.0305C98.4857 52.0867 98.4295 52.1766 98.4295 52.289C98.4295 52.3902 98.5194 52.4914 98.6431 52.5363C98.7667 52.5813 98.8904 52.5476 98.9578 52.4689C99.0252 52.3902 99.0365 52.2666 99.0252 52.1879C98.9915 52.008 98.8566 51.9518 98.8679 51.9406C98.8791 51.9406 98.9128 51.9406 98.9578 51.9631C99.0028 51.9968 99.0702 52.0642 99.1039 52.1654C99.1376 52.2666 99.1376 52.4127 99.0477 52.5363C98.9578 52.66 98.7667 52.7049 98.6093 52.6487C98.4407 52.6038 98.3171 52.4464 98.3283 52.289C98.3283 52.1317 98.4183 52.0193 98.5082 51.9631C98.5869 51.9069 98.6768 51.8844 98.7442 51.8956C98.8004 51.8956 98.8229 51.9181 98.8229 51.9294C98.8229 51.9406 98.688 51.9069 98.5531 52.0305Z" fill="#455A64"/>
<path d="M103.049 51.3112C103.229 51.4011 103.454 51.4685 103.712 51.536C103.971 51.5922 104.252 51.6259 104.555 51.6371C104.859 51.6259 105.14 51.5922 105.399 51.536C105.657 51.4685 105.882 51.4011 106.062 51.3112C106.421 51.1538 106.612 50.9965 106.635 51.0189C106.635 51.0189 106.59 51.0639 106.5 51.1313C106.41 51.21 106.275 51.2999 106.095 51.3899C105.916 51.4798 105.68 51.5697 105.421 51.6371C105.162 51.7046 104.87 51.7495 104.555 51.7495C104.241 51.7495 103.949 51.7046 103.69 51.6371C103.42 51.5697 103.195 51.4798 103.016 51.3899C102.836 51.2887 102.701 51.21 102.611 51.1313C102.521 51.0639 102.476 51.0189 102.476 51.0077C102.487 50.9964 102.69 51.1426 103.049 51.3112Z" fill="#455A64"/>
<path d="M94.9675 51.8395C95.6756 51.6485 96.1252 51.2213 96.1477 51.2551C96.1589 51.2663 96.0577 51.3787 95.8667 51.5361C95.6643 51.6822 95.3608 51.8508 95.0012 51.9519C94.6302 52.0643 94.2818 52.0756 94.0345 52.0531C93.7872 52.0306 93.6411 51.9857 93.6411 51.9744C93.6411 51.9295 94.2593 52.0531 94.9675 51.8395Z" fill="#455A64"/>
<path d="M111.311 91.8878C111.097 90.8762 110.805 89.3925 110.468 87.5716C109.782 83.9186 108.872 78.8718 107.905 73.2854C106.927 67.7103 106.05 62.6523 105.421 58.988C105.106 57.1671 104.848 55.6834 104.679 54.6606C104.589 54.1547 104.522 53.7501 104.477 53.4803C104.454 53.353 104.435 53.2518 104.42 53.1769C104.413 53.1019 104.409 53.0645 104.409 53.0645C104.409 53.0645 104.42 53.0982 104.443 53.1656C104.45 53.2406 104.469 53.3455 104.499 53.4803C104.544 53.7501 104.623 54.1435 104.724 54.6493C104.904 55.6834 105.174 57.1559 105.499 58.9768C106.14 62.641 107.039 67.6878 108.017 73.2742C108.995 78.8493 109.883 83.9073 110.546 87.5604C110.872 89.3813 111.153 90.8537 111.356 91.8766C111.457 92.3824 111.547 92.7758 111.614 93.0455C111.644 93.1804 111.67 93.2816 111.693 93.349C111.715 93.4165 111.738 93.4389 111.726 93.4389C111.693 93.4614 111.524 92.8994 111.311 91.8878Z" fill="#455A64"/>
<path d="M93.5402 92.8209C93.5327 92.7534 93.5289 92.6523 93.5289 92.5174C93.5289 92.2476 93.5289 91.843 93.5177 91.3372C93.5177 90.8314 93.5065 90.2019 93.5177 89.4713C93.5289 88.7519 93.5289 87.9202 93.5402 87.0097C93.5626 85.1776 93.6301 82.997 93.7313 80.5804C93.8324 78.1525 93.9785 75.4999 94.1921 72.7123C94.4057 69.9248 94.6529 67.2721 94.9115 64.8667C95.17 62.4613 95.4397 60.292 95.687 58.4823C95.7994 57.5719 95.9231 56.7513 96.0242 56.032C96.1254 55.3126 96.2266 54.6944 96.3052 54.1886C96.3839 53.694 96.4514 53.3006 96.4963 53.0309C96.5188 52.9035 96.5338 52.8023 96.5413 52.7274C96.5563 52.6599 96.5638 52.6262 96.5638 52.6262C96.5638 52.6262 96.56 52.6599 96.5525 52.7274C96.545 52.8023 96.5338 52.9035 96.5188 53.0309C96.4738 53.3006 96.4176 53.694 96.3502 54.1998C96.2828 54.7056 96.1928 55.3238 96.0917 56.0432C95.9905 56.7626 95.8781 57.5831 95.7657 58.4936C95.5297 60.3145 95.2711 62.4726 95.0126 64.8779C94.7653 67.2833 94.5181 69.936 94.3045 72.7235C94.1022 75.5111 93.9448 78.1638 93.8324 80.5804C93.7312 82.997 93.6638 85.1776 93.6301 87.0097C93.5964 87.9202 93.5964 88.7519 93.5851 89.4713C93.5739 90.2019 93.5627 90.8314 93.5627 91.3372C93.5627 91.843 93.5514 92.2476 93.5514 92.5174C93.5514 92.6523 93.5514 92.7534 93.5514 92.8209C93.5439 92.8958 93.5402 92.9333 93.5402 92.9333C93.5402 92.9333 93.5402 92.8958 93.5402 92.8209Z" fill="#455A64"/>
<path d="M78.7819 30.3821L87.7065 32.9786L92.6971 30.0337L96.485 34.5297L89.415 37.587C88.4146 38.0254 87.2569 37.9917 86.279 37.4859L77.5229 32.9786L78.7819 30.3821Z" fill="#FFBE9D"/>
<path d="M80.1303 30.573L78.0059 33.4842L77.309 32.9671C77.309 32.9671 76.3536 32.8884 75.8703 32.6411C75.387 32.3939 75.2296 32.1691 74.9149 32.0904C74.6114 32.0117 74.6114 32.0117 74.6114 32.0117C74.6114 32.0117 74.9374 33.1245 74.2405 32.9559L73.6897 31.8319L73.1727 31.7869C73.1727 31.7869 72.8017 32.776 72.3297 32.5849C72.2173 32.4276 72.1948 32.2477 72.2285 32.0679L72.3297 31.697C72.3297 31.697 71.9475 31.5958 72.0037 31.2586C72.0486 30.9326 72.5545 30.8764 72.5545 30.8764L72.9816 30.011C73.0603 29.8648 73.1951 29.7412 73.3637 29.6738L74.1843 29.359L72.2173 27.7517C72.0936 27.5157 72.3296 27.2459 72.5769 27.347L75.6455 28.9431L76.747 29.5164L80.1303 30.573Z" fill="#FAFAFA"/>
<path d="M76.7472 29.5165C76.7547 29.5165 76.7772 29.5203 76.8146 29.5278C76.8596 29.5427 76.9158 29.5615 76.9832 29.584C77.1481 29.6289 77.3729 29.6964 77.6576 29.7863C78.2421 29.9661 79.0851 30.2134 80.1417 30.5394L80.1979 30.5618L80.1642 30.5956C79.5685 31.4161 78.8491 32.4165 78.0511 33.518L78.0173 33.563L77.9724 33.5292C77.7588 33.3719 77.5228 33.192 77.2755 33.0122L77.298 33.0234C76.8484 32.9672 76.3763 32.911 75.9154 32.7199C75.6906 32.6188 75.4771 32.4727 75.2747 32.3265C75.1736 32.2591 75.0724 32.2029 74.96 32.1579C74.8476 32.1355 74.7127 32.1017 74.6003 32.068L74.6678 32.0006C74.7127 32.2029 74.7577 32.4052 74.7352 32.6413C74.724 32.7424 74.6903 32.8773 74.5891 32.956C74.4767 33.0459 74.3418 33.0347 74.2294 33.0122L74.1957 33.0009L74.1844 32.9785C74.0158 32.6188 73.8248 32.2479 73.6337 31.8657L73.6786 31.8994C73.5438 31.8769 73.3864 31.8657 73.2403 31.8432H73.1728L73.229 31.8095C73.1616 31.9893 73.0717 32.1579 72.9593 32.3153C72.8469 32.4614 72.712 32.63 72.4872 32.6637H72.4085C72.386 32.6563 72.3598 32.6488 72.3298 32.6413H72.3186H72.3073C72.3073 32.6413 72.2512 32.5963 72.2736 32.6188V32.6075L72.2511 32.5738C72.2362 32.5513 72.2249 32.5289 72.2174 32.5064C72.1725 32.4165 72.1612 32.3153 72.1612 32.2254C72.1612 32.1242 72.1837 32.0231 72.2062 31.9444L72.2736 31.6746L72.3186 31.7533C72.1949 31.7083 72.0825 31.6521 72.0151 31.5397C71.9364 31.4386 71.9252 31.2924 71.9701 31.18C72.0151 31.0564 72.1163 30.9665 72.2174 30.9215C72.3186 30.8653 72.431 30.8428 72.5434 30.8204L72.4984 30.8541C72.5958 30.6742 72.6895 30.4944 72.7794 30.3146C72.8244 30.2246 72.8694 30.1347 72.9143 30.0448C72.948 29.9549 73.0155 29.8537 73.0942 29.7863C73.1616 29.7076 73.2628 29.6514 73.3527 29.6177C73.4501 29.5877 73.5438 29.554 73.6337 29.5165C73.8135 29.4491 73.9896 29.3816 74.162 29.3142L74.1507 29.4041C73.4426 28.8309 72.7907 28.2801 72.1949 27.7855H72.1837V27.7743C72.105 27.6507 72.1387 27.4821 72.2287 27.3921C72.3186 27.291 72.476 27.2572 72.5884 27.3135H72.5996C73.8697 27.9879 74.9151 28.5274 75.6457 28.9208C75.9979 29.1081 76.2714 29.2542 76.4662 29.3592C76.5561 29.4041 76.6273 29.4416 76.6797 29.4716C76.7247 29.5015 76.7472 29.5165 76.7472 29.5165C76.7472 29.524 76.7247 29.5128 76.6797 29.4828C76.6198 29.4603 76.5449 29.4266 76.4549 29.3816C76.2526 29.2842 75.9716 29.1418 75.6119 28.9545C74.8813 28.5836 73.836 28.0441 72.5546 27.3921C72.4647 27.3584 72.3635 27.3809 72.2961 27.4483C72.2287 27.527 72.2062 27.6394 72.2624 27.7293L72.2511 27.7181C72.8581 28.2127 73.51 28.7522 74.2182 29.3254L74.2856 29.3816L74.1957 29.4154C74.0233 29.4828 73.8472 29.5502 73.6674 29.6177C73.5775 29.6551 73.4876 29.6889 73.3976 29.7188C73.3077 29.7488 73.229 29.7975 73.1616 29.865C73.0942 29.9324 73.0492 29.9998 73.0155 30.0898C72.9705 30.1797 72.9256 30.2696 72.8806 30.3595C72.7907 30.5394 72.697 30.723 72.5996 30.9103L72.5884 30.9328H72.5546C72.3636 30.9665 72.1387 31.0452 72.0713 31.2138C72.0488 31.3037 72.0488 31.4049 72.105 31.4835C72.1612 31.551 72.2511 31.6072 72.3411 31.6409L72.3973 31.6521L72.386 31.7083L72.3186 31.9669C72.2961 32.0568 72.2736 32.1355 72.2736 32.2254C72.2736 32.3041 72.2849 32.3827 72.3186 32.4614C72.3336 32.4839 72.3448 32.5026 72.3523 32.5176L72.3635 32.5401L72.3748 32.5513C72.3973 32.5738 72.3411 32.5289 72.3523 32.5289L72.3635 32.5401C72.386 32.5401 72.4048 32.5439 72.4198 32.5513H72.476C72.6333 32.5289 72.7682 32.3827 72.8694 32.2479C72.9705 32.1017 73.0604 31.9331 73.1279 31.7645L73.1391 31.7196H73.1841L73.2515 31.7308C73.3976 31.7421 73.555 31.7645 73.6899 31.7758L73.7236 31.787L73.7348 31.8095C73.9259 32.1917 74.117 32.5738 74.2856 32.9223L74.2519 32.8998C74.353 32.911 74.4542 32.9223 74.5217 32.8661C74.5779 32.8211 74.6116 32.7199 74.6228 32.6188C74.6453 32.4277 74.6003 32.2141 74.5554 32.0343L74.5329 31.9331L74.6228 31.9556C74.7465 31.9893 74.8701 32.0231 74.9937 32.0568C75.1286 32.1017 75.241 32.1692 75.3422 32.2366C75.5445 32.3827 75.7468 32.5176 75.9604 32.6188C76.3988 32.7986 76.8708 32.8661 77.3092 32.9223H77.3204L77.3317 32.9335C77.579 33.1133 77.815 33.282 78.0398 33.4506L77.9611 33.4618C78.7817 32.3603 79.501 31.3711 80.0967 30.5506L80.1192 30.618C79.0739 30.2808 78.2309 30.0111 77.6352 29.82C77.3579 29.7301 77.1406 29.6589 76.9832 29.6064C76.9083 29.5765 76.8484 29.554 76.8034 29.539C76.7659 29.5315 76.7472 29.524 76.7472 29.5165Z" fill="#263238"/>
<path d="M74.6792 32.0343C74.6792 32.0456 74.4319 32.0006 74.016 31.9444C73.6114 31.877 73.0156 31.8095 72.3188 31.7421H72.33C72.0602 31.7646 71.8692 31.4498 71.9816 31.2138C72.0715 30.9665 72.33 30.8316 72.566 30.7979C72.8358 30.7529 73.0718 30.7417 73.3191 30.6967C73.5514 30.6593 73.7762 30.6106 73.9935 30.5506C74.2108 30.4982 74.4132 30.4382 74.6005 30.3708C74.6904 30.3483 74.7803 30.3146 74.8365 30.2584C74.8927 30.2022 74.9152 30.1235 74.8815 30.0673C74.859 29.9999 74.8028 29.9437 74.7466 29.8875C74.6942 29.835 74.6417 29.7863 74.5893 29.7413C74.4993 29.6439 74.4169 29.5615 74.342 29.4941C74.2071 29.3704 74.1172 29.3254 74.1172 29.3142C74.1172 29.3142 74.2183 29.3479 74.3757 29.4603C74.4506 29.5203 74.5368 29.5952 74.6342 29.6851C74.6867 29.7376 74.7391 29.7863 74.7916 29.8313C74.8478 29.8875 74.9152 29.9437 74.9602 30.0336C75.0051 30.1235 74.9827 30.2471 74.8927 30.3146C74.8253 30.3933 74.7241 30.4382 74.6342 30.4719C74.4469 30.5394 74.2446 30.6031 74.0273 30.663C73.8099 30.7155 73.5776 30.7642 73.3304 30.8091C73.0943 30.8541 72.8358 30.8653 72.5885 30.9103C72.3637 30.944 72.1614 31.0564 72.0827 31.2475C72.004 31.4274 72.1614 31.6634 72.3188 31.6409H72.33C73.0269 31.7084 73.6226 31.7983 74.0273 31.877C74.2408 31.9107 74.3982 31.9556 74.5106 31.9781C74.623 32.0118 74.6792 32.0231 74.6792 32.0343Z" fill="#263238"/>
<path d="M74.6001 30.4608C74.6001 30.4945 74.3416 30.5507 74.0156 30.5394C73.892 30.5282 73.7908 30.517 73.7009 30.4945L73.7571 30.4608C73.6897 30.6181 73.6335 30.7193 73.611 30.708C73.5997 30.6968 73.611 30.5956 73.656 30.427L73.6672 30.3933L73.7122 30.4046C73.8358 30.4046 73.9257 30.4158 74.0156 30.4158C74.3304 30.4383 74.5889 30.427 74.6001 30.4608Z" fill="#263238"/>
<path d="M97.9349 33.6866L93.0118 36.4854L88.9878 31.1801L94.7315 26.7627L97.9349 33.6866Z" fill="#0C73E3"/>
<path d="M94.7313 26.7627C95.5631 26.2569 98.4406 25.6275 98.4406 25.6275L104.004 25.0205L108.826 27.2348L106.848 35.5413L108.579 51.1875L92.0225 52.0867L94.7313 26.7627Z" fill="#0C73E3"/>
<path d="M104.185 34.4849H101.33V33.7094H104.185V34.4849Z" fill="#FAFAFA"/>
<path fill-rule="evenodd" clip-rule="evenodd" d="M104.196 34.4849H101.33V33.7094H104.196V34.4849ZM101.341 34.4737H104.185V33.7094H101.341V34.4737Z" fill="#263238"/>
<path d="M94.046 31.5734C94.0123 31.5734 93.9674 31.0001 93.9561 30.292C93.9449 29.5951 93.9673 29.0219 93.9898 29.0219C94.0235 29.0219 94.0685 29.5951 94.0798 30.292C94.091 31.0001 94.0685 31.5734 94.046 31.5734Z" fill="#263238"/>
<path d="M104.476 17.3993L103.858 26.0205C103.768 27.4255 102.588 28.5158 101.183 28.5158C99.6318 28.5158 98.3953 27.212 98.4965 25.6608C98.5527 24.8403 98.5977 24.1659 98.5977 24.1659C98.5977 24.1659 96.5183 23.8399 96.4958 21.7493C96.4733 20.5466 96.6869 17.8152 96.8667 15.7246C96.9791 14.2971 98.1706 13.218 99.5868 13.218H100.846C103.015 13.3417 104.656 15.2412 104.476 17.3993Z" fill="#FFBE9D"/>
<path d="M98.5977 24.132C98.5977 24.132 99.9128 24.2444 101.318 23.3564C101.318 23.3564 100.677 24.8626 98.5977 24.6715V24.132Z" fill="#EB996E"/>
<path d="M97.5974 18.0848C97.7548 18.0961 97.8897 18.2309 97.8784 18.3883C97.8784 18.5457 97.7323 18.6693 97.575 18.6581C97.4064 18.6468 97.2827 18.5119 97.2827 18.3546C97.294 18.1972 97.4288 18.0736 97.5974 18.0848Z" fill="#263238"/>
<path d="M97.3388 17.6466C97.4287 17.5679 97.5973 17.5005 97.7996 17.5005C98.0019 17.5005 98.1705 17.5679 98.2717 17.6466C98.3729 17.7141 98.4066 17.7927 98.3954 17.804C98.3616 17.8489 98.1256 17.6803 97.7996 17.6803C97.4849 17.6803 97.2601 17.8489 97.2264 17.8152C97.2039 17.7927 97.2376 17.7253 97.3388 17.6466Z" fill="#263238"/>
<path d="M100.677 18.0847C100.834 18.0959 100.969 18.2308 100.958 18.3882C100.958 18.5455 100.823 18.6692 100.654 18.6579C100.497 18.6467 100.362 18.5118 100.373 18.3545C100.373 18.1971 100.508 18.0735 100.677 18.0847Z" fill="#263238"/>
<path d="M100.486 17.7028C100.587 17.6353 100.756 17.5566 100.947 17.5566C101.149 17.5566 101.318 17.6241 101.419 17.7028C101.531 17.7814 101.565 17.8489 101.542 17.8714C101.509 17.9051 101.273 17.7365 100.958 17.7477C100.632 17.7477 100.407 17.9051 100.373 17.8714C100.351 17.8489 100.385 17.7814 100.486 17.7028Z" fill="#263238"/>
<path d="M98.7098 20.164C98.6761 20.164 98.6199 20.164 98.575 20.1528C98.5188 20.1303 98.4626 20.0854 98.4401 20.0292C98.3951 19.9055 98.4513 19.8044 98.485 19.7032C98.5525 19.5084 98.6274 19.3023 98.7098 19.085C99.047 18.197 99.3505 17.4889 99.3842 17.5001C99.418 17.5114 99.1819 18.242 98.8447 19.1299C98.7548 19.3473 98.6724 19.5533 98.5974 19.7482C98.5637 19.8493 98.53 19.9392 98.5412 19.9954C98.5637 20.0516 98.6312 20.0629 98.7211 20.0741C99.0358 20.1191 99.2381 20.1528 99.2381 20.164C99.2381 20.1865 99.0358 20.1865 98.7098 20.164Z" fill="#263238"/>
<path d="M100.486 16.5899C100.621 16.5337 100.823 16.4999 101.059 16.5224C101.284 16.5561 101.475 16.6348 101.599 16.7135C101.722 16.8034 101.767 16.8821 101.745 16.9158C101.7 16.9945 101.396 16.8933 101.014 16.8484C100.643 16.8034 100.317 16.8484 100.295 16.7585C100.272 16.7135 100.351 16.6461 100.486 16.5899Z" fill="#263238"/>
<path d="M97.3274 16.9948C97.4173 16.9273 97.5747 16.8599 97.7545 16.8486C97.9456 16.8486 98.103 16.9048 98.2041 16.9723C98.294 17.0397 98.3278 17.1072 98.3053 17.1521C98.2603 17.2196 98.0355 17.1634 97.7657 17.1746C97.5072 17.1746 97.2824 17.2533 97.2262 17.1858C97.2037 17.1521 97.2262 17.0734 97.3274 16.9948Z" fill="#263238"/>
<path d="M103.768 18.9728C103.802 18.9504 105.207 18.5457 105.162 19.9732C105.106 21.4007 103.689 21.0523 103.689 21.0185C103.689 20.9736 103.768 18.9728 103.768 18.9728Z" fill="#FFBE9D"/>
<path d="M104.139 20.4902C104.15 20.4902 104.162 20.5127 104.207 20.5239C104.252 20.5464 104.319 20.5689 104.386 20.5352C104.544 20.4902 104.679 20.2542 104.69 19.9957C104.701 19.8608 104.679 19.7371 104.634 19.636C104.6 19.5348 104.533 19.4561 104.454 19.4449C104.375 19.4224 104.319 19.4674 104.308 19.5011C104.285 19.5461 104.297 19.5685 104.285 19.5798C104.285 19.5798 104.252 19.5461 104.274 19.4899C104.274 19.4674 104.297 19.4337 104.33 19.3999C104.364 19.3775 104.409 19.3662 104.465 19.3662C104.578 19.3775 104.667 19.4899 104.724 19.6023C104.769 19.7147 104.802 19.8608 104.791 19.9957C104.78 20.2879 104.622 20.5577 104.409 20.6026C104.308 20.6251 104.229 20.5914 104.184 20.5577C104.139 20.5239 104.139 20.4902 104.139 20.4902Z" fill="#EB996E"/>
<path d="M104.566 18.9167C104.341 18.8718 103.97 19.0629 103.881 19.2764C103.779 19.4787 103.757 19.7036 103.667 19.9059C103.577 20.1194 103.363 20.2993 103.15 20.2431C103.004 20.2094 102.891 20.0745 102.858 19.9171C102.813 19.771 102.824 19.6136 102.846 19.4563C102.936 18.7931 103.071 18.1299 103.105 17.4668C103.127 16.7924 103.026 16.0955 102.678 15.5222C102.329 14.949 101.677 14.5331 101.014 14.5893C100.565 14.623 100.16 14.8478 99.7217 14.9153C99.1934 14.9827 98.6426 14.8029 98.2717 14.4319C98.2267 14.387 98.002 14.2409 98.002 14.2409C98.002 14.2071 98.0357 13.9037 98.1481 13.7913C99.0248 12.982 100.598 12.7572 101.756 13.0494C102.903 13.3416 103.993 14.1622 104.487 15.2412C104.982 16.3203 104.836 17.8265 104.566 18.9167Z" fill="#263238"/>
<path d="M102.183 12.8024C104.78 13.6004 105.038 16.1295 105.038 16.5566C105.038 17.186 104.679 18.3775 104.679 18.3775C102.307 13.6342 96.833 15.3989 96.833 15.3989C98.2605 11.3075 102.183 12.8024 102.183 12.8024Z" fill="#0C73E3"/>
<path d="M101.543 15.5113C101.351 15.826 101.003 16.0396 100.632 16.0733C100.272 16.107 99.8902 15.9609 99.643 15.6911C99.5418 15.9609 99.2496 16.1407 98.9573 16.1295C98.6651 16.107 98.3953 15.8934 98.3166 15.6237C98.1593 15.7698 97.9907 15.9272 97.7883 16.0058C97.5748 16.0845 97.3162 16.0508 97.1814 15.8822C97.0352 15.7024 97.0802 15.4326 97.2151 15.2527C97.35 15.0729 97.5635 14.9605 97.7658 14.8818C98.4178 14.6121 99.1371 14.4659 99.834 14.5671C100.531 14.657 101.217 14.9942 101.644 15.5562" fill="#263238"/>
<g opacity="0.4">
<path d="M102.183 12.8024C104.78 13.6004 105.038 16.1295 105.038 16.5566C105.038 17.186 104.679 18.3775 104.679 18.3775C103.217 15.4438 100.194 14.5334 98.5752 14.6121C97.4625 14.657 96.833 15.3989 96.833 15.3989C98.2605 11.3075 102.183 12.8024 102.183 12.8024Z" fill="black"/>
</g>
<path d="M98.4291 14.7807C96.8218 14.9943 96.8331 15.9946 96.8331 15.9946C96.8331 15.9946 95.9226 15.5113 95.473 15.1854C95.0122 14.8594 94.0567 14.0164 94.1916 13.4769C94.304 13.0497 94.7311 12.7575 95.1695 12.6788C95.6079 12.6001 96.0575 12.7013 96.4846 12.8137C97.9233 13.1959 100.003 13.9714 101.262 14.7582C102.521 15.545 103.645 16.5791 104.454 17.8155C104.454 17.8155 100.61 14.4997 98.4291 14.7807Z" fill="#0C73E3"/>
<path d="M99.9579 13.7241C99.9579 13.7241 99.1711 13.2857 98.3843 13.1845C98.5416 13.0721 98.6316 13.0159 98.8114 12.926C99.2161 13.0159 99.6319 13.1171 100.048 13.3419L99.9579 13.7241Z" fill="#E0E0E0"/>
<path d="M104.139 19.0184C104.139 19.0296 104.026 19.0971 103.846 19.2432C103.61 19.4118 103.374 19.5804 103.127 19.7715C102.565 20.1761 102.093 20.5021 102.071 20.4684C102.059 20.4459 102.486 20.0862 103.06 19.6703C103.61 19.2544 104.116 18.9734 104.139 19.0184Z" fill="#EBEBEB"/>
<path d="M104.285 21.0978C104.308 21.1202 103.993 21.5923 103.442 22.0532C102.914 22.514 102.386 22.75 102.374 22.7276C102.352 22.6938 102.846 22.4128 103.375 21.9632C103.903 21.5136 104.263 21.0753 104.285 21.0978Z" fill="#EBEBEB"/>
<path d="M96.4396 20.4121C96.4396 20.4121 97.0016 20.5694 97.1477 20.5582C98.1818 20.502 98.5527 20.1536 100.239 20.5132C100.508 20.5807 100.789 20.5807 101.07 20.547C101.307 20.502 101.666 20.4683 102.071 20.4683L102.397 22.7275C102.397 22.7275 100.396 24.481 98.5977 24.2787C96.2597 24.0314 95.99 21.3113 96.4396 20.4121Z" fill="#FAFAFA"/>
<path d="M96.4394 20.4121C96.4394 20.4121 96.4169 20.4683 96.3832 20.5695C96.3382 20.6819 96.3045 20.8505 96.282 21.064C96.2483 21.4912 96.2708 22.1543 96.608 22.8625C96.7766 23.1997 97.0351 23.5594 97.4061 23.8179C97.777 24.0876 98.2603 24.245 98.7773 24.2675C99.2832 24.29 99.8227 24.1663 100.34 23.9528C100.857 23.7504 101.374 23.4582 101.857 23.121C102.037 22.9861 102.217 22.8512 102.385 22.7051L102.374 22.7276C102.262 21.9408 102.161 21.1765 102.059 20.4796L102.071 20.4908C101.655 20.4908 101.261 20.5358 100.879 20.5807C100.684 20.5957 100.497 20.5882 100.317 20.5582C100.137 20.5245 99.9688 20.4796 99.8002 20.4571C99.463 20.4009 99.137 20.3672 98.8335 20.3784C98.5413 20.3784 98.2603 20.4234 98.013 20.4683C97.7657 20.502 97.5409 20.547 97.3499 20.5582C97.2487 20.5582 97.1588 20.5807 97.0689 20.5695C96.9864 20.5545 96.9115 20.5395 96.8441 20.5245C96.5743 20.4571 96.4394 20.4121 96.4394 20.4121C96.4394 20.3672 97.0127 20.6931 98.013 20.4346C98.2603 20.3896 98.5301 20.3447 98.8335 20.3447C99.137 20.3334 99.463 20.3672 99.8002 20.4234C99.9688 20.4458 100.149 20.4796 100.328 20.5133C100.508 20.5433 100.692 20.5545 100.879 20.547C101.261 20.4908 101.655 20.4458 102.071 20.4458H102.093V20.4683C102.206 21.1765 102.307 21.9295 102.419 22.7276L102.43 22.7388H102.419C102.251 22.8849 102.071 23.0198 101.88 23.1547C101.396 23.4919 100.879 23.7842 100.362 23.9977C99.8339 24.2113 99.2944 24.3349 98.7661 24.3124C98.2491 24.2787 97.7657 24.1214 97.3836 23.8516C97.0127 23.5818 96.7541 23.2222 96.5743 22.8737C96.2483 22.1543 96.2259 21.4912 96.2596 21.064C96.2933 20.8392 96.327 20.6819 96.372 20.5695C96.4169 20.4646 96.4394 20.4121 96.4394 20.4121Z" fill="#263238"/>
<path d="M96.6304 21.7269C98.1815 22.5025 100.115 22.4575 101.632 21.637C101.317 21.9966 101.003 22.3788 100.564 22.5924C100.081 22.8509 99.4966 22.8621 98.9458 22.8621C98.5075 22.8621 98.0466 22.8509 97.6532 22.6486C97.2486 22.4463 96.9563 22.0753 96.6866 21.7156" fill="#E0E0E0"/>
<path d="M101.396 21.1538C101.396 21.1651 101.16 21.2438 100.745 21.3224C100.34 21.4124 99.7779 21.4798 99.1484 21.5135C98.519 21.5248 97.9457 21.491 97.5298 21.4348C97.1252 21.3899 96.8779 21.3337 96.8779 21.3112C96.8779 21.3 97.1364 21.3224 97.5411 21.3562C97.957 21.3899 98.519 21.4124 99.1372 21.3899C99.7666 21.3674 100.329 21.3 100.733 21.2438C101.138 21.1876 101.396 21.1426 101.396 21.1538Z" fill="#E0E0E0"/>
<path d="M101.778 22.0981C101.79 22.0981 101.643 22.3004 101.34 22.5365C101.036 22.7837 100.564 23.076 99.9911 23.2333C99.4066 23.3907 98.8558 23.3907 98.4737 23.3345C98.0803 23.2783 97.8555 23.1884 97.8555 23.1771C97.8667 23.1659 98.1028 23.2221 98.4737 23.2558C98.8558 23.2895 99.3954 23.2783 99.9574 23.1209C100.519 22.9636 100.98 22.7051 101.295 22.4803C101.598 22.2555 101.767 22.0756 101.778 22.0981Z" fill="#E0E0E0"/>
<path d="M101.823 21.5697C101.823 21.5809 101.756 21.6259 101.643 21.6933C101.52 21.7608 101.34 21.8507 101.115 21.9406C100.879 22.0305 100.598 22.1092 100.283 22.1767C99.9575 22.2441 99.5978 22.2891 99.2268 22.3003C98.8447 22.3003 98.485 22.2666 98.1703 22.2104C97.8443 22.1542 97.5633 22.0755 97.3273 21.9968C97.1025 21.9181 96.9114 21.8282 96.799 21.772C96.6753 21.7046 96.6079 21.6596 96.6079 21.6596C96.6192 21.6371 96.8889 21.772 97.361 21.9181C97.5858 21.9856 97.8668 22.053 98.1815 22.1092C98.5075 22.1542 98.8559 22.1879 99.2268 22.1767C99.5978 22.1767 99.9462 22.1317 100.261 22.0755C100.576 22.0081 100.857 21.9406 101.081 21.8619C101.542 21.7046 101.812 21.5585 101.823 21.5697Z" fill="#263238"/>
<path d="M100.137 21.5809C100.148 21.6034 99.5527 21.7158 98.8109 21.682C98.0578 21.6483 97.4733 21.5022 97.4845 21.4685C97.4845 21.4348 98.0803 21.5359 98.8109 21.5584C99.5415 21.5921 100.137 21.5472 100.137 21.5809Z" fill="#263238"/>
<path d="M75.3198 49.6026V31.3711H100.678V49.6026L87.2343 49.715L75.3198 49.6026Z" fill="#0C73E3"/>
<g opacity="0.4">
<path d="M100.678 31.3711V49.6026H75.3198V31.3711H100.678Z" fill="black"/>
</g>
<path d="M87.2343 49.715L75.3198 49.6026V31.3711H87.2006L87.2343 49.715Z" fill="#0C73E3"/>
<path d="M81.7494 34.5408H80.1646V31.3711H81.7494V34.5408Z" fill="#263238"/>
<path d="M79.3103 48.7258H76.1631V45.5786H79.3103V48.7258Z" fill="#FAFAFA"/>
<path fill-rule="evenodd" clip-rule="evenodd" d="M79.3216 48.7371H76.1631V45.5786H79.3216V48.7371ZM76.1743 48.7258H79.3103V45.5899H76.1743V48.7258Z" fill="#263238"/>
<path d="M110.94 35.0356L111.367 40.9704C111.446 42.1844 110.513 43.0049 109.434 43.5556L100.486 47.1637L99.2725 44.4773L107.129 39.8015L106.612 35.5639L110.94 35.0356Z" fill="#FFBE9D"/>
<path d="M108.826 27.2351C108.826 27.2351 109.939 28.0669 110.265 29.7866C110.557 31.4389 111.58 36.0249 111.58 36.0249L106.196 36.6656V35.4067C106.185 35.3842 105.69 33.035 105.69 33.035L106.702 29.7866L108.826 27.2351Z" fill="#0C73E3"/>
<path d="M111.367 36.0473C111.378 36.0586 111.243 36.081 111.007 36.1148C110.748 36.1485 110.4 36.1934 109.995 36.2496C109.141 36.362 107.961 36.5194 106.657 36.6655C106.5 36.688 106.342 36.7105 106.196 36.7217L106.14 36.733V36.6655C106.05 35.4628 105.949 34.395 105.87 33.6307C105.837 33.2598 105.814 32.9563 105.792 32.7202C105.769 32.5067 105.758 32.3943 105.769 32.3943C105.78 32.3943 105.792 32.5067 105.825 32.7202C105.859 32.9338 105.904 33.2373 105.949 33.6195C106.05 34.3838 106.162 35.4628 106.252 36.6655L106.185 36.6093C106.331 36.5868 106.488 36.5756 106.646 36.5531C107.95 36.3958 109.13 36.2609 109.984 36.171C110.4 36.126 110.737 36.0923 110.996 36.0698C111.243 36.0473 111.367 36.0361 111.367 36.0473Z" fill="#263238"/>
<path d="M108.388 27.5273C108.388 27.5497 108.186 27.6284 107.893 27.8195C107.59 27.9993 107.208 28.3028 106.859 28.7075C106.511 29.1121 106.286 29.5505 106.151 29.8764C106.028 30.2024 105.971 30.416 105.949 30.4047C105.938 30.4047 105.96 30.1799 106.073 29.8427C106.185 29.5055 106.41 29.0559 106.769 28.6288C107.118 28.2129 107.534 27.9094 107.848 27.7408C108.163 27.5722 108.377 27.516 108.388 27.5273Z" fill="#263238"/>
<path d="M100.677 47.2086C99.4409 47.8718 98.2495 48.771 97.0918 49.8613C97.0918 49.8613 96.7658 50.3334 96.541 50.4458C96.3836 50.5132 94.1131 50.3896 94.1131 50.3896L93.2926 50.9628C93.169 51.064 92.9891 51.064 92.8767 50.9516C92.7643 50.8504 92.6969 50.6593 92.888 50.3109C93.2814 49.614 95.5069 46.7028 95.5069 46.7028C95.5069 46.7028 95.9565 45.6462 95.4619 45.5113C94.9674 45.3765 93.3488 45.7137 93.3488 44.8594L93.3938 44.7695L94.9674 44.4211L97.4964 44.5784L97.991 44.7695L99.1487 44.2412L100.677 47.2086Z" fill="#FAFAFA"/>
<path d="M99.1486 44.2411C99.1486 44.2336 99.1561 44.2486 99.1711 44.2861C99.1936 44.3235 99.2198 44.3722 99.2498 44.4322C99.3247 44.5671 99.4296 44.7581 99.5645 45.0054C99.8343 45.5337 100.228 46.2756 100.711 47.1972L100.722 47.231L100.688 47.2422C99.6094 47.8267 98.373 48.7147 97.1254 49.8949L97.1366 49.8836C96.9793 50.0859 96.8331 50.2995 96.6083 50.4681C96.5746 50.4906 96.5297 50.5018 96.4959 50.5018L96.3948 50.5131H96.1925C96.0576 50.5206 95.9227 50.5206 95.7878 50.5131C95.2483 50.5018 94.6863 50.4794 94.113 50.4456L94.1468 50.4344C93.9744 50.5543 93.7983 50.6779 93.6185 50.8053L93.3487 51.0076C93.2476 51.0751 93.1127 51.12 92.9778 51.0751C92.8541 51.0414 92.753 50.929 92.7193 50.8053C92.6968 50.6704 92.7193 50.5468 92.7642 50.4344C92.8541 50.2096 93.0003 50.0298 93.1239 49.8387C93.9107 48.7147 94.7088 47.6581 95.4618 46.669V46.6802C95.518 46.5341 95.5743 46.3655 95.608 46.2081C95.6417 46.0507 95.6642 45.8934 95.6192 45.7473C95.608 45.6798 95.563 45.6236 95.5068 45.5899C95.4506 45.5562 95.3832 45.5449 95.3045 45.5337C95.1471 45.5225 94.9898 45.5225 94.8324 45.5225C94.5177 45.5225 94.2142 45.5225 93.9107 45.455C93.7646 45.4213 93.6072 45.3763 93.4836 45.2752C93.3599 45.174 93.3038 45.0054 93.3038 44.8593V44.8481V44.8368C93.3187 44.8068 93.3337 44.7769 93.3487 44.7469L93.36 44.7244L93.3824 44.7132C93.9444 44.5933 94.4727 44.4809 94.9673 44.376H94.9785C95.9789 44.4434 96.8332 44.4996 97.4963 44.5446H97.5076C97.6986 44.6233 97.856 44.6907 98.0021 44.7469H97.9796C98.3543 44.582 98.6428 44.4547 98.8451 44.3647C98.9425 44.3198 99.0175 44.286 99.0699 44.2636C99.1224 44.2411 99.1486 44.2336 99.1486 44.2411C99.1486 44.2411 99.1224 44.2523 99.0699 44.2748C99.01 44.3048 98.9351 44.3423 98.8451 44.3872C98.6503 44.4771 98.3693 44.612 98.0021 44.7919H97.9909H97.9796C97.8335 44.7357 97.6761 44.6795 97.4851 44.6008H97.4963C96.8219 44.5671 95.9789 44.5109 94.9673 44.4547H94.9785C94.4915 44.5671 93.9669 44.687 93.4049 44.8143L93.4386 44.7919C93.4236 44.8143 93.4087 44.8443 93.3937 44.8818V44.8593C93.4049 44.9829 93.4499 45.1066 93.551 45.1965C93.6522 45.2864 93.7871 45.3201 93.9332 45.3539C94.2142 45.4213 94.5177 45.4213 94.8324 45.4213C94.9898 45.4213 95.1471 45.4101 95.3157 45.4325C95.3944 45.4325 95.4731 45.4438 95.563 45.4887C95.6529 45.5449 95.7091 45.6349 95.7316 45.7135C95.7766 45.8934 95.7429 46.0732 95.7204 46.2306C95.6829 46.4029 95.6305 46.5678 95.563 46.7252V46.7364H95.5518C94.8099 47.7255 94.0006 48.7821 93.2251 49.9061C93.1014 50.0972 92.9553 50.277 92.8766 50.4794C92.8317 50.5805 92.8092 50.6817 92.8317 50.7716C92.8542 50.8615 92.9216 50.9402 93.0115 50.9627C93.1014 50.9964 93.2026 50.9739 93.2813 50.9065L93.551 50.7154C93.7309 50.588 93.9107 50.4606 94.0906 50.3332L94.1018 50.322L94.1243 50.3332C94.6863 50.3557 95.2483 50.3894 95.7878 50.4007C95.9227 50.4082 96.0576 50.4119 96.1925 50.4119L96.3835 50.4007H96.4735C96.4959 50.3894 96.5184 50.3894 96.5521 50.3782C96.7432 50.2321 96.9006 50.0185 97.0467 49.8274V49.8162C98.3168 48.636 99.5645 47.748 100.655 47.1748L100.644 47.231C100.171 46.3093 99.8005 45.5674 99.542 45.0504C99.4146 44.7956 99.3172 44.597 99.2498 44.4547C99.2123 44.3872 99.1861 44.3348 99.1711 44.2973C99.1561 44.2598 99.1486 44.2411 99.1486 44.2411Z" fill="#263238"/>
<path d="M96.2487 48.4225C96.2712 48.445 95.7991 48.8946 95.2146 49.4341C94.9224 49.7039 94.6526 49.9512 94.4503 50.1198C94.2592 50.2884 94.1244 50.3895 94.1131 50.3895C94.0906 50.3558 94.5402 49.895 95.136 49.3442C95.7205 48.8047 96.2263 48.4 96.2487 48.4225Z" fill="#263238"/>
<path d="M96.9345 48.9845C96.9682 49.0069 96.6872 49.3779 96.2826 49.7825C95.8892 50.1759 95.5295 50.4794 95.507 50.4457C95.4845 50.4232 95.7992 50.0972 96.2039 49.6926C96.5973 49.2992 96.912 48.962 96.9345 48.9845Z" fill="#263238"/>
<path d="M9.16267 97.2834L6.93712 97.2047C5.12746 97.2384 3.92477 96.3055 3.10424 94.9454C2.87944 94.5633 2.66588 94.1474 2.6434 93.6978C2.56472 92.6412 3.48641 91.7195 3.43021 90.663C3.37401 89.4153 2.00271 88.5948 1.69923 87.3808C1.44071 86.3243 2.04767 85.2115 1.87907 84.1324C1.76667 83.4693 1.38451 82.8848 1.06978 82.2891C0.294214 80.8054 -0.0767091 79.1081 0.0132118 77.4446C1.33955 78.8384 2.28372 80.5918 2.71084 82.4689C2.78952 82.8398 2.85696 83.222 3.07052 83.5367C3.47517 84.1324 4.28445 84.3235 4.7453 84.8743C5.52087 85.8297 4.90266 87.2909 5.36351 88.4374C5.64451 89.1343 6.28519 89.6064 6.82472 90.1347C7.35301 90.6742 7.83633 91.4048 7.64525 92.1354L9.16267 97.2834Z" fill="#0C73E3"/>
<g opacity="0.3">
<path d="M9.16267 97.2834L6.93712 97.2047C5.12746 97.2384 3.92477 96.3055 3.10424 94.9454C2.87944 94.5633 2.66588 94.1474 2.6434 93.6978C2.56472 92.6412 3.48641 91.7195 3.43021 90.663C3.37401 89.4153 2.00271 88.5948 1.69923 87.3808C1.44071 86.3243 2.04767 85.2115 1.87907 84.1324C1.76667 83.4693 1.38451 82.8848 1.06978 82.2891C0.294214 80.8054 -0.0767091 79.1081 0.0132118 77.4446C1.33955 78.8384 2.28372 80.5918 2.71084 82.4689C2.78952 82.8398 2.85696 83.222 3.07052 83.5367C3.47517 84.1324 4.28445 84.3235 4.7453 84.8743C5.52087 85.8297 4.90266 87.2909 5.36351 88.4374C5.64451 89.1343 6.28519 89.6064 6.82472 90.1347C7.35301 90.6742 7.83633 91.4048 7.64525 92.1354L9.16267 97.2834Z" fill="black"/>
</g>
<path d="M9.7692 97.3508C9.87036 97.3396 10.0277 97.3396 10.23 97.3058C10.4211 97.2721 10.6684 97.2159 10.9382 97.1148C11.2079 97.0024 11.5227 96.8562 11.8149 96.6202C11.9498 96.4965 12.0847 96.3392 12.1521 96.1481C12.2308 95.957 12.242 95.7322 12.2533 95.5074C12.2645 95.2714 12.2533 95.0241 12.2982 94.7768C12.3319 94.5183 12.4331 94.2598 12.568 94.035C12.8378 93.5516 13.2649 93.1245 13.3885 92.5288C13.5346 91.9331 13.4335 91.2811 13.3211 90.6067C13.2199 89.9436 13.1075 89.1905 13.366 88.4711C13.6133 87.7517 14.0966 87.1223 14.3327 86.358C14.5575 85.6049 14.4563 84.7619 14.5013 83.8964C14.5238 83.4693 14.6024 83.0309 14.7935 82.615C14.9846 82.2104 15.2319 81.8394 15.423 81.4348C15.8051 80.6255 15.8726 79.6926 15.9737 78.7596C16.0262 78.2876 16.0787 77.8117 16.1311 77.3322C16.1873 76.8601 16.2323 76.3655 16.3896 75.8822C16.5245 75.4101 16.7268 74.9492 16.9179 74.4884C17.0191 74.2636 17.1202 74.0388 17.1764 73.8028C17.2102 73.5667 17.2214 73.3082 17.2439 73.0609C17.2664 72.5514 17.2439 72.0456 17.1764 71.5435C17.1202 71.0377 17.0303 70.5206 16.9741 70.0036C16.9666 69.9736 16.9629 69.9437 16.9629 69.9137L17.064 69.9699C16.6144 70.1947 16.221 70.5319 15.9175 70.9365C15.6141 71.3412 15.378 71.7908 15.1982 72.2629C14.8385 73.1958 14.7036 74.1849 14.5125 75.1516C14.3214 76.107 14.0854 77.0736 13.5796 77.8829C13.3211 78.2876 13.0288 78.6585 12.7703 79.0294C12.523 79.4116 12.3095 79.8162 12.242 80.2433C12.1071 81.1201 12.6242 81.9518 12.5118 82.8398C12.4668 83.2782 12.2982 83.6828 12.0847 84.0425C11.8823 84.4134 11.6463 84.7394 11.4215 85.0653C11.1855 85.4026 10.9831 85.7285 10.8258 86.077C10.6684 86.4254 10.5785 86.7851 10.556 87.156C10.4998 87.8866 10.601 88.606 10.5448 89.2916C10.4998 89.9773 10.2525 90.6067 9.97152 91.1463C9.70176 91.697 9.39828 92.1916 9.151 92.6749C9.01612 92.9109 8.90371 93.1358 8.80255 93.3718C8.71263 93.5966 8.65643 93.8326 8.61147 94.0574C8.53279 94.507 8.53279 94.9342 8.57775 95.3051C8.66767 96.0582 8.93743 96.6089 9.18472 96.9237C9.432 97.2272 9.62308 97.3283 9.61184 97.3396C9.61184 97.3396 9.56688 97.3171 9.4882 97.2609C9.44324 97.2272 9.39828 97.1934 9.34208 97.1372C9.28588 97.081 9.21844 97.0136 9.16224 96.9349C8.90371 96.6314 8.62271 96.0807 8.52155 95.3163C8.47659 94.9342 8.46535 94.507 8.54403 94.0462C8.58899 93.8214 8.63395 93.5741 8.73511 93.3381C8.83627 93.102 8.94867 92.8772 9.07231 92.6299C9.33084 92.1579 9.62308 91.6521 9.89284 91.1125C10.1626 90.5618 10.3986 89.9548 10.4436 89.2804C10.4998 88.606 10.3874 87.8979 10.4436 87.1448C10.4661 86.7738 10.556 86.3917 10.7246 86.032C10.882 85.6723 11.0955 85.3351 11.3203 84.9979C11.5451 84.6719 11.7812 84.346 11.9835 83.9863C12.1858 83.6266 12.3544 83.2445 12.3881 82.8286C12.5005 81.9968 11.9835 81.165 12.1071 80.2321C12.1746 79.76 12.3994 79.3441 12.6579 78.962C12.9164 78.5686 13.2199 78.2089 13.456 77.8155C13.9505 77.0174 14.1866 76.0733 14.3776 75.1178C14.5575 74.1624 14.6924 73.1621 15.0633 72.2067C15.2544 71.7346 15.4904 71.2625 15.8051 70.8466C16.1199 70.4307 16.5245 70.0823 16.9966 69.835L17.0978 69.79L17.109 69.8912C17.109 69.9212 17.1127 69.9511 17.1202 69.9811C17.1652 70.4982 17.2664 71.004 17.3226 71.521C17.39 72.0381 17.4125 72.5551 17.3788 73.0609C17.3675 73.3194 17.3563 73.5667 17.3113 73.8252C17.2551 74.0838 17.154 74.3198 17.0528 74.5446C16.8505 75.0055 16.6594 75.4551 16.5245 75.9271C16.3672 76.388 16.3222 76.8713 16.2772 77.3546C16.2173 77.8267 16.1611 78.2988 16.1086 78.7709C16.0075 79.7038 15.94 80.6592 15.5354 81.491C15.3443 81.9069 15.097 82.2778 14.9172 82.6712C14.7261 83.0646 14.6474 83.4917 14.6249 83.9076C14.5687 84.7506 14.6924 85.6049 14.4451 86.3917C14.1978 87.1785 13.7145 87.8079 13.4672 88.5048C13.2199 89.2017 13.3211 89.9323 13.4222 90.5955C13.5234 91.2699 13.6358 91.9331 13.4784 92.5513C13.3436 93.1695 12.9052 93.6078 12.6467 94.0687C12.5006 94.3047 12.4106 94.5408 12.3657 94.788C12.3319 95.0353 12.3319 95.2714 12.3207 95.5074C12.3095 95.7435 12.287 95.9683 12.2083 96.1706C12.1409 96.3729 11.9947 96.5303 11.8486 96.6651C11.5451 96.9012 11.2304 97.0473 10.9494 97.1485C10.6797 97.2496 10.4324 97.3058 10.23 97.3283C9.8254 97.3958 9.61184 97.3396 9.61184 97.3396C9.61184 97.3396 9.66804 97.3396 9.7692 97.3508Z" fill="#263238"/>
<path d="M16.6481 71.1951C16.6331 71.2475 16.6182 71.315 16.6032 71.3974C16.5694 71.5772 16.5245 71.8358 16.457 72.173C16.3671 72.5214 16.176 72.8923 16.0074 73.3532C15.8388 73.814 15.6702 74.3311 15.5016 74.9268C15.3443 75.5225 15.1982 76.1744 15.0408 76.8826C14.8947 77.5907 14.7261 78.3663 14.3327 79.0969C14.1528 79.4566 13.9505 79.8275 13.7931 80.2096C13.6358 80.603 13.5459 81.0189 13.4897 81.4573C13.3773 82.334 13.2199 83.2445 13.0063 84.1662C12.5567 85.9871 12.1296 87.7293 11.7362 89.3141C11.3316 90.8877 10.9606 92.304 10.6459 93.4954C10.3424 94.6757 10.0839 95.6423 9.90406 96.3167C9.82163 96.6389 9.75419 96.8937 9.70174 97.081C9.67926 97.1635 9.66052 97.2309 9.64554 97.2834C9.63055 97.3283 9.61931 97.3471 9.61182 97.3396C9.61182 97.3396 9.61556 97.3171 9.62305 97.2721C9.63804 97.2197 9.65303 97.1522 9.66802 97.0698C9.71298 96.8825 9.77667 96.6277 9.8591 96.3055C10.0165 95.6198 10.2637 94.6532 10.556 93.473C10.8595 92.2703 11.2079 90.854 11.6126 89.2804C11.9947 87.6956 12.4218 85.9533 12.8714 84.1324C13.0738 83.222 13.2424 82.3228 13.3435 81.4348C13.411 80.9964 13.5009 80.5581 13.6695 80.1647C13.8269 79.76 14.0404 79.4003 14.2203 79.0294C14.6024 78.3213 14.771 77.5682 14.9284 76.8601C15.0858 76.152 15.2431 75.5 15.4117 74.9043C15.5803 74.3086 15.7602 73.7803 15.94 73.3194C16.1086 72.8586 16.3109 72.4877 16.4008 72.1617C16.4795 71.8245 16.5357 71.566 16.5807 71.3861C16.6032 71.3112 16.6182 71.2475 16.6256 71.1951C16.6406 71.1426 16.6481 71.1201 16.6481 71.1276C16.6481 71.1276 16.6444 71.1501 16.6369 71.1951H16.6481Z" fill="#263238"/>
<path d="M10.0054 97.2835C8.98259 97.351 7.07177 96.5642 6.86945 95.5638C6.73456 94.9456 6.89193 94.2824 6.75704 93.6642C6.56596 92.8662 5.93652 92.2367 5.66675 91.4724C5.12723 89.91 6.1838 88.2015 5.959 86.5717C5.79039 85.4027 4.99235 84.4136 4.74506 83.2671C4.44158 81.9071 4.93615 80.4571 4.56522 79.1195C4.3629 78.4114 3.94702 77.7819 3.67725 77.0963C3.32881 76.1971 3.27261 75.2192 3.21641 74.2638C3.14897 73.2747 3.10401 72.2855 3.03657 71.2964C2.91292 69.6441 2.0362 68.2054 1.99124 67.4523C1.86759 65.3504 2.27224 64.2938 2.50828 62.7427C4.12686 63.6419 4.82374 65.5977 5.12723 67.4186C5.41947 69.2395 5.47567 71.1615 6.3524 72.7913C6.92565 73.8479 7.85858 74.8146 7.91478 76.0172C7.95974 76.9951 7.39773 77.9281 7.38649 78.906C7.36401 80.6594 9.02755 81.9857 9.44343 83.6942C9.73568 84.9531 9.31979 86.2907 9.44343 87.5833C9.60079 89.2693 10.6686 90.7081 11.2756 92.2817C11.8825 93.8666 11.4667 96.4855 10.0054 97.351" fill="#0C73E3"/>
<path d="M2.93533 64.3611C2.94282 64.4286 2.95781 64.5148 2.98029 64.6197C3.02525 64.8332 3.07021 65.1704 3.14889 65.5863C3.23881 66.0022 3.46361 66.4743 3.65469 67.0588C3.84577 67.6433 4.03686 68.3064 4.20546 69.0595C4.37406 69.8014 4.52018 70.6331 4.67754 71.5211C4.83491 72.3978 4.98103 73.3532 5.41939 74.2637C5.62171 74.7245 5.85775 75.1966 6.0376 75.7024C6.21744 76.2082 6.30736 76.7478 6.35232 77.2985C6.431 78.4001 6.57712 79.5241 6.77944 80.6818C7.21781 82.9748 7.64493 85.1554 8.0271 87.1449C8.4205 89.1231 8.78018 90.9103 9.07243 92.4165C9.36467 93.9114 9.61195 95.1253 9.76932 95.9796C9.85174 96.3917 9.91543 96.7139 9.9604 96.9462C9.97538 97.0511 9.99037 97.1373 10.0054 97.2048C10.0129 97.2572 10.0129 97.2834 10.0054 97.2834C10.0054 97.2834 9.99786 97.2572 9.98288 97.2048C9.96789 97.1373 9.94916 97.0549 9.92668 96.9575C9.87422 96.7252 9.80678 96.403 9.72436 95.9908C9.54451 95.1366 9.28599 93.9339 8.98251 92.439C8.66778 90.9328 8.29686 89.1568 7.89222 87.1673C7.51005 85.1778 7.08293 82.9973 6.64456 80.7043C6.431 79.5578 6.28488 78.4113 6.21744 77.3098C6.16124 76.7702 6.08256 76.242 5.90272 75.7474C5.73411 75.2528 5.50931 74.7807 5.30699 74.3199C4.85738 73.3982 4.71126 72.4203 4.5539 71.5323C4.40778 70.6444 4.2729 69.8238 4.1043 69.082C3.94694 68.3289 3.75585 67.6657 3.57601 67.0813C3.39617 66.508 3.18261 66.0247 3.09269 65.5976C3.02525 65.1704 2.98029 64.8445 2.94657 64.6197C2.93158 64.5148 2.92034 64.4323 2.91285 64.3724C2.90535 64.3124 2.90535 64.2825 2.91285 64.2825C2.91285 64.2825 2.92034 64.3087 2.93533 64.3611Z" fill="#263238"/>
<path d="M69.2723 32.9003H62.0449V22.7729H69.2723V32.9003Z" fill="#455A64"/>
<path d="M69.2723 23.9532H62.0449V22.7729H69.2723V23.9532Z" fill="#263238"/>
<path d="M69.2723 32.9004H62.0449V31.7314H69.2723V32.9004Z" fill="#263238"/>
<path d="M67.8446 26.9543H63.4497V24.6726H67.8446V26.9543Z" fill="#263238"/>
<path d="M66.6869 25.8191C66.6756 25.8191 66.6756 25.7179 66.6307 25.5718C66.5857 25.4145 66.4846 25.2009 66.2485 25.0323C66.035 24.8637 65.6753 24.7625 65.3268 24.8974C64.9784 25.0211 64.6749 25.3807 64.6861 25.8191C64.6749 26.2462 64.9784 26.6171 65.3268 26.7295C65.6753 26.8644 66.035 26.7745 66.2598 26.6059C66.4846 26.4373 66.5857 26.2125 66.6307 26.0664C66.6756 25.909 66.6756 25.8191 66.6869 25.8191C66.6869 25.8191 66.6906 25.8416 66.6981 25.8865C66.6981 25.9203 66.6981 25.9877 66.6756 26.0776C66.6419 26.235 66.5408 26.471 66.3047 26.6621C66.0687 26.8644 65.6753 26.9768 65.2819 26.8307C64.8997 26.7071 64.5625 26.2912 64.5625 25.8191C64.5625 25.3358 64.8997 24.9199 65.2819 24.7963C65.6753 24.6614 66.0687 24.7738 66.3047 24.9649C66.5408 25.1559 66.6419 25.392 66.6756 25.5606C66.6981 25.6393 66.6981 25.7067 66.6981 25.7517C66.6906 25.7966 66.6869 25.8191 66.6869 25.8191Z" fill="#455A64"/>
<path d="M63.9559 27.8424C63.9559 27.9324 63.8772 28.011 63.7873 28.011C63.6973 28.011 63.6187 27.9324 63.6187 27.8424C63.6187 27.7413 63.6973 27.6738 63.7873 27.6738C63.8772 27.6738 63.9559 27.7413 63.9559 27.8424Z" fill="#263238"/>
<path d="M65.2483 27.8424C65.2483 27.9324 65.1697 28.011 65.0797 28.011C64.9786 28.011 64.9111 27.9324 64.9111 27.8424C64.9111 27.7413 64.9786 27.6738 65.0797 27.6738C65.1697 27.6738 65.2483 27.7413 65.2483 27.8424Z" fill="#263238"/>
<path d="M66.5296 27.8424C66.5296 27.9324 66.4621 28.011 66.361 28.011C66.2711 28.011 66.1924 27.9324 66.1924 27.8424C66.1924 27.7413 66.2711 27.6738 66.361 27.6738C66.4621 27.6738 66.5296 27.7413 66.5296 27.8424Z" fill="#263238"/>
<path d="M63.9559 28.9328C63.9559 29.0227 63.8772 29.1014 63.7873 29.1014C63.6973 29.1014 63.6187 29.0227 63.6187 28.9328C63.6187 28.8316 63.6973 28.7642 63.7873 28.7642C63.8772 28.7642 63.9559 28.8316 63.9559 28.9328Z" fill="#263238"/>
<path d="M65.2483 28.9328C65.2483 29.0227 65.1697 29.1014 65.0797 29.1014C64.9786 29.1014 64.9111 29.0227 64.9111 28.9328C64.9111 28.8316 64.9786 28.7642 65.0797 28.7642C65.1697 28.7642 65.2483 28.8316 65.2483 28.9328Z" fill="#263238"/>
<path d="M66.5296 28.9328C66.5296 29.0227 66.4621 29.1014 66.361 29.1014C66.2711 29.1014 66.1924 29.0227 66.1924 28.9328C66.1924 28.8316 66.2711 28.7642 66.361 28.7642C66.4621 28.7642 66.5296 28.8316 66.5296 28.9328Z" fill="#263238"/>
<path d="M63.9559 30.0231C63.9559 30.113 63.8772 30.1917 63.7873 30.1917C63.6973 30.1917 63.6187 30.113 63.6187 30.0231C63.6187 29.9332 63.6973 29.8545 63.7873 29.8545C63.8772 29.8545 63.9559 29.9332 63.9559 30.0231Z" fill="#263238"/>
<path d="M65.2483 30.0231C65.2483 30.113 65.1697 30.1917 65.0797 30.1917C64.9786 30.1917 64.9111 30.113 64.9111 30.0231C64.9111 29.9332 64.9786 29.8545 65.0797 29.8545C65.1697 29.8545 65.2483 29.9332 65.2483 30.0231Z" fill="#263238"/>
<path d="M66.5296 30.0231C66.5296 30.113 66.4621 30.1917 66.361 30.1917C66.2711 30.1917 66.1924 30.113 66.1924 30.0231C66.1924 29.9332 66.2711 29.8545 66.361 29.8545C66.4621 29.8545 66.5296 29.9332 66.5296 30.0231Z" fill="#263238"/>
<path d="M68.3282 28.9327C68.3282 29.2699 68.0472 29.5509 67.71 29.5509C67.3616 29.5509 67.0918 29.2699 67.0918 28.9327C67.0918 28.5955 67.3616 28.3145 67.71 28.3145C68.0472 28.3145 68.3282 28.5955 68.3282 28.9327Z" fill="#E8505B"/>
<path d="M58.965 97.2834H54.7725V0.000244141H58.965V97.2834Z" fill="#263238"/>
<path d="M54.7725 97.2833H13.1392V4.11401H54.7725V97.2833Z" fill="#455A64"/>
<path d="M14.308 97.2834H10.4526V0.000244141H14.308V97.2834Z" fill="#263238"/>
<path d="M58.965 4.11413H10.4526V0.000244141H58.965V4.11413Z" fill="#263238"/>
<path d="M58.9652 0.000244141C58.9652 0.0114843 58.909 0.0676848 58.8078 0.168846C58.6804 0.281247 58.5268 0.419875 58.347 0.58473C57.9423 0.944413 57.4253 1.4165 56.852 1.93354C56.2675 2.47307 55.7505 2.95639 55.4021 3.33856C55.2222 3.5184 55.0873 3.67576 54.9974 3.78816C54.9524 3.8556 54.93 3.90056 54.9187 3.93428C54.9037 3.96426 54.8962 3.97924 54.8962 3.97924C54.8888 3.97924 54.8888 3.96051 54.8962 3.92304C54.9075 3.88932 54.9187 3.83312 54.9637 3.76568C55.0311 3.64204 55.166 3.47344 55.3346 3.28236C55.6831 2.88895 56.1889 2.38315 56.7733 1.85486C57.3578 1.31534 57.8974 0.854493 58.302 0.517289C58.4931 0.348687 58.6617 0.225046 58.7741 0.135125C58.8865 0.0452043 58.9539 0.000244141 58.9652 0.000244141Z" fill="#455A64"/>
<path d="M14.3079 4.19267C14.2855 4.21515 13.3975 3.29346 12.3409 2.13572C11.2731 0.977993 10.4301 0.0225832 10.4526 0.000102959C10.4751 -0.0111372 11.363 0.899312 12.4196 2.05704C13.4874 3.21478 14.3304 4.17019 14.3079 4.19267Z" fill="#455A64"/>
<path d="M16.8597 58.9545H16.7473C16.0054 58.9545 15.3984 58.3476 15.3984 57.6057V47.8493C15.3984 47.1074 16.0054 46.5117 16.7473 46.5117H16.8597C17.6015 46.5117 18.2085 47.1074 18.2085 47.8493V57.6057C18.2085 58.3476 17.6015 58.9545 16.8597 58.9545Z" fill="#263238"/>
<path d="M17.107 56.3133V56.864C17.107 56.9764 17.0171 57.0776 16.8935 57.0776C16.7811 57.0776 16.6911 56.9764 16.6911 56.864V56.3133C16.5338 56.2346 16.4214 56.0772 16.4214 55.8974C16.4214 55.6389 16.635 55.4253 16.8935 55.4253C17.1632 55.4253 17.3768 55.6389 17.3768 55.8974C17.3768 56.0772 17.2644 56.2346 17.107 56.3133Z" fill="#455A64"/>
<path d="M23.7609 52.188H17.4777C17.0843 52.188 16.7695 51.8733 16.7695 51.4799V51.4125C16.7695 51.0191 17.0843 50.6931 17.4777 50.6931H23.7609C24.1543 50.6931 24.4802 51.0191 24.4802 51.4125V51.4799C24.4802 51.8733 24.1543 52.188 23.7609 52.188Z" fill="#263238"/>
<path d="M19.5688 52.2329C19.5688 52.2329 19.4789 52.2441 19.3327 52.2441C19.1529 52.2516 18.9393 52.2628 18.692 52.2778C18.4223 52.2891 18.0963 52.2891 17.7366 52.2441C17.568 52.2216 17.377 52.1879 17.1859 52.1092C17.006 52.0193 16.8149 51.8957 16.7138 51.6933C16.6014 51.5023 16.5901 51.255 16.6801 51.0639C16.725 50.9627 16.8037 50.884 16.8936 50.8278C16.9835 50.7829 17.0622 50.7492 17.1521 50.7267C17.5006 50.603 17.8378 50.6143 18.1076 50.6143C18.3773 50.6143 18.5909 50.6255 18.7482 50.6368C18.8944 50.6368 18.9843 50.648 18.9843 50.6592C18.9843 50.6817 18.6471 50.6817 18.1076 50.693C17.8378 50.7042 17.5231 50.7042 17.1859 50.8278C17.0285 50.884 16.8487 50.9515 16.7812 51.1088C16.7138 51.2662 16.725 51.4798 16.8149 51.6371C16.9049 51.8057 17.0622 51.9294 17.2308 51.9968C17.3994 52.0755 17.5793 52.1092 17.7591 52.1317C18.1076 52.1879 18.4223 52.1879 18.692 52.1991C19.2316 52.1879 19.5688 52.2104 19.5688 52.2329Z" fill="#455A64"/>
<path d="M32.8095 24.9755C32.8095 24.9755 32.8095 24.9493 32.8095 24.8968C32.8095 24.8444 32.8095 24.7732 32.8095 24.6833C32.8095 24.4884 32.8057 24.2112 32.7982 23.8515C32.7982 23.1321 32.787 22.0756 32.787 20.738C32.7758 18.0628 32.7758 14.2749 32.7645 9.7564L32.8095 9.80136C29.1452 9.8126 24.9189 9.8126 20.4566 9.8126L20.5128 9.7564C20.5128 15.3877 20.5128 20.6143 20.5015 24.9755L20.4566 24.9193C24.1771 24.9306 27.2569 24.9418 29.415 24.953C30.494 24.953 31.337 24.953 31.9215 24.9643C32.2063 24.9643 32.4273 24.9643 32.5847 24.9643C32.7308 24.9643 32.8095 24.9755 32.8095 24.9755C32.8095 24.9755 32.7383 24.9755 32.5959 24.9755C32.4386 24.9755 32.2212 24.9793 31.944 24.9867C31.3595 24.9867 30.5165 24.9867 29.4487 24.998C27.2793 24.998 24.1883 25.0092 20.4566 25.0205H20.4116V24.9755C20.4004 20.6143 20.4004 15.3877 20.4004 9.7564V9.7002H20.4566C24.9189 9.7002 29.1452 9.7002 32.8095 9.7002H32.8657V9.7564C32.8544 14.2862 32.8432 18.0966 32.8432 20.7717C32.832 22.1093 32.832 23.1546 32.8207 23.874C32.8207 24.2337 32.8207 24.5072 32.8207 24.6945C32.8207 24.7844 32.8207 24.8556 32.8207 24.9081C32.8132 24.953 32.8095 24.9755 32.8095 24.9755Z" fill="#263238"/>
<path d="M30.775 23.0871C30.775 23.0871 30.775 23.0684 30.775 23.0309C30.775 22.986 30.775 22.9298 30.775 22.8623C30.775 22.7125 30.7712 22.5027 30.7638 22.2329C30.7638 21.6709 30.7525 20.8616 30.7525 19.85C30.7413 17.8043 30.7413 14.9043 30.73 11.4873L30.775 11.5435C28.2123 11.5435 25.3235 11.5435 22.2662 11.5435C22.255 11.5548 22.3786 11.4311 22.3224 11.4873V11.4986V11.5098V11.5323V11.5885V11.6897V11.892V12.2966C22.3224 12.5664 22.3224 12.8324 22.3224 13.0947C22.3224 13.6267 22.3224 14.1513 22.3224 14.6683C22.3224 15.7024 22.3224 16.7103 22.3224 17.6919C22.3224 19.6364 22.3112 21.4573 22.3112 23.0871L22.2662 23.0422C24.8402 23.0534 26.9534 23.0647 28.4371 23.0647C29.1789 23.0759 29.7634 23.0759 30.168 23.0759C30.3629 23.0834 30.5127 23.0871 30.6176 23.0871C30.7188 23.0871 30.775 23.0871 30.775 23.0871C30.775 23.0871 30.7263 23.0909 30.6289 23.0984C30.524 23.0984 30.3741 23.0984 30.1793 23.0984C29.7859 23.0984 29.2126 23.1096 28.4708 23.1096C26.9758 23.1209 24.8515 23.1209 22.2662 23.1321H22.2213V23.0871C22.21 21.4573 22.21 19.6364 22.21 17.6919C22.21 16.7103 22.21 15.7024 22.21 14.6683C22.21 14.1513 22.21 13.6267 22.21 13.0947C22.21 12.8324 22.21 12.5664 22.21 12.2966V11.892V11.6897V11.5885V11.5323V11.5098V11.4986V11.4873C22.1538 11.5435 22.2775 11.4199 22.2662 11.4311C25.3235 11.4311 28.2123 11.4311 30.775 11.4311H30.8312V11.4873C30.82 14.9268 30.8087 17.8268 30.8087 19.8837C30.7975 20.8953 30.7975 21.6934 30.7862 22.2554C30.7862 22.5251 30.7862 22.7312 30.7862 22.8736C30.7862 22.941 30.7862 22.9972 30.7862 23.0422C30.7787 23.0722 30.775 23.0871 30.775 23.0871Z" fill="#263238"/>
<path d="M32.8095 57.0997C32.8095 57.0997 32.8095 57.051 32.8095 56.9535C32.8095 56.8561 32.8095 56.7212 32.8095 56.5489C32.8095 56.178 32.7982 55.6497 32.7982 54.964C32.7982 53.5815 32.787 51.5695 32.787 49.0517C32.7758 44.0049 32.7645 36.9012 32.7533 28.6397L32.8095 28.6959C28.9766 28.6959 24.7953 28.6959 20.4566 28.6959L20.5128 28.6397C20.5128 39.7224 20.5015 49.7711 20.5015 57.0997L20.4566 57.0547C24.267 57.0659 27.3468 57.0659 29.4824 57.0772C30.5502 57.0772 31.382 57.0884 31.944 57.0884C32.2287 57.0884 32.446 57.0884 32.5959 57.0884C32.7308 57.0884 32.8095 57.0997 32.8095 57.0997C32.8095 57.0997 32.7383 57.0997 32.5959 57.0997C32.4535 57.0997 32.2437 57.0997 31.9665 57.0997C31.4045 57.1109 30.5727 57.1109 29.5161 57.1109C27.3693 57.1221 24.2782 57.1334 20.4566 57.1334H20.4116V57.0997C20.4116 49.7711 20.4004 39.7224 20.4004 28.6397V28.5835H20.4566C24.7953 28.5835 28.9766 28.5835 32.8095 28.5835H32.8657V28.6397C32.8544 36.9124 32.8432 44.0387 32.8432 49.0855C32.832 51.6033 32.832 53.6152 32.832 54.9865C32.8207 55.6722 32.8207 56.2005 32.8207 56.5601C32.8207 56.7325 32.8207 56.8674 32.8207 56.9648C32.8132 57.0547 32.8095 57.0997 32.8095 57.0997Z" fill="#263238"/>
<path d="M30.7749 55.5148C30.7749 55.5148 30.7749 55.4736 30.7749 55.3911C30.7749 55.3087 30.7749 55.1888 30.7749 55.0314C30.7749 54.7055 30.7637 54.2334 30.7637 53.6152C30.7637 52.39 30.7524 50.6028 30.7524 48.3661C30.7412 43.9037 30.73 37.6205 30.7187 30.3931L30.7749 30.4493C28.0998 30.4493 25.2223 30.4493 22.2662 30.4493L22.3224 30.3931C22.3111 40.4418 22.3111 49.4564 22.2999 55.5148L22.2662 55.481C24.9301 55.4923 27.0544 55.4923 28.5157 55.5035C29.2463 55.5035 29.8083 55.5035 30.1904 55.5148C30.3778 55.5148 30.5239 55.5148 30.6288 55.5148C30.73 55.5148 30.7749 55.5148 30.7749 55.5148C30.7749 55.5148 30.73 55.5185 30.64 55.526C30.5351 55.526 30.389 55.526 30.2017 55.526C29.8195 55.526 29.2575 55.5372 28.5381 55.5372C27.0657 55.5372 24.9413 55.5485 22.2662 55.5597H22.2212V55.5148C22.2212 49.4564 22.21 40.4418 22.21 30.3931V30.3369H22.2662C25.2223 30.3369 28.0998 30.3369 30.7749 30.3369H30.8311V30.3931C30.8199 37.643 30.8199 43.9262 30.8086 48.411C30.7974 50.6366 30.7974 52.4125 30.7974 53.6377C30.7862 54.2446 30.7862 54.7167 30.7862 55.0427C30.7862 55.2 30.7862 55.3199 30.7862 55.4024C30.7787 55.4773 30.7749 55.5148 30.7749 55.5148Z" fill="#263238"/>
<path d="M32.8095 93.1355C32.8095 93.1355 32.8095 93.0868 32.8095 92.9894C32.8095 92.892 32.8095 92.7571 32.8095 92.5848C32.8095 92.2139 32.7982 91.6856 32.7982 90.9999C32.7982 89.6174 32.787 87.6054 32.787 85.0876C32.7758 80.0408 32.7645 72.9371 32.7533 64.6756L32.8095 64.7318C28.9766 64.7318 24.7953 64.7318 20.4566 64.7318L20.5128 64.6756C20.5128 75.7583 20.5015 85.807 20.5015 93.1355L20.4566 93.0906C24.267 93.1018 27.3468 93.1018 29.4824 93.1131C30.5502 93.1131 31.382 93.1243 31.944 93.1243C32.2287 93.1243 32.446 93.1243 32.5959 93.1243C32.7308 93.1243 32.8095 93.1355 32.8095 93.1355C32.8095 93.1355 32.7383 93.1355 32.5959 93.1355C32.4535 93.1355 32.2437 93.1355 31.9665 93.1355C31.4045 93.1468 30.5727 93.1468 29.5161 93.1468C27.3693 93.158 24.2782 93.1693 20.4566 93.1693H20.4116V93.1355C20.4116 85.807 20.4004 75.7583 20.4004 64.6756V64.6194H20.4566C24.7953 64.6194 28.9766 64.6194 32.8095 64.6194H32.8657V64.6756C32.8544 72.9483 32.8432 80.0745 32.8432 85.1213C32.832 87.6391 32.832 89.6511 32.832 91.0224C32.8207 91.7081 32.8207 92.2363 32.8207 92.596C32.8207 92.7684 32.8207 92.9033 32.8207 93.0007C32.8132 93.0906 32.8095 93.1355 32.8095 93.1355Z" fill="#263238"/>
<path d="M30.7749 91.5507C30.7749 91.5507 30.7749 91.5094 30.7749 91.427C30.7749 91.3446 30.7749 91.2247 30.7749 91.0673C30.7749 90.7414 30.7637 90.2693 30.7637 89.6511C30.7637 88.4259 30.7524 86.6387 30.7524 84.4019C30.7412 79.9396 30.73 73.6564 30.7187 66.429L30.7749 66.4852C28.0998 66.4852 25.2223 66.4852 22.2662 66.4852L22.3224 66.429C22.3111 76.4777 22.3111 85.4922 22.2999 91.5507L22.2662 91.5169C24.9301 91.5282 27.0544 91.5282 28.5157 91.5394C29.2463 91.5394 29.8083 91.5394 30.1904 91.5507C30.3778 91.5507 30.5239 91.5507 30.6288 91.5507C30.73 91.5507 30.7749 91.5507 30.7749 91.5507C30.7749 91.5507 30.73 91.5544 30.64 91.5619C30.5351 91.5619 30.389 91.5619 30.2017 91.5619C29.8195 91.5619 29.2575 91.5731 28.5381 91.5731C27.0657 91.5731 24.9413 91.5844 22.2662 91.5956H22.2212V91.5507C22.2212 85.4922 22.21 76.4777 22.21 66.429V66.3728H22.2662C25.2223 66.3728 28.0998 66.3728 30.7749 66.3728H30.8311V66.429C30.8199 73.6789 30.8199 79.9621 30.8086 84.4469C30.7974 86.6724 30.7974 88.4484 30.7974 89.6736C30.7862 90.2805 30.7862 90.7526 30.7862 91.0786C30.7862 91.2359 30.7862 91.3558 30.7862 91.4383C30.7787 91.5132 30.7749 91.5507 30.7749 91.5507Z" fill="#263238"/>
<path d="M22.4685 23.0873C22.4797 23.1098 22.0076 23.5256 21.4119 24.0202C20.8049 24.5148 20.2991 24.8857 20.2766 24.8632C20.2542 24.8407 20.7263 24.4248 21.3332 23.9303C21.9402 23.4357 22.446 23.0536 22.4685 23.0873Z" fill="#263238"/>
<path d="M32.8879 24.7509C32.8654 24.7734 32.3596 24.4699 31.7976 24.009C31.2356 23.5594 30.8422 23.1211 30.8647 23.0986C30.8872 23.0761 31.3143 23.4695 31.8763 23.9191C32.4271 24.3799 32.8991 24.7172 32.8879 24.7509Z" fill="#263238"/>
<path d="M32.6295 10.1162C32.652 10.1387 32.2248 10.4759 31.6966 10.8693C31.157 11.2515 30.7187 11.5437 30.6962 11.5212C30.6737 11.4987 31.0896 11.1615 31.6291 10.7681C32.1574 10.386 32.607 10.0937 32.6295 10.1162Z" fill="#263238"/>
<path d="M22.3 11.2965C22.2887 11.3189 21.8166 11.0829 21.2771 10.7232C20.7376 10.3523 20.3554 9.99261 20.3779 9.97013C20.4004 9.94765 20.8163 10.2624 21.3445 10.6221C21.8728 10.993 22.3224 11.2627 22.3 11.2965Z" fill="#263238"/>
<path d="M22.2212 30.4269C22.21 30.4606 21.6817 30.1459 21.1871 29.5839C20.6813 29.0219 20.4453 28.4599 20.4678 28.4487C20.5015 28.4374 20.7825 28.9657 21.2771 29.5052C21.7491 30.056 22.2437 30.4044 22.2212 30.4269Z" fill="#263238"/>
<path d="M32.6631 28.6287C32.6744 28.6512 32.2922 29.0334 31.7864 29.4718C31.2806 29.9214 30.8535 30.2586 30.831 30.2361C30.8085 30.2136 31.2019 29.8314 31.7077 29.3931C32.2135 28.9435 32.6407 28.6063 32.6631 28.6287Z" fill="#263238"/>
<path d="M22.2214 55.6498C22.2326 55.6723 21.828 55.9758 21.3559 56.3916C20.895 56.7963 20.5466 57.1672 20.5241 57.1447C20.5016 57.1335 20.8051 56.7176 21.2772 56.3017C21.7605 55.8858 22.1989 55.6273 22.2214 55.6498Z" fill="#263238"/>
<path d="M32.4609 57.0661C32.4384 57.0886 32.0563 56.7739 31.6067 56.358C31.1571 55.9421 30.8086 55.5825 30.8311 55.56C30.8536 55.5375 31.2357 55.8522 31.6854 56.2681C32.135 56.684 32.4834 57.0437 32.4609 57.0661Z" fill="#263238"/>
<path d="M22.4235 66.7665C22.401 66.789 21.9401 66.3506 21.3894 65.7774C20.8386 65.2041 20.4115 64.7208 20.434 64.6983C20.4564 64.6759 20.9173 65.1142 21.468 65.6875C22.0188 66.2607 22.4459 66.744 22.4235 66.7665Z" fill="#263238"/>
<path d="M32.7755 64.6083C32.7867 64.6308 32.3708 65.0692 31.8201 65.5974C31.2806 66.1257 30.8197 66.5304 30.7972 66.5079C30.7748 66.4854 31.2019 66.0358 31.7414 65.5188C32.2922 64.9905 32.753 64.5858 32.7755 64.6083Z" fill="#263238"/>
<path d="M22.0189 91.4045C22.0413 91.427 21.7154 91.8317 21.2883 92.3037C20.8611 92.7646 20.5014 93.1355 20.479 93.113C20.4452 93.0906 20.7712 92.6859 21.1983 92.2251C21.6255 91.753 21.9851 91.3821 22.0189 91.4045Z" fill="#263238"/>
<path d="M32.607 93.1354C32.5846 93.1579 32.1462 92.8432 31.6516 92.3711C31.1571 91.9103 30.8086 91.4831 30.8311 91.4719C30.8536 91.4494 31.2358 91.8316 31.7303 92.2924C32.2136 92.7533 32.6295 93.1017 32.607 93.1354Z" fill="#263238"/>
<path d="M49.2538 24.9755C49.2538 24.9755 49.2538 24.9493 49.2538 24.8968C49.2538 24.8444 49.2538 24.7732 49.2538 24.6833C49.2538 24.4884 49.2501 24.2112 49.2426 23.8515C49.2426 23.1321 49.2313 22.0756 49.2313 20.738C49.2201 18.0628 49.2201 14.2749 49.2089 9.7564L49.2538 9.80136C45.5895 9.8126 41.3633 9.8126 36.9009 9.8126L36.9571 9.7564C36.9571 15.3877 36.9571 20.6143 36.9459 24.9755L36.9009 24.9193C40.6214 24.9306 43.7012 24.9418 45.8593 24.953C46.9383 24.953 47.7814 24.953 48.3658 24.9643C48.6506 24.9643 48.8716 24.9643 49.029 24.9643C49.1751 24.9643 49.2538 24.9755 49.2538 24.9755C49.2538 24.9755 49.1826 24.9755 49.0402 24.9755C48.8829 24.9755 48.6656 24.9793 48.3883 24.9867C47.8038 24.9867 46.9608 24.9867 45.893 24.998C43.7237 24.998 40.6326 25.0092 36.9009 25.0205H36.856V24.9755C36.8447 20.6143 36.8447 15.3877 36.8447 9.7564V9.7002H36.9009C41.3633 9.7002 45.5895 9.7002 49.2538 9.7002H49.31V9.7564C49.2988 14.2862 49.2875 18.0966 49.2875 20.7717C49.2763 22.1093 49.2763 23.1546 49.2651 23.874C49.2651 24.2337 49.2651 24.5072 49.2651 24.6945C49.2651 24.7844 49.2651 24.8556 49.2651 24.9081C49.2576 24.953 49.2538 24.9755 49.2538 24.9755Z" fill="#263238"/>
<path d="M47.2193 23.0871C47.2193 23.0871 47.2193 23.0684 47.2193 23.0309C47.2193 22.986 47.2193 22.9298 47.2193 22.8623C47.2193 22.7125 47.2156 22.5027 47.2081 22.2329C47.2081 21.6709 47.1969 20.8616 47.1969 19.85C47.1856 17.8043 47.1856 14.9043 47.1744 11.4873L47.2193 11.5435C44.6566 11.5435 41.7679 11.5435 38.7106 11.5435C38.6993 11.5548 38.823 11.4311 38.7668 11.4873V11.4986V11.5098V11.5323V11.5885V11.6897V11.892V12.2966C38.7668 12.5664 38.7668 12.8324 38.7668 13.0947C38.7668 13.6267 38.7668 14.1513 38.7668 14.6683C38.7668 15.7024 38.7668 16.7103 38.7668 17.6919C38.7668 19.6364 38.7555 21.4573 38.7555 23.0871L38.7106 23.0422C41.2846 23.0534 43.3977 23.0647 44.8814 23.0647C45.6232 23.0759 46.2077 23.0759 46.6124 23.0759C46.8072 23.0834 46.9571 23.0871 47.062 23.0871C47.1631 23.0871 47.2193 23.0871 47.2193 23.0871C47.2193 23.0871 47.1706 23.0909 47.0732 23.0984C46.9683 23.0984 46.8184 23.0984 46.6236 23.0984C46.2302 23.0984 45.657 23.1096 44.9151 23.1096C43.4202 23.1209 41.2958 23.1209 38.7106 23.1321H38.6656V23.0871C38.6544 21.4573 38.6544 19.6364 38.6544 17.6919C38.6544 16.7103 38.6544 15.7024 38.6544 14.6683C38.6544 14.1513 38.6544 13.6267 38.6544 13.0947C38.6544 12.8324 38.6544 12.5664 38.6544 12.2966V11.892V11.6897V11.5885V11.5323V11.5098V11.4986V11.4873C38.5982 11.5435 38.7218 11.4199 38.7106 11.4311C41.7679 11.4311 44.6566 11.4311 47.2193 11.4311H47.2755V11.4873C47.2643 14.9268 47.2531 17.8268 47.2531 19.8837C47.2418 20.8953 47.2418 21.6934 47.2306 22.2554C47.2306 22.5251 47.2306 22.7312 47.2306 22.8736C47.2306 22.941 47.2306 22.9972 47.2306 23.0422C47.2231 23.0722 47.2193 23.0871 47.2193 23.0871Z" fill="#263238"/>
<path d="M49.2538 57.0997C49.2538 57.0997 49.2538 57.051 49.2538 56.9535C49.2538 56.8561 49.2538 56.7212 49.2538 56.5489C49.2538 56.178 49.2426 55.6497 49.2426 54.964C49.2426 53.5815 49.2313 51.5695 49.2313 49.0517C49.2201 44.0049 49.2088 36.9012 49.1976 28.6397L49.2538 28.6959C45.4209 28.6959 41.2396 28.6959 36.9009 28.6959L36.9571 28.6397C36.9571 39.7224 36.9459 49.7711 36.9459 57.0997L36.9009 57.0547C40.7113 57.0659 43.7911 57.0659 45.9267 57.0772C46.9945 57.0772 47.8263 57.0884 48.3883 57.0884C48.6731 57.0884 48.8904 57.0884 49.0402 57.0884C49.1751 57.0884 49.2538 57.0997 49.2538 57.0997C49.2538 57.0997 49.1826 57.0997 49.0402 57.0997C48.8979 57.0997 48.6881 57.0997 48.4108 57.0997C47.8488 57.1109 47.017 57.1109 45.9605 57.1109C43.8136 57.1221 40.7226 57.1334 36.9009 57.1334H36.856V57.0997C36.856 49.7711 36.8447 39.7224 36.8447 28.6397V28.5835H36.9009C41.2396 28.5835 45.4209 28.5835 49.2538 28.5835H49.31V28.6397C49.2988 36.9124 49.2875 44.0387 49.2875 49.0855C49.2763 51.6033 49.2763 53.6152 49.2763 54.9865C49.265 55.6722 49.2651 56.2005 49.2651 56.5601C49.2651 56.7325 49.2651 56.8674 49.2651 56.9648C49.2576 57.0547 49.2538 57.0997 49.2538 57.0997Z" fill="#263238"/>
<path d="M47.2193 55.5148C47.2193 55.5148 47.2193 55.4736 47.2193 55.3911C47.2193 55.3087 47.2193 55.1888 47.2193 55.0314C47.2193 54.7055 47.208 54.2334 47.208 53.6152C47.208 52.39 47.1968 50.6028 47.1968 48.3661C47.1855 43.9037 47.1743 37.6205 47.1631 30.3931L47.2193 30.4493C44.5441 30.4493 41.6666 30.4493 38.7105 30.4493L38.7667 30.3931C38.7555 40.4418 38.7555 49.4564 38.7442 55.5148L38.7105 55.481C41.3744 55.4923 43.4988 55.4923 44.96 55.5035C45.6906 55.5035 46.2526 55.5035 46.6348 55.5148C46.8221 55.5148 46.9682 55.5148 47.0731 55.5148C47.1743 55.5148 47.2193 55.5148 47.2193 55.5148C47.2193 55.5148 47.1743 55.5185 47.0844 55.526C46.9795 55.526 46.8334 55.526 46.646 55.526C46.2639 55.526 45.7018 55.5372 44.9825 55.5372C43.51 55.5372 41.3856 55.5485 38.7105 55.5597H38.6655V55.5148C38.6655 49.4564 38.6543 40.4418 38.6543 30.3931V30.3369H38.7105C41.6666 30.3369 44.5441 30.3369 47.2193 30.3369H47.2755V30.3931C47.2642 37.643 47.2642 43.9262 47.253 48.411C47.2417 50.6366 47.2417 52.4125 47.2417 53.6377C47.2305 54.2446 47.2305 54.7167 47.2305 55.0427C47.2305 55.2 47.2305 55.3199 47.2305 55.4024C47.223 55.4773 47.2193 55.5148 47.2193 55.5148Z" fill="#263238"/>
<path d="M49.2538 93.1355C49.2538 93.1355 49.2538 93.0868 49.2538 92.9894C49.2538 92.892 49.2538 92.7571 49.2538 92.5848C49.2538 92.2139 49.2426 91.6856 49.2426 90.9999C49.2426 89.6174 49.2313 87.6054 49.2313 85.0876C49.2201 80.0408 49.2088 72.9371 49.1976 64.6756L49.2538 64.7318C45.4209 64.7318 41.2396 64.7318 36.9009 64.7318L36.9571 64.6756C36.9571 75.7583 36.9459 85.807 36.9459 93.1355L36.9009 93.0906C40.7113 93.1018 43.7911 93.1018 45.9267 93.1131C46.9945 93.1131 47.8263 93.1243 48.3883 93.1243C48.6731 93.1243 48.8904 93.1243 49.0402 93.1243C49.1751 93.1243 49.2538 93.1355 49.2538 93.1355C49.2538 93.1355 49.1826 93.1355 49.0402 93.1355C48.8979 93.1355 48.6881 93.1355 48.4108 93.1355C47.8488 93.1468 47.017 93.1468 45.9605 93.1468C43.8136 93.158 40.7226 93.1693 36.9009 93.1693H36.856V93.1355C36.856 85.807 36.8447 75.7583 36.8447 64.6756V64.6194H36.9009C41.2396 64.6194 45.4209 64.6194 49.2538 64.6194H49.31V64.6756C49.2988 72.9483 49.2875 80.0745 49.2875 85.1213C49.2763 87.6391 49.2763 89.6511 49.2763 91.0224C49.265 91.7081 49.2651 92.2363 49.2651 92.596C49.2651 92.7684 49.2651 92.9033 49.2651 93.0007C49.2576 93.0906 49.2538 93.1355 49.2538 93.1355Z" fill="#263238"/>
<path d="M47.2193 91.5507C47.2193 91.5507 47.2193 91.5094 47.2193 91.427C47.2193 91.3446 47.2193 91.2247 47.2193 91.0673C47.2193 90.7414 47.208 90.2693 47.208 89.6511C47.208 88.4259 47.1968 86.6387 47.1968 84.4019C47.1855 79.9396 47.1743 73.6564 47.1631 66.429L47.2193 66.4852C44.5441 66.4852 41.6666 66.4852 38.7105 66.4852L38.7667 66.429C38.7555 76.4777 38.7555 85.4922 38.7442 91.5507L38.7105 91.5169C41.3744 91.5282 43.4988 91.5282 44.96 91.5394C45.6906 91.5394 46.2526 91.5394 46.6348 91.5507C46.8221 91.5507 46.9682 91.5507 47.0731 91.5507C47.1743 91.5507 47.2193 91.5507 47.2193 91.5507C47.2193 91.5507 47.1743 91.5544 47.0844 91.5619C46.9795 91.5619 46.8334 91.5619 46.646 91.5619C46.2639 91.5619 45.7018 91.5731 44.9825 91.5731C43.51 91.5731 41.3856 91.5844 38.7105 91.5956H38.6655V91.5507C38.6655 85.4922 38.6543 76.4777 38.6543 66.429V66.3728H38.7105C41.6666 66.3728 44.5441 66.3728 47.2193 66.3728H47.2755V66.429C47.2642 73.6789 47.2642 79.9621 47.253 84.4469C47.2417 86.6724 47.2417 88.4484 47.2417 89.6736C47.2305 90.2805 47.2305 90.7526 47.2305 91.0786C47.2305 91.2359 47.2305 91.3558 47.2305 91.4383C47.223 91.5132 47.2193 91.5507 47.2193 91.5507Z" fill="#263238"/>
<path d="M38.9128 23.0873C38.924 23.1098 38.452 23.5256 37.8562 24.0202C37.2493 24.5148 36.7435 24.8857 36.721 24.8632C36.6985 24.8407 37.1706 24.4248 37.7776 23.9303C38.3845 23.4357 38.8903 23.0536 38.9128 23.0873Z" fill="#263238"/>
<path d="M49.3322 24.7509C49.3098 24.7734 48.804 24.4699 48.2419 24.009C47.6799 23.5594 47.2865 23.1211 47.309 23.0986C47.3315 23.0761 47.7586 23.4695 48.3206 23.9191C48.8714 24.3799 49.3435 24.7172 49.3322 24.7509Z" fill="#263238"/>
<path d="M49.0738 10.1162C49.0963 10.1387 48.6692 10.4759 48.1409 10.8693C47.6014 11.2515 47.163 11.5437 47.1405 11.5212C47.118 11.4987 47.5339 11.1615 48.0734 10.7681C48.6017 10.386 49.0513 10.0937 49.0738 10.1162Z" fill="#263238"/>
<path d="M38.7443 11.2965C38.733 11.3189 38.261 11.0829 37.7214 10.7232C37.1819 10.3523 36.7998 9.99261 36.8222 9.97013C36.8447 9.94765 37.2606 10.2624 37.7889 10.6221C38.3172 10.993 38.7668 11.2627 38.7443 11.2965Z" fill="#263238"/>
<path d="M38.6656 30.4269C38.6543 30.4606 38.126 30.1459 37.6315 29.5839C37.1257 29.0219 36.8896 28.4599 36.9121 28.4487C36.9458 28.4374 37.2268 28.9657 37.7214 29.5052C38.1935 30.056 38.6881 30.4044 38.6656 30.4269Z" fill="#263238"/>
<path d="M49.1075 28.6287C49.1187 28.6512 48.7365 29.0334 48.2307 29.4718C47.7249 29.9214 47.2978 30.2586 47.2753 30.2361C47.2529 30.2136 47.6463 29.8314 48.1521 29.3931C48.6579 28.9435 49.085 28.6063 49.1075 28.6287Z" fill="#263238"/>
<path d="M38.6657 55.6498C38.677 55.6723 38.2723 55.9758 37.8002 56.3916C37.3394 56.7963 36.9909 57.1672 36.9685 57.1447C36.946 57.1335 37.2495 56.7176 37.7215 56.3017C38.2049 55.8858 38.6432 55.6273 38.6657 55.6498Z" fill="#263238"/>
<path d="M48.9053 57.0661C48.8828 57.0886 48.5006 56.7739 48.051 56.358C47.6014 55.9421 47.253 55.5825 47.2754 55.56C47.2979 55.5375 47.6801 55.8522 48.1297 56.2681C48.5793 56.684 48.9277 57.0437 48.9053 57.0661Z" fill="#263238"/>
<path d="M38.8678 66.7665C38.8453 66.789 38.3845 66.3506 37.8337 65.7774C37.2829 65.2041 36.8558 64.7208 36.8783 64.6983C36.9008 64.6759 37.3616 65.1142 37.9124 65.6875C38.4631 66.2607 38.8903 66.744 38.8678 66.7665Z" fill="#263238"/>
<path d="M49.2198 64.6083C49.2423 64.6308 48.8152 65.0692 48.2644 65.5974C47.7249 66.1257 47.2641 66.5304 47.2416 66.5079C47.2191 66.4854 47.6462 66.0358 48.1857 65.5188C48.7365 64.9905 49.1973 64.5858 49.2198 64.6083Z" fill="#263238"/>
<path d="M38.4632 91.4045C38.4857 91.427 38.1597 91.8317 37.7326 92.3037C37.3055 92.7646 36.9458 93.1355 36.9233 93.113C36.8896 93.0906 37.2155 92.6859 37.6427 92.2251C38.0698 91.753 38.4407 91.3821 38.4632 91.4045Z" fill="#263238"/>
<path d="M49.0514 93.1354C49.0289 93.1579 48.5905 92.8432 48.096 92.3711C47.6014 91.9103 47.253 91.4831 47.2754 91.4719C47.2979 91.4494 47.6801 91.8316 48.1747 92.2924C48.658 92.7533 49.0739 93.1017 49.0514 93.1354Z" fill="#263238"/>
<path d="M73.4988 77.4668V97.2831H45.9268V77.4668H73.4988Z" fill="#0C73E3"/>
<path d="M53.3225 77.4668C53.3675 77.4668 53.3225 81.6481 53.3225 81.6481H51.2881V77.4668H53.3225Z" fill="#263238"/>
<g opacity="0.4">
<path d="M59.7183 77.4668H73.4986V97.2831H59.7183V77.4668Z" fill="black"/>
</g>
<path d="M50.4563 96.013H46.7695V93.4053H50.4563V96.013Z" fill="#FAFAFA"/>
<path fill-rule="evenodd" clip-rule="evenodd" d="M50.4675 96.0242H46.7583V93.4053H50.4675V96.0242ZM46.7695 96.013H50.4563V93.4053H46.7695V96.013Z" fill="#263238"/>
<path d="M52.9855 96.013H51.1421V93.4053H52.9855V96.013Z" fill="#FAFAFA"/>
<path fill-rule="evenodd" clip-rule="evenodd" d="M52.9967 96.0242H51.1309V93.4053H52.9967V96.0242ZM51.1533 96.013H52.9855V93.4053H51.1533V96.013Z" fill="#263238"/>
</svg>
