<svg id="Layer_1" enable-background="new 0 0 512 512" height="512" viewBox="0 0 512 512" width="512" xmlns="http://www.w3.org/2000/svg"><g><path d="m291.36 216.804h-273.86c-9.649 0-17.5 7.851-17.5 17.5v260.196c0 9.65 7.851 17.5 17.5 17.5h29.321c9.386 0 9.813-15 0-15h-29.321c-1.379 0-2.5-1.122-2.5-2.5v-260.196c0-1.378 1.121-2.5 2.5-2.5h93.044v109.139c0 5.965 6.921 9.596 11.832 6.123l32.054-22.679 32.055 22.679c4.878 3.451 11.832-.146 11.832-6.123v-109.139h93.043c1.379 0 2.5 1.122 2.5 2.5v260.196c0 1.378-1.121 2.5-2.5 2.5h-205.28c-9.386 0-9.813 15 0 15h205.28c9.649 0 17.5-7.851 17.5-17.5v-260.196c0-9.65-7.851-17.5-17.5-17.5zm-108.043 109.645-24.555-17.373c-2.888-1.837-5.776-1.837-8.664 0l-24.554 17.373v-94.645h57.772v94.645z"/><path d="m277.187 470.021v-62.979c0-4.142-3.357-7.5-7.5-7.5h-230.513c-4.143 0-7.5 3.358-7.5 7.5v62.979c0 4.142 3.357 7.5 7.5 7.5h230.513c4.142 0 7.5-3.358 7.5-7.5zm-15-7.5h-215.513v-47.979h215.513z"/><path d="m68.547 454.503c4.143 0 7.5-3.358 7.5-7.5v-16.943c0-4.142-3.357-7.5-7.5-7.5s-7.5 3.358-7.5 7.5v16.942c0 4.143 3.357 7.501 7.5 7.501z"/><path d="m240.313 454.503c4.143 0 7.5-3.358 7.5-7.5v-16.943c0-4.142-3.357-7.5-7.5-7.5s-7.5 3.358-7.5 7.5v16.942c0 4.143 3.357 7.501 7.5 7.501z"/><path d="m182.74 454.503c4.143 0 7.5-3.358 7.5-7.5v-16.943c0-4.142-3.357-7.5-7.5-7.5s-7.5 3.358-7.5 7.5v16.942c0 4.143 3.358 7.501 7.5 7.501z"/><path d="m204.719 454.503c4.143 0 7.5-3.358 7.5-7.5v-16.943c0-4.142-3.357-7.5-7.5-7.5s-7.5 3.358-7.5 7.5v16.942c0 4.143 3.357 7.501 7.5 7.501z"/><path d="m101.884 454.503c4.143 0 7.5-3.358 7.5-7.5v-16.943c0-4.142-3.357-7.5-7.5-7.5s-7.5 3.358-7.5 7.5v16.942c0 4.143 3.357 7.501 7.5 7.501z"/><path d="m124.866 454.503c4.143 0 7.5-3.358 7.5-7.5v-16.943c0-4.142-3.357-7.5-7.5-7.5s-7.5 3.358-7.5 7.5v16.942c0 4.143 3.358 7.501 7.5 7.501z"/><path d="m147.85 454.503c4.143 0 7.5-3.358 7.5-7.5v-16.943c0-4.142-3.357-7.5-7.5-7.5s-7.5 3.358-7.5 7.5v16.942c0 4.143 3.357 7.501 7.5 7.501z"/><path d="m356.447 364.862h68.996c9.386 0 9.813-15 0-15h-68.996c-9.385 0-9.812 15 0 15z"/><path d="m455.444 399.256h-98.996c-9.386 0-9.813 15 0 15h98.996c9.385 0 9.812-15 0-15z"/><path d="m425.444 448.65h-68.996c-9.386 0-9.813 15 0 15h68.996c9.385 0 9.812-15 0-15z"/><path d="m401.677 111.568c-4.143 0-7.5 3.358-7.5 7.5v61.475c0 9.386 15 9.813 15 0v-21.102c0-7.269 3.299-12.345 8.021-12.345 2.797 0 3.516.723 3.752.96.69.695 2.294 3.191 2.251 11.413l.078 21.102c.037 9.801 15.037 9.746 15-.056l-.078-21.035c.055-10.419-2.048-17.411-6.617-22.004-5.573-5.602-15.224-6.739-22.407-3.859v-14.549c0-4.142-3.357-7.5-7.5-7.5z"/><path d="m363.308 169.899c-.027 3.742-.057 7.328-.085 10.579-.083 9.802 14.914 9.93 15 .13.021-2.565.054-6.32.087-10.708h.434c4.143 0 7.5-3.358 7.5-7.5s-3.357-7.5-7.5-7.5h-.333c.086-14.76.125-29.995-.06-32.195-.9-10.769-13.35-14.677-20.249-6.238-3.536 4.326-19.752 33.473-24.638 42.303-2.718 4.914.946 11.131 6.563 11.131h23.281zm.174-33.752c-.008 5.346-.036 11.929-.075 18.752h-10.613c3.887-6.925 7.665-13.56 10.688-18.752z"/><path d="m325.769 172.904c-.032 0-.064 0-.096 0-5.591.07-11.502.119-16.572.134 3.283-4.411 7.712-10.486 13.544-18.818 3.91-5.584 8.066-12.598 8.066-19.723 0-12.643-10.287-22.928-22.932-22.928-9.009 0-22.83 7.992-22.502 18.492.267 8.541 12.668 13.327 14.719 2.893.727-3.699 4-6.384 7.783-6.384 4.239 0 7.713 3.342 7.922 7.529-.889 4.268-2.809 7.898-5.345 11.52-9.544 13.634-15.239 21.089-18.299 25.095-3.717 4.867-8.177 13.786.607 16.713.998.333 24.576.586 33.195.478 9.334-.12 9.656-15.001-.09-15.001z"/><path d="m468.841 44.6c-27.804-28.182-64.898-44.016-104.453-44.584-82.226-1.195-150.403 64.706-151.971 146.875-.18 9.425.522 18.879 2.085 28.102 4.715 27.798 48.372 20.714 43.583-7.395-1.321-7.754-1.772-15.712-1.34-23.654 2.826-52.043 49.236-97.686 101.343-99.668 28.97-1.107 56.413 9.364 77.299 29.471 20.905 20.125 32.418 47.136 32.418 76.06 0 11.194-1.773 22.264-5.272 32.904-2.932 8.916 11.185 14.006 14.25 4.686 3.996-12.154 6.022-24.801 6.022-37.589 0-33.039-13.146-63.888-37.015-86.866-23.851-22.96-55.207-34.905-88.272-33.654-28.955 1.102-57.049 13.653-79.104 35.343-22.061 21.693-35.075 49.572-36.646 78.501-.492 9.055.022 18.135 1.531 26.988 1.417 8.309-12.491 11.299-14.007 2.368-1.407-8.301-2.038-16.816-1.876-25.308 1.397-73.291 61.675-132.18 134.798-132.18.648 0 1.309.004 1.959.014 35.591.512 68.97 14.76 93.99 40.121 25.044 25.385 38.837 59.006 38.837 94.671 0 61.893-41.867 115.65-101.813 130.728-4.487 1.626-6.268 4.78-5.345 9.462l1.633 5.349c.231 2.809-1.052 4.041-3.85 3.696l-34.566-12.102c-2.028-1.062-2.497-2.599-1.409-4.613l21.914-29.344c1.336-1.788 4.493-1.593 5.259.916l2.478 8.117c1.156 3.791 5.066 6.028 8.915 5.105 26.025-6.216 49.602-21.253 66.384-42.341 5.845-7.343-5.627-17.02-11.736-9.341-13.231 16.625-31.269 28.955-51.345 35.224-4.119-14.006-22.725-19.036-31.972-6.655l-21.915 29.345c-7.09 9.496-2.765 23.811 8.471 27.745l34.566 12.102c12.735 4.459 26.115-6.794 23.648-20.202 62.603-19.207 105.683-77.015 105.683-143.191 0-39.633-15.327-76.996-43.159-105.206z"/></g></svg>