<svg id="Capa_1" enable-background="new 0 0 512 512" viewBox="0 0 512 512" xmlns="http://www.w3.org/2000/svg"><g><path d="m327.957 256h-40.126c-1.846 0-3.044-1.886-2.328-3.588 1.915-4.546 2.81-9.626 2.398-14.956-.987-12.782-11.811-29.456-31.901-29.456-17.673 0-32 14.327-32 32 0 4.389.884 8.572 2.483 12.381.721 1.718-.49 3.619-2.353 3.619h-40.087c-4.727 0-8.848 3.217-9.994 7.803l-30.049 120.197h224l-30.049-120.197c-1.147-4.586-5.267-7.803-9.994-7.803z" fill="#c8effe"/><path d="m445.515 223.512 14.856-2.971c27.681-5.536 47.606-29.841 47.606-58.071v-4.482c0-25.399-20.59-45.988-45.989-45.988-25.398 0-45.988 20.59-45.988 45.989v41.328c0 15.571 14.246 27.249 29.515 24.195z" fill="#01c0fa"/><path d="m298.302 351.994h82.547c2.227 0 4.203-1.432 4.895-3.549l23.285-71.152c4.158-12.702 16.009-21.293 29.374-21.293h42.69c17.069 0 30.905 13.837 30.905 30.905l.002 171.944c0 2.845-2.306 5.151-5.151 5.151h-85.7c-2.845 0-5.151-2.306-5.151-5.151v-61.899c0-1.991-2.211-3.179-3.872-2.08-4.947 3.274-10.842 5.131-17.053 5.131h-81.32c-14.222-.001-25.753-11.532-25.753-25.756v-11.95c0-5.689 4.612-10.301 10.302-10.301z" fill="#01c0fa"/><path d="m511.999 286.905c0-17.068-13.837-30.905-30.905-30.905h-1.759c1.139 3.222 1.759 6.689 1.759 10.302l.001 134.408c0 23.575-19.111 42.687-42.686 42.687h-22.409v15.453c0 2.845 2.306 5.151 5.151 5.151h85.7c2.845 0 5.151-2.306 5.151-5.151z" fill="#08a9f1"/><path d="m66.485 223.512-14.856-2.971c-27.681-5.537-47.606-29.841-47.606-58.071v-4.482c0-25.398 20.59-45.988 45.988-45.988 25.399 0 45.989 20.59 45.989 45.989v41.328c0 15.571-14.246 27.249-29.515 24.195z" fill="#0067c5"/><path d="m213.698 351.994h-82.548c-2.227 0-4.203-1.432-4.895-3.549l-23.285-71.152c-4.157-12.702-16.008-21.293-29.373-21.293h-42.69c-17.069 0-30.905 13.837-30.905 30.905l-.002 171.944c0 2.845 2.306 5.151 5.151 5.151h85.7c2.845 0 5.151-2.306 5.151-5.151v-61.899c0-1.991 2.211-3.179 3.872-2.08 4.947 3.274 10.842 5.131 17.053 5.131h81.32c14.222-.001 25.753-11.532 25.753-25.756v-11.95c0-5.689-4.612-10.301-10.302-10.301z" fill="#0067c5"/><path d="m173.429 50.575v74.849c0 1.422-1.153 2.575-2.575 2.575h-24.274c-2.122 0-3.334 2.423-2.06 4.121l42.849 57.132c1.03 1.374 3.091 1.374 4.121 0l42.849-57.132c1.273-1.698.062-4.121-2.06-4.121h-24.274c-1.422 0-2.575-1.153-2.575-2.575v-74.849c0-1.422-1.153-2.575-2.575-2.575h-26.849c-1.424 0-2.577 1.153-2.577 2.575z" fill="#e53950"/><path d="m338.571 50.575v74.849c0 1.422 1.153 2.575 2.575 2.575h24.274c2.122 0 3.334 2.423 2.06 4.121l-42.849 57.132c-1.03 1.374-3.091 1.374-4.121 0l-42.849-57.132c-1.273-1.698-.062-4.121 2.06-4.121h24.274c1.422 0 2.575-1.153 2.575-2.575v-74.849c0-1.422 1.153-2.575 2.575-2.575h26.849c1.424 0 2.577 1.153 2.577 2.575z" fill="#e53950"/><g><g><g><circle cx="256" cy="240" fill="#99e6fc" r="7.5"/></g></g></g><path d="m86.138 387.423-21.042-51.444v64.731c0 23.575-19.111 42.686-42.686 42.686h-22.41v15.453c0 2.845 2.306 5.151 5.151 5.151h85.7c2.845 0 5.151-2.306 5.151-5.151v-48.945c-.001.001-8.127-17.792-9.864-22.481z" fill="#0055a3"/><path d="m99.839 394.848c-5.309-3.45-9.59-8.733-11.894-15.018l-28.091-75.83c-1.439-3.883-5.755-5.866-9.638-4.428-3.884 1.439-5.866 5.754-4.427 9.639l28.09 75.83c4.113 11.104 12.137 19.937 22.122 24.864v-12.955c0-1.978 2.182-3.163 3.838-2.102z" fill="#004281"/><path d="m412.161 394.848c5.309-3.45 9.59-8.733 11.894-15.018l28.091-75.83c1.439-3.883 5.755-5.866 9.638-4.428 3.884 1.439 5.866 5.754 4.427 9.639l-28.09 75.83c-4.113 11.104-12.137 19.937-22.122 24.864v-12.955c0-1.978-2.182-3.163-3.838-2.102z" fill="#0290cf"/></g><g/><g/><g/><g/><g/><g/><g/><g/><g/><g/><g/><g/><g/><g/><g/></svg>