<svg id="Capa_1" enable-background="new 0 0 510 510" height="512" viewBox="0 0 510 510" width="512" xmlns="http://www.w3.org/2000/svg"><g><path d="m382.75 264.428 7.252-69.43h48.068l21.42 60z" fill="#ebf2ff"/><path d="m459.49 254.998h-69.49v-60h-30l-15 104.68 125.525-13.946z" fill="#ff884d"/><path d="m462.167 285h-102.167l-35 90 35 60h150v-102.167c0-26.375-21.458-47.833-47.833-47.833z" fill="#e2383c"/><circle id="XMLID_209_" cx="405" cy="435" fill="#333373" r="45"/><circle id="XMLID_207_" cx="405" cy="435" fill="#d9e4ff" r="15"/><path d="m0 150v120l225 165h30l10-172.667-10-112.333z" fill="#73e8ff"/><path d="m255 150h105v285h-105z" fill="#40beff"/><circle id="XMLID_205_" cx="135" cy="105" fill="#ebf2ff" r="75"/><path d="m165 120h-39.271l-19.145-38.292 26.832-13.416 10.854 21.708h20.73z" fill="#f25757"/><path d="m157.5 270-45 22.5-45-22.5h-67.5v210h225v-210z" fill="#ffd737"/><g fill="#ffb048"><path d="m67.5 270h90v75h-90z"/><path d="m30 420h60v30h-60z"/></g></g></svg>