<svg id="Layer_1" enable-background="new 0 0 512 512" viewBox="0 0 512 512" xmlns="http://www.w3.org/2000/svg"><path d="m507.546 464.346-54.171-90.4v-94.791h43.64c7.707 0 13.976-6.27 13.976-13.976v-208.551c0-7.706-6.27-13.976-13.976-13.976h-43.64v-17.292c0-7.707-6.27-13.977-13.976-13.977h-19.168c-7.707 0-13.976 6.27-13.976 13.977v17.292h-300.528v-19.285c0-6.607-5.376-11.983-11.984-11.983h-23.152c-6.608 0-11.984 5.376-11.984 11.983v19.285h-43.64c-7.707 0-13.977 6.27-13.977 13.976v208.552c0 7.706 6.27 13.976 13.977 13.976h43.64v95.142h-10.303c-7.706 0-13.975 6.27-13.975 13.976v19.678c0 7.706 6.269 13.976 13.975 13.976h67.727c7.706 0 13.976-6.27 13.976-13.976v-19.678c0-7.706-6.27-13.976-13.976-13.976h-10.303v-95.142h158.944l-110.973 185.19c-4.502 7.515-4.621 16.537-.316 24.136s12.105 12.135 20.866 12.135h312.749c8.761 0 16.561-4.537 20.866-12.136 4.303-7.599 4.185-16.621-.318-24.135zm-70.171-117.101-15.12-25.231v-42.858h15.12zm-50.39-84.09-6.825-11.39 51.745-193.113h53.552l-54.797 204.503zm-18.271-30.491-20.88-34.845c-3.654-6.098-10.088-9.738-17.212-9.738-1.225 0-2.427.115-3.601.324l34.767-129.753h53.552zm37.541 46.491v16.158l-9.682-16.158zm40.97-16 47.767-178.267v178.267zm-24.97-235.771h15.12v15.269h-15.12zm-287.381 31.268-54.796 204.503h-53.552l54.796-204.503zm16.564 0h53.552l-54.796 204.503h-53.552zm70.117 0h53.552l-54.797 204.503h-53.552zm-146.948-31.268h15.12v15.269h-15.12zm-9.849 31.268-47.767 178.267v-178.267zm49.248 347.274h-63.677v-15.629h63.677zm-24.279-31.629h-15.12v-95.142h15.12zm147.148-111.142 54.797-204.503h53.552l-41.72 155.698-29.246 48.805zm257.066 217.439c-.686 1.21-2.734 4.022-6.945 4.022h-312.749c-4.211 0-6.26-2.812-6.945-4.022-.685-1.209-2.045-4.411.12-8.023l159.712-266.526c1.062-1.771 2.792-1.963 3.487-1.963s2.426.191 3.487 1.963l159.713 266.525c2.165 3.613.805 6.815.12 8.024zm-163.319-56.269c-13.815 0-25.054 11.239-25.054 25.054s11.239 25.055 25.054 25.055 25.055-11.239 25.055-25.055c0-13.815-11.239-25.054-25.055-25.054zm0 34.109c-4.993 0-9.054-4.062-9.054-9.055 0-4.992 4.062-9.054 9.054-9.054s9.055 4.062 9.055 9.054c0 4.993-4.062 9.055-9.055 9.055zm.001-205.992c-14.604 0-29.389 9.65-29.389 28.095 0 .184.006.366.019.55l8.119 117.886c.158 11.507 9.241 20.146 21.252 20.146 12.01 0 21.093-8.639 21.25-20.145l8.119-117.887c.013-.183.019-.366.019-.55-.001-18.444-14.785-28.095-29.389-28.095zm5.271 145.676c-.013.183-.019.366-.019.55 0 4.017-3.673 4.45-5.252 4.45-1.58 0-5.253-.434-5.253-4.45 0-.184-.006-.367-.019-.55l-8.115-117.829c.167-11.513 12.026-11.847 13.387-11.847s13.218.335 13.387 11.846z"/></svg>