<svg clip-rule="evenodd" fill-rule="evenodd" stroke-linejoin="round" stroke-miterlimit="2" viewBox="0 0 510 510" xmlns="http://www.w3.org/2000/svg"><path d="m121.025 451.976 5.843 10.326c.004.006.007.013.011.019 5.177 9.207 1.894 20.956-7.261 26.127l-21.309 12.077c-.008.005-.016.01-.025.014-9.207 5.176-20.955 1.893-26.128-7.265l-62.664-110.726c-5.224-9.216-1.94-20.976 7.226-26.153l21.334-12.078.007-.004c9.162-5.175 20.915-1.922 26.132 7.239l.011.019 4.701 8.307 55.413-32.082c16.891-9.769 34.155-16.113 52.707-10.089 17.928 5.813 47.194 18.347 77.063 23.744.353.064.701.151 1.042.262 15.314 4.958 24.615 20.446 20.433 35.996-.548 2.043-1.248 3.962-2.093 5.749 2.886-.9 5.718-2.148 8.506-3.773l75.983-44.253c27.677-16.124 46.137-14.309 56.582-7.302 9.043 6.067 13.241 16.421 12.971 26.59-.273 10.277-5.183 20.088-13.243 25.052l-137.874 84.887c-14.612 9.019-30.618 11.137-47.2 6.714l-.009-.003-96.813-25.946zm-8.091 18.189-62.648-110.698c-.872-1.528-2.829-2.086-4.358-1.223l-21.328 12.075-.007.004c-1.519.857-2.047 2.809-1.182 4.335l.003.004 62.666 110.731.004.006c.861 1.526 2.821 2.055 4.355 1.196l21.29-12.067.01-.006c1.526-.862 2.055-2.823 1.195-4.357zm.21-32.114 14.097-8.14c1.837-1.061 4.021-1.349 6.071-.799l100.007 26.802c12.177 3.248 23.94 1.753 34.671-4.87l.007-.005 137.88-84.891c3.734-2.299 5.512-7.092 5.638-11.853.15-5.638-2.202-11.611-8.164-14.091-7.839-3.262-19.868-1.126-37.341 9.053l-75.98 44.252c-12.278 7.155-25.145 9.136-39.168 6.904-.009-.002-9.788-1.6-9.792-1.601-17.156-3.522-33.068-8.704-50.724-13.449-4.264-1.146-6.795-5.538-5.649-9.802s5.538-6.795 9.802-5.649c17.221 4.628 32.745 9.703 49.462 13.16 8.22.903 14.257-2.47 16.148-9.513l.001-.004c1.913-7.114-2.552-13.999-9.457-16.466-30.463-5.597-60.279-18.233-78.567-24.163l-.004-.001c-14.07-4.569-26.945 1.312-39.756 8.721l-55.542 32.157zm-70.464-67.16c4.836-.72 9.327 2.619 10.047 7.456.691 4.836-2.649 9.356-7.485 10.047-4.836.72-9.327-2.649-10.047-7.485-.691-4.837 2.648-9.328 7.485-10.018zm245.669-40.341c-63.228 0-114.801-51.572-114.801-114.801s51.573-114.801 114.801-114.801c63.229 0 114.801 51.572 114.801 114.801s-51.572 114.801-114.801 114.801zm0-16c54.417 0 98.801-44.385 98.801-98.801 0-54.417-44.384-98.801-98.801-98.801-54.416 0-98.801 44.384-98.801 98.801 0 54.416 44.385 98.801 98.801 98.801zm-8-158.511v-7.852c0-4.416 3.585-8 8-8 4.416 0 8 3.584 8 8v7.752c12.779 2.177 24.808 9.917 30.839 24.289 1.709 4.071-.209 8.764-4.281 10.472-4.071 1.709-8.764-.21-10.472-4.281-6.176-14.717-22.63-17.813-34.471-13.154-7.12 2.8-12.717 8.619-12.302 16.974l.001.02c.313 6.635 4.511 10.505 9.638 13.008 4.447 2.172 9.587 3.403 14.441 4.193l.014.003c18.032 2.969 38.024 10.898 40.602 32.333 2.603 21.489-15.705 33.324-34.009 35.899v7.652c0 4.415-3.584 8-8 8-4.415 0-8-3.585-8-8v-7.766c-15.871-2.546-29.858-12.476-34.008-29.149-1.066-4.284 1.547-8.629 5.831-9.695 4.285-1.066 8.629 1.546 9.696 5.831 3.091 12.419 15.529 17.957 27.674 17.656h.018c6.399-.145 13.511-1.774 18.759-5.392 4.122-2.844 6.881-7.122 6.155-13.115l-.001-.008c-.718-5.973-4.082-9.833-8.438-12.464-5.54-3.347-12.487-4.943-18.865-5.993-17.556-2.859-36.505-11.42-37.489-32.237-.776-15.78 8.976-27.349 22.425-32.64 2.632-1.035 5.4-1.818 8.243-2.336zm201.527-80.579c-11.43-13.09-35.475-40.628-43.961-50.346l-43.962 50.346h15.506c4.418 0 8 3.582 8 8v81.23c0 4.416-3.585 8-8 8s-8-3.584-8-8v-73.23h-16.769c-4.781 0-8.764-2.567-10.744-6.766-2.037-4.288-1.402-9.103 1.799-12.707 0 0 53.188-60.913 53.188-60.913 2.276-2.632 5.354-4.074 8.982-4.074 3.529 0 6.605 1.391 8.933 4.019.012.014.025.028.037.042l53.218 60.948c3.145 3.592 3.79 8.403 1.756 12.685-1.987 4.213-5.999 6.766-10.72 6.766h-16.793v126.559c0 4.415-3.585 8-8 8-4.416 0-8-3.585-8-8v-134.559c0-4.418 3.581-8 8-8zm-338.951 126.121c-7.693-8.811-19.114-21.89-25.076-28.718l-25.076 28.718h5.349c4.418 0 8 3.582 8 8v56.313c0 4.415-3.585 8-8 8-4.416 0-8-3.585-8-8v-48.313h-9.172c-4.302 0-7.883-2.317-9.667-6.095-1.838-3.875-1.265-8.225 1.623-11.479 0 0 36.864-42.218 36.864-42.218 2.048-2.367 4.815-3.669 8.079-3.669 3.172 0 5.937 1.251 8.029 3.613.013.014.026.028.038.043l36.892 42.25c2.841 3.245 3.425 7.591 1.589 11.46-1.791 3.792-5.399 6.095-9.65 6.095h-9.188v85.284c0 4.415-3.585 8-8 8-4.416 0-8-3.585-8-8v-93.284c0-4.418 3.581-8 8-8zm31.223-137.768c-7.693-8.81-19.114-21.89-25.076-28.718l-25.076 28.718h5.349c4.418 0 8 3.582 8 8v56.313c0 4.416-3.585 8-8 8s-8-3.584-8-8v-48.313h-9.171c-4.303 0-7.884-2.317-9.667-6.095-1.839-3.874-1.265-8.224 1.623-11.479 0 0 36.863-42.218 36.863-42.218 2.049-2.367 4.815-3.668 8.079-3.668 3.172 0 5.938 1.25 8.03 3.612.013.015.025.029.038.043l36.891 42.25c2.841 3.245 3.425 7.591 1.589 11.46-1.79 3.793-5.399 6.095-9.65 6.095h-9.188v85.284c0 4.415-3.585 8-8 8s-8-3.585-8-8v-93.284c0-4.418 3.582-8 8-8z"/></svg>