<svg height="512pt" viewBox="0 -26 512 512" width="512pt" xmlns="http://www.w3.org/2000/svg"><path d="m504.480469 57.003906h-496.960938c-4.152343 0-7.519531 3.363282-7.519531 7.515625v387.855469c0 4.152344 3.367188 7.519531 7.519531 7.519531h496.960938c4.152343 0 7.519531-3.367187 7.519531-7.519531v-387.855469c0-4.152343-3.367188-7.515625-7.519531-7.515625zm0 0" fill="#fff4f1"/><path d="m504.480469 57.003906h-23.058594c4.152344 0 7.519531 3.363282 7.519531 7.515625v387.855469c0 4.152344-3.367187 7.519531-7.519531 7.519531h23.058594c4.152343 0 7.519531-3.367187 7.519531-7.519531v-387.855469c0-4.152343-3.367188-7.515625-7.519531-7.515625zm0 0" fill="#ecedef"/><path d="m504.480469 0h-496.960938c-4.152343 0-7.519531 3.367188-7.519531 7.519531v64.519531h512v-64.519531c0-4.152343-3.367188-7.519531-7.519531-7.519531zm0 0" fill="#4890e3"/><path d="m394.21875 36.019531c0 4.152344-3.367188 7.519531-7.519531 7.519531-4.152344 0-7.519531-3.367187-7.519531-7.519531 0-4.152343 3.367187-7.519531 7.519531-7.519531 4.152343 0 7.519531 3.367188 7.519531 7.519531zm0 0" fill="#fff4f1"/><path d="m430.910156 36.019531c0 4.152344-3.367187 7.519531-7.519531 7.519531s-7.519531-3.367187-7.519531-7.519531c0-4.152343 3.367187-7.519531 7.519531-7.519531s7.519531 3.367188 7.519531 7.519531zm0 0" fill="#fff4f1"/><path d="m467.605469 36.019531c0 4.152344-3.367188 7.519531-7.519531 7.519531-4.15625 0-7.519532-3.367187-7.519532-7.519531 0-4.152343 3.363282-7.519531 7.519532-7.519531 4.152343 0 7.519531 3.367188 7.519531 7.519531zm0 0" fill="#fff4f1"/><path d="m325.433594 188.382812h-249.0625c-4.152344 0-7.519532 3.367188-7.519532 7.519532v220.640625c0 4.152343 3.367188 7.519531 7.519532 7.519531h249.0625c4.152344 0 7.519531-3.367188 7.519531-7.519531v-220.640625c0-4.152344-3.367187-7.519532-7.519531-7.519532zm0 0" fill="#f9e075"/><path d="m325.433594 188.382812h-23.058594c4.152344 0 7.519531 3.367188 7.519531 7.519532v220.640625c0 4.152343-3.367187 7.519531-7.519531 7.519531h23.058594c4.152344 0 7.519531-3.367188 7.519531-7.519531v-220.640625c0-4.152344-3.367187-7.519532-7.519531-7.519532zm0 0" fill="#f9cd45"/><path d="m245.488281 188.382812h-89.175781v137.917969c0 4.152344 3.367188 7.519531 7.519531 7.519531h74.136719c4.152344 0 7.519531-3.367187 7.519531-7.519531zm0 0" fill="#f9cd45"/><path d="m360.25 90.628906c-48.933594 0-88.746094 39.8125-88.746094 88.75s39.8125 88.746094 88.746094 88.746094c48.9375 0 88.75-39.8125 88.75-88.746094 0-48.9375-39.8125-88.75-88.75-88.75zm0 0" fill="#e480be"/><path d="m504.480469 0h-23.058594c4.152344 0 7.519531 3.367188 7.519531 7.519531v64.519531h23.058594v-64.519531c0-4.152343-3.367188-7.519531-7.519531-7.519531zm0 0" fill="#2970d6"/><path d="m222.429688 188.382812v137.917969c0 4.152344-3.367188 7.519531-7.519532 7.519531h23.058594c4.15625 0 7.519531-3.367187 7.519531-7.519531v-137.917969zm0 0" fill="#f8b53c"/><path d="m360.25 90.628906c-3.90625 0-7.753906.257813-11.527344.75 43.507813 5.667969 77.214844 42.96875 77.214844 88 0 45.027344-33.707031 82.328125-77.214844 87.996094 3.773438.492188 7.621094.75 11.527344.75 48.9375 0 88.75-39.8125 88.75-88.746094 0-48.9375-39.8125-88.75-88.75-88.75zm0 0" fill="#ce73b3"/><path d="m329.503906 160.003906c5.859375 0 11.769532 3.6875 11.769532 10.457032 0 10.960937-15.609376 14.546874-15.609376 19.144531v.453125h13.234376c1.261718 0 2.375 1.566406 2.375 3.386718 0 1.816407-1.113282 3.484376-2.375 3.484376h-17.984376c-1.414062 0-3.433593-.960938-3.433593-2.425782v-4.898437c0-7.929688 15.910156-12.476563 15.910156-18.890625 0-1.617188-1.007813-3.589844-3.835937-3.589844-2.023438 0-3.789063 1.011719-3.789063 3.789062 0 1.464844-1.566406 2.878907-4.144531 2.878907-2.019532 0-3.535156-.910157-3.535156-4.089844 0-6.164063 5.65625-9.699219 11.417968-9.699219zm0 0" fill="#fff4f1"/><path d="m355.769531 189.148438h-11.820312c-1.464844 0-2.625-.957032-2.625-2.726563 0-.40625.101562-.960937.402343-1.515625l11.667969-22.882812c.757813-1.464844 2.023438-2.019532 3.285157-2.019532 1.363281 0 3.941406 1.160156 3.941406 2.980469 0 .300781-.101563.605469-.253906.960937l-8.941407 17.929688h4.34375v-3.535156c0-1.667969 1.972657-2.375 3.941407-2.375s3.941406.707031 3.941406 2.375v3.535156h2.171875c1.613281 0 2.425781 1.820312 2.425781 3.636719 0 1.820312-1.214844 3.636719-2.425781 3.636719h-2.171875v5.355468c0 1.617188-1.972656 2.425782-3.941406 2.425782s-3.941407-.808594-3.941407-2.425782zm0 0" fill="#fff4f1"/><path d="m388.753906 180.8125h-10.050781v13.691406c0 1.617188-1.96875 2.421875-3.941406 2.421875-1.96875 0-3.941407-.804687-3.941407-2.421875v-32.128906c0-1.664062 1.972657-2.371094 3.941407-2.371094 1.972656 0 3.941406.707032 3.941406 2.371094v12.378906h10.050781v-12.378906c0-1.664062 1.972656-2.371094 3.941406-2.371094s3.941407.707032 3.941407 2.371094v32.128906c0 1.617188-1.972657 2.421875-3.941407 2.421875s-3.941406-.804687-3.941406-2.421875zm0 0" fill="#fff4f1"/><g fill="#d0cfd1"><path d="m210.40625 131.910156h-130.679688c-4.152343 0-7.519531-3.367187-7.519531-7.519531s3.367188-7.519531 7.519531-7.519531h130.679688c4.152344 0 7.519531 3.367187 7.519531 7.519531s-3.367187 7.519531-7.519531 7.519531zm0 0"/><path d="m210.40625 163.394531h-130.679688c-4.152343 0-7.519531-3.367187-7.519531-7.519531s3.367188-7.519531 7.519531-7.519531h130.679688c4.152344 0 7.519531 3.367187 7.519531 7.519531s-3.367187 7.519531-7.519531 7.519531zm0 0"/><path d="m439.839844 351.113281h-73.105469c-4.152344 0-7.519531-3.367187-7.519531-7.519531s3.367187-7.519531 7.519531-7.519531h73.105469c4.152344 0 7.519531 3.367187 7.519531 7.519531s-3.367187 7.519531-7.519531 7.519531zm0 0"/><path d="m427.523438 363.386719c-2.035157 0-4.066407-.820313-5.546876-2.441407-2.808593-3.0625-2.597656-7.820312.464844-10.625l7.648438-7-7.417969-6.25c-3.171875-2.679687-3.578125-7.421874-.902344-10.597656 2.679688-3.171875 7.421875-3.578125 10.597657-.898437l13.957031 11.765625c1.652343 1.394531 2.628906 3.433594 2.671875 5.597656.042968 2.160156-.847656 4.238281-2.441406 5.699219l-13.957032 12.777343c-1.441406 1.320313-3.261718 1.972657-5.074218 1.972657zm0 0"/></g></svg>