<svg id="Capa_1" enable-background="new 0 0 511.998 511.998" viewBox="0 0 511.998 511.998" xmlns="http://www.w3.org/2000/svg"><g><path d="m369.235 150.793-2.403-11.71-11.939-.324s-.442-.012-1.274-.012c-6.037 0-36.459.707-63.679 14.162h-67.883c-27.22-13.455-57.642-14.162-63.679-14.162-.833 0-1.274.012-1.274.012l-11.984.327-2.357 11.708c-.501 2.49-11.918 61.41 19.567 98.933 29.12 34.705 82.377 36.462 92.757 36.462.394 0 .699-.003.913-.006.213.003.519.006.912.006 10.38 0 63.637-1.758 92.757-36.462 31.485-37.524 20.068-96.444 19.566-98.934z" fill="#ff3838"/><path d="m256.911 286.188c10.38 0 63.637-1.758 92.757-36.462 31.486-37.523 20.069-96.443 19.567-98.933l-2.403-11.71-11.939-.324s-.442-.012-1.274-.012c-6.037 0-36.459.707-63.679 14.162h-33.941v133.273c.214.003.52.006.912.006z" fill="#e50f4f"/><path d="m289.341 131.156c-11.704-15.114-23.485-24.589-23.981-24.985l-9.361-7.477-9.361 7.477c-.496.396-12.277 9.872-23.981 24.985-16.108 20.8-24.623 42.717-24.623 63.38s8.514 42.579 24.623 63.38c11.704 15.113 23.485 24.589 23.981 24.985l9.361 7.477 9.361-7.477c.496-.396 12.277-9.872 23.981-24.985 16.108-20.801 24.623-42.717 24.623-63.38s-8.515-42.579-24.623-63.38z" fill="#ff7d47"/><path d="m289.341 257.916c16.108-20.801 24.623-42.717 24.623-63.38s-8.514-42.58-24.623-63.38c-11.704-15.114-23.485-24.589-23.981-24.985l-9.361-7.477v191.683l9.361-7.477c.496-.395 12.277-9.871 23.981-24.984z" fill="#ff3838"/><path d="m477.011 305.445c3.13-4.958 4.942-10.832 4.942-17.129 0-17.744-14.384-32.129-32.129-32.129h-355.522c-35.488 0-64.257 28.769-64.257 64.257 0 35.488 28.769 64.257 64.257 64.257l161.698 20.002 193.825-20.001c17.744 0 32.129-14.384 32.129-32.129 0-6.299-1.813-12.174-4.945-17.133l-30.002-14.995z" fill="#9ed0ff"/><path d="m481.953 288.316c0-17.744-14.384-32.129-32.129-32.129h-193.825v148.515l193.825-20.001c17.744 0 32.129-14.384 32.129-32.129 0-6.299-1.813-12.174-4.945-17.133l-30.002-14.995 30.005-15c3.13-4.957 4.942-10.831 4.942-17.128z" fill="#72bbff"/><path d="m0 384.702v23.497c0 37.496 30.505 68 68 68h375.997c37.496 0 68-30.505 68-68v-23.497z" fill="#fff5f5"/><path d="m255.999 384.702v91.498h187.999c37.496 0 68-30.505 68-68v-23.497h-255.999z" fill="#ece6f2"/><g><path d="m240.998 35.798h30.002v30h-30.002z" fill="#ffdf4d"/></g><g><path d="m180.994 65.8h30.002v30h-30.002z" fill="#ffdf4d"/></g><g><path d="m301.002 65.8h30.002v30h-30.002z" fill="#ffb441"/></g><path d="m449.824 320.445c11.447 0 21.496-5.987 27.186-15h-370.685v30h370.685c-5.69-9.013-15.739-15-27.186-15z" fill="#72bbff"/><path d="m255.999 35.798h15.001v30h-15.001z" fill="#ffb441"/><path d="m449.824 320.445c11.447 0 21.496-5.987 27.186-15h-221.011v30h221.011c-5.69-9.013-15.739-15-27.186-15z" fill="#0094fe"/></g><g/><g/><g/><g/><g/><g/><g/><g/><g/><g/><g/><g/><g/><g/><g/></svg>