<svg width="30" height="30" viewBox="0 0 30 30" fill="none" xmlns="http://www.w3.org/2000/svg">
<path d="M15.0792 0.200012C6.85518 0.200012 0.199219 6.85597 0.199219 15.08C0.199219 23.3041 6.85518 29.96 15.0792 29.96C23.3033 29.96 29.9592 23.3041 29.9592 15.08C29.9592 6.85597 23.3033 0.200012 15.0792 0.200012ZM15.0792 27.2546C8.37077 27.2546 2.90467 21.7885 2.90467 15.08C2.90467 8.37157 8.37077 2.90547 15.0792 2.90547C21.7877 2.90547 27.2538 8.37157 27.2538 15.08C27.2538 21.7885 21.7877 27.2546 15.0792 27.2546Z" fill="#1081E8"/>
<path d="M19.5164 10.5359L13.2939 16.7584L10.6434 14.1079C10.1023 13.5668 9.23568 13.5668 8.74957 14.1079C8.20848 14.649 8.20848 15.5156 8.74957 16.0018L12.3744 19.6266C12.645 19.8972 12.9705 20.005 13.3488 20.005C13.7272 20.005 14.0527 19.8972 14.3232 19.6266L21.5203 12.4296C22.0614 11.8885 22.0614 11.0219 21.5203 10.5358C20.9242 9.99467 20.0577 9.99467 19.5166 10.5358L19.5164 10.5359Z" fill="#1081E8"/>
</svg>
