<svg width="192" height="210" viewBox="0 0 192 210" fill="none" xmlns="http://www.w3.org/2000/svg">
<ellipse cx="2.13333" cy="206.883" rx="2.13281" ry="2.13333" transform="rotate(-90 2.13333 206.883)" fill="#66B2F9"/>
<ellipse cx="2.13333" cy="70.3828" rx="2.13281" ry="2.13333" transform="rotate(-90 2.13333 70.3828)" fill="#66B2F9"/>
<ellipse cx="70.4019" cy="206.883" rx="2.13281" ry="2.13333" transform="rotate(-90 70.4019 206.883)" fill="#66B2F9"/>
<ellipse cx="70.4019" cy="70.3828" rx="2.13281" ry="2.13333" transform="rotate(-90 70.4019 70.3828)" fill="#66B2F9"/>
<ellipse cx="36.2666" cy="206.883" rx="2.13281" ry="2.13333" transform="rotate(-90 36.2666 206.883)" fill="#66B2F9"/>
<ellipse cx="36.2666" cy="70.3828" rx="2.13281" ry="2.13333" transform="rotate(-90 36.2666 70.3828)" fill="#66B2F9"/>
<ellipse cx="104.533" cy="206.883" rx="2.13281" ry="2.13333" transform="rotate(-90 104.533 206.883)" fill="#66B2F9"/>
<ellipse cx="104.533" cy="70.3828" rx="2.13281" ry="2.13333" transform="rotate(-90 104.533 70.3828)" fill="#66B2F9"/>
<ellipse cx="19.2007" cy="206.883" rx="2.13281" ry="2.13333" transform="rotate(-90 19.2007 206.883)" fill="#66B2F9"/>
<ellipse cx="19.2007" cy="70.3828" rx="2.13281" ry="2.13333" transform="rotate(-90 19.2007 70.3828)" fill="#66B2F9"/>
<ellipse cx="87.4673" cy="206.883" rx="2.13281" ry="2.13333" transform="rotate(-90 87.4673 206.883)" fill="#66B2F9"/>
<ellipse cx="87.4673" cy="70.3828" rx="2.13281" ry="2.13333" transform="rotate(-90 87.4673 70.3828)" fill="#66B2F9"/>
<ellipse cx="53.334" cy="206.883" rx="2.13281" ry="2.13333" transform="rotate(-90 53.334 206.883)" fill="#66B2F9"/>
<ellipse cx="53.334" cy="70.3828" rx="2.13281" ry="2.13333" transform="rotate(-90 53.334 70.3828)" fill="#66B2F9"/>
<ellipse cx="121.601" cy="206.883" rx="2.13281" ry="2.13333" transform="rotate(-90 121.601 206.883)" fill="#66B2F9"/>
<ellipse cx="121.601" cy="70.3828" rx="2.13281" ry="2.13333" transform="rotate(-90 121.601 70.3828)" fill="#66B2F9"/>
<ellipse cx="2.13333" cy="138.633" rx="2.13281" ry="2.13333" transform="rotate(-90 2.13333 138.633)" fill="#66B2F9"/>
<ellipse cx="2.13333" cy="2.13281" rx="2.13281" ry="2.13333" transform="rotate(-90 2.13333 2.13281)" fill="#66B2F9"/>
<ellipse cx="70.4019" cy="138.633" rx="2.13281" ry="2.13333" transform="rotate(-90 70.4019 138.633)" fill="#66B2F9"/>
<ellipse cx="70.4019" cy="2.13281" rx="2.13281" ry="2.13333" transform="rotate(-90 70.4019 2.13281)" fill="#66B2F9"/>
<ellipse cx="36.2666" cy="138.633" rx="2.13281" ry="2.13333" transform="rotate(-90 36.2666 138.633)" fill="#66B2F9"/>
<ellipse cx="36.2666" cy="2.13281" rx="2.13281" ry="2.13333" transform="rotate(-90 36.2666 2.13281)" fill="#66B2F9"/>
<ellipse cx="104.533" cy="138.633" rx="2.13281" ry="2.13333" transform="rotate(-90 104.533 138.633)" fill="#66B2F9"/>
<ellipse cx="104.533" cy="2.13281" rx="2.13281" ry="2.13333" transform="rotate(-90 104.533 2.13281)" fill="#66B2F9"/>
<ellipse cx="19.2007" cy="138.633" rx="2.13281" ry="2.13333" transform="rotate(-90 19.2007 138.633)" fill="#66B2F9"/>
<ellipse cx="19.2007" cy="2.13281" rx="2.13281" ry="2.13333" transform="rotate(-90 19.2007 2.13281)" fill="#66B2F9"/>
<ellipse cx="87.4673" cy="138.633" rx="2.13281" ry="2.13333" transform="rotate(-90 87.4673 138.633)" fill="#66B2F9"/>
<ellipse cx="87.4673" cy="2.13281" rx="2.13281" ry="2.13333" transform="rotate(-90 87.4673 2.13281)" fill="#66B2F9"/>
<ellipse cx="53.334" cy="138.633" rx="2.13281" ry="2.13333" transform="rotate(-90 53.334 138.633)" fill="#66B2F9"/>
<ellipse cx="53.334" cy="2.13281" rx="2.13281" ry="2.13333" transform="rotate(-90 53.334 2.13281)" fill="#66B2F9"/>
<ellipse cx="121.601" cy="138.633" rx="2.13281" ry="2.13333" transform="rotate(-90 121.601 138.633)" fill="#66B2F9"/>
<ellipse cx="121.601" cy="2.13281" rx="2.13281" ry="2.13333" transform="rotate(-90 121.601 2.13281)" fill="#66B2F9"/>
<ellipse cx="2.13333" cy="189.82" rx="2.13281" ry="2.13333" transform="rotate(-90 2.13333 189.82)" fill="#66B2F9"/>
<ellipse cx="2.13333" cy="53.3203" rx="2.13281" ry="2.13333" transform="rotate(-90 2.13333 53.3203)" fill="#66B2F9"/>
<ellipse cx="70.4019" cy="189.82" rx="2.13281" ry="2.13333" transform="rotate(-90 70.4019 189.82)" fill="#66B2F9"/>
<ellipse cx="70.4019" cy="53.3203" rx="2.13281" ry="2.13333" transform="rotate(-90 70.4019 53.3203)" fill="#66B2F9"/>
<ellipse cx="36.2666" cy="189.82" rx="2.13281" ry="2.13333" transform="rotate(-90 36.2666 189.82)" fill="#66B2F9"/>
<ellipse cx="36.2666" cy="53.3203" rx="2.13281" ry="2.13333" transform="rotate(-90 36.2666 53.3203)" fill="#66B2F9"/>
<ellipse cx="104.533" cy="189.82" rx="2.13281" ry="2.13333" transform="rotate(-90 104.533 189.82)" fill="#66B2F9"/>
<ellipse cx="104.533" cy="53.3203" rx="2.13281" ry="2.13333" transform="rotate(-90 104.533 53.3203)" fill="#66B2F9"/>
<ellipse cx="19.2007" cy="189.82" rx="2.13281" ry="2.13333" transform="rotate(-90 19.2007 189.82)" fill="#66B2F9"/>
<ellipse cx="19.2007" cy="53.3203" rx="2.13281" ry="2.13333" transform="rotate(-90 19.2007 53.3203)" fill="#66B2F9"/>
<ellipse cx="87.4673" cy="189.82" rx="2.13281" ry="2.13333" transform="rotate(-90 87.4673 189.82)" fill="#66B2F9"/>
<ellipse cx="87.4673" cy="53.3203" rx="2.13281" ry="2.13333" transform="rotate(-90 87.4673 53.3203)" fill="#66B2F9"/>
<ellipse cx="53.334" cy="189.82" rx="2.13281" ry="2.13333" transform="rotate(-90 53.334 189.82)" fill="#66B2F9"/>
<ellipse cx="53.334" cy="53.3203" rx="2.13281" ry="2.13333" transform="rotate(-90 53.334 53.3203)" fill="#66B2F9"/>
<ellipse cx="121.601" cy="189.82" rx="2.13281" ry="2.13333" transform="rotate(-90 121.601 189.82)" fill="#66B2F9"/>
<ellipse cx="121.601" cy="53.3203" rx="2.13281" ry="2.13333" transform="rotate(-90 121.601 53.3203)" fill="#66B2F9"/>
<ellipse cx="2.13333" cy="121.571" rx="2.13281" ry="2.13333" transform="rotate(-90 2.13333 121.571)" fill="#66B2F9"/>
<ellipse cx="70.4019" cy="121.571" rx="2.13281" ry="2.13333" transform="rotate(-90 70.4019 121.571)" fill="#66B2F9"/>
<ellipse cx="36.2666" cy="121.571" rx="2.13281" ry="2.13333" transform="rotate(-90 36.2666 121.571)" fill="#66B2F9"/>
<ellipse cx="104.533" cy="121.571" rx="2.13281" ry="2.13333" transform="rotate(-90 104.533 121.571)" fill="#66B2F9"/>
<ellipse cx="19.2007" cy="121.571" rx="2.13281" ry="2.13333" transform="rotate(-90 19.2007 121.571)" fill="#66B2F9"/>
<ellipse cx="87.4673" cy="121.571" rx="2.13281" ry="2.13333" transform="rotate(-90 87.4673 121.571)" fill="#66B2F9"/>
<ellipse cx="53.334" cy="121.571" rx="2.13281" ry="2.13333" transform="rotate(-90 53.334 121.571)" fill="#66B2F9"/>
<ellipse cx="121.601" cy="121.571" rx="2.13281" ry="2.13333" transform="rotate(-90 121.601 121.571)" fill="#66B2F9"/>
<ellipse cx="2.13333" cy="172.758" rx="2.13281" ry="2.13333" transform="rotate(-90 2.13333 172.758)" fill="#66B2F9"/>
<ellipse cx="2.13333" cy="36.2578" rx="2.13281" ry="2.13333" transform="rotate(-90 2.13333 36.2578)" fill="#66B2F9"/>
<ellipse cx="70.4019" cy="172.758" rx="2.13281" ry="2.13333" transform="rotate(-90 70.4019 172.758)" fill="#66B2F9"/>
<ellipse cx="70.4019" cy="36.2578" rx="2.13281" ry="2.13333" transform="rotate(-90 70.4019 36.2578)" fill="#66B2F9"/>
<ellipse cx="36.2666" cy="172.758" rx="2.13281" ry="2.13333" transform="rotate(-90 36.2666 172.758)" fill="#66B2F9"/>
<ellipse cx="36.2666" cy="36.2578" rx="2.13281" ry="2.13333" transform="rotate(-90 36.2666 36.2578)" fill="#66B2F9"/>
<ellipse cx="104.533" cy="172.758" rx="2.13281" ry="2.13333" transform="rotate(-90 104.533 172.758)" fill="#66B2F9"/>
<ellipse cx="104.533" cy="36.2578" rx="2.13281" ry="2.13333" transform="rotate(-90 104.533 36.2578)" fill="#66B2F9"/>
<ellipse cx="19.2007" cy="172.758" rx="2.13281" ry="2.13333" transform="rotate(-90 19.2007 172.758)" fill="#66B2F9"/>
<ellipse cx="19.2007" cy="36.2578" rx="2.13281" ry="2.13333" transform="rotate(-90 19.2007 36.2578)" fill="#66B2F9"/>
<ellipse cx="87.4673" cy="172.758" rx="2.13281" ry="2.13333" transform="rotate(-90 87.4673 172.758)" fill="#66B2F9"/>
<ellipse cx="87.4673" cy="36.2578" rx="2.13281" ry="2.13333" transform="rotate(-90 87.4673 36.2578)" fill="#66B2F9"/>
<ellipse cx="53.334" cy="172.758" rx="2.13281" ry="2.13333" transform="rotate(-90 53.334 172.758)" fill="#66B2F9"/>
<ellipse cx="53.334" cy="36.2578" rx="2.13281" ry="2.13333" transform="rotate(-90 53.334 36.2578)" fill="#66B2F9"/>
<ellipse cx="121.601" cy="172.758" rx="2.13281" ry="2.13333" transform="rotate(-90 121.601 172.758)" fill="#66B2F9"/>
<ellipse cx="121.601" cy="36.2578" rx="2.13281" ry="2.13333" transform="rotate(-90 121.601 36.2578)" fill="#66B2F9"/>
<ellipse cx="2.13333" cy="104.508" rx="2.13281" ry="2.13333" transform="rotate(-90 2.13333 104.508)" fill="#66B2F9"/>
<ellipse cx="70.4019" cy="104.508" rx="2.13281" ry="2.13333" transform="rotate(-90 70.4019 104.508)" fill="#66B2F9"/>
<ellipse cx="36.2666" cy="104.508" rx="2.13281" ry="2.13333" transform="rotate(-90 36.2666 104.508)" fill="#66B2F9"/>
<ellipse cx="104.533" cy="104.508" rx="2.13281" ry="2.13333" transform="rotate(-90 104.533 104.508)" fill="#66B2F9"/>
<ellipse cx="19.2007" cy="104.508" rx="2.13281" ry="2.13333" transform="rotate(-90 19.2007 104.508)" fill="#66B2F9"/>
<ellipse cx="87.4673" cy="104.508" rx="2.13281" ry="2.13333" transform="rotate(-90 87.4673 104.508)" fill="#66B2F9"/>
<ellipse cx="53.334" cy="104.508" rx="2.13281" ry="2.13333" transform="rotate(-90 53.334 104.508)" fill="#66B2F9"/>
<ellipse cx="121.601" cy="104.508" rx="2.13281" ry="2.13333" transform="rotate(-90 121.601 104.508)" fill="#66B2F9"/>
<ellipse cx="2.13333" cy="155.695" rx="2.13281" ry="2.13333" transform="rotate(-90 2.13333 155.695)" fill="#66B2F9"/>
<ellipse cx="2.13333" cy="19.1953" rx="2.13281" ry="2.13333" transform="rotate(-90 2.13333 19.1953)" fill="#66B2F9"/>
<ellipse cx="70.4019" cy="155.695" rx="2.13281" ry="2.13333" transform="rotate(-90 70.4019 155.695)" fill="#66B2F9"/>
<ellipse cx="70.4019" cy="19.1953" rx="2.13281" ry="2.13333" transform="rotate(-90 70.4019 19.1953)" fill="#66B2F9"/>
<ellipse cx="36.2666" cy="155.695" rx="2.13281" ry="2.13333" transform="rotate(-90 36.2666 155.695)" fill="#66B2F9"/>
<ellipse cx="36.2666" cy="19.1953" rx="2.13281" ry="2.13333" transform="rotate(-90 36.2666 19.1953)" fill="#66B2F9"/>
<ellipse cx="104.533" cy="155.695" rx="2.13281" ry="2.13333" transform="rotate(-90 104.533 155.695)" fill="#66B2F9"/>
<ellipse cx="104.533" cy="19.1953" rx="2.13281" ry="2.13333" transform="rotate(-90 104.533 19.1953)" fill="#66B2F9"/>
<ellipse cx="19.2007" cy="155.695" rx="2.13281" ry="2.13333" transform="rotate(-90 19.2007 155.695)" fill="#66B2F9"/>
<ellipse cx="19.2007" cy="19.1953" rx="2.13281" ry="2.13333" transform="rotate(-90 19.2007 19.1953)" fill="#66B2F9"/>
<ellipse cx="87.4673" cy="155.695" rx="2.13281" ry="2.13333" transform="rotate(-90 87.4673 155.695)" fill="#66B2F9"/>
<ellipse cx="87.4673" cy="19.1953" rx="2.13281" ry="2.13333" transform="rotate(-90 87.4673 19.1953)" fill="#66B2F9"/>
<ellipse cx="53.334" cy="155.695" rx="2.13281" ry="2.13333" transform="rotate(-90 53.334 155.695)" fill="#66B2F9"/>
<ellipse cx="53.334" cy="19.1953" rx="2.13281" ry="2.13333" transform="rotate(-90 53.334 19.1953)" fill="#66B2F9"/>
<ellipse cx="121.601" cy="155.695" rx="2.13281" ry="2.13333" transform="rotate(-90 121.601 155.695)" fill="#66B2F9"/>
<ellipse cx="121.601" cy="19.1953" rx="2.13281" ry="2.13333" transform="rotate(-90 121.601 19.1953)" fill="#66B2F9"/>
<ellipse cx="2.13333" cy="87.4453" rx="2.13281" ry="2.13333" transform="rotate(-90 2.13333 87.4453)" fill="#66B2F9"/>
<ellipse cx="70.4019" cy="87.4453" rx="2.13281" ry="2.13333" transform="rotate(-90 70.4019 87.4453)" fill="#66B2F9"/>
<ellipse cx="36.2666" cy="87.4453" rx="2.13281" ry="2.13333" transform="rotate(-90 36.2666 87.4453)" fill="#66B2F9"/>
<ellipse cx="104.533" cy="87.4453" rx="2.13281" ry="2.13333" transform="rotate(-90 104.533 87.4453)" fill="#66B2F9"/>
<ellipse cx="19.2007" cy="87.4453" rx="2.13281" ry="2.13333" transform="rotate(-90 19.2007 87.4453)" fill="#66B2F9"/>
<ellipse cx="87.4673" cy="87.4453" rx="2.13281" ry="2.13333" transform="rotate(-90 87.4673 87.4453)" fill="#66B2F9"/>
<ellipse cx="53.334" cy="87.4453" rx="2.13281" ry="2.13333" transform="rotate(-90 53.334 87.4453)" fill="#66B2F9"/>
<ellipse cx="121.601" cy="87.4453" rx="2.13281" ry="2.13333" transform="rotate(-90 121.601 87.4453)" fill="#66B2F9"/>
<ellipse cx="138.668" cy="206.883" rx="2.13281" ry="2.13333" transform="rotate(-90 138.668 206.883)" fill="#66B2F9"/>
<ellipse cx="138.668" cy="70.3828" rx="2.13281" ry="2.13333" transform="rotate(-90 138.668 70.3828)" fill="#66B2F9"/>
<ellipse cx="172.8" cy="206.883" rx="2.13281" ry="2.13333" transform="rotate(-90 172.8 206.883)" fill="#66B2F9"/>
<ellipse cx="172.8" cy="70.3828" rx="2.13281" ry="2.13333" transform="rotate(-90 172.8 70.3828)" fill="#66B2F9"/>
<ellipse cx="155.732" cy="206.883" rx="2.13281" ry="2.13333" transform="rotate(-90 155.732 206.883)" fill="#66B2F9"/>
<ellipse cx="155.732" cy="70.3828" rx="2.13281" ry="2.13333" transform="rotate(-90 155.732 70.3828)" fill="#66B2F9"/>
<ellipse cx="189.867" cy="206.883" rx="2.13281" ry="2.13333" transform="rotate(-90 189.867 206.883)" fill="#66B2F9"/>
<ellipse cx="189.867" cy="70.3828" rx="2.13281" ry="2.13333" transform="rotate(-90 189.867 70.3828)" fill="#66B2F9"/>
<ellipse cx="138.668" cy="138.633" rx="2.13281" ry="2.13333" transform="rotate(-90 138.668 138.633)" fill="#66B2F9"/>
<ellipse cx="138.668" cy="2.13281" rx="2.13281" ry="2.13333" transform="rotate(-90 138.668 2.13281)" fill="#66B2F9"/>
<ellipse cx="172.8" cy="138.633" rx="2.13281" ry="2.13333" transform="rotate(-90 172.8 138.633)" fill="#66B2F9"/>
<ellipse cx="172.8" cy="2.13281" rx="2.13281" ry="2.13333" transform="rotate(-90 172.8 2.13281)" fill="#66B2F9"/>
<ellipse cx="155.732" cy="138.633" rx="2.13281" ry="2.13333" transform="rotate(-90 155.732 138.633)" fill="#66B2F9"/>
<ellipse cx="155.732" cy="2.13281" rx="2.13281" ry="2.13333" transform="rotate(-90 155.732 2.13281)" fill="#66B2F9"/>
<ellipse cx="189.867" cy="138.633" rx="2.13281" ry="2.13333" transform="rotate(-90 189.867 138.633)" fill="#66B2F9"/>
<ellipse cx="189.867" cy="2.13281" rx="2.13281" ry="2.13333" transform="rotate(-90 189.867 2.13281)" fill="#66B2F9"/>
<ellipse cx="138.668" cy="189.82" rx="2.13281" ry="2.13333" transform="rotate(-90 138.668 189.82)" fill="#66B2F9"/>
<ellipse cx="138.668" cy="53.3203" rx="2.13281" ry="2.13333" transform="rotate(-90 138.668 53.3203)" fill="#66B2F9"/>
<ellipse cx="172.8" cy="189.82" rx="2.13281" ry="2.13333" transform="rotate(-90 172.8 189.82)" fill="#66B2F9"/>
<ellipse cx="172.8" cy="53.3203" rx="2.13281" ry="2.13333" transform="rotate(-90 172.8 53.3203)" fill="#66B2F9"/>
<ellipse cx="155.732" cy="189.82" rx="2.13281" ry="2.13333" transform="rotate(-90 155.732 189.82)" fill="#66B2F9"/>
<ellipse cx="155.732" cy="53.3203" rx="2.13281" ry="2.13333" transform="rotate(-90 155.732 53.3203)" fill="#66B2F9"/>
<ellipse cx="189.867" cy="189.82" rx="2.13281" ry="2.13333" transform="rotate(-90 189.867 189.82)" fill="#66B2F9"/>
<ellipse cx="189.867" cy="53.3203" rx="2.13281" ry="2.13333" transform="rotate(-90 189.867 53.3203)" fill="#66B2F9"/>
<ellipse cx="138.668" cy="121.571" rx="2.13281" ry="2.13333" transform="rotate(-90 138.668 121.571)" fill="#66B2F9"/>
<ellipse cx="172.8" cy="121.571" rx="2.13281" ry="2.13333" transform="rotate(-90 172.8 121.571)" fill="#66B2F9"/>
<ellipse cx="155.732" cy="121.571" rx="2.13281" ry="2.13333" transform="rotate(-90 155.732 121.571)" fill="#66B2F9"/>
<ellipse cx="189.867" cy="121.571" rx="2.13281" ry="2.13333" transform="rotate(-90 189.867 121.571)" fill="#66B2F9"/>
<ellipse cx="138.668" cy="172.758" rx="2.13281" ry="2.13333" transform="rotate(-90 138.668 172.758)" fill="#66B2F9"/>
<ellipse cx="138.668" cy="36.2578" rx="2.13281" ry="2.13333" transform="rotate(-90 138.668 36.2578)" fill="#66B2F9"/>
<ellipse cx="172.8" cy="172.758" rx="2.13281" ry="2.13333" transform="rotate(-90 172.8 172.758)" fill="#66B2F9"/>
<ellipse cx="172.8" cy="36.2578" rx="2.13281" ry="2.13333" transform="rotate(-90 172.8 36.2578)" fill="#66B2F9"/>
<ellipse cx="155.732" cy="172.758" rx="2.13281" ry="2.13333" transform="rotate(-90 155.732 172.758)" fill="#66B2F9"/>
<ellipse cx="155.732" cy="36.2578" rx="2.13281" ry="2.13333" transform="rotate(-90 155.732 36.2578)" fill="#66B2F9"/>
<ellipse cx="189.867" cy="172.758" rx="2.13281" ry="2.13333" transform="rotate(-90 189.867 172.758)" fill="#66B2F9"/>
<ellipse cx="189.867" cy="36.2578" rx="2.13281" ry="2.13333" transform="rotate(-90 189.867 36.2578)" fill="#66B2F9"/>
<ellipse cx="138.668" cy="104.508" rx="2.13281" ry="2.13333" transform="rotate(-90 138.668 104.508)" fill="#66B2F9"/>
<ellipse cx="172.8" cy="104.508" rx="2.13281" ry="2.13333" transform="rotate(-90 172.8 104.508)" fill="#66B2F9"/>
<ellipse cx="155.732" cy="104.508" rx="2.13281" ry="2.13333" transform="rotate(-90 155.732 104.508)" fill="#66B2F9"/>
<ellipse cx="189.867" cy="104.508" rx="2.13281" ry="2.13333" transform="rotate(-90 189.867 104.508)" fill="#66B2F9"/>
<ellipse cx="138.668" cy="155.695" rx="2.13281" ry="2.13333" transform="rotate(-90 138.668 155.695)" fill="#66B2F9"/>
<ellipse cx="138.668" cy="19.1953" rx="2.13281" ry="2.13333" transform="rotate(-90 138.668 19.1953)" fill="#66B2F9"/>
<ellipse cx="172.8" cy="155.695" rx="2.13281" ry="2.13333" transform="rotate(-90 172.8 155.695)" fill="#66B2F9"/>
<ellipse cx="172.8" cy="19.1953" rx="2.13281" ry="2.13333" transform="rotate(-90 172.8 19.1953)" fill="#66B2F9"/>
<ellipse cx="155.732" cy="155.695" rx="2.13281" ry="2.13333" transform="rotate(-90 155.732 155.695)" fill="#66B2F9"/>
<ellipse cx="155.732" cy="19.1953" rx="2.13281" ry="2.13333" transform="rotate(-90 155.732 19.1953)" fill="#66B2F9"/>
<ellipse cx="189.867" cy="155.695" rx="2.13281" ry="2.13333" transform="rotate(-90 189.867 155.695)" fill="#66B2F9"/>
<ellipse cx="189.867" cy="19.1953" rx="2.13281" ry="2.13333" transform="rotate(-90 189.867 19.1953)" fill="#66B2F9"/>
<ellipse cx="138.668" cy="87.4453" rx="2.13281" ry="2.13333" transform="rotate(-90 138.668 87.4453)" fill="#66B2F9"/>
<ellipse cx="172.8" cy="87.4453" rx="2.13281" ry="2.13333" transform="rotate(-90 172.8 87.4453)" fill="#66B2F9"/>
<ellipse cx="155.732" cy="87.4453" rx="2.13281" ry="2.13333" transform="rotate(-90 155.732 87.4453)" fill="#66B2F9"/>
<ellipse cx="189.867" cy="87.4453" rx="2.13281" ry="2.13333" transform="rotate(-90 189.867 87.4453)" fill="#66B2F9"/>
</svg>
