<svg width="13" height="15" viewBox="0 0 13 15" fill="none" xmlns="http://www.w3.org/2000/svg">
<path d="M1.26129 7.87869L6.56529 2.57469C6.82071 2.31933 7.12393 2.11679 7.45763 1.97861C7.79133 1.84044 8.14897 1.76935 8.51015 1.7694C8.87132 1.76944 9.22895 1.84063 9.56261 1.97888C9.89627 2.11714 10.1994 2.31977 10.4548 2.57519C10.7101 2.83061 10.9127 3.13382 11.0509 3.46752C11.189 3.80122 11.2601 4.15887 11.2601 4.52004C11.26 4.88121 11.1889 5.23884 11.0506 5.5725C10.9123 5.90617 10.7097 6.20933 10.4543 6.46469L4.09029 12.8287C3.85571 13.0633 3.53754 13.1951 3.20579 13.1951C2.87404 13.1951 2.55588 13.0633 2.32129 12.8287C2.08671 12.5941 1.95492 12.2759 1.95492 11.9442C1.95492 11.6124 2.08671 11.2943 2.32129 11.0597L7.97829 5.40269C8.11077 5.26051 8.1829 5.07247 8.17947 4.87817C8.17604 4.68386 8.09733 4.49848 7.95991 4.36107C7.8225 4.22365 7.63712 4.14494 7.44281 4.14151C7.24851 4.13808 7.06047 4.21021 6.91829 4.34269L1.26129 9.99969C0.745446 10.5155 0.455647 11.2152 0.455647 11.9447C0.455647 12.6742 0.745446 13.3738 1.26129 13.8897C1.77714 14.4055 2.47678 14.6953 3.20629 14.6953C3.93581 14.6953 4.63545 14.4055 5.15129 13.8897L11.5143 7.52469C12.296 6.72456 12.7307 5.64852 12.7242 4.52994C12.7177 3.41136 12.2705 2.34045 11.4795 1.54948C10.6885 0.758517 9.61762 0.311274 8.49904 0.30476C7.38046 0.298246 6.30442 0.732986 5.50429 1.51469L0.201292 6.81769C0.0688116 6.95986 -0.00331137 7.14791 0.000116847 7.34221C0.00354506 7.53651 0.0822568 7.7219 0.21967 7.85931C0.357083 7.99672 0.542468 8.07543 0.736769 8.07886C0.93107 8.08229 1.11912 8.01017 1.26129 7.87769V7.87869Z" fill="white"/>
</svg>
