<svg width="22" height="20" viewBox="0 0 22 20" fill="none" xmlns="http://www.w3.org/2000/svg">
<path d="M20.8937 19.0002L16.3252 14.6572M16.3252 14.6572C17.1067 13.9143 17.7265 13.0324 18.1495 12.0618C18.5724 11.0911 18.79 10.0508 18.79 9.00021C18.79 7.9496 18.5724 6.90929 18.1495 5.93866C17.7265 4.96803 17.1067 4.08609 16.3252 3.34321C15.5437 2.60032 14.616 2.01103 13.595 1.60898C12.574 1.20693 11.4797 1 10.3745 1C9.26939 1 8.17507 1.20693 7.15405 1.60898C6.13304 2.01103 5.20532 2.60032 4.42386 3.34321C2.84565 4.84354 1.95901 6.87842 1.95901 9.00021C1.95901 11.122 2.84565 13.1569 4.42386 14.6572C6.00208 16.1575 8.1426 17.0004 10.3745 17.0004C12.6065 17.0004 14.747 16.1575 16.3252 14.6572Z" stroke="#677791" stroke-width="2" stroke-linecap="round" stroke-linejoin="round"/>
</svg>
