<svg width="1920" height="476" viewBox="0 0 1920 476" fill="none" xmlns="http://www.w3.org/2000/svg">
<g clip-path="url(#clip0_3_3904)">
<path d="M-101 86.5458C45.5368 43.8585 362.657 -23.9076 458.846 46.5265C579.081 134.569 464.482 326.662 579.081 364.68C693.68 402.699 746.283 140.572 874.033 146.575C1001.78 152.578 926.636 474.733 1082.57 450.722C1238.5 426.71 1212.19 160.582 1373.76 234.617C1535.33 308.653 1734.47 376.686 1943 274.637" stroke="#0F2851" stroke-width="40"/>
<path d="M-102 85.5458C44.5368 42.8585 361.657 -24.9076 457.846 45.5265C578.081 133.569 463.482 325.662 578.081 363.68C692.68 401.699 745.283 139.572 873.033 145.575C1000.78 151.578 925.636 473.733 1081.57 449.722C1237.5 425.71 1211.19 159.582 1372.76 233.617C1534.33 307.653 1733.47 375.686 1942 273.637" stroke="#4268A6" stroke-width="2" stroke-dasharray="10 6"/>
</g>
<defs>
<clipPath id="clip0_3_3904">
<rect width="1920" height="476" fill="white"/>
</clipPath>
</defs>
</svg>
