<svg width="116" height="110" viewBox="0 0 116 110" fill="none" xmlns="http://www.w3.org/2000/svg">
<path d="M50.75 65.875V102.125C50.75 106.131 47.5056 109.375 43.5 109.375H7.25C3.2444 109.375 0 106.131 0 102.125V51.375C0 28.3931 13.8202 6.74168 36.25 0.625V16.7107C22.4298 21.6951 14.5 36.5212 14.5 51.375V58.625H43.5C47.5056 58.625 50.75 61.8739 50.75 65.875ZM108.75 58.625H79.75V51.375C79.75 36.5212 87.6797 21.6952 101.5 16.7107V0.625C79.0703 6.74214 65.25 28.3931 65.25 51.375V102.125C65.25 106.131 68.4944 109.375 72.5 109.375H108.75C112.756 109.375 116 106.131 116 102.125V65.875C116 61.8739 112.756 58.625 108.75 58.625Z" fill="#1081E8"/>
</svg>
