<svg width="607" height="620" viewBox="0 0 607 620" fill="none" xmlns="http://www.w3.org/2000/svg">
<path d="M303.97 0.0214844C136.711 0.0214844 0 135.837 0 303.991C0 341.889 7.39903 379.75 20.3201 414.868C31.4004 444.428 48.0394 471.245 68.3594 496.185L21.2219 606.12C20.2835 608.899 20.2835 612.581 22.1603 615.36C24.001 617.2 26.7802 619.041 29.5593 619.041H31.4L199.554 589.481C232.832 601.5 267.914 607.961 303.03 607.961C470.289 607.961 607 472.146 607 303.991C607.036 135.837 471.222 0.0218545 303.964 0.0218545L303.97 0.0214844ZM303.97 589.527C270.692 589.527 236.512 583.067 205.113 571.986C203.273 571.048 202.334 571.048 200.494 571.986L46.1988 598.767L88.7165 498.968C89.6549 496.189 89.6549 491.569 86.8757 489.729C65.6169 464.789 49.9167 437.971 37.8976 409.35C24.9767 376.072 18.4793 340.991 18.4793 305.874C18.4793 148.798 146.893 20.3841 303.969 20.3841C461.045 20.3841 589.459 148.798 589.459 305.874C589.459 461.074 461.045 589.525 303.969 589.525L303.97 589.527Z" fill="#F3F6FC"/>
</svg>
