<?xml version="1.0" encoding="UTF-8"?>
<svg width="13" height="13" viewBox="0 0 13 13" fill="none" xmlns="http://www.w3.org/2000/svg">
<g clip-path="url(#clip0_1574_26642)">
<path d="M3.79183 2.70833V1.08333C3.79183 0.939672 3.8489 0.801897 3.95048 0.700315C4.05206 0.598732 4.18984 0.541664 4.3335 0.541664H8.66683C8.81049 0.541664 8.94826 0.598732 9.04985 0.700315C9.15143 0.801897 9.2085 0.939672 9.2085 1.08333V2.70833H11.3752C11.5188 2.70833 11.6566 2.7654 11.7582 2.86698C11.8598 2.96856 11.9168 3.10634 11.9168 3.25V10.8333C11.9168 10.977 11.8598 11.1148 11.7582 11.2163C11.6566 11.3179 11.5188 11.375 11.3752 11.375H1.62516C1.4815 11.375 1.34373 11.3179 1.24215 11.2163C1.14056 11.1148 1.0835 10.977 1.0835 10.8333V3.25C1.0835 3.10634 1.14056 2.96856 1.24215 2.86698C1.34373 2.7654 1.4815 2.70833 1.62516 2.70833H3.79183ZM2.16683 8.66666V10.2917H10.8335V8.66666H2.16683ZM2.16683 7.58333H10.8335V3.79166H2.16683V7.58333ZM4.87516 1.625V2.70833H8.12516V1.625H4.87516ZM5.9585 5.95833H7.04183V7.04166H5.9585V5.95833Z" fill="#677791"/>
</g>
<defs>
<clipPath id="clip0_1574_26642">
<rect width="13" height="13" fill="white"/>
</clipPath>
</defs>
</svg>
