<?xml version="1.0" encoding="UTF-8"?>
<svg width="13" height="13" viewBox="0 0 13 13" fill="none" xmlns="http://www.w3.org/2000/svg">
<g clip-path="url(#clip0_1574_26666)">
<path d="M6.5 11.3208L9.18125 8.63959C9.71149 8.1093 10.0726 7.43369 10.2188 6.69819C10.3651 5.96269 10.29 5.20033 10.003 4.50752C9.71601 3.8147 9.23003 3.22255 8.6065 2.80593C7.98297 2.38931 7.24991 2.16695 6.5 2.16695C5.7501 2.16695 5.01703 2.38931 4.39351 2.80593C3.76998 3.22255 3.28399 3.8147 2.997 4.50752C2.71 5.20033 2.63489 5.96269 2.78116 6.69819C2.92743 7.43369 3.28852 8.1093 3.81875 8.63959L6.5 11.3208ZM6.5 12.8527L3.05284 9.40551C2.37106 8.72372 1.90677 7.85508 1.71867 6.90942C1.53057 5.96377 1.62712 4.98357 1.9961 4.09279C2.36507 3.202 2.98992 2.44063 3.7916 1.90496C4.59329 1.36929 5.53582 1.08338 6.5 1.08338C7.46418 1.08338 8.40671 1.36929 9.2084 1.90496C10.0101 2.44063 10.6349 3.202 11.0039 4.09279C11.3729 4.98357 11.4694 5.96377 11.2813 6.90942C11.0932 7.85508 10.6289 8.72372 9.94717 9.40551L6.5 12.8527ZM6.5 7.04167C6.78732 7.04167 7.06287 6.92754 7.26603 6.72437C7.4692 6.52121 7.58333 6.24566 7.58333 5.95834C7.58333 5.67102 7.4692 5.39547 7.26603 5.19231C7.06287 4.98914 6.78732 4.87501 6.5 4.87501C6.21268 4.87501 5.93713 4.98914 5.73397 5.19231C5.53081 5.39547 5.41667 5.67102 5.41667 5.95834C5.41667 6.24566 5.53081 6.52121 5.73397 6.72437C5.93713 6.92754 6.21268 7.04167 6.5 7.04167ZM6.5 8.12501C5.92537 8.12501 5.37427 7.89673 4.96794 7.4904C4.56161 7.08407 4.33334 6.53297 4.33334 5.95834C4.33334 5.3837 4.56161 4.8326 4.96794 4.42627C5.37427 4.01995 5.92537 3.79167 6.5 3.79167C7.07464 3.79167 7.62574 4.01995 8.03207 4.42627C8.4384 4.8326 8.66667 5.3837 8.66667 5.95834C8.66667 6.53297 8.4384 7.08407 8.03207 7.4904C7.62574 7.89673 7.07464 8.12501 6.5 8.12501Z" fill="#677791"/>
</g>
<defs>
<clipPath id="clip0_1574_26666">
<rect width="13" height="13" fill="white"/>
</clipPath>
</defs>
</svg>
