<svg width="68" height="68" viewBox="0 0 68 68" fill="none" xmlns="http://www.w3.org/2000/svg">
<rect width="68" height="68" rx="10" fill="#F3F6FC"/>
<g clip-path="url(#clip0_288_4352)">
<path d="M21.5 21V51H48.5V21H21.5ZM45.5 48H36.5V45H33.5V48H24.5V24H45.5V48Z" fill="#1081E8"/>
<path d="M27.5 27H30.5V30H27.5V27Z" fill="#1081E8"/>
<path d="M33.5 27H36.5V30H33.5V27Z" fill="#1081E8"/>
<path d="M39.5 27H42.5V30H39.5V27Z" fill="#1081E8"/>
<path d="M27.5 33H30.5V36H27.5V33Z" fill="#1081E8"/>
<path d="M33.5 33H36.5V36H33.5V33Z" fill="#1081E8"/>
<path d="M39.5 33H42.5V36H39.5V33Z" fill="#1081E8"/>
<path d="M27.5 39H30.5V42H27.5V39Z" fill="#1081E8"/>
<path d="M33.5 39H36.5V42H33.5V39Z" fill="#1081E8"/>
<path d="M39.5 39H42.5V42H39.5V39Z" fill="#1081E8"/>
</g>
<defs>
<clipPath id="clip0_288_4352">
<rect width="30" height="30" fill="white" transform="translate(20 21)"/>
</clipPath>
</defs>
</svg>
