<svg width="264" height="479" viewBox="0 0 264 479" fill="none" xmlns="http://www.w3.org/2000/svg">
<path d="M50.7648 0.00308062H213.342C241.295 0.00308062 264 22.6464 264 50.5827V212.91C264 240.82 241.322 263.49 213.342 263.49H96.6065C108.468 325.966 165.979 375.4 238.429 384.885C252.888 386.81 263.919 398.573 263.919 413.142V450.436C263.919 467.197 249.461 480.698 232.726 478.826C103.194 464.871 2.27735 364.809 0.214203 243.25C0.133877 242.635 0 242.02 0 241.325L0.0267944 50.4996C0.10712 22.6433 22.7852 0 50.7645 0L50.7648 0.00308062Z" fill="black"/>
</svg>
