<svg width="85" height="132" viewBox="0 0 85 132" fill="none" xmlns="http://www.w3.org/2000/svg">
<path d="M24.9 77.16L24.18 60.24L39.12 58.98C44.76 58.5 49.32 56.94 52.8 54.3C56.28 51.54 58.02 47.4 58.02 41.88C58.02 37.2 56.4 33.42 53.16 30.54C49.92 27.54 45.72 26.04 40.56 26.04C36.96 26.04 33.84 26.94 31.2 28.74C28.56 30.54 26.7 32.82 25.62 35.58L0.42 28.74C2.82 20.22 7.5 13.44 14.46 8.4C21.54 3.36 30.24 0.839998 40.56 0.839998C49.2 0.839998 56.82 2.58 63.42 6.05999C70.02 9.53999 75.24 14.4 79.08 20.64C82.92 26.76 84.84 33.84 84.84 41.88C84.84 48.96 83.04 55.2 79.44 60.6C75.96 65.88 71.04 69.96 64.68 72.84C58.44 75.72 51.18 77.16 42.9 77.16H24.9ZM38.4 131.7C33.96 131.7 30.12 130.08 26.88 126.84C23.64 123.6 22.02 119.7 22.02 115.14C22.02 110.7 23.64 106.86 26.88 103.62C30.12 100.38 33.96 98.76 38.4 98.76C42.96 98.76 46.86 100.38 50.1 103.62C53.34 106.86 54.96 110.7 54.96 115.14C54.96 119.7 53.34 123.6 50.1 126.84C46.86 130.08 42.96 131.7 38.4 131.7ZM25.26 91.74L24.54 66.72H52.44L51.72 91.74H25.26Z" fill="#EBF0FD"/>
</svg>
