<svg width="1100" height="515" viewBox="0 0 1100 515" fill="none" xmlns="http://www.w3.org/2000/svg">
<path d="M7 342.159V105.542C7 83.4507 24.9086 65.5421 47 65.5421H184.58C206.672 65.5421 224.58 83.4507 224.58 105.542V473C224.58 495.091 242.489 513 264.58 513H404.823C426.915 513 444.823 495.091 444.823 473V70.4885V42C444.823 19.9086 462.732 2 484.823 2H620.121C642.213 2 660.122 19.9086 660.122 42V473C660.122 495.091 678.03 513 700.122 513H836.941C859.033 513 876.941 495.091 876.941 473V110.488C876.941 88.397 894.85 70.4885 916.941 70.4885H1053C1075.09 70.4885 1093 88.3971 1093 110.488V345.203" stroke="#0F2851" stroke-width="3"/>
<circle cx="7" cy="348" r="5.5" stroke="#0F2851" stroke-width="3"/>
<circle cx="1093" cy="350" r="5.5" stroke="#0F2851" stroke-width="3"/>
</svg>
