<?xml version="1.0" encoding="UTF-8"?>
<svg width="44" height="44" viewBox="0 0 44 44" fill="none" xmlns="http://www.w3.org/2000/svg">
<g clip-path="url(#clip0_137_454)">
<path d="M42.7109 33.6045C43.4228 33.6045 44 33.0273 44 32.3154C44 31.6035 43.4228 31.0264 42.7109 31.0264H36.3856L24.5896 26.7621C24.423 26.2431 23.9369 25.8672 23.3625 25.8672H19.4123V16.8438C19.4123 16.1318 18.8351 15.5547 18.1232 15.5547H12.9673L12.9743 2.58174L15.842 2.58371L23.6498 14.8208C23.8814 15.1839 24.2855 15.4165 24.7402 15.4165L42.7145 15.3651C43.4265 15.3631 44.0019 14.7843 43.9999 14.0724C43.9979 13.3678 43.4287 12.787 42.7072 12.787L25.4418 12.8363L17.6356 0.601738C17.3989 0.231004 16.9896 0.0063632 16.5498 0.00601945C15.7847 0.00550383 7.5277 -0.000168048 7.81662 3.82709e-06C7.10514 3.82709e-06 6.52807 0.576559 6.52755 1.28812C6.52704 2.00003 7.10377 2.57761 7.81567 2.57813L10.3961 2.57993L10.3892 15.5547H7.81662C7.10471 15.5547 6.52755 16.1318 6.52755 16.8438V25.8672H2.66329C1.95138 25.8672 1.37423 26.4443 1.37423 27.1563V36.1797H1.28906C0.577156 36.1797 0 36.7568 0 37.4688C0 38.1807 0.577156 38.7578 1.28906 38.7578H4.17252C3.28324 41.266 5.15127 43.9141 7.81662 43.9141C10.477 43.9141 12.3512 41.2699 11.4606 38.7578H14.5649C13.6757 41.266 15.5437 43.9141 18.209 43.9141C20.8694 43.9141 22.7436 41.2699 21.853 38.7578H24.5647C25.2766 38.7578 25.8538 38.1807 25.8538 37.4688C25.8538 36.7861 25.3227 36.2288 24.6514 36.1841V29.5259L33.8143 32.8383L24.9416 41.7136C24.4383 42.2171 24.4384 43.0333 24.9418 43.5367C25.4453 44.0399 26.2615 44.04 26.7649 43.5365L36.6939 33.6046H38.7314V36.5317C37.2838 37.0895 36.2535 38.4948 36.2535 40.1372C36.2535 42.2672 37.9857 44.0001 40.115 44.0001C42.2443 44.0001 43.9765 42.2672 43.9765 40.1372C43.9765 38.4242 42.8557 36.9689 41.3096 36.4644V33.6047H42.7109V33.6045ZM40.1149 41.4219C39.4073 41.4219 38.8315 40.8455 38.8315 40.1371C38.8315 39.4287 39.4072 38.8523 40.1149 38.8523C40.8225 38.8523 41.3982 39.4287 41.3982 40.1371C41.3982 40.8455 40.8225 41.4219 40.1149 41.4219ZM9.10568 18.1328H11.6809V19.4219C11.6809 20.1338 12.258 20.7109 12.9699 20.7109C13.6819 20.7109 14.259 20.1338 14.259 19.4219V18.1328H16.8341V25.8672C15.9118 25.8672 10.0565 25.8672 9.10568 25.8672V18.1328ZM3.95235 28.4453H6.54904V29.7344C6.54904 30.4463 7.1262 31.0234 7.8381 31.0234C8.55001 31.0234 9.12716 30.4463 9.12716 29.7344V28.4453H11.7238V36.1797H3.95235V28.4453ZM9.10413 40.0469C9.10413 40.7577 8.52655 41.3359 7.81662 41.3359C7.10669 41.3359 6.52902 40.7577 6.52902 40.0469C6.52902 39.3361 7.10669 38.7578 7.81662 38.7578C8.52655 38.7578 9.10413 39.3361 9.10413 40.0469ZM19.4966 40.0469C19.4966 40.7577 18.9191 41.3359 18.2091 41.3359C17.4992 41.3359 16.9215 40.7577 16.9215 40.0469C16.9215 39.3361 17.4992 38.7578 18.2091 38.7578C18.9191 38.7578 19.4966 39.3361 19.4966 40.0469ZM14.3019 36.1797V28.4453H16.8986V29.8203C16.8986 30.5322 17.4757 31.1094 18.1876 31.1094C18.8995 31.1094 19.4767 30.5322 19.4767 29.8203V28.4453H22.0734V36.1797H14.3019Z" fill="white"/>
<path d="M30.0684 19.8438C29.3565 19.8438 28.7793 20.4209 28.7793 21.1328C28.7793 21.8447 29.3565 22.4219 30.0684 22.4219H32.1258C32.8377 22.4219 33.4148 21.8447 33.4148 21.1328C33.4148 20.4209 32.8377 19.8438 32.1258 19.8438H30.0684Z" fill="white"/>
<path d="M42.7101 19.8438H40.6289C39.917 19.8438 39.3398 20.4209 39.3398 21.1328C39.3398 21.8447 39.917 22.4219 40.6289 22.4219H42.7101C43.422 22.4219 43.9991 21.8447 43.9991 21.1328C43.9991 20.4209 43.422 19.8438 42.7101 19.8438Z" fill="white"/>
</g>
<defs>
<clipPath id="clip0_137_454">
<rect width="44" height="44" fill="white"/>
</clipPath>
</defs>
</svg>
