<?xml version="1.0" encoding="UTF-8"?>
<svg width="59" height="59" viewBox="0 0 59 59" fill="none" xmlns="http://www.w3.org/2000/svg">
<path d="M0 44.25C0 19.8114 19.8114 0 44.25 0V0C52.3962 0 59 6.6038 59 14.75V29C59 45.5685 45.5685 59 29 59H14.75C6.6038 59 0 52.3962 0 44.25V44.25Z" fill="#C0D0FF"/>
<path d="M46.8968 7.88032C45.2602 7.87385 43.2293 8.68644 41.2098 10.2438C39.8236 11.3165 39.4456 11.8705 34.5294 16.7346L31.5825 16.2548L32.9348 14.9027C33.8815 13.956 33.8832 12.4229 32.9348 11.4762C31.988 10.5295 30.4548 10.5295 29.508 11.4762L25.6871 15.2952L12.3275 13.1208C11.4648 12.9802 10.581 13.2662 9.96388 13.8833C8.7764 15.0707 8.93634 17.0367 10.2919 18.0173L23.6047 27.6583L21.1118 30.151C20.2572 31.0056 19.3589 32.1801 18.4348 33.6469L12.2275 31.8214C11.3115 31.5516 10.3211 31.8036 9.64412 32.4805C8.49217 33.6324 8.66666 35.5468 10.0044 36.474L15.0937 39.9974C14.2084 41.9521 13.6687 43.3672 13.6445 43.4319C13.5314 43.7291 13.6041 44.0651 13.8287 44.2897C14.0549 44.5159 14.3909 44.5853 14.6866 44.4739C14.7512 44.4496 16.1665 43.9101 18.1214 43.0248L21.645 48.1153C22.574 49.4562 24.4869 49.6258 25.6388 48.474C26.3141 47.7971 26.5662 46.8084 26.2963 45.8924L24.4707 39.6824C25.9393 38.7583 27.1122 37.8585 27.9668 37.0055L30.4597 34.5128L40.1003 47.8246C41.0826 49.1816 43.0488 49.3399 44.2346 48.1525C44.8518 47.5354 45.1378 46.6518 44.9972 45.7875L42.8242 32.4306L46.6435 28.6116C47.5903 27.6649 47.5903 26.1302 46.6435 25.1835C45.6968 24.2368 44.1636 24.2368 43.2168 25.1835L41.8645 26.5356L41.3847 23.589C46.2556 18.6684 46.8003 18.2999 47.8732 16.9137C47.8748 16.912 47.8764 16.9104 47.878 16.9088C50.3693 13.6778 50.9526 10.4179 49.3273 8.79262C48.7181 8.18356 47.878 7.88472 46.8974 7.87988L46.8968 7.88032ZM46.9485 9.48933C47.4364 9.49579 47.8726 9.62341 48.1844 9.93358C48.9002 10.6509 48.7225 12.2276 47.8339 13.9787C47.577 13.0902 47.1181 12.2954 46.4703 11.6492C45.824 11.0014 45.0291 10.5426 44.1389 10.2857C44.9064 9.8964 46.0179 9.47638 46.9485 9.48929L46.9485 9.48933ZM42.2633 11.6573C43.4895 11.6331 44.5655 12.0273 45.3281 12.7914C46.1424 13.6056 46.5366 14.7752 46.4526 16.1031C45.4929 17.3034 46.4962 16.1451 26.8245 35.862C25.9359 36.7505 24.6353 37.7117 22.9583 38.7149C20.7789 40.0202 18.1986 41.256 15.8722 42.2448C16.8868 39.8555 18.1469 37.2336 19.4798 35.0301C20.4557 33.4163 21.3895 32.1594 22.2555 31.2935C41.9886 11.6103 40.8189 12.6248 42.0159 11.667C42.0983 11.6621 42.1807 11.6589 42.2631 11.6573L42.2633 11.6573ZM31.2206 12.381C31.4274 12.381 31.6342 12.4602 31.7926 12.6185C32.1092 12.9352 32.1076 13.444 31.7926 13.7607L29.6179 15.9351L27.6534 15.6152L30.6503 12.6185C30.8086 12.4602 31.0154 12.381 31.2222 12.381L31.2206 12.381ZM11.9367 14.7025C11.9803 14.7041 12.0239 14.709 12.0691 14.7154L33.1221 18.1435L24.7628 26.502L11.2386 16.7089C10.6861 16.3098 10.6231 15.5086 11.1062 15.0255C11.3259 14.8058 11.6296 14.6895 11.9366 14.7024L11.9367 14.7025ZM38.0756 19.2356C37.8688 19.2356 37.662 19.3147 37.5037 19.4714L35.2176 21.7557C34.9025 22.0707 34.9025 22.5828 35.2176 22.8979C35.5343 23.2129 36.0448 23.2129 36.3598 22.8979L38.6443 20.6136C38.9593 20.2986 38.9593 19.7865 38.6443 19.4714C38.4892 19.3147 38.2824 19.2356 38.0756 19.2356V19.2356ZM33.5066 23.8042C33.2998 23.8042 33.093 23.8834 32.9347 24.0401L30.6502 26.3244C30.3352 26.6394 30.3352 27.1515 30.6502 27.4665C30.9652 27.7815 31.4774 27.7815 31.7924 27.4665L34.0769 25.1822C34.3919 24.8672 34.3919 24.3551 34.0769 24.0401C33.9186 23.8818 33.7118 23.8042 33.505 23.8042H33.5066ZM39.9773 24.9964L43.404 46.0477C43.4606 46.3999 43.3443 46.7601 43.0938 47.0105C42.614 47.4903 41.8126 47.4321 41.4104 46.8764L31.6164 33.3566L39.9773 24.9964ZM44.931 26.0885C45.1378 26.0885 45.3446 26.1677 45.5029 26.326C45.8195 26.6426 45.8179 27.1531 45.5029 27.4681L42.5059 30.4648L42.186 28.5004L44.3606 26.326C44.519 26.1677 44.7242 26.0885 44.9309 26.0885H44.931ZM28.938 28.3728C28.7312 28.3728 28.5244 28.4519 28.3661 28.6103C28.0494 28.9253 28.0494 29.4374 28.3661 29.7524C28.6827 30.069 29.1933 30.069 29.5083 29.7524C29.825 29.4358 29.825 28.9253 29.5083 28.6103C29.35 28.4519 29.1448 28.3728 28.938 28.3728V28.3728ZM11.5069 33.3306C11.5958 33.3322 11.6847 33.3451 11.7719 33.371L17.5784 35.0785C16.9838 36.1189 16.3861 37.2675 15.7883 38.5114L10.9236 35.1448C10.4146 34.791 10.3468 34.0608 10.7862 33.623C10.9801 33.4291 11.2402 33.3274 11.5068 33.3306L11.5069 33.3306ZM23.0393 40.539L24.747 46.345C24.8504 46.694 24.7534 47.072 24.4965 47.3305C24.0603 47.7667 23.3301 47.7069 22.9746 47.1932L19.6061 42.3288C20.8501 41.7311 22.0004 41.1318 23.0393 40.5389L23.0393 40.539Z" fill="#0F2851"/>
</svg>
