<?xml version="1.0" encoding="UTF-8"?>
<svg width="44" height="44" viewBox="0 0 44 44" fill="none" xmlns="http://www.w3.org/2000/svg">
<g clip-path="url(#clip0_145_106)">
<path d="M43.9998 10.0332V4.88459C43.9998 4.17373 43.4235 3.59743 42.7126 3.59743H39.6266V1.3184C39.6266 0.607551 39.0503 0.03125 38.3395 0.03125C37.6286 0.03125 37.0523 0.607551 37.0523 1.3184V3.59743H25.2202C24.5093 3.59743 23.933 4.17373 23.933 4.88459V10.0332C23.933 10.27 24.0016 10.5183 24.138 10.7301L27.8592 16.5087V27.6042C23.0902 26.8113 18.2023 26.9619 13.5092 28.0507C8.85745 29.1298 4.44209 31.1264 0.537816 33.9225C-0.0401148 34.3363 -0.17312 35.1404 0.240742 35.7184C0.654604 36.2962 1.45864 36.4294 2.03666 36.0155C2.81084 35.4611 3.61248 34.937 4.43231 34.4487L6.47116 42.9783C6.60957 43.5576 7.12735 43.9662 7.72304 43.9662H36.351C36.9466 43.9662 37.4645 43.5576 37.6029 42.9783L39.5849 34.6861C40.3725 35.1697 41.1428 35.6869 41.8871 36.2321C42.4602 36.652 43.2659 36.5282 43.6861 35.9545C44.1062 35.3809 43.9818 34.5756 43.4085 34.1555C42.3394 33.3724 41.2202 32.644 40.0735 31.9824V16.5086L43.7949 10.73C43.9304 10.5194 43.9998 10.2716 43.9998 10.0332V10.0332ZM26.5073 6.17174H41.4255V8.74604H26.5073V6.17174ZM37.4992 30.6288C35.2357 29.5581 32.8871 28.7196 30.4335 28.1263V17.4172H37.4992V30.6288ZM18.1143 41.3917V37.6273H20.6804V41.3917H18.1143ZM23.2547 41.3917V37.6273H25.8208V41.3917H23.2547ZM35.3353 41.3917H28.3951V36.3402C28.3951 35.6293 27.8188 35.053 27.108 35.053H16.8272C16.1163 35.053 15.54 35.6293 15.54 36.3402V41.3917H8.73878L6.77475 33.175C9.03216 32.0602 11.4891 31.162 14.0911 30.5584C18.5655 29.5202 23.2537 29.4021 27.7654 30.1981C31.1592 30.7964 34.4774 31.9417 37.2511 33.3764L35.3353 41.3917ZM38.0842 14.8429H29.8484L27.5799 11.3203H40.3527L38.0842 14.8429Z" fill="white"/>
<path d="M0.861169 26.4351L3.448 27.3429C3.44843 27.3431 3.44877 27.3432 3.4492 27.3433C3.7921 27.4631 4.16288 27.4297 4.47137 27.2688L18.2089 20.0762C18.8386 19.7464 19.0819 18.9686 18.7522 18.3388C18.4224 17.709 17.6447 17.4658 17.0148 17.7955L11.1326 20.8752L6.00162 19.1055C5.32956 18.8739 4.59691 19.2306 4.36514 19.9027C4.13337 20.5747 4.49025 21.3074 5.16232 21.5392L7.99705 22.5169L3.77271 24.7287L1.71378 24.0061C1.04317 23.7708 0.30838 24.1237 0.0730029 24.7944C-0.16246 25.4651 0.190477 26.1997 0.861169 26.4351V26.4351Z" fill="white"/>
</g>
<defs>
<clipPath id="clip0_145_106">
<rect width="44" height="44" fill="white"/>
</clipPath>
</defs>
</svg>
