<?xml version="1.0" encoding="UTF-8"?>
<svg width="44" height="44" viewBox="0 0 44 44" fill="none" xmlns="http://www.w3.org/2000/svg">
<g clip-path="url(#clip0_142_587)">
<path d="M6.69483 32.5201C6.16656 32.5201 5.73828 32.0918 5.73828 31.5635V12.4331C5.73828 11.9048 6.16656 11.4766 6.69483 11.4766C7.2231 11.4766 7.65138 11.9048 7.65138 12.4331V31.5635C7.65129 32.0918 7.2231 32.5201 6.69483 32.5201Z" fill="#455A64"/>
<path d="M10.5191 28.6939C9.99078 28.6939 9.5625 28.2657 9.5625 27.7374V12.4331C9.5625 11.9048 9.99078 11.4766 10.5191 11.4766C11.0473 11.4766 11.4756 11.9048 11.4756 12.4331V27.7375C11.4756 28.2657 11.0473 28.6939 10.5191 28.6939Z" fill="#455A64"/>
<path d="M14.3472 28.6939C13.8189 28.6939 13.3906 28.2657 13.3906 27.7374V12.4331C13.3906 11.9048 13.8189 11.4766 14.3472 11.4766C14.8754 11.4766 15.3037 11.9048 15.3037 12.4331V27.7375C15.3037 28.2657 14.8754 28.6939 14.3472 28.6939Z" fill="#455A64"/>
<path d="M18.1714 28.6939C17.6431 28.6939 17.2148 28.2657 17.2148 27.7374V12.4331C17.2148 11.9048 17.6431 11.4766 18.1714 11.4766C18.6997 11.4766 19.1279 11.9048 19.1279 12.4331V27.7375C19.1279 28.2657 18.6997 28.6939 18.1714 28.6939Z" fill="#455A64"/>
<path d="M21.9995 32.5201C21.4713 32.5201 21.043 32.0918 21.043 31.5635V12.4331C21.043 11.9048 21.4713 11.4766 21.9995 11.4766C22.5278 11.4766 22.9561 11.9048 22.9561 12.4331V31.5635C22.9561 32.0918 22.5278 32.5201 21.9995 32.5201Z" fill="#455A64"/>
<path d="M25.8237 28.6939C25.2955 28.6939 24.8672 28.2657 24.8672 27.7374V12.4331C24.8672 11.9048 25.2955 11.4766 25.8237 11.4766C26.352 11.4766 26.7803 11.9048 26.7803 12.4331V27.7375C26.7803 28.2657 26.352 28.6939 25.8237 28.6939Z" fill="#455A64"/>
<path d="M29.6519 28.6939C29.1236 28.6939 28.6953 28.2657 28.6953 27.7374V12.4331C28.6953 11.9048 29.1236 11.4766 29.6519 11.4766C30.1801 11.4766 30.6084 11.9048 30.6084 12.4331V27.7375C30.6083 28.2657 30.1801 28.6939 29.6519 28.6939Z" fill="#455A64"/>
<path d="M33.4761 28.6939C32.9478 28.6939 32.5195 28.2657 32.5195 27.7374V12.4331C32.5195 11.9048 32.9478 11.4766 33.4761 11.4766C34.0044 11.4766 34.4326 11.9048 34.4326 12.4331V27.7375C34.4326 28.2657 34.0044 28.6939 33.4761 28.6939Z" fill="#455A64"/>
<path d="M37.3042 32.5201C36.7759 32.5201 36.3477 32.0918 36.3477 31.5635V12.4331C36.3477 11.9048 36.7759 11.4766 37.3042 11.4766C37.8325 11.4766 38.2608 11.9048 38.2608 12.4331V31.5635C38.2608 32.0918 37.8325 32.5201 37.3042 32.5201Z" fill="#455A64"/>
<path d="M10.5193 32.5172C10.3937 32.5215 10.269 32.4952 10.1558 32.4407C10.0362 32.4004 9.93021 32.3275 9.84977 32.2302C9.47996 31.8785 9.46525 31.2936 9.81695 30.9239C9.82762 30.9127 9.83856 30.9018 9.84977 30.8911C9.93012 30.7937 10.0362 30.7208 10.1558 30.6806C10.5109 30.5344 10.9193 30.6175 11.1889 30.8911C11.5587 31.2683 11.5528 31.8739 11.1755 32.2437C11 32.4157 10.7651 32.5137 10.5193 32.5172Z" fill="#455A64"/>
<path d="M14.3474 32.5186C14.2219 32.5229 14.0971 32.4966 13.984 32.4421C13.8643 32.4018 13.7583 32.3289 13.6779 32.2316C13.3081 31.8799 13.2934 31.295 13.6451 30.9253C13.6557 30.9141 13.6667 30.9032 13.6779 30.8925C13.7582 30.7951 13.8643 30.7222 13.984 30.682C14.3389 30.5335 14.7484 30.617 15.017 30.8925C15.1143 30.9729 15.1872 31.0789 15.2275 31.1986C15.3295 31.4301 15.3295 31.6939 15.2275 31.9255C15.1876 32.0453 15.1147 32.1515 15.017 32.2316C14.8446 32.4178 14.6012 32.5221 14.3474 32.5186Z" fill="#455A64"/>
<path d="M18.1716 32.5186C18.0461 32.5229 17.9213 32.4966 17.8082 32.4421C17.6885 32.4018 17.5826 32.3289 17.5021 32.2316C17.1323 31.8799 17.1176 31.295 17.4693 30.9253C17.48 30.9141 17.4909 30.9032 17.5021 30.8925C17.5825 30.7951 17.6885 30.7222 17.8082 30.682C18.1631 30.5335 18.5726 30.617 18.8412 30.8925C18.9385 30.9729 19.0114 31.0789 19.0517 31.1986C19.1537 31.4301 19.1537 31.6939 19.0517 31.9255C19.0118 32.0453 18.9389 32.1515 18.8412 32.2316C18.6688 32.4178 18.4254 32.5221 18.1716 32.5186Z" fill="#455A64"/>
<path d="M25.8259 32.5166C25.2977 32.5092 24.8755 32.075 24.8829 31.5468C24.8864 31.3011 24.9842 31.0661 25.1563 30.8906C25.5283 30.5261 26.1235 30.5261 26.4954 30.8906C26.5927 30.971 26.6656 31.077 26.7059 31.1966C26.8079 31.4282 26.8079 31.692 26.7059 31.9236C26.666 32.0434 26.5931 32.1496 26.4954 32.2297C26.3231 32.4158 26.0797 32.5202 25.8259 32.5166Z" fill="#455A64"/>
<path d="M29.6501 32.5167C29.122 32.5093 28.6997 32.0751 28.7071 31.5469C28.7105 31.3012 28.8085 31.0661 28.9805 30.8906C29.3525 30.526 29.9478 30.526 30.3196 30.8906C30.6895 31.2678 30.6835 31.8735 30.3063 32.2433C30.1309 32.4153 29.8958 32.5132 29.6501 32.5167Z" fill="#455A64"/>
<path d="M33.4761 32.5167C33.2223 32.5203 32.979 32.416 32.8065 32.2297C32.7089 32.1497 32.6359 32.0436 32.5961 31.9237C32.494 31.6922 32.494 31.4283 32.5961 31.1967C32.6362 31.077 32.7091 30.971 32.8065 30.8906C33.1785 30.526 33.7738 30.526 34.1456 30.8906C34.5154 31.2678 34.5095 31.8735 34.1323 32.2433C33.9569 32.4153 33.7219 32.5132 33.4761 32.5167Z" fill="#455A64"/>
<path d="M0.956551 13.3943C0.428282 13.3943 0 12.9661 0 12.4379V6.69874C0 6.17047 0.428282 5.74219 0.956551 5.74219H6.69568C7.22395 5.74219 7.65223 6.17047 7.65223 6.69874C7.65223 7.22701 7.22395 7.65529 6.69568 7.65529H1.91301V12.4379C1.91301 12.9661 1.48482 13.3943 0.956551 13.3943Z" fill="#2196F3"/>
<path d="M6.69568 38.2616H0.956551C0.428282 38.2616 0 37.8333 0 37.3051V31.5659C0 31.0377 0.428282 30.6094 0.956551 30.6094C1.48482 30.6094 1.91301 31.0377 1.91301 31.5659V36.3485H6.69559C7.22386 36.3485 7.65214 36.7768 7.65214 37.3051C7.65214 37.8333 7.22395 38.2616 6.69568 38.2616Z" fill="#2196F3"/>
<path d="M43.0433 13.3943C42.5151 13.3943 42.0868 12.966 42.0868 12.4378V7.6552H37.3042C36.7759 7.6552 36.3477 7.22692 36.3477 6.69865C36.3477 6.17038 36.7759 5.74219 37.3042 5.74219H43.0433C43.5716 5.74219 43.9999 6.17047 43.9999 6.69874V12.4379C43.9999 12.9661 43.5716 13.3943 43.0433 13.3943Z" fill="#2196F3"/>
<path d="M43.0433 38.2616H37.3042C36.7759 38.2616 36.3477 37.8333 36.3477 37.3051C36.3477 36.7768 36.7759 36.3485 37.3042 36.3485H42.0868V31.5659C42.0868 31.0377 42.5151 30.6094 43.0433 30.6094C43.5716 30.6094 43.9999 31.0377 43.9999 31.5659V37.3051C43.9999 37.8333 43.5716 38.2616 43.0433 38.2616Z" fill="#2196F3"/>
<path d="M6.69483 32.5201C6.16656 32.5201 5.73828 32.0918 5.73828 31.5635V12.4331C5.73828 11.9048 6.16656 11.4766 6.69483 11.4766C7.2231 11.4766 7.65138 11.9048 7.65138 12.4331V31.5635C7.65129 32.0918 7.2231 32.5201 6.69483 32.5201Z" fill="white"/>
<path d="M10.523 28.6939C9.99469 28.6939 9.56641 28.2657 9.56641 27.7374V12.4331C9.56641 11.9048 9.99469 11.4766 10.523 11.4766C11.0512 11.4766 11.4795 11.9048 11.4795 12.4331V27.7375C11.4795 28.2657 11.0512 28.6939 10.523 28.6939Z" fill="white"/>
<path d="M14.3472 28.6939C13.8189 28.6939 13.3906 28.2657 13.3906 27.7374V12.4331C13.3906 11.9048 13.8189 11.4766 14.3472 11.4766C14.8754 11.4766 15.3037 11.9048 15.3037 12.4331V27.7375C15.3037 28.2657 14.8754 28.6939 14.3472 28.6939Z" fill="white"/>
<path d="M18.1753 28.6939C17.647 28.6939 17.2188 28.2657 17.2188 27.7374V12.4331C17.2188 11.9048 17.647 11.4766 18.1753 11.4766C18.7036 11.4766 19.1319 11.9048 19.1319 12.4331V27.7375C19.1318 28.2657 18.7036 28.6939 18.1753 28.6939Z" fill="white"/>
<path d="M21.9995 32.5201C21.4713 32.5201 21.043 32.0918 21.043 31.5635V12.4331C21.043 11.9048 21.4713 11.4766 21.9995 11.4766C22.5278 11.4766 22.9561 11.9048 22.9561 12.4331V31.5635C22.9561 32.0918 22.5278 32.5201 21.9995 32.5201Z" fill="white"/>
<path d="M25.8276 28.6939C25.2994 28.6939 24.8711 28.2657 24.8711 27.7374V12.4331C24.8711 11.9048 25.2994 11.4766 25.8276 11.4766C26.3559 11.4766 26.7842 11.9048 26.7842 12.4331V27.7375C26.7842 28.2657 26.3559 28.6939 25.8276 28.6939Z" fill="white"/>
<path d="M29.6519 28.6939C29.1236 28.6939 28.6953 28.2657 28.6953 27.7374V12.4331C28.6953 11.9048 29.1236 11.4766 29.6519 11.4766C30.1801 11.4766 30.6084 11.9048 30.6084 12.4331V27.7375C30.6083 28.2657 30.1801 28.6939 29.6519 28.6939Z" fill="white"/>
<path d="M33.48 28.6939C32.9517 28.6939 32.5234 28.2657 32.5234 27.7374V12.4331C32.5234 11.9048 32.9517 11.4766 33.48 11.4766C34.0083 11.4766 34.4365 11.9048 34.4365 12.4331V27.7375C34.4365 28.2657 34.0083 28.6939 33.48 28.6939Z" fill="white"/>
<path d="M37.3042 32.5201C36.7759 32.5201 36.3477 32.0918 36.3477 31.5635V12.4331C36.3477 11.9048 36.7759 11.4766 37.3042 11.4766C37.8325 11.4766 38.2608 11.9048 38.2608 12.4331V31.5635C38.2608 32.0918 37.8325 32.5201 37.3042 32.5201Z" fill="white"/>
<path d="M10.5223 32.5255C10.3968 32.5293 10.2721 32.5031 10.1589 32.449C10.0393 32.4084 9.93343 32.3356 9.85281 32.2385C9.483 31.8853 9.46955 31.2992 9.82277 30.9295C9.83255 30.9192 9.84259 30.9092 9.85281 30.8994C9.93334 30.8023 10.0393 30.7294 10.1589 30.6889C10.3918 30.5933 10.653 30.5933 10.8859 30.6889C11.0057 30.7289 11.1117 30.8018 11.1919 30.8994C11.5617 31.2766 11.5558 31.8822 11.1786 32.2521C11.0031 32.424 10.7681 32.522 10.5223 32.5255Z" fill="white"/>
<path d="M14.3473 32.5193C13.819 32.513 13.396 32.0796 13.4024 31.5513C13.4054 31.3049 13.5033 31.0691 13.6758 30.8932C13.9439 30.6167 14.354 30.5332 14.7089 30.6827C14.8287 30.7227 14.9348 30.7956 15.0149 30.8932C15.3847 31.2704 15.3788 31.876 15.0017 32.2458C14.8266 32.4175 14.5924 32.5154 14.3473 32.5193Z" fill="white"/>
<path d="M18.1754 32.5251C17.6472 32.5187 17.2242 32.0853 17.2305 31.557C17.2335 31.3106 17.3314 31.0748 17.504 30.8989C17.5845 30.8018 17.6905 30.7289 17.81 30.6884C18.1651 30.5422 18.5735 30.6253 18.8431 30.8989C19.2129 31.2761 19.207 31.8817 18.8297 32.2515C18.6542 32.4236 18.4193 32.5216 18.1735 32.525H18.1754V32.5251Z" fill="white"/>
<path d="M25.827 32.5255C25.7016 32.5274 25.5774 32.5013 25.4636 32.449C25.344 32.4084 25.2381 32.3356 25.1575 32.2385C24.7877 31.8853 24.7742 31.2992 25.1275 30.9295C25.1372 30.9192 25.1473 30.9092 25.1575 30.8994C25.238 30.8023 25.344 30.7294 25.4636 30.6889C25.6964 30.5933 25.9577 30.5933 26.1905 30.6889C26.3103 30.7289 26.4164 30.8018 26.4966 30.8994C26.8664 31.2766 26.8605 31.8822 26.4832 32.2521C26.3077 32.424 26.0727 32.522 25.827 32.5255Z" fill="white"/>
<path d="M29.6512 32.5245C29.5259 32.5265 29.4017 32.5004 29.2878 32.448C29.1682 32.4075 29.0623 32.3347 28.9817 32.2376C28.6119 31.8843 28.5985 31.2982 28.9517 30.9285C28.9615 30.9183 28.9715 30.9082 28.9817 30.8985C29.3537 30.5338 29.9489 30.5338 30.3208 30.8985C30.6906 31.2486 30.7065 31.8322 30.3564 32.202C30.3449 32.2142 30.333 32.226 30.3208 32.2376C30.2406 32.335 30.1345 32.4079 30.0148 32.448C29.9009 32.5006 29.7766 32.5268 29.6512 32.5245Z" fill="white"/>
<path d="M33.4765 32.525C33.3512 32.5269 33.227 32.5008 33.1131 32.4485C32.9936 32.4079 32.8877 32.3351 32.807 32.238C32.6211 32.0655 32.5168 31.8222 32.5201 31.5684C32.5153 31.4428 32.5416 31.318 32.5966 31.205C32.6361 31.0854 32.7083 30.9794 32.8051 30.8989C32.8856 30.8018 32.9916 30.7289 33.1111 30.6884C33.4662 30.5422 33.8746 30.6253 34.1442 30.8989C34.2408 30.9799 34.3136 31.0857 34.3546 31.205C34.4096 31.318 34.4359 31.4429 34.4311 31.5684C34.417 32.0908 33.9969 32.5109 33.4746 32.525H33.4765Z" fill="white"/>
<path d="M0.956551 13.3943C0.428282 13.3943 0 12.9661 0 12.4379V6.69874C0 6.17047 0.428282 5.74219 0.956551 5.74219H6.69568C7.22395 5.74219 7.65223 6.17047 7.65223 6.69874C7.65223 7.22701 7.22395 7.65529 6.69568 7.65529H1.91301V12.4379C1.91301 12.9661 1.48482 13.3943 0.956551 13.3943Z" fill="white"/>
<path d="M6.69568 38.2616H0.956551C0.428282 38.2616 0 37.8333 0 37.3051V31.5659C0 31.0377 0.428282 30.6094 0.956551 30.6094C1.48482 30.6094 1.91301 31.0377 1.91301 31.5659V36.3485H6.69559C7.22386 36.3485 7.65214 36.7768 7.65214 37.3051C7.65214 37.8333 7.22395 38.2616 6.69568 38.2616Z" fill="white"/>
<path d="M43.0433 13.3943C42.5151 13.3943 42.0868 12.966 42.0868 12.4378V7.6552H37.3042C36.7759 7.6552 36.3477 7.22692 36.3477 6.69865C36.3477 6.17038 36.7759 5.74219 37.3042 5.74219H43.0433C43.5716 5.74219 43.9999 6.17047 43.9999 6.69874V12.4379C43.9999 12.9661 43.5716 13.3943 43.0433 13.3943Z" fill="white"/>
<path d="M43.0433 38.2616H37.3042C36.7759 38.2616 36.3477 37.8333 36.3477 37.3051C36.3477 36.7768 36.7759 36.3485 37.3042 36.3485H42.0868V31.5659C42.0868 31.0377 42.5151 30.6094 43.0433 30.6094C43.5716 30.6094 43.9999 31.0377 43.9999 31.5659V37.3051C43.9999 37.8333 43.5716 38.2616 43.0433 38.2616Z" fill="white"/>
</g>
<defs>
<clipPath id="clip0_142_587">
<rect width="44" height="44" fill="white"/>
</clipPath>
</defs>
</svg>
