<?xml version="1.0" encoding="UTF-8"?>
<svg width="44" height="44" viewBox="0 0 44 44" fill="none" xmlns="http://www.w3.org/2000/svg">
<g clip-path="url(#clip0_137_433)">
<path d="M30.5382 26.373C30.7934 25.8573 30.9375 25.2773 30.9375 24.6641C30.9375 22.5317 29.2027 20.7969 27.0703 20.7969H19.7656V16.9297C19.7656 14.3235 17.6453 12.2031 15.0391 12.2031C13.3806 12.2031 12.0312 13.5524 12.0312 15.2109V19.5078C12.0312 21.1663 10.6819 22.5156 9.02344 22.5156H7.73438V22.0859C7.73438 21.374 7.15722 20.7969 6.44531 20.7969H1.28906C0.577156 20.7969 0 21.374 0 22.0859V42.7109C0 43.4228 0.577156 44 1.28906 44H6.44531C7.15722 44 7.73438 43.4228 7.73438 42.7109V42.2812H9.58478C11.9401 43.4065 14.5536 44 17.1635 44H25.3516C27.4839 44 29.2188 42.2652 29.2188 40.1328C29.2188 39.5196 29.0746 38.9396 28.8195 38.4239C30.075 37.7841 30.9375 36.4796 30.9375 34.9766C30.9375 34.3633 30.7934 33.7833 30.5382 33.2676C31.7938 32.6279 32.6562 31.3234 32.6562 29.8203C32.6562 28.3173 31.7938 27.0127 30.5382 26.373ZM5.15625 41.4219H2.57812V23.375H5.15625V41.4219ZM28.7891 31.1094H23.6328C22.9209 31.1094 22.3438 31.6865 22.3438 32.3984C22.3438 33.1103 22.9209 33.6875 23.6328 33.6875H27.0703C27.7811 33.6875 28.3594 34.2658 28.3594 34.9766C28.3594 35.6874 27.7811 36.2656 27.0703 36.2656H23.6328C22.9209 36.2656 22.3438 36.8428 22.3438 37.5547C22.3438 38.2666 22.9209 38.8438 23.6328 38.8438H25.3516C26.0624 38.8438 26.6406 39.422 26.6406 40.1328C26.6406 40.8436 26.0624 41.4219 25.3516 41.4219H17.1635C14.8484 41.4219 12.53 40.8746 10.4593 39.8393C10.2803 39.7497 10.083 39.7031 9.88281 39.7031H7.73438V25.0938H9.02344C12.1035 25.0938 14.6094 22.5879 14.6094 19.5078V15.2109C14.6094 14.974 14.8021 14.7812 15.0391 14.7812C16.2237 14.7812 17.1875 15.745 17.1875 16.9297V22.0859C17.1875 22.7978 17.7647 23.375 18.4766 23.375H27.0703C27.7811 23.375 28.3594 23.9533 28.3594 24.6641C28.3594 25.3749 27.7811 25.9531 27.0703 25.9531H23.6328C22.9209 25.9531 22.3438 26.5303 22.3438 27.2422C22.3438 27.9541 22.9209 28.5312 23.6328 28.5312H28.7891C29.4999 28.5312 30.0781 29.1095 30.0781 29.8203C30.0781 30.5311 29.4999 31.1094 28.7891 31.1094Z" fill="white"/>
<path d="M34.1172 0C28.6678 0 24.2344 4.43343 24.2344 9.88281C24.2344 15.3322 28.6678 19.7656 34.1172 19.7656C39.5666 19.7656 44 15.3322 44 9.88281C44 4.43343 39.5666 0 34.1172 0ZM34.1172 17.1875C30.0894 17.1875 26.8125 13.9106 26.8125 9.88281C26.8125 5.85501 30.0894 2.57812 34.1172 2.57812C38.145 2.57812 41.4219 5.85501 41.4219 9.88281C41.4219 13.9106 38.145 17.1875 34.1172 17.1875Z" fill="white"/>
<path d="M36.2176 7.50429L33.1037 10.6182L32.0154 9.52984C31.5246 9.03905 30.7251 8.99385 30.2117 9.461C29.6636 9.95979 29.6486 10.809 30.1666 11.3271L32.1922 13.3526C32.6956 13.856 33.5117 13.856 34.0152 13.3526L38.0663 9.3015C38.5843 8.78347 38.5693 7.93424 38.0211 7.43546C37.5078 6.9683 36.7084 7.0135 36.2176 7.50429V7.50429Z" fill="white"/>
</g>
<defs>
<clipPath id="clip0_137_433">
<rect width="44" height="44" fill="white"/>
</clipPath>
</defs>
</svg>
