<?xml version="1.0" encoding="UTF-8"?>
<svg width="44" height="44" viewBox="0 0 44 44" fill="none" xmlns="http://www.w3.org/2000/svg">
<path d="M13.2332 7.66298C11.7385 7.66298 10.5227 8.88442 10.5227 10.386C10.5227 11.8875 11.7386 13.1089 13.2332 13.1089C14.7278 13.1089 15.9437 11.8875 15.9437 10.386C15.9421 8.88438 14.7262 7.66298 13.2332 7.66298ZM13.2332 11.0583C12.8635 11.0583 12.5624 10.7558 12.5624 10.3844C12.5624 10.013 12.8635 9.71047 13.2332 9.71047C13.6029 9.71047 13.904 10.013 13.904 10.3844C13.9024 10.7574 13.6029 11.0583 13.2332 11.0583ZM29.7684 7.66298C28.2738 7.66298 27.058 8.88442 27.058 10.386C27.058 11.8875 28.2738 13.1089 29.7684 13.1089C31.2631 13.1089 32.4789 11.8875 32.4789 10.386C32.4773 8.88438 31.2615 7.66298 29.7684 7.66298ZM29.7684 11.0583C29.3987 11.0583 29.0976 10.7558 29.0976 10.3844C29.0976 10.013 29.3988 9.71047 29.7684 9.71047C30.1381 9.71047 30.4393 10.013 30.4393 10.3844C30.4377 10.7574 30.1365 11.0583 29.7684 11.0583ZM38.9802 18.0857C39.5443 18.0857 40 17.6279 40 17.0612V6.86066C40 5.28385 38.7221 4 37.1525 4L5.84752 4.0016C4.27795 4.0016 3 5.28545 3 6.86226V36.1393C3 37.7162 4.27795 39 5.84752 39H37.1525C38.7221 39 40 37.7162 40 36.1393V20.2015C40 19.6348 39.5443 19.177 38.9802 19.177C38.4161 19.177 37.9604 19.6348 37.9604 20.2015V36.1377C37.9604 36.5843 37.5987 36.9493 37.1525 36.9493H5.84752C5.40133 36.9493 5.03962 36.5859 5.03962 36.1377V16.7997H37.9587V17.0606C37.9603 17.6257 38.4161 18.0851 38.9801 18.0851L38.9802 18.0857ZM5.03962 14.7512V6.86079C5.03962 6.41418 5.40134 6.04916 5.84752 6.04916H37.1525C37.5987 6.04916 37.9604 6.41255 37.9604 6.86079V14.7512H5.03962ZM29.7827 20.759L18.6651 31.4394L13.2348 25.9841C12.8365 25.5839 12.1911 25.5839 11.7927 25.9841C11.3944 26.3843 11.3944 27.0326 11.7927 27.4328L17.9275 33.5959C18.1267 33.796 18.388 33.8953 18.6493 33.8953C18.9027 33.8953 19.1561 33.8008 19.3537 33.6119L31.1916 22.2397C31.598 21.8491 31.6123 21.2008 31.2235 20.791C30.8347 20.3828 30.1893 20.3684 29.783 20.759L29.7827 20.759Z" fill="white"/>
</svg>
