<?xml version="1.0" encoding="UTF-8"?>
<svg width="44" height="44" viewBox="0 0 44 44" fill="none" xmlns="http://www.w3.org/2000/svg">
<path d="M41 10.5127C41 10.0053 40.6923 9.54802 40.2211 9.35514L22.4774 2.09386C22.1715 1.96871 21.8285 1.96871 21.5226 2.09386L3.77888 9.35514C3.30771 9.54794 3 10.0053 3 10.5127V33.4873C3 33.9947 3.30763 34.452 3.77888 34.6449L21.5226 41.9061C21.8252 42.03 22.1654 42.0326 22.4758 41.9061C22.491 41.9011 21.8192 42.1755 40.2211 34.6449C40.6924 34.4521 41 33.9947 41 33.4873V10.5127ZM22 16.5263L15.4621 13.8508L29.5912 7.71091L36.5663 10.5654L22 16.5263ZM5.51252 12.485L11.1532 14.7933V21.3058C11.1532 21.9969 11.7157 22.5572 12.4095 22.5572C13.1032 22.5572 13.6657 21.9969 13.6657 21.3058V15.8215L20.7437 18.718V38.8815L5.51252 32.6484V12.485ZM22 4.60431L26.355 6.38651L12.2259 12.5264L7.43366 10.5653L22 4.60431ZM23.2563 18.718L38.4875 12.485V32.6484L23.2563 38.8815V18.718Z" fill="white"/>
</svg>
