<?xml version="1.0" encoding="UTF-8"?>
<svg width="44" height="44" viewBox="0 0 44 44" fill="none" xmlns="http://www.w3.org/2000/svg">
<path d="M36.8173 16.924L40.8133 11.0282C41.0039 10.7471 41.0516 10.393 40.9423 10.0714C40.833 9.7498 40.5795 9.49802 40.2571 9.39114L27.177 5.05521C26.7136 4.90165 26.2048 5.07667 25.9341 5.48288L22.5 10.6339L19.066 5.4828C18.7952 5.0766 18.2864 4.90157 17.823 5.05514L4.74293 9.39107C4.42055 9.49795 4.1669 9.74972 4.05764 10.0713C3.94837 10.3929 3.99614 10.7471 4.1867 11.0282L8.1827 16.924L4.18677 22.8197C3.99621 23.1009 3.94844 23.455 4.05771 23.7766C4.16697 24.0982 4.42062 24.35 4.743 24.4568L8.40824 25.6718V34.3399C8.40824 34.8066 8.70676 35.2207 9.14939 35.3683L22.1526 39.7026C22.3704 39.7763 22.613 39.7813 22.8463 39.7031L35.8506 35.3683C36.2932 35.2207 36.5918 34.8065 36.5918 34.3399V25.6718L40.2571 24.4568C40.5795 24.3499 40.8331 24.0981 40.9423 23.7765C41.0516 23.455 41.0039 23.1008 40.8133 22.8196L36.8173 16.924ZM27.2794 7.3732L38.2147 10.9982L35.0713 15.6359L24.1891 12.0085L27.2794 7.3732ZM6.7853 10.9981L17.7206 7.37313L20.8108 12.0085L9.9287 15.6358L6.7853 10.9981ZM6.78537 22.8497L9.9287 18.212L20.8109 21.8394L17.7207 26.4747C15.8763 25.8633 8.03455 23.2639 6.78537 22.8497ZM21.416 37.1719L10.5762 33.5586V26.3905L17.823 28.7927C18.2835 28.9453 18.7935 28.7738 19.066 28.365L21.416 24.8401V37.1719ZM22.5 20.1172L12.9201 16.9239L22.5 13.7306L32.08 16.9239L22.5 20.1172ZM34.4238 33.5586L23.584 37.1719V24.84L25.9341 28.365C26.2067 28.7741 26.7168 28.9453 27.177 28.7927L34.4238 26.3905V33.5586ZM27.2794 26.4748L24.1891 21.8395L35.0713 18.2121L38.2147 22.8499C38.0283 22.9116 27.6019 26.367 27.2794 26.4748Z" fill="white"/>
</svg>
