<?xml version="1.0" encoding="UTF-8"?>
<svg width="44" height="44" viewBox="0 0 44 44" fill="none" xmlns="http://www.w3.org/2000/svg">
<g clip-path="url(#clip0_963_3457)">
<path d="M11.4476 17.6C11.1314 17.6 10.8323 17.4247 10.6828 17.1514C10.5247 16.8696 10.5333 16.5258 10.7086 16.2542L20.7494 0.414219C20.9161 0.149533 21.2066 -0.00859413 21.5245 0.00859667C21.8322 0.0171903 22.1227 0.194219 22.2722 0.465801L30.6942 16.0066C30.8437 16.2799 30.8351 16.6047 30.677 16.8694C30.5189 17.1341 30.237 17.3008 29.9294 17.3094L11.4648 17.5999H11.4476L11.4476 17.6ZM21.4268 2.62284L13.058 15.814L28.4409 15.5683L21.4268 2.62284Z" fill="white"/>
<path d="M22.6684 26.6649C21.7266 26.6649 20.9256 26.3572 20.2828 25.7505C19.6572 25.161 19.2533 24.281 19.078 23.1277C19.0075 22.643 19.3323 22.1944 19.817 22.124C20.3017 22.0535 20.7503 22.3784 20.8208 22.8631C20.9359 23.6193 21.1645 24.1573 21.498 24.4735C21.8142 24.7726 22.1923 24.9049 22.677 24.9049C23.1789 24.9049 23.5914 24.7468 23.9352 24.4117C24.2703 24.0765 24.4284 23.7345 24.4284 23.3117C24.4284 23.1003 24.3838 22.9163 24.2875 22.7393C24.217 22.6156 23.9884 22.3165 23.337 21.7356C22.6942 21.1632 22.2817 20.7679 22.0428 20.4774C21.6819 20.0374 21.4086 19.5889 21.2419 19.1402C21.0133 18.5593 20.9067 17.8993 20.9067 17.1259C20.9067 17.0107 20.9067 16.8268 20.9153 16.5896C20.9325 16.1049 21.3467 15.7268 21.8297 15.744C22.3144 15.7612 22.6925 16.1754 22.6753 16.6583C22.6667 16.8611 22.6667 17.0193 22.6667 17.1241C22.6667 17.6793 22.7372 18.1365 22.8867 18.506C22.8867 18.5146 22.8867 18.5146 22.8953 18.5232C22.9916 18.7879 23.1686 19.068 23.4058 19.3585C23.5914 19.5785 23.9609 19.9394 24.5144 20.4327C25.183 21.0222 25.5972 21.4794 25.8258 21.8764C25.8258 21.8764 25.8258 21.885 25.8344 21.885C26.0802 22.325 26.2039 22.8097 26.2039 23.3202C26.2039 24.2174 25.8602 25.0097 25.1744 25.6783C24.4731 26.3297 23.6361 26.6649 22.6685 26.6649L22.6684 26.6649Z" fill="white"/>
<path d="M6.17688 41.862C6.1064 41.862 6.02735 41.8534 5.95688 41.8362C5.57015 41.74 5.29688 41.3877 5.29688 40.982V29.6041C5.29688 29.1194 5.69219 28.7241 6.17688 28.7241H12.4693C12.777 28.7241 13.0675 28.8908 13.2256 29.1555C13.3837 29.4202 13.3837 29.7536 13.2342 30.0269L6.9435 41.4048C6.78537 41.6953 6.49492 41.8621 6.17693 41.8621L6.17688 41.862ZM7.05688 30.4841V37.5755L10.9825 30.4907L7.05688 30.4924V30.4841Z" fill="white"/>
<path d="M9.9083 44H6.17687C5.69217 44 5.29688 43.6047 5.29688 43.12V40.9819C5.29688 40.8323 5.33125 40.6828 5.41203 40.559L11.7045 29.1894C11.8626 28.9076 12.1531 28.7322 12.4796 28.7322H17.7147C18.031 28.7322 18.3215 28.899 18.4796 29.1722C18.6377 29.4455 18.6377 29.779 18.4796 30.0522L10.6749 43.5598C10.515 43.8331 10.2246 43.9998 9.9083 43.9998L9.9083 44ZM7.05687 42.24H9.40639L16.1815 30.4836H12.9864L7.05648 41.2104L7.05687 42.24Z" fill="white"/>
<path d="M15.3737 44H9.9186C9.60235 44 9.31189 43.8333 9.15375 43.56C8.99562 43.2867 8.99562 42.9533 9.15375 42.68L16.9501 29.1636C17.1082 28.8904 17.3987 28.7236 17.715 28.7236H23.1806C23.4969 28.7236 23.7874 28.8904 23.9455 29.1636C24.1036 29.4369 24.1036 29.7703 23.9455 30.0436L16.139 43.56C15.9809 43.8333 15.6904 44 15.3742 44H15.3737ZM11.4395 42.24H14.8719L21.647 30.4836H18.2146L11.4395 42.24Z" fill="white"/>
<path d="M20.8296 44H15.3639C15.0477 44 14.7572 43.8333 14.5991 43.56C14.4409 43.2867 14.4409 42.9533 14.5991 42.68L22.3954 29.1636C22.5535 28.8904 22.844 28.7236 23.1603 28.7236H28.626C28.9422 28.7236 29.2327 28.8904 29.3908 29.1636C29.5489 29.4369 29.5489 29.7703 29.3908 30.0436L21.5944 43.56C21.4363 43.8333 21.1459 44 20.8296 44ZM16.8954 42.24H20.3277L27.1029 30.4836H23.6705L16.8954 42.24Z" fill="white"/>
<path d="M26.2956 44H20.8405C20.5242 44 20.2338 43.8333 20.0756 43.56C19.9175 43.2867 19.9175 42.9533 20.0756 42.68L27.872 29.1636C28.0301 28.8904 28.3206 28.7236 28.6368 28.7236H34.1025C34.4188 28.7236 34.7092 28.8904 34.8674 29.1636C35.0255 29.4369 35.0255 29.7703 34.8674 30.0436L27.0609 43.56C26.9028 43.8333 26.6123 44 26.296 44H26.2956ZM22.3614 42.24H25.7937L32.5689 30.4836H29.1365L22.3614 42.24Z" fill="white"/>
<path d="M31.5307 44H26.2956C25.9793 44 25.6888 43.8333 25.5307 43.56C25.3726 43.2867 25.3726 42.9533 25.5307 42.68L33.3271 29.1636C33.4852 28.8904 33.7756 28.7236 34.0919 28.7236H37.8233C38.308 28.7236 38.7033 29.1189 38.7033 29.6036V31.7418C38.7033 31.8913 38.669 32.0408 38.5882 32.1646L32.2957 43.5342C32.1462 43.8247 31.8472 44 31.5309 44L31.5307 44ZM27.8165 42.24H31.0116L36.9428 31.522V30.4925H34.5933L27.8165 42.24Z" fill="white"/>
<path d="M37.8227 44H31.5303C31.2226 44 30.9321 43.8333 30.774 43.5686C30.6159 43.3039 30.6159 42.9705 30.7654 42.6972L37.0578 31.3276C37.2521 30.9752 37.656 30.7999 38.053 30.9048C38.4397 31.001 38.713 31.3533 38.713 31.759L38.7113 43.1198C38.7027 43.6045 38.3056 43.9998 37.8227 43.9998L37.8227 44ZM33.0258 42.24H36.9515V35.1551L33.0258 42.24Z" fill="white"/>
<path d="M27.9316 30.4837H16.0604C15.7081 30.4837 15.3832 30.2723 15.2509 29.9388C15.1186 29.614 15.1891 29.2341 15.4451 28.9797L20.11 24.3149C20.2853 24.1396 20.5242 24.0502 20.77 24.0605C21.0158 24.0691 21.2444 24.1842 21.4042 24.3682C21.43 24.4025 21.4661 24.4386 21.5005 24.473C21.8167 24.7721 22.1949 24.9044 22.6796 24.9044C22.9786 24.9044 23.2433 24.8511 23.4719 24.7377C23.8071 24.571 24.2196 24.6414 24.4843 24.9044L28.5594 28.9881C28.8138 29.2425 28.8843 29.6223 28.7536 29.9472C28.6093 30.272 28.293 30.4835 27.9321 30.4835L27.9316 30.4837ZM18.1896 28.7237H25.8192L23.6364 26.5409C23.3287 26.6199 23.0108 26.6646 22.6773 26.6646C21.9641 26.6646 21.3316 26.4893 20.785 26.137L18.1896 28.7237Z" fill="white"/>
<path d="M22.6677 26.6649C21.7258 26.6649 20.9249 26.3573 20.2735 25.7505L20.2649 25.742C20.1858 25.6629 20.1153 25.5924 20.0449 25.5134C19.7458 25.161 19.763 24.6419 20.0896 24.3171L21.3649 23.0418C21.5316 22.8751 21.7516 22.7874 21.9905 22.7874C22.2277 22.7874 22.4477 22.8837 22.6161 23.0418L24.4724 24.8981C24.6752 25.1009 24.7629 25.3828 24.7182 25.6629C24.6735 25.9448 24.4982 26.182 24.2438 26.3057C23.7677 26.5412 23.2401 26.6649 22.6677 26.6649L22.6677 26.6649Z" fill="white"/>
</g>
<defs>
<clipPath id="clip0_963_3457">
<rect width="44" height="44" fill="white"/>
</clipPath>
</defs>
</svg>
