<?xml version="1.0" encoding="UTF-8"?>
<svg width="44" height="44" viewBox="0 0 44 44" fill="none" xmlns="http://www.w3.org/2000/svg">
<path d="M1.37504 33C1.37504 33.1822 1.44723 33.3575 1.57614 33.4864C1.70504 33.6153 1.88036 33.6875 2.06256 33.6875H41.9376C42.3174 33.6875 42.6251 33.3798 42.6251 33C42.6251 32.6202 42.3174 32.3125 41.9376 32.3125H39.0604C39.1429 32.0925 39.1858 31.8605 39.1875 31.625H41.9375C42.1197 31.625 42.295 31.5528 42.424 31.4239C42.5529 31.295 42.6251 31.1197 42.6251 30.9375V24.7502C42.6268 24.6436 42.6027 24.5388 42.5563 24.4425L41.214 21.7613L39.875 16.4162V15.1254C39.875 13.9859 38.952 13.0629 37.8125 13.0629H29.5625C29.1827 13.0629 28.875 13.3705 28.875 13.7504V27.5004H27.5V15.1254C27.5 14.9432 27.4278 14.7679 27.2989 14.6389C27.17 14.51 26.9947 14.4379 26.8125 14.4379H15.8125C15.4327 14.4379 15.125 14.7455 15.125 15.1254V27.5004H13.75V11.6876C13.75 11.5054 13.6778 11.3301 13.5489 11.2012C13.42 11.0723 13.2447 11.0001 13.0625 11.0001H2.0625C1.68266 11.0001 1.375 11.3078 1.375 11.6876V30.9376C1.375 31.1198 1.44719 31.2951 1.5761 31.424C1.705 31.553 1.88032 31.6251 2.06252 31.6251H2.75002C2.75174 31.8606 2.7947 32.0926 2.8772 32.3126H2.0625C1.68266 32.3126 1.375 32.6203 1.375 33.0001L1.37504 33ZM6.87504 31.625H8.25004C8.25176 31.8605 8.29473 32.0925 8.37723 32.3125H6.74787C6.83037 32.0925 6.87334 31.8605 6.87505 31.625H6.87504ZM12.375 31.625H13.0625C13.2447 31.625 13.42 31.5528 13.549 31.4239C13.6779 31.295 13.7501 31.1197 13.7501 30.9375V28.875H15.1251V30.9375C15.1251 31.1197 15.1972 31.295 15.3262 31.4239C15.4551 31.5528 15.6304 31.625 15.8126 31.625H16.5001C16.5018 31.8605 16.5448 32.0925 16.6273 32.3125H12.2479C12.3304 32.0925 12.3734 31.8605 12.3751 31.625H12.375ZM2.75004 20.625H12.375V27.5H2.75004V20.625ZM30.25 17.1875H31.625V27.5002H30.25V17.1875ZM38.6514 17.1875L39.6827 21.3125H37.1252V17.1875H38.6514ZM37.1251 29.5625C36.5425 29.5642 35.9873 29.8151 35.5989 30.25H33.1514C32.7887 29.8409 32.2782 29.5934 31.7317 29.5659C31.1868 29.5367 30.6523 29.7292 30.2501 30.0987V28.875H37.4687L38.2284 29.8891C37.9002 29.6759 37.5169 29.5625 37.125 29.5625L37.1251 29.5625ZM30.9379 31.625C30.9379 31.3465 31.1046 31.0956 31.3624 30.9891C31.6185 30.8842 31.9141 30.9426 32.1117 31.1386C32.3077 31.3362 32.3661 31.6319 32.2613 31.8879C32.1547 32.1458 31.9038 32.3125 31.6253 32.3125C31.2455 32.3125 30.9378 32.0048 30.9378 31.625L30.9379 31.625ZM33.6879 31.625H35.0629C35.0646 31.8605 35.1075 32.0925 35.19 32.3125H33.5607C33.6432 32.0925 33.6861 31.8605 33.6879 31.625H33.6879ZM33.0004 27.5V19.9373H35.7504V27.5H33.0004ZM35.7504 18.5627H33.0004V17.1877H35.7504V18.5627ZM29.5631 31.6254C29.5648 31.8609 29.6078 32.0929 29.6903 32.3129H25.9984C26.0809 32.0929 26.1239 31.8609 26.1256 31.6254H26.8131C26.9953 31.6254 27.1706 31.5532 27.2995 31.4243C27.4284 31.2954 27.5006 31.1201 27.5006 30.9379V28.8754H28.8756V30.9379C28.8756 31.1201 28.9478 31.2954 29.0767 31.4243C29.2056 31.5532 29.3809 31.6254 29.5631 31.6254H29.5631ZM17.8758 31.6254C17.8758 31.347 18.0425 31.0961 18.3003 30.9895C18.5564 30.8846 18.852 30.9431 19.0497 31.139C19.2456 31.3367 19.3041 31.6323 19.1992 31.8884C19.0927 32.1462 18.8417 32.3129 18.5633 32.3129C18.1834 32.3129 17.8758 32.0053 17.8758 31.6254L17.8758 31.6254ZM20.6258 31.6254H22.0008C22.0025 31.8609 22.0455 32.0929 22.128 32.3129H20.4986C20.5811 32.0929 20.6241 31.8609 20.6258 31.6254H20.6258ZM23.3758 31.6254C23.3758 31.347 23.5425 31.0961 23.8003 30.9895C24.0564 30.8846 24.352 30.9431 24.5497 31.139C24.7456 31.3367 24.8041 31.6323 24.6992 31.8884C24.5927 32.1462 24.3417 32.3129 24.0633 32.3129C23.6834 32.3129 23.3758 32.0053 23.3758 31.6254L23.3758 31.6254ZM26.1258 30.2504H25.5895C25.2028 29.8139 24.6477 29.5629 24.0632 29.5629C23.4788 29.5629 22.9237 29.8139 22.537 30.2504H20.0895C19.7028 29.8139 19.1476 29.5629 18.5632 29.5629C17.9788 29.5629 17.4237 29.8139 17.0369 30.2504H16.5007V28.8754H26.1257L26.1258 30.2504ZM10.3131 32.3129C10.0346 32.3129 9.78371 32.1462 9.67714 31.8884C9.5723 31.6323 9.63073 31.3367 9.82667 31.139C10.0243 30.9431 10.32 30.8847 10.576 30.9895C10.8338 31.0961 11.0006 31.347 11.0006 31.6254C11.0006 31.8076 10.9284 31.9829 10.7995 32.1119C10.6706 32.2408 10.4952 32.3129 10.313 32.3129L10.3131 32.3129ZM36.4381 31.6254C36.4381 31.347 36.6048 31.0961 36.8626 30.9895C37.1187 30.8846 37.4143 30.9431 37.612 31.139C37.8079 31.3367 37.8663 31.6323 37.7615 31.8884C37.6549 32.1462 37.404 32.3129 37.1256 32.3129C36.7457 32.3129 36.4381 32.0053 36.4381 31.6254L36.4381 31.6254ZM41.2508 30.2504H40.2195L38.3632 27.7754C38.2326 27.6018 38.0298 27.5004 37.8132 27.5004H37.1257V22.6877H40.1387L41.2507 24.9118L41.2508 30.2504ZM30.2508 14.4377H37.8135C37.9957 14.4377 38.171 14.5099 38.2999 14.6388C38.4288 14.7677 38.501 14.943 38.501 15.1252V15.8127H30.251L30.2508 14.4377ZM16.5008 15.8127H26.1258V27.5H16.5008V15.8127ZM2.75079 12.3752H12.3758V19.2502H2.75079V12.3752ZM2.75079 30.2502V28.8752H12.3758V30.2502H11.8395C11.4528 29.8136 10.8977 29.5627 10.3132 29.5627C9.72884 29.5627 9.17374 29.8136 8.78698 30.2502H6.33948C5.95276 29.8136 5.39761 29.5627 4.8132 29.5627C4.2288 29.5627 3.67369 29.8136 3.28693 30.2502H2.75079ZM4.12579 31.6252C4.12579 31.3468 4.29251 31.0958 4.55032 30.9893C4.80642 30.8844 5.10204 30.9429 5.29969 31.1388C5.49562 31.3365 5.55406 31.6321 5.44922 31.8882C5.34265 32.146 5.09172 32.3127 4.81328 32.3127C4.43344 32.3127 4.12578 32.005 4.12578 31.6252L4.12579 31.6252Z" fill="white"/>
<path d="M24.0625 18.5627C23.6827 18.5627 23.375 18.8704 23.375 19.2502V24.0629C23.375 24.4428 23.6827 24.7504 24.0625 24.7504C24.4423 24.7504 24.75 24.4428 24.75 24.0629V19.2502C24.75 19.068 24.6778 18.8927 24.5489 18.7638C24.42 18.6349 24.2447 18.5627 24.0625 18.5627L24.0625 18.5627Z" fill="white"/>
<path d="M21.3125 18.5627C20.9327 18.5627 20.625 18.8704 20.625 19.2502V24.0629C20.625 24.4428 20.9327 24.7504 21.3125 24.7504C21.6923 24.7504 22 24.4428 22 24.0629V19.2502C22 19.068 21.9278 18.8927 21.7989 18.7638C21.67 18.6349 21.4947 18.5627 21.3125 18.5627L21.3125 18.5627Z" fill="white"/>
<path d="M18.5625 18.5627C18.1827 18.5627 17.875 18.8704 17.875 19.2502V24.0629C17.875 24.4428 18.1827 24.7504 18.5625 24.7504C18.9423 24.7504 19.25 24.4428 19.25 24.0629V19.2502C19.25 19.068 19.1778 18.8927 19.0489 18.7638C18.92 18.6349 18.7447 18.5627 18.5625 18.5627L18.5625 18.5627Z" fill="white"/>
<path d="M10.3125 22C9.93266 22 9.625 22.3076 9.625 22.6875V25.4375C9.625 25.8173 9.93266 26.125 10.3125 26.125C10.6923 26.125 11 25.8173 11 25.4375V22.6875C11 22.5053 10.9278 22.33 10.7989 22.201C10.67 22.0721 10.4947 21.9999 10.3125 21.9999L10.3125 22Z" fill="white"/>
<path d="M7.5625 22C7.18266 22 6.875 22.3076 6.875 22.6875V25.4375C6.875 25.8173 7.18266 26.125 7.5625 26.125C7.94234 26.125 8.25 25.8173 8.25 25.4375V22.6875C8.25 22.5053 8.17781 22.33 8.04891 22.201C7.92 22.0721 7.74469 21.9999 7.56249 21.9999L7.5625 22Z" fill="white"/>
<path d="M4.8125 22C4.43266 22 4.125 22.3076 4.125 22.6875V25.4375C4.125 25.8173 4.43266 26.125 4.8125 26.125C5.19234 26.125 5.5 25.8173 5.5 25.4375V22.6875C5.5 22.5053 5.42781 22.33 5.29891 22.201C5.17 22.0721 4.99469 21.9999 4.81249 21.9999L4.8125 22Z" fill="white"/>
<path d="M10.3125 13.75C9.93266 13.75 9.625 14.0576 9.625 14.4375V17.1875C9.625 17.5673 9.93266 17.875 10.3125 17.875C10.6923 17.875 11 17.5673 11 17.1875V14.4375C11 14.2553 10.9278 14.08 10.7989 13.951C10.67 13.8221 10.4947 13.7499 10.3125 13.7499L10.3125 13.75Z" fill="white"/>
<path d="M7.5625 13.75C7.18266 13.75 6.875 14.0576 6.875 14.4375V17.1875C6.875 17.5673 7.18266 17.875 7.5625 17.875C7.94234 17.875 8.25 17.5673 8.25 17.1875V14.4375C8.25 14.2553 8.17781 14.08 8.04891 13.951C7.92 13.8221 7.74469 13.7499 7.56249 13.7499L7.5625 13.75Z" fill="white"/>
<path d="M4.8125 13.75C4.43266 13.75 4.125 14.0576 4.125 14.4375V17.1875C4.125 17.5673 4.43266 17.875 4.8125 17.875C5.19234 17.875 5.5 17.5673 5.5 17.1875V14.4375C5.5 14.2553 5.42781 14.08 5.29891 13.951C5.17 13.8221 4.99469 13.7499 4.81249 13.7499L4.8125 13.75Z" fill="white"/>
<path d="M38.5 25.4373H39.875V26.8123H38.5V25.4373Z" fill="white"/>
</svg>
