<?xml version="1.0" encoding="UTF-8"?>
<svg width="60" height="60" viewBox="0 0 60 60" fill="none" xmlns="http://www.w3.org/2000/svg">
<path d="M0 45C0 20.1472 20.1472 0 45 0V0C53.2843 0 60 6.71573 60 15V30C60 46.5685 46.5685 60 30 60H15C6.71573 60 0 53.2843 0 45V45Z" fill="#C0D0FF"/>
<path d="M22.2842 38.7588C20.3952 38.7588 18.8467 40.2299 18.8467 42.0244C18.8467 43.8189 20.3952 45.29 22.2842 45.29C24.1731 45.29 25.7217 43.8189 25.7217 42.0244C25.7217 40.2299 24.1731 38.7588 22.2842 38.7588V38.7588ZM22.2842 40.3928C23.244 40.3928 24.0042 41.115 24.0042 42.0268C24.0042 42.9387 23.244 43.6609 22.2842 43.6609C21.3244 43.6609 20.5642 42.9387 20.5642 42.0268C20.5642 41.115 21.3244 40.3928 22.2842 40.3928Z" fill="#0F2851"/>
<path d="M36.5498 38.7588C34.5664 38.7588 32.9404 40.2299 32.9404 42.0244C32.9404 43.8189 34.5664 45.29 36.5498 45.29C38.5332 45.29 40.1592 43.8189 40.1592 42.0244C40.1592 40.2299 38.5332 38.7588 36.5498 38.7588V38.7588ZM36.5498 40.3928C37.5576 40.3928 38.3558 41.115 38.3558 42.0268C38.3558 42.9387 37.5576 43.6609 36.5498 43.6609C35.542 43.6609 34.7438 42.9387 34.7438 42.0268C34.7438 41.115 35.542 40.3928 36.5498 40.3928Z" fill="#0F2851"/>
<path d="M44.2842 38.7588C42.3952 38.7588 40.8467 40.2299 40.8467 42.0244C40.8467 43.8189 42.3952 45.29 44.2842 45.29C46.1731 45.29 47.7217 43.8189 47.7217 42.0244C47.7217 40.2299 46.1731 38.7588 44.2842 38.7588V38.7588ZM44.2842 40.3928C45.244 40.3928 46.0042 41.115 46.0042 42.0268C46.0042 42.9387 45.244 43.6609 44.2842 43.6609C43.3244 43.6609 42.5642 42.9387 42.5642 42.0268C42.5642 41.115 43.3244 40.3928 44.2842 40.3928Z" fill="#0F2851"/>
<path fill-rule="evenodd" clip-rule="evenodd" d="M27.5503 39.4463C27.3399 39.4438 27.1364 39.5333 26.9868 39.6944C26.8371 39.8555 26.7529 40.0755 26.7529 40.3057C26.7529 40.5358 26.8371 40.7558 26.9868 40.9169C27.1364 41.0806 27.3399 41.1675 27.5503 41.165H31.4555C31.666 41.1675 31.8671 41.0806 32.0167 40.9169C32.1664 40.7558 32.2529 40.5358 32.2529 40.3057C32.2529 40.0755 32.1664 39.8555 32.0167 39.6944C31.8671 39.5333 31.666 39.4438 31.4555 39.4463H27.5503Z" fill="#0F2851"/>
<path fill-rule="evenodd" clip-rule="evenodd" d="M15.6022 36.0889C15.136 36.0889 14.76 36.4649 14.76 36.9311V40.2975C14.76 40.7638 15.136 41.1398 15.6022 41.1398H17.2867C17.5123 41.1423 17.7279 41.0571 17.8883 40.8966C18.0487 40.7387 18.139 40.5231 18.139 40.2975C18.139 40.0719 18.0487 39.8564 17.8883 39.6985C17.7279 39.5405 17.5123 39.4528 17.2867 39.4553H16.4445V37.7708H53.4881V39.4553H49.2794C49.0538 39.4528 48.8357 39.5405 48.6753 39.6985C48.5149 39.8564 48.4246 40.0719 48.4246 40.2975C48.4246 40.5231 48.5149 40.7387 48.6753 40.8966C48.8357 41.0571 49.0538 41.1423 49.2794 41.1398H54.3303C54.7965 41.1398 55.1725 40.7638 55.1725 40.2975V36.9311C55.1725 36.4649 54.7965 36.0889 54.3303 36.0889H15.6022Z" fill="#0F2851"/>
<path fill-rule="evenodd" clip-rule="evenodd" d="M15.6023 23.46C15.1361 23.46 14.7601 23.836 14.7601 24.3022V36.9206V36.9181C14.7576 37.1437 14.8453 37.3618 15.0032 37.5222C15.1611 37.6827 15.3767 37.7729 15.6023 37.7729C15.8279 37.7729 16.0435 37.6827 16.2014 37.5222C16.3593 37.3618 16.447 37.1437 16.4445 36.9181V25.1416H27.3888V36.9181C27.3863 37.1437 27.474 37.3618 27.6319 37.5222C27.7898 37.6827 28.0054 37.7729 28.231 37.7729C28.4566 37.7729 28.6722 37.6827 28.8301 37.5222C28.988 37.3618 29.0758 37.1437 29.0732 36.9181V24.2997V24.3022C29.0732 23.836 28.6947 23.46 28.231 23.46L15.6023 23.46Z" fill="#0F2851"/>
<path fill-rule="evenodd" clip-rule="evenodd" d="M24.8612 15.04C24.5253 15.04 24.2195 15.2406 24.0866 15.5514L21.5599 21.442H21.5624C21.4521 21.7027 21.4772 22.001 21.6351 22.2367C21.7906 22.4723 22.0537 22.6127 22.337 22.6127H29.9149V36.9181C29.9099 37.1437 29.9976 37.3618 30.1555 37.5222C30.316 37.6827 30.5315 37.7729 30.7571 37.7729C30.9802 37.7729 31.1983 37.6827 31.3562 37.5222C31.5141 37.3618 31.6019 37.1437 31.5969 36.9181V21.7727C31.5969 21.3064 31.2209 20.9304 30.7571 20.9304H23.6156L25.4204 16.7243H53.4898V36.918H53.4873C53.4848 37.1436 53.5725 37.3617 53.7304 37.5221C53.8883 37.6825 54.1039 37.7728 54.3295 37.7728C54.5551 37.7728 54.7707 37.6825 54.9286 37.5221C55.0865 37.3617 55.1743 37.1436 55.1717 36.918V15.8824C55.1717 15.4161 54.7957 15.0401 54.3295 15.0401L24.8612 15.04Z" fill="#0F2851"/>
<path d="M15.6022 26.8262C15.136 26.8262 14.76 27.2047 14.76 27.6684V33.5616C14.76 34.0278 15.136 34.4038 15.6022 34.4038H22.3376C22.8013 34.4038 23.1798 34.0278 23.1798 33.5616V27.6684C23.1798 27.2047 22.8013 26.8262 22.3376 26.8262H15.6022ZM16.4445 28.5106H21.4954V32.7193H16.4445V28.5106Z" fill="#0F2851"/>
</svg>
