<?xml version="1.0" encoding="UTF-8"?>
<svg width="44" height="44" viewBox="0 0 44 44" fill="none" xmlns="http://www.w3.org/2000/svg">
<path d="M13.6071 12.3032H9.78118C9.42196 12.3032 9.12976 12.5954 9.12976 12.9546V16.7806C9.12976 17.1398 9.42194 17.432 9.78118 17.432H13.6071C13.9663 17.432 14.2585 17.1398 14.2585 16.7806V12.9546C14.2585 12.5954 13.9663 12.3032 13.6071 12.3032V12.3032ZM12.9557 16.1291H10.4326V13.606H12.9557V16.1291ZM17.1873 12.9546C17.1873 12.5954 17.4794 12.3032 17.8387 12.3032H27.5636C27.9228 12.3032 28.215 12.5954 28.215 12.9546C28.215 13.3138 27.9228 13.606 27.5636 13.606H17.8387C17.4795 13.606 17.1873 13.3139 17.1873 12.9546V12.9546ZM17.1873 16.7806C17.1873 16.4213 17.4794 16.1291 17.8387 16.1291H27.5636C27.9228 16.1291 28.215 16.4213 28.215 16.7806C28.215 17.1398 27.9228 17.432 27.5636 17.432L17.8387 17.4303C17.4795 17.4303 17.1873 17.1398 17.1873 16.7806V16.7806ZM13.6071 21.0121H9.78118C9.42196 21.0121 9.12976 21.3043 9.12976 21.6635V25.4895C9.12976 25.8487 9.42194 26.1409 9.78118 26.1409H13.6071C13.9663 26.1409 14.2585 25.8487 14.2585 25.4895V21.6635C14.2585 21.3026 13.9663 21.0121 13.6071 21.0121V21.0121ZM12.9557 24.8363H10.4326V22.3132H12.9557V24.8363ZM17.1873 21.6635C17.1873 21.3043 17.4794 21.0121 17.8387 21.0121H27.5636C27.9228 21.0121 28.215 21.3043 28.215 21.6635C28.215 22.0228 27.9228 22.315 27.5636 22.315L17.8387 22.3132C17.4795 22.3132 17.1873 22.0228 17.1873 21.6635V21.6635ZM17.1873 25.4878C17.1873 25.1285 17.4794 24.8363 17.8387 24.8363H27.5636C27.9228 24.8363 28.215 25.1285 28.215 25.4878C28.215 25.847 27.9228 26.1392 27.5636 26.1392H17.8387C17.4795 26.1392 17.1873 25.847 17.1873 25.4878V25.4878ZM13.6071 29.7193H9.78118C9.42196 29.7193 9.12976 30.0115 9.12976 30.3707V34.1967C9.12976 34.5559 9.42194 34.8481 9.78118 34.8481H13.6071C13.9663 34.8481 14.2585 34.5559 14.2585 34.1967V30.3707C14.2585 30.0115 13.9663 29.7193 13.6071 29.7193ZM12.9557 33.5453H10.4326V31.0221H12.9557V33.5453ZM24.1497 30.3707C24.1497 30.73 23.8575 31.0222 23.4983 31.0222H17.8386C17.4794 31.0222 17.1872 30.73 17.1872 30.3707C17.1872 30.0115 17.4794 29.7193 17.8386 29.7193H23.4983C23.8592 29.7193 24.1497 30.0115 24.1497 30.3707ZM24.1497 34.1967C24.1497 34.5559 23.8575 34.8481 23.4983 34.8481H17.8386C17.4794 34.8481 17.1872 34.5559 17.1872 34.1967C17.1872 33.8375 17.4794 33.5453 17.8386 33.5453H23.4983C23.8592 33.5453 24.1497 33.8357 24.1497 34.1967ZM36.743 32.6945C36.9991 32.9471 37.0008 33.3596 36.7481 33.6157L32.312 38.0949C32.19 38.2187 32.025 38.2874 31.8514 38.2874H31.8497C31.6761 38.2874 31.5111 38.2187 31.3891 38.0967L28.9226 35.6302C28.6683 35.3759 28.6683 34.9634 28.9226 34.709C29.177 34.4546 29.5895 34.4546 29.8439 34.709L31.848 36.713L35.8217 32.6998C36.0744 32.4437 36.4869 32.4419 36.743 32.6946L36.743 32.6945ZM33.4842 28.1207V7.54188C33.4842 6.28546 32.4616 5.26282 31.2052 5.26282H25.5899V3.79845C25.5899 3.43923 25.2977 3.14703 24.9385 3.14703H21.8344C21.3153 1.8786 20.0796 1.03125 18.6719 1.03125C17.2643 1.03125 16.0285 1.8786 15.5094 3.14703H12.4053C12.0461 3.14703 11.7539 3.43922 11.7539 3.79845V5.26282H6.1404C4.88398 5.26282 3.86133 6.28546 3.86133 7.54188V37.4909C3.86133 38.7473 4.88398 39.77 6.1404 39.77H26.9889C28.3226 41.5472 30.4471 42.7005 32.8343 42.7005C36.8613 42.7005 40.1392 39.4245 40.1392 35.3956C40.1375 31.5869 37.2087 28.452 33.4842 28.1202L33.4842 28.1207ZM13.0568 4.45H15.9821C16.2829 4.45 16.5441 4.24375 16.6146 3.95157C16.8449 2.99937 17.6905 2.33422 18.6719 2.33422C19.6534 2.33422 20.499 2.99937 20.7293 3.95157C20.7998 4.24376 21.061 4.45 21.3618 4.45H24.2871V7.38049L13.057 7.37877L13.0568 4.45ZM6.14044 38.4673C5.60245 38.4673 5.16417 38.029 5.16417 37.491L5.16245 7.54197C5.16245 7.00398 5.60073 6.5657 6.13872 6.5657H11.754V8.03006C11.754 8.38928 12.0462 8.68148 12.4054 8.68148H24.9384C25.2976 8.68148 25.5898 8.3893 25.5898 8.03006V6.5657H31.2051C31.7431 6.5657 32.1814 7.00398 32.1814 7.54197V28.1208C28.4586 28.4508 25.5281 31.5875 25.5281 35.3962C25.5281 36.4927 25.7722 37.5343 26.207 38.4676L6.14044 38.4673ZM32.8326 41.3978C29.5223 41.3978 26.8306 38.7045 26.8306 35.3957C26.8306 32.0854 29.5238 29.3937 32.8326 29.3937C36.1429 29.3937 38.8346 32.087 38.8346 35.3957C38.8364 38.706 36.1431 41.3978 32.8326 41.3978Z" fill="white"/>
</svg>
