<?xml version="1.0" encoding="UTF-8"?>
<svg width="44" height="44" viewBox="0 0 44 44" fill="none" xmlns="http://www.w3.org/2000/svg">
<g clip-path="url(#clip0_141_533)">
<path d="M43.6562 31.0511L36.9209 27.1624C36.8164 27.1021 36.6978 27.0703 36.5771 27.0703C36.4565 27.0703 36.3379 27.1021 36.2334 27.1624L29.498 31.0511C29.3934 31.1114 29.3067 31.1982 29.2463 31.3027C29.186 31.4072 29.1542 31.5258 29.1542 31.6465V34.8476H14.1904C12.5779 34.8476 11.0314 34.2071 9.89117 33.0668C8.75093 31.9266 8.11035 30.3801 8.11035 28.7676C8.11035 27.155 8.75093 25.6085 9.89117 24.4683C11.0314 23.3281 12.5779 22.6875 14.1904 22.6875H29.8096C31.7868 22.6875 33.683 21.902 35.0811 20.5039C36.4792 19.1058 37.2646 17.2096 37.2646 15.2324C37.2646 13.2552 36.4792 11.359 35.0811 9.96087C33.683 8.56277 31.7868 7.77733 29.8096 7.77733H14.8458V4.57615C14.8458 4.45548 14.814 4.33692 14.7537 4.23241C14.6933 4.1279 14.6066 4.04112 14.502 3.98078L7.76669 0.0921075C7.66217 0.0317668 7.54362 0 7.42294 0C7.30226 0 7.1837 0.0317668 7.07919 0.0921075L0.34375 3.98078C0.239239 4.04112 0.152452 4.1279 0.0921119 4.23241C0.0317713 4.33692 3.06571e-06 4.45548 0 4.57615L0 12.3535C3.06571e-06 12.4742 0.0317713 12.5927 0.0921119 12.6972C0.152452 12.8017 0.239239 12.8885 0.34375 12.9489L7.07919 16.8375C7.1837 16.8979 7.30226 16.9297 7.42294 16.9297C7.54362 16.9297 7.66217 16.8979 7.76669 16.8375L14.502 12.9489C14.6066 12.8885 14.6933 12.8017 14.7537 12.6972C14.814 12.5927 14.8458 12.4742 14.8458 12.3535V9.15233H29.8096C31.4221 9.15233 32.9686 9.7929 34.1088 10.9331C35.2491 12.0734 35.8896 13.6199 35.8896 15.2324C35.8896 16.8449 35.2491 18.3914 34.1088 19.5317C32.9686 20.6719 31.4221 21.3125 29.8096 21.3125H14.1904C12.2132 21.3125 10.317 22.0979 8.91889 23.496C7.5208 24.8941 6.73535 26.7904 6.73535 28.7676C6.73535 30.7448 7.5208 32.641 8.91889 34.0391C10.317 35.4372 12.2132 36.2226 14.1904 36.2226H29.1542V39.4238C29.1542 39.5445 29.186 39.663 29.2463 39.7675C29.3067 39.8721 29.3934 39.9588 29.498 40.0192L36.2334 43.9079C36.3379 43.9682 36.4565 44 36.5771 44C36.6978 44 36.8164 43.9682 36.9209 43.9079L43.6562 40.0192C43.7608 39.9588 43.8475 39.8721 43.9079 39.7675C43.9682 39.663 44 39.5445 44 39.4238V31.6465C44 31.5258 43.9682 31.4072 43.9079 31.3027C43.8475 31.1982 43.7608 31.1114 43.6562 31.0511ZM7.42294 1.48129L12.7833 4.57615L7.42294 7.67102L2.0625 4.57615L7.42294 1.48129ZM1.375 5.7669L6.73544 8.86177V15.0514L1.375 11.9566V5.7669ZM13.4708 11.9566L8.11044 15.0514V8.86169L13.4708 5.7669V11.9566ZM36.5771 28.5516L41.9375 31.6465L36.5771 34.7413L31.2167 31.6465L36.5771 28.5516ZM30.5292 32.8372L35.8896 35.9321V42.1217L30.5292 39.0269V32.8372ZM37.2646 42.1217V35.932L42.625 32.8372V39.0269L37.2646 42.1217Z" fill="white"/>
</g>
<defs>
<clipPath id="clip0_141_533">
<rect width="44" height="44" fill="white"/>
</clipPath>
</defs>
</svg>
