<?xml version="1.0" encoding="UTF-8"?>
<svg width="44" height="44" viewBox="0 0 44 44" fill="none" xmlns="http://www.w3.org/2000/svg">
<path d="M40.49 29.02L34.99 26.27C34.6033 26.0767 34.1467 26.0767 33.76 26.27L28.26 29.02C27.7941 29.253 27.5 29.729 27.5 30.25V37.125C27.5 37.646 27.7941 38.122 28.26 38.355L33.76 41.105C33.9534 41.2017 34.1642 41.25 34.375 41.25C34.5858 41.25 34.7966 41.2017 34.99 41.105L40.49 38.355C40.9559 38.122 41.25 37.646 41.25 37.125V30.25C41.25 29.729 40.9559 29.253 40.49 29.02ZM34.375 29.0375L36.8 30.25L34.375 31.4625L31.95 30.25L34.375 29.0375ZM30.25 32.475L33 33.85V37.65L30.25 36.275V32.475ZM35.75 37.65V33.85L38.5 32.475V36.275L35.75 37.65Z" fill="white"/>
<path d="M15.74 29.02L10.24 26.27C9.85327 26.0767 9.39673 26.0767 9.01001 26.27L3.51001 29.02C3.04407 29.253 2.75 29.729 2.75 30.25V37.125C2.75 37.646 3.04407 38.122 3.51001 38.355L9.01001 41.105C9.20337 41.2017 9.41418 41.25 9.625 41.25C9.83582 41.25 10.0466 41.2017 10.24 41.105L15.74 38.355C16.2059 38.122 16.5 37.646 16.5 37.125V30.25C16.5 29.729 16.2059 29.253 15.74 29.02ZM9.625 29.0375L12.05 30.25L9.625 31.4625L7.19995 30.25L9.625 29.0375ZM5.5 32.475L8.25 33.85V37.65L5.5 36.275V32.475ZM11 37.65V33.85L13.75 32.475V36.275L11 37.65Z" fill="white"/>
<path d="M14.6147 16.4016L21.4897 19.1516C21.6536 19.2168 21.8268 19.2497 22 19.2497C22.1732 19.2497 22.3464 19.2168 22.5103 19.1516L29.3853 16.4016C29.9076 16.1922 30.25 15.6866 30.25 15.1247V6.87466C30.25 6.31271 29.9076 5.80716 29.3853 5.59769L22.5103 2.84769C22.1826 2.71744 21.8174 2.71744 21.4897 2.84769L14.6147 5.59769C14.0924 5.80716 13.75 6.31271 13.75 6.87466V15.1247C13.75 15.6866 14.0924 16.1922 14.6147 16.4016ZM16.5 8.90578L20.625 10.5557V15.8436L16.5 14.1935V8.90578ZM23.375 15.8436V10.5557L27.5 8.90578V14.1935L23.375 15.8436ZM22 5.60574L25.173 6.87466L22 8.14359L18.827 6.87466L22 5.60574Z" fill="white"/>
<path d="M23.7778 25.7222C24.0464 25.9907 24.3982 26.125 24.75 26.125C25.1018 26.125 25.4536 25.9907 25.7222 25.7222C26.2593 25.1851 26.2593 24.3149 25.7222 23.7778L22.9722 21.0278C22.4351 20.4907 21.5649 20.4907 21.0278 21.0278L18.2778 23.7778C17.7407 24.3149 17.7407 25.1851 18.2778 25.7222C18.8149 26.2593 19.6851 26.2593 20.2222 25.7222L20.625 25.3193V31.625C20.625 32.383 20.0087 33 19.25 33C18.49 33 17.875 33.6157 17.875 34.375C17.875 35.1343 18.49 35.75 19.25 35.75C20.3103 35.75 21.2685 35.3368 22 34.6771C22.7315 35.3368 23.6897 35.75 24.75 35.75C25.51 35.75 26.125 35.1343 26.125 34.375C26.125 33.6157 25.51 33 24.75 33C23.9913 33 23.375 32.383 23.375 31.625V25.3193L23.7778 25.7222Z" fill="white"/>
</svg>
