<?xml version="1.0" encoding="UTF-8"?>
<svg width="100" height="100" viewBox="0 0 100 100" fill="none" xmlns="http://www.w3.org/2000/svg">
<path d="M35.8579 14.1421C43.6684 6.33165 56.3316 6.33165 64.1421 14.1421L85.8579 35.8579C93.6684 43.6684 93.6684 56.3316 85.8579 64.1421L64.1421 85.8579C56.3316 93.6684 43.6684 93.6684 35.8579 85.8579L14.1421 64.1421C6.33165 56.3316 6.33165 43.6684 14.1421 35.8579L35.8579 14.1421Z" fill="#0C73E3"/>
<path d="M36.2727 59.1484C38.8686 62.2355 41.9264 64.681 45.5024 66.4281C46.8296 67.0696 48.6751 67.8248 50.6941 68H51.0974C52.481 68 53.6347 67.4768 54.5586 66.4849L54.6171 66.4258C54.9056 66.0754 55.2526 65.7274 55.6559 65.377C55.8858 65.145 56.1742 64.8538 56.4063 64.6195C57.6186 63.3387 57.6186 61.5916 56.4063 60.3677L53.175 57.1055C52.5982 56.464 51.8478 56.1159 51.0974 56.1159C50.347 56.1159 49.5967 56.4663 49.0198 57.0487L47.1743 58.9163C47.0594 58.8572 46.9445 58.8003 46.8273 58.7412C46.5975 58.6251 46.424 58.566 46.2505 58.45C44.5199 57.3444 42.9629 55.8885 41.4621 54.023C40.7704 53.1495 40.2498 52.3351 39.9614 51.6344C40.4233 51.2272 40.8267 50.7608 41.23 50.3536C41.4035 50.1784 41.577 50.0033 41.7483 49.8304C42.3837 49.1888 42.7285 48.4336 42.7285 47.6761C42.7285 46.9185 42.3815 46.161 41.7483 45.5218L40.1326 43.8907C39.9591 43.7155 39.7856 43.5403 39.6144 43.3083C39.2673 42.958 38.864 42.5508 38.5193 42.2027C37.9424 41.6204 37.192 41.27 36.4417 41.27C35.6913 41.27 34.9995 41.5612 34.3641 42.2027L32.3451 44.241C31.5947 44.9986 31.1328 45.9881 31.0179 47.0937C30.9029 48.8408 31.3649 50.4719 31.7682 51.5207C32.6944 54.1982 34.1365 56.5868 36.2726 59.1486L36.2727 59.1484ZM32.868 47.2692C32.9266 46.6277 33.1564 46.0453 33.6747 45.5813L35.635 43.6022C35.8085 43.427 36.097 43.1949 36.4417 43.1949C36.7887 43.1949 37.0186 43.3701 37.2484 43.6022C37.5954 43.9525 37.9401 44.3005 38.2872 44.6509C38.4607 44.8261 38.6342 45.0581 38.864 45.2333L40.4797 46.8644C40.6532 47.0395 40.883 47.3876 40.883 47.6788C40.883 48.0291 40.6532 48.3203 40.4797 48.4931C40.3062 48.6683 40.1327 48.8435 39.9614 49.0164L38.5193 50.4723L38.4607 50.5314C37.8838 51.1138 37.9988 51.637 38.1137 51.9874V52.0465C38.517 53.0952 39.1525 54.0256 40.0178 55.1904C41.6334 57.2287 43.364 58.8006 45.2681 60.0245C45.4979 60.1997 45.7863 60.3157 46.0184 60.4317C46.2483 60.5477 46.4218 60.6069 46.5953 60.7229L46.6539 60.7821C47.2307 61.0732 47.8076 60.9572 48.2695 60.4909L50.2885 58.4526C50.462 58.2774 50.7504 58.0454 51.0952 58.0454C51.3836 58.0454 51.672 58.2774 51.8455 58.4526L55.0768 61.7148C55.5951 62.238 55.5951 62.8204 55.0768 63.4027C54.847 63.6348 54.6149 63.8691 54.3851 64.1011C53.9817 64.4514 53.6347 64.8587 53.2314 65.2659C52.6545 65.8482 52.0191 66.1394 51.1538 66.1394H50.8654C49.1348 66.0234 47.5191 65.325 46.3654 64.7426C43.0778 63.1115 40.1937 60.8412 37.7715 57.9295C35.8111 55.5408 34.4839 53.2705 33.56 50.8816C32.9831 49.4826 32.7533 48.3747 32.8682 47.2691L32.868 47.2692ZM67.9995 43.3086C67.9995 49.0163 62.8078 53.7319 56.4036 53.7319C55.3648 53.7319 54.326 53.6159 53.2895 53.3816C52.7713 53.2656 52.4829 52.74 52.5978 52.276C52.7127 51.7528 53.2332 51.4616 53.6929 51.5776C54.5581 51.8097 55.482 51.928 56.3473 51.928C61.7125 51.928 66.095 48.0834 66.095 43.4242C66.095 38.706 61.71 34.9204 56.3473 34.9204C50.9821 34.9204 46.5996 38.765 46.5996 43.4242C46.5996 45.4033 47.35 47.2096 48.7335 48.7247C48.9634 48.9567 49.022 49.3662 48.907 49.6574C48.6772 50.2398 48.4451 50.763 48.1004 51.1725C48.7358 51.1134 49.4276 50.9405 50.1194 50.531C50.5813 50.2398 51.0995 50.4149 51.388 50.8222C51.6764 51.2885 51.5029 51.8117 51.0995 52.1029C49.3104 53.2085 47.4086 53.0925 46.4261 52.9765C45.9078 52.9173 45.5022 52.5101 45.3873 52.0437C45.2724 51.5205 45.5022 51.0542 45.9056 50.763C46.3675 50.4718 46.7709 50.0054 47.0007 49.4822C45.5585 47.7351 44.8082 45.5808 44.8082 43.3673C44.8082 37.6596 49.9999 33.0006 56.4041 33.0006C62.7495 32.9414 68 37.6004 68 43.3079L67.9995 43.3086ZM56.3453 44.2982C55.8271 44.2982 55.3652 43.8319 55.3652 43.3086C55.3652 42.7854 55.8271 42.3191 56.3453 42.3191C56.8636 42.3191 57.3255 42.7854 57.3255 43.3086C57.3278 43.891 56.9222 44.2982 56.3453 44.2982ZM59.8651 44.2982C59.3468 44.2982 58.8849 43.8319 58.8849 43.3086C58.8849 42.7854 59.3468 42.3191 59.8651 42.3191C60.3833 42.3191 60.8453 42.7854 60.8453 43.3086C60.8453 43.891 60.3833 44.2982 59.8651 44.2982ZM52.884 44.2982C52.3657 44.2982 51.9038 43.8319 51.9038 43.3086C51.9038 42.7854 52.3657 42.3191 52.884 42.3191C53.4023 42.3191 53.8642 42.7854 53.8642 43.3086C53.8664 43.891 53.4045 44.2982 52.884 44.2982Z" fill="white"/>
</svg>
