<?xml version="1.0" encoding="UTF-8"?>
<svg width="44" height="44" viewBox="0 0 44 44" fill="none" xmlns="http://www.w3.org/2000/svg">
<g clip-path="url(#clip0_128_30)">
<path d="M34.3745 26.8125V15.8125C34.3745 15.4327 34.0669 15.125 33.687 15.125C33.3072 15.125 32.9995 15.4327 32.9995 15.8125V26.8125C32.9995 27.952 32.0766 28.875 30.937 28.875H13.062C11.9225 28.875 10.9995 27.952 10.9995 26.8125V26.125H15.8123C16.9518 26.125 17.8748 25.202 17.8748 24.0625C17.873 23.827 17.8301 23.595 17.7476 23.375H18.5623C19.2481 23.3767 19.8891 23.0381 20.2724 22.4692C20.6557 21.902 20.7313 21.1802 20.4735 20.546C21.3742 20.307 21.9998 19.4941 21.9998 18.5625C21.9998 17.631 21.3742 16.818 20.4735 16.5791C20.7313 15.9449 20.6557 15.223 20.2724 14.6558C19.8891 14.0869 19.2481 13.7483 18.5623 13.75H13.6224C13.7049 13.53 13.7479 13.298 13.7496 13.0625C13.7496 11.923 12.8266 11 11.6871 11H10.9996V7.56254C10.9996 6.42303 11.9226 5.50004 13.0621 5.50004H17.8748V10.9314C17.8645 11.5467 18.2495 12.1001 18.8304 12.3064C19.3787 12.4903 19.9837 12.2995 20.3257 11.832C20.3429 11.8097 20.3584 11.7873 20.3739 11.7633L21.9998 8.93765L23.6257 11.7564C23.6412 11.7804 23.6567 11.8028 23.6739 11.8251C24.0142 12.2943 24.6209 12.4868 25.1692 12.2995C25.7484 12.095 26.1317 11.545 26.1248 10.9314V5.5H30.9375C32.077 5.5 33 6.42299 33 7.5625V8.93749C33 9.31734 33.3077 9.62499 33.6875 9.62499C34.0674 9.62499 34.375 9.31734 34.375 8.93749V7.5625C34.3733 5.665 32.835 4.12672 30.9375 4.125H13.0625C11.165 4.12672 9.62672 5.665 9.625 7.5625V11H8.01452C7.10187 10.9983 6.22701 11.3609 5.58422 12.0072L4.0425 13.5489C3.91359 13.6778 3.73828 13.75 3.55437 13.75H0.6875C0.307657 13.75 0 14.0577 0 14.4375C0 14.8173 0.307657 15.125 0.6875 15.125H3.55437C4.10265 15.1267 4.62858 14.9084 5.01358 14.52L6.5553 12.9783V12.98C6.94374 12.5933 7.46795 12.3767 8.01452 12.375H11.6875C12.0673 12.375 12.375 12.6827 12.375 13.0625C12.375 13.4423 12.0673 13.75 11.6875 13.75H8.25C7.87016 13.75 7.5625 14.0577 7.5625 14.4375C7.5625 14.8173 7.87016 15.125 8.25 15.125H18.5627C18.9426 15.125 19.2502 15.4327 19.2502 15.8125C19.2502 16.1923 18.9426 16.5 18.5627 16.5H11C10.6202 16.5 10.3125 16.8077 10.3125 17.1875C10.3125 17.5673 10.6202 17.875 11 17.875H19.9373C20.3171 17.875 20.6248 18.1827 20.6248 18.5625C20.6248 18.9423 20.3171 19.25 19.9373 19.25H11C10.6202 19.25 10.3125 19.5577 10.3125 19.9375C10.3125 20.3173 10.6202 20.625 11 20.625H18.5627C18.9426 20.625 19.2502 20.9326 19.2502 21.3125C19.2502 21.6923 18.9426 22 18.5627 22H11C10.6202 22 10.3125 22.3076 10.3125 22.6875C10.3125 23.0673 10.6202 23.375 11 23.375H15.8127C16.1926 23.375 16.5002 23.6826 16.5002 24.0625C16.5002 24.4423 16.1926 24.75 15.8127 24.75H8.17476C7.42711 24.7483 6.68976 24.5747 6.02118 24.2413L4.72182 23.5916H4.72354C4.43651 23.4489 4.12025 23.375 3.80055 23.375H0.687899C0.308056 23.375 0.00039864 23.6827 0.00039864 24.0625C0.00039864 24.4423 0.308056 24.75 0.687899 24.75H3.80055C3.90711 24.7483 4.01196 24.7723 4.10821 24.8187L5.40757 25.4684C6.26693 25.8964 7.21399 26.1199 8.17477 26.1216H9.62541V26.8091C9.62713 28.7066 11.1654 30.2449 13.0629 30.2466H30.9379C32.8337 30.2449 34.372 28.7083 34.3754 26.8125L34.3745 26.8125ZM24.7495 10.9312V10.9518L22.5942 7.21867C22.4619 7.0193 22.2385 6.89898 21.9995 6.89898C21.7606 6.89898 21.5372 7.0193 21.4048 7.21867L19.2495 10.9535V5.49972H24.7495V10.9312Z" fill="white"/>
<path d="M33.6875 11C33.3077 11 33 11.3077 33 11.6875V13.0625C33 13.4424 33.3077 13.75 33.6875 13.75C34.0673 13.75 34.375 13.4424 34.375 13.0625V11.6875C34.375 11.5053 34.3028 11.33 34.1739 11.2011C34.045 11.0722 33.8697 11 33.6875 11L33.6875 11Z" fill="white"/>
<path d="M24.0625 24.75C23.6827 24.75 23.375 25.0577 23.375 25.4375C23.375 25.8173 23.6827 26.125 24.0625 26.125H25.4375C25.8173 26.125 26.125 25.8173 26.125 25.4375C26.125 25.0577 25.8173 24.75 25.4375 24.75H24.0625Z" fill="white"/>
<path d="M28.1875 24.75C27.8077 24.75 27.5 25.0577 27.5 25.4375C27.5 25.8173 27.8077 26.125 28.1875 26.125H29.5625C29.9423 26.125 30.25 25.8173 30.25 25.4375C30.25 25.0577 29.9423 24.75 29.5625 24.75H28.1875Z" fill="white"/>
<path d="M43.3125 38.5H40.5625C40.1827 38.5 39.875 38.8077 39.875 39.1875C39.875 39.5673 40.1827 39.875 40.5625 39.875H43.3125C43.6923 39.875 44 39.5673 44 39.1875C44 38.8077 43.6923 38.5 43.3125 38.5Z" fill="white"/>
<path d="M37.8125 38.5H36.4375C36.0577 38.5 35.75 38.8077 35.75 39.1875C35.75 39.5673 36.0577 39.875 36.4375 39.875H37.8125C38.1923 39.875 38.5 39.5673 38.5 39.1875C38.5 38.8077 38.1923 38.5 37.8125 38.5Z" fill="white"/>
<path d="M43.3125 31.6255H40.6742L36.6558 30.2866H36.6541C36.5303 30.2437 36.398 30.2385 36.2708 30.2712L31.9395 31.354C30.9461 31.6015 30.2483 32.4952 30.25 33.5196C30.25 33.5608 30.2604 33.5987 30.2621 33.6399L22.9695 33.1208V33.1191C21.8506 33.0383 20.8503 33.8169 20.6544 34.9221C20.4601 36.029 21.1339 37.1032 22.2133 37.4091L30.7453 39.8498C30.8089 39.8669 30.8725 39.8755 30.9378 39.8755H33.6878C34.0677 39.8755 34.3753 39.5679 34.3753 39.188C34.3753 38.8082 34.0677 38.5005 33.6878 38.5005H31.0341L22.5883 36.084C22.1878 35.9705 21.9386 35.57 22.0125 35.1593C22.0847 34.7485 22.4577 34.4597 22.8736 34.4907L30.8745 35.063C31.2939 35.5013 31.8748 35.7505 32.4816 35.7505H36.4381C36.818 35.7505 37.1256 35.4429 37.1256 35.063C37.1256 34.6832 36.818 34.3755 36.4381 34.3755H32.4816C32.0502 34.3738 31.6875 34.0507 31.6342 33.6227C31.5826 33.193 31.8576 32.7926 32.2753 32.6877L36.4106 31.6565L40.3465 32.9679V32.9662C40.417 32.9902 40.4892 33.0005 40.5631 33.0005H43.3131C43.6929 33.0005 44.0006 32.6929 44.0006 32.313C44.0006 31.9332 43.6929 31.6255 43.3131 31.6255L43.3125 31.6255Z" fill="white"/>
</g>
<defs>
<clipPath id="clip0_128_30">
<rect width="44" height="44" fill="white"/>
</clipPath>
</defs>
</svg>
