<?xml version="1.0" encoding="UTF-8"?>
<svg width="44" height="44" viewBox="0 0 44 44" fill="none" xmlns="http://www.w3.org/2000/svg">
<path d="M20.54 32.8968C19.0731 32.8968 17.6746 33.519 16.6958 34.6092C14.7522 36.7668 13.4109 39.4009 12.8145 42.2404H14.2871H14.2842C14.8607 39.7575 16.0565 37.4629 17.7631 35.5679C18.3196 34.9486 19.0702 34.5348 19.8922 34.3892L22.6348 37.3316L25.1034 34.7402L25.6942 36.1872L23.3454 42.2432L24.8894 42.2404L27.2439 36.1758L26.4934 34.335H28.5568L27.8062 36.1758L30.1607 42.2404H31.7018L29.3531 36.1843L29.941 34.7374L32.4125 37.3287L35.1551 34.3864L35.158 34.3892C35.977 34.5348 36.7276 34.9486 37.2842 35.5679C38.9908 37.463 40.1895 39.7575 40.7659 42.2404H42.2357C41.6364 39.4007 40.2979 36.7665 38.3544 34.6092C37.3726 33.519 35.9742 32.894 34.5073 32.894L20.54 32.8968ZM21.8072 34.3352H23.5081L22.649 35.2399L21.8072 34.3352ZM31.5446 34.3352H33.2427L32.4037 35.2399L31.5446 34.3352Z" fill="white"/>
<path d="M27.4725 12.0177C26.4451 12.049 25.6289 12.8909 25.6289 13.9184C25.6289 14.9658 26.4794 15.8163 27.5268 15.8163C28.577 15.8163 29.4275 14.9658 29.4275 13.9184C29.4275 13.4047 29.2192 12.9138 28.851 12.5542C28.4829 12.1975 27.9863 12.0034 27.4726 12.0177L27.4725 12.0177ZM27.5068 13.1678C27.7094 13.1621 27.9063 13.2391 28.049 13.379C28.1946 13.5217 28.2773 13.7157 28.2773 13.9184C28.2802 14.1181 28.2031 14.3122 28.0633 14.4549C27.9206 14.6004 27.7294 14.6803 27.5267 14.6803C27.327 14.6803 27.1357 14.6004 26.993 14.4549C26.8532 14.3122 26.7761 14.1181 26.779 13.9184C26.779 13.5131 27.1015 13.1792 27.5067 13.1678L27.5068 13.1678Z" fill="white"/>
<path d="M23.8355 10.034C22.6597 10.034 21.6409 10.8446 21.3726 11.989L20.1112 17.3601C20.0084 17.8024 20.1711 18.2648 20.5335 18.5388L21.0073 18.8984C19.4462 21.2928 19.3206 24.3465 20.6819 26.8583C22.0404 29.3726 24.6688 30.9365 27.5256 30.9365C30.3824 30.9365 33.0109 29.3726 34.3694 26.8583C35.7307 24.3468 35.6051 21.2931 34.044 18.8984L34.5206 18.5388C34.8831 18.2648 35.0457 17.8025 34.943 17.3601L33.6815 11.989C33.4133 10.8417 32.3916 10.034 31.2157 10.034H23.8355ZM23.7899 11.4724H23.8355H31.2161C31.7241 11.4696 32.1665 11.8206 32.2834 12.3172L33.2338 16.3612H21.8211L22.7714 12.3172C22.8827 11.8377 23.2994 11.4924 23.7903 11.4724H23.7899ZM21.9348 17.7996H33.1167L28.9585 20.9703C28.1138 21.6124 26.9408 21.6124 26.096 20.9703L21.9348 17.7996ZM22.1574 19.7774L25.2282 22.1147L25.2254 22.1118C26.5838 23.1478 28.4703 23.1478 29.8287 22.1118L32.8995 19.7745H32.8967C34.1296 21.7294 34.198 24.2009 33.0822 26.2215C31.9663 28.2449 29.8373 29.5007 27.5256 29.5007C25.2167 29.5007 23.0878 28.2449 21.9718 26.2215C20.856 24.2009 20.9245 21.7294 22.1574 19.7745L22.1574 19.7774Z" fill="white"/>
<path d="M37.2576 30.7393V32.1777H34.3809V30.7393H37.2576Z" fill="white"/>
<path d="M17.7969 30.7393V32.1777H20.6736V30.7393H17.7969Z" fill="white"/>
<path d="M3.41844 35.0513V3.41842H24.9858V8.44987H26.4243V1.98001L1.98047 1.98286V36.4893H13.5328C13.8267 35.9955 14.1435 35.5161 14.4831 35.0508L3.41844 35.0513Z" fill="white"/>
<path d="M17.7984 6.2955V7.73391H10.6094V6.2955H17.7984Z" fill="white"/>
<path d="M13.4812 27.8622V29.3006H4.85352V27.8622H13.4812Z" fill="white"/>
<path d="M12.0445 23.5501V24.9886H4.85547V23.5501H12.0445Z" fill="white"/>
<path d="M10.6081 19.2374V20.6758H4.85742V19.2374H10.6081Z" fill="white"/>
<path d="M13.4812 14.9224V16.3608H4.85352V14.9224H13.4812Z" fill="white"/>
<path d="M10.6081 10.6106V12.049H4.85742V10.6106H10.6081Z" fill="white"/>
</svg>
