<?xml version="1.0" encoding="UTF-8"?>
<svg width="44" height="44" viewBox="0 0 44 44" fill="none" xmlns="http://www.w3.org/2000/svg">
<path d="M41.3948 21.8619H33.0097L33.0091 0.859375C33.0091 0.384742 32.6242 0 32.1497 0H2.60547C2.13092 0 1.74609 0.384828 1.74609 0.859375V39.7751C1.74609 40.2497 2.13092 40.6345 2.60547 40.6345H20.2231V43.1406C20.2231 43.6152 20.6079 44 21.0825 44H39.6759C40.1505 44 40.5353 43.6152 40.5353 43.1406V28.0497H41.3947C41.8692 28.0497 42.254 27.6648 42.254 27.1903V22.7213C42.2541 22.2466 41.8693 21.8619 41.3948 21.8619V21.8619ZM3.46484 38.9158V1.71875H31.2903L31.291 21.8619H19.3642H19.3637C18.8892 21.8619 18.5043 22.2467 18.5043 22.7213V27.1903C18.5043 27.6575 18.8965 28.0497 19.3637 28.0497H20.2231V38.9158H3.46484ZM38.8166 42.2812H21.9419V28.0497H38.8166V42.2812ZM40.5354 26.3309H20.2232L20.2235 23.5806H40.5353V26.3309H40.5354Z" fill="white"/>
<path d="M7.92187 12.5655H26.8343C27.3089 12.5655 27.6937 12.1807 27.6937 11.7061V6.39844C27.6937 5.92389 27.3089 5.53906 26.8343 5.53906H7.92187C7.44733 5.53906 7.0625 5.92389 7.0625 6.39844V11.7062C7.0625 12.1807 7.44724 12.5655 7.92187 12.5655V12.5655ZM8.78125 7.25781H25.9749V10.8468H8.78125V7.25781Z" fill="white"/>
<path d="M7.92187 18.4062H26.8343C27.3089 18.4062 27.6937 18.0214 27.6937 17.5469C27.6937 17.0723 27.3089 16.6875 26.8343 16.6875H7.92187C7.44733 16.6875 7.0625 17.0723 7.0625 17.5469C7.0625 18.0214 7.44724 18.4062 7.92187 18.4062V18.4062Z" fill="white"/>
<path d="M15.105 22.1875H7.92187C7.44733 22.1875 7.0625 22.5723 7.0625 23.0469C7.0625 23.5214 7.44733 23.9062 7.92187 23.9062H15.105C15.5795 23.9062 15.9643 23.5214 15.9643 23.0469C15.9643 22.5723 15.5795 22.1875 15.105 22.1875Z" fill="white"/>
<path d="M15.104 27.6953H11.8594C11.3848 27.6953 11 28.0801 11 28.5547C11 29.0292 11.3848 29.4141 11.8594 29.4141H15.104C15.5786 29.4141 15.9634 29.0292 15.9634 28.5547C15.9634 28.0801 15.5786 27.6953 15.104 27.6953Z" fill="white"/>
<path d="M15.105 32.9609H7.92187C7.44733 32.9609 7.0625 33.3458 7.0625 33.8203C7.0625 34.2949 7.44733 34.6797 7.92187 34.6797H15.105C15.5795 34.6797 15.9643 34.2949 15.9643 33.8203C15.9643 33.3458 15.5795 32.9609 15.105 32.9609Z" fill="white"/>
<path d="M7.44462 29.2693C8.09517 29.6957 8.95875 29.0778 8.74958 28.3253C8.65144 27.9721 8.3309 27.7146 7.9642 27.6963C7.59794 27.6781 7.25229 27.9039 7.12072 28.2456C6.97712 28.6185 7.11669 29.0444 7.44462 29.2693V29.2693Z" fill="white"/>
<path d="M26.0176 39.4955H35.3061C35.7807 39.4955 36.1655 39.1107 36.1655 38.6361V34.3047C36.1655 33.8301 35.7807 33.4453 35.3061 33.4453H26.0176C25.543 33.4453 25.1582 33.8301 25.1582 34.3047V38.6361C25.1582 39.1107 25.543 39.4955 26.0176 39.4955ZM26.877 35.1641H34.4468V37.7767H26.877V35.1641Z" fill="white"/>
</svg>
