<?xml version="1.0" encoding="UTF-8"?>
<svg width="44" height="44" viewBox="0 0 44 44" fill="none" xmlns="http://www.w3.org/2000/svg">
<g clip-path="url(#clip0_128_61)">
<path d="M43.9331 8.73303L39.4007 1.06735C39.0002 0.400488 38.268 0 37.4671 0H15.534C14.7347 0 14.0008 0.40047 13.6004 1.06735L9.1335 8.73479C9.06647 8.80182 9.06647 9.0012 9.06647 9.06823V17.3336H0.666864C0.266394 17.3336 0 17.6 0 18.0005V43.3331C0 43.7335 0.266407 43.9999 0.666864 43.9999H23.0673C23.4677 43.9999 23.7341 43.7335 23.7341 43.3331L23.7324 32.0669H41.1982C42.7314 32.0669 43.9981 30.8001 43.9981 29.267V9.0666C43.9998 8.99957 43.9328 8.80019 43.9328 8.73316L43.9331 8.73303ZM21.4671 9.73333H31.6008V14.8004H21.4671V9.73333ZM38.2663 1.79969L42.1988 8.46657H32.7336L30.7329 1.33373H37.5322C37.8004 1.33373 38.1338 1.5331 38.2662 1.79951L38.2663 1.79969ZM29.3339 1.3339L31.3998 8.40118L21.6666 8.39946L23.7325 1.33351L29.3339 1.3339ZM14.8003 1.79969C14.9326 1.53328 15.2007 1.3339 15.5342 1.3339H22.3335L20.2676 8.40118L10.8661 8.39946L14.8003 1.79969ZM1.33405 42.6664V18.6675H14.8676V24.6678C14.8676 25.0683 15.134 25.3347 15.5344 25.3347H22.4006V42.7353L1.33388 42.7336L1.33405 42.6664ZM21.2665 23.9339H16.1326V19.3997L21.2665 23.9339ZM42.6668 29.2671C42.6668 30.0663 41.9999 30.7332 41.2007 30.7332H23.7331V24.6005C23.7331 24.4664 23.6661 24.2 23.5338 24.0677L16.0005 17.4008C15.8665 17.2667 15.6671 17.2667 15.533 17.2667H10.3991L10.4008 9.73351H20.1341V15.4671C20.1341 15.8676 20.4005 16.134 20.8009 16.134H32.2682C32.6687 16.134 32.9351 15.8676 32.9351 15.4671V9.73351H42.6666L42.6668 29.2671Z" fill="white"/>
<path d="M28.934 18.998C28.8669 18.9309 28.7999 18.8639 28.7346 18.8639C28.6676 18.7969 28.5352 18.7969 28.4682 18.7969C28.4012 18.7969 28.2688 18.7969 28.2018 18.8639C28.1347 18.9309 28.0677 18.9309 28.0024 18.998L24.9361 22.1313C24.6697 22.3977 24.6697 22.7981 24.9361 23.0645C25.2025 23.331 25.603 23.3309 25.8694 23.0645L27.803 21.0639V28.1967C27.803 28.5972 28.0694 28.8636 28.4699 28.8636C28.8703 28.8636 29.1367 28.5972 29.1367 28.1967L29.1333 21.1308L31.0669 23.1314C31.3333 23.3978 31.7337 23.3978 32.0002 23.1314C32.2666 22.865 32.2666 22.4646 32.0002 22.1981L28.934 18.998Z" fill="white"/>
<path d="M34.3328 23.0663C34.5992 23.3327 34.9996 23.3327 35.266 23.0663L37.1996 21.0656V28.1985C37.1996 28.5989 37.466 28.8653 37.8665 28.8653C38.2669 28.8653 38.5333 28.5989 38.5333 28.1985L38.5316 21.1325L40.4652 23.1331C40.7316 23.3995 41.1321 23.3995 41.3985 23.1331C41.6649 22.8667 41.6649 22.4663 41.3985 22.1998L38.3322 19.0666C38.1982 18.9325 38.0658 18.8672 37.8647 18.8672C37.6654 18.8672 37.5313 18.9342 37.3972 19.0666L34.331 22.1998C34.0663 22.3992 34.1316 22.798 34.3327 23.0661L34.3328 23.0663Z" fill="white"/>
<path d="M20.8004 32.3984H11.6669C11.2664 32.3984 11 32.6648 11 33.0653V40.5985C11 40.999 11.2664 41.2654 11.6669 41.2654H20.8004C21.2008 41.2654 21.4672 40.999 21.4672 40.5985V33.0653C21.4672 32.6648 21.1338 32.3984 20.8004 32.3984ZM20.1335 39.8648H12.3336V33.6652H20.1335V39.8648Z" fill="white"/>
<path d="M14.466 39.1356C14.6001 39.2697 14.7324 39.402 14.9335 39.402C15.1329 39.402 15.334 39.335 15.4663 39.2026L19.2665 35.6018C19.5329 35.3354 19.5329 34.935 19.2665 34.6686C19.0001 34.4021 18.5996 34.4021 18.3332 34.6686L15.1329 37.7348L14.1326 36.2017C13.9332 35.8683 13.5327 35.8012 13.1993 36.0023C12.8659 36.2017 12.7988 36.6022 12.9999 36.9356L14.466 39.1356Z" fill="white"/>
<path d="M3.0653 23.0681H12.6661C13.0666 23.0681 13.333 22.8017 13.333 22.4012C13.333 22.0008 13.0666 21.7344 12.6661 21.7344H3.0653C2.66483 21.7344 2.39844 22.0008 2.39844 22.4012C2.39844 22.8 2.66656 23.0681 3.0653 23.0681V23.0681Z" fill="white"/>
<path d="M3.0653 27.2634H20.3318C20.7322 27.2634 20.9986 26.997 20.9986 26.5966C20.9986 26.1961 20.7322 25.9297 20.3318 25.9297H3.0653C2.66483 25.9297 2.39844 26.1961 2.39844 26.5966C2.39844 26.997 2.66656 27.2634 3.0653 27.2634V27.2634Z" fill="white"/>
<path d="M3.0653 31.3962H20.3318C20.7322 31.3962 20.9986 31.1298 20.9986 30.7294C20.9986 30.3289 20.7322 30.0625 20.3318 30.0625H3.0653C2.66483 30.0625 2.39844 30.3289 2.39844 30.7294C2.39844 31.0628 2.66656 31.3962 3.0653 31.3962V31.3962Z" fill="white"/>
<path d="M9.33373 34.3984H3.06725C2.66678 34.3984 2.40039 34.6648 2.40039 35.0653C2.40039 35.4658 2.6668 35.7322 3.06725 35.7322L9.33373 35.7305C9.7342 35.7305 10.0006 35.464 10.0006 35.0636C10.0006 34.6648 9.73419 34.3984 9.33373 34.3984V34.3984Z" fill="white"/>
<path d="M9.33373 38.7344H3.06725C2.66678 38.7344 2.40039 39.0008 2.40039 39.4012C2.40039 39.8017 2.6668 40.0681 3.06725 40.0681H9.33373C9.7342 40.0681 10.0006 39.8017 10.0006 39.4012C10.0006 39.0008 9.73419 38.7344 9.33373 38.7344Z" fill="white"/>
</g>
<defs>
<clipPath id="clip0_128_61">
<rect width="44" height="44" fill="white"/>
</clipPath>
</defs>
</svg>
