<?xml version="1.0" encoding="UTF-8"?>
<svg width="44" height="44" viewBox="0 0 44 44" fill="none" xmlns="http://www.w3.org/2000/svg">
<path d="M38.9533 4.17188H7.74937C7.46578 4.17703 7.2131 4.35578 7.11344 4.62217C7.01375 4.88858 7.08766 5.18766 7.29907 5.37844L18.2405 14.8833H18.2388C18.4279 15.05 18.5431 15.2855 18.5534 15.5382C18.5654 15.7908 18.4726 16.0366 18.299 16.2188L10.929 23.8845C10.5852 24.2454 10.0181 24.2661 9.6485 23.9326L3.89594 18.7763C3.61234 18.5236 3.17751 18.5477 2.92486 18.8313C2.6722 19.1131 2.69626 19.548 2.97814 19.8006L6.78863 23.2141V34.2809C6.79034 35.5494 7.81814 36.5754 9.0849 36.5772H17.1835C17.6923 37.5827 18.0601 39.3031 19.3079 39.6796C20.3392 40.1556 21.5371 39.3874 22.4498 38.9663C23.1768 39.7586 24.3593 39.9356 25.2874 39.3925L26.4768 38.6947V38.693C27.1557 39.6985 28.4998 39.9993 29.543 39.3839L30.839 38.6139C31.2549 38.9525 31.774 39.1364 32.3085 39.1364C32.8499 39.1038 33.3724 38.9388 33.8365 38.6586C34.6649 38.2736 35.184 37.428 35.153 36.5136H38.9532C40.2199 36.5119 41.2477 35.4841 41.2495 34.2174V6.46833C41.2478 5.20162 40.22 4.17382 38.9532 4.17206L38.9533 4.17188ZM21.869 5.54687H26.1676L26.1658 10.0828C26.1658 10.1481 26.1143 10.1997 26.049 10.1997H21.9858C21.9205 10.1997 21.869 10.1481 21.8672 10.0828L21.869 5.54687ZM39.8747 34.2173C39.8747 34.726 39.4622 35.1385 38.9534 35.1385H34.7218L30.9131 27.1688V27.1671C31.8567 27.504 32.8347 27.7326 33.8281 27.8512C35.1326 27.8512 36.3495 27.198 37.0714 26.1101L37.3171 25.7406C37.5509 25.3831 37.6214 24.9431 37.5114 24.5306C37.4014 24.1181 37.1212 23.7709 36.7397 23.5784C35.8494 23.2071 27.7469 18.8915 26.9668 18.9548L22.1114 18.1676C21.7402 18.1126 21.3913 18.367 21.3311 18.7383C21.271 19.1095 21.5219 19.4601 21.8914 19.5255L26.7468 20.3127C26.7915 20.0136 35.7822 24.6938 36.1259 24.809H36.1276C36.1585 24.8228 36.1809 24.8503 36.1894 24.883C36.198 24.9156 36.1929 24.9517 36.1723 24.9792C35.624 26.1187 34.3383 26.7066 33.1163 26.3748L30.1188 25.5068L29.4898 24.1903C29.323 23.8534 28.9157 23.7125 28.5771 23.874C28.2368 24.0356 28.0907 24.4412 28.2488 24.7832L33.6661 36.122C33.7899 36.3472 33.8156 36.6136 33.7383 36.8577C33.6592 37.1017 33.4839 37.3045 33.2519 37.4145L32.6899 37.6775H32.6916C32.2344 37.8889 31.693 37.6999 31.4696 37.2495L28.8777 31.9797V31.9779C28.7969 31.8147 28.656 31.6892 28.4824 31.629C28.3088 31.5706 28.1197 31.5826 27.9565 31.6634C27.7932 31.7442 27.6677 31.8869 27.6093 32.0587C27.5491 32.2323 27.5629 32.4214 27.6437 32.5847L30.0516 37.4832L28.8416 38.2016C28.6182 38.3322 28.3518 38.3649 28.1043 38.291C27.8568 38.2154 27.6506 38.0418 27.5371 37.808L25.3972 33.3631C25.2288 33.0262 24.8232 32.887 24.4846 33.0503C24.1443 33.2136 23.9999 33.6192 24.158 33.9595L25.8475 37.4692L24.5911 38.2066C24.3677 38.3355 24.1013 38.3664 23.8538 38.2908C23.6063 38.2169 23.4035 38.0416 23.29 37.8078L21.8016 34.6694V34.6711C21.6349 34.3342 21.2292 34.1933 20.8907 34.3531C20.5504 34.5147 20.4025 34.9186 20.5589 35.2606L21.7535 37.7769L20.5091 38.3647L20.5074 38.363C20.2822 38.4678 20.0244 38.4764 19.7907 38.3905C19.5586 38.3028 19.3696 38.1258 19.2682 37.8989L14.4057 26.8663C14.2493 26.5243 13.8471 26.3731 13.5034 26.5243C13.1613 26.6756 13.0015 27.0743 13.1476 27.4198L16.5782 35.2025H9.08458C8.57585 35.2025 8.16331 34.79 8.16331 34.2813V24.4481L8.73223 24.9569C9.65174 25.787 11.0646 25.7337 11.9205 24.8383L19.2888 17.1708C19.7236 16.7171 19.9522 16.1052 19.9247 15.4761C19.8955 14.8488 19.6136 14.2593 19.141 13.845L9.58812 5.54708H20.4918V10.083C20.4935 10.9063 21.1621 11.5749 21.9853 11.5749H26.0485C26.8718 11.5749 27.5403 10.9063 27.5403 10.083V5.54708H38.9531C39.4618 5.54708 39.8743 5.95958 39.8743 6.46836L39.8747 34.2173Z" fill="white"/>
</svg>
