<?xml version="1.0" encoding="UTF-8"?>
<svg width="59" height="60" viewBox="0 0 59 60" fill="none" xmlns="http://www.w3.org/2000/svg">
<path d="M0 44.25C0 19.8114 19.8114 0 44.25 0V0C52.3962 0 59 6.6038 59 14.75V30C59 46.5685 45.5685 60 29 60H15C6.71573 60 0 53.2843 0 45V44.25Z" fill="#C0D0FF"/>
<path d="M20.3388 21.8788C21.8959 21.8788 23.1638 20.6109 23.1638 19.0539C23.1638 17.4968 21.8959 16.2305 20.3388 16.2305C18.7818 16.2305 17.5139 17.4967 17.5139 19.0539C17.5139 20.611 18.7818 21.8788 20.3388 21.8788ZM20.3388 18.0414C20.8974 18.0414 21.3512 18.4953 21.3512 19.0523C21.3512 19.6108 20.8974 20.0647 20.3388 20.0647C19.7803 20.0647 19.3264 19.6108 19.3264 19.0523C19.3264 18.4953 19.7803 18.0414 20.3388 18.0414V18.0414Z" fill="#0F2851"/>
<path d="M18.8972 26.0469C18.3972 26.0469 17.991 26.4531 17.991 26.9531V36.6495C17.991 37.1495 18.3971 37.5557 18.8972 37.5557C19.3973 37.5557 19.8035 37.1495 19.8035 36.6495V26.9531C19.8035 26.4531 19.3973 26.0469 18.8972 26.0469Z" fill="#0F2851"/>
<path d="M21.7805 26.0469C21.2805 26.0469 20.8743 26.4531 20.8743 26.9531V31.0318C20.8743 31.5319 21.2804 31.9381 21.7805 31.9381C22.2806 31.9381 22.6868 31.5319 22.6868 31.0318V26.9531C22.6868 26.4531 22.2806 26.0469 21.7805 26.0469Z" fill="#0F2851"/>
<path d="M34.7175 12.1511H34.6698H25.1318H25.0841H15.5461C15.0461 12.1511 14.6399 12.5573 14.6399 13.0574V47.6934C14.6399 48.1935 15.0461 48.5997 15.5461 48.5997H21.4899C22.6285 48.5997 23.5532 48.2089 24.2271 47.5503L24.224 47.6934C24.224 48.1935 24.6302 48.5997 25.1303 48.5997H31.0756C33.5836 48.5997 35.6238 46.5595 35.6238 44.053V17.8765L43.2109 48.5552C43.3124 48.9675 43.6832 49.2445 44.0895 49.2429C44.1618 49.2429 44.2341 49.2337 44.3079 49.2168L50.0776 47.7889C51.2531 47.4997 52.2471 46.7657 52.8764 45.7241C53.5057 44.6825 53.6918 43.4608 53.401 42.2853L46.6789 15.0992C46.5589 14.613 46.0681 14.3176 45.5819 14.436C45.0957 14.5561 44.7987 15.0484 44.9187 15.5331L51.6424 42.7204C51.8163 43.4251 51.7039 44.159 51.3254 44.7867C50.9454 45.4145 50.3484 45.8561 49.6437 46.0299L44.7524 47.2393L36.8731 15.3773L45.2511 13.3048C45.7373 13.1848 46.0343 12.694 45.9143 12.2078C45.7942 11.7231 45.3019 11.4261 44.8172 11.5462L35.6239 13.8187V13.0571C35.6239 12.557 35.2177 12.1508 34.7176 12.1508L34.7175 12.1511ZM24.2255 44.0528C24.2255 45.5607 22.9992 46.7869 21.4914 46.7869H16.4524V13.9635H24.2254L24.2255 44.0528ZM33.8112 44.0528C33.8112 45.5607 32.5849 46.7869 31.077 46.7869H26.038V13.9635H33.811L33.8112 44.0528Z" fill="#0F2851"/>
<path d="M29.9245 21.8788C31.4816 21.8788 32.7494 20.6109 32.7494 19.0539C32.7494 17.4968 31.4816 16.2305 29.9245 16.2305C28.3659 16.2305 27.0996 17.4967 27.0996 19.0539C27.0996 20.611 28.3675 21.8788 29.9245 21.8788ZM29.9245 18.0414C30.4831 18.0414 30.9369 18.4953 30.9369 19.0523C30.9369 19.6108 30.4831 20.0647 29.9245 20.0647C29.366 20.0647 28.9121 19.6108 28.9121 19.0523C28.9121 18.4953 29.366 18.0414 29.9245 18.0414V18.0414Z" fill="#0F2851"/>
<path d="M28.4815 26.0469C27.9814 26.0469 27.5752 26.4531 27.5752 26.9531V36.6495C27.5752 37.1495 27.9814 37.5557 28.4815 37.5557C28.9815 37.5557 29.3877 37.1495 29.3877 36.6495V26.9531C29.3877 26.4531 28.9831 26.0469 28.4815 26.0469Z" fill="#0F2851"/>
<path d="M31.3662 26.0469C30.8662 26.0469 30.46 26.4531 30.46 26.9531V31.0318C30.46 31.5319 30.8661 31.9381 31.3662 31.9381C31.8663 31.9381 32.2725 31.5319 32.2725 31.0318V26.9531C32.2725 26.4531 31.8678 26.0469 31.3662 26.0469Z" fill="#0F2851"/>
<path d="M41.8681 16.5596C41.6404 16.5596 41.4111 16.5873 41.188 16.6427C40.4556 16.8242 39.8386 17.2797 39.4478 17.9259C39.0585 18.5721 38.9431 19.3306 39.1247 20.063C39.437 21.3277 40.5648 22.2109 41.865 22.2109C42.0927 22.2109 42.3219 22.1832 42.545 22.1278C44.056 21.7539 44.9822 20.2184 44.6083 18.7075C44.2945 17.4427 43.1682 16.5596 41.8681 16.5596H41.8681ZM42.1096 20.3677C41.568 20.5015 41.0157 20.16 40.8833 19.6276C40.8187 19.366 40.8603 19.0937 40.9987 18.8629C41.1388 18.6306 41.3603 18.4675 41.6219 18.4028C41.7019 18.3828 41.7834 18.3736 41.8665 18.3736C42.3312 18.3736 42.7358 18.689 42.8466 19.1429C42.9836 19.683 42.6512 20.2338 42.1096 20.3677L42.1096 20.3677Z" fill="#0F2851"/>
<path d="M42.1448 26.5208C41.6601 26.6408 41.3632 27.1316 41.4832 27.6178L43.8111 37.031C43.9127 37.4433 44.2835 37.7203 44.6897 37.7203C44.762 37.7203 44.8359 37.711 44.9082 37.6926C45.3944 37.5725 45.6913 37.0817 45.5713 36.5955L43.2434 27.1824C43.1234 26.6977 42.6325 26.4008 42.1448 26.5208L42.1448 26.5208Z" fill="#0F2851"/>
<path d="M46.3606 31.545C46.8468 31.425 47.1423 30.9342 47.0222 30.448L46.0437 26.489C45.9237 26.0044 45.4328 25.7074 44.9466 25.8274C44.4604 25.9474 44.1634 26.4383 44.2835 26.9245L45.262 30.8834C45.3636 31.2958 45.7344 31.5727 46.1406 31.5727C46.2145 31.5712 46.2883 31.5635 46.3606 31.545L46.3606 31.545Z" fill="#0F2851"/>
</svg>
