<?xml version="1.0" encoding="UTF-8"?>
<svg width="44" height="44" viewBox="0 0 44 44" fill="none" xmlns="http://www.w3.org/2000/svg">
<path d="M37.141 12.1724C37.1255 12.1088 37.1049 12.0469 37.0757 11.9868L37.0499 11.9387H37.0482C37.0155 11.8785 36.9743 11.8252 36.9262 11.7771L28.3325 3.17465C28.281 3.12652 28.2225 3.08527 28.1606 3.0509H28.116C28.0575 3.01996 27.9939 2.9959 27.9269 2.98043C27.8771 2.97527 27.8272 2.97527 27.7774 2.98043H11.683C10.1946 2.98387 8.98804 4.18871 8.98633 5.67715V38.084C8.98805 39.5725 10.1946 40.779 11.683 40.7807H34.4566C35.945 40.779 37.1516 39.5725 37.155 38.084V12.3216C37.155 12.2717 37.1498 12.2219 37.1412 12.1721L37.141 12.1724ZM34.501 11.5382H29.833C29.1301 11.5382 28.5612 10.9693 28.5612 10.2663V5.60321L34.501 11.5382ZM34.4615 39.2274H11.6827C11.0605 39.2136 10.562 38.7066 10.5603 38.0844V5.6432C10.562 5.01414 11.0708 4.50541 11.6998 4.50369H27.0035V10.2686V10.2669C27.0035 11.8309 28.2702 13.0976 29.8325 13.0976H35.5957V38.0848C35.5957 38.7139 35.0869 39.2261 34.4561 39.2278L34.4615 39.2274Z" fill="white"/>
<path d="M31.3976 18.9219H14.4541C14.0227 18.9219 13.6738 19.2708 13.6738 19.7005C13.6738 20.1301 14.0227 20.479 14.4541 20.479H31.3976C31.8273 20.479 32.1762 20.1301 32.1762 19.7005C32.1762 19.2708 31.8273 18.9219 31.3976 18.9219Z" fill="white"/>
<path d="M31.3994 23.9243H14.4559C14.2394 23.9071 14.0262 23.9827 13.8664 24.1288C13.7083 24.2766 13.6172 24.4829 13.6172 24.7012C13.6172 24.9177 13.7083 25.124 13.8664 25.2718C14.0263 25.4196 14.2394 25.4935 14.4559 25.4763H31.3994C31.8068 25.4471 32.1196 25.1085 32.1196 24.7012C32.1196 24.2938 31.8068 23.9552 31.3994 23.9243V23.9243Z" fill="white"/>
<path d="M31.3976 28.9219H14.4541C14.0227 28.9219 13.6738 29.2708 13.6738 29.7005C13.6738 30.1319 14.0227 30.4808 14.4541 30.4808H31.3976C31.8273 30.4808 32.1762 30.1318 32.1762 29.7005C32.1762 29.2708 31.8273 28.9219 31.3976 28.9219Z" fill="white"/>
<path d="M31.3976 33.9141H14.4541C14.0227 33.9141 13.6738 34.263 13.6738 34.6944C13.6738 35.124 14.0227 35.4729 14.4541 35.4729H31.3976C31.8273 35.4729 32.1762 35.124 32.1762 34.6944C32.1762 34.263 31.8273 33.9141 31.3976 33.9141Z" fill="white"/>
</svg>
