<?xml version="1.0" encoding="UTF-8"?>
<svg width="44" height="44" viewBox="0 0 44 44" fill="none" xmlns="http://www.w3.org/2000/svg">
<path d="M40.0135 35.248H38.8207V10.2832C38.8207 8.64354 37.4853 7.30981 35.8456 7.30981H18.9725C17.3328 7.30981 15.999 8.64354 15.999 10.2832V18.8118C15.999 19.2105 16.3205 19.5319 16.7209 19.5319C17.1179 19.5319 17.4393 19.2105 17.4393 18.8118V10.2832C17.4393 9.44104 18.1268 8.75354 18.969 8.75354H35.8422C36.6844 8.75354 37.3719 9.44104 37.3719 10.2832V35.248H36.0244L36.0261 10.857C36.0261 10.46 35.7047 10.1369 35.3042 10.1369H19.5139C19.1135 10.1369 18.7921 10.46 18.7921 10.857V18.8096C18.7921 19.2083 19.1135 19.5297 19.5139 19.5297C19.911 19.5297 20.2324 19.2083 20.2324 18.8096V11.5804H34.5821V35.2475H21.1722C21.3957 34.8419 21.5263 34.3899 21.5263 33.912V23.3846C21.5228 21.8549 20.2785 20.6088 18.7488 20.6088H7.95998C6.43028 20.6105 5.18248 21.8566 5.18248 23.388V33.912C5.18248 34.3897 5.31482 34.8418 5.53654 35.2474H3.9914C3.59437 35.2474 3.26953 35.5706 3.26953 35.9693C3.26953 36.3663 3.59437 36.6895 3.9914 36.6895H40.0129C40.4099 36.6895 40.7313 36.3663 40.7313 35.9693C40.7313 35.5706 40.4099 35.2474 40.0129 35.2474L40.0135 35.248ZM15.4167 22.055V27.4622L13.856 25.9755C13.5776 25.7108 13.1393 25.7108 12.8592 25.9755L11.2985 27.4622V22.055H15.4167ZM7.96086 35.248C7.6068 35.248 7.26993 35.107 7.01728 34.8595C6.76635 34.6069 6.62885 34.2717 6.62885 33.9142V23.3886C6.62885 22.6529 7.2287 22.0548 7.96086 22.0531H9.85664L9.8532 29.1445C9.8532 29.4333 10.0251 29.6945 10.2898 29.808C10.5545 29.9231 10.8638 29.8664 11.0701 29.667L13.3526 27.4911L15.6351 29.667C15.7726 29.7977 15.9513 29.8664 16.1335 29.8664C16.2263 29.8664 16.3243 29.8475 16.4154 29.808C16.6801 29.6945 16.8519 29.4333 16.8519 29.1445V22.0531H18.746C19.4782 22.0531 20.078 22.6529 20.078 23.3886V33.916C20.078 34.2701 19.9405 34.6052 19.6896 34.8579C19.4369 35.1088 19.1035 35.248 18.746 35.248L7.96086 35.248Z" fill="white"/>
<path d="M33.7168 24.2652C33.7168 25.8705 31.3105 25.8705 31.3105 24.2652C31.3105 22.6616 33.7168 22.6616 33.7168 24.2652Z" fill="white"/>
</svg>
