<?xml version="1.0" encoding="UTF-8"?>
<svg width="100" height="100" viewBox="0 0 100 100" fill="none" xmlns="http://www.w3.org/2000/svg">
<path d="M35.8579 14.1421C43.6684 6.33165 56.3316 6.33165 64.1421 14.1421L85.8579 35.8579C93.6684 43.6684 93.6684 56.3316 85.8579 64.1421L64.1421 85.8579C56.3316 93.6684 43.6684 93.6684 35.8579 85.8579L14.1421 64.1421C6.33165 56.3316 6.33165 43.6684 14.1421 35.8579L35.8579 14.1421Z" fill="#0C73E3"/>
<path d="M32.923 42.74C30.5735 42.74 30.0012 44.8351 30.0012 53.4153C29.9994 53.4342 29.9994 53.4531 30.0012 53.472C30.0012 53.6662 30.4412 58.2588 33.327 61.44C36.2127 64.6212 37.287 66.94 37.287 69.8C37.287 70.1643 37.5826 70.46 37.947 70.46H45.793C46.1574 70.46 46.453 70.1643 46.453 69.8V63.2C46.453 62.9748 46.4273 57.6432 44.0468 55.3988C43.2493 54.6545 42.4123 53.955 41.5374 53.3053C40.6711 52.7227 39.9046 52.0008 39.2721 51.1706C38.6516 50.2511 37.6307 49.9263 36.8968 50.4058C36.0701 50.9558 35.771 52.4425 37.3368 55.0121L35.1901 52.037C35.1454 45.8682 34.3874 42.7402 32.9231 42.7402L32.923 42.74ZM38.3751 58.716C38.4576 58.8277 38.5727 58.9102 38.7051 58.9549C39.1296 59.1113 39.6074 58.9875 39.9013 58.642C40.4204 57.9769 40.0457 56.7978 38.6157 54.5772C37.2476 52.4425 37.5157 51.5814 37.6206 51.4972C37.6601 51.4714 37.9282 51.5316 38.1757 51.8977V51.8959C38.889 52.8464 39.7518 53.6714 40.7332 54.3383C41.5702 54.9639 42.3746 55.6342 43.1395 56.3458C45.1058 58.1986 45.1332 63.1398 45.1332 63.1882V69.1401H38.5812C38.423 66.2096 37.1821 63.7448 34.3049 60.5601C31.8402 57.8238 31.3572 53.7454 31.3177 53.3793C31.3211 45.0057 31.9811 44.1085 32.8611 44.0601C33.406 44.6359 33.8683 48.3243 33.8855 52.2534C33.8872 52.3909 33.9302 52.5232 34.0092 52.6349L38.3751 58.716Z" fill="white"/>
<path d="M67.9989 42.7401C66.5346 42.7401 65.7989 45.8682 65.7371 52.0368L63.5903 55.012C65.1527 52.4476 64.8536 50.9557 64.0303 50.4056C63.2947 49.9261 62.2703 50.2509 61.6551 51.1705C61.0208 52.0006 60.256 52.7225 59.388 53.3052C58.5149 53.9549 57.6762 54.6544 56.8804 55.3986C54.4999 57.6433 54.4741 62.975 54.4741 63.1998V69.7998C54.4741 70.1642 54.7697 70.4598 55.1341 70.4598H62.9784C63.1572 70.465 63.3308 70.3997 63.4597 70.2742C63.5886 70.1504 63.6608 69.9786 63.6608 69.7998C63.6608 66.9398 64.7694 64.5955 67.6208 61.4398C70.4722 58.2841 70.9345 53.6641 70.9466 53.4719C70.95 53.453 70.95 53.4341 70.9466 53.4151C70.9208 44.8351 70.3485 42.7399 67.9989 42.7399L67.9989 42.7401ZM66.6136 60.5601C63.7364 63.7449 62.4955 66.2097 62.3408 69.1401H55.7888V63.2001C55.7888 61.8182 56.1446 57.9201 57.7825 56.3576C58.5474 55.6461 59.3517 54.9775 60.1888 54.3519C61.1702 53.6833 62.033 52.8583 62.7463 51.9095C62.9921 51.5451 63.2619 51.4695 63.3014 51.509C63.341 51.5486 63.6761 52.4423 62.3063 54.589C60.8763 56.8114 60.5016 57.9905 61.0207 58.6539V58.6556C61.3146 58.9994 61.7924 59.1248 62.2169 58.9667C62.3493 58.9237 62.4644 58.8395 62.5469 58.7295L66.9297 52.6399C67.0105 52.5282 67.0535 52.3941 67.0535 52.2566C67.0535 48.3276 67.533 44.6407 68.0778 44.0634C68.9578 44.1115 69.6006 45.0087 69.6006 53.3826C69.5611 53.7453 69.0764 57.824 66.6134 60.5599L66.6136 60.5601Z" fill="white"/>
<path d="M42.4257 35.0849L40.8909 34.6002C40.5643 34.5005 40.2137 34.6655 40.0865 34.9835L38.3574 39.234H38.3557C38.2285 39.5537 38.366 39.918 38.6737 40.0745L40.1037 40.7998C40.047 41.4288 40.047 42.063 40.1037 42.6921L38.6823 43.4398C38.3832 43.603 38.2577 43.9691 38.3952 44.2802L40.1776 48.5084C40.3151 48.8212 40.6657 48.981 40.9923 48.8779L42.5409 48.3812C42.9482 48.8625 43.3985 49.3042 43.8867 49.7012L43.4071 51.2326C43.3092 51.5609 43.4742 51.9098 43.7904 52.0421L48.0409 53.7678V53.766C48.1217 53.797 48.2059 53.8142 48.2918 53.8159C48.5393 53.8142 48.7662 53.6749 48.8814 53.4549L49.5809 52.0335C50.2099 52.0902 50.8441 52.0902 51.4732 52.0335L52.2209 53.4412C52.379 53.7454 52.7468 53.876 53.0614 53.7402L57.2895 51.9545C57.604 51.8204 57.7639 51.4698 57.659 51.1449L57.1572 49.6135C57.6367 49.2045 58.0801 48.7542 58.4772 48.266L60.0086 48.7455C60.3351 48.8469 60.6858 48.6802 60.8147 48.364L62.5437 44.1135C62.6709 43.7938 62.5334 43.4277 62.2257 43.273L60.7957 42.5477V42.546C60.8542 41.9169 60.8542 41.2844 60.7957 40.6553L62.2172 39.9077V39.906C62.5214 39.7479 62.652 39.3818 62.5162 39.0655L60.7562 34.8374C60.6205 34.5245 60.2681 34.3647 59.9432 34.4678L58.3809 34.9697C57.9736 34.4884 57.5232 34.0467 57.0351 33.6497L57.5146 32.1183C57.6246 31.7917 57.4648 31.4359 57.1485 31.3001L52.898 29.5711C52.5784 29.4422 52.214 29.5797 52.0576 29.8873L51.3408 31.3173C50.7118 31.2606 50.0776 31.2606 49.4485 31.3173L48.7008 29.9097C48.5427 29.6055 48.1749 29.4748 47.8604 29.6106L43.6236 31.3964C43.3091 31.5305 43.1493 31.8811 43.2541 32.2059L43.756 33.7201C43.2696 34.1326 42.8261 34.5881 42.4257 35.0848L42.4257 35.0849ZM44.9248 34.4868L44.9265 34.4851C45.1482 34.3166 45.2376 34.0244 45.1499 33.7598L44.7099 32.3745L47.8209 31.0802L48.4981 32.3693C48.627 32.6168 48.9003 32.756 49.1753 32.7131C49.9951 32.5996 50.8253 32.5996 51.6451 32.7131C51.9218 32.7474 52.19 32.6048 52.3171 32.3556L52.9771 31.0579L56.1018 32.3298L55.6618 33.7151C55.5793 33.9832 55.6739 34.2754 55.899 34.4421C56.5625 34.9371 57.1537 35.5197 57.659 36.1746C57.8378 36.3808 58.1248 36.4547 58.3809 36.3602L59.7662 35.9202L61.0862 39.0311L59.7971 39.7084C59.5496 39.8373 59.4121 40.1105 59.4551 40.3856C59.5668 41.2054 59.5668 42.0356 59.4551 42.8554C59.419 43.1321 59.5617 43.402 59.8109 43.5274L61.1085 44.1874L59.8367 47.3121L58.4514 46.8721C58.1832 46.7879 57.8928 46.8842 57.7261 47.1093C57.2293 47.771 56.645 48.3623 55.9918 48.8693C55.7701 49.0395 55.6808 49.3299 55.7667 49.5946L56.2067 50.9799L53.1009 52.2879L52.4237 50.9988C52.2982 50.7651 52.0439 50.6293 51.7809 50.6551C50.9628 50.7685 50.1309 50.7685 49.3128 50.6551C49.0361 50.6207 48.7662 50.7633 48.639 51.0126L47.979 52.3102L44.8543 51.0384L45.2943 49.6531H45.2961C45.3786 49.3849 45.2823 49.0928 45.0572 48.926C44.3954 48.431 43.8024 47.8484 43.2972 47.1935C43.1184 46.965 42.8107 46.8807 42.5409 46.9856L41.1556 47.4256L39.8356 44.3146L41.1247 43.6374C41.3773 43.5137 41.5217 43.2387 41.4804 42.9602C41.3687 42.1421 41.3687 41.3102 41.4804 40.4921C41.5165 40.2154 41.3739 39.9455 41.1247 39.8184L39.827 39.1584L41.0989 36.0337L42.4842 36.4737V36.4754C42.7523 36.5579 43.0427 36.4616 43.2095 36.2365C43.701 35.5799 44.2785 34.9904 44.9265 34.4851L44.9248 34.4868Z" fill="white"/>
<path d="M51.3858 35.652C53.328 35.8033 55.0176 37.0442 55.7411 38.8558C55.8408 39.105 56.0832 39.2683 56.353 39.2683C56.4372 39.2683 56.5214 39.2511 56.5988 39.2201C56.9374 39.0843 57.1006 38.6993 56.9649 38.3625C56.5214 37.247 55.7738 36.2776 54.8061 35.5661C53.8385 34.8545 52.6921 34.4283 51.4958 34.3354C51.1315 34.3062 50.8101 34.576 50.7808 34.9404C50.7499 35.3048 51.0215 35.6262 51.3858 35.6554L51.3858 35.652Z" fill="white"/>
<path d="M50.461 46.8013C52.5338 46.8013 54.4038 45.5518 55.1963 43.637C55.9903 41.7206 55.552 39.5172 54.086 38.0512C52.6199 36.5853 50.4147 36.1452 48.5002 36.9392C46.5837 37.7333 45.3359 39.6016 45.3359 41.6745C45.3394 44.5036 47.6322 46.7966 50.4611 46.8014L50.461 46.8013ZM48.701 38.2917C49.2424 38.0029 49.8474 37.8517 50.461 37.8517C52.386 37.8431 54.0153 39.2731 54.2543 41.1843C54.4932 43.0938 53.2677 44.883 51.4011 45.3506C49.5328 45.8164 47.6095 44.8161 46.9219 43.0165C46.2344 41.2187 46.9975 39.1906 48.7008 38.2918L48.701 38.2917Z" fill="white"/>
</svg>
