<?xml version="1.0" encoding="UTF-8"?>
<svg width="44" height="44" viewBox="0 0 44 44" fill="none" xmlns="http://www.w3.org/2000/svg">
<g clip-path="url(#clip0_145_61)">
<path d="M43.6372 21.9775L36.2423 14.3369C35.9996 14.086 35.6653 13.9443 35.3161 13.9443H30.5907V8.38281C30.5907 7.67091 30.0135 7.09375 29.3016 7.09375H5.35898C4.64707 7.09375 4.06991 7.67091 4.06991 8.38281V12.2512H3.09418C2.38227 12.2512 1.80512 12.8284 1.80512 13.5403C1.80512 14.2522 2.38227 14.8293 3.09418 14.8293H4.06991V17.4087H1.28906C0.577156 17.4087 0 17.9858 0 18.6977C0 19.4096 0.577156 19.9868 1.28906 19.9868H4.06991V31.8253C4.06991 32.5372 4.64707 33.1143 5.35898 33.1143H8.10288C8.35278 33.9462 8.80593 34.7085 9.4374 35.3399C10.443 36.3457 11.7801 36.8995 13.2023 36.8995C14.6245 36.8995 15.9615 36.3457 16.9672 35.3399C17.6063 34.7009 18.0478 33.9383 18.2934 33.1285H30.6035C30.8492 33.9383 31.2907 34.7009 31.9297 35.3399C32.9354 36.3457 34.2725 36.8995 35.6947 36.8995C37.1168 36.8995 38.4539 36.3457 39.4596 35.3399C40.0986 34.7009 40.5402 33.9383 40.7858 33.1285H42.7109C43.4228 33.1285 44 32.5514 44 31.8395V22.874C44 22.5394 43.8699 22.218 43.6372 21.9775V21.9775ZM39.6694 21.585H30.5545V16.5225H34.7698L39.6694 21.585ZM6.64804 19.9867H13.3574C14.0693 19.9867 14.6465 19.4095 14.6465 18.6976C14.6465 17.9857 14.0693 17.4086 13.3574 17.4086H6.64804V14.8292H14.303C15.0149 14.8292 15.5921 14.2521 15.5921 13.5402C15.5921 12.8283 15.0149 12.2511 14.303 12.2511H6.64804V9.67179H14.303H28.0124L27.9763 30.5502H18.4253C18.2298 29.5454 17.7439 28.5865 16.9672 27.8098C15.9616 26.804 14.6245 26.2502 13.2023 26.2502C11.7801 26.2502 10.4431 26.804 9.4374 27.8098C8.68115 28.566 8.18056 29.5097 7.9787 30.536H6.64804V19.9867ZM15.1442 33.517C14.6255 34.0357 13.9358 34.3213 13.2023 34.3213C12.4688 34.3213 11.7791 34.0357 11.2604 33.517C10.7417 32.9982 10.456 32.3085 10.456 31.5749C10.456 30.8413 10.7417 30.1516 11.2604 29.6328C11.7791 29.1141 12.4688 28.8285 13.2023 28.8285C13.9358 28.8285 14.6255 29.1141 15.1442 29.6328C16.215 30.7037 16.215 32.4461 15.1442 33.517ZM37.6364 33.517C37.1177 34.0357 36.428 34.3213 35.6945 34.3213C34.961 34.3213 34.2713 34.0357 33.7526 33.517C32.6818 32.4461 32.6818 30.7038 33.7526 29.6329C34.2713 29.1142 34.961 28.8285 35.6945 28.8285C36.428 28.8285 37.1177 29.1142 37.6364 29.6329C38.1551 30.1516 38.4407 30.8414 38.4407 31.575C38.4408 32.3085 38.1551 32.9982 37.6364 33.517V33.517ZM40.9176 30.5503C40.7221 29.5455 40.2361 28.5865 39.4594 27.8098C38.4538 26.8041 37.1167 26.2503 35.6945 26.2503C34.2723 26.2503 32.9353 26.8041 31.9296 27.8098C31.2448 28.4947 30.7874 29.3214 30.5544 30.1961V24.1631H41.4219V30.5503H40.9176Z" fill="white"/>
</g>
<defs>
<clipPath id="clip0_145_61">
<rect width="44" height="44" fill="white"/>
</clipPath>
</defs>
</svg>
