<?xml version="1.0" encoding="UTF-8"?>
<svg width="44" height="44" viewBox="0 0 44 44" fill="none" xmlns="http://www.w3.org/2000/svg">
<path d="M37.8125 5.5H6.1875C4.29 5.50172 2.75172 7.04 2.75 8.9375V29.5625C2.75172 31.46 4.29 32.9983 6.1875 33H17.5311L21.4499 38.225C21.5805 38.3986 21.7833 38.5 21.9999 38.5C22.2164 38.5 22.4192 38.3986 22.5499 38.225L26.4686 33H37.8122C39.7097 32.9983 41.248 31.46 41.2497 29.5625V8.9375C41.248 7.04 39.7097 5.50172 37.8122 5.5H37.8125ZM39.875 29.5627C39.875 30.7022 38.952 31.6252 37.8125 31.6252H26.1252C25.9087 31.6252 25.7058 31.7266 25.5752 31.9002L22.0002 36.6663L18.4252 31.9002C18.2946 31.7266 18.0918 31.6252 17.8752 31.6252H6.18794C5.04843 31.6252 4.12544 30.7022 4.12544 29.5627V8.93772C4.12544 7.79821 5.04843 6.87522 6.18794 6.87522H37.8129C38.9525 6.87522 39.8754 7.79821 39.8754 8.93772L39.875 29.5627Z" fill="white"/>
<path d="M22 18.5625C23.669 18.5625 25.1728 17.557 25.8105 16.0153C26.4499 14.4753 26.0958 12.6998 24.9168 11.5207C23.7377 10.3417 21.9623 9.9876 20.4222 10.627C18.8805 11.2647 17.875 12.7686 17.875 14.4375C17.8767 16.7148 19.7226 18.5608 22 18.5625L22 18.5625ZM22 11.6875C23.1121 11.6875 24.1158 12.3578 24.5403 13.3857C24.9666 14.4135 24.7311 15.596 23.9439 16.3815C23.1584 17.1687 21.9759 17.4041 20.9481 16.9779C19.9203 16.5533 19.25 15.5496 19.25 14.4376C19.25 12.9182 20.4806 11.6876 22 11.6876L22 11.6875Z" fill="white"/>
<path d="M21.9998 19.9375C18.5846 19.9409 15.8156 22.7099 15.8125 26.1248V27.4998C15.8125 27.682 15.8847 27.8573 16.0136 27.9862C16.1425 28.1151 16.3178 28.1873 16.5 28.1873H27.5C27.6822 28.1873 27.8575 28.1151 27.9864 27.9862C28.1154 27.8573 28.1875 27.682 28.1875 27.4998V26.1248C28.1841 22.7096 25.4152 19.9406 22.0002 19.9375H21.9998ZM26.8125 26.8125H17.1875V26.125C17.1875 23.4678 19.3428 21.3123 22.0002 21.3123C24.6576 21.3123 26.8129 23.4676 26.8129 26.125L26.8125 26.8125Z" fill="white"/>
</svg>
