<?xml version="1.0" encoding="UTF-8"?>
<svg width="44" height="44" viewBox="0 0 44 44" fill="none" xmlns="http://www.w3.org/2000/svg">
<g clip-path="url(#clip0_141_572)">
<path d="M28.4167 44C27.9107 44 27.5 43.5893 27.5 43.0833V39.4167C27.5 32.846 32.846 27.5 39.4167 27.5H43.0833C43.5893 27.5 44 27.9107 44 28.4167C44 28.9227 43.5893 29.3333 43.0833 29.3333H39.4167C33.858 29.3333 29.3333 33.858 29.3333 39.4167V43.0833C29.3333 43.5893 28.9227 44 28.4167 44Z" fill="white"/>
<path d="M36.6672 34.8339C36.4087 34.8339 36.1539 34.7239 35.9705 34.5131C35.6405 34.1299 35.6864 33.5506 36.0714 33.2206L41.6759 28.4172L36.0714 23.6121C35.6864 23.2821 35.6424 22.7046 35.9705 22.3196C36.3042 21.9346 36.8817 21.8924 37.263 22.2206L43.6797 27.7206C43.885 27.8966 44.0005 28.1496 44.0005 28.4172C44.0005 28.6849 43.885 28.9379 43.6797 29.1139L37.263 34.6139C37.0907 34.7606 36.878 34.8339 36.6672 34.8339V34.8339Z" fill="white"/>
<path d="M35.7504 20.1691C35.2444 20.1691 34.8337 19.7584 34.8337 19.2524V11.1106L18.7535 19.1553C18.3062 19.3789 17.7507 19.1974 17.5234 18.7446C17.2997 18.2936 17.4812 17.7418 17.934 17.5163L35.3397 8.80793C35.6239 8.66493 35.9612 8.68143 36.2307 8.84827C36.5002 9.0151 36.667 9.31027 36.667 9.62743V19.2524C36.667 19.7584 36.2564 20.1691 35.7504 20.1691Z" fill="white"/>
<path d="M18.3223 36.6684C18.1757 36.6684 18.029 36.6317 17.8952 36.562L0.4895 27.3954C0.188833 27.2359 0 26.926 0 26.585V9.62669C0 9.30952 0.165 9.01436 0.4345 8.84752C0.702167 8.68069 1.04133 8.66602 1.3255 8.80719L18.7312 17.5155C19.041 17.6714 19.2372 17.9885 19.2372 18.335V35.7517C19.2372 36.0725 19.0685 36.3714 18.7953 36.5364C18.6505 36.6244 18.4873 36.6684 18.3223 36.6684ZM1.83333 26.0314L17.4057 34.2337V18.9015L1.83333 11.1099V26.0314Z" fill="white"/>
<path d="M35.7496 10.5407C35.6121 10.5407 35.4728 10.5096 35.339 10.4436L18.322 1.94058L1.32698 10.4436C0.877809 10.6691 0.324142 10.4876 0.0968092 10.0347C-0.128691 9.58192 0.0528092 9.03008 0.505643 8.80458L17.9113 0.09625C18.1698 -0.0320833 18.4741 -0.0320833 18.7308 0.09625L36.1585 8.80458C36.6113 9.03192 36.7946 9.58192 36.5691 10.0347C36.4078 10.3556 36.0851 10.5407 35.7496 10.5407Z" fill="white"/>
<path d="M9.24479 21.5205C8.73879 21.5205 8.32812 21.1099 8.32812 20.6039V13.7875C8.32812 13.441 8.52429 13.1239 8.83412 12.968L26.2398 4.25969C26.689 4.03603 27.2426 4.21753 27.47 4.67036C27.6955 5.12319 27.5121 5.67319 27.0593 5.90053L10.1615 14.3559V20.6057C10.1615 21.1117 9.75079 21.5205 9.24479 21.5205V21.5205Z" fill="white"/>
<path d="M18.3226 36.666C17.9926 36.666 17.6755 36.4882 17.5123 36.1747C17.2758 35.7273 17.4481 35.1737 17.8973 34.9372L25.2416 31.0743C25.6871 30.8397 26.2426 31.0083 26.4791 31.4593C26.7156 31.9067 26.5433 32.4603 26.0941 32.6968L18.7498 36.5597C18.6123 36.6312 18.4675 36.666 18.3226 36.666Z" fill="white"/>
</g>
<defs>
<clipPath id="clip0_141_572">
<rect width="44" height="44" fill="white"/>
</clipPath>
</defs>
</svg>
