<?xml version="1.0" encoding="UTF-8"?>
<svg width="67" height="67" viewBox="0 0 67 67" fill="none" xmlns="http://www.w3.org/2000/svg">
<path d="M0 50.25C0 22.4977 22.4977 0 50.25 0V0C59.5008 0 67 7.49923 67 16.75V37C67 53.5685 53.5685 67 37 67H16.75C7.49923 67 0 59.5008 0 50.25V50.25Z" fill="#C0D0FF"/>
<path d="M35.855 53.2413H20.345C18.9184 53.2413 17.76 52.0845 17.76 50.6563V36.8702C17.76 35.442 18.9184 34.2852 20.345 34.2852H35.855C37.2832 34.2852 38.44 35.442 38.44 36.8702V50.6563C38.44 52.0845 37.2832 53.2413 35.855 53.2413ZM20.345 36.0074C19.87 36.0074 19.4839 36.3935 19.4839 36.8701V50.6563C19.4839 50.8841 19.5744 51.1038 19.7359 51.2654C19.8975 51.427 20.1172 51.5174 20.345 51.5174H35.8551C36.0845 51.5174 36.3026 51.4269 36.4642 51.2654C36.6257 51.1038 36.7178 50.8841 36.7178 50.6563V36.8701C36.7178 36.6407 36.6257 36.4226 36.4642 36.261C36.3026 36.0995 36.0845 36.0074 35.8551 36.0074L20.345 36.0074Z" fill="#0F2851"/>
<path d="M29.8238 42.9013H26.3777C25.4261 42.9013 24.6538 42.129 24.6538 41.1774V35.1463C24.6538 34.6697 25.0399 34.2852 25.5149 34.2852C25.9915 34.2852 26.3777 34.6697 26.3777 35.1463V41.1774H29.8238V35.1463C29.8238 34.6697 30.2099 34.2852 30.6849 34.2852C31.1615 34.2852 31.5476 34.6697 31.5476 35.1463V41.1774C31.5476 41.6346 31.3651 42.0741 31.0419 42.3972C30.7188 42.7203 30.281 42.9013 29.8237 42.9013H29.8238Z" fill="#0F2851"/>
<path d="M26.3777 48.0715H25.5149C25.0399 48.0715 24.6538 47.6854 24.6538 47.2104C24.6538 46.7338 25.0399 46.3477 25.5149 46.3477H26.3777C26.8526 46.3477 27.2388 46.7338 27.2388 47.2104C27.2388 47.6854 26.8526 48.0715 26.3777 48.0715Z" fill="#0F2851"/>
<path d="M30.6851 48.0715H29.824C29.3474 48.0715 28.9629 47.6854 28.9629 47.2104C28.9629 46.7338 29.3474 46.3477 29.824 46.3477H30.6851C31.1617 46.3477 31.5479 46.7338 31.5479 47.2104C31.5479 47.6854 31.1617 48.0715 30.6851 48.0715Z" fill="#0F2851"/>
<path d="M54.8128 53.2413H39.3028C37.8746 53.2413 36.7178 52.0845 36.7178 50.6563V36.8702C36.7178 35.442 37.8746 34.2852 39.3028 34.2852H54.8128C56.2394 34.2852 57.3978 35.442 57.3978 36.8702V50.6563C57.3978 52.0845 56.2394 53.2413 54.8128 53.2413ZM39.3028 36.0074C38.8262 36.0074 38.44 36.3935 38.44 36.8701V50.6563C38.44 50.8841 38.5321 51.1038 38.6937 51.2654C38.8553 51.4269 39.0734 51.5174 39.3028 51.5174H54.8128C55.0406 51.5174 55.2604 51.4269 55.422 51.2654C55.5835 51.1038 55.674 50.8841 55.674 50.6563V36.8701C55.674 36.6407 55.5835 36.4226 55.422 36.261C55.2604 36.0995 55.0407 36.0074 54.8128 36.0074L39.3028 36.0074Z" fill="#0F2851"/>
<path d="M48.7801 42.9013H45.334C44.3824 42.9013 43.6101 42.129 43.6101 41.1774V35.1463C43.6101 34.6697 43.9962 34.2852 44.4728 34.2852C44.9478 34.2852 45.334 34.6697 45.334 35.1463V41.1774H48.7801V35.1463C48.7801 34.6697 49.1662 34.2852 49.6428 34.2852C50.1178 34.2852 50.5039 34.6697 50.5039 35.1463V41.1774C50.5039 41.6346 50.323 42.0741 49.9998 42.3972C49.6767 42.7203 49.2372 42.9013 48.78 42.9013H48.7801Z" fill="#0F2851"/>
<path d="M45.334 48.0715H44.4728C43.9962 48.0715 43.6101 47.6854 43.6101 47.2104C43.6101 46.7338 43.9962 46.3477 44.4728 46.3477H45.334C45.8105 46.3477 46.1951 46.7338 46.1951 47.2104C46.1951 47.6854 45.8106 48.0715 45.334 48.0715Z" fill="#0F2851"/>
<path d="M49.6428 48.0715H48.7801C48.3051 48.0715 47.9189 47.6854 47.9189 47.2104C47.9189 46.7338 48.3051 46.3477 48.7801 46.3477H49.6428C50.1178 46.3477 50.5039 46.7338 50.5039 47.2104C50.5039 47.6854 50.1178 48.0715 49.6428 48.0715Z" fill="#0F2851"/>
<path d="M41.0249 36.007C40.55 36.007 40.1638 35.6224 40.1638 35.1458C40.1638 34.6693 40.5499 34.2847 41.0249 34.2847C41.2544 34.2847 41.4724 34.1926 41.634 34.0311C41.7956 33.8695 41.8877 33.6514 41.8877 33.422V19.6358C41.8877 19.408 41.7956 19.1883 41.634 19.0267C41.4725 18.8652 41.2544 18.7747 41.0249 18.7747H25.5149C25.0399 18.7747 24.6538 19.1592 24.6538 19.6358V33.4219C24.6538 33.6514 24.7443 33.8695 24.9058 34.031C25.0674 34.1926 25.2871 34.2847 25.5149 34.2847C25.9915 34.2847 26.3777 34.6692 26.3777 35.1458C26.3777 35.6224 25.9915 36.0069 25.5149 36.0069C24.0883 36.0069 22.9299 34.8501 22.9299 33.4219V19.6358C22.9299 18.2076 24.0883 17.0508 25.5149 17.0508H41.025C42.4532 17.0508 43.61 18.2076 43.61 19.6358V33.4219C43.61 34.8501 42.4532 36.0069 41.025 36.0069L41.0249 36.007Z" fill="#0F2851"/>
<path d="M34.994 25.667H31.5479C30.5962 25.667 29.824 24.8963 29.824 23.9447V17.9119C29.824 17.4369 30.2101 17.0508 30.6851 17.0508C31.1617 17.0508 31.5478 17.4369 31.5478 17.9119V23.943H34.9939V17.9119C34.9939 17.4369 35.3801 17.0508 35.8551 17.0508C36.3317 17.0508 36.7178 17.4369 36.7178 17.9119V23.9447C36.7178 24.4019 36.5352 24.8398 36.2121 25.1629C35.8889 25.486 35.4511 25.667 34.9939 25.667H34.994Z" fill="#0F2851"/>
<path d="M31.5478 30.8375H30.6851C30.2101 30.8375 29.824 30.4529 29.824 29.9764C29.824 29.4998 30.2101 29.1152 30.6851 29.1152H31.5478C32.0228 29.1152 32.4089 29.4998 32.4089 29.9764C32.4089 30.4529 32.0228 30.8375 31.5478 30.8375Z" fill="#0F2851"/>
<path d="M35.855 30.8375H34.9939C34.5173 30.8375 34.1328 30.4529 34.1328 29.9764C34.1328 29.4998 34.5173 29.1152 34.9939 29.1152H35.855C36.3316 29.1152 36.7178 29.4998 36.7178 29.9764C36.7178 30.4529 36.3316 30.8375 35.855 30.8375Z" fill="#0F2851"/>
<path d="M52.2274 31.6999C51.7508 31.6999 51.3647 31.3138 51.3647 30.8372V14.466C51.3873 14.2301 51.3017 13.9959 51.1337 13.8278C50.964 13.6614 50.7297 13.579 50.4939 13.6049H41.0245C40.7886 13.5823 40.5543 13.6679 40.3879 13.8359C40.2199 14.0056 40.1375 14.2398 40.1633 14.4757V17.9122C40.1633 18.3888 39.7772 18.7749 39.3022 18.7749C38.8256 18.7749 38.4395 18.3888 38.4395 17.9122V14.466C38.4201 13.7745 38.685 13.1057 39.1746 12.6161C39.6641 12.1266 40.333 11.86 41.0245 11.881H50.5034C51.1949 11.86 51.8638 12.1266 52.3533 12.6161C52.8428 13.1056 53.1094 13.7745 53.0884 14.466V30.8372C53.0884 31.0666 52.9979 31.2847 52.8363 31.4463C52.6748 31.6079 52.455 31.7 52.2272 31.7L52.2274 31.6999Z" fill="#0F2851"/>
<path d="M48.7801 31.6994H46.1951C45.7201 31.6994 45.334 31.3133 45.334 30.8367C45.334 30.3617 45.7201 29.9756 46.1951 29.9756H48.7801C49.2567 29.9756 49.6428 30.3617 49.6428 30.8367C49.6428 31.3133 49.2567 31.6994 48.7801 31.6994Z" fill="#0F2851"/>
<path d="M52.2282 23.0823H47.9193C47.4589 23.092 47.0146 22.9143 46.6898 22.5896C46.3651 22.2632 46.1857 21.8189 46.1954 21.3601V18.775C46.1858 18.3146 46.3651 17.8703 46.6898 17.5455C47.0146 17.2192 47.4589 17.0414 47.9193 17.0512H52.2282C52.7032 17.0512 53.0893 17.4373 53.0893 17.9123C53.0893 18.3889 52.7032 18.775 52.2282 18.775H47.9193V21.36H52.2282C52.7032 21.36 53.0893 21.7445 53.0893 22.2211C53.0893 22.6977 52.7032 23.0822 52.2282 23.0822V23.0823Z" fill="#0F2851"/>
</svg>
