<?xml version="1.0" encoding="UTF-8"?>
<svg width="44" height="44" viewBox="0 0 44 44" fill="none" xmlns="http://www.w3.org/2000/svg">
<path d="M39.8867 7.9375H19.7734C19.1586 7.9375 18.6602 8.43595 18.6602 9.05078V13.1447L15.7589 11.8885C15.6193 11.828 15.4687 11.7969 15.3166 11.7969H11.9062H7.95559C5.22307 11.7969 3 14.0199 3 16.7524V24.0658C3 25.8948 4.48801 27.3828 6.31698 27.3828H7.7638L8.19591 39.742C8.21698 40.3414 8.70891 40.8164 9.30859 40.8164H15.6172C16.2184 40.8164 16.711 40.339 16.7299 39.7382L17.353 19.9359L18.6602 20.3058V39.7031C18.6602 40.318 19.1586 40.8164 19.7734 40.8164H39.8867C40.5015 40.8164 41 40.318 41 39.7031V9.05078C41 8.43595 40.5015 7.9375 39.8867 7.9375ZM10.3836 38.5898L9.99178 27.3828H14.8911L14.5384 38.5898H10.3836ZM16.5883 17.4054C15.8915 17.208 15.1951 17.7192 15.1725 18.4415L14.9612 25.1562H9.91392L9.67902 18.4377C9.65757 17.8231 9.1419 17.3425 8.52744 17.3639C7.91298 17.3855 7.43227 17.901 7.45372 18.5155L7.68602 25.1562H6.31698C5.71574 25.1562 5.22656 24.6671 5.22656 24.0658V16.7524C5.22656 15.2477 6.4508 14.0234 7.95559 14.0234H15.0859L19.3311 15.8615C19.6821 16.0135 20.0865 15.9746 20.4021 15.7586L23.2044 13.8412C23.5373 13.6135 23.9803 13.6774 24.2352 13.9899C24.5067 14.3226 24.4536 14.8124 24.1169 15.0792L19.9738 18.3635L16.5883 17.4054ZM38.7734 38.5898H20.8867V20.4788C20.8944 20.473 20.9027 20.4683 20.9103 20.4623L25.4999 16.8241C26.1333 16.322 26.5302 15.603 26.6174 14.7995C26.7047 13.9961 26.4713 13.2087 25.9604 12.5824C24.9843 11.3859 23.2215 11.1317 21.9471 12.0036L20.8867 12.7292V10.1641H38.7734V38.5898Z" fill="white"/>
<path d="M15.8027 7.89648C15.8027 5.74793 14.0547 4 11.9062 4C9.75777 4 8.00977 5.74793 8.00977 7.89648C8.00977 10.045 9.75777 11.793 11.9062 11.793C14.0547 11.793 15.8027 10.045 15.8027 7.89648ZM11.9062 9.56641C10.9855 9.56641 10.2363 8.81732 10.2363 7.89648C10.2363 6.97565 10.9855 6.22656 11.9062 6.22656C12.827 6.22656 13.5762 6.97565 13.5762 7.89648C13.5762 8.81732 12.827 9.56641 11.9062 9.56641Z" fill="white"/>
<path d="M24.9708 19.7324C24.5255 19.3085 23.8209 19.3258 23.3968 19.7711C22.9729 20.2164 22.9902 20.9211 23.4355 21.345L24.6787 22.5286C25.1086 22.9379 25.7839 22.9379 26.214 22.5286L28.372 20.4743C28.8173 20.0504 28.8346 19.3457 28.4107 18.9003C27.9868 18.455 27.2821 18.4377 26.8367 18.8616L25.4464 20.1851L24.9708 19.7324Z" fill="white"/>
<path d="M27.2421 29.9355C26.8074 29.5007 26.1024 29.5007 25.6677 29.9355L25.336 30.2671L25.0099 29.9409C24.5752 29.5062 23.8702 29.5062 23.4355 29.9409C23.0007 30.3757 23.0007 31.0806 23.4355 31.5153L23.7615 31.8414L23.4373 32.1656C23.0025 32.6004 23.0025 33.3052 23.4373 33.74C23.872 34.1748 24.5769 34.1748 25.0117 33.74L25.3359 33.4158L25.6602 33.7401C26.0949 34.1748 26.7998 34.1748 27.2346 33.7401C27.6693 33.3053 27.6693 32.6004 27.2346 32.1657L26.9104 31.8415L27.242 31.5099C27.6769 31.0751 27.6769 30.3702 27.2421 29.9355Z" fill="white"/>
<path d="M30.9062 20.6953H35.3594C35.9742 20.6953 36.4727 20.1969 36.4727 19.582C36.4727 18.9672 35.9742 18.4688 35.3594 18.4688H30.9062C30.2914 18.4688 29.793 18.9672 29.793 19.582C29.793 20.1969 30.2914 20.6953 30.9062 20.6953Z" fill="white"/>
<path d="M30.9062 25.1484H35.3594C35.9742 25.1484 36.4727 24.65 36.4727 24.0352C36.4727 23.4203 35.9742 22.9219 35.3594 22.9219H30.9062C30.2914 22.9219 29.793 23.4203 29.793 24.0352C29.793 24.65 30.2914 25.1484 30.9062 25.1484Z" fill="white"/>
<path d="M30.9062 31.8359H35.3594C35.9742 31.8359 36.4727 31.3375 36.4727 30.7227C36.4727 30.1078 35.9742 29.6094 35.3594 29.6094H30.9062C30.2914 29.6094 29.793 30.1078 29.793 30.7227C29.793 31.3375 30.2914 31.8359 30.9062 31.8359Z" fill="white"/>
<path d="M30.9062 36.2891H35.3594C35.9742 36.2891 36.4727 35.7906 36.4727 35.1758C36.4727 34.561 35.9742 34.0625 35.3594 34.0625H30.9062C30.2914 34.0625 29.793 34.561 29.793 35.1758C29.793 35.7906 30.2914 36.2891 30.9062 36.2891Z" fill="white"/>
<path d="M30.9062 14.6172H35.3594C35.9742 14.6172 36.4727 14.1187 36.4727 13.5039C36.4727 12.8891 35.9742 12.3906 35.3594 12.3906H30.9062C30.2914 12.3906 29.793 12.8891 29.793 13.5039C29.793 14.1187 30.2914 14.6172 30.9062 14.6172Z" fill="white"/>
</svg>
