<?xml version="1.0" encoding="UTF-8"?>
<svg width="44" height="44" viewBox="0 0 44 44" fill="none" xmlns="http://www.w3.org/2000/svg">
<path d="M19.3196 40.3052C17.605 40.3052 16.2109 38.9111 16.2109 37.1965V35.6429C16.2109 35.2135 16.5583 34.8661 16.9877 34.8661C17.4172 34.8661 17.7645 35.2135 17.7645 35.6429V37.1965C17.7645 38.0538 18.4623 38.7516 19.3196 38.7516C20.1769 38.7516 20.8748 38.0538 20.8748 37.1965C20.8748 36.7671 21.2221 36.4197 21.6516 36.4197C22.081 36.4197 22.4283 36.7671 22.4283 37.1965C22.4283 38.9111 21.0343 40.3052 19.3197 40.3052H19.3196Z" fill="white"/>
<path d="M33.3086 21.6534C33.1586 21.6534 33.0086 21.6108 32.8776 21.5239L32.6944 21.4024C32.5081 21.2792 32.385 21.0819 32.355 20.8608C31.474 14.4223 28.5169 8.7437 24.8208 6.39101C24.505 6.1905 24.3771 5.79105 24.5177 5.4437C24.6582 5.09636 25.026 4.899 25.3939 4.9732C33.4709 6.62939 39.3205 12.834 40.2978 20.7817C40.3341 21.0832 40.192 21.3785 39.9347 21.5379C39.6758 21.6958 39.3474 21.6911 39.0964 21.5221C37.9454 20.7533 34.8921 20.7548 33.7394 21.5221C33.61 21.609 33.46 21.6532 33.3084 21.6532L33.3086 21.6534ZM28.4189 7.51052C30.9923 10.4708 32.9566 14.9073 33.7661 19.7966C35.1365 19.3072 37.0485 19.2551 38.539 19.6356C37.4133 14.1194 33.6558 9.67025 28.4189 7.51035V7.51052Z" fill="white"/>
<path d="M9.99384 21.6535C9.84386 21.6535 9.69229 21.6109 9.56283 21.5225C8.41186 20.7536 5.36023 20.7552 4.20752 21.5225C3.95491 21.6898 3.62652 21.6962 3.36918 21.5383C3.11026 21.3788 2.96817 21.0836 3.00606 20.782C3.9802 12.8343 9.82973 6.62784 17.9067 4.97194C18.2746 4.89774 18.6425 5.09351 18.783 5.44244C18.9235 5.78978 18.7956 6.18923 18.4799 6.38974C14.7855 8.74216 11.8284 14.4211 10.9457 20.8596C10.9157 21.0806 10.7925 21.2764 10.6062 21.4011L10.4231 21.5227C10.2936 21.6095 10.1436 21.6537 9.99364 21.6537L9.99384 21.6535ZM6.8836 19.3848C7.82456 19.3848 8.76552 19.5221 9.53442 19.7953C10.3459 14.9072 12.3084 10.471 14.8816 7.51038C9.64475 9.67021 5.88715 14.1194 4.76314 19.634C5.41519 19.4682 6.14934 19.3845 6.88348 19.3845L6.8836 19.3848Z" fill="white"/>
<path d="M21.6522 21.6518C21.4801 21.6518 21.308 21.595 21.1675 21.4813C19.1703 19.8836 13.1535 19.702 10.948 21.1719L10.6085 21.3992C10.3543 21.5698 10.0244 21.5745 9.76388 21.4119C9.50496 21.2508 9.36444 20.9509 9.40549 20.6477C10.3464 13.7768 13.5798 7.66365 17.6438 5.07774C17.7243 5.02722 17.8127 4.99091 17.9059 4.97196C19.1831 4.70988 20.4398 4.56937 21.6413 4.55356C22.8617 4.56935 24.1185 4.71144 25.3973 4.97196C25.4905 4.99091 25.5789 5.02722 25.6594 5.07774C29.725 7.66538 32.9584 13.7768 33.8977 20.6477C33.9387 20.9509 33.7998 21.2508 33.5393 21.4119C33.2804 21.5745 32.9504 21.5697 32.6946 21.3992L32.3552 21.1719C30.1512 19.702 24.1343 19.8852 22.1373 21.4813C21.9968 21.595 21.8247 21.6518 21.6526 21.6518H21.6522ZM15.6542 18.6158C17.9135 18.6158 20.2154 19.0642 21.6538 19.9325C24.1215 18.4421 29.1452 18.188 32.1053 19.32C31.0097 13.5969 28.2878 8.66917 24.9438 6.46683C23.8102 6.24263 22.7019 6.12265 21.6425 6.10844C20.6036 6.12265 19.4953 6.24263 18.3617 6.46683C15.0178 8.66925 12.2975 13.5969 11.2002 19.32C12.4364 18.8463 14.0325 18.6158 15.6542 18.6158H15.6542Z" fill="white"/>
<path d="M21.6537 37.9752C21.2243 37.9752 20.877 37.6279 20.877 37.1984V3.77687C20.877 3.34744 21.2243 3.00009 21.6537 3.00009C22.0832 3.00009 22.4305 3.34743 22.4305 3.77687V37.1984C22.4305 37.6279 22.0832 37.9752 21.6537 37.9752Z" fill="white"/>
</svg>
