<?xml version="1.0" encoding="UTF-8"?>
<svg width="67" height="67" viewBox="0 0 67 67" fill="none" xmlns="http://www.w3.org/2000/svg">
<path d="M0 50.25C0 22.4977 22.4977 0 50.25 0V0C59.5008 0 67 7.49923 67 16.75V37C67 53.5685 53.5685 67 37 67H16.75C7.49923 67 0 59.5008 0 50.25V50.25Z" fill="#C0D0FF"/>
<path d="M46.6367 45.4128C45.0744 45.4128 43.8025 44.141 43.8025 42.5786C43.8025 42.1043 44.1892 41.7158 44.6653 41.7158C45.1396 41.7158 45.5281 42.1025 45.5281 42.5786C45.5281 43.1905 46.0248 43.6923 46.6418 43.6923C47.2571 43.6923 47.7504 43.1956 47.7504 42.5786C47.7504 42.1043 48.1371 41.7158 48.6132 41.7158C49.0876 41.7158 49.476 42.1025 49.476 42.5786C49.476 44.141 48.2041 45.4128 46.6418 45.4128H46.6367Z" fill="#0F2851"/>
<path d="M54.526 45.4127C52.9636 45.4127 51.6917 44.1408 51.6917 42.5785C51.6917 42.1041 52.0785 41.7157 52.5545 41.7157C53.0289 41.7157 53.4173 42.1024 53.4173 42.5785C53.4173 43.1904 53.914 43.6922 54.5259 43.6922C55.0983 43.6922 55.5692 43.2608 55.6311 42.7074L53.9501 37.7833C53.9243 37.7077 53.8573 37.6596 53.7783 37.6596H43.433C43.3573 37.6596 43.2886 37.7077 43.2611 37.7833L41.5802 42.7074C41.642 43.2625 42.113 43.6922 42.6853 43.6922C43.2972 43.6922 43.799 43.1955 43.799 42.5785C43.799 42.1041 44.1858 41.7157 44.6618 41.7157C45.1362 41.7157 45.5246 42.1024 45.5246 42.5785C45.5246 44.1408 44.2528 45.4127 42.6904 45.4127C41.1281 45.4127 39.8562 44.1408 39.8562 42.5785C39.8562 42.4822 39.8734 42.3894 39.9009 42.3018L41.6351 37.2246C41.8998 36.4546 42.62 35.9355 43.4346 35.9355H53.7799C54.5946 35.9355 55.3199 36.4546 55.5794 37.2246L57.3136 42.3018C57.3446 42.3894 57.3583 42.4874 57.3583 42.5785C57.3583 44.1408 56.0864 45.4127 54.5241 45.4127H54.526Z" fill="#0F2851"/>
<path d="M46.7551 51.8542C46.2808 51.8542 45.8923 51.4675 45.8923 50.9914V48.6951C45.8923 47.1998 47.1109 45.9795 48.608 45.9795C49.0823 45.9795 49.4708 46.3662 49.4708 46.8423C49.4708 47.3167 49.084 47.7051 48.608 47.7051C48.0631 47.7051 47.618 48.1502 47.618 48.6951V50.9914C47.618 51.4657 47.2312 51.8542 46.7552 51.8542L46.7551 51.8542Z" fill="#0F2851"/>
<path d="M50.5796 45.4128C49.0172 45.4128 47.7454 44.141 47.7454 42.5786C47.7454 42.1043 48.1321 41.7158 48.6082 41.7158C49.0825 41.7158 49.471 42.1025 49.471 42.5786C49.471 43.1905 49.9677 43.6923 50.5847 43.6923C51.2 43.6923 51.6984 43.1956 51.6984 42.5786C51.6984 42.1043 52.0851 41.7158 52.5612 41.7158C53.0356 41.7158 53.424 42.1025 53.424 42.5786C53.424 44.141 52.1521 45.4128 50.5898 45.4128H50.5796Z" fill="#0F2851"/>
<path d="M54.2888 51.8542H42.9245C42.0359 51.8542 41.3088 51.1324 41.3088 50.2386V44.479C41.3088 44.0046 41.6956 43.6162 42.1716 43.6162C42.646 43.6162 43.0344 44.0029 43.0344 44.479V50.1286H54.1788V44.479C54.1788 44.0046 54.5655 43.6162 55.0415 43.6162C55.5159 43.6162 55.9043 44.0029 55.9043 44.479V50.2386C55.9043 51.1272 55.1825 51.8542 54.2887 51.8542H54.2888Z" fill="#0F2851"/>
<path d="M50.461 51.8541C49.9866 51.8541 49.5982 51.4674 49.5982 50.9914V48.6951C49.5982 48.1502 49.153 47.7051 48.6082 47.7051C48.1338 47.7051 47.7454 47.3184 47.7454 46.8423C47.7454 46.3679 48.1321 45.9795 48.6082 45.9795C50.1035 45.9795 51.3238 47.1981 51.3238 48.6951V50.9914C51.3238 51.4658 50.9371 51.8542 50.461 51.8542L50.461 51.8541Z" fill="#0F2851"/>
<path d="M38.1153 45.4829H19.5029C19.2485 45.4829 19.0096 45.3729 18.848 45.1787C18.6848 44.9845 18.6143 44.7301 18.6538 44.4792L19.0594 42.0248C19.4204 39.8385 21.0532 38.0992 23.2137 37.6024L26.0204 36.951C27.0585 36.7086 27.7855 35.7977 27.7855 34.7338V33.3485C25.3518 31.7122 23.865 28.9313 23.865 25.9837V22.8556C23.865 18.0552 27.7718 14.1484 32.5722 14.1484C37.3726 14.1484 41.2794 18.0552 41.2794 22.8556V25.9837C41.2794 28.9314 39.7875 31.7125 37.3589 33.3485V34.7338C37.3589 35.7994 38.0842 36.7086 39.124 36.951C39.5864 37.0558 39.8768 37.5233 39.7703 37.9857C39.6655 38.448 39.1979 38.7385 38.7356 38.6319C36.9103 38.2091 35.6384 36.6072 35.6384 34.7338V32.8724C35.6384 32.5682 35.7965 32.288 36.0612 32.1333C38.2217 30.8477 39.564 28.4947 39.564 25.9821V22.854C39.564 19.004 36.4307 15.8707 32.5808 15.8707C28.7308 15.8707 25.5975 19.004 25.5975 22.854V25.9821C25.5975 28.4949 26.9399 30.8481 29.1003 32.1333C29.3598 32.288 29.5231 32.5682 29.5231 32.8724V34.7338C29.5231 36.6038 28.2478 38.2091 26.4259 38.6319L23.6192 39.2834C22.1411 39.6271 21.0273 40.8148 20.7816 42.3101L20.5392 43.7624H38.115C38.5894 43.7624 38.9778 44.1491 38.9778 44.6252C38.9778 45.0996 38.5911 45.488 38.115 45.488L38.1153 45.4829Z" fill="#0F2851"/>
</svg>
