<?xml version="1.0" encoding="UTF-8"?>
<svg width="44" height="44" viewBox="0 0 44 44" fill="none" xmlns="http://www.w3.org/2000/svg">
<path d="M26.2967 3.10633C26.1437 3.04789 25.9753 3.04789 25.824 3.10633C7.75498 10.057 34.7666 -0.329459 9.86215 9.24565H9.86043L9.85527 9.24737C9.85011 9.24909 9.84668 9.25252 9.84324 9.25424C9.59058 9.35737 9.4359 9.61862 9.4359 9.85924V25.3231C9.38262 25.3523 9.32933 25.3815 9.28465 25.4279L7.48513 27.2343C7.24795 27.4732 7.22904 27.853 7.44217 28.1143L8.63496 29.5735C8.39778 30.0152 8.20527 30.481 8.05918 30.9675L6.17545 31.1617C5.84029 31.196 5.58594 31.4779 5.58594 31.8148V34.3568C5.58594 34.6937 5.84203 34.9773 6.17721 35.01L8.05236 35.1973C8.19673 35.682 8.39267 36.1512 8.63329 36.5964L7.44049 38.0556C7.22737 38.3168 7.24627 38.6967 7.48346 38.9356L9.28297 40.742C9.52188 40.9809 9.90346 40.9998 10.1647 40.7867L11.6239 39.5904C12.0691 39.831 12.5366 40.0253 13.023 40.1714L13.2103 42.0465C13.2447 42.3817 13.5266 42.6378 13.8635 42.6378H16.4124C16.7492 42.6378 17.0311 42.3817 17.0655 42.0465L17.2529 40.1714C17.7393 40.0253 18.2051 39.8328 18.6468 39.5921L20.1043 40.7884C20.3638 41.0033 20.7454 40.9843 20.9843 40.7454L22.7907 38.939C23.0296 38.7001 23.0485 38.3185 22.8337 38.0573L21.6357 36.5981C21.878 36.1512 22.0705 35.6854 22.2132 35.2042L24.0935 35.0117C24.1536 35.0048 24.2069 34.9824 24.2619 34.9618L25.8243 35.5617C25.8311 35.5634 25.838 35.5634 25.8432 35.5651C25.9961 35.6184 26.1233 35.6184 26.2763 35.5651C26.2832 35.5634 26.29 35.5634 26.2952 35.5617L42.2641 29.4188C42.5185 29.3191 42.6869 29.0751 42.6869 28.8035V9.86109V9.85937C42.6869 9.63765 42.5512 9.37123 42.2847 9.25952C42.2779 9.25608 42.2727 9.25092 42.2658 9.24921L26.2967 3.10633ZM32.5513 17.2845V14.2457C32.5513 13.9914 32.4052 13.761 32.1749 13.6527L31.6042 13.3829C31.6025 13.3812 31.5991 13.3829 31.5974 13.3812C31.5939 13.3795 31.5922 13.3777 31.5905 13.376L18.2255 7.43777L20.7692 6.45979L35.5382 12.5511V15.9405L32.5513 17.2845ZM16.4913 8.10297L21.663 10.401L29.609 13.933L26.0598 15.2994L11.9195 9.86143L16.4913 8.10297ZM26.0595 4.42312L40.2016 9.86284L36.2003 11.4046L22.5515 5.77387L26.0595 4.42312ZM21.6252 33.9427C21.345 33.9719 21.113 34.1765 21.0511 34.4532C20.905 35.1046 20.6472 35.7285 20.2811 36.3112C20.1316 36.5501 20.1505 36.8578 20.3293 37.0761L21.4395 38.4287L20.4753 39.3929L19.1227 38.2843C18.9044 38.1039 18.5933 38.0867 18.3544 38.2379C17.7872 38.5972 17.1616 38.8584 16.4947 39.0131C16.2214 39.0767 16.0169 39.307 15.9894 39.5872L15.8158 41.3231H14.4545L14.2809 39.5872C14.2534 39.307 14.0489 39.0767 13.7756 39.0131C13.1105 38.8601 12.4814 38.5989 11.9056 38.2362C11.6685 38.0867 11.3574 38.1056 11.1408 38.2843L9.78986 39.3929L8.82908 38.4287L9.93423 37.0761C10.113 36.8578 10.1319 36.5501 9.98235 36.3112C9.62142 35.7337 9.36015 35.1064 9.20721 34.4429C9.14361 34.1679 8.9133 33.9651 8.63314 33.9376L6.89721 33.764V32.408L8.64172 32.2292C8.92015 32.2 9.15045 31.9972 9.21407 31.7239C9.36876 31.057 9.62657 30.4297 9.98407 29.8608C10.1336 29.6219 10.1147 29.3142 9.93594 29.0959L8.83079 27.7433L9.79158 26.7808L11.1425 27.8894C11.3591 28.0681 11.6702 28.087 11.9074 27.9375C12.4969 27.5679 13.1242 27.3067 13.7722 27.1623C14.0489 27.1005 14.2552 26.8684 14.2827 26.5865L14.4563 24.8506H15.8176L15.9912 26.5865C16.0187 26.8684 16.2249 27.1005 16.5016 27.1623C17.1514 27.3067 17.7752 27.568 18.3562 27.9358C18.5933 28.087 18.9044 28.0681 19.1244 27.8894L20.4771 26.7808L21.4413 27.745L20.3327 29.0959C20.2434 29.2042 20.1935 29.3366 20.1849 29.4706C20.1763 29.6047 20.209 29.7422 20.2846 29.8608C20.6559 30.4555 20.9171 31.0811 21.0597 31.7239C21.1199 32.0006 21.3537 32.2069 21.6355 32.2361L23.3715 32.4097V33.7658L21.6252 33.9427ZM24.0933 31.1601L22.2199 30.9727C22.079 30.4949 21.883 30.0257 21.6372 29.5737L22.8335 28.1145C22.9401 27.9838 22.9899 27.824 22.9813 27.6659C22.9727 27.5078 22.9091 27.3531 22.7906 27.2327L20.9841 25.4263C20.7452 25.1874 20.3636 25.1702 20.1041 25.3834L18.6466 26.5813C18.1998 26.3373 17.734 26.1431 17.2527 26.0004L17.0654 24.127C17.031 23.7918 16.7491 23.5357 16.4122 23.5357H13.8633C13.5264 23.5357 13.2446 23.7918 13.2102 24.127L13.0228 26.0004C12.5433 26.1431 12.0758 26.3373 11.6238 26.5831L10.7489 25.8663L10.7472 10.8188L25.4032 16.4561V33.9909L24.683 33.7142V31.8133C24.6847 31.4764 24.4286 31.1946 24.0935 31.1602L24.0933 31.1601ZM41.3735 28.3534L26.7175 33.9906L26.7158 16.4544L31.2377 14.7134V18.3004C31.2377 18.8057 31.7584 19.0807 32.1641 18.9002L36.4626 16.9649C36.6981 16.8584 36.8494 16.6246 36.8494 16.3651V12.5598L41.373 10.8187L41.3735 28.3534Z" fill="white"/>
<path d="M15.1338 29.7266C13.2879 29.7266 11.7754 31.2305 11.7754 33.085C11.7754 34.9378 13.2827 36.4434 15.1338 36.4434C16.9866 36.4434 18.4923 34.9361 18.4923 33.085C18.4923 31.2666 17.0227 29.7266 15.1338 29.7266V29.7266ZM15.1338 35.1302C14.0063 35.1302 13.0885 34.2124 13.0885 33.0849C13.0885 31.9488 14.0201 31.0396 15.1338 31.0396C16.2871 31.0396 17.1791 31.9849 17.1791 33.0849C17.1791 34.2124 16.2613 35.1302 15.1338 35.1302Z" fill="white"/>
<path d="M28.3745 29.5019L33.5687 27.6508C33.9107 27.5288 34.0877 27.1541 33.9674 26.8121C33.8454 26.4701 33.4707 26.2913 33.1287 26.4134L27.9345 28.2644C27.5925 28.3865 27.4154 28.7612 27.5357 29.1032C27.6561 29.4418 28.0273 29.6257 28.3745 29.5019V29.5019Z" fill="white"/>
<path d="M33.1287 28.8352L27.9345 30.6863C27.5925 30.8084 27.4154 31.183 27.5357 31.525C27.6561 31.8619 28.029 32.0458 28.3745 31.9238L33.5687 30.0727C33.9107 29.9507 34.0877 29.576 33.9674 29.234C33.8454 28.892 33.4707 28.7132 33.1287 28.8352V28.8352Z" fill="white"/>
<path d="M4.40953 11.9236C4.53328 12.0783 4.72235 12.1694 4.92174 12.1694C5.12113 12.1694 5.30846 12.0783 5.43394 11.9236L8.38502 8.24891C8.54315 8.05125 8.57409 7.78141 8.4658 7.55454C8.35752 7.32767 8.12721 7.18157 7.87453 7.18157H7.0736C7.16125 6.41844 7.38641 5.74814 7.5858 5.57456C8.07222 5.14831 8.99688 4.88363 10.0986 4.84755C10.1089 4.84755 10.1588 4.84239 10.1691 4.84239C10.5197 4.8252 10.7947 4.53645 10.7947 4.18582V2.02533C10.7947 1.6919 10.5077 1.40832 10.1777 1.36877C10.1485 1.36533 10.0643 1.35673 10.0264 1.36017C8.52943 1.39283 6.40674 1.72799 4.79968 3.13909C3.65841 4.15144 2.99326 5.53846 2.85404 7.17988L1.9689 7.1816C1.71624 7.1816 1.48591 7.32597 1.37762 7.55457C1.26762 7.78144 1.29856 8.053 1.4584 8.24893L4.40953 11.9236ZM3.47968 8.49469C3.84234 8.49469 4.13625 8.20078 4.13625 7.83812C4.13625 6.29641 4.66561 5.01077 5.66595 4.12562C6.79345 3.13562 8.28875 2.79532 9.47987 2.70077V3.57047C8.55174 3.66157 7.47237 3.92282 6.71786 4.58454C5.92723 5.27547 5.71928 7.01484 5.71928 7.83641C5.71928 8.19906 6.01319 8.49297 6.37585 8.49297H6.50304L4.92176 10.4627L3.34049 8.49297L3.47968 8.49469Z" fill="white"/>
</svg>
