<?xml version="1.0" encoding="UTF-8"?>
<svg width="44" height="44" viewBox="0 0 44 44" fill="none" xmlns="http://www.w3.org/2000/svg">
<path d="M29.2067 28.3575C29.2617 28.2957 29.3184 28.2389 29.3717 28.1753C29.6106 27.89 29.8323 27.5893 30.0385 27.2781C30.0471 27.2644 30.0592 27.2541 30.066 27.2403C30.0746 27.2266 30.0798 27.2111 30.0884 27.1956C31.056 25.6951 31.625 23.9146 31.625 21.9997C31.625 20.0848 31.056 18.3044 30.0884 16.8024C30.0798 16.7886 30.0764 16.7715 30.066 16.7577C30.0575 16.744 30.0454 16.7336 30.0385 16.7199C29.8323 16.4071 29.6106 16.108 29.3717 15.8227C29.3184 15.7591 29.2617 15.7024 29.2067 15.6405C29.0245 15.4343 28.8372 15.2366 28.6378 15.0458C28.5381 14.9496 28.4349 14.8585 28.3318 14.7674C28.1634 14.6196 27.9898 14.4786 27.811 14.3446C27.6976 14.2586 27.5876 14.171 27.4707 14.0902C27.2404 13.9303 27.0015 13.7825 26.7557 13.6433C26.6492 13.5814 26.5409 13.523 26.4309 13.4646C26.1696 13.3288 25.9015 13.2033 25.6265 13.0899C25.5079 13.0418 25.3859 13.0005 25.2656 12.9575C25.0421 12.8768 24.8136 12.8011 24.5815 12.7375C24.4543 12.7032 24.3271 12.6688 24.2 12.6396C23.9542 12.5811 23.705 12.5364 23.4523 12.4986C23.3389 12.4814 23.2271 12.4608 23.112 12.4471C22.7459 12.4024 22.3764 12.3749 22 12.3749C21.6236 12.3749 21.254 12.4024 20.888 12.4436C20.7745 12.4574 20.6611 12.478 20.5477 12.4952C20.295 12.533 20.0458 12.5794 19.8 12.6378C19.6711 12.6688 19.5456 12.7014 19.4184 12.7358C19.1864 12.8011 18.9595 12.875 18.7344 12.9558C18.6141 13.0005 18.492 13.04 18.3734 13.0882C18.0984 13.1999 17.8303 13.3253 17.5691 13.4628C17.4591 13.5196 17.3525 13.5797 17.2442 13.6416C17.0002 13.7808 16.7595 13.9286 16.5292 14.0885C16.4124 14.1692 16.3024 14.2569 16.1889 14.3428C16.0102 14.4786 15.8366 14.6196 15.6681 14.7674C15.565 14.8585 15.4619 14.9496 15.3622 15.0458C15.1628 15.2349 14.9755 15.4342 14.7933 15.6405C14.7383 15.7024 14.6816 15.7591 14.6283 15.8227C14.3894 16.108 14.1676 16.4088 13.9614 16.7199C13.9528 16.7336 13.9408 16.744 13.9339 16.7577C13.9253 16.7715 13.9202 16.7869 13.9116 16.8024C12.9439 18.3046 12.375 20.0852 12.375 21.9997C12.375 23.9142 12.9439 25.695 13.9116 27.197C13.9202 27.2107 13.9236 27.2279 13.9339 27.2416C13.9425 27.2554 13.9545 27.2657 13.9614 27.2795C14.1677 27.5923 14.3894 27.8913 14.6283 28.1767C14.6816 28.2403 14.7383 28.297 14.7933 28.3588C14.9755 28.5651 15.1645 28.7645 15.3622 28.9535C15.4619 29.0498 15.565 29.1409 15.6681 29.232C15.8366 29.3798 16.0102 29.5207 16.1889 29.6565C16.3024 29.7425 16.4124 29.8301 16.5292 29.9109C16.7595 30.0707 16.9984 30.2185 17.2442 30.3578C17.3508 30.4196 17.4591 30.4781 17.5691 30.5365C17.8303 30.6723 18.0984 30.7978 18.3734 30.9112C18.492 30.9593 18.6141 31.0006 18.7344 31.0435C18.9595 31.1243 19.1864 31.1999 19.4184 31.2635C19.5456 31.2979 19.6728 31.3323 19.8 31.3615C20.0458 31.4199 20.295 31.4646 20.5477 31.5042C20.6611 31.5213 20.7728 31.542 20.888 31.5557C21.2541 31.597 21.6236 31.6245 22 31.6245C22.3764 31.6245 22.7459 31.597 23.112 31.5557C23.2254 31.542 23.3389 31.5213 23.4523 31.5042C23.705 31.4663 23.9542 31.4199 24.2 31.3632C24.3289 31.3323 24.456 31.2996 24.5815 31.2653C24.8135 31.1999 25.0404 31.126 25.2656 31.0453C25.3859 31.0006 25.5079 30.961 25.6265 30.9129C25.9015 30.8012 26.1697 30.6757 26.4309 30.5382C26.5409 30.4815 26.6474 30.4214 26.7557 30.3595C26.9998 30.2203 27.2404 30.0724 27.4707 29.9126C27.5876 29.8318 27.6976 29.7442 27.811 29.6582C27.9898 29.5225 28.1634 29.3832 28.3318 29.2354C28.435 29.1443 28.5381 29.0532 28.6378 28.957C28.8371 28.7628 29.0245 28.5634 29.2067 28.3571V28.3575ZM28.1737 27.4535C28.0362 27.6099 27.8953 27.7611 27.7474 27.9055C27.6615 27.988 27.5721 28.0653 27.4845 28.1461C27.3659 28.2527 27.2473 28.3575 27.1218 28.4555C27.017 28.538 26.9087 28.617 26.8004 28.6961C26.6818 28.7803 26.5632 28.8628 26.4412 28.9419C26.326 29.0158 26.2074 29.088 26.0888 29.1567C25.9617 29.2289 25.8328 29.2977 25.7021 29.363C25.5818 29.4231 25.4632 29.4833 25.3412 29.5383C25.1985 29.6019 25.0542 29.6569 24.9081 29.7119C24.9063 29.7119 24.9046 29.7136 24.9046 29.7136C25.3928 28.9849 25.8035 28.0756 26.1198 27.0272C26.8829 27.1062 27.6203 27.2008 28.2957 27.3228C28.2562 27.3658 28.2132 27.4087 28.1737 27.4534L28.1737 27.4535ZM18.6587 29.5366C18.5367 29.4816 18.4164 29.4232 18.2978 29.3613C18.1671 29.296 18.0382 29.2272 17.911 29.155C17.7907 29.0863 17.6738 29.0141 17.5587 28.9402C17.4367 28.8611 17.3163 28.7786 17.1995 28.6944C17.0912 28.6153 16.9829 28.5363 16.8781 28.4538C16.7543 28.3541 16.634 28.251 16.5154 28.1444C16.426 28.0653 16.3367 27.988 16.2524 27.9038C16.1046 27.7594 15.9637 27.6082 15.8262 27.4518C15.7867 27.4071 15.7437 27.3658 15.7059 27.3194C16.3814 27.1974 17.1187 27.1029 17.8818 27.0238C18.1981 28.0722 18.6088 28.9814 19.097 29.7102C19.0952 29.7102 19.0935 29.7085 19.0935 29.7085C18.9457 29.6552 18.8013 29.6002 18.6587 29.5366L18.6587 29.5366ZM13.7844 22.6876H17.2047C17.2408 23.7428 17.3542 24.7466 17.5415 25.6748C16.5773 25.7813 15.6715 25.9205 14.8465 26.0924C14.2605 25.0715 13.8875 23.9182 13.7843 22.6876L13.7844 22.6876ZM14.8466 17.9096C15.6716 18.0815 16.5774 18.2224 17.5416 18.3272C17.356 19.2554 17.2408 20.2591 17.2047 21.3145H13.7844C13.8875 20.0821 14.2605 18.9288 14.8466 17.9096L14.8466 17.9096ZM15.8263 16.5466C15.9638 16.3902 16.1047 16.2389 16.2525 16.0946C16.3385 16.0121 16.4278 15.9347 16.5155 15.854C16.6341 15.7474 16.7527 15.6426 16.8782 15.5446C16.983 15.4621 17.0913 15.383 17.1996 15.304C17.3182 15.2197 17.4368 15.1372 17.5588 15.0582C17.6739 14.9843 17.7925 14.9121 17.9111 14.8433C18.0383 14.7712 18.1672 14.7024 18.2978 14.6371C18.4182 14.5769 18.5368 14.5168 18.6588 14.4618C18.8014 14.3982 18.9458 14.3432 19.0919 14.2882C19.0936 14.2882 19.0954 14.2865 19.0954 14.2865C18.6072 15.0152 18.1964 15.9245 17.8802 16.9729C17.1171 16.8938 16.3797 16.7993 15.7043 16.6773C15.7438 16.6343 15.7868 16.5913 15.8263 16.5466L15.8263 16.5466ZM25.3413 14.4635C25.4633 14.5185 25.5836 14.5769 25.7022 14.6388C25.8328 14.7041 25.9617 14.7728 26.0889 14.845C26.2093 14.9138 26.3261 14.986 26.4413 15.0599C26.5633 15.1389 26.6836 15.2214 26.8005 15.3057C26.9088 15.3847 27.0171 15.4638 27.1219 15.5463C27.2457 15.646 27.366 15.7491 27.4846 15.8557C27.5739 15.9347 27.6633 16.0121 27.7475 16.0963C27.8953 16.2407 28.0363 16.3919 28.1738 16.5483C28.2133 16.593 28.2563 16.6342 28.2941 16.6806C27.6186 16.8027 26.8813 16.8972 26.1182 16.9763C25.8019 15.9278 25.3912 15.0186 24.903 14.2898C24.9047 14.2898 24.9065 14.2916 24.9065 14.2916C25.0543 14.3448 25.1986 14.3998 25.3413 14.4634L25.3413 14.4635ZM30.2156 21.3125H26.7953C26.7592 20.2572 26.6458 19.2534 26.4584 18.3253C27.4226 18.2187 28.3284 18.0795 29.1534 17.9076C29.7395 18.9286 30.1125 20.0819 30.2156 21.3125L30.2156 21.3125ZM18.578 21.3125C18.6159 20.2761 18.7344 19.3188 18.9166 18.4525C19.9118 18.5247 20.9482 18.5625 22.0001 18.5625C23.0519 18.5625 24.0884 18.5247 25.0835 18.4525C25.2657 19.317 25.3843 20.2761 25.4221 21.3125H18.578ZM25.4222 22.6875C25.3844 23.7239 25.2658 24.6812 25.0836 25.5475C24.0885 25.4753 23.0521 25.4375 22.0002 25.4375C20.9484 25.4375 19.9119 25.4753 18.9168 25.5475C18.7346 24.683 18.616 23.7239 18.5782 22.6875H25.4222ZM24.7244 17.0929C23.841 17.1496 22.9318 17.1874 22.0002 17.1874C21.0687 17.1874 20.1594 17.1496 19.276 17.0929C19.9532 15.0115 21.0102 13.7499 22.0002 13.7499C22.9902 13.7499 24.0472 15.0115 24.7244 17.0929ZM19.2759 26.9071C20.1594 26.8504 21.0686 26.8126 22.0001 26.8126C22.9317 26.8126 23.8409 26.8504 24.7244 26.9071C24.0472 28.9885 22.9901 30.2501 22.0001 30.2501C21.0101 30.2501 19.9531 28.9885 19.2759 26.9071ZM26.4585 25.6748C26.6441 24.7466 26.7593 23.7429 26.7954 22.6876H30.2157C30.1125 23.9182 29.7396 25.0715 29.1552 26.0907C28.3285 25.9188 27.4227 25.7796 26.4585 25.6748L26.4585 25.6748Z" fill="white"/>
<path d="M21.3533 40.5521L21.3086 41.9254C21.5372 41.934 21.7692 41.9374 21.9995 41.9374C22.2436 41.9374 22.4877 41.934 22.7317 41.9237L22.6802 40.5504C22.2402 40.5659 21.795 40.5659 21.3533 40.5521H21.3533Z" fill="white"/>
<path d="M15.7188 40.9271C16.1673 41.0749 16.6262 41.2107 17.0852 41.3258L17.4238 39.9938C16.9975 39.8855 16.5678 39.7601 16.1519 39.6208L15.7188 40.9271Z" fill="white"/>
<path d="M39.623 27.8454L40.9276 28.2785C41.0754 27.8299 41.2094 27.371 41.3263 26.9138L39.9943 26.5752C39.886 26.9997 39.7605 27.4277 39.623 27.8453V27.8454Z" fill="white"/>
<path d="M18.4785 41.6279C18.9443 41.7104 19.4187 41.7792 19.8879 41.8273L20.0323 40.4609C19.594 40.4145 19.1523 40.3526 18.7191 40.2753L18.4785 41.6279Z" fill="white"/>
<path d="M38.6094 30.2948L39.84 30.9101C40.0514 30.4873 40.2508 30.0508 40.4313 29.6142L39.1611 29.0883C38.991 29.4956 38.8071 29.9012 38.6094 30.2948H38.6094Z" fill="white"/>
<path d="M40.2735 25.2793L41.6278 25.5216C41.7103 25.0558 41.7774 24.5815 41.8272 24.1123L40.4591 23.9679C40.4127 24.4045 40.3508 24.8462 40.2734 25.2793L40.2735 25.2793Z" fill="white"/>
<path d="M40.5508 21.3193C40.5594 21.5444 40.5628 21.7713 40.5628 21.9999C40.5628 22.2147 40.5594 22.4296 40.5525 22.6444L41.9275 22.6925C41.9344 22.4622 41.9378 22.2319 41.9378 21.9999C41.9378 21.7558 41.9344 21.5118 41.9241 21.2694L40.5508 21.3193Z" fill="white"/>
<path d="M41.8211 19.8497C41.7712 19.3822 41.7042 18.9078 41.6183 18.4403L40.2656 18.6844C40.3447 19.1192 40.4066 19.5609 40.453 19.9941L41.8211 19.8497Z" fill="white"/>
<path d="M35.5938 34.6398L36.601 35.5748C36.9241 35.2276 37.2369 34.8667 37.5325 34.4989L36.4617 33.6361C36.185 33.9799 35.8928 34.3167 35.5938 34.6398Z" fill="white"/>
<path d="M24.0039 40.4558L24.1517 41.8222C24.6244 41.7706 25.097 41.7019 25.5594 41.6194L25.3153 40.265C24.8856 40.3441 24.4439 40.4077 24.0039 40.4558L24.0039 40.4558Z" fill="white"/>
<path d="M37.2578 32.5736L38.387 33.3591C38.6552 32.9724 38.9147 32.5702 39.157 32.1611L37.9745 31.4598C37.7494 31.8397 37.507 32.2143 37.2578 32.5736V32.5736Z" fill="white"/>
<path d="M33.6562 36.4461L34.5208 37.5169C34.8869 37.2213 35.2478 36.9067 35.595 36.5836L34.6583 35.5781C34.3334 35.8789 33.9965 36.1711 33.6562 36.4461Z" fill="white"/>
<path d="M31.4844 37.9601L32.1891 39.1426C32.5947 38.9003 32.9969 38.6408 33.3836 38.3726L32.5981 37.2434C32.2372 37.4926 31.8625 37.735 31.4844 37.9601Z" fill="white"/>
<path d="M26.6094 39.9867L26.9497 41.3188C27.4069 41.2019 27.8675 41.0661 28.3144 40.9166L27.8795 39.6138C27.4636 39.7513 27.0356 39.8767 26.6094 39.9867H26.6094Z" fill="white"/>
<path d="M29.1191 39.1481L29.6485 40.4165C30.0868 40.2343 30.5216 40.0349 30.941 39.8252L30.324 38.5963C29.9338 38.7922 29.5282 38.9779 29.1191 39.148V39.1481Z" fill="white"/>
<path d="M7.13369 10.8799L6.03369 10.0549C5.7501 10.4331 5.47683 10.8266 5.2207 11.2237L6.37742 11.9679C6.61633 11.6001 6.8707 11.234 7.13369 10.8799V10.8799Z" fill="white"/>
<path d="M3.62383 24.6519C3.56196 24.2153 3.51383 23.7719 3.4829 23.3336L2.11133 23.4299C2.14398 23.9008 2.19555 24.3752 2.26258 24.8461L3.62383 24.6519Z" fill="white"/>
<path d="M8.93945 6.93523L9.84009 7.97337C10.1735 7.68462 10.5207 7.40445 10.8714 7.1415L10.0464 6.0415C9.66995 6.32338 9.297 6.62415 8.9395 6.93523H8.93945Z" fill="white"/>
<path d="M11.2148 5.22852L11.9608 6.38524C12.3286 6.14805 12.7101 5.91945 13.0986 5.70803L12.4369 4.50146C12.0192 4.73006 11.6084 4.97583 11.2148 5.22848V5.22852Z" fill="white"/>
<path d="M2.11063 20.5889C2.07969 21.0581 2.0625 21.5324 2.0625 21.9999V22.0103L3.4375 21.9999C3.4375 21.5634 3.45297 21.1217 3.48219 20.6834L2.11063 20.5889Z" fill="white"/>
<path d="M2.5107 17.7721C2.41102 18.2362 2.3268 18.7071 2.25977 19.1729L3.62104 19.3654C3.68291 18.9305 3.76197 18.4922 3.85479 18.0609L2.5107 17.7721Z" fill="white"/>
<path d="M14.2813 5.11321C14.6835 4.92758 15.096 4.75743 15.5033 4.6062L15.0238 3.31885C14.5856 3.48213 14.1438 3.66603 13.709 3.8637L14.2813 5.11321Z" fill="white"/>
<path d="M8.86989 8.87746L7.8971 7.90466C7.56194 8.23982 7.23538 8.59045 6.92773 8.94795L7.96759 9.84858C8.25462 9.51686 8.55886 9.1903 8.86994 8.8775L8.86989 8.87746Z" fill="white"/>
<path d="M21.9904 2.80675L21.877 3.42548C21.9182 3.43407 21.9595 3.43751 22.0007 3.43751C22.439 3.43751 22.8807 3.45298 23.3156 3.4822L23.4118 2.11063C22.946 2.07969 22.4699 2.0625 22.0007 2.0625H21.9904L21.9904 2.80675Z" fill="white"/>
<path d="M25.9391 3.85514L26.2278 2.51107C25.7689 2.41138 25.298 2.32716 24.827 2.26013L24.6328 3.6214C25.0728 3.685 25.5111 3.76406 25.9391 3.85515L25.9391 3.85514Z" fill="white"/>
<path d="M16.7595 4.18687C17.184 4.0614 17.6172 3.9514 18.0434 3.8603L17.7512 2.51624C17.2923 2.61592 16.8283 2.7328 16.3711 2.86686L16.7595 4.18687Z" fill="white"/>
<path d="M5.69968 13.109L4.49312 12.449C4.26624 12.8632 4.0514 13.2912 3.85547 13.7243L5.10674 14.2949C5.28893 13.8944 5.4883 13.4957 5.69973 13.109H5.69968Z" fill="white"/>
<path d="M19.3483 3.62652C19.7866 3.56292 20.23 3.51652 20.6649 3.48558L20.5686 2.11401C20.0994 2.14667 19.6233 2.19651 19.1523 2.26526L19.3483 3.62652Z" fill="white"/>
<path d="M4.59898 15.5202L3.30991 15.0406C3.14491 15.4841 2.99366 15.9396 2.86133 16.3916L4.18133 16.7783C4.30508 16.3572 4.4443 15.9327 4.59899 15.5202L4.59898 15.5202Z" fill="white"/>
<path d="M41.9373 1.375H33C32.6202 1.375 32.3125 1.68266 32.3125 2.0625V3.4375H30.9375C29.7997 3.4375 28.875 4.3622 28.875 5.5V6.1875H28.1875C27.0497 6.1875 26.125 7.1122 26.125 8.25V10.3125C26.125 10.6923 26.4327 11 26.8125 11H28.3147C28.6 11.7975 29.3563 12.375 30.25 12.375C31.1455 12.375 31.9017 11.7975 32.1853 11H36.5647C36.85 11.7975 37.6062 12.375 38.5 12.375C39.3954 12.375 40.1517 11.7975 40.4353 11H41.9375C42.3173 11 42.625 10.6923 42.625 10.3125V2.0625C42.625 1.68266 42.3173 1.375 41.9375 1.375H41.9373ZM27.5 8.25C27.5 7.87016 27.8094 7.5625 28.1875 7.5625H29.5625C29.9423 7.5625 30.25 7.25484 30.25 6.875V5.5C30.25 5.12016 30.5594 4.8125 30.9375 4.8125H32.3125V9.62522H27.4998L27.5 8.25ZM41.25 9.625H33.6873V2.75H41.25V9.625Z" fill="white"/>
<path d="M15.8123 32.3127H15.1248V31.6252C15.1248 30.4875 14.2001 29.5627 13.0623 29.5627H11.6873V28.1877C11.6873 27.8079 11.3796 27.5002 10.9998 27.5002H2.0625C1.68266 27.5002 1.375 27.8079 1.375 28.1877V36.4377C1.375 36.8176 1.68266 37.1252 2.0625 37.1252H3.5647C3.8483 37.9227 4.60456 38.5002 5.5 38.5002C6.39544 38.5002 7.15172 37.9227 7.4353 37.1252H11.8147C12.1 37.9227 12.8562 38.5002 13.75 38.5002C14.6454 38.5002 15.4017 37.9227 15.6853 37.1252H17.1875C17.5673 37.1252 17.875 36.8176 17.875 36.4377V34.3752C17.875 33.2375 16.9503 32.3127 15.8125 32.3127H15.8123ZM2.74956 28.8752H10.3123V35.7502H2.74956V28.8752ZM16.4996 35.7502H11.6868V30.9375H13.0618C13.44 30.9375 13.7493 31.2452 13.7493 31.625V33C13.7493 33.3799 14.057 33.6875 14.4368 33.6875H15.8118C16.19 33.6875 16.4993 33.9952 16.4993 34.375L16.4996 35.7502Z" fill="white"/>
</svg>
