<?xml version="1.0" encoding="UTF-8"?>
<svg width="44" height="44" viewBox="0 0 44 44" fill="none" xmlns="http://www.w3.org/2000/svg">
<path d="M22 11.6875C21.5921 11.6875 21.1933 11.8085 20.8541 12.0351C20.515 12.2617 20.2506 12.5838 20.0945 12.9607C19.9384 13.3376 19.8975 13.7523 19.9771 14.1524C20.0567 14.5525 20.2531 14.92 20.5416 15.2084C20.83 15.4969 21.1975 15.6933 21.5976 15.7729C21.9977 15.8525 22.4124 15.8116 22.7893 15.6555C23.1662 15.4994 23.4883 15.235 23.7149 14.8959C23.9415 14.5567 24.0625 14.1579 24.0625 13.75C24.0625 13.203 23.8452 12.6784 23.4584 12.2916C23.0716 11.9048 22.547 11.6875 22 11.6875ZM22 14.4375C21.864 14.4375 21.7311 14.3972 21.618 14.3216C21.505 14.2461 21.4169 14.1387 21.3648 14.0131C21.3128 13.8875 21.2992 13.7492 21.3257 13.6159C21.3522 13.4825 21.4177 13.36 21.5139 13.2639C21.61 13.1677 21.7325 13.1022 21.8659 13.0757C21.9992 13.0492 22.1375 13.0628 22.2631 13.1148C22.3887 13.1669 22.4961 13.255 22.5716 13.368C22.6472 13.4811 22.6875 13.614 22.6875 13.75C22.6875 13.9323 22.6151 14.1072 22.4861 14.2361C22.3572 14.3651 22.1823 14.4375 22 14.4375Z" fill="white"/>
<path d="M21.832 8.95813L19.082 9.64563L19.4148 10.9794L21.9984 10.3338L24.582 10.9794L24.9148 9.64563L22.1648 8.95813C22.0556 8.93062 21.9412 8.93062 21.832 8.95813V8.95813Z" fill="white"/>
<path d="M40.8573 10.3137H27.8223C27.552 9.54892 27.1336 8.84497 26.5909 8.24213C26.0483 7.6393 25.392 7.14943 24.6598 6.80057L24.2266 3.34244C24.159 2.79932 23.8953 2.29961 23.4851 1.93729C23.0749 1.57496 22.5465 1.375 21.9991 1.375C21.4518 1.375 20.9234 1.57496 20.5132 1.93729C20.1029 2.29961 19.8392 2.79932 19.7716 3.34244L19.3385 6.80057C18.6063 7.14943 17.95 7.6393 17.4074 8.24213C16.8647 8.84497 16.4463 9.54892 16.176 10.3137H3.14102C2.68658 10.313 2.24943 10.4878 1.92073 10.8016C1.59204 11.1154 1.39717 11.544 1.37678 11.998C1.35638 12.452 1.51204 12.8963 1.81127 13.2383C2.11051 13.5803 2.53023 13.7936 2.9829 13.8337L6.11102 14.1018C5.83676 14.4444 5.64861 14.8477 5.56234 15.2779C5.47608 15.7082 5.49421 16.1528 5.61523 16.5746C5.73624 16.9964 5.95661 17.3831 6.25785 17.7022C6.5591 18.0212 6.93245 18.2634 7.3466 18.4085C7.76075 18.5535 8.20364 18.5972 8.63814 18.5358C9.07264 18.4743 9.48608 18.3097 9.84382 18.0555C10.2015 17.8014 10.4931 17.4652 10.6942 17.0751C10.8952 16.6851 10.9998 16.2525 10.9991 15.8137C10.9981 15.353 10.8773 14.9005 10.6485 14.5006L16.4029 14.9956C16.8989 16.0616 17.6891 16.9638 18.6806 17.596C19.672 18.2282 20.8233 18.5641 21.9991 18.5641C23.175 18.5641 24.3263 18.2282 25.3177 17.596C26.3092 16.9638 27.0994 16.0616 27.5954 14.9956L33.3498 14.5006C33.121 14.9005 33.0002 15.353 32.9991 15.8137C32.9963 16.2544 33.0995 16.6894 33.3 17.0819C33.5004 17.4744 33.7923 17.813 34.1509 18.0691C34.5096 18.3252 34.9246 18.4914 35.3609 18.5536C35.7972 18.6159 36.2421 18.5723 36.658 18.4266C37.074 18.2809 37.4489 18.0374 37.751 17.7166C38.0532 17.3957 38.2738 17.007 38.3943 16.583C38.5148 16.1591 38.5317 15.7124 38.4434 15.2806C38.3552 14.8488 38.1644 14.4445 37.8873 14.1018L41.0154 13.8337C41.4681 13.7936 41.8878 13.5803 42.187 13.2383C42.4863 12.8963 42.6419 12.452 42.6215 11.998C42.6011 11.544 42.4063 11.1154 42.0776 10.8016C41.7489 10.4878 41.3117 10.313 40.8573 10.3137V10.3137ZM8.24915 17.1887C7.9772 17.1887 7.71136 17.108 7.48524 16.957C7.25912 16.8059 7.08288 16.5911 6.97881 16.3399C6.87474 16.0886 6.84751 15.8122 6.90057 15.5454C6.95362 15.2787 7.08458 15.0337 7.27688 14.8414C7.46917 14.6491 7.71417 14.5182 7.9809 14.4651C8.24762 14.4121 8.52409 14.4393 8.77534 14.5434C9.02658 14.6474 9.24133 14.8237 9.39242 15.0498C9.5435 15.2759 9.62415 15.5417 9.62415 15.8137C9.62306 16.178 9.47784 16.5271 9.22022 16.7848C8.96259 17.0424 8.61349 17.1876 8.24915 17.1887ZM3.10665 12.4587C3.00992 12.4536 2.91886 12.4115 2.85232 12.3411C2.78577 12.2707 2.74884 12.1774 2.74915 12.0806C2.7485 12.0289 2.7582 11.9777 2.77766 11.9298C2.79712 11.882 2.82597 11.8385 2.86248 11.802C2.899 11.7655 2.94246 11.7367 2.9903 11.7172C3.03813 11.6977 3.08938 11.688 3.14102 11.6887H15.8529C15.8253 11.9168 15.8115 12.1464 15.8116 12.3762C15.8121 12.78 15.8512 13.1829 15.9285 13.5793L3.10665 12.4587ZM21.1329 3.50744C21.1618 3.29826 21.2655 3.10662 21.4247 2.9679C21.5839 2.82919 21.788 2.75278 21.9991 2.75278C22.2103 2.75278 22.4144 2.82919 22.5736 2.9679C22.7328 3.10662 22.8365 3.29826 22.8654 3.50744L23.216 6.31244C22.4132 6.14745 21.5851 6.14745 20.7823 6.31244L21.1329 3.50744ZM21.9991 17.1887C21.0473 17.1887 20.1169 16.9064 19.3255 16.3776C18.5341 15.8488 17.9172 15.0972 17.553 14.2179C17.1887 13.3385 17.0934 12.3709 17.2791 11.4373C17.4648 10.5038 17.9232 9.64628 18.5962 8.97324C19.2692 8.3002 20.1267 7.84185 21.0603 7.65616C21.9938 7.47047 22.9614 7.56577 23.8408 7.93002C24.7202 8.29427 25.4718 8.9111 26.0006 9.70251C26.5294 10.4939 26.8116 11.4244 26.8116 12.3762C26.8102 13.6521 26.3027 14.8753 25.4005 15.7775C24.4983 16.6797 23.2751 17.1872 21.9991 17.1887V17.1887ZM35.7491 17.1887C35.4772 17.1887 35.2114 17.108 34.9852 16.957C34.7591 16.8059 34.5829 16.5911 34.4788 16.3399C34.3747 16.0886 34.3475 15.8122 34.4006 15.5454C34.4536 15.2787 34.5846 15.0337 34.7769 14.8414C34.9692 14.6491 35.2142 14.5182 35.4809 14.4651C35.7476 14.4121 36.0241 14.4393 36.2753 14.5434C36.5266 14.6474 36.7413 14.8237 36.8924 15.0498C37.0435 15.2759 37.1241 15.5417 37.1241 15.8137C37.1231 16.178 36.9778 16.5271 36.7202 16.7848C36.4626 17.0424 36.1135 17.1876 35.7491 17.1887ZM40.8916 12.4587L28.0698 13.5793C28.1471 13.1829 28.1862 12.78 28.1866 12.3762C28.1868 12.1464 28.173 11.9168 28.1454 11.6887H40.8573C40.9089 11.688 40.9602 11.6977 41.008 11.7172C41.0558 11.7367 41.0993 11.7655 41.1358 11.802C41.1723 11.8385 41.2012 11.882 41.2206 11.9298C41.2401 11.9777 41.2498 12.0289 41.2491 12.0806C41.2495 12.1774 41.2125 12.2707 41.146 12.3411C41.0794 12.4115 40.9884 12.4536 40.8916 12.4587V12.4587Z" fill="white"/>
<path d="M41.9375 41.9375H40.5625C40.5574 37.016 38.6001 32.2975 35.12 28.8175C31.64 25.3374 26.9215 23.3801 22 23.375C21.5394 23.375 21.0788 23.3956 20.625 23.43V27.9056L22.9694 30.25H26.125C26.3073 30.2514 26.482 30.3227 26.6131 30.4494L30.0506 33.8869C30.1773 34.018 30.2486 34.1927 30.25 34.375V38.5C30.2486 38.6823 30.1773 38.857 30.0506 38.9881L28.875 40.1569V41.9375H27.5V39.875C27.5014 39.6927 27.5727 39.518 27.6994 39.3869L28.875 38.2181V34.6569L25.8431 31.625H22.6875C22.5052 31.6236 22.3305 31.5523 22.1994 31.4256L19.4494 28.6756C19.3227 28.5445 19.2514 28.3698 19.25 28.1875V23.5812C17.2473 23.8795 15.3076 24.5067 13.5094 25.4375H13.75C13.9323 25.4389 14.107 25.5102 14.2381 25.6369L16.3006 27.6994C16.4273 27.8305 16.4986 28.0052 16.5 28.1875V30.9375C16.4986 31.1198 16.4273 31.2945 16.3006 31.4256L13.75 33.9694V36.4375C13.7486 36.6198 13.6773 36.7945 13.5506 36.9256L10.8006 39.6756C10.6695 39.8023 10.4948 39.8736 10.3125 39.875H8.9375V40.9681L9.42563 41.4494L8.44937 42.4256L7.76187 41.7381C7.63524 41.607 7.56386 41.4323 7.5625 41.25V39.1875C7.5625 39.0052 7.63493 38.8303 7.76386 38.7014C7.8928 38.5724 8.06766 38.5 8.25 38.5H10.0306L12.375 36.1556V33.6875C12.3764 33.5052 12.4477 33.3305 12.5744 33.1994L15.125 30.6556V28.4694L13.4681 26.8125H11.2612C8.84387 28.5254 6.87203 30.7925 5.51082 33.424C4.14962 36.0555 3.43867 38.9748 3.4375 41.9375H2.0625C2.0625 36.6497 4.16305 31.5786 7.90206 27.8396C11.6411 24.1006 16.7122 22 22 22C27.2878 22 32.3589 24.1006 36.0979 27.8396C39.8369 31.5786 41.9375 36.6497 41.9375 41.9375V41.9375Z" fill="white"/>
<path d="M26.125 34.375H22C21.8177 34.375 21.6428 34.4474 21.5139 34.5764C21.3849 34.7053 21.3125 34.8802 21.3125 35.0625V36.4375C21.3139 36.6198 21.3852 36.7945 21.5119 36.9256L22.6875 38.0944V40.5625C22.6875 40.7448 22.7599 40.9197 22.8889 41.0486C23.0178 41.1776 23.1927 41.25 23.375 41.25H24.75C24.9323 41.2486 25.107 41.1773 25.2381 41.0506L26.6131 39.6756C26.7398 39.5445 26.8111 39.3698 26.8125 39.1875V35.0625C26.8125 34.8802 26.7401 34.7053 26.6111 34.5764C26.4822 34.4474 26.3073 34.375 26.125 34.375ZM25.4375 38.9056L24.4681 39.875H24.0625V37.8125C24.0611 37.6302 23.9898 37.4555 23.8631 37.3244L22.6875 36.1556V35.75H25.4375V38.9056Z" fill="white"/>
</svg>
