<?xml version="1.0" encoding="UTF-8"?>
<svg width="44" height="44" viewBox="0 0 44 44" fill="none" xmlns="http://www.w3.org/2000/svg">
<path d="M41.0822 9.89654C40.1899 8.9965 38.8964 8.62803 37.6509 8.93892L23.2885 12.4681L21.8146 12.4854C20.2103 12.4854 18.6385 11.8061 17.5561 10.5932L15.3453 8.09643C14.2802 6.89317 12.5281 6.64752 11.177 7.52261C10.8489 7.73562 10.7184 8.14438 10.8585 8.51285L13.691 15.7019C13.7409 16.2431 13.9866 16.7171 14.4107 17.0932C15.2302 17.7975 16.7443 18.1487 19.1029 18.1487C20.5768 18.1487 22.3941 18.0086 24.5798 17.7303L22.2788 21.227C22.1157 21.4803 22.0984 21.8008 22.2462 22.0617C22.3863 22.3247 22.6645 22.4955 22.9658 22.4955H24.457C25.7101 22.4955 26.9058 21.9639 27.7482 21.0389L31.7438 16.6249L32.5383 16.4945C37.3936 15.7076 42.2334 13.2761 42.8151 12.1055C42.9878 11.7619 42.9878 11.3858 42.8324 11.05C42.5157 10.3802 41.631 10.0444 41.0821 9.89658L41.0822 9.89654ZM14.1188 9.16727L16.3296 11.664C17.0589 12.4835 17.9589 13.1129 18.9491 13.5236L14.9862 14.4985L12.6775 8.6355C13.1938 8.56257 13.7427 8.74297 14.1188 9.16707V9.16727ZM26.5238 19.9275C25.9999 20.509 25.2553 20.8448 24.4762 20.8448L27.8826 15.6612L30.6346 15.3753L26.5238 19.9275ZM33.4343 14.6383C33.5168 14.4252 33.5073 14.1873 33.4017 13.9839C33.2463 13.6807 32.9277 13.5003 32.5919 13.5425L27.3277 14.0837C27.082 14.1086 26.8613 14.2391 26.7309 14.4521L25.7732 15.9184C19.2558 16.8434 16.6923 16.5325 15.7421 16.0162L38.0363 10.5275C38.7656 10.3471 39.5275 10.5928 40.0188 11.1666C40.1339 11.3067 40.2894 11.395 40.4698 11.4372C40.6502 11.4775 40.8555 11.5428 41.0263 11.6099C39.9842 12.3603 36.9962 13.8668 33.4344 14.6383L33.4343 14.6383Z" fill="white"/>
<path d="M4.27609 37.0029H17.7694C19.0302 37.0029 20.0531 35.98 20.0531 34.7192L20.055 22.3696C20.055 21.1088 19.0321 20.0859 17.7713 20.0859H4.27605C3.02478 20.0936 2 21.1165 2 22.3696V34.7172C2 35.9781 3.02478 37.0029 4.27605 37.0029L4.27609 37.0029ZM12.2193 21.7307V23.836L11.5226 23.312C11.3748 23.1969 11.204 23.1489 11.0313 23.1489C10.8586 23.1489 10.6801 23.2065 10.54 23.312L9.84339 23.836V21.7307H12.2193ZM3.63889 22.3697C3.63889 22.0186 3.92483 21.723 4.28562 21.723H8.19865V25.4729C8.19865 25.7838 8.37904 26.0697 8.65731 26.2099C8.93558 26.35 9.27142 26.3154 9.51707 26.1273L11.0312 24.9817L12.5454 26.1273C12.6931 26.2329 12.8639 26.2905 13.0367 26.2905C13.1595 26.2905 13.2823 26.2655 13.3975 26.2079C13.6757 26.0678 13.8561 25.7819 13.8561 25.471V21.7211H17.7691C18.1203 21.7211 18.4159 22.007 18.4159 22.3678V34.7154C18.4159 35.0666 18.1299 35.3621 17.7691 35.3621L4.27588 35.3641C3.92468 35.3641 3.63872 35.0704 3.63872 34.7173L3.63889 22.3697Z" fill="white"/>
</svg>
