<?xml version="1.0" encoding="UTF-8"?>
<svg width="44" height="44" viewBox="0 0 44 44" fill="none" xmlns="http://www.w3.org/2000/svg">
<path d="M21.1834 14.0081C21.1923 14.0285 21.1968 14.049 21.2035 14.0671C21.2124 14.0875 21.2102 14.0898 21.2147 14.1011L22.5084 16.7329C22.962 17.6562 23.8915 18.237 24.9058 18.2325H28.3021L25.7996 21.2817C25.5784 21.5517 25.5315 21.9283 25.6767 22.2459C25.8242 22.5635 26.137 22.7677 26.4833 22.77H30.0583C30.2952 22.77 30.5231 22.6747 30.6907 22.5046L34.898 18.2325H40.7833C41.4603 18.2325 42.0792 17.8445 42.3831 17.2297C42.6848 16.6148 42.62 15.8775 42.2133 15.3285L41.6771 14.6025C40.8302 13.4636 39.5075 12.792 38.1021 12.7875H26.1953L24.6335 8.81946C24.4972 8.47461 24.1688 8.25 23.8023 8.25H22.0148C21.521 8.25 21.1211 8.65611 21.1211 9.1575V13.695C21.1211 13.7086 21.1278 13.7177 21.1278 13.7313C21.1323 13.8243 21.1501 13.9173 21.1837 14.0081L21.1834 14.0081ZM29.6873 20.9551H28.3914L31.3698 17.3251H33.2623L29.6873 20.9551ZM40.247 15.6916L40.7832 16.4176H36.3056C36.3123 16.1771 36.2229 15.9434 36.0553 15.771C35.8877 15.6008 35.6576 15.5055 35.4207 15.51H30.952C30.6861 15.51 30.4359 15.6303 30.266 15.8368L29.7901 16.4176H24.9058C24.5684 16.4176 24.2578 16.2247 24.1081 15.9162L23.4602 14.6026H38.1022C38.9446 14.6048 39.74 15.0087 40.2472 15.6916H40.247ZM23.1963 10.0651L24.2688 12.7876H22.908V10.0651H23.1963Z" fill="white"/>
<path d="M7.93451 20.13H4.34487C3.84906 20.13 3.44747 20.5296 3.44747 21.0229V27.2736H2.55006C2.22924 27.2736 1.9331 27.4432 1.77154 27.72C1.61001 27.9946 1.61001 28.3361 1.77154 28.6129L5.36117 34.8636C5.52046 35.1404 5.81885 35.31 6.13969 35.31H19.6011C19.9219 35.31 20.2203 35.1404 20.3796 34.8636L23.9692 28.6129C24.1308 28.3361 24.1308 27.9946 23.9692 27.72C23.8077 27.4432 23.5116 27.2736 23.1907 27.2736H20.4985C20.3594 27.2713 20.2225 27.3026 20.0969 27.3628L18.4905 28.1664H17.8063V25.4877C17.8063 25.2511 17.712 25.0234 17.5438 24.856C17.3755 24.6885 17.1467 24.5948 16.9088 24.5948H12.4218C12.4218 24.3582 12.3276 24.1305 12.1593 23.963C11.991 23.7956 11.7622 23.7019 11.5244 23.7019H8.83215V21.0231C8.83215 20.7865 8.73793 20.5588 8.56966 20.3914C8.4014 20.2239 8.17256 20.1302 7.93473 20.1302L7.93451 20.13ZM5.24228 21.9158H7.0371V27.2733H5.24228V21.9158ZM18.7037 29.9517C18.8428 29.9539 18.9796 29.9227 19.1053 29.8624L20.7116 29.0588H21.645L19.0806 33.5234H6.66051L4.0962 29.0588H7.72396L9.33034 29.8624H9.32809C9.45373 29.9227 9.59058 29.9539 9.72968 29.9517H18.7037ZM16.0115 26.3801V28.1659H12.4218V26.3801H16.0115ZM10.627 25.4872V28.1659H9.94051L8.8322 27.6145V25.4871L10.627 25.4872Z" fill="white"/>
<path d="M15.8398 8.25H19.1398V10.23H15.8398V8.25Z" fill="white"/>
<path d="M15.8398 15.18H19.1398V17.16H15.8398V15.18Z" fill="white"/>
<path d="M12.8711 11.88H19.1411V13.53H12.8711V11.88Z" fill="white"/>
</svg>
