<?xml version="1.0" encoding="UTF-8"?>
<svg width="44" height="44" viewBox="0 0 44 44" fill="none" xmlns="http://www.w3.org/2000/svg">
<g clip-path="url(#clip0_141_483)">
<path d="M26.2579 36.9062C25.0841 36.9062 24.1289 37.8615 24.1289 39.0353C24.1289 40.2091 25.0841 41.1643 26.2579 41.1643C27.4317 41.1643 28.387 40.2091 28.387 39.0353C28.387 37.8615 27.4317 36.9062 26.2579 36.9062ZM26.2579 39.745C25.8669 39.745 25.5483 39.427 25.5483 39.0353C25.5483 38.6435 25.8669 38.3256 26.2579 38.3256C26.649 38.3256 26.9676 38.6435 26.9676 39.0353C26.9676 39.427 26.649 39.745 26.2579 39.745Z" fill="white"/>
<path d="M9.22669 36.9062C8.05288 36.9062 7.09766 37.8615 7.09766 39.0353C7.09766 40.2091 8.05288 41.1643 9.22669 41.1643C10.4005 41.1643 11.3557 40.2091 11.3557 39.0353C11.3557 37.8615 10.4005 36.9062 9.22669 36.9062ZM9.22669 39.745C8.83566 39.745 8.51701 39.427 8.51701 39.0353C8.51701 38.6435 8.83566 38.3256 9.22669 38.3256C9.61772 38.3256 9.93637 38.6435 9.93637 39.0353C9.93637 39.427 9.61772 39.745 9.22669 39.745Z" fill="white"/>
<path d="M10.6447 11.3518C11.8185 11.3518 12.7737 10.3966 12.7737 9.22278C12.7737 8.04898 11.8185 7.09375 10.6447 7.09375C9.47085 7.09375 8.51562 8.04898 8.51562 9.22278C8.51562 10.3966 9.47085 11.3518 10.6447 11.3518ZM10.6447 8.5131C11.0357 8.5131 11.3543 8.83104 11.3543 9.22278C11.3543 9.61452 11.0357 9.93246 10.6447 9.93246C10.2536 9.93246 9.93498 9.61452 9.93498 9.22278C9.93498 8.83104 10.2536 8.5131 10.6447 8.5131Z" fill="white"/>
<path d="M39.0314 25.5469C37.8576 25.5469 36.9023 26.5021 36.9023 27.6759C36.9023 28.8497 37.8576 29.8049 39.0314 29.8049C40.2052 29.8049 41.1604 28.8497 41.1604 27.6759C41.1604 26.5021 40.2052 25.5469 39.0314 25.5469ZM39.0314 28.3856C38.6403 28.3856 38.3217 28.0676 38.3217 27.6759C38.3217 27.2842 38.6403 26.9662 39.0314 26.9662C39.4224 26.9662 39.7411 27.2842 39.7411 27.6759C39.7411 28.0676 39.4224 28.3856 39.0314 28.3856Z" fill="white"/>
<path d="M39.7107 22.7615C39.7214 22.5074 39.7419 22.2534 39.7419 22C39.7419 18.7653 38.8591 15.6207 37.2013 12.8665C37.9273 11.589 38.3226 10.1321 38.3226 8.65523V8.51613C38.3226 3.82019 34.5024 0 29.8065 0C26.6569 0 23.9069 1.7231 22.4336 4.27226C19.6822 4.2091 16.8889 4.796 14.3951 5.97761C13.4832 4.92658 12.1419 4.25806 10.6452 4.25806C7.90581 4.25806 5.67742 6.48716 5.67742 9.22581C5.67742 10.2946 6.03084 11.3527 6.67097 12.2057L6.96477 12.5975C5.32471 15.2155 4.40639 18.1954 4.28432 21.2903H2.83871C2.05594 21.2903 1.41935 21.9269 1.41935 22.7097V36.9032C0.636581 36.9032 0 37.5398 0 38.3226V39.7419C0 40.5247 0.636581 41.1613 1.41935 41.1613H4.74419C5.54329 42.8368 7.24935 44 9.22581 44C11.2023 44 12.9083 42.8368 13.7074 41.1613H21.7765C22.5755 42.8368 24.2816 44 26.2581 44C28.2345 44 29.9406 42.8368 30.7397 41.1613H32.6452C33.4279 41.1613 34.0645 40.5247 34.0645 39.7419V37.7875C34.0645 37.6143 34.0432 37.4412 34.0014 37.2708L33.5472 35.4541C34.6046 34.5464 35.5477 33.523 36.3632 32.3975L39.0323 35.9572L43.0064 30.6581C43.6473 29.8043 44 28.7455 44 27.6774C44 25.1694 42.1293 23.0943 39.7107 22.7615V22.7615ZM29.8065 1.41935C33.7196 1.41935 36.9032 4.60297 36.9032 8.51613V8.65452C36.9032 10.2371 36.3646 11.7948 35.3866 13.0389L29.8065 20.1421L24.2263 13.0389C23.2483 11.7948 22.7097 10.2378 22.7097 8.65452V8.51613C22.7097 4.60297 25.8933 1.41935 29.8065 1.41935ZM10.6452 5.67742C12.6017 5.67742 14.1935 7.26923 14.1935 9.22581C14.1935 9.98871 13.9416 10.7452 13.4839 11.3541L10.6452 15.1395L7.80645 11.3541C7.34871 10.7452 7.09677 9.98871 7.09677 9.22581C7.09677 7.26923 8.68858 5.67742 10.6452 5.67742V5.67742ZM2.83871 22.7097H8.51613V28.116L12.0645 26.3418L15.6129 28.116V22.7097H21.2903V36.9032H13.7074C12.9083 35.2277 11.2023 34.0645 9.22581 34.0645C7.24935 34.0645 5.54329 35.2277 4.74419 36.9032H2.83871V22.7097ZM9.93548 22.7097H14.1935V25.8195L12.0645 24.755L9.93548 25.8195V22.7097ZM22.7097 26.9677H29.4076C29.7334 26.9677 30.0172 27.1892 30.096 27.505L30.3167 28.3871H26.9677C26.185 28.3871 25.5484 29.0237 25.5484 29.8065V31.2258C25.5484 32.0086 26.185 32.6452 26.9677 32.6452H31.3812L32.4457 36.9032H30.7397C29.9406 35.2277 28.2345 34.0645 26.2581 34.0645C24.8685 34.0645 23.6124 34.6394 22.7097 35.5626V26.9677ZM31.0264 31.2258H26.9677V29.8065H30.6715L31.0264 31.2258ZM1.41935 39.7419V38.3226H4.31484C4.28148 38.5554 4.25806 38.791 4.25806 39.0323C4.25806 39.2735 4.28148 39.5092 4.31484 39.7419H1.41935ZM9.22581 42.5806C7.26923 42.5806 5.67742 40.9888 5.67742 39.0323C5.67742 37.0757 7.26923 35.4839 9.22581 35.4839C11.1824 35.4839 12.7742 37.0757 12.7742 39.0323C12.7742 40.9888 11.1824 42.5806 9.22581 42.5806ZM14.1368 39.7419C14.1701 39.5092 14.1935 39.2735 14.1935 39.0323C14.1935 38.791 14.1701 38.5554 14.1368 38.3226H21.3471C21.3137 38.5554 21.2903 38.791 21.2903 39.0323C21.2903 39.2735 21.3137 39.5092 21.3471 39.7419H14.1368ZM26.2581 42.5806C24.3015 42.5806 22.7097 40.9888 22.7097 39.0323C22.7097 37.0757 24.3015 35.4839 26.2581 35.4839C28.2146 35.4839 29.8065 37.0757 29.8065 39.0323C29.8065 40.9888 28.2146 42.5806 26.2581 42.5806ZM31.169 39.7419C31.2024 39.5092 31.2258 39.2735 31.2258 39.0323C31.2258 38.791 31.2024 38.5554 31.169 38.3226H32.6452V39.7419H31.169ZM33.1597 33.9048L31.4735 27.1608C31.2357 26.2119 30.3863 25.5484 29.4076 25.5484H22.7097V22.7097C22.7097 21.9269 22.0731 21.2903 21.2903 21.2903H5.70297C5.81652 18.6461 6.55742 16.0941 7.87955 13.8181L10.6452 17.5056L14.6194 12.2065C15.2602 11.3527 15.6129 10.2939 15.6129 9.22581C15.6129 8.49555 15.4504 7.80361 15.1658 7.17839C17.2452 6.21535 19.4665 5.7129 21.7843 5.68381C21.4706 6.57161 21.2903 7.52187 21.2903 8.51613V8.65452C21.2903 10.5543 21.9368 12.4236 23.1099 13.9161L29.8065 22.4386L36.3142 14.1559C37.6292 16.5518 38.3226 19.2415 38.3226 22C38.3226 22.2562 38.3027 22.5138 38.2914 22.7714C35.9033 23.1312 34.0645 25.1907 34.0645 27.6774C34.0645 28.7462 34.4179 29.8043 35.0581 30.6574L35.4675 31.2038C34.7955 32.1853 34.0269 33.0923 33.1597 33.9048V33.9048ZM41.871 29.8057L39.0323 33.5912L36.1935 29.8057C35.7358 29.1968 35.4839 28.4403 35.4839 27.6774C35.4839 25.7208 37.0757 24.129 39.0323 24.129C40.9888 24.129 42.5806 25.7208 42.5806 27.6774C42.5806 28.4403 42.3287 29.1968 41.871 29.8057Z" fill="white"/>
<path d="M29.8063 14.1908C32.9367 14.1908 35.4837 11.6437 35.4837 8.51336C35.4837 5.38297 32.9367 2.83594 29.8063 2.83594C26.6759 2.83594 24.1289 5.38297 24.1289 8.51336C24.1289 11.6437 26.6759 14.1908 29.8063 14.1908ZM29.8063 4.25529C32.1546 4.25529 34.0644 6.16503 34.0644 8.51336C34.0644 10.8617 32.1546 12.7714 29.8063 12.7714C27.458 12.7714 25.5483 10.8617 25.5483 8.51336C25.5483 6.16503 27.458 4.25529 29.8063 4.25529Z" fill="white"/>
<path d="M17.0332 18.4531H18.4526V19.8725H17.0332V18.4531Z" fill="white"/>
<path d="M19.8711 18.4531H21.2904V19.8725H19.8711V18.4531Z" fill="white"/>
<path d="M22.709 18.4531H24.1283V19.8725H22.709V18.4531Z" fill="white"/>
</g>
<defs>
<clipPath id="clip0_141_483">
<rect width="44" height="44" fill="white"/>
</clipPath>
</defs>
</svg>
