<?xml version="1.0" encoding="UTF-8"?>
<svg width="44" height="44" viewBox="0 0 44 44" fill="none" xmlns="http://www.w3.org/2000/svg">
<path d="M37.8123 4.5835H19.4788C18.8458 4.5835 18.333 5.09625 18.333 5.72934V19.4794C18.333 19.7831 18.4533 20.0753 18.6682 20.2901C18.883 20.505 19.1752 20.6253 19.4788 20.6253H24.6349V24.0628C24.6364 24.5039 24.8899 24.905 25.2881 25.094C25.4399 25.1714 25.6103 25.2115 25.7808 25.2086C26.0386 25.2072 26.2892 25.1184 26.4912 24.9565L31.9109 20.6255H37.8121C38.1158 20.6255 38.408 20.5051 38.6228 20.2903C38.8376 20.0754 38.9579 19.7833 38.9579 19.4796V5.72952C38.9579 5.42588 38.8376 5.13368 38.6228 4.91885C38.4079 4.70401 38.1158 4.58369 37.8121 4.58369L37.8123 4.5835ZM36.6665 18.3336H31.5104C31.2526 18.335 31.0019 18.4238 30.8 18.5857L26.9272 21.6795V19.4794C26.9272 19.1758 26.8069 18.8836 26.592 18.6688C26.3772 18.4539 26.085 18.3336 25.7814 18.3336H20.6253V6.87519H36.667L36.6665 18.3336Z" fill="white"/>
<path d="M27.5 9.16699H34.3751V11.4587H27.5V9.16699Z" fill="white"/>
<path d="M22.917 9.16699H25.7816V11.4587H22.917V9.16699Z" fill="white"/>
<path d="M22.917 13.75H34.3754V16.0417H22.917V13.75Z" fill="white"/>
<path d="M16.0416 27.1223C17.262 25.7802 17.5756 23.8437 16.8409 22.1851C16.1075 20.5265 14.4647 19.4565 12.6498 19.4565C10.835 19.4565 9.19226 20.5265 8.45881 22.1851C7.72404 23.8437 8.03773 25.7802 9.25804 27.1223C7.8687 27.7597 6.68993 28.7809 5.86206 30.0671C5.03419 31.3518 4.59016 32.8472 4.58301 34.3754V37.813C4.58301 38.1166 4.70332 38.4088 4.91817 38.6236C5.13301 38.8385 5.4252 38.9588 5.72884 38.9588H19.4789C19.7826 38.9588 20.0748 38.8385 20.2896 38.6236C20.5045 38.4088 20.6248 38.1166 20.6248 37.813V34.3754C20.6262 32.8572 20.1965 31.369 19.3844 30.0843C18.5737 28.801 17.4135 27.7726 16.0414 27.1223L16.0416 27.1223ZM10.3124 24.0629C10.3124 23.1362 10.871 22.2997 11.7276 21.9459C12.5841 21.5907 13.5695 21.787 14.2241 22.443C14.8801 23.0975 15.0763 24.083 14.7211 24.9395C14.3673 25.796 13.5308 26.3546 12.6042 26.3546C11.338 26.3546 10.3125 25.329 10.3125 24.0629L10.3124 24.0629ZM18.3333 36.6671H6.87491V34.3754C6.87491 32.3287 7.96634 30.4367 9.73952 29.414C11.5127 28.3899 13.6955 28.3899 15.4687 29.414C17.2419 30.4367 18.3333 32.3288 18.3333 34.3754V36.6671Z" fill="white"/>
</svg>
