<?xml version="1.0" encoding="UTF-8"?>
<svg width="44" height="44" viewBox="0 0 44 44" fill="none" xmlns="http://www.w3.org/2000/svg">
<path d="M16.7488 23.7619H38.3554C38.8557 23.7619 39.2615 23.3561 39.2615 22.8558V12.1033C39.2615 11.9262 39.2099 11.7535 39.1139 11.606L34.6601 4.81015C34.4918 4.55484 34.207 4.3999 33.9015 4.3999H21.2068C20.9013 4.3999 20.6165 4.55338 20.4483 4.80868L15.9899 11.606C15.8925 11.7536 15.8408 11.9262 15.8408 12.1033V22.8558C15.8423 23.3561 16.2481 23.7619 16.7484 23.7619L16.7488 23.7619ZM37.4479 21.9482H31.0828V13.0125H37.4494L37.4479 21.9482ZM33.4115 6.21367L36.6789 11.1987H30.9175L29.9051 6.21367H33.4115ZM27.0479 6.21367H28.0544L29.0653 11.1987H26.0356L27.0479 6.21367ZM25.8349 13.0125H29.269V21.9497H25.8349V13.0125ZM21.6968 6.21367H25.1988L24.1879 11.1987H18.4265L21.6968 6.21367ZM17.6563 13.0125H24.0229V21.9497L17.6563 21.9482V13.0125Z" fill="white"/>
<path d="M22.3067 14.2681H19.3729C18.8726 14.2681 18.4668 14.6739 18.4668 15.1742C18.4668 15.6745 18.8726 16.0803 19.3729 16.0803H22.3067C22.807 16.0803 23.2128 15.6745 23.2128 15.1742C23.2128 14.6739 22.807 14.2681 22.3067 14.2681Z" fill="white"/>
<path d="M39.8481 30.9474C38.8741 29.727 37.4248 29.0275 35.8695 29.0275C35.291 29.0275 34.7169 29.1263 34.1605 29.3226L28.9409 31.1762C28.8774 30.8131 28.7549 30.4575 28.5734 30.1239C28.1322 29.3123 27.4002 28.722 26.5103 28.4637L23.1293 27.4897C22.4785 26.8743 20.1778 24.882 17.4964 24.6901C16.1682 24.5957 14.8562 24.9528 13.8025 25.3808L13.8114 25.31C13.8645 24.8599 13.5767 24.4407 13.1385 24.3271L5.53378 22.3584C5.26224 22.2876 4.97298 22.3466 4.75163 22.5193C4.53026 22.6905 4.40039 22.9561 4.40039 23.2365V35.9739C4.40039 36.4742 4.80622 36.88 5.3065 36.88H11.658C12.1185 36.88 12.5051 36.5347 12.5582 36.0772L12.6143 35.5932L20.4921 39.0051C21.5562 39.4641 22.694 39.6943 23.8289 39.6943C25.0154 39.6943 26.1989 39.4434 27.2969 38.9446L39.2315 33.5183C39.7067 33.3029 40.0477 32.8896 40.1687 32.382C40.2897 31.8728 40.1716 31.3504 39.8484 30.9475L39.8481 30.9474ZM10.8506 35.0662H6.21239V24.4066L11.9164 25.8839L10.8506 35.0662ZM26.5469 37.2931C24.8631 38.059 22.918 38.0767 21.2121 37.3403L12.8325 33.7114L13.5542 27.4895C14.4869 26.9995 15.9509 26.3974 17.3647 26.4977C19.7761 26.6704 21.9851 28.9062 22.0059 28.9269C22.1151 29.0405 22.2538 29.1231 22.4058 29.1674L26.0037 30.2049C26.4243 30.3274 26.7697 30.6063 26.9777 30.99C27.1725 31.3486 27.2257 31.7559 27.1283 32.1455C27.1032 32.2045 27.084 32.2665 27.0707 32.33C27.0427 32.4052 26.9763 32.4289 26.8922 32.4303L18.4435 30.9162C17.952 30.8276 17.4798 31.1553 17.3912 31.6482C17.3027 32.1411 17.6303 32.6119 18.1232 32.7004L26.5689 34.2131C26.6796 34.2337 26.7991 34.2441 26.9157 34.2441C27.6595 34.2441 28.3383 33.8235 28.6659 33.1948L34.764 31.0298C35.124 30.9029 35.4959 30.838 35.8678 30.838C36.8079 30.838 37.6889 31.2365 38.3147 31.9389L26.5469 37.2931Z" fill="white"/>
<path d="M8.73716 33.9022C9.23744 33.9022 9.64475 33.4963 9.64475 32.9961V31.265C9.64475 30.7647 9.23892 30.3589 8.73716 30.3589C8.23688 30.3589 7.83105 30.7647 7.83105 31.265V32.9961C7.83105 33.4963 8.23688 33.9022 8.73716 33.9022Z" fill="white"/>
</svg>
