<?xml version="1.0" encoding="UTF-8"?>
<svg width="44" height="44" viewBox="0 0 44 44" fill="none" xmlns="http://www.w3.org/2000/svg">
<path d="M23.3753 33.282C22.7548 33.282 22.1533 33.0689 21.6703 32.677L19.8966 31.1439L19.0716 30.4564C14.2589 26.3864 10.7529 23.4507 10.7529 18.7691C10.7529 14.0875 14.1079 10.6221 18.3843 10.6221C20.2474 10.6032 22.0418 11.3216 23.3757 12.6227C24.7111 11.3251 26.5055 10.6066 28.367 10.6221C32.6433 10.6221 35.9984 14.1971 35.9984 18.7691C35.9984 22.3235 33.9359 24.8121 31.6396 26.9711C30.5534 28.023 29.3228 29.068 27.8928 30.278L27.6728 30.4636C26.8684 31.1511 26.0091 31.8386 25.1291 32.6361C24.6375 33.0504 24.017 33.2789 23.3759 33.2824L23.3753 33.282ZM18.3839 13.75C15.8402 13.75 13.8467 15.9706 13.8467 18.8029C13.8467 22.0204 16.5623 24.3029 21.0587 28.105L21.9112 28.8269L23.3756 30.0575C24.1524 29.37 24.9431 28.6825 25.6787 28.0981L25.8918 27.9194C27.2668 26.7437 28.4768 25.7262 29.5012 24.7362C31.5637 22.7837 32.9387 21.0237 32.9387 18.769C32.9387 15.9365 30.945 13.716 28.4014 13.716C26.8683 13.7246 25.4555 14.5496 24.6958 15.8816C24.4087 16.3113 23.9258 16.5691 23.4101 16.5691C22.8945 16.5691 22.4116 16.3113 22.1245 15.8816C21.3494 14.5531 19.9228 13.7401 18.3845 13.7504L18.3839 13.75Z" fill="#0F2851"/>
<path d="M37.2628 34.43C38.1033 33.3781 38.8905 32.2833 39.621 31.1506C41.9447 27.7526 43.1203 23.6997 42.976 19.587C42.7972 15.7662 41.5408 12.0744 39.3511 8.93943C37.1614 5.80271 34.1261 3.35186 30.6008 1.87038C26.811 0.318372 22.6258 0.0141117 18.6522 1.00411C18.5267 1.02646 18.403 1.05568 18.281 1.09348L18.0747 1.14848C6.71039 4.18721 4.75107 12.9185 4.43471 16.5005C4.3608 17.6057 4.5533 18.7108 4.99844 19.7249C4.80937 20.3935 4.51373 21.026 4.1253 21.6018C3.4481 22.7121 2.68329 23.764 1.83594 24.7505L1.71906 24.9017C0.983427 25.8522 0.808131 27.1224 1.25843 28.2361C1.6589 29.1419 2.37044 29.8741 3.26593 30.2986L3.22468 30.5667C3.15249 31.3505 3.33124 32.1377 3.7334 32.8149C3.54434 33.9097 3.90356 35.0269 4.69591 35.8055C4.79216 36.1475 4.77668 36.5102 4.65466 36.8436L4.57216 37.098L4.53091 37.4349C4.37793 38.7635 4.89184 40.0817 5.90591 40.9549C7.01277 41.9036 8.71777 42.3299 10.9452 42.2199C12.0246 42.1632 13.0954 42.0136 14.149 41.773C14.6904 41.5754 15.2971 41.7283 15.6821 42.158C15.8488 42.3643 15.9812 42.5963 16.074 42.8455C16.2596 43.2975 16.7477 43.545 17.2221 43.4299L18.3702 43.1343C18.6401 43.0707 18.8687 42.8919 18.9959 42.6461C19.1265 42.4003 19.1471 42.1098 19.0509 41.8486C18.8188 41.2281 18.4819 40.6506 18.054 40.1436C16.9162 38.8391 15.1287 38.3046 13.4613 38.7686C11.4331 39.2568 8.81401 39.3736 7.96129 38.6242C7.73613 38.4231 7.62097 38.1275 7.65191 37.8267C7.85129 37.1392 8.33941 35.0767 6.88191 33.6124C6.88191 33.6124 6.76504 33.4818 6.88191 33.2411C7.12082 32.7049 7.04176 32.0793 6.67566 31.6186C6.38691 31.2611 6.34566 31.0274 6.35941 30.9861L6.88878 30.5186V29.3911C6.8905 28.6813 6.4127 28.0608 5.72691 27.8786C4.60628 27.5761 4.22128 27.1911 4.16628 27.0468C4.1594 26.9402 4.19378 26.8336 4.26253 26.7511C5.25596 25.5944 6.14802 24.3552 6.93003 23.0455C8.39439 20.5499 8.24316 19.4224 8.00253 18.7968C7.70518 18.1815 7.55395 17.506 7.56253 16.8236C7.8169 13.8674 9.42566 6.71728 18.8098 4.19431L19.3117 4.07056C22.6598 3.22321 26.1884 3.46385 29.3903 4.75806C32.3706 6.00586 34.9383 8.07355 36.7929 10.7205C38.6491 13.3657 39.7164 16.4836 39.8746 19.7115C39.9897 23.1765 38.9929 26.5882 37.0283 29.4465C36.4096 30.409 35.6533 31.4471 34.9108 32.4096C34.1322 33.2535 33.6355 34.3209 33.4945 35.4621C33.1439 37.6896 33.8108 40.2264 35.4745 43.0248L35.8114 43.568L35.8802 43.5198C37.238 42.6467 37.7639 40.9176 37.1245 39.4361C35.7495 36.0742 37.0558 34.6234 37.0764 34.6234L37.2628 34.43Z" fill="#0F2851"/>
</svg>
