<?xml version="1.0" encoding="UTF-8"?>
<svg width="44" height="44" viewBox="0 0 44 44" fill="none" xmlns="http://www.w3.org/2000/svg">
<path d="M21.996 7.04004C21.4142 7.04415 20.9434 7.50926 20.9455 8.0814V15.3376H17.7875C17.505 15.3355 17.2351 15.4446 17.0363 15.6401C16.8374 15.8356 16.7244 16.1011 16.7265 16.3789V24.6682C16.7244 24.9461 16.8374 25.2115 17.0363 25.407C17.2351 25.6025 17.505 25.7116 17.7875 25.7095H34.6527C34.9331 25.7095 35.2031 25.6005 35.4019 25.405C35.6007 25.2095 35.7116 24.946 35.7095 24.6682V16.3789C35.7116 16.1011 35.6007 15.8356 35.4019 15.6401C35.2031 15.4467 34.9331 15.3355 34.6527 15.3376H31.4906V8.0814C31.4927 7.80562 31.3818 7.54017 31.183 7.34466C30.9842 7.14915 30.7142 7.04008 30.4317 7.04008L21.996 7.04004ZM7.24003 9.11653C6.95541 9.11036 6.68125 9.21738 6.47825 9.41288C6.27526 9.60633 6.16016 9.87387 6.16016 10.1537C6.16016 10.4316 6.27526 10.6991 6.47825 10.8946C6.68125 11.09 6.9554 11.1971 7.24003 11.1909H12.5095V28.8154C12.5075 29.0932 12.6184 29.3586 12.8172 29.5542C13.016 29.7497 13.286 29.8587 13.5664 29.8567H36.7603C37.0449 29.8628 37.3191 29.7579 37.5221 29.5624C37.7251 29.3669 37.8402 29.0993 37.8402 28.8194C37.8402 28.5416 37.7251 28.274 37.5221 28.0786C37.3191 27.8831 37.0449 27.7781 36.7603 27.7843H14.617V10.1578C14.619 9.58565 14.1503 9.11845 13.5664 9.1164L7.24003 9.11653ZM32.5416 29.8567C30.8067 29.8567 29.3836 31.2603 29.3836 32.9663C29.3836 34.6703 30.8067 36.08 32.5416 36.08C34.2765 36.08 35.71 34.6703 35.71 32.9663C35.71 31.2602 34.2765 29.8567 32.5416 29.8567ZM17.7877 29.8567C16.0528 29.8567 14.6172 31.2603 14.6172 32.9663C14.6172 34.6703 16.0528 36.08 17.7877 36.08C19.5205 36.08 20.9457 34.6703 20.9457 32.9663C20.9457 31.2602 19.5205 29.8567 17.7877 29.8567ZM23.0552 9.11653H29.3834V15.338H23.0552V9.11653ZM18.8383 17.4143H25.1649V23.6337H18.8383V17.4143ZM27.2741 17.4143H33.6023V23.6337H27.2741V17.4143ZM17.7877 31.9314C18.382 31.9314 18.8382 32.3801 18.8382 32.9666C18.8382 33.551 18.382 34.0059 17.7877 34.0059C17.1912 34.0059 16.7266 33.5511 16.7266 32.9666C16.7266 32.38 17.1912 31.9314 17.7877 31.9314ZM32.5415 31.9314C33.1359 31.9314 33.6026 32.3801 33.6026 32.9666C33.6026 33.551 33.1359 34.0059 32.5415 34.0059C31.9472 34.0059 31.491 33.5511 31.491 32.9666C31.491 32.38 31.9472 31.9314 32.5415 31.9314Z" fill="white"/>
</svg>
