<?xml version="1.0" encoding="UTF-8"?>
<svg width="44" height="44" viewBox="0 0 44 44" fill="none" xmlns="http://www.w3.org/2000/svg">
<path fill-rule="evenodd" clip-rule="evenodd" d="M11.0002 4.40001C11.0002 3.18486 11.985 2.20001 13.2002 2.20001C14.4153 2.20001 15.4002 3.18486 15.4002 4.40001V7.04001C15.4002 7.11392 15.3967 7.18783 15.3898 7.26001H28.6105C28.6036 7.18783 28.6002 7.11392 28.6002 7.04001V4.40001C28.6002 3.18486 29.5851 2.20001 30.8002 2.20001C32.0154 2.20001 33.0002 3.18486 33.0002 4.40001V7.04001C33.0002 7.11392 32.9968 7.18783 32.9899 7.26001H37.1802C39.7325 7.26001 41.8002 9.32766 41.8002 11.88V37.18C41.8002 39.7324 39.7325 41.8 37.1802 41.8H6.8202C4.26784 41.8 2.2002 39.7324 2.2002 37.18V11.88C2.2002 9.32766 4.26784 7.26001 6.8202 7.26001H11.0105C11.0036 7.18783 11.0002 7.11392 11.0002 7.04001L11.0002 4.40001ZM6.82016 10.34C5.96937 10.34 5.28016 11.0292 5.28016 11.88V15.84H38.7202V11.88C38.7202 11.0292 38.0309 10.34 37.1802 10.34H6.82016ZM5.28016 37.18V18.92H38.7202V37.18C38.7202 38.0308 38.0309 38.72 37.1802 38.72H6.82016C5.96937 38.72 5.28016 38.0308 5.28016 37.18ZM11.4402 25.3V23.54H13.2002V25.3H11.4402ZM9.24016 23.1C9.24016 22.1272 10.0274 21.34 11.0002 21.34H13.6402C14.613 21.34 15.4002 22.1272 15.4002 23.1V25.74C15.4002 26.7128 14.613 27.5 13.6402 27.5H11.0002C10.0274 27.5 9.24016 26.7128 9.24016 25.74V23.1ZM11.4402 32.34V34.1H13.2002V32.34H11.4402ZM11.0002 30.14C10.0274 30.14 9.24016 30.9272 9.24016 31.9V34.54C9.24016 35.5128 10.0274 36.3 11.0002 36.3H13.6402C14.613 36.3 15.4002 35.5128 15.4002 34.54V31.9C15.4002 30.9272 14.613 30.14 13.6402 30.14H11.0002ZM30.8002 25.3V23.54H32.5602V25.3H30.8002ZM28.6002 23.1C28.6002 22.1272 29.3874 21.34 30.3602 21.34H33.0002C33.973 21.34 34.7602 22.1272 34.7602 23.1V25.74C34.7602 26.7128 33.973 27.5 33.0002 27.5H30.3602C29.3874 27.5 28.6002 26.7128 28.6002 25.74V23.1ZM21.1202 23.54V25.3H22.8802V23.54H21.1202ZM20.6802 21.34C19.7074 21.34 18.9202 22.1272 18.9202 23.1V25.74C18.9202 26.7128 19.7074 27.5 20.6802 27.5H23.3202C24.293 27.5 25.0802 26.7128 25.0802 25.74V23.1C25.0802 22.1272 24.293 21.34 23.3202 21.34H20.6802ZM21.1202 34.1V32.34H22.8802V34.1H21.1202ZM18.9202 31.9C18.9202 30.9272 19.7074 30.14 20.6802 30.14H23.3202C24.293 30.14 25.0802 30.9272 25.0802 31.9V34.54C25.0802 35.5128 24.293 36.3 23.3202 36.3H20.6802C19.7074 36.3 18.9202 35.5128 18.9202 34.54V31.9Z" fill="#0F2851"/>
</svg>
