<?xml version="1.0" encoding="UTF-8"?>
<svg width="44" height="44" viewBox="0 0 44 44" fill="none" xmlns="http://www.w3.org/2000/svg">
<path d="M23.3749 4.17314V2.75C23.3749 1.9903 22.7596 1.375 21.9999 1.375C21.2402 1.375 20.6249 1.9903 20.6249 2.75V4.17314C15.7128 4.47048 11.043 6.41265 7.36817 9.68326C3.69175 12.9558 1.22181 17.3679 0.357207 22.2131C0.350332 22.3111 0.350332 22.4108 0.357207 22.5088C0.35377 22.6841 0.382988 22.8594 0.439707 23.0244C0.697521 23.7377 1.48642 24.1072 2.19971 23.8494C5.675 22.6067 9.44607 22.4607 13.007 23.43C13.5587 23.5813 14.1036 23.76 14.6364 23.9663L14.7807 24.0075H15.0076L15.1245 24.0625H15.3995L15.5232 24.0282H15.6401C16.1764 23.8202 16.7212 23.6415 17.2764 23.4919C18.3695 23.1705 19.4901 22.9556 20.6245 22.8525V38.4998C20.6245 39.2595 20.0092 39.8748 19.2495 39.8748C18.4898 39.8748 17.8745 39.2595 17.8745 38.4998V37.1248C17.8745 36.3651 17.2592 35.7498 16.4995 35.7498C15.7398 35.7498 15.1245 36.3651 15.1245 37.1248V38.4998C15.1245 40.7772 16.9721 42.6248 19.2495 42.6248C21.5269 42.6248 23.3745 40.7772 23.3745 38.4998V22.8525C24.5106 22.935 25.6381 23.1275 26.7364 23.43C27.2915 23.5796 27.8364 23.7583 28.3726 23.9663C28.4345 23.9904 28.4998 24.0093 28.5651 24.0213H28.5995C28.6889 24.0454 28.7817 24.0591 28.8745 24.0626C28.9983 24.0608 29.1203 24.0437 29.2389 24.0076H29.3764C29.9092 23.8013 30.454 23.6226 31.0058 23.4713C34.567 22.5019 38.3379 22.648 41.813 23.8907C42.5263 24.1485 43.3152 23.7789 43.573 23.0657C43.6298 22.9007 43.659 22.7253 43.6555 22.55C43.6624 22.4521 43.6624 22.3524 43.6555 22.2544C42.7979 17.4008 40.3298 12.9766 36.6516 9.69548C32.9718 6.41611 28.2951 4.47048 23.3742 4.17304L23.3749 4.17314ZM13.6122 20.7488C10.3294 19.886 6.88505 19.8447 3.58153 20.6251C4.54746 17.356 6.36932 14.403 8.85625 12.0723C11.345 9.74171 14.4112 8.11921 17.7372 7.36963C15.5991 9.83776 13.3716 14.0383 13.6122 20.7483V20.7488ZM27.6302 20.8244L27.4995 20.7763C23.9211 19.8 20.1467 19.8 16.5682 20.7763L16.4032 20.8244C16.0044 12.0108 20.37 8.25012 21.9995 7.19808C23.6358 8.24995 27.9945 12.0174 27.6302 20.8244H27.6302ZM39.7029 20.4257C39.5241 20.3913 39.3385 20.3707 39.1598 20.3432C38.8229 20.2813 38.4723 20.2263 38.1423 20.1851L37.5648 20.1369C37.2348 20.1369 36.8773 20.0751 36.5679 20.0613H35.9629H34.9935L34.3679 20.1026C34.0516 20.1026 33.7354 20.1369 33.426 20.1782C33.1167 20.2194 32.9929 20.2401 32.7729 20.2744C32.5529 20.3088 32.1679 20.3501 31.8654 20.4119C31.5629 20.4738 31.4254 20.5151 31.1779 20.5632C30.9304 20.6113 30.6348 20.6732 30.3666 20.7488C30.6072 14.0388 28.3798 9.83814 26.2416 7.37018C29.5708 8.11611 32.6405 9.73861 35.1345 12.0694C37.6267 14.3983 39.4502 17.3529 40.418 20.6252C40.1842 20.5358 39.9436 20.4739 39.703 20.4258L39.7029 20.4257Z" fill="#0F2851"/>
</svg>
