<?xml version="1.0" encoding="UTF-8"?>
<svg width="44" height="44" viewBox="0 0 44 44" fill="none" xmlns="http://www.w3.org/2000/svg">
<g clip-path="url(#clip0_1574_26759)">
<path d="M42.6248 38.5H41.2498L23.1685 9.07505L25.781 4.81255C26.1935 4.19382 25.9872 3.30005 25.2997 2.95628C24.6122 2.54378 23.7872 2.75003 23.3747 3.43755L21.5184 6.46255L19.7309 3.43755C19.3184 2.75005 18.4934 2.54382 17.8746 2.95628C17.1871 3.36878 16.9809 4.19378 17.3934 4.81255L20.0059 9.07505L2.74951 38.5H1.37451C0.61824 38.5 -0.000488281 39.1188 -0.000488281 39.875C-0.000488281 40.6313 0.61824 41.25 1.37451 41.25H42.6245C43.3808 41.25 43.9995 40.6313 43.9995 39.875C43.9995 39.1188 43.3808 38.5 42.6245 38.5H42.6248ZM30.8685 38.5L22.9621 27.775V13.9564L38.0185 38.5H30.8685ZM21.5871 30.525L27.4307 38.5H15.6744L21.5871 30.525ZM20.2121 14.1623V27.775L12.3057 38.5H5.9121L20.2121 14.1623Z" fill="#0F2851"/>
</g>
<defs>
<clipPath id="clip0_1574_26759">
<rect width="44" height="44" fill="white"/>
</clipPath>
</defs>
</svg>
