<?xml version="1.0" encoding="UTF-8"?>
<svg width="44" height="44" viewBox="0 0 44 44" fill="none" xmlns="http://www.w3.org/2000/svg">
<path d="M17.3406 25.4668C17.3406 23.198 15.9742 21.1527 13.8773 20.2849C11.7805 19.4169 9.36733 19.8965 7.76353 21.5C6.15824 23.1053 5.67868 25.5185 6.54667 27.6138C7.41637 29.7107 9.46167 31.0771 11.7303 31.0771C14.8275 31.0754 17.3386 28.5643 17.3403 25.4671L17.3406 25.4668ZM8.76062 25.4668C8.76062 24.2654 9.4842 23.1826 10.5945 22.7236C11.7031 22.263 12.9819 22.5174 13.831 23.3664C14.68 24.2172 14.9344 25.4942 14.4738 26.6046C14.0148 27.7131 12.932 28.4368 11.7306 28.4368C10.0909 28.4351 8.76233 27.1065 8.76062 25.4668Z" fill="#0F2851"/>
<path d="M4.08373 33.7168V43.7268H6.72373V35.0368H18.3305C18.5092 35.0368 18.6863 35.0024 18.8496 34.9319L25.0096 32.2919C25.4221 32.1166 25.716 31.7436 25.7933 31.3019L26.9242 24.7019H28.4419L27.0342 33.4144L17.7049 38.3815C17.2752 38.6101 17.0054 39.0587 17.0054 39.5468V43.7268H19.6454V40.3392L28.8511 35.4288C29.2154 35.2346 29.4681 34.8822 29.5334 34.4749L31.2934 23.5849C31.3553 23.1999 31.2436 22.8063 30.9892 22.5106C30.7348 22.215 30.3636 22.0483 29.9734 22.0534H29.2601L29.542 18.8634H38.5963C39.325 18.8634 39.9163 18.2722 39.9163 17.5434V1.81695C39.9163 1.08822 39.325 0.496948 38.5963 0.496948H17.0363C16.3076 0.496948 15.7163 1.08822 15.7163 1.81695V17.547C15.7163 18.2757 16.3076 18.867 17.0363 18.867H26.8914L26.6096 22.057H25.8103C25.1606 22.0484 24.6003 22.5124 24.4903 23.1535L23.3199 30.1456L18.0399 32.3971H5.4035C4.67477 32.3971 4.0835 32.9884 4.0835 33.7171L4.08373 33.7168ZM18.3564 16.2268V3.13676H37.2764V16.2268H29.7964L30.0302 13.5868L27.3902 13.353L27.1358 16.2216L18.3564 16.2268Z" fill="#0F2851"/>
<path d="M20.8657 5.44678H26.4757V8.08678H20.8657V5.44678Z" fill="#0F2851"/>
<path d="M20.8657 9.84674H33.9557V12.4867H20.8657V9.84674Z" fill="#0F2851"/>
</svg>
