<?xml version="1.0" encoding="UTF-8"?>
<svg width="44" height="44" viewBox="0 0 44 44" fill="none" xmlns="http://www.w3.org/2000/svg">
<path d="M40.7876 19.8447L38.72 16.06C38.0273 14.7864 36.6936 13.9923 35.2447 13.9923H30.4478V12.54C30.4478 11.7235 30.123 10.9398 29.5455 10.3623C28.9679 9.78481 28.1842 9.45996 27.3678 9.45996H9.37269C7.67112 9.45996 6.29269 10.8384 6.29269 12.54V13.64H2.37568C2.02333 13.6279 1.6796 13.762 1.42866 14.0129C1.17944 14.2639 1.04366 14.6059 1.05569 14.9599C1.05569 15.6887 1.64697 16.2799 2.37569 16.2799H12.6281C13.3483 16.2576 13.9258 15.6801 13.9481 14.9599C13.9481 14.2312 13.3569 13.6399 12.6281 13.6399H8.93284V12.5399C8.93284 12.2976 9.12878 12.0999 9.37284 12.0999H27.368C27.6017 12.1206 27.7873 12.3062 27.808 12.5399V28.6448H17.9955C17.418 26.7611 15.6769 25.4737 13.7055 25.4737C11.7358 25.4737 9.99473 26.7611 9.41552 28.6448H9.37083H9.37255C9.12849 28.6448 8.93255 28.4472 8.93255 28.2048V24.4201H12.6278C13.348 24.3978 13.9255 23.8203 13.9478 23.1001C13.9478 22.3714 13.3566 21.7801 12.6278 21.7801H2.37541C2.02306 21.7681 1.67933 21.9021 1.42839 22.1531C1.17917 22.404 1.04339 22.7461 1.05542 23.1001C1.05542 23.8288 1.6467 24.4201 2.37542 24.4201H6.29072V28.2048H6.29244C6.29244 29.9047 7.67087 31.2848 9.37244 31.2848C9.93964 33.2167 11.7134 34.5435 13.7277 34.5401C15.7301 34.5384 17.4901 33.2098 18.0401 31.2848H31.1952C31.7504 33.2047 33.5086 34.5281 35.5076 34.5281C37.5065 34.5281 39.2648 33.2047 39.8199 31.2848H40.3046C41.7621 31.2848 42.9446 30.1023 42.9446 28.6448V22.4399C42.9618 21.1612 42.0474 20.0612 40.7876 19.8446L40.7876 19.8447ZM35.2445 16.6323C35.7154 16.6323 36.152 16.8832 36.3875 17.2923L37.7522 19.8H30.4473V16.6323H35.2445ZM13.7276 31.8999C12.9542 31.9171 12.2495 31.4633 11.9453 30.7517C11.6411 30.0419 11.7992 29.2169 12.3475 28.6703C12.894 28.1238 13.7173 27.9639 14.4289 28.2681C15.1387 28.5724 15.5942 29.2788 15.5753 30.0522C15.5753 30.5421 15.3811 31.0113 15.0339 31.3585C14.6884 31.7057 14.2175 31.8999 13.7276 31.8999L13.7276 31.8999ZM35.5076 31.8999C34.7342 31.9171 34.0295 31.4633 33.7253 30.7517C33.4211 30.0419 33.5792 29.2169 34.1275 28.6703C34.674 28.1238 35.4973 27.9639 36.2089 28.2681C36.9187 28.5724 37.3742 29.2788 37.3553 30.0522C37.3553 30.5421 37.1611 31.0113 36.8139 31.3585C36.4684 31.7057 35.9975 31.8999 35.5076 31.8999L35.5076 31.8999ZM40.3028 28.6446H39.7751C39.1753 26.7952 37.4514 25.5439 35.5075 25.5439C33.5635 25.5439 31.8414 26.7952 31.2398 28.6446H30.4475V22.4397H40.3043L40.3028 28.6446Z" fill="white"/>
<path d="M15.3127 20.3275C15.6668 20.3395 16.0088 20.2055 16.2597 19.9545C16.5089 19.7053 16.6447 19.3615 16.6327 19.0075C16.6327 18.2788 16.0414 17.6875 15.3127 17.6875H5.06023C4.34009 17.7098 3.76259 18.2891 3.74023 19.0075C3.74023 19.7362 4.33151 20.3275 5.06023 20.3275L15.3127 20.3275Z" fill="white"/>
</svg>
