<?xml version="1.0" encoding="UTF-8"?>
<svg width="44" height="44" viewBox="0 0 44 44" fill="none" xmlns="http://www.w3.org/2000/svg">
<path d="M20.7257 8.75537C13.3333 8.75537 7.35059 14.7403 7.35059 22.1305C7.35059 29.5229 13.3355 35.5056 20.7257 35.5056C28.1181 35.5056 34.1008 29.5207 34.1008 22.1305C34.1008 14.7403 28.1159 8.75537 20.7257 8.75537ZM29.5688 15.1354C28.6441 15.223 27.7212 15.3107 26.7535 15.3554C26.4012 15.4001 26.0059 15.4001 25.6088 15.4447C25.2565 13.9047 24.7735 12.4971 24.2012 11.3971C26.3565 12.1001 28.2059 13.4201 29.5687 15.1354L29.5688 15.1354ZM20.7257 33.4403C19.8457 33.4403 18.701 31.725 17.9534 28.7754C19.801 28.7307 21.6486 28.7307 23.4534 28.7754C22.7486 31.7247 21.6057 33.4403 20.7257 33.4403ZM17.5563 26.6651C17.381 25.6098 17.2917 24.4204 17.2487 23.1898L24.2011 23.1881C24.1564 24.4634 24.0688 25.6081 23.8935 26.6634C21.7811 26.6204 19.6688 26.6204 17.5566 26.6651H17.5563ZM20.7257 10.8251C21.6057 10.8251 22.7504 12.5404 23.4981 15.49C22.6181 15.5347 21.6934 15.5347 20.7257 15.5347C19.801 15.5347 18.8781 15.5347 17.9534 15.49C18.701 12.5406 19.8457 10.8251 20.7257 10.8251ZM20.7257 17.6451C21.8257 17.6451 22.8381 17.6451 23.8934 17.6004C24.0687 18.6557 24.158 19.8451 24.201 21.0757H17.2486C17.2933 19.8004 17.3809 18.6557 17.5562 17.6004C18.6132 17.6451 19.6686 17.6451 20.7256 17.6451H20.7257ZM15.1808 21.0758H9.50571C9.63805 19.6681 10.0334 18.3034 10.6504 17.1158C11.9257 17.2481 13.2457 17.3805 14.6104 17.4681C14.9181 17.4681 15.2257 17.5128 15.5351 17.5128C15.3134 18.6558 15.2257 19.8881 15.1811 21.0758L15.1808 21.0758ZM15.1808 23.1881C15.2255 24.4205 15.3132 25.6081 15.4885 26.7958C15.1808 26.7958 14.8732 26.8405 14.6085 26.8405C13.2885 26.9281 11.9685 27.0158 10.6485 27.1928C10.0332 25.9604 9.63613 24.6404 9.50378 23.2328H15.1807L15.1808 23.1881ZM26.2684 23.1881H31.9435C31.8112 24.5958 31.4159 25.9605 30.7988 27.1481C29.5235 27.0158 28.2035 26.8834 26.8835 26.7958C26.5758 26.7958 26.2682 26.7511 25.9588 26.7511C26.1358 25.6081 26.2682 24.4205 26.2682 23.1881L26.2684 23.1881ZM26.2684 21.0758C26.2237 19.8434 26.136 18.6558 25.9607 17.5111C26.2684 17.5111 26.576 17.4664 26.8854 17.4664C28.2501 17.3787 29.5701 17.2464 30.8007 17.114C31.416 18.3464 31.8131 19.6664 31.9454 21.074L26.2684 21.0758ZM17.2933 11.3958C16.678 12.4958 16.1933 13.9034 15.8856 15.4434C15.4903 15.4434 15.0933 15.3987 14.7409 15.3987C13.7733 15.354 12.8486 15.2664 11.9256 15.1787C13.2456 13.4204 15.1363 12.1004 17.2932 11.3957L17.2933 11.3958ZM11.8808 29.1282C12.8055 29.0405 13.7732 28.9529 14.6961 28.9082C15.0914 28.8635 15.4438 28.8635 15.8408 28.8635C16.1932 30.4035 16.6761 31.8112 17.2485 32.9112C15.1361 32.2082 13.2455 30.8882 11.8809 29.1282L11.8808 29.1282ZM24.2008 32.8682C24.8161 31.7682 25.2561 30.3606 25.6085 28.8206C26.0038 28.8206 26.4008 28.8652 26.7961 28.8652C27.7638 28.9099 28.6885 28.9976 29.6114 29.0852C28.2055 30.8452 26.3561 32.2082 24.2007 32.8682L24.2008 32.8682Z" fill="white"/>
<path d="M42.8128 20.0651C42.6805 19.8004 42.3728 19.6251 42.0652 19.6251H40.4805C39.9528 15.6204 38.1928 11.7499 35.4205 8.80018C32.0757 5.19253 27.4129 2.86018 22.5729 2.46506C17.7329 2.02506 12.7178 3.47741 8.88801 6.42506C5.01566 9.37271 2.28801 13.7726 1.45289 18.5251C0.528187 23.2757 1.54055 28.3357 4.09289 32.4282C6.64523 36.5206 10.736 39.6006 15.4005 40.9206C20.0205 42.2406 25.1253 41.713 29.3929 39.6006C31.5052 38.5006 33.4405 37.0483 35.068 35.2883C36.6527 33.4836 37.928 31.4606 38.808 29.2158C38.9833 28.8205 38.7633 28.3358 38.368 28.1605C37.9727 27.9852 37.488 28.2052 37.3127 28.6005C36.4774 30.6252 35.3327 32.5158 33.8374 34.1454C32.3421 35.7301 30.5821 37.0501 28.6023 38.0607C24.687 39.996 20.0672 40.3931 15.8872 39.1607C11.7072 37.9731 8.05474 35.156 5.76718 31.4607C3.52076 27.676 2.68546 23.1456 3.52076 18.9207C4.31311 14.696 6.77605 10.7807 10.2083 8.22827C13.6407 5.63297 18.0408 4.40062 22.3083 4.84062C26.576 5.23593 30.6234 7.30532 33.4834 10.4731C35.7711 13.0254 37.2681 16.2379 37.7511 19.6255H36.5634C36.2558 19.6255 35.9481 19.8008 35.8158 20.0655C35.6405 20.3302 35.6834 20.6808 35.8605 20.9455L38.5881 25.1702C38.7634 25.4349 39.0281 25.5655 39.3358 25.5655C39.6434 25.5655 39.9081 25.4332 40.0834 25.1702L42.8111 20.9455C42.9451 20.7255 42.9451 20.3731 42.8128 20.0655L42.8128 20.0651Z" fill="white"/>
</svg>
