<?xml version="1.0" encoding="UTF-8"?>
<svg width="44" height="44" viewBox="0 0 44 44" fill="none" xmlns="http://www.w3.org/2000/svg">
<path d="M21.9999 1.15158C16.4312 1.15158 11.1974 3.31722 7.26164 7.25306C3.3257 11.189 1.16016 16.4227 1.16016 21.9913C1.16016 27.5599 3.32579 32.7937 7.26164 36.7295C11.1976 40.6655 16.4312 42.831 21.9999 42.831C27.5685 42.831 32.8023 40.6654 36.7381 36.7295C40.674 32.7936 42.8396 27.5599 42.8396 21.9913C42.8396 16.4227 40.674 11.1889 36.7381 7.25306C32.8022 3.32571 27.5685 1.15158 21.9999 1.15158ZM21.9999 39.9266C12.117 39.9266 4.0734 31.8829 4.0734 22.0001C4.0734 12.1173 12.117 4.07362 21.9999 4.07362C31.8827 4.07362 39.9264 12.1173 39.9264 22.0001C39.9264 31.8829 31.8827 39.9266 21.9999 39.9266Z" fill="#0F2851"/>
<path d="M27.4828 21.828L22.2578 21.8366V14.317C22.2578 13.5092 21.6047 12.856 20.7969 12.856C19.9891 12.856 19.3359 13.5092 19.3359 14.317V23.3062C19.3359 23.6929 19.4992 24.0625 19.7742 24.3375C20.0492 24.6125 20.4274 24.7585 20.8141 24.7585L27.4743 24.75C28.2821 24.75 28.9353 24.0968 28.9353 23.289C28.9439 22.4726 28.2908 21.8281 27.4829 21.8281L27.4828 21.828Z" fill="#0F2851"/>
</svg>
