<?xml version="1.0" encoding="UTF-8"?>
<svg width="61" height="62" viewBox="0 0 61 62" fill="none" xmlns="http://www.w3.org/2000/svg">
<path d="M0 45.75C0 20.483 20.483 0 45.75 0V0C54.1723 0 61 6.82766 61 15.25V32C61 48.5685 47.5685 62 31 62H15.5C6.93959 62 0 55.0604 0 46.5V45.75Z" fill="#C0D0FF"/>
<path d="M45.1874 38.7185V18.7813C45.165 16.5245 43.228 15.1152 41.0624 15.3438V11.9063C41.0606 10.3886 39.83 9.15797 38.3124 9.15625H32.8124V8.46875C32.8106 7.33095 31.8877 6.40797 30.7499 6.40625H25.2499C24.1121 6.40797 23.1891 7.33095 23.1874 8.46875V9.15625H17.6874C16.1697 9.15797 14.9391 10.3886 14.9374 11.9063V15.3438C12.77 15.1169 10.8347 16.5228 10.8124 18.7813V38.7185C8.92343 38.734 7.40063 40.2671 7.40063 42.156C7.40063 44.045 8.92515 45.5798 10.8124 45.5935H45.1874C47.0763 45.5781 48.5991 44.045 48.5991 42.156C48.5991 40.2671 47.0763 38.734 45.1874 38.7185ZM24.5624 8.46853C24.5624 8.08869 24.87 7.78103 25.2499 7.78103H30.7499C31.1297 7.78103 31.4374 8.08869 31.4374 8.46853V10.531C31.4374 10.9109 31.1297 11.2185 30.7499 11.2185H25.2499C24.87 11.2185 24.5624 10.9109 24.5624 10.531V8.46853ZM16.3124 11.906C16.3141 11.1463 16.9276 10.5327 17.6874 10.531H23.1874C23.1891 11.6688 24.1121 12.5918 25.2499 12.5935H30.7499C31.8877 12.5918 32.8106 11.6688 32.8124 10.531H38.3124C39.0721 10.5328 39.6856 11.1463 39.6874 11.906V32.531C39.6856 33.2907 39.0721 33.9043 38.3124 33.906H17.6874C16.9276 33.9043 16.3141 33.2907 16.3124 32.531V11.906ZM12.1874 18.781C12.1891 17.6432 13.1121 16.7202 14.2499 16.7185H14.9374V32.5313C14.9391 34.0489 16.1697 35.2795 17.6874 35.2813H38.3124C39.83 35.2795 41.0606 34.0489 41.0624 32.5313V16.7185H41.7499C42.8877 16.7203 43.8106 17.6432 43.8124 18.781V38.7183H12.1874V18.781ZM31.4374 40.0938C31.4356 40.8535 30.8221 41.467 30.0624 41.4688H25.9374C25.1777 41.467 24.5641 40.8535 24.5624 40.0938H31.4374ZM45.1874 44.2188H10.8124C9.67284 44.2188 8.74985 43.2958 8.74985 42.1563C8.74985 41.0167 9.67284 40.0938 10.8124 40.0938H23.1874C23.1891 41.6114 24.4197 42.842 25.9374 42.8438H30.0624C31.58 42.842 32.8106 41.6114 32.8124 40.0938H45.1874C46.3166 40.1058 47.2275 41.0253 47.2275 42.1563C47.2275 43.2872 46.3166 44.2068 45.1874 44.2188Z" fill="#0F2851"/>
<path d="M21.3262 19.9553C21.4551 20.0842 21.6304 20.1564 21.8126 20.1564C21.9948 20.1564 22.1701 20.0842 22.299 19.9553L26.424 15.8303C26.6835 15.5605 26.6801 15.1325 26.4137 14.8678C26.149 14.6031 25.7211 14.598 25.4512 14.8575L21.8126 18.4961L20.2365 16.92C19.9667 16.6605 19.5387 16.6656 19.274 16.9303C19.0094 17.195 19.0042 17.6229 19.2637 17.8928L21.3262 19.9553Z" fill="#0F2851"/>
<path d="M31.4375 16.7188H35.5625C35.9389 16.7136 36.2397 16.4077 36.2397 16.0313C36.2397 15.6548 35.9389 15.3489 35.5625 15.3438H31.4375C31.0611 15.3489 30.7603 15.6548 30.7603 16.0313C30.7603 16.4077 31.061 16.7136 31.4375 16.7188Z" fill="#0F2851"/>
<path d="M35.5627 18.0938H33.5002C33.1238 18.0989 32.823 18.4048 32.823 18.7813C32.823 19.1577 33.1238 19.4636 33.5002 19.4688H35.5627C35.9391 19.4636 36.2399 19.1577 36.2399 18.7813C36.2399 18.4048 35.9391 18.0989 35.5627 18.0938Z" fill="#0F2851"/>
<path d="M31.4375 25.6563H35.5625C35.9389 25.6511 36.2397 25.3452 36.2397 24.9688C36.2397 24.5923 35.9389 24.2864 35.5625 24.2812H31.4375C31.0611 24.2864 30.7603 24.5923 30.7603 24.9688C30.7603 25.3452 31.061 25.6511 31.4375 25.6563Z" fill="#0F2851"/>
<path d="M35.5627 27.0312H33.5002C33.1238 27.0364 32.823 27.3423 32.823 27.7188C32.823 28.0952 33.1238 28.4011 33.5002 28.4063H35.5627C35.9391 28.4011 36.2399 28.0952 36.2399 27.7188C36.2399 27.3423 35.9391 27.0364 35.5627 27.0312Z" fill="#0F2851"/>
<path d="M25.0489 23.7944C24.92 23.6655 24.7447 23.5933 24.5625 23.5933C24.3803 23.5933 24.205 23.6655 24.0761 23.7944L22.5 25.3705L20.9239 23.7944C20.795 23.6637 20.6197 23.5916 20.4358 23.5898C20.2536 23.5898 20.0783 23.662 19.9477 23.7909C19.8188 23.9216 19.7466 24.0969 19.7466 24.2791C19.7483 24.463 19.8205 24.6383 19.9511 24.7672L21.5272 26.3433L19.9511 27.9194C19.8205 28.0483 19.7466 28.2236 19.7466 28.4075C19.7466 28.5897 19.8188 28.765 19.9477 28.8956C20.0783 29.0245 20.2536 29.0967 20.4358 29.0967C20.6197 29.0967 20.795 29.0228 20.9239 28.8922L22.5 27.3161L24.0761 28.8922C24.3442 29.1586 24.7791 29.1586 25.0472 28.8905C25.3153 28.6224 25.3153 28.1875 25.0489 27.9194L23.4728 26.3433L25.0489 24.7672C25.1778 24.6383 25.25 24.463 25.25 24.2808C25.25 24.0986 25.1778 23.9233 25.0489 23.7944L25.0489 23.7944Z" fill="#0F2851"/>
</svg>
