<?xml version="1.0" encoding="UTF-8"?>
<svg width="44" height="44" viewBox="0 0 44 44" fill="none" xmlns="http://www.w3.org/2000/svg">
<path d="M41.1811 33.1248H2.81835C1.421 33.1248 0.283203 31.987 0.283203 30.5896V5.15234C0.283203 3.75498 1.421 2.61719 2.81835 2.61719H41.1811C42.5784 2.61719 43.7162 3.75498 43.7162 5.15234V30.5896C43.7162 31.987 42.5784 33.1248 41.1811 33.1248ZM2.81835 3.80976C2.07757 3.80976 1.476 4.41133 1.476 5.15212V30.5894C1.476 31.3302 2.07757 31.9317 2.81835 31.9317H41.1811C41.9219 31.9317 42.5234 31.3302 42.5234 30.5894V5.15212C42.5234 4.41133 41.9219 3.80976 41.1811 3.80976H2.81835Z" fill="white"/>
<path d="M43.1196 26.6538H0.879623C0.549623 26.6538 0.283203 26.3874 0.283203 26.0574C0.283203 25.7273 0.54961 25.4609 0.879623 25.4609H43.1196C43.4496 25.4609 43.716 25.7273 43.716 26.0574C43.716 26.3856 43.4496 26.6538 43.1196 26.6538Z" fill="white"/>
<path d="M22.9359 29.2965C22.9359 30.5443 21.0625 30.5443 21.0625 29.2965C21.0625 28.047 22.9359 28.047 22.9359 29.2965" fill="white"/>
<path d="M21.9988 23.9165C21.8853 23.9165 21.7753 23.8855 21.6756 23.822C21.5055 23.712 21.4023 23.5246 21.4023 23.3201V13.5921C21.4023 13.3601 21.5381 13.147 21.7513 13.0507L30.1337 9.22649C30.3176 9.14055 30.5342 9.15774 30.7043 9.26602C30.8745 9.37602 30.9776 9.56336 30.9776 9.76788V19.4976C30.9776 19.7296 30.8418 19.9428 30.6287 20.039L22.2463 23.8632C22.1655 23.8993 22.0847 23.9165 21.9988 23.9165L21.9988 23.9165ZM22.5952 13.9751V22.3919L29.7865 19.1108L29.7848 10.6976L22.5952 13.9751Z" fill="white"/>
<path d="M22.0003 23.9153C21.9144 23.9153 21.8336 23.8981 21.7528 23.862L13.3704 20.0378C13.1573 19.9416 13.0215 19.7284 13.0215 19.4964V9.76843C13.0215 9.56733 13.1229 9.37655 13.2948 9.26656C13.4649 9.15656 13.6815 9.14109 13.8654 9.22703L22.2478 13.0512C22.461 13.1475 22.5967 13.3606 22.5967 13.5927V23.3206C22.5967 23.5217 22.4953 23.7125 22.3235 23.8225C22.2238 23.8844 22.1138 23.9153 22.0003 23.9153L22.0003 23.9153ZM14.2145 19.1131L21.4041 22.3942V13.9739L14.2145 10.6963V19.1131Z" fill="white"/>
<path d="M30.3827 10.3665C30.3002 10.3665 30.216 10.3493 30.1352 10.3132L22.0005 6.60239L13.864 10.3132C13.5632 10.449 13.2109 10.3183 13.0751 10.0176C12.9393 9.71677 13.0699 9.36442 13.3707 9.22863L21.7532 5.40442C21.9096 5.33394 22.0918 5.33394 22.2465 5.40442L30.6307 9.22863C30.9314 9.36441 31.0621 9.7202 30.9263 10.0176C30.8266 10.2393 30.6083 10.3665 30.3831 10.3665L30.3827 10.3665Z" fill="white"/>
<path d="M16.5267 11.6953C16.2998 11.6953 16.0832 11.5647 15.9853 11.3464C15.8495 11.0457 15.9801 10.6933 16.2809 10.5575L24.6633 6.7333C24.9641 6.59752 25.3165 6.72815 25.4522 7.02893C25.588 7.32971 25.4574 7.68207 25.1566 7.81785L16.7724 11.6421C16.6934 11.6782 16.6091 11.6953 16.5266 11.6953H16.5267Z" fill="white"/>
<path d="M18.9642 12.8125C18.7373 12.8125 18.5207 12.6819 18.4228 12.4636C18.287 12.1628 18.4176 11.8105 18.7184 11.6747L27.1008 7.85049C27.4016 7.71471 27.754 7.84534 27.8897 8.14612C28.0255 8.4469 27.8949 8.79926 27.5941 8.93504L19.2117 12.7575C19.1326 12.7954 19.0467 12.8125 18.9642 12.8125V12.8125Z" fill="white"/>
<path d="M18.965 15.0505C18.8791 15.0505 18.7983 15.0333 18.7175 14.9972L16.2786 13.8852C16.0655 13.7889 15.9297 13.5758 15.9297 13.3437V11.1042C15.9297 10.7742 16.1961 10.5078 16.5261 10.5078C16.8561 10.5078 17.1225 10.7742 17.1225 11.1042V12.9605L18.3686 13.5277V12.2163C18.3686 11.8863 18.635 11.6199 18.965 11.6199C19.295 11.6199 19.5614 11.8863 19.5614 12.2163V14.4558C19.5614 14.6569 19.46 14.8477 19.2882 14.9577C19.1902 15.0161 19.0785 15.0505 18.965 15.0505L18.965 15.0505Z" fill="white"/>
<path d="M18.8855 37.2699C18.5555 37.2699 18.2891 37.0035 18.2891 36.6735V32.5261C18.2891 32.1961 18.5555 31.9297 18.8855 31.9297C19.2155 31.9297 19.4819 32.1961 19.4819 32.5261V36.6735C19.4819 37.0035 19.2155 37.2699 18.8855 37.2699Z" fill="white"/>
<path d="M25.114 37.2699C24.784 37.2699 24.5176 37.0035 24.5176 36.6735V32.5261C24.5176 32.1961 24.784 31.9297 25.114 31.9297C25.444 31.9297 25.7104 32.1961 25.7104 32.5261V36.6735C25.7104 37.0035 25.4423 37.2699 25.114 37.2699Z" fill="white"/>
<path d="M32.9376 41.375H11.0613C10.7313 41.375 10.4648 41.1086 10.4648 40.7786C10.4648 38.3122 12.4723 36.3047 14.9388 36.3047H29.0548C31.5213 36.3047 33.5288 38.3122 33.5288 40.7786C33.5339 41.1069 33.2641 41.375 32.9375 41.375H32.9376ZM11.7147 40.1822H32.2864C32.0046 38.6577 30.6656 37.4975 29.0586 37.4975L14.939 37.4958C13.3354 37.4958 11.9965 38.6542 11.7147 40.1822V40.1822Z" fill="white"/>
</svg>
