<?xml version="1.0" encoding="UTF-8"?>
<svg width="44" height="44" viewBox="0 0 44 44" fill="none" xmlns="http://www.w3.org/2000/svg">
<path d="M21.9445 1.32031C19.9254 1.32031 18.2035 2.75947 17.8314 4.67542H16.0892H15.9998C15.521 4.72194 15.1547 5.12898 15.1576 5.61159V6.917H7.52838C7.49954 6.91409 7.4707 6.91409 7.44185 6.917C6.96304 6.96351 6.59675 7.36764 6.59963 7.85316V41.6312C6.59963 42.1488 7.01498 42.5703 7.52839 42.5703H36.3608C36.8743 42.5703 37.2896 42.1487 37.2896 41.6312V7.85316C37.2896 7.33565 36.8743 6.917 36.3608 6.917H28.7317V5.61159C28.7317 5.09408 28.3134 4.67542 27.8 4.67542H26.0578C25.6857 2.75947 23.9638 1.32031 21.9447 1.32031H21.9445ZM21.9445 3.19555C22.9685 3.19555 23.8049 3.81191 24.1251 4.67542H19.764C20.0841 3.8119 20.9206 3.19555 21.9445 3.19555ZM17.018 6.55066H26.8712V9.58304H17.018V6.55066ZM8.45987 8.79223H15.1574V10.5192C15.1574 11.0367 15.5757 11.4583 16.0891 11.4583H27.7994C28.3128 11.4583 28.7311 11.0367 28.7311 10.5192V8.79223H35.4286V34.014H29.6021C29.0887 34.014 28.6734 34.4355 28.6734 34.953V40.6951H8.45958L8.45987 8.79223ZM13.747 17.4766C13.5018 17.4882 13.2711 17.5987 13.1038 17.7819C12.9365 17.968 12.8499 18.2093 12.8615 18.4593C12.873 18.7064 12.9826 18.9419 13.1644 19.1076C13.349 19.2763 13.5884 19.3635 13.8364 19.3519H30.0525C30.3034 19.3548 30.5429 19.2588 30.7188 19.0815C30.8976 18.907 30.9957 18.6657 30.9957 18.4157C30.9957 18.1627 30.8976 17.9243 30.7188 17.747C30.5429 17.5725 30.3034 17.4737 30.0525 17.4766H13.8364H13.747H13.747ZM13.747 23.6722C13.5018 23.6838 13.2711 23.7943 13.1038 23.9804C12.9365 24.1636 12.8499 24.4049 12.8615 24.6549C12.873 24.9049 12.9826 25.1375 13.1644 25.3062C13.349 25.4719 13.5884 25.5591 13.8364 25.5475H30.0525C30.3034 25.5533 30.5429 25.4544 30.7188 25.28C30.8976 25.1026 30.9957 24.8613 30.9957 24.6113C30.9957 24.3613 30.8976 24.1199 30.7188 23.9426C30.5429 23.7681 30.3034 23.6693 30.0525 23.6722H13.8364H13.747L13.747 23.6722ZM13.747 29.8707C13.5018 29.8824 13.2711 29.9899 13.1038 30.176C12.9365 30.3592 12.8499 30.6034 12.8615 30.8505C12.873 31.1006 12.9826 31.3331 13.1644 31.5018C13.349 31.6675 13.5884 31.7547 13.8364 31.7431H30.0525C30.3034 31.7489 30.5429 31.6501 30.7188 31.4756C30.8976 31.2983 30.9957 31.0569 30.9957 30.8069C30.9957 30.5569 30.8976 30.3156 30.7188 30.1382C30.5429 29.9638 30.3034 29.8649 30.0525 29.8707H13.8364C13.8076 29.8678 13.7787 29.8678 13.747 29.8707L13.747 29.8707ZM30.5309 35.889H34.0787L30.5309 39.3894V35.889ZM35.4286 37.1944V40.6949H31.8693L35.4286 37.1944Z" fill="white"/>
</svg>
