<?xml version="1.0" encoding="UTF-8"?>
<svg width="44" height="44" viewBox="0 0 44 44" fill="none" xmlns="http://www.w3.org/2000/svg">
<g clip-path="url(#clip0_142_631)">
<path d="M40.7809 0H19.3825C17.6055 0 16.1598 1.44564 16.1598 3.22266V15.815C11.3734 16.7056 7.73798 20.9125 7.73798 25.9531C7.73798 27.7262 8.18786 29.3961 8.97935 30.855L1.28571 37.499C0.510216 38.1685 0.0439192 39.1395 0.00636458 40.1634C-0.0311901 41.1876 0.363005 42.1908 1.08789 42.9156C1.78106 43.6089 2.72878 43.9997 3.70597 43.9997C4.77486 43.9997 5.80628 43.5275 6.50444 42.7179L9.05652 39.7626C9.28924 39.4931 9.25942 39.0862 8.99 38.8535C8.72059 38.621 8.31359 38.6508 8.08096 38.92L5.5287 41.8755C5.08621 42.3882 4.4697 42.6841 3.79294 42.709C3.11575 42.7353 2.4787 42.4835 1.99934 42.0041C1.51998 41.5247 1.26964 40.8878 1.29448 40.2106C1.31932 39.5337 1.61528 38.9173 2.12807 38.4747L9.67269 31.9595C10.3292 32.8726 11.131 33.6744 12.044 34.3308L10.0532 36.6361C9.8205 36.9056 9.85032 37.3125 10.1197 37.5452C10.388 37.7769 10.7953 37.749 11.0288 37.4787L13.1484 35.0242C14.076 35.5274 15.0892 35.8921 16.1597 36.0913V40.7773C16.1597 42.5544 17.6053 44 19.3823 44H40.7807C42.5578 44 44.0034 42.5544 44.0034 40.7773V3.22266C44.0036 1.44564 42.5579 0 40.7809 0ZM9.02704 25.9531C9.02704 20.9776 13.075 16.9297 18.0505 16.9297C23.026 16.9297 27.0739 20.9776 27.0739 25.9531C27.0739 30.9286 23.026 34.9766 18.0505 34.9766C13.075 34.9766 9.02704 30.9286 9.02704 25.9531ZM42.7145 40.7773C42.7145 41.8435 41.8471 42.7109 40.7809 42.7109H19.3825C18.3163 42.7109 17.4489 41.8435 17.4489 40.7773V36.2477C17.648 36.2592 17.8485 36.2656 18.0505 36.2656C20.7407 36.2656 23.1933 35.2296 25.0313 33.5362H38.103C38.4591 33.5362 38.7476 33.2478 38.7476 32.8917C38.7476 32.5357 38.4591 32.2472 38.103 32.2472H26.2135C26.8155 31.4682 27.3086 30.6013 27.67 29.6691H39.3922C39.7482 29.6691 40.0367 29.3806 40.0367 29.0245C40.0367 28.6685 39.7482 28.38 39.3922 28.38H28.0738C28.2742 27.555 28.3741 26.6832 28.3611 25.8019H38.1031C38.4591 25.8019 38.7476 25.5134 38.7476 25.1573C38.7476 24.8013 38.4591 24.5128 38.1031 24.5128H28.2619C28.1353 23.6112 27.8925 22.7464 27.5477 21.9347H39.3922C39.7482 21.9347 40.0367 21.6462 40.0367 21.2902C40.0367 20.9341 39.7482 20.6456 39.3922 20.6456H26.8891C26.3008 19.6695 25.5553 18.7987 24.6881 18.0675H38.1032C38.4592 18.0675 38.7477 17.779 38.7477 17.423C38.7477 17.0669 38.4592 16.7784 38.1032 16.7784H22.7563C21.3446 16.0514 19.7447 15.6406 18.0505 15.6406C17.8485 15.6406 17.648 15.6471 17.4489 15.6586V3.22266C17.4489 2.15652 18.3163 1.28906 19.3825 1.28906H40.7809C41.8471 1.28906 42.7145 2.15652 42.7145 3.22266V40.7773ZM25.7848 25.9531C25.7848 21.6884 22.3152 18.2188 18.0505 18.2188C13.7857 18.2188 10.3161 21.6884 10.3161 25.9531C10.3161 30.2179 13.7857 33.6875 18.0505 33.6875C22.3152 33.6875 25.7848 30.2179 25.7848 25.9531ZM11.6052 25.9531C11.6052 22.3992 14.4965 19.5078 18.0505 19.5078C20.4788 19.5078 22.597 20.8581 23.6957 22.8468H17.2816C16.9256 22.8468 16.6371 23.1353 16.6371 23.4914C16.6371 23.8474 16.9256 24.1359 17.2816 24.1359H24.2332C24.4031 24.7126 24.4958 25.3221 24.4958 25.9531C24.4958 26.054 24.4928 26.1541 24.4881 26.2539H14.7035C14.3475 26.2539 14.0589 26.5424 14.0589 26.8984C14.0589 27.2545 14.3475 27.543 14.7035 27.543H24.2969C24.1071 28.2886 23.7864 28.9822 23.3617 29.599H17.2815C16.9256 29.599 16.637 29.8875 16.637 30.2436C16.637 30.5996 16.9256 30.8881 17.2815 30.8881H22.1902C21.0696 31.8298 19.6255 32.3984 18.0505 32.3984C14.4965 32.3984 11.6052 29.5071 11.6052 25.9531V25.9531ZM38.791 3.86719H34.7435C34.3874 3.86719 34.0989 4.15568 34.0989 4.51172C34.0989 4.86776 34.3874 5.15625 34.7435 5.15625H38.7481V8.88843H21.4159V5.15625H31.7357C32.0918 5.15625 32.3803 4.86776 32.3803 4.51172C32.3803 4.15568 32.0918 3.86719 31.7357 3.86719H21.3729C20.6858 3.86719 20.1268 4.42621 20.1268 5.11328V8.9314C20.1268 9.61847 20.6858 10.1775 21.3729 10.1775H38.7911C39.4782 10.1775 40.0372 9.61847 40.0372 8.9314V5.11328C40.0371 4.42621 39.4781 3.86719 38.791 3.86719Z" fill="white"/>
</g>
<defs>
<clipPath id="clip0_142_631">
<rect width="44" height="44" fill="white"/>
</clipPath>
</defs>
</svg>
