<?xml version="1.0" encoding="UTF-8"?>
<svg width="44" height="44" viewBox="0 0 44 44" fill="none" xmlns="http://www.w3.org/2000/svg">
<path d="M2.19381 22.282C2.06662 22.4591 2.03053 22.6859 2.09756 22.8939L5.59692 33.8939C5.68629 34.1792 5.95098 34.3734 6.25006 34.3752H37.0501C37.3354 34.3769 37.5932 34.2016 37.6963 33.9352L41.8901 22.9352C41.9726 22.722 41.9433 22.4832 41.8144 22.2958C41.6855 22.1102 41.4758 22.0002 41.2507 22.0002H40.5632V18.5627C40.5632 18.3805 40.491 18.2052 40.3621 18.0763C40.2332 17.9473 40.0579 17.8752 39.8757 17.8752H28.8757C28.4958 17.8752 28.1882 18.1828 28.1882 18.5627V22.0002H27.5007V18.5627C27.5007 18.3805 27.4285 18.2052 27.2996 18.0762C27.1707 17.9473 26.9954 17.8751 26.8132 17.8751H15.8132C15.4333 17.8751 15.1257 18.1828 15.1257 18.5626V22.0002H8.25067V10.3129H19.2507C19.4329 10.3129 19.6082 10.2407 19.7371 10.1118C19.866 9.98287 19.9382 9.80756 19.9382 9.62536V2.06264C19.9382 1.88045 19.866 1.70514 19.7371 1.57622C19.6082 1.4473 19.4329 1.37512 19.2507 1.37512H7.56339C7.18355 1.37512 6.87589 1.68278 6.87589 2.06262V21.9999H2.75089C2.53089 21.9999 2.32464 22.1047 2.19403 22.2818L2.19381 22.282ZM8.25085 2.74999H18.5636V8.93727H8.25085V2.74999ZM29.5636 19.25H39.1886V22H29.5636V19.25ZM16.5008 19.25H26.1258V22H16.5008V19.25ZM15.8133 23.375H40.254L36.5759 33H6.75225L3.69289 23.375H15.8133Z" fill="white"/>
<path d="M15.8125 11.6873C15.4327 11.6873 15.125 11.9949 15.125 12.3748V16.4998C15.125 16.682 15.1972 16.8573 15.3261 16.9862C15.455 17.1151 15.6303 17.1873 15.8125 17.1873H26.8125C26.9947 17.1873 27.17 17.1151 27.2989 16.9862C27.4279 16.8573 27.5 16.682 27.5 16.4998V12.3748C27.5 12.1926 27.4278 12.0173 27.2989 11.8883C27.17 11.7594 26.9947 11.6873 26.8125 11.6873L15.8125 11.6873ZM26.1252 15.8123H16.5002V13.0623H26.1252V15.8123Z" fill="white"/>
<path d="M28.875 17.1873H39.875C40.0572 17.1873 40.2325 17.1151 40.3614 16.9862C40.4903 16.8573 40.5625 16.682 40.5625 16.4998V12.3748C40.5625 12.1926 40.4903 12.0173 40.3614 11.8883C40.2325 11.7594 40.0572 11.6873 39.875 11.6873H28.875C28.4952 11.6873 28.1875 11.9949 28.1875 12.3748V16.4998C28.1875 16.6819 28.2597 16.8573 28.3886 16.9862C28.5175 17.1151 28.6928 17.1873 28.875 17.1873L28.875 17.1873ZM29.5625 13.0623H39.1875V15.8123H29.5625V13.0623Z" fill="white"/>
<path d="M12.4434 39.7927L13.6809 39.1877C13.0965 38.0895 12.2079 37.1837 11.1251 36.5735C10.0406 35.9651 8.80311 35.6798 7.56213 35.7502C6.4312 35.7846 5.3312 36.1215 4.37556 36.7265C3.41993 37.3298 2.64478 38.1806 2.13086 39.1878L3.36836 39.7859C4.20194 38.2081 5.81414 37.1958 7.5965 37.1253C9.59713 36.9775 11.4981 38.0242 12.4435 39.7928L12.4434 39.7927Z" fill="white"/>
<path d="M14.1142 42.625H14.4717C15.5958 42.5855 16.6889 42.2451 17.6376 41.6401C18.5864 41.0369 19.3564 40.1895 19.8686 39.1875L18.6311 38.5894C17.8026 40.1569 16.2076 41.1675 14.4374 41.25C12.4505 41.3806 10.5701 40.3408 9.62463 38.5894L8.31836 39.1875C8.87179 40.2394 9.70709 41.1194 10.7298 41.7261C11.7541 42.3328 12.9246 42.6439 14.114 42.625H14.1142Z" fill="white"/>
<path d="M34.4442 39.7927L35.6817 39.1877C35.0973 38.0895 34.2087 37.1837 33.1259 36.5735C32.0414 35.9651 30.8039 35.6798 29.5629 35.7502C28.4388 35.7898 27.3457 36.1301 26.3969 36.7351C25.4482 37.3384 24.6782 38.1857 24.166 39.1877L25.4035 39.7859C26.2319 38.2184 27.8269 37.2077 29.5972 37.1252C31.5979 36.9774 33.4988 38.0242 34.4443 39.7927H34.4442Z" fill="white"/>
<path d="M36.1141 42.625H36.4716C37.5957 42.5855 38.6888 42.2451 39.6376 41.6401C40.5863 41.0369 41.3563 40.1895 41.8685 39.1875L40.631 38.5894C39.8026 40.1569 38.2076 41.1675 36.4373 41.25C34.4383 41.3944 32.5408 40.3528 31.5902 38.5894L30.3184 39.1875C30.8718 40.2394 31.7071 41.1194 32.7298 41.7261C33.7541 42.3328 34.9246 42.6439 36.114 42.625H36.1141Z" fill="white"/>
<path d="M9.625 4.125H16.5V5.5H9.625V4.125Z" fill="white"/>
<path d="M9.625 6.875H16.5V8.25H9.625V6.875Z" fill="white"/>
</svg>
