<?xml version="1.0" encoding="UTF-8"?>
<svg width="44" height="44" viewBox="0 0 44 44" fill="none" xmlns="http://www.w3.org/2000/svg">
<g clip-path="url(#clip0_128_122)">
<path d="M11.6894 0C7.9013 0 4.81443 3.08858 4.81443 6.87852H3.43771C2.85507 6.88368 2.54399 7.5643 2.92036 8.00945L7.04193 12.8204C7.31693 13.1418 7.81365 13.1418 8.08865 12.8204L12.2137 8.00945C12.5918 7.56259 12.2755 6.88024 11.6911 6.87852H10.3161C10.3179 4.54788 11.7839 2.475 13.9805 1.69664C14.5872 1.47836 14.5872 0.620708 13.9805 0.402424C13.195 0.115394 12.3563 -0.0014828 11.6894 0.0002376V0ZM8.93943 6.875V7.5625C8.93771 7.94406 9.24709 8.25343 9.63036 8.25343H10.1924L7.56439 11.3179L4.93468 8.25343H5.5036C5.88345 8.25171 6.18939 7.94234 6.18767 7.5625L6.18939 6.87843C6.18939 3.83451 8.64204 1.38019 11.6859 1.37667C9.75058 2.81525 8.92214 5.07888 8.9393 6.87491L8.93943 6.875ZM32.189 34.0881C32.2715 33.9712 32.3162 33.832 32.3145 33.6877V29.9236C32.3265 29.9167 32.342 29.9133 32.354 29.9081C32.8318 29.6572 33.0518 29.2911 33.2117 28.9078C33.3389 28.6036 33.4008 28.406 33.5933 28.1773C33.7858 27.9487 34.1295 27.6686 34.8565 27.3592C35.5836 27.0515 36.0184 26.9983 36.3175 27.0189C36.6165 27.0395 36.8039 27.1323 37.1098 27.2526C37.4158 27.3729 37.8575 27.519 38.4298 27.33C38.942 27.1598 39.4112 26.7937 40.054 26.1423C40.6951 25.4909 41.0561 25.008 41.2176 24.494C41.3792 23.9784 41.2778 23.5762 41.1162 23.1792C40.9907 22.875 40.8997 22.6911 40.8739 22.392C40.8481 22.0946 40.8859 21.6529 41.1832 20.9207C41.4789 20.1885 41.759 19.8448 41.9842 19.6471C42.2093 19.4512 42.4036 19.3824 42.706 19.2518C43.091 19.0834 43.4537 18.8617 43.696 18.3787C43.9212 17.9301 44.0054 17.2907 44.0054 16.3832C44.0054 15.4757 43.9109 14.8776 43.6599 14.3998C43.3781 13.8653 42.9552 13.6676 42.6527 13.5404C42.3485 13.4132 42.156 13.3462 41.9274 13.1537C41.6989 12.9612 41.4135 12.6226 41.1042 11.8955C40.7965 11.1668 40.7484 10.7268 40.7707 10.4277C40.7913 10.1287 40.879 9.94133 40.9993 9.63539C41.1196 9.32946 41.2709 8.89633 41.0801 8.32054C40.9082 7.80834 40.4906 7.28069 39.8925 6.69289C39.2393 6.05181 38.6893 5.67025 38.2424 5.53103C37.7268 5.36947 37.292 5.48291 36.9276 5.63244C36.6234 5.75791 36.4395 5.85416 36.1404 5.88166C35.843 5.90744 35.4013 5.86275 34.6691 5.56713C33.9369 5.26978 33.5915 4.99478 33.3955 4.76963C33.1996 4.54447 33.1308 4.35026 33.0002 4.04948C32.8679 3.74698 32.6719 3.33448 32.1219 3.05948C31.6923 2.84464 31.0976 2.75526 30.2519 2.75354C29.4063 2.75526 28.8116 2.84464 28.3819 3.05948C27.8319 3.3362 27.6377 3.7487 27.5054 4.04948C27.373 4.35026 27.306 4.54448 27.1101 4.77134C26.9141 4.9965 26.5686 5.27149 25.8365 5.56713C25.1043 5.86276 24.6626 5.90744 24.3652 5.88166C24.0679 5.85588 23.8822 5.75791 23.578 5.63244C23.2136 5.48291 22.7788 5.37119 22.2631 5.53103C21.8163 5.67025 21.2663 6.05181 20.6149 6.69289C20.0167 7.28069 19.5974 7.80838 19.4272 8.32226C19.2364 8.89804 19.3877 9.33118 19.508 9.63711C19.6283 9.94305 19.716 10.1304 19.7366 10.4295C19.7572 10.7285 19.7108 11.1685 19.4014 11.8955C19.0938 12.6226 18.8067 12.9629 18.5781 13.1554C18.3496 13.3479 18.1571 13.4132 17.8528 13.5404C17.5486 13.6676 17.1276 13.8652 16.8491 14.398C16.8422 14.4101 16.8388 14.4255 16.8337 14.4376H11.6927C11.4813 14.4376 11.3352 14.5046 11.2046 14.6352L3.00779 22.839C2.90123 22.925 2.82388 23.0401 2.78435 23.1708L0.0652831 29.2828C-0.139247 29.7365 0.19247 30.2504 0.689203 30.2522H2.75342V43.3078C2.7517 43.6877 3.05764 43.9971 3.43749 43.9988H24.7515C24.9733 43.997 25.1812 43.8888 25.3101 43.7083L32.189 34.0881ZM31.5084 4.28824C31.6511 4.35871 31.6923 4.48418 31.7422 4.59761C31.8436 4.82964 31.9914 5.25418 32.3557 5.67526C32.7201 6.09463 33.2787 6.48996 34.1518 6.84227C35.0249 7.19458 35.7038 7.30119 36.259 7.25305C36.8125 7.20492 37.2164 7.00383 37.4518 6.90758C37.6873 6.81133 37.7251 6.81821 37.8334 6.84743C37.9846 6.89555 38.2974 7.05368 38.9282 7.67414C39.5109 8.24649 39.7257 8.60399 39.7756 8.75522C39.8082 8.85319 39.8134 8.90475 39.7206 9.14022C39.6278 9.37741 39.4387 9.77787 39.3992 10.333C39.3597 10.8882 39.4731 11.5671 39.8409 12.435C40.2087 13.3013 40.6126 13.8547 41.0389 14.2122C41.4652 14.5697 41.8914 14.7124 42.1252 14.8104C42.3589 14.9084 42.3933 14.953 42.4397 15.039C42.5136 15.1799 42.6202 15.5821 42.627 16.3985C42.6339 17.2802 42.5325 17.6171 42.4603 17.758C42.4105 17.8577 42.383 17.8886 42.1509 17.99C41.9189 18.0914 41.4995 18.2461 41.0802 18.6105C40.6608 18.9749 40.2603 19.5335 39.9079 20.4066C39.5556 21.2797 39.4542 21.9586 39.5023 22.5138C39.5504 23.0672 39.7464 23.466 39.8426 23.7014C39.9389 23.9369 39.9355 23.9868 39.908 24.0882C39.8598 24.2394 39.6501 24.5969 39.0761 25.1779C38.4728 25.7914 38.1497 25.9754 37.9984 26.0252C37.8816 26.0561 37.8489 26.063 37.6134 25.9702C37.3763 25.8774 36.9706 25.6901 36.4155 25.6505C35.8603 25.611 35.1865 25.7244 34.3186 26.0922C33.4523 26.4601 32.9006 26.8674 32.5414 27.2937C32.1839 27.7199 32.0412 28.141 31.9432 28.3747C31.8848 28.5157 31.8401 28.6257 31.7147 28.691C31.5737 28.7649 31.2351 28.8783 30.3551 28.8783C30.3156 28.8783 30.2898 28.8766 30.252 28.8749C30.2142 28.8749 30.1884 28.8783 30.1489 28.8783C29.2672 28.8783 28.9286 28.7632 28.7894 28.691C28.6656 28.6257 28.6192 28.5157 28.5608 28.3747C28.4628 28.141 28.3202 27.7199 27.9626 27.2937C27.6051 26.8674 27.0534 26.4601 26.1854 26.0922C25.3192 25.7227 24.6437 25.611 24.0886 25.6488C23.5334 25.6883 23.1278 25.8757 22.8906 25.9685C22.6534 26.0613 22.6225 26.0544 22.5056 26.0235C22.3543 25.9737 22.0312 25.7897 21.4279 25.1761C20.8556 24.5935 20.6442 24.2377 20.5961 24.0864C20.5686 23.985 20.5651 23.9352 20.6614 23.6997C20.7576 23.4642 20.9536 23.0672 21.0017 22.5121C21.0498 21.9586 20.9484 21.278 20.5961 20.4049C20.2437 19.5317 19.8433 18.9749 19.4239 18.6088C19.0045 18.2444 18.5851 18.0897 18.3531 17.9883C18.1211 17.8869 18.0918 17.8542 18.0437 17.7563C17.9732 17.6136 17.8701 17.2768 17.877 16.3968C17.8839 15.5803 17.9922 15.1765 18.0643 15.0372C18.109 14.9513 18.1451 14.9066 18.3789 14.8087C18.6126 14.7107 19.0389 14.568 19.4651 14.2105C19.8914 13.853 20.2953 13.3013 20.6631 12.4333C21.0309 11.567 21.1444 10.8864 21.1048 10.3313C21.0653 9.77615 20.8763 9.37566 20.7834 9.1385C20.6906 8.90132 20.6958 8.85148 20.7284 8.7535C20.7783 8.60225 20.9931 8.24478 21.5758 7.67243C22.2066 7.05194 22.5194 6.89213 22.6706 6.84571C22.7789 6.81649 22.8167 6.80962 23.0522 6.90587C23.2877 7.00212 23.6899 7.20321 24.245 7.25134C24.7984 7.29946 25.4791 7.1929 26.3522 6.84056C27.2253 6.48821 27.7839 6.09291 28.1483 5.67354C28.5127 5.25418 28.6605 4.82962 28.7619 4.5959C28.8117 4.48418 28.853 4.35871 28.9956 4.28652C29.1314 4.21777 29.4133 4.13527 30.2503 4.12668C31.0891 4.13528 31.371 4.21777 31.505 4.28652L31.5084 4.28824ZM30.2606 8.27231C29.4408 8.27059 28.6295 8.39262 27.8509 8.62809C26.0737 9.16779 24.4822 10.3022 23.3906 11.9367C21.2061 15.2057 21.6358 19.5746 24.415 22.3559C24.6831 22.6223 25.1163 22.6223 25.3844 22.3559C25.6542 22.0877 25.6542 21.6512 25.3844 21.3831C24.2294 20.2264 23.5608 18.7465 23.4061 17.2151H24.0712C24.4511 17.2168 24.7621 16.9074 24.7604 16.5242C24.7587 16.1443 24.4493 15.8384 24.0695 15.8401H23.4061C23.5161 14.7469 23.8856 13.6693 24.5319 12.7034C24.6539 12.5212 24.7828 12.3441 24.9203 12.1774L25.6336 12.8873C25.9017 13.1537 26.3348 13.1537 26.6029 12.8873C26.8693 12.6192 26.8693 12.186 26.6029 11.9179L25.8914 11.2012C26.9432 10.3401 28.222 9.81591 29.5557 9.68013V10.3384C29.554 10.7183 29.86 11.0276 30.2398 11.0293C30.6214 11.0311 30.9307 10.7217 30.9307 10.3384V9.68013C31.5873 9.74544 32.2439 9.907 32.8798 10.17C33.514 10.433 34.0898 10.7818 34.5985 11.1978L33.8801 11.9162C33.6137 12.1843 33.6137 12.6175 33.8801 12.8856C34.1482 13.1554 34.5865 13.1554 34.8546 12.8856L35.5713 12.1706C36.4204 13.2104 36.9549 14.4857 37.089 15.8384H36.4324C36.0526 15.8366 35.7432 16.1426 35.7415 16.5224C35.7398 16.904 36.0491 17.2134 36.4324 17.2134H37.0873C37.0632 17.4299 37.034 17.6465 36.991 17.8631C36.7641 19.0026 36.264 20.0253 35.5679 20.8743L34.8546 20.1645C34.7257 20.0373 34.5487 19.9651 34.3665 19.9651C34.1843 19.9634 34.009 20.0356 33.8783 20.1645C33.6085 20.4326 33.6085 20.8692 33.8783 21.1373L34.5916 21.8506C33.4005 22.8234 31.8811 23.3957 30.2466 23.3957H29.8393L30.0403 23.1929C30.3068 22.9248 30.3068 22.4916 30.0403 22.2235C29.9114 22.0946 29.7361 22.0207 29.5522 22.0207C29.3717 22.0224 29.1981 22.0946 29.0709 22.2235L27.6959 23.5985C27.4295 23.8667 27.4295 24.2998 27.6959 24.5679L29.0709 25.9446C29.3391 26.211 29.7722 26.211 30.0403 25.9446C30.3067 25.6765 30.3067 25.2434 30.0403 24.9753L29.8358 24.7707H30.2431C34.1773 24.7707 37.5735 21.9898 38.34 18.1329C39.1083 14.2777 37.0355 10.4056 33.4036 8.90169C32.381 8.47887 31.3136 8.27434 30.2601 8.27262L30.2606 8.27231ZM29.5576 13.0881V16.2403L28.3545 17.4434C28.0846 17.7116 28.0846 18.1499 28.3545 18.418C28.6226 18.6844 29.0558 18.6844 29.3238 18.418L30.7298 17.012C30.8604 16.8831 30.9326 16.7078 30.9326 16.5239L30.9309 13.0881C30.9309 12.7083 30.6215 12.4023 30.2417 12.404C29.8635 12.404 29.5576 12.71 29.5576 13.0881H29.5576ZM12.3752 15.8123H16.5208C16.5105 15.9876 16.5019 16.1733 16.5002 16.3795C16.4916 17.2939 16.5861 17.9264 16.8096 18.375C17.0519 18.858 17.4146 19.0797 17.7996 19.2482C18.1003 19.3805 18.2946 19.4475 18.5214 19.6435C18.7466 19.8394 19.0267 20.1849 19.3224 20.917C19.618 21.6492 19.6575 22.091 19.6317 22.3883C19.6214 22.5 19.5956 22.5894 19.5681 22.6822H12.3733L12.3752 15.8123ZM11.0002 16.7868V22.6837H5.10505L11.0002 16.7868ZM3.88625 24.0587H19.2141C19.221 24.1945 19.2399 24.3354 19.288 24.4901C19.4496 25.0058 19.8105 25.487 20.4516 26.1384C20.9105 26.6059 21.2817 26.9221 21.6444 27.1301L20.8675 28.8764H1.74291L3.88625 24.0587ZM24.0642 42.6214H4.13001V30.25H21.3125C21.5857 30.25 21.8332 30.0884 21.9415 29.8392L23.0467 27.359C23.1739 27.3264 23.2942 27.2886 23.3939 27.2507C23.6534 27.1493 23.8356 27.0772 24.0642 27.0411L24.0642 42.6214ZM25.4392 27.2764C25.5097 27.3039 25.5698 27.3228 25.6472 27.3555C26.3742 27.6632 26.718 27.945 26.9105 28.1736C27.103 28.4023 27.1648 28.5999 27.292 28.9041C27.4536 29.2874 27.6719 29.6535 28.1497 29.9044C28.6275 30.1554 29.2239 30.2413 30.1383 30.2499C30.1795 30.2499 30.2122 30.2482 30.2517 30.2482C30.2912 30.2482 30.3239 30.2499 30.3651 30.2499C30.5731 30.2482 30.7605 30.2413 30.9392 30.2293V33.4623L25.4374 41.1711L25.4392 27.2764ZM5.50325 37.8105V40.5622C5.48263 41.4989 6.89889 41.4989 6.87825 40.5622V37.8105C6.88513 37.422 6.56716 37.1041 6.17874 37.111C5.7989 37.1178 5.49639 37.4306 5.50325 37.8105ZM8.93046 37.111C8.55061 37.1178 8.24982 37.4306 8.25673 37.8105V40.5622C8.2361 41.4989 9.65236 41.4989 9.63173 40.5622V37.8105C9.6386 37.4203 9.32063 37.1041 8.93046 37.111ZM11.0033 37.8105V40.5622C10.9826 41.4989 12.3989 41.4989 12.3783 40.5622V37.8105C12.3851 37.422 12.0672 37.1041 11.6787 37.111C11.2989 37.1178 10.9964 37.4306 11.0033 37.8105Z" fill="white"/>
</g>
<defs>
<clipPath id="clip0_128_122">
<rect width="44" height="44" fill="white"/>
</clipPath>
</defs>
</svg>
