<?xml version="1.0" encoding="UTF-8"?>
<svg width="44" height="44" viewBox="0 0 44 44" fill="none" xmlns="http://www.w3.org/2000/svg">
<path d="M34.0807 24.1685V19.8352L31.2807 19.3019C31.0807 18.6219 30.8141 17.9685 30.4741 17.3552L32.0741 14.9952L29.0074 11.9285L26.6474 13.5285C26.0207 13.1819 25.3674 12.9152 24.6941 12.7152L24.1607 9.92188H19.8274L19.2941 12.7219C18.6141 12.9219 17.9607 13.1885 17.3474 13.5285L14.9874 11.9285L11.9207 14.9952L13.5207 17.3552C13.1807 17.9685 12.9141 18.6219 12.7141 19.3019L9.91406 19.8352V24.1685L12.7074 24.7019C12.9007 25.3752 13.1741 26.0285 13.5207 26.6552L11.9207 29.0152L14.9874 32.0819L17.3474 30.4819C17.9674 30.8219 18.6141 31.0952 19.2941 31.2885L19.8274 34.0885H24.1607L24.6941 31.2952C25.3674 31.1019 26.0207 30.8285 26.6474 30.4819L29.0074 32.0819L32.0741 29.0152L30.4741 26.6552C30.8207 26.0285 31.0874 25.3752 31.2874 24.7019L34.0807 24.1685ZM30.3541 28.8552L28.8474 30.3619L26.7007 28.9019L26.3341 29.1285C25.5874 29.5819 24.7941 29.9152 23.9674 30.1085L23.5474 30.2085L23.0607 32.7552H20.9341L20.4474 30.2085L20.0341 30.1085C19.1941 29.9019 18.4007 29.5752 17.6741 29.1285L17.3074 28.9019L15.1607 30.3619L13.6541 28.8552L15.1141 26.7085L14.8874 26.3419C14.4341 25.5952 14.1007 24.8019 13.9074 23.9752L13.8074 23.5552L11.2607 23.0685V20.9352L13.8074 20.4485L13.9074 20.0352C14.1141 19.1952 14.4407 18.4019 14.8874 17.6752L15.1141 17.3085L13.6541 15.1619L15.1607 13.6552L17.3074 15.1152L17.6741 14.8885C18.4007 14.4419 19.2007 14.1152 20.0341 13.9085L20.4474 13.8085L20.9341 11.2619H23.0607L23.5474 13.8085L23.9674 13.9085C24.7941 14.1019 25.5874 14.4352 26.3341 14.8885L26.7007 15.1152L28.8474 13.6552L30.3541 15.1619L28.8941 17.3085L29.1207 17.6752C29.5674 18.4019 29.8941 19.2019 30.1007 20.0352L30.2007 20.4485L32.7474 20.9352V23.0619L30.2007 23.5485L30.1007 23.9685C29.9074 24.7952 29.5741 25.5885 29.1207 26.3352L28.8941 26.7019L30.3541 28.8552Z" fill="white"/>
<path d="M21.9994 17.3672C19.4394 17.3672 17.3594 19.4472 17.3594 22.0072C17.3594 24.5672 19.4394 26.6472 21.9994 26.6472C24.5594 26.6472 26.6394 24.5672 26.6394 22.0072C26.6394 19.4472 24.5594 17.3672 21.9994 17.3672V17.3672ZM21.9994 25.3072C20.1794 25.3072 18.6927 23.8272 18.6927 22.0005C18.6927 20.1739 20.1727 18.6939 21.9994 18.6939C23.8194 18.6939 25.306 20.1739 25.306 22.0005C25.306 23.8272 23.8194 25.3072 21.9994 25.3072Z" fill="white"/>
<path d="M1.98047 22.1746C1.98047 33.2213 10.9605 42.2013 22.0005 42.2013C23.0005 42.2013 23.9938 42.1279 24.9605 41.9813L25.1005 42.7479C25.1471 42.9946 25.3138 43.1946 25.5471 43.2813L25.9405 43.4079L31.6405 39.1212C31.8605 38.9612 31.9605 38.7013 31.9205 38.4346L31.8205 37.9946L24.9271 35.9946C24.6871 35.9279 24.4338 35.9812 24.2471 36.1479L23.9538 36.4412L24.2138 37.8813C23.4805 37.9813 22.7405 38.0346 22.0005 38.0346C13.2605 38.0346 6.14714 30.9213 6.14714 22.1746C6.14714 21.7479 6.16714 21.3146 6.20047 20.8946L4.86714 20.7879C4.8338 21.2413 4.8138 21.7079 4.8138 22.1746C4.8138 31.6546 12.5271 39.3679 22.0005 39.3679C23.0338 39.3679 24.0805 39.2746 25.1071 39.0879L25.7671 38.9679L25.5071 37.5479L29.8405 38.8012L26.2338 41.5146L26.0405 40.4279L25.3805 40.5479C24.2871 40.7546 23.1538 40.8546 22.0071 40.8546C11.7005 40.8546 3.32047 32.4679 3.32047 22.1612C3.32047 21.7346 3.3338 21.3012 3.36714 20.8746L2.0338 20.7812C1.9938 21.2479 1.98047 21.7146 1.98047 22.1746V22.1746Z" fill="white"/>
<path d="M3.80859 13.8056L5.02193 14.3656C5.39526 13.5523 5.83526 12.7523 6.32859 11.999L5.20859 11.2656C4.68193 12.079 4.21526 12.9323 3.80859 13.8056V13.8056Z" fill="white"/>
<path d="M2.29297 18.6348L3.6063 18.8681C3.7663 17.9815 3.9863 17.1015 4.27297 16.2481L3.0063 15.8281C2.69964 16.7415 2.45964 17.6815 2.29297 18.6348V18.6348Z" fill="white"/>
<path d="M7.52552 10.3487C7.79219 10.0221 8.07885 9.69542 8.37219 9.38208L7.39885 8.46875C7.08552 8.80208 6.77885 9.15542 6.49219 9.50208L7.52552 10.3487Z" fill="white"/>
<path d="M9.59859 12.2941C9.86526 11.9607 10.1453 11.6341 10.4386 11.3274L9.46526 10.4141C9.15193 10.7474 8.84526 11.1007 8.55859 11.4607L9.59859 12.2941Z" fill="white"/>
<path d="M7.58167 15.5741C7.88833 14.9074 8.24167 14.2541 8.64167 13.6341L7.52167 12.9141C7.08833 13.5874 6.70833 14.2941 6.375 15.0141L7.58167 15.5741Z" fill="white"/>
<path d="M5.10156 19.0086L6.4149 19.2553C6.54823 18.5353 6.7349 17.8153 6.96823 17.122L5.70156 16.6953C5.4549 17.4486 5.24823 18.2286 5.10156 19.0086Z" fill="white"/>
<path d="M42.0192 22.1781C42.0192 11.1381 33.0392 2.15146 21.9992 2.15146C21.3258 2.15146 20.6525 2.18479 19.9925 2.25146L19.8658 1.28479C19.8325 1.03812 19.6792 0.831458 19.4458 0.724792L19.0592 0.578125L13.1658 4.57146C12.9392 4.72479 12.8192 4.98479 12.8592 5.25812L12.9458 5.70479L19.7058 8.03812C19.9392 8.11812 20.1992 8.07812 20.3925 7.91812L20.6992 7.63812L20.5325 6.37146C21.0192 6.32479 21.5058 6.30479 21.9925 6.30479C30.7325 6.30479 37.8458 13.4181 37.8458 22.1581C37.8458 22.4781 37.8392 22.7981 37.8192 23.1181L39.1525 23.1981C39.1725 22.8515 39.1792 22.5048 39.1792 22.1581C39.1858 12.6981 31.4792 4.98479 21.9992 4.98479C21.2325 4.98479 20.4592 5.03812 19.6992 5.13812L19.0458 5.22479L19.2058 6.45812L14.9392 4.98479L18.6792 2.45146L18.8458 3.73146L19.5125 3.64479C20.3258 3.53812 21.1658 3.47812 22.0058 3.47812C32.3125 3.47812 40.6925 11.8648 40.6925 22.1648C40.6925 22.5981 40.6792 23.0315 40.6525 23.4515L41.9858 23.5381C42.0058 23.0981 42.0192 22.6381 42.0192 22.1781V22.1781Z" fill="white"/>
<path d="M40.6134 29.5871L39.3734 29.0938C39.0867 29.8071 38.7534 30.5137 38.3867 31.1871L39.5534 31.8338C39.9534 31.1071 40.3134 30.3471 40.6134 29.5871V29.5871Z" fill="white"/>
<path d="M41.7653 25.4086L40.452 25.1953C40.332 25.9553 40.1586 26.7153 39.9453 27.4553L41.2253 27.8286C41.452 27.0353 41.632 26.222 41.7653 25.4086V25.4086Z" fill="white"/>
<path d="M38.5815 33.4107L37.4748 32.6641C37.2348 33.0174 36.9815 33.3707 36.7148 33.7041L37.7615 34.5241C38.0482 34.1641 38.3215 33.7907 38.5815 33.4107Z" fill="white"/>
<path d="M34.4883 31.953L35.5349 32.773C35.7483 32.4997 35.9549 32.2197 36.1549 31.9397L35.0616 31.1797C34.8749 31.4464 34.6883 31.6997 34.4883 31.953V31.953Z" fill="white"/>
<path d="M37.9343 28.6641L36.7009 28.1641C36.4876 28.6907 36.2409 29.2174 35.9609 29.7174L37.1343 30.3574C37.4276 29.8041 37.7009 29.2307 37.9343 28.6641Z" fill="white"/>
<path d="M38.9551 25.0716L37.6417 24.8516C37.5484 25.4182 37.4217 25.9849 37.2617 26.5316L38.5417 26.8916C38.7084 26.2982 38.8484 25.6916 38.9551 25.0716V25.0716Z" fill="white"/>
</svg>
