<?xml version="1.0" encoding="UTF-8"?>
<svg width="44" height="44" viewBox="0 0 44 44" fill="none" xmlns="http://www.w3.org/2000/svg">
<g clip-path="url(#clip0_141_497)">
<path d="M12.1147 22.5998L10.6069 26.5131C10.448 26.9256 10.5434 27.3758 10.8559 27.6884C11.1695 28.002 11.6202 28.0958 12.0311 27.9374L15.9446 26.4294C16.6814 26.1455 17.338 25.7186 17.8963 25.1603L31.1611 11.8953C31.1613 11.8951 31.1617 11.8948 31.1619 11.8946C31.1622 11.8943 31.1625 11.894 31.1627 11.8937L32.5408 10.5157C33.7878 9.26867 33.7879 7.25051 32.5408 6.00325C31.2967 4.75933 29.2725 4.75933 28.0284 6.00325L26.6497 7.38197L13.384 20.6477C12.8257 21.2063 12.3986 21.8629 12.1147 22.5998V22.5998ZM17.0747 24.159L16.1443 23.2285L28.8644 10.5084L29.7949 11.4388L17.0747 24.159ZM28.9398 6.91481C29.6814 6.1732 30.8879 6.17329 31.6295 6.91481C32.3727 7.65804 32.3729 8.86105 31.6295 9.60437L30.7063 10.5275L28.0167 7.83788L28.9398 6.91481ZM27.1053 8.74927L27.9531 9.59707L15.2329 22.3172L14.3851 21.4695L27.1053 8.74927ZM16.0507 24.9577C15.8686 25.0602 15.6789 25.1506 15.4812 25.2269L11.9611 26.5832L13.3174 23.063C13.3935 22.8653 13.4839 22.6757 13.5865 22.4935C14.4696 23.3766 15.165 24.072 16.0507 24.9577V24.9577Z" fill="white"/>
<path d="M39.3049 14.0234H30.6174C30.2615 14.0234 29.973 14.3119 29.973 14.6679C29.973 15.0238 30.2615 15.3123 30.6174 15.3123H39.3049C41.1831 15.3123 42.7111 16.8403 42.7111 18.7185V34.2325C42.7111 36.1107 41.1831 37.6387 39.3049 37.6387H11.338C10.3411 37.6387 9.39764 37.2042 8.74961 36.4467L2.11393 28.6898C1.01643 27.4068 1.01643 25.5445 2.11393 24.2614L2.93252 23.3044L4.39424 24.7661C4.01962 25.2355 3.79484 25.8295 3.79484 26.4755C3.79484 27.9895 5.02655 29.2212 6.54052 29.2212C8.05449 29.2212 9.2862 27.9895 9.2862 26.4755C9.2862 24.9616 8.05449 23.7298 6.54052 23.7298C6.14166 23.7298 5.76283 23.816 5.42051 23.9697L3.77293 22.3221L8.74961 16.5044C9.39764 15.7469 10.3411 15.3124 11.338 15.3124H17.1994C17.5553 15.3124 17.8438 15.0239 17.8438 14.6679C17.8438 14.312 17.5553 14.0235 17.1994 14.0235H11.338C9.96387 14.0235 8.66351 14.6224 7.77025 15.6666L2.85888 21.4079L1.17874 19.7279C0.927069 19.4763 0.519019 19.4763 0.267436 19.7279C0.015767 19.9796 0.015767 20.3876 0.267436 20.6393L2.01847 22.3902L1.13457 23.4234C-0.378191 25.1918 -0.378191 27.759 1.13457 29.5274L7.77025 37.2843C8.66351 38.3285 9.96396 38.9274 11.338 38.9274H39.3049C41.8938 38.9274 44 36.8212 44 34.2323V18.7185C44 16.1297 41.8938 14.0234 39.3049 14.0234V14.0234ZM6.54052 25.0186C7.34382 25.0186 7.99735 25.6721 7.99735 26.4754C7.99735 27.2787 7.34382 27.9323 6.54052 27.9323C5.73722 27.9323 5.08369 27.2787 5.08369 26.4754C5.08369 25.6721 5.73722 25.0186 6.54052 25.0186Z" fill="white"/>
<path d="M35.6361 22.0781H24.996C24.6401 22.0781 24.3516 22.3666 24.3516 22.7225C24.3516 23.0785 24.6401 23.367 24.996 23.367H35.6361C35.992 23.367 36.2805 23.0785 36.2805 22.7225C36.2805 22.3666 35.992 22.0781 35.6361 22.0781Z" fill="white"/>
<path d="M35.6361 25.8359H24.996C24.6401 25.8359 24.3516 26.1244 24.3516 26.4804C24.3516 26.8363 24.6401 27.1248 24.996 27.1248H35.6361C35.992 27.1248 36.2805 26.8363 36.2805 26.4804C36.2805 26.1244 35.992 25.8359 35.6361 25.8359Z" fill="white"/>
<path d="M35.6367 29.5938H16.705C16.3491 29.5938 16.0605 29.8822 16.0605 30.2382C16.0605 30.5942 16.3491 30.8826 16.705 30.8826H35.6367C35.9926 30.8826 36.2811 30.5942 36.2811 30.2382C36.2811 29.8822 35.9926 29.5938 35.6367 29.5938Z" fill="white"/>
</g>
<defs>
<clipPath id="clip0_141_497">
<rect width="44" height="44" fill="white"/>
</clipPath>
</defs>
</svg>
