<?xml version="1.0" encoding="UTF-8"?>
<svg width="44" height="44" viewBox="0 0 44 44" fill="none" xmlns="http://www.w3.org/2000/svg">
<g clip-path="url(#clip0_141_474)">
<path d="M29.3333 31.5354H24.2V29.3354C24.2 28.7138 23.9371 28.1215 23.4763 27.7044C23.0155 27.2872 22.3999 27.0842 21.7815 27.1458C20.6278 27.3008 19.7749 28.2977 19.8 29.4615V31.5354H14.6666C13.452 31.534 12.4681 30.55 12.4666 29.3354V25.6687H11.7333C10.6985 25.6687 9.71197 25.2315 9.01695 24.4649C8.32193 23.6986 7.9832 22.6742 8.08382 21.6444C8.31549 19.7405 9.9415 18.3154 11.8593 18.3354H12.4666V14.6687C12.4681 13.4542 13.452 12.4702 14.6666 12.4688H19.8V14.6687C19.8 15.2904 20.0628 15.8826 20.5236 16.2998C20.9845 16.7169 21.6 16.92 22.2184 16.8584C23.3721 16.7033 24.225 15.7064 24.2 14.5427V12.4688H29.3333C30.5479 12.4702 31.5319 13.4542 31.5333 14.6687V18.3354H32.1406C34.0584 18.3154 35.6844 19.7405 35.9161 21.6444C36.0167 22.6742 35.678 23.6986 34.983 24.4649C34.2879 25.2315 33.3015 25.6687 32.2666 25.6687H31.5333V29.3354C31.5319 30.55 30.5479 31.534 29.3333 31.5354ZM25.6666 30.0687H29.3333C29.7383 30.0684 30.0663 29.7404 30.0666 29.3354V24.2021H32.2666C32.8882 24.2021 33.4809 23.9389 33.898 23.4784C34.3152 23.0176 34.5182 22.4017 34.4566 21.7833C34.3012 20.6296 33.3043 19.777 32.1406 19.8021H30.0666V14.6687C30.0663 14.2638 29.7383 13.9358 29.3333 13.9354H25.6666V14.5427C25.6863 16.4605 24.2612 18.0866 22.3573 18.3186C21.3275 18.4192 20.3031 18.0801 19.5368 17.3851C18.7705 16.6901 18.3333 15.7036 18.3333 14.6687V13.9354H14.6666C14.2616 13.9358 13.9337 14.2638 13.9333 14.6687V19.8021H11.8593C10.6956 19.777 9.69872 20.6296 9.54332 21.7833C9.48173 22.4017 9.68476 23.0176 10.1019 23.4784C10.5191 23.9389 11.1117 24.2021 11.7333 24.2021H13.9333V29.3354C13.9337 29.7404 14.2616 30.0684 14.6666 30.0687H18.3333V29.4615C18.3136 27.5436 19.7387 25.9176 21.6426 25.6856C22.6724 25.585 23.6969 25.9241 24.4631 26.6191C25.2294 27.3141 25.6666 28.3006 25.6666 29.3354V30.0687Z" fill="white"/>
<path d="M5.13333 31.5354H0V30.0687H5.13333C5.53831 30.0684 5.86631 29.7404 5.86667 29.3354V25.6687H5.13333C4.0985 25.6687 3.11201 25.2315 2.41699 24.4649C1.72197 23.6986 1.38324 22.6742 1.48385 21.6444C1.71553 19.7405 3.34154 18.3154 5.25937 18.3354H5.86667V14.6687C5.86631 14.2638 5.53831 13.9358 5.13333 13.9354H0V12.4688H5.13333C6.34792 12.4702 7.3319 13.4542 7.33333 14.6687V19.8021H5.25937C4.09564 19.777 3.09876 20.6296 2.94336 21.7833C2.88177 22.4017 3.0848 23.0176 3.50195 23.4784C3.91911 23.9389 4.51172 24.2021 5.13333 24.2021H7.33333V29.3354C7.3319 30.55 6.34792 31.534 5.13333 31.5354V31.5354Z" fill="white"/>
<path d="M21.9923 11.733C21.8762 11.733 21.7595 11.7276 21.6428 11.7165C19.7389 11.4845 18.3138 9.85846 18.3335 7.94063V7.33333H14.6668C13.4522 7.3319 12.4682 6.34792 12.4668 5.13333V0H13.9335V5.13333C13.9338 5.53831 14.2618 5.86631 14.6668 5.86667H19.8001V7.94063C19.7751 9.10436 20.628 10.1012 21.7817 10.2563C22.4019 10.3204 23.0199 10.1159 23.4797 9.69482C23.938 9.27731 24.1994 8.68649 24.2001 8.06667V5.86667H29.3335C29.7384 5.86631 30.0664 5.53831 30.0668 5.13333V0H31.5335V5.13333C31.532 6.34792 30.548 7.3319 29.3335 7.33333H25.6668V8.06667C25.6672 9.04063 25.2797 9.97448 24.5904 10.6623C23.9008 11.3502 22.9662 11.7355 21.9923 11.733Z" fill="white"/>
<path d="M43.9993 31.5354H38.866C37.6514 31.534 36.6674 30.55 36.666 29.3354V24.2021H38.74C39.9037 24.2271 40.9006 23.3746 41.056 22.2209C41.1176 21.6025 40.9146 20.9866 40.4974 20.5257C40.0802 20.0653 39.4876 19.8021 38.866 19.8021H36.666V14.6687C36.6674 13.4542 37.6514 12.4702 38.866 12.4688H43.9993V13.9354H38.866C38.461 13.9358 38.133 14.2638 38.1327 14.6687V18.3354H38.866C39.9008 18.3354 40.8873 18.7726 41.5824 19.5393C42.2774 20.3055 42.6161 21.33 42.5155 22.3598C42.2838 24.2637 40.6578 25.6888 38.74 25.6687H38.1327V29.3354C38.133 29.7404 38.461 30.0684 38.866 30.0687H43.9993V31.5354Z" fill="white"/>
<path d="M31.5335 43.9995H30.0668V38.8662C30.0664 38.4612 29.7384 38.1332 29.3335 38.1329H24.2001V36.0589C24.2252 34.8952 23.3723 33.8983 22.2186 33.7432C21.6002 33.6817 20.9846 33.8847 20.5238 34.3018C20.063 34.719 19.8001 35.3112 19.8001 35.9329V38.1329H14.6668C14.2618 38.1332 13.9338 38.4612 13.9335 38.8662V43.9995H12.4668V38.8662C12.4682 37.6516 13.4522 36.6676 14.6668 36.6662H18.3335V35.9329C18.3335 34.898 18.7707 33.9115 19.5369 33.2165C20.3032 32.5215 21.3277 32.1824 22.3575 32.283C24.2614 32.5151 25.6865 34.1411 25.6668 36.0589V36.6662H29.3335C30.548 36.6676 31.532 37.6516 31.5335 38.8662V43.9995Z" fill="white"/>
</g>
<defs>
<clipPath id="clip0_141_474">
<rect width="44" height="44" fill="white"/>
</clipPath>
</defs>
</svg>
