<?xml version="1.0" encoding="UTF-8"?>
<svg width="44" height="44" viewBox="0 0 44 44" fill="none" xmlns="http://www.w3.org/2000/svg">
<path d="M39.1874 26.5633V22.6875C39.1856 21.047 38.5331 19.4743 37.3731 18.3143C36.2131 17.1543 34.6404 16.5018 32.9999 16.5H30.9374V13.4621C31.5499 13.1941 32.0712 12.7536 32.4375 12.1943C32.8037 11.6349 32.9992 10.9811 32.9999 10.3125V7.24012C32.9983 6.40137 32.6907 5.59203 32.1348 4.9639C31.579 4.33578 30.8131 3.93204 29.9808 3.8284L8.32725 1.37935C8.22038 1.36727 8.11217 1.38043 8.01131 1.41776C7.91045 1.4551 7.81976 1.51558 7.74653 1.59434C7.67329 1.6731 7.61955 1.76795 7.58964 1.87125C7.55972 1.97455 7.55445 2.08344 7.57426 2.18914L9.63677 13.1891C9.66631 13.3467 9.75001 13.4891 9.87339 13.5915C9.99677 13.6939 10.1521 13.75 10.3124 13.75H18.6941L19.8944 19.3493C19.4163 19.4807 18.9827 19.739 18.6395 20.0969C18.2963 20.4547 18.0564 20.8988 17.9451 21.3819C17.8338 21.8651 17.8553 22.3694 18.0074 22.8413C18.1595 23.3132 18.4364 23.7352 18.8089 24.0625C18.5154 24.32 18.2803 24.6372 18.1193 24.9929C17.9582 25.3486 17.8749 25.7345 17.8749 26.125C17.8749 26.5154 17.9582 26.9014 18.1193 27.257C18.2803 27.6127 18.5154 27.9299 18.8089 28.1875C18.4482 28.5043 18.1769 28.91 18.0218 29.3643C17.8668 29.8186 17.8335 30.3056 17.9253 30.7768C18.017 31.248 18.2307 31.6869 18.5449 32.0498C18.859 32.4127 19.2628 32.687 19.716 32.8453C19.4385 33.2591 19.2786 33.7405 19.2536 34.2382C19.2285 34.7358 19.3392 35.2308 19.5738 35.6704C19.8084 36.11 20.158 36.4775 20.5854 36.7337C21.0127 36.99 21.5017 37.1252 21.9999 37.125H27.6383C27.9572 38.6767 28.8015 40.071 30.0286 41.0729C31.2557 42.0747 32.7907 42.6229 34.3749 42.625C34.5572 42.625 34.7321 42.5525 34.861 42.4236C34.99 42.2947 35.0624 42.1198 35.0624 41.9375C35.0624 41.7551 34.99 41.5803 34.861 41.4513C34.7321 41.3224 34.5572 41.25 34.3749 41.25C33.1559 41.2484 31.9718 40.8426 31.0081 40.0962C30.0443 39.3498 29.3553 38.3048 29.0489 37.125H33.3755L37.9825 42.3902C38.047 42.4639 38.1266 42.523 38.2158 42.5635C38.305 42.604 38.4019 42.625 38.4999 42.625H41.9374C42.1197 42.625 42.2946 42.5525 42.4235 42.4236C42.5525 42.2947 42.6249 42.1198 42.6249 41.9375V30.9375C42.6249 30.7766 42.5685 30.6209 42.4656 30.4973L39.1874 26.5633ZM10.883 12.375L9.09708 2.85017L12.4572 3.23019L14.2863 12.375H10.883ZM15.6885 12.375L13.8924 3.39244L29.8182 5.19352C30.3168 5.25656 30.7752 5.49916 31.1078 5.87588C31.4403 6.2526 31.6242 6.73761 31.6249 7.24012V10.3125C31.6243 10.8593 31.4068 11.3835 31.0201 11.7702C30.6335 12.1569 30.1092 12.3744 29.5624 12.375H15.6885ZM20.6249 20.625H21.9999C22.3646 20.625 22.7143 20.7698 22.9722 21.0277C23.23 21.2856 23.3749 21.6353 23.3749 22C23.3749 22.3646 23.23 22.7144 22.9722 22.9722C22.7143 23.2301 22.3646 23.375 21.9999 23.375H20.6249C20.2602 23.375 19.9105 23.2301 19.6526 22.9722C19.3948 22.7144 19.2499 22.3646 19.2499 22C19.2499 21.6353 19.3948 21.2856 19.6526 21.0277C19.9105 20.7698 20.2602 20.625 20.6249 20.625V20.625ZM23.3749 35.75H21.9999C21.6352 35.75 21.2855 35.6051 21.0276 35.3472C20.7698 35.0894 20.6249 34.7396 20.6249 34.375C20.6249 34.0103 20.7698 33.6606 21.0276 33.4027C21.2855 33.1448 21.6352 33 21.9999 33H23.3749C23.7396 33 24.0893 33.1448 24.3472 33.4027C24.605 33.6606 24.7499 34.0103 24.7499 34.375C24.7499 34.7396 24.605 35.0894 24.3472 35.3472C24.0893 35.6051 23.7396 35.75 23.3749 35.75ZM24.0624 31.625H20.6249C20.2602 31.625 19.9105 31.4801 19.6526 31.2222C19.3948 30.9644 19.2499 30.6146 19.2499 30.25C19.2499 29.8853 19.3948 29.5356 19.6526 29.2777C19.9105 29.0198 20.2602 28.875 20.6249 28.875H24.0624C24.4271 28.875 24.7768 29.0198 25.0347 29.2777C25.2925 29.5356 25.4374 29.8853 25.4374 30.25C25.4374 30.6146 25.2925 30.9644 25.0347 31.2222C24.7768 31.4801 24.4271 31.625 24.0624 31.625ZM24.7499 27.5H20.6249C20.2602 27.5 19.9105 27.3551 19.6526 27.0972C19.3948 26.8394 19.2499 26.4896 19.2499 26.125C19.2499 25.7603 19.3948 25.4106 19.6526 25.1527C19.9105 24.8948 20.2602 24.75 20.6249 24.75H24.7499C25.1146 24.75 25.4643 24.8948 25.7222 25.1527C25.98 25.4106 26.1249 25.7603 26.1249 26.125C26.1249 26.4896 25.98 26.8394 25.7222 27.0972C25.4643 27.3551 25.1146 27.5 24.7499 27.5ZM27.4999 35.75H25.7554C25.9977 35.3322 26.1253 34.8579 26.1253 34.375C26.1253 33.892 25.9977 33.4177 25.7554 33H27.4999V35.75ZM27.4999 31.625H26.4429C26.7263 31.1363 26.8518 30.5721 26.8023 30.0094C26.7528 29.4467 26.5307 28.913 26.1664 28.4814C26.6819 28.1718 27.0816 27.7018 27.3045 27.1434C27.5273 26.5849 27.561 25.9688 27.4002 25.3894C27.2395 24.8101 26.8933 24.2993 26.4146 23.9355C25.9359 23.5716 25.3512 23.3748 24.7499 23.375H24.3804C24.6224 22.9571 24.75 22.4828 24.7503 22C24.7507 21.5171 24.6238 21.0426 24.3824 20.6244C24.1411 20.2062 23.7938 19.8589 23.3755 19.6176C22.9572 19.3764 22.4828 19.2495 21.9999 19.25H21.2789L20.1007 13.75H29.5624V16.5C28.7105 16.4996 27.8888 16.8156 27.2566 17.3867C26.6244 17.9578 26.2269 18.7433 26.141 19.5909C26.0551 20.4384 26.287 21.2877 26.7917 21.974C27.2964 22.6603 28.038 23.1348 28.8727 23.3054C28.8942 24.1361 29.017 25.6297 29.5624 27.0747V29.5625C29.5618 30.1093 29.3443 30.6335 28.9576 31.0202C28.571 31.4068 28.0467 31.6243 27.4999 31.625V31.625ZM41.2499 41.25H38.8119L34.2048 35.9848C34.1403 35.911 34.0608 35.8519 33.9715 35.8114C33.8823 35.7709 33.7854 35.75 33.6874 35.75H28.8749V32.7121C29.4874 32.4441 30.0087 32.0036 30.375 31.4443C30.7412 30.8849 30.9367 30.2311 30.9374 29.5625V29.3348C31.2402 29.6512 31.5836 29.926 31.9587 30.152V30.1514C32.036 30.1978 32.1217 30.2285 32.211 30.2418C32.3002 30.2551 32.3911 30.2507 32.4786 30.2288C32.5661 30.2069 32.6485 30.168 32.7209 30.1143C32.7934 30.0606 32.8546 29.9932 32.901 29.9158C32.9474 29.8385 32.9781 29.7528 32.9914 29.6636C33.0047 29.5744 33.0002 29.4834 32.9784 29.3959C32.9565 29.3084 32.9176 29.2261 32.8639 29.1536C32.8102 29.0811 32.7428 29.0199 32.6654 28.9735V28.9729C31.8412 28.4785 31.2965 27.6783 30.9367 26.8132V26.8125C30.4154 25.5588 30.2828 24.1693 30.2528 23.375H32.3124C32.4947 23.375 32.6696 23.3025 32.7985 23.1736C32.9275 23.0447 32.9999 22.8698 32.9999 22.6875C32.9999 22.5051 32.9275 22.3303 32.7985 22.2013C32.6696 22.0724 32.4947 22 32.3124 22H29.5624C29.0154 22 28.4908 21.7827 28.104 21.3959C27.7172 21.0091 27.4999 20.4845 27.4999 19.9375C27.4999 19.3905 27.7172 18.8659 28.104 18.4791C28.4908 18.0923 29.0154 17.875 29.5624 17.875H32.9999C34.2758 17.8764 35.499 18.3839 36.4013 19.2861C37.3035 20.1883 37.8109 21.4116 37.8124 22.6875V26.8125C37.8124 26.9733 37.8688 27.1291 37.9717 27.2526L41.2499 31.1867V41.25Z" fill="white"/>
<path d="M6.30547 5.58419C6.24163 5.52035 6.16584 5.4697 6.08243 5.43515C5.99901 5.4006 5.90961 5.38281 5.81932 5.38281C5.72904 5.38281 5.63963 5.4006 5.55622 5.43515C5.47281 5.4697 5.39701 5.52035 5.33317 5.58419C4.55959 6.35778 4.125 7.40698 4.125 8.50099C4.125 9.59501 4.55959 10.6442 5.33317 11.4178C5.39702 11.4816 5.47281 11.5323 5.55622 11.5668C5.63963 11.6014 5.72904 11.6192 5.81932 11.6192C5.90961 11.6192 5.99901 11.6014 6.08242 11.5668C6.16584 11.5323 6.24163 11.4816 6.30547 11.4178C6.36931 11.354 6.41995 11.2782 6.45451 11.1948C6.48906 11.1113 6.50684 11.0219 6.50684 10.9316C6.50684 10.8414 6.48906 10.752 6.45451 10.6685C6.41995 10.5851 6.36931 10.5093 6.30547 10.4455C6.05011 10.1901 5.84754 9.88698 5.70934 9.55334C5.57114 9.21969 5.50001 8.86209 5.50001 8.50095C5.50001 8.13981 5.57114 7.78221 5.70934 7.44857C5.84754 7.11492 6.05011 6.81176 6.30547 6.5564C6.43438 6.42747 6.5068 6.25262 6.5068 6.07029C6.5068 5.88797 6.43438 5.71312 6.30547 5.58419Z" fill="white"/>
<path d="M3.38931 3.6359C2.10191 4.92623 1.37891 6.67453 1.37891 8.49726C1.37891 10.32 2.10191 12.0683 3.38931 13.3586C3.51872 13.4852 3.69282 13.5556 3.87382 13.5546C4.05482 13.5535 4.22812 13.4812 4.35611 13.3532C4.4841 13.2252 4.55645 13.0519 4.55746 12.8709C4.55848 12.6899 4.48807 12.5158 4.36152 12.3864C3.33162 11.3541 2.75322 9.95548 2.75322 8.4973C2.75322 7.03912 3.33162 5.64047 4.36152 4.6082C4.48917 4.47901 4.5605 4.30456 4.55996 4.12294C4.55942 3.94133 4.48704 3.76731 4.35862 3.63889C4.23021 3.51046 4.05619 3.43806 3.87458 3.4375C3.69297 3.43694 3.51851 3.50827 3.38931 3.6359Z" fill="white"/>
</svg>
