<?xml version="1.0" encoding="UTF-8"?>
<svg width="60" height="59" viewBox="0 0 60 59" fill="none" xmlns="http://www.w3.org/2000/svg">
<path d="M0 44.25C0 19.8114 19.8114 0 44.25 0H45C53.2843 0 60 6.71573 60 15V29C60 45.5685 46.5685 59 30 59H14.75C6.6038 59 0 52.3962 0 44.25V44.25Z" fill="#C0D0FF"/>
<path d="M51.0326 34.2054H48.8898V22.4484L50.7112 21.227C50.9112 21.0948 51.0308 20.8734 51.0326 20.6341V18.4913C51.0326 18.302 50.9576 18.1199 50.8237 17.9859C50.6898 17.852 50.5076 17.777 50.3183 17.777H45.3182V16.3485H47.461V14.9199H41.7469V16.3485H43.8897V17.777H38.8895C38.4949 17.777 38.1753 18.0966 38.1753 18.4913V20.6341C38.1771 20.8734 38.2967 21.0948 38.4967 21.2269L40.3181 22.4484V22.7769H18.1755C17.7809 22.7769 17.4612 23.0966 17.4612 23.4912V32.0624H9.60401C9.34152 32.0624 9.09865 32.2089 8.97546 32.441C8.84868 32.6624 8.84868 32.9338 8.97546 33.1553L14.6896 41.7265C14.8235 41.9426 15.0646 42.0711 15.3182 42.0622H51.0317C51.221 42.0622 51.4031 41.9872 51.5371 41.8533C51.671 41.7194 51.746 41.5372 51.746 41.3479V34.9197C51.746 34.7304 51.671 34.5483 51.5371 34.4144C51.4031 34.2804 51.221 34.2054 51.0317 34.2054L51.0326 34.2054ZM39.6043 20.2486V19.2058H49.6041V20.2486L47.7827 21.4701C47.5827 21.6022 47.463 21.8236 47.4612 22.0629V34.2053H41.7471V22.0629C41.7453 21.8236 41.6257 21.6022 41.4257 21.4701L39.6043 20.2486ZM38.89 34.2054V32.0626H37.4615V34.2054H36.0329V32.0626H34.6044V34.2054H33.1758V32.0626H31.7473V34.2054H30.3188V30.634H40.3185V34.2054H38.89ZM40.3185 29.2052H30.3188V24.2051H40.3185V29.2052ZM18.8904 24.2051H28.8902V29.2052H18.8904V24.2051ZM18.8904 30.6333H28.8902V34.2047H27.4617V32.0619H26.0331V33.9118L24.3975 32.269C24.2635 32.1351 24.0796 32.0601 23.8903 32.0619H18.8902L18.8904 30.6333ZM50.3183 40.6331H15.7047L10.9404 33.4904H23.5975L25.5261 35.4261C25.66 35.56 25.8439 35.635 26.0332 35.6332H50.3184L50.3183 40.6331Z" fill="#0F2851"/>
<path d="M43.176 20.6338H46.0331V22.0623H43.176V20.6338Z" fill="#0F2851"/>
<path d="M18.1765 34.9199H19.6051V36.3485H18.1765V34.9199Z" fill="#0F2851"/>
<path d="M14.6052 34.9199H16.0338V36.3485H14.6052V34.9199Z" fill="#0F2851"/>
<path d="M21.748 34.9199H23.1766V36.3485H21.748V34.9199Z" fill="#0F2851"/>
<path d="M37.4619 25.6338H38.8905V27.7766H37.4619V25.6338Z" fill="#0F2851"/>
<path d="M34.6047 25.6338H36.0333V27.7766H34.6047V25.6338Z" fill="#0F2851"/>
<path d="M31.7478 25.6338H33.1763V27.7766H31.7478V25.6338Z" fill="#0F2851"/>
<path d="M26.0337 25.6338H27.4622V27.7766H26.0337V25.6338Z" fill="#0F2851"/>
<path d="M23.1765 25.6338H24.6051V27.7766H23.1765V25.6338Z" fill="#0F2851"/>
<path d="M20.3193 25.6338H21.7479V27.7766H20.3193V25.6338Z" fill="#0F2851"/>
<path d="M43.176 23.4912H46.0331V24.9198H43.176V23.4912Z" fill="#0F2851"/>
<path d="M43.176 26.3486H46.0331V27.7772H43.176V26.3486Z" fill="#0F2851"/>
<path d="M43.176 29.2051H44.6046V30.6336H43.176V29.2051Z" fill="#0F2851"/>
</svg>
