<?xml version="1.0" encoding="UTF-8"?>
<svg width="44" height="44" viewBox="0 0 44 44" fill="none" xmlns="http://www.w3.org/2000/svg">
<path d="M16.2449 29.7154C15.7654 27.0685 15.2841 24.4218 14.8046 21.7747C14.2391 19.1519 15.6983 16.8832 18.2937 15.7969" stroke="white" stroke-width="2" stroke-miterlimit="10" stroke-linecap="round" stroke-linejoin="round"/>
<path d="M25.5469 15.7969C28.1422 16.8831 29.6014 19.1519 29.0359 21.7747C28.5564 24.4216 28.0752 27.0684 27.5956 29.7154" stroke="white" stroke-width="2" stroke-miterlimit="10" stroke-linecap="round" stroke-linejoin="round"/>
<path d="M26.6129 12.825C26.6129 13.9542 26.2142 14.9923 25.5473 15.8018C24.6862 16.8486 23.3817 17.5171 21.9207 17.5171C20.4598 17.5171 19.1535 16.8486 18.2942 15.8018C17.629 14.9923 17.2285 13.9559 17.2285 12.825C17.2285 10.2331 19.3288 8.13281 21.9207 8.13281C24.5125 8.13281 26.6128 10.2348 26.6128 12.825H26.6129Z" stroke="white" stroke-width="2" stroke-miterlimit="10"/>
<path d="M13.6986 16.032C13.6986 18.1736 11.9627 19.9078 9.8211 19.9078C7.68124 19.9078 5.94531 18.1736 5.94531 16.032C5.94531 13.8922 7.68124 12.1562 9.8211 12.1562C11.9627 12.1562 13.6986 13.8922 13.6986 16.032Z" stroke="white" stroke-width="2" stroke-miterlimit="10"/>
<path d="M38.0521 15.7508C38.0521 17.8924 36.3162 19.6266 34.1763 19.6266C32.0348 19.6266 30.2988 17.8924 30.2988 15.7508C30.2988 13.6092 32.0348 11.875 34.1763 11.875C36.3162 11.875 38.0521 13.6092 38.0521 15.7508Z" stroke="white" stroke-width="2" stroke-miterlimit="10"/>
<path d="M36.373 18.9453C38.4166 19.8683 39.5492 21.7022 39.0938 23.8126C38.6967 25.9989 38.2997 28.1851 37.9044 30.3712C37.3045 33.41 35.4895 33.4719 33.2158 33.4719C31.7393 33.4719 30.4572 33.4444 29.5755 32.597L29.5308 32.5764C29.5308 34.3965 28.0544 35.873 26.2342 35.873H17.7211C15.8992 35.873 14.4245 34.3965 14.4245 32.5764V32.597C13.5428 33.4461 12.2589 33.4719 10.7842 33.4719C8.5103 33.4719 6.6953 33.4083 6.09558 30.3712C5.69855 28.185 5.30151 25.9987 4.90621 23.8126C4.46965 21.7827 5.4992 20.009 7.39494 19.0553" stroke="white" stroke-width="2" stroke-miterlimit="10" stroke-linecap="round" stroke-linejoin="round"/>
</svg>
