<?xml version="1.0" encoding="UTF-8"?>
<svg width="44" height="44" viewBox="0 0 44 44" fill="none" xmlns="http://www.w3.org/2000/svg">
<path d="M11.1719 21.1406C10.6975 21.1406 10.3125 21.5256 10.3125 22C10.3125 22.4744 10.6975 22.8594 11.1719 22.8594C11.6462 22.8594 12.0312 22.4744 12.0312 22C12.0312 21.5256 11.6462 21.1406 11.1719 21.1406Z" fill="white"/>
<path d="M43.1406 17.7031C43.6152 17.7031 44 17.3183 44 16.8438V11.6875C44 10.2659 42.8435 9.10938 41.4219 9.10938H2.57812C1.15655 9.10938 0 10.2659 0 11.6875V16.8438C0 17.3183 0.384742 17.7031 0.859375 17.7031C3.22867 17.7031 5.15625 19.6307 5.15625 22C5.15625 24.3693 3.22867 26.2969 0.859375 26.2969C0.384742 26.2969 0 26.6817 0 27.1562V32.3125C0 33.7341 1.15655 34.8906 2.57812 34.8906H41.4219C42.8435 34.8906 44 33.7341 44 32.3125V27.1562C44 26.6817 43.6152 26.2969 43.1406 26.2969C40.7713 26.2969 38.8438 24.3693 38.8438 22C38.8438 19.6307 40.7713 17.7031 43.1406 17.7031ZM37.125 22C37.125 25.0253 39.3699 27.5362 42.2812 27.9544V32.3125C42.2812 32.7864 41.8957 33.1719 41.4219 33.1719H12.0312V30.5938C12.0312 30.1192 11.6465 29.7344 11.1719 29.7344C10.6972 29.7344 10.3125 30.1192 10.3125 30.5938V33.1719H2.57812C2.10427 33.1719 1.71875 32.7864 1.71875 32.3125V27.9544C4.63014 27.5362 6.875 25.0253 6.875 22C6.875 18.9747 4.63014 16.4638 1.71875 16.0456V11.6875C1.71875 11.2136 2.10427 10.8281 2.57812 10.8281H10.3125V13.4062C10.3125 13.8808 10.6972 14.2656 11.1719 14.2656C11.6465 14.2656 12.0312 13.8808 12.0312 13.4062V10.8281H41.4219C41.8957 10.8281 42.2812 11.2136 42.2812 11.6875V16.0456C39.3699 16.4638 37.125 18.9747 37.125 22Z" fill="white"/>
<path d="M32.8281 15.9844H18.0469C17.5722 15.9844 17.1875 16.3692 17.1875 16.8438C17.1875 17.3183 17.5722 17.7031 18.0469 17.7031H32.8281C33.3027 17.7031 33.6875 17.3183 33.6875 16.8438C33.6875 16.3692 33.3027 15.9844 32.8281 15.9844Z" fill="white"/>
<path d="M32.8281 21.1406H18.0469C17.5722 21.1406 17.1875 21.5255 17.1875 22C17.1875 22.4745 17.5722 22.8594 18.0469 22.8594H32.8281C33.3027 22.8594 33.6875 22.4745 33.6875 22C33.6875 21.5255 33.3027 21.1406 32.8281 21.1406Z" fill="white"/>
<path d="M32.8281 26.2969H18.0469C17.5722 26.2969 17.1875 26.6817 17.1875 27.1562C17.1875 27.6308 17.5722 28.0156 18.0469 28.0156H32.8281C33.3027 28.0156 33.6875 27.6308 33.6875 27.1562C33.6875 26.6817 33.3027 26.2969 32.8281 26.2969Z" fill="white"/>
<path d="M11.1719 15.9844C10.6972 15.9844 10.3125 16.3692 10.3125 16.8438V18.5625C10.3125 19.037 10.6972 19.4219 11.1719 19.4219C11.6465 19.4219 12.0312 19.037 12.0312 18.5625V16.8438C12.0312 16.3692 11.6465 15.9844 11.1719 15.9844Z" fill="white"/>
<path d="M11.1719 24.5781C10.6972 24.5781 10.3125 24.963 10.3125 25.4375V27.1562C10.3125 27.6308 10.6972 28.0156 11.1719 28.0156C11.6465 28.0156 12.0312 27.6308 12.0312 27.1562V25.4375C12.0312 24.963 11.6465 24.5781 11.1719 24.5781Z" fill="white"/>
</svg>
