<?xml version="1.0" encoding="UTF-8"?>
<svg width="44" height="44" viewBox="0 0 44 44" fill="none" xmlns="http://www.w3.org/2000/svg">
<path d="M6.875 21.3125C6.875 21.4947 6.94719 21.67 7.07609 21.7989C7.205 21.9279 7.38031 22 7.56251 22H15.8125C15.9947 22 16.17 21.9278 16.2989 21.7989C16.4279 21.67 16.5 21.4947 16.5 21.3125V13.0625C16.5 12.8803 16.4278 12.705 16.2989 12.5761C16.17 12.4472 15.9947 12.375 15.8125 12.375H7.56251C7.18267 12.375 6.87501 12.6827 6.87501 13.0625L6.875 21.3125ZM8.25 20.625V16.5H9.625V18.5625C9.625 18.8409 9.79172 19.0919 10.0495 19.1984C10.3056 19.3033 10.6012 19.2449 10.7989 19.0489L11.6875 18.1603L12.5761 19.0489C12.7737 19.2449 13.0693 19.3033 13.3254 19.1984C13.5832 19.0919 13.7499 18.8409 13.7499 18.5625V16.5H15.1249V20.625H8.25ZM11 13.75H12.375V16.9022L12.1739 16.7011C12.045 16.5722 11.8697 16.5 11.6875 16.5C11.5053 16.5 11.33 16.5722 11.2011 16.7011L11 16.9022L11 13.75ZM15.125 15.125H13.75V13.75H15.125V15.125ZM9.625 13.75V15.125H8.25V13.75H9.625Z" fill="white"/>
<path d="M20.6257 22C20.6257 22.77 21.0554 23.4782 21.7395 23.8322C22.4253 24.1863 23.2503 24.1296 23.8793 23.6844C24.5084 23.2393 24.8367 22.4813 24.7318 21.7164C24.6253 20.9533 24.1028 20.3122 23.3757 20.0561V18.4439C24.199 18.1535 24.7507 17.3731 24.7507 16.5C24.7507 15.6269 24.199 14.8466 23.3757 14.5561V12.9439C24.3228 12.6087 24.8917 11.6411 24.7215 10.6511C24.5514 9.66108 23.692 8.9375 22.6882 8.9375C21.6845 8.9375 20.8251 9.66108 20.655 10.6511C20.4848 11.6411 21.0537 12.6087 22.0007 12.9439V14.5561C21.1775 14.8466 20.6257 15.6269 20.6257 16.5C20.6257 17.3731 21.1775 18.1534 22.0007 18.4439V20.0561C21.1775 20.3483 20.6275 21.1269 20.6257 22V22ZM22.6882 22.6875C22.4098 22.6875 22.1589 22.5208 22.0523 22.263C21.9475 22.0069 22.0059 21.7113 22.2018 21.5136C22.3995 21.3177 22.6951 21.2593 22.9512 21.3641C23.209 21.4707 23.3757 21.7216 23.3757 22C23.3757 22.3799 23.0681 22.6875 22.6882 22.6875L22.6882 22.6875ZM22.6882 10.3125C22.9667 10.3125 23.2176 10.4792 23.3242 10.737C23.429 10.9931 23.3706 11.2888 23.1746 11.4864C22.977 11.6823 22.6814 11.7408 22.4253 11.6359C22.1675 11.5294 22.0008 11.2784 22.0008 11C22.0008 10.6202 22.3084 10.3125 22.6883 10.3125L22.6882 10.3125ZM22.6882 15.8125C22.9667 15.8125 23.2176 15.9792 23.3242 16.237C23.429 16.4931 23.3706 16.7888 23.1746 16.9864C22.977 17.1823 22.6814 17.2408 22.4253 17.1359C22.1675 17.0294 22.0008 16.7784 22.0008 16.5C22.0008 16.1202 22.3084 15.8125 22.6883 15.8125L22.6882 15.8125Z" fill="white"/>
<path d="M26.8125 11.6875H33.6875C34.0673 11.6875 34.375 11.3798 34.375 11C34.375 10.6202 34.0673 10.3125 33.6875 10.3125H26.8125C26.4327 10.3125 26.125 10.6202 26.125 11C26.125 11.3798 26.4327 11.6875 26.8125 11.6875Z" fill="white"/>
<path d="M36.4375 11.6875H37.8125C38.1923 11.6875 38.5 11.3798 38.5 11C38.5 10.6202 38.1923 10.3125 37.8125 10.3125H36.4375C36.0577 10.3125 35.75 10.6202 35.75 11C35.75 11.3798 36.0577 11.6875 36.4375 11.6875Z" fill="white"/>
<path d="M26.8125 17.1875H33.6875C34.0673 17.1875 34.375 16.8798 34.375 16.5C34.375 16.1202 34.0673 15.8125 33.6875 15.8125H26.8125C26.4327 15.8125 26.125 16.1202 26.125 16.5C26.125 16.8798 26.4327 17.1875 26.8125 17.1875Z" fill="white"/>
<path d="M36.4375 17.1875H37.8125C38.1923 17.1875 38.5 16.8798 38.5 16.5C38.5 16.1202 38.1923 15.8125 37.8125 15.8125H36.4375C36.0577 15.8125 35.75 16.1202 35.75 16.5C35.75 16.8798 36.0577 17.1875 36.4375 17.1875Z" fill="white"/>
<path d="M26.8125 22.6875H33.6875C34.0673 22.6875 34.375 22.3798 34.375 22C34.375 21.6202 34.0673 21.3125 33.6875 21.3125H26.8125C26.4327 21.3125 26.125 21.6202 26.125 22C26.125 22.3798 26.4327 22.6875 26.8125 22.6875Z" fill="white"/>
<path d="M36.4375 22.6875H37.8125C38.1923 22.6875 38.5 22.3798 38.5 22C38.5 21.6202 38.1923 21.3125 37.8125 21.3125H36.4375C36.0577 21.3125 35.75 21.6202 35.75 22C35.75 22.3798 36.0577 22.6875 36.4375 22.6875Z" fill="white"/>
<path d="M39.1875 3.4375H4.8125C2.915 3.43922 1.37672 4.9775 1.375 6.875V30.25C1.37672 32.1475 2.915 33.6858 4.8125 33.6875H15.6611L14.4511 39.741C14.4099 39.9421 14.4632 40.1518 14.5938 40.3117C14.7244 40.4698 14.9186 40.5626 15.1249 40.5626H28.8749C29.0811 40.5626 29.2754 40.4698 29.406 40.3117C29.5366 40.1518 29.5899 39.9421 29.5486 39.741L28.3386 33.6875H39.1873C41.0848 33.6858 42.623 32.1475 42.6248 30.25V6.875C42.623 4.9775 41.0848 3.43922 39.1873 3.4375H39.1875ZM4.8125 4.8125H39.1875C40.3253 4.81422 41.2483 5.7372 41.25 6.875V26.8123H2.75V6.875C2.75172 5.7372 3.6747 4.81422 4.8125 4.8125ZM28.0361 39.1875H15.9634L17.0634 33.6875H26.9361L28.0361 39.1875ZM39.1875 32.3125H4.8125C3.6747 32.3108 2.75172 31.3878 2.75 30.25V28.1875H41.25V30.25C41.2483 31.3878 40.3253 32.3108 39.1875 32.3125Z" fill="white"/>
<path d="M6.875 6.87456C6.875 7.79064 5.5 7.79064 5.5 6.87456C5.5 5.95848 6.875 5.95848 6.875 6.87456Z" fill="white"/>
<path d="M9.625 6.87456C9.625 7.79064 8.25 7.79064 8.25 6.87456C8.25 5.95848 9.625 5.95848 9.625 6.87456Z" fill="white"/>
<path d="M12.375 6.87456C12.375 7.79064 11 7.79064 11 6.87456C11 5.95848 12.375 5.95848 12.375 6.87456Z" fill="white"/>
<path d="M22.6875 29.5625H21.3125C20.9327 29.5625 20.625 29.8702 20.625 30.25C20.625 30.6298 20.9327 30.9375 21.3125 30.9375H22.6875C23.0673 30.9375 23.375 30.6298 23.375 30.25C23.375 29.8702 23.0673 29.5625 22.6875 29.5625Z" fill="white"/>
</svg>
