<?xml version="1.0" encoding="UTF-8"?>
<svg width="44" height="44" viewBox="0 0 44 44" fill="none" xmlns="http://www.w3.org/2000/svg">
<g clip-path="url(#clip0_128_96)">
<path d="M42.625 0H1.375C0.615296 0 0 0.615296 0 1.375V35.75C0 36.1144 0.144373 36.465 0.402186 36.7228C0.66 36.9806 1.01062 37.125 1.37498 37.125H23.375V35.75H1.37498V5.49998H13.0623V4.12498H1.37498V1.37498H15.125V14.4377C15.125 14.6663 15.2384 14.8794 15.4275 15.0083L17.49 16.3833C17.7203 16.538 18.0228 16.538 18.2531 16.3833L19.9375 15.2627L21.615 16.3833C21.8453 16.538 22.1478 16.538 22.3781 16.3833L24.0625 15.2627L25.7468 16.3833C25.9772 16.538 26.2796 16.538 26.51 16.3833L28.5725 15.0083C28.7615 14.8794 28.875 14.6663 28.875 14.4377V1.37498H42.625V4.12498H30.9377V5.49998H42.625V35.75H39.875V37.125H42.625C42.9894 37.125 43.34 36.9806 43.5978 36.7228C43.8556 36.465 44 36.1144 44 35.75V1.375C44 1.01063 43.8556 0.66 43.5978 0.402204C43.34 0.14439 42.9893 1.76e-05 42.625 1.76e-05L42.625 0ZM27.5 14.0664L26.125 14.9876L24.4406 13.867C24.2103 13.7123 23.9078 13.7123 23.6775 13.867L22 14.9876L20.3225 13.867C20.0922 13.7123 19.7897 13.7123 19.5594 13.867L17.875 14.9876L16.5 14.0733V4.81259H27.5V14.0664ZM27.5 3.43772H16.5V1.37522H27.5V3.43772Z" fill="white"/>
<path d="M4.8125 26.125C4.43266 26.125 4.125 26.4327 4.125 26.8125V32.3125C4.125 32.4947 4.19719 32.67 4.32609 32.7989C4.455 32.9279 4.63031 33 4.81251 33H10.3125C10.4947 33 10.67 32.9278 10.7989 32.7989C10.9279 32.67 11 32.4947 11 32.3125V26.8125C11 26.6303 10.9278 26.455 10.7989 26.3261C10.67 26.1972 10.4947 26.125 10.3125 26.125L4.8125 26.125ZM5.5 27.5H8.65564L5.5 30.6556V27.5ZM9.625 31.625H6.46936L9.625 28.4694V31.625Z" fill="white"/>
<path d="M12.375 27.5H13.75V28.875H12.375V27.5Z" fill="white"/>
<path d="M15.125 27.5H16.5V28.875H15.125V27.5Z" fill="white"/>
<path d="M12.375 30.25H20.625V31.625H12.375V30.25Z" fill="white"/>
<path d="M31.6251 19.9375C29.4371 19.9375 27.3385 20.8072 25.7916 22.3541C24.2447 23.9009 23.375 25.9996 23.375 28.1876C23.375 28.5107 23.4644 36.1212 31.137 43.8006C31.4052 44.067 31.8383 44.067 32.1064 43.8006C39.7857 36.1212 39.875 28.5106 39.875 28.1876C39.875 25.9996 39.0053 23.901 37.4585 22.3541C35.9116 20.8072 33.813 19.9375 31.625 19.9375H31.6251ZM31.6251 42.3295C24.8601 35.2482 24.7501 28.2632 24.7501 28.1875C24.7501 25.7314 26.0598 23.461 28.1876 22.2339C30.3154 21.0049 32.9347 21.0049 35.0626 22.2339C37.1904 23.4611 38.5001 25.7315 38.5001 28.1875C38.5001 28.2562 38.3901 35.2482 31.6251 42.3295Z" fill="white"/>
<path d="M31.625 24.0625C29.956 24.0625 28.4522 25.068 27.8145 26.6097C27.1751 28.1497 27.5292 29.9252 28.7082 31.1043C29.8873 32.2834 31.6627 32.6374 33.2028 31.998C34.7445 31.3604 35.75 29.8565 35.75 28.1875C35.75 25.9102 33.9024 24.0625 31.625 24.0625L31.625 24.0625ZM31.625 30.9375C30.513 30.9375 29.5092 30.2672 29.0847 29.2394C28.6584 28.2116 28.8939 27.0291 29.6811 26.2436C30.4666 25.4564 31.6491 25.2209 32.6769 25.6472C33.7047 26.0717 34.375 27.0754 34.375 28.1875C34.375 28.9162 34.0845 29.6157 33.5689 30.1314C33.0533 30.647 32.3538 30.9375 31.625 30.9375L31.625 30.9375Z" fill="white"/>
<path d="M11 41.25H15.125V39.875H11C10.2403 39.875 9.625 40.4903 9.625 41.25V42.625C9.625 42.9894 9.76937 43.34 10.0272 43.5978C10.285 43.8556 10.6356 44 11 44H26.8127V42.625H11L11 41.25Z" fill="white"/>
<path d="M16.5 39.875H17.875V41.25H16.5V39.875Z" fill="white"/>
</g>
<defs>
<clipPath id="clip0_128_96">
<rect width="44" height="44" fill="white"/>
</clipPath>
</defs>
</svg>
