<?xml version="1.0" encoding="UTF-8"?>
<svg width="44" height="44" viewBox="0 0 44 44" fill="none" xmlns="http://www.w3.org/2000/svg">
<g clip-path="url(#clip0_145_14)">
<path d="M12.4681 26.3984H6.60156V27.8651H12.4681V26.3984Z" fill="white"/>
<path d="M43.9241 34.8714L41.7241 30.4714C41.5999 30.2229 41.3459 30.0661 41.0681 30.0661H36.6682V27.8661C36.6682 27.4612 36.3399 27.1328 35.9349 27.1328H21.2685C20.8635 27.1328 20.5352 27.4612 20.5352 27.8661V41.0659C20.5352 41.4709 20.8635 41.7992 21.2685 41.7992H24.3059C24.703 43.3618 26.2916 44.3065 27.8541 43.9094C28.891 43.6458 29.7007 42.8362 29.9642 41.7992H35.3057C35.7028 43.3618 37.2915 44.3065 38.8539 43.9094C39.8908 43.6458 40.7005 42.8362 40.964 41.7992H43.2681C43.6731 41.7992 44.0014 41.4709 44.0014 41.0659V35.1993C44.0014 35.0855 43.9749 34.9732 43.9241 34.8714ZM27.135 42.5326C26.325 42.5326 25.6684 41.876 25.6684 41.0659C25.6684 40.2559 26.325 39.5993 27.135 39.5993C27.9451 39.5993 28.6017 40.2559 28.6017 41.0659C28.6009 41.8756 27.9447 42.5317 27.135 42.5326ZM35.2016 40.3326H29.9642C29.6317 39.0408 28.4689 38.1367 27.135 38.1326C25.8012 38.1367 24.6384 39.0408 24.3059 40.3326H22.0018V28.5995H35.2016V40.3326ZM39.6015 31.5327H40.6149L42.0816 34.466H39.6015V31.5327ZM38.1349 42.5326C37.3248 42.5326 36.6682 41.876 36.6682 41.0659C36.6682 40.2559 37.3248 39.5993 38.1349 39.5993C38.9449 39.5993 39.6015 40.2559 39.6015 41.0659C39.6007 41.8756 38.9445 42.5317 38.1349 42.5326ZM42.5348 40.3326H40.964C40.6315 39.0408 39.4687 38.1367 38.1349 38.1326C37.6183 38.1356 37.1121 38.2765 36.6682 38.5407V31.5327H38.1349V35.1993C38.1349 35.6043 38.4632 35.9327 38.8682 35.9327H42.5348V40.3326Z" fill="white"/>
<path d="M17.5987 10.2656H16.1328V11.7323H17.5987V10.2656Z" fill="white"/>
<path d="M20.5323 10.2656H19.0664V11.7323H20.5323V10.2656Z" fill="white"/>
<path d="M23.4659 10.2656H22V11.7323H23.4659V10.2656Z" fill="white"/>
<path d="M26.3995 10.2656H24.9336V11.7323H26.3995V10.2656Z" fill="white"/>
<path d="M40.3952 12.2488L38.1233 9.97647C36.4342 8.28946 34.1462 7.33926 31.759 7.33321H26.0715L22.6204 1.81149C22.4863 1.59708 22.2514 1.46673 21.9985 1.46664H19.7985C19.3933 1.46683 19.065 1.79545 19.0652 2.2007C19.0652 2.26046 19.0725 2.31995 19.087 2.37798L20.3258 7.33321H14.4776L12.4345 0.522766C12.3414 0.21248 12.0558 0 11.732 0H8.06535C7.66038 0 7.33203 0.328345 7.33203 0.733321V8.06653H7.33891C7.33652 8.26013 7.41132 8.44676 7.54689 8.58499L12.1302 13.1682C14.0211 15.0716 16.5949 16.1391 19.2778 16.1331H19.4776L17.6555 20.2354C17.4911 20.6055 17.6578 21.0388 18.0279 21.2032C18.0494 21.2128 18.0713 21.2213 18.0937 21.2287L20.2922 21.9621C20.6002 22.0646 20.9389 21.9526 21.1251 21.6867L25.0102 16.1331H38.7843C40.0404 16.1354 41.0606 15.119 41.063 13.8628C41.0641 13.2573 40.8237 12.6765 40.3952 12.2488ZM21.592 2.93328L24.342 7.33321H21.8378L20.7377 2.93328H21.592ZM8.79867 1.46664H11.1863L12.9462 7.33321H8.79867V1.46664ZM20.2371 20.3976L19.3237 20.0929L21.7338 14.6664H24.2464L20.2371 20.3976ZM39.5366 14.1637C39.4144 14.4712 39.115 14.6712 38.7843 14.6664H26.0362L26.2551 14.3535C26.4872 14.0216 26.4063 13.5642 26.0743 13.3321C25.9511 13.2461 25.8046 13.1998 25.6542 13.1998H21.2572C20.9672 13.1998 20.7045 13.3706 20.5869 13.6356L20.129 14.6664H19.2778C16.9841 14.6715 14.7837 13.7586 13.1671 12.1313L9.83559 8.79985H31.759C33.3578 8.80673 34.9132 9.32024 36.202 10.2665H30.7983V11.7331H37.8053L39.36 13.2879C39.5949 13.5149 39.6652 13.8634 39.5366 14.1637Z" fill="white"/>
<path d="M17.9761 41.992C17.5144 41.4962 16.8951 41.1756 16.2236 41.085L19.0238 33.2444C19.1598 32.8624 18.9605 32.4426 18.5785 32.3066C18.5741 32.305 18.5696 32.3034 18.5651 32.302L16.7769 31.7059L15.388 24.0668C15.3247 23.718 15.0209 23.4645 14.6665 23.4645H11.7332V21.2646C11.7332 20.8596 11.4049 20.5312 10.9999 20.5312H8.06661C7.66163 20.5312 7.33329 20.8596 7.33329 21.2646V23.4645H4.40001C4.04554 23.4645 3.74185 23.7181 3.67851 24.0668L2.2896 31.7059L0.501396 32.302C0.116861 32.4306 -0.0904859 32.8466 0.0381203 33.231C0.039587 33.2355 0.0411453 33.2399 0.0427036 33.2444L2.84289 41.0852C2.17254 41.1765 1.55435 41.4969 1.09328 41.992C0.827907 42.3262 0.426781 42.524 7.92852e-05 42.5309V43.9975C0.794724 43.9932 1.55142 43.657 2.08729 43.0701C2.35267 42.7357 2.75398 42.5378 3.18086 42.5309C3.33577 42.5296 3.4895 42.5583 3.63359 42.6153C3.63974 42.6181 3.64368 42.6239 3.64991 42.6265C3.8799 42.7411 4.08871 42.8939 4.26755 43.0784C4.80892 43.6602 5.56645 43.9928 6.36118 43.9975C7.15564 43.9931 7.91216 43.6567 8.44766 43.0698C8.90901 42.4672 9.77149 42.3526 10.3741 42.8139C10.4702 42.8874 10.5561 42.9733 10.6298 43.0694C11.1647 43.6565 11.9209 43.993 12.7151 43.9975C13.5094 43.9928 14.2664 43.66 14.8069 43.078C14.9842 42.8949 15.1911 42.7428 15.4189 42.6283C15.4255 42.6256 15.4297 42.6193 15.4361 42.6164C15.5806 42.5587 15.7349 42.5297 15.8904 42.531C16.3163 42.5378 16.7166 42.7357 16.9808 43.0699C17.516 43.6567 18.2722 43.993 19.0664 43.9976V42.531C18.6406 42.524 18.2403 42.3262 17.9761 41.992ZM8.79993 21.9979H10.2666V23.4645H8.79993V21.9979ZM8.79993 41.1598C8.28752 41.3183 7.82397 41.6047 7.45291 41.992C6.99037 42.5952 6.12634 42.7093 5.52309 42.2467C5.42739 42.1734 5.34177 42.0877 5.26835 41.992C5.04075 41.7696 4.78839 41.574 4.51624 41.4091L1.67581 33.4564L8.79993 31.0819V41.1598ZM9.30125 29.3687L3.87641 31.177L5.01196 24.9312H14.0545L15.1901 31.177L9.76526 29.3687C9.61465 29.3185 9.45186 29.3185 9.30125 29.3687ZM14.5488 41.4139C14.2799 41.578 14.0303 41.7721 13.805 41.9923C13.3446 42.5943 12.4833 42.709 11.8813 42.2486C11.785 42.1749 11.6988 42.0887 11.6251 41.9923C11.2519 41.6011 10.7839 41.3129 10.2667 41.1557V31.0819L17.3908 33.4564L14.5488 41.4139Z" fill="white"/>
<path d="M29.3331 10.2656H27.8672V11.7323H29.3331V10.2656Z" fill="white"/>
</g>
<defs>
<clipPath id="clip0_145_14">
<rect width="44" height="44" fill="white"/>
</clipPath>
</defs>
</svg>
