<?xml version="1.0" encoding="UTF-8"?>
<svg width="44" height="44" viewBox="0 0 44 44" fill="none" xmlns="http://www.w3.org/2000/svg">
<path d="M19.9373 28.1873H13.75V22.6873C13.75 22.3075 13.4423 21.9998 13.0625 21.9998H10.3125C9.93266 21.9998 9.625 22.3075 9.625 22.6873V30.25H7.5625V21.3127C7.5625 20.9329 7.25484 20.6252 6.875 20.6252H4.125C3.74516 20.6252 3.4375 20.9329 3.4375 21.3127V30.25H2.0625C1.68266 30.25 1.375 30.5577 1.375 30.9375V41.9375C1.375 42.3174 1.68266 42.625 2.0625 42.625H17.1875C17.5123 42.625 17.7925 42.3981 17.8612 42.0785L20.6112 29.0157C20.6542 28.8129 20.6026 28.6015 20.472 28.4417C20.3397 28.2801 20.1437 28.1873 19.9375 28.1873L19.9373 28.1873ZM12.3746 23.3746V28.5895L11.8056 29.1601L10.9996 29.9645V23.3746H12.3746ZM4.81184 21.9996H6.18684V30.2496H4.81184V21.9996ZM2.74934 41.2496V37.1246H17.4981L16.6302 41.2496H2.74934ZM17.7868 35.7496H2.74934V31.6246H10.9993C11.1815 31.6246 11.3568 31.5524 11.4858 31.4235L13.3472 29.5621H19.0914L17.7868 35.7496Z" fill="white"/>
<path d="M6.18555 33H7.56055V34.375H6.18555V33Z" fill="white"/>
<path d="M8.93555 33H10.3105V34.375H8.93555V33Z" fill="white"/>
<path d="M11.6855 33H13.0605V34.375H11.6855V33Z" fill="white"/>
<path d="M14.4355 33H15.8105V34.375H14.4355V33Z" fill="white"/>
<path d="M35.0627 24.75H30.9377C28.284 24.75 26.125 26.9087 26.125 29.5627V30.9377C26.125 31.3176 26.4327 31.6252 26.8125 31.6252H39.1875C39.5673 31.6252 39.875 31.3176 39.875 30.9377V29.5627C39.875 26.909 37.7163 24.75 35.0623 24.75H35.0627ZM38.5002 30.25H27.5002V29.5625C27.5002 27.6667 29.0419 26.125 30.9377 26.125H35.0627C36.9585 26.125 38.5002 27.6667 38.5002 29.5625V30.25Z" fill="white"/>
<path d="M28.1855 33C27.0477 33 26.123 33.9247 26.123 35.0625C26.123 36.2003 27.0477 37.125 28.1855 37.125C29.3233 37.125 30.248 36.2003 30.248 35.0625C30.248 33.9247 29.3233 33 28.1855 33ZM28.1855 35.75C27.8074 35.75 27.498 35.4423 27.498 35.0625C27.498 34.6827 27.8074 34.375 28.1855 34.375C28.5637 34.375 28.873 34.6827 28.873 35.0625C28.873 35.4423 28.5637 35.75 28.1855 35.75Z" fill="white"/>
<path d="M37.8125 33C36.6747 33 35.75 33.9247 35.75 35.0625C35.75 36.2003 36.6747 37.125 37.8125 37.125C38.9503 37.125 39.875 36.2003 39.875 35.0625C39.875 33.9247 38.9503 33 37.8125 33ZM37.8125 35.75C37.4344 35.75 37.125 35.4423 37.125 35.0625C37.125 34.6827 37.4344 34.375 37.8125 34.375C38.1906 34.375 38.5 34.6827 38.5 35.0625C38.5 35.4423 38.1906 35.75 37.8125 35.75Z" fill="white"/>
<path d="M31.625 35.75H34.375V37.125H31.625V35.75Z" fill="white"/>
<path d="M31.625 33H34.375V34.375H31.625V33Z" fill="white"/>
<path d="M41.9355 16.5H24.0605C23.6807 16.5 23.373 16.8077 23.373 17.1875V39.1875C23.373 39.5673 23.6807 39.875 24.0605 39.875H24.748V40.5625C24.748 41.7003 25.6728 42.625 26.8105 42.625C27.9483 42.625 28.873 41.7003 28.873 40.5625V39.875H37.123V40.5625C37.123 41.7003 38.0478 42.625 39.1855 42.625C40.3233 42.625 41.248 41.7003 41.248 40.5625V39.875H41.9355C42.3154 39.875 42.623 39.5673 42.623 39.1875V17.1875C42.623 16.8077 42.3154 16.5 41.9355 16.5ZM27.4983 40.5627C27.4983 40.9426 27.1889 41.2502 26.8108 41.2502C26.4326 41.2502 26.1233 40.9426 26.1233 40.5627V39.8752H27.4983V40.5627ZM39.8733 40.5627C39.8733 40.9426 39.5639 41.2502 39.1858 41.2502C38.8076 41.2502 38.4983 40.9426 38.4983 40.5627V39.8752H39.8733V40.5627ZM41.2483 38.5002H24.7483V29.5629C24.7483 26.1512 27.524 23.3757 30.9355 23.3757H35.0605C38.4723 23.3757 41.2478 26.1514 41.2478 29.5629L41.2483 38.5002ZM40.7739 24.6231C40.7086 24.5474 40.6433 24.477 40.5745 24.4048C40.4508 24.2724 40.3219 24.1453 40.1895 24.0215C40.1191 23.9562 40.0486 23.8909 39.9764 23.8273C39.8217 23.6949 39.6602 23.5695 39.4951 23.4492C39.4384 23.4079 39.3851 23.3632 39.3267 23.3237C39.1015 23.169 38.8678 23.0263 38.6254 22.8957C38.5704 22.8665 38.5137 22.8441 38.4587 22.8149C38.2679 22.7187 38.0737 22.6276 37.8726 22.5468C37.7832 22.5107 37.6939 22.4815 37.6045 22.4488C37.4292 22.3852 37.2504 22.3285 37.07 22.2787C36.972 22.2512 36.8758 22.2254 36.7761 22.2031C36.5853 22.1584 36.3928 22.124 36.1969 22.0948C36.1075 22.081 36.0198 22.0638 35.9287 22.0535C35.6451 22.0209 35.3547 22.0003 35.0607 22.0003H30.9357C30.6418 22.0003 30.3514 22.0209 30.066 22.0535C29.9749 22.0638 29.8873 22.081 29.7979 22.0948C29.602 22.124 29.4095 22.1601 29.2187 22.2031C29.119 22.2271 29.0228 22.2512 28.9248 22.2787C28.7426 22.3285 28.5656 22.3852 28.3903 22.4488C28.3009 22.4815 28.2098 22.5124 28.1222 22.5468C27.9228 22.6276 27.7268 22.7187 27.5361 22.8149C27.4811 22.8424 27.4244 22.8665 27.3694 22.8957C27.127 23.0263 26.8933 23.169 26.6681 23.3237C26.6096 23.3632 26.5564 23.4079 26.4996 23.4492C26.3346 23.5695 26.1731 23.6932 26.0184 23.8273C25.9462 23.8892 25.8757 23.9562 25.8052 24.0215C25.6729 24.1453 25.544 24.2724 25.4202 24.4048C25.3532 24.477 25.2862 24.5492 25.2209 24.6231C25.0971 24.7674 24.9785 24.917 24.8651 25.0699C24.8273 25.1215 24.7843 25.1662 24.7482 25.2177V17.875H41.2482V25.2191C41.2121 25.1675 41.1674 25.1211 41.1313 25.0712C41.0162 24.9166 40.8993 24.767 40.7738 24.6227L40.7739 24.6231Z" fill="white"/>
<path d="M32.312 14.4373C33.8279 14.4373 35.062 13.2032 35.062 11.6873C35.062 10.1714 33.8279 8.93729 32.312 8.93729H23.8556L21.2706 1.82689C21.1709 1.55533 20.9131 1.37488 20.6243 1.37488H17.8743C17.6715 1.37488 17.4773 1.46597 17.3467 1.62238C17.2161 1.77878 17.161 1.98503 17.1989 2.18611L18.4346 8.98015L6.60084 9.60235L5.42692 7.25455C5.31004 7.02252 5.07285 6.87471 4.81162 6.87471H2.06162C1.84162 6.87471 1.63365 6.98127 1.50476 7.16002C1.37586 7.33877 1.33976 7.5708 1.41023 7.77875L2.71131 11.6872L1.40851 15.5956C1.33804 15.8053 1.37414 16.0356 1.50304 16.2143C1.63367 16.3931 1.84163 16.4997 2.06162 16.4997H4.81162C5.07287 16.4997 5.31005 16.3518 5.42692 16.1198L6.60084 13.772L18.4329 14.3942L17.1971 21.1883C17.161 21.3894 17.2143 21.5956 17.3449 21.752C17.4773 21.9084 17.6715 21.9995 17.8743 21.9995H20.6243C20.913 21.9995 21.1708 21.819 21.2705 21.5475L23.8555 14.4371L32.312 14.4373ZM22.7283 13.5143L20.1433 20.6247H18.6978L19.925 13.8733C19.9594 13.6791 19.9113 13.4797 19.7875 13.3233C19.6638 13.1687 19.4816 13.0741 19.2857 13.0621L6.22294 12.3746C5.93763 12.3557 5.69358 12.5087 5.57152 12.7544L4.3873 15.1246H3.01573L4.08995 11.9037C4.13636 11.7627 4.13636 11.6097 4.08995 11.4688L3.01573 8.24959H4.3873L5.57324 10.6197C5.69526 10.8638 5.93933 11.0168 6.22466 10.9996L19.2874 10.3121C19.485 10.3018 19.6672 10.2072 19.7892 10.0508C19.9113 9.89615 19.9611 9.69505 19.9267 9.50083L18.6978 2.74947H20.1433L22.7283 9.85987C22.828 10.1314 23.0858 10.3119 23.3746 10.3119H32.3119C33.0698 10.3119 33.6869 10.9289 33.6869 11.6869C33.6869 12.4449 33.0698 13.0619 32.3119 13.0619H23.3746C23.0858 13.0619 22.828 13.2424 22.7283 13.5139V13.5143Z" fill="white"/>
</svg>
