<?xml version="1.0" encoding="UTF-8"?>
<svg width="44" height="44" viewBox="0 0 44 44" fill="none" xmlns="http://www.w3.org/2000/svg">
<g clip-path="url(#clip0_141_538)">
<path d="M42.6666 21.3548H40.3094L39.4906 19.7172C39.1458 19.0276 38.4527 18.5993 37.6818 18.5993H37.1112V18.555C37.1112 17.06 35.895 15.8438 34.4 15.8438H30.9555C30.2203 15.8438 29.6221 16.442 29.6221 17.1772V22.7326H28.1557V17.1772C28.1557 16.4419 27.5576 15.8438 26.8223 15.8438H1.33341C0.598125 15.8438 0 16.442 0 17.1772V24.066C0 24.8013 0.598125 25.3994 1.33341 25.3994H2.89369C2.80483 25.6269 2.7555 25.874 2.7555 26.1326C2.7555 27.2477 3.66274 28.1549 4.77778 28.1549C5.89282 28.1549 6.80006 27.2477 6.80006 26.1326C6.80006 25.874 6.75073 25.6269 6.66187 25.3994H7.71581C7.62695 25.6269 7.57763 25.874 7.57763 26.1326C7.57763 27.2477 8.48487 28.1549 9.59991 28.1549C10.7149 28.1549 11.6222 27.2477 11.6222 26.1326C11.6222 25.874 11.5729 25.6269 11.484 25.3994H18.5553C18.9112 25.3994 19.1998 25.1108 19.1998 24.7549C19.1998 24.3989 18.9112 24.1103 18.5553 24.1103H1.33341C1.30891 24.1103 1.28906 24.0905 1.28906 24.066V17.1772C1.28906 17.1527 1.30891 17.1328 1.33341 17.1328H26.8222C26.8467 17.1328 26.8666 17.1527 26.8666 17.1772V24.1103H22.6892H22.6891C22.6891 24.1103 22.689 24.1103 22.689 24.1103C21.5738 24.1103 20.6667 25.0176 20.6667 26.1326C20.6667 27.2477 21.5739 28.1549 22.689 28.1549C23.804 28.1549 24.7112 27.2477 24.7112 26.1326C24.7112 25.874 24.6619 25.6269 24.5731 25.3994H25.627C25.5381 25.6269 25.4888 25.874 25.4888 26.1326C25.4888 27.2477 26.396 28.1549 27.5111 28.1549C28.4009 28.1549 29.1576 27.5771 29.4275 26.7771H35.7778C36.1337 26.7771 36.4223 26.4886 36.4223 26.1326C36.4223 25.7767 36.1337 25.4881 35.7778 25.4881H34.3557V23.3771V19.8883H35.8221V21.3104C35.8221 22.0457 36.4202 22.6438 37.1555 22.6438H42.6666C42.6911 22.6438 42.7109 22.6637 42.7109 22.6882V25.4437C42.7109 25.4681 42.6911 25.488 42.6666 25.488H41.8274C41.5577 24.6881 40.8008 24.1102 39.911 24.1102C38.7959 24.1102 37.8887 25.0175 37.8887 26.1325C37.8887 27.2477 38.796 28.1548 39.911 28.1548C40.8008 28.1548 41.5576 27.577 41.8274 26.7771H42.6666C43.4019 26.7771 44 26.1789 44 25.4437V22.6882C44 21.953 43.4019 21.3548 42.6666 21.3548V21.3548ZM5.51109 26.1327C5.51109 26.537 5.18212 26.8659 4.77787 26.8659C4.37362 26.8659 4.04465 26.537 4.04465 26.1327C4.04465 25.7284 4.37362 25.3995 4.77787 25.3995C5.18212 25.3995 5.51109 25.7284 5.51109 26.1327ZM10.3333 26.1327C10.3333 26.537 10.0043 26.8659 9.60008 26.8659C9.19583 26.8659 8.86686 26.537 8.86686 26.1327C8.86686 25.7284 9.19583 25.3995 9.60008 25.3995C10.0043 25.3995 10.3333 25.7284 10.3333 26.1327ZM22.6889 26.8659C22.2845 26.8659 21.9557 26.537 21.9557 26.1327C21.9557 25.7284 22.2846 25.3995 22.6889 25.3995C23.0931 25.3995 23.4221 25.7285 23.4221 26.1327C23.4221 26.537 23.0932 26.8659 22.6889 26.8659ZM27.5111 26.8659C27.1067 26.8659 26.7779 26.537 26.7779 26.1327C26.7779 25.7284 27.1068 25.3995 27.5111 25.3995C27.9153 25.3995 28.2443 25.7285 28.2443 26.1327C28.2443 26.537 27.9153 26.8659 27.5111 26.8659ZM29.4274 25.4882C29.226 24.8908 28.7529 24.4178 28.1555 24.2163V24.0216H33.0665V25.4881H29.4274V25.4882ZM33.0665 22.7326H30.9111V19.8883H33.0665V22.7326ZM30.9111 18.5993V17.1772C30.9111 17.1527 30.931 17.1329 30.9555 17.1329H34.3999C35.1841 17.1329 35.822 17.7709 35.822 18.5551V18.5994H30.9111V18.5993ZM37.1112 21.3105V19.8884H37.6818C37.9613 19.8884 38.2126 20.0437 38.3377 20.2937L38.8682 21.3548H37.1556C37.131 21.3548 37.1112 21.335 37.1112 21.3105V21.3105ZM39.911 26.8659C39.5067 26.8659 39.1778 26.537 39.1778 26.1327C39.1778 25.7284 39.5068 25.3995 39.911 25.3995C40.3153 25.3995 40.6442 25.7285 40.6442 26.1327C40.6443 26.537 40.3153 26.8659 39.911 26.8659Z" fill="white"/>
</g>
<defs>
<clipPath id="clip0_141_538">
<rect width="44" height="44" fill="white"/>
</clipPath>
</defs>
</svg>
