<?xml version="1.0" encoding="UTF-8"?>
<svg width="67" height="66" viewBox="0 0 67 66" fill="none" xmlns="http://www.w3.org/2000/svg">
<path d="M0 49.5C0 22.1619 22.1619 0 49.5 0H50.25C59.5008 0 67 7.49923 67 16.75V36C67 52.5685 53.5685 66 37 66H16.5C7.3873 66 0 58.6127 0 49.5V49.5Z" fill="#C0D0FF"/>
<path fill-rule="evenodd" clip-rule="evenodd" d="M55.0721 31.1508C54.6052 31.1564 54.116 31.2654 53.6268 31.5002L45.184 35.5567C44.7843 34.6313 43.8226 33.9939 42.7379 34.0247H42.7351L37.8848 34.1729C36.6966 34.1729 35.7992 33.8877 34.667 33.5606C33.5293 33.2307 32.1789 32.8757 30.3087 32.8757C28.7684 32.8757 26.694 33.3398 25.0027 33.9129V32.8561C25.0027 32.7387 24.9803 32.6213 24.9328 32.5122C24.8881 32.4032 24.821 32.3026 24.7371 32.2187C24.6532 32.1348 24.5526 32.0677 24.4436 32.023C24.3345 31.9783 24.2171 31.9531 24.0997 31.9531H19.213C19.0956 31.9531 18.9782 31.9755 18.8692 32.023C18.7602 32.0677 18.6595 32.1348 18.5756 32.2187C18.4918 32.3026 18.4247 32.4032 18.3799 32.5122C18.3352 32.6213 18.3101 32.7387 18.3101 32.8561V46.2635C18.3101 46.3809 18.3324 46.4983 18.3799 46.6073C18.4247 46.7164 18.4918 46.817 18.5756 46.9009C18.6595 46.9847 18.7601 47.0518 18.8692 47.0966C18.9782 47.1413 19.0956 47.1665 19.213 47.1665H24.0997C24.2171 47.1665 24.3345 47.1441 24.4436 47.0966C24.5526 47.0518 24.6532 46.9847 24.7371 46.9009C24.821 46.817 24.8881 46.7164 24.9328 46.6073C24.9775 46.4983 25.0027 46.3809 25.0027 46.2635V45.1089C30.9378 44.0577 34.466 45.8469 39.8135 45.8469H39.8163C40.9206 45.8469 42.0808 45.3045 43.5316 44.5525C44.9825 43.8005 46.6404 42.7885 48.3205 41.7066C51.678 39.54 55.1166 37.0715 56.9057 35.8582C57.5207 35.4444 57.8869 34.7903 57.9624 34.1445C58.0379 33.4959 57.8562 32.8613 57.4956 32.3386C57.0007 31.6173 56.095 31.1365 55.0718 31.1477L55.0721 31.1508ZM55.1951 32.9064C55.6005 32.9008 55.8437 33.1161 56.0114 33.3649C56.14 33.5522 56.1931 33.773 56.1736 33.9436C56.154 34.1113 56.1009 34.2343 55.8968 34.3713C54.0545 35.6181 50.6467 38.0643 47.3424 40.1973C45.6902 41.2652 44.066 42.252 42.7017 42.9593C41.3375 43.6666 40.1549 44.0496 39.8138 44.0496C34.9747 44.0496 31.195 42.266 25.0059 43.2836V42.5065C25.0087 42.3863 24.9863 42.2688 24.9416 42.157C24.8968 42.048 24.8297 41.9445 24.7459 41.8607C24.662 41.7768 24.5614 41.7069 24.4523 41.6622C24.3433 41.6175 24.2231 41.5923 24.1057 41.5923C23.9855 41.5923 23.868 41.6175 23.759 41.6622C23.65 41.7069 23.5493 41.7768 23.4655 41.8607C23.3816 41.9446 23.3145 42.048 23.2698 42.157C23.2251 42.266 23.2027 42.3863 23.2055 42.5065V45.3636H22.7554V33.7561H23.2055V36.6104C23.2027 36.7306 23.2251 36.848 23.2698 36.9599C23.3145 37.0689 23.3816 37.1723 23.4655 37.2562C23.5493 37.3401 23.65 37.4099 23.759 37.4547C23.868 37.4994 23.9883 37.5246 24.1057 37.5246C24.2259 37.5246 24.3433 37.4994 24.4523 37.4547C24.5614 37.4099 24.662 37.3401 24.7459 37.2562C24.8297 37.1723 24.8968 37.0689 24.9416 36.9599C24.9863 36.8508 25.0087 36.7306 25.0059 36.6104V35.8276C26.5966 35.2405 29.0343 34.6758 30.3119 34.6758C31.9585 34.6758 33.0599 34.9693 34.1698 35.2908C35.2769 35.6123 36.4147 35.9758 37.8991 35.9758H37.9271L42.7942 35.8276C43.2499 35.8136 43.5854 36.1743 43.5854 36.5097C43.5854 36.8508 43.2695 37.1695 42.7355 37.1918H42.7327L33.4762 37.5888C33.356 37.5944 33.2386 37.6196 33.1296 37.6699C33.0205 37.7202 32.9227 37.7901 32.8416 37.8768C32.7606 37.9634 32.6963 38.0669 32.6543 38.1787C32.6124 38.2905 32.5956 38.4107 32.5984 38.5281C32.604 38.6483 32.632 38.7658 32.6823 38.872C32.7326 38.981 32.8053 39.0761 32.8947 39.1571C32.9842 39.2382 33.0876 39.2997 33.1995 39.3389C33.3113 39.378 33.4315 39.3948 33.5517 39.3892L42.8053 38.9922H42.8081C43.7782 38.9531 44.6868 38.4135 45.1201 37.5916L54.4124 33.1271C54.7283 32.9761 54.9855 32.9118 55.198 32.909L55.1951 32.9064ZM20.1215 33.7591H20.9518V45.3637H20.1215V33.7591Z" fill="#0F2851"/>
<path fill-rule="evenodd" clip-rule="evenodd" d="M40.5441 24.5585C40.4267 24.5613 40.3093 24.5864 40.2003 24.6311C40.0912 24.6787 39.9934 24.7458 39.9095 24.8296C39.8285 24.9135 39.7614 25.0141 39.7194 25.126C39.6747 25.235 39.6551 25.3524 39.6551 25.4726V27.6224H37.5053C37.3851 27.6196 37.2677 27.642 37.1559 27.6867C37.0441 27.7315 36.9434 27.7985 36.8568 27.8796C36.7729 27.9635 36.703 28.0641 36.6583 28.1732C36.6107 28.2822 36.5884 28.4024 36.5884 28.5226C36.5884 28.6428 36.6135 28.7602 36.6583 28.8721C36.7058 28.9811 36.7729 29.0817 36.8568 29.1656C36.9406 29.2495 37.0441 29.3166 37.1559 29.3585C37.2677 29.4032 37.3851 29.4256 37.5053 29.4228H39.6551V31.5726C39.6523 31.6928 39.6747 31.8102 39.7194 31.922C39.7642 32.0311 39.8313 32.1345 39.9151 32.2184C39.999 32.3022 40.0996 32.3721 40.2087 32.4168C40.3177 32.4616 40.4379 32.4867 40.5553 32.4867C40.6755 32.4867 40.7929 32.4616 40.902 32.4168C41.011 32.3721 41.1116 32.3022 41.1955 32.2184C41.2794 32.1345 41.3465 32.0311 41.3912 31.922C41.4359 31.813 41.4583 31.6928 41.4555 31.5726V29.4228H43.6053C43.7255 29.4256 43.8429 29.4032 43.9548 29.3585C44.0666 29.3138 44.1672 29.2467 44.2539 29.1656C44.3378 29.0817 44.4076 28.9811 44.4524 28.8721C44.4999 28.763 44.5223 28.6428 44.5223 28.5226C44.5223 28.4024 44.4971 28.285 44.4524 28.1732C44.4048 28.0641 44.3378 27.9635 44.2539 27.8796C44.17 27.7957 44.0666 27.7287 43.9548 27.6867C43.8429 27.642 43.7255 27.6196 43.6053 27.6224H41.4555V25.4726C41.4583 25.3524 41.4359 25.2322 41.3884 25.1204C41.3437 25.0085 41.2766 24.9079 41.1899 24.8212C41.1061 24.7374 41.0026 24.6675 40.8908 24.6228C40.779 24.578 40.6588 24.5557 40.5386 24.5557L40.5441 24.5585Z" fill="#0F2851"/>
<path fill-rule="evenodd" clip-rule="evenodd" d="M44.2307 18.9227C44.1133 18.9255 43.9959 18.9507 43.8868 18.9954C43.7778 19.0429 43.68 19.11 43.5961 19.1939C43.515 19.2778 43.4479 19.3784 43.406 19.4902C43.3613 19.5992 43.3417 19.7167 43.3417 19.8369V20.6979H42.4807C42.3605 20.6951 42.243 20.7175 42.1312 20.7622C42.0194 20.8069 41.9188 20.874 41.8321 20.9551C41.7482 21.039 41.6783 21.1396 41.6336 21.2486C41.5861 21.3577 41.5637 21.4779 41.5637 21.5981C41.5637 21.7183 41.5889 21.8357 41.6336 21.9475C41.6811 22.0566 41.7482 22.1572 41.8321 22.2411C41.916 22.3249 42.0194 22.392 42.1312 22.434C42.243 22.4787 42.3605 22.5011 42.4807 22.4983H43.3417V23.3537C43.3389 23.4739 43.3613 23.5913 43.406 23.7031C43.4507 23.8122 43.5178 23.9156 43.6017 23.9995C43.6856 24.0833 43.7862 24.1532 43.8952 24.198C44.0043 24.2427 44.1245 24.2679 44.2419 24.2679C44.3621 24.2679 44.4795 24.2427 44.5885 24.198C44.6976 24.1532 44.7982 24.0833 44.8821 23.9995C44.9659 23.9156 45.033 23.8122 45.0778 23.7031C45.1225 23.5941 45.1449 23.4739 45.1421 23.3537V22.4983H45.9975C46.1177 22.5011 46.2351 22.4787 46.347 22.434C46.4588 22.3892 46.5594 22.3221 46.6461 22.2411C46.73 22.1572 46.7998 22.0566 46.8446 21.9475C46.8921 21.8385 46.9145 21.7183 46.9145 21.5981C46.9145 21.4779 46.8893 21.3605 46.8446 21.2486C46.797 21.1396 46.73 21.039 46.6461 20.9551C46.5622 20.8712 46.4588 20.8041 46.347 20.7622C46.2351 20.7175 46.1177 20.6951 45.9975 20.6979H45.1421V19.8369C45.1449 19.7167 45.1225 19.5965 45.075 19.4846C45.0302 19.3728 44.9632 19.2722 44.8765 19.1855C44.7926 19.1016 44.6892 19.0317 44.5774 18.987C44.4655 18.9423 44.3453 18.9199 44.2251 18.9199L44.2307 18.9227Z" fill="#0F2851"/>
<path fill-rule="evenodd" clip-rule="evenodd" d="M36.8555 18.9227C36.738 18.9255 36.6206 18.9507 36.5116 18.9954C36.4026 19.0429 36.3047 19.11 36.2209 19.1939C36.1398 19.2778 36.0727 19.3784 36.0307 19.4902C35.986 19.5992 35.9664 19.7167 35.9664 19.8369V20.6979H35.1054C34.9852 20.6951 34.8678 20.7175 34.756 20.7622C34.6442 20.8069 34.5435 20.874 34.4569 20.9551C34.373 21.039 34.3031 21.1396 34.2584 21.2486C34.2108 21.3577 34.1885 21.4779 34.1885 21.5981C34.1885 21.7183 34.2136 21.8357 34.2584 21.9475C34.3059 22.0566 34.373 22.1572 34.4569 22.2411C34.5407 22.3249 34.6442 22.392 34.756 22.434C34.8678 22.4787 34.9852 22.5011 35.1054 22.4983H35.9664V23.3537C35.9637 23.4739 35.986 23.5913 36.0307 23.7031C36.0755 23.8122 36.1426 23.9156 36.2264 23.9995C36.3103 24.0833 36.4109 24.1532 36.52 24.198C36.629 24.2427 36.7492 24.2679 36.8666 24.2679C36.9868 24.2679 37.1043 24.2427 37.2133 24.198C37.3223 24.1532 37.423 24.0833 37.5068 23.9995C37.5907 23.9156 37.6578 23.8122 37.7025 23.7031C37.7473 23.5941 37.7696 23.4739 37.7668 23.3537V22.4983H38.6223C38.7425 22.5011 38.8599 22.4787 38.9717 22.434C39.0835 22.3892 39.1842 22.3221 39.2708 22.2411C39.3547 22.1572 39.4246 22.0566 39.4693 21.9475C39.5169 21.8385 39.5392 21.7183 39.5392 21.5981C39.5392 21.4779 39.5141 21.3605 39.4693 21.2486C39.4218 21.1396 39.3547 21.039 39.2708 20.9551C39.187 20.8712 39.0835 20.8041 38.9717 20.7622C38.8599 20.7175 38.7425 20.6951 38.6223 20.6979H37.7668V19.8369C37.7696 19.7167 37.7473 19.5965 37.6997 19.4846C37.655 19.3728 37.5879 19.2722 37.5012 19.1855C37.4174 19.1016 37.3139 19.0317 37.2021 18.987C37.0903 18.9423 36.9701 18.9199 36.8499 18.9199L36.8555 18.9227Z" fill="#0F2851"/>
</svg>
