<?xml version="1.0" encoding="UTF-8"?>
<svg width="62" height="62" viewBox="0 0 62 62" fill="none" xmlns="http://www.w3.org/2000/svg">
<path d="M0 46.5C0 20.8188 20.8188 0 46.5 0V0C55.0604 0 62 6.93959 62 15.5V32C62 48.5685 48.5685 62 32 62H15.5C6.93959 62 0 55.0604 0 46.5V46.5Z" fill="#C0D0FF"/>
<path d="M45.8749 41.2521V17.3425C46.1808 17.1724 46.4593 16.9627 46.6758 16.6945C47.1846 16.0603 47.3633 15.2456 47.1777 14.4017L46.1671 9.80593C45.7975 8.11985 44.0135 6.75 42.1916 6.75H13.8098C11.9879 6.75 10.2039 8.11985 9.83431 9.80422L8.82196 14.4C8.63634 15.2457 8.81509 16.0603 9.32382 16.6928C9.54039 16.9627 9.81882 17.1723 10.1248 17.3425V34.2464V34.2499V34.2533V41.252C9.32726 41.5356 8.74976 42.2918 8.74976 43.1873C8.74976 44.3251 9.67446 45.2498 10.8123 45.2498H45.1855C46.3233 45.2498 47.248 44.3251 47.248 43.1873C47.248 42.2918 46.6722 41.5373 45.8747 41.252L45.8749 41.2521ZM11.4999 34.9372H44.4981V41.1245H11.4999V34.9372ZM27.9999 28.0622C26.1041 28.0622 24.5624 26.5205 24.5624 24.6247C24.5624 22.729 26.1041 21.1872 27.9999 21.1872C29.8957 21.1872 31.4374 22.729 31.4374 24.6247C31.4374 26.5205 29.894 28.0622 27.9999 28.0622ZM29.3749 29.4372C31.2707 29.4372 32.8124 30.979 32.8124 32.8747V33.5622H23.1874V32.8747C23.1874 30.979 24.7291 29.4372 26.6249 29.4372H29.3749ZM10.1645 14.6955L11.1768 10.0997C11.4123 9.02889 12.6189 8.12482 13.81 8.12482H42.1917C43.3828 8.12482 44.5877 9.02889 44.8249 10.0997L45.8355 14.6955C45.9318 15.132 45.851 15.5239 45.6035 15.8316C45.3233 16.1822 44.8644 16.3747 44.3093 16.3747H11.6907C11.1356 16.3747 10.6767 16.1822 10.3948 15.8316C10.149 15.5256 10.0682 15.132 10.1645 14.6955H10.1645ZM11.6908 17.7497H44.3093C44.3746 17.7497 44.4348 17.7342 44.4984 17.7308V33.562H34.1856V32.8745C34.1856 30.8017 32.8656 29.0365 31.0248 28.361C32.1128 27.4775 32.8106 26.1318 32.8106 24.6244C32.8106 21.9707 30.6501 19.8117 27.9979 19.8117C25.3457 19.8117 23.1852 21.9704 23.1852 24.6244C23.1852 26.13 23.883 27.4775 24.971 28.361C23.1302 29.0365 21.8119 30.8033 21.8119 32.8745V33.562H11.4992V17.7308C11.5645 17.7342 11.6247 17.7497 11.69 17.7497H11.6908ZM45.1858 43.8747H10.8125C10.4327 43.8747 10.125 43.5671 10.125 43.1872C10.125 42.8074 10.4327 42.4997 10.8125 42.4997H45.1858C45.5656 42.4997 45.8733 42.8074 45.8733 43.1872C45.875 43.5671 45.5656 43.8747 45.1858 43.8747ZM34.1858 38.3747C34.1858 38.7545 33.8798 39.0622 33.4983 39.0622H22.4983C22.1184 39.0622 21.8125 38.7545 21.8125 38.3747C21.8125 37.9949 22.1184 37.6872 22.5 37.6872H33.5C33.8798 37.6872 34.1858 37.9949 34.1858 38.3747Z" fill="#0F2851"/>
</svg>
