<?xml version="1.0" encoding="UTF-8"?>
<svg width="44" height="44" viewBox="0 0 44 44" fill="none" xmlns="http://www.w3.org/2000/svg">
<path d="M40.3022 11.2004L22.4007 3.0991C22.1081 2.96666 21.7726 2.96703 21.4804 3.09984L3.65322 11.2011C3.25537 11.3819 3 11.7785 3 12.2155V39.917C3 40.5324 3.49886 41.0312 4.1142 41.0312H39.8428C40.4582 41.0312 40.957 40.5324 40.957 39.917V12.2155C40.957 11.7779 40.7008 11.3807 40.3022 11.2004V11.2004ZM28.9979 34.346C29.6132 34.346 30.1121 33.8472 30.1121 33.2319V32.1177H32.3405V38.8028H25.6553V32.1177H27.8837V33.2319C27.8837 33.8473 28.3826 34.346 28.9979 34.346ZM32.3405 29.8893H24.5411C23.9258 29.8893 23.4269 30.3881 23.4269 31.0035V38.8028H20.4557C20.4557 37.0336 20.4557 23.7025 20.4557 22.0899C20.4557 21.4745 19.9568 20.9757 19.3415 20.9757H11.5421V18.7473H32.3405V29.8893ZM11.5421 29.8893V23.2041H13.7705V24.3183C13.7705 24.9336 14.2694 25.4325 14.8847 25.4325C15.5 25.4325 15.9989 24.9336 15.9989 24.3183V23.2041H18.2273V29.8893H11.5421ZM11.5421 32.1177H13.7705V33.2319C13.7705 33.8472 14.2694 34.346 14.8847 34.346C15.5 34.346 15.9989 33.8472 15.9989 33.2319V32.1177H18.2273V38.8028H11.5421V32.1177ZM38.7286 38.8028H34.5689V17.6331C34.5689 17.0177 34.07 16.5189 33.4547 16.5189H10.4279C9.81258 16.5189 9.31372 17.0177 9.31372 17.6331V38.8028H5.22832V12.933L21.9423 5.3376L38.7286 12.9343V38.8028Z" fill="white"/>
<path d="M17.4844 11.6923C17.4844 12.3077 17.9832 12.8065 18.5986 12.8065H25.2838C25.8991 12.8065 26.398 12.3077 26.398 11.6923C26.398 11.077 25.8991 10.5781 25.2838 10.5781H18.5986C17.9832 10.5781 17.4844 11.077 17.4844 11.6923Z" fill="white"/>
</svg>
