<?xml version="1.0" encoding="UTF-8"?>
<svg width="67" height="66" viewBox="0 0 67 66" fill="none" xmlns="http://www.w3.org/2000/svg">
<path d="M0 49.5C0 22.1619 22.1619 0 49.5 0H50.25C59.5008 0 67 7.49923 67 16.75V36C67 52.5685 53.5685 66 37 66H16.5C7.3873 66 0 58.6127 0 49.5V49.5Z" fill="#C0D0FF"/>
<path d="M55.5552 51.6552H20.4445C19.8378 51.6552 19.3359 51.1619 19.3359 50.5466L19.3342 32.9998C19.3342 22.7131 27.703 14.3447 37.9894 14.3447C48.2761 14.3447 56.6445 22.7135 56.6445 32.9998V50.5466C56.6548 51.1636 56.1632 51.6552 55.5548 51.6552H55.5552ZM21.5533 49.4466H54.4486L54.4469 32.9998C54.4469 23.9266 47.0716 16.5531 38.0001 16.5531C28.9353 16.5531 21.5534 23.9284 21.5534 32.9998L21.5533 49.4466Z" fill="#0F2851"/>
<path d="M48.3659 51.6551H27.6345C27.0277 51.6551 26.5259 51.1618 26.5259 50.5465V29.8234C26.5259 29.2167 27.0192 28.7148 27.6345 28.7148H48.3593C48.9661 28.7148 49.4679 29.2081 49.4679 29.8234V50.5483C49.4662 51.1636 48.9746 51.6552 48.3662 51.6552L48.3659 51.6551ZM28.7428 49.4465H47.2571V30.9322H28.7428V49.4465Z" fill="#0F2851"/>
<path d="M48.3659 46.4731H27.6345C27.0277 46.4731 26.5259 45.9798 26.5259 45.3645V40.1808C26.5259 39.5741 27.0192 39.0723 27.6345 39.0723H48.3593C48.9661 39.0723 49.4679 39.5656 49.4679 40.1808V45.3645C49.4662 45.9798 48.9746 46.4731 48.3662 46.4731H48.3659ZM28.7428 44.2645H47.2571V41.2893H28.7428V44.2645Z" fill="#0F2851"/>
<path d="M48.3659 51.6557H27.6345C27.0277 51.6557 26.5259 51.1624 26.5259 50.5471V45.3635C26.5259 44.7567 27.0192 44.2549 27.6345 44.2549H48.3593C48.9661 44.2549 49.4679 44.7482 49.4679 45.3635V50.5471C49.4662 51.1641 48.9746 51.6557 48.3662 51.6557H48.3659ZM28.7428 49.4471H47.2571V46.472L28.7428 46.4737V49.4471Z" fill="#0F2851"/>
<path d="M48.3659 36.1147H27.6345C27.0277 36.1147 26.5259 35.6214 26.5259 35.0061V29.8224C26.5259 29.2157 27.0192 28.7139 27.6345 28.7139H48.3593C48.9661 28.7139 49.4679 29.2072 49.4679 29.8224V35.0061C49.4662 35.6145 48.9746 36.1147 48.3662 36.1147H48.3659ZM28.7428 33.8975H47.2571V30.9223L28.7428 30.924V33.8975Z" fill="#0F2851"/>
</svg>
