<svg id="Layer_1" enable-background="new 0 0 66 66" height="512" viewBox="0 0 66 66" width="512" xmlns="http://www.w3.org/2000/svg"><g><path d="m6.7 41.25c-.02 0-.04 0-.06 0-.48 0-.94.18-1.29.51-.37.34-.58.81-.59 1.32-.02.5.16.98.51 1.34.34.37.81.58 1.32.59.5.01.98-.16 1.35-.51.37-.34.58-.81.59-1.31.03-1.04-.79-1.91-1.83-1.94z"/><path d="m8.87 4.94c-.82-.82-1.91-1.27-3.07-1.27-2.4 0-4.35 1.95-4.35 4.35v5.2c0 .45.37.82.82.82h7.87v-6.02c0-1.16-.45-2.25-1.27-3.08z"/><path d="m20.41 18.49h25.36c.22 0 .4-.18.4-.4v-8.02c0-.22-.18-.4-.4-.4h-25.36c-.22 0-.4.18-.4.4v8.02c0 .22.18.4.4.4z"/><path d="m43.7 36.4c-.01.52-.22 1.02-.59 1.38-.38.37-.87.54-1.4.56l-1.21-.02c-1.08-.01-1.95-.91-1.94-1.99l-1.24-.06-.07 2.98 7.7.1.05-3.8-1.24-.06z"/><path d="m22.62 58.94c-.2 1.3-.8 2.47-1.68 3.38h39.82c2.07 0 3.8-1.45 4.24-3.38z"/><path d="m21.73 57.02h32.76v-49c0-1.16-.45-2.25-1.28-3.08-.82-.82-1.91-1.27-3.07-1.27h-39.82c1.13 1.18 1.75 2.72 1.75 4.35v24.7c3.45.74 6.26 3.12 7.62 6.27l5.34.12 10.27.13.04-2.94c.01-.52.22-1.02.59-1.38.38-.37.84-.57 1.4-.56l1.21.02c.53.01 1.02.22 1.38.59.37.38.56.87.56 1.4l1.25.05.05-.9c.01-.52.22-1.02.59-1.38.38-.37.88-.57 1.4-.56l1.21.02c.53.01 1.02.22 1.38.59.37.38.56.87.56 1.4l-.05 3.94c1.76.46 3.07 2.02 3.13 3.9.01.03.02.13.01.24-.03 2.28-1.91 4.13-4.21 4.13-.02 0-.04 0-.06 0l-26.01-.4c-1.35 3.2-4.21 5.6-7.66 6.34v4.24c0 1.16.45 2.25 1.28 3.06.82.83 1.91 1.28 3.07 1.28 2.4 0 4.35-1.95 4.35-4.35-.01-.52.42-.95.96-.95zm-3.65-46.95c0-1.29 1.05-2.33 2.33-2.33h25.36c1.29 0 2.33 1.05 2.33 2.33v8.02c0 1.28-1.05 2.33-2.33 2.33h-25.36c-1.29 0-2.33-1.05-2.33-2.33zm12.55 25.11h-9.33c-.53 0-.96-.43-.96-.96s.43-.96.96-.96h9.33c.53 0 .96.43.96.96s-.43.96-.96.96zm17.03-4.87h-30.86c-.53 0-.96-.43-.96-.96s.43-.96.96-.96h30.86c.53 0 .96.43.96.96s-.43.96-.96.96zm0-4.87h-30.86c-.53 0-.96-.43-.96-.96s.43-.96.96-.96h30.86c.53 0 .96.43.96.96s-.43.96-.96.96z"/><path d="m18.65 43.51c.15-4.87-3.68-8.95-8.55-9.11-2.38-.08-4.6.77-6.32 2.39-1.72 1.61-2.71 3.8-2.78 6.16-.15 4.86 3.68 8.94 8.54 9.1 4.88.15 8.95-3.68 9.11-8.54zm-9.4 2.39c-.71.67-1.63 1.03-2.6 1.03-.04 0-.08 0-.13 0-1.02-.03-1.96-.46-2.66-1.2s-1.06-1.71-1.03-2.72c.03-1.02.46-1.96 1.2-2.66s1.71-1.06 2.73-1.03 1.96.46 2.66 1.2 1.06 1.71 1.03 2.73-.46 1.96-1.2 2.65z"/><path d="m20.32 40.93c.19.85.29 1.74.26 2.65-.02.65-.11 1.29-.24 1.9l25.44.38h.03c1.24 0 2.26-1 2.28-2.25 0-.03-.01-.1-.01-.12-.04-1.19-1-2.14-2.18-2.18h-.01-.01l-9.61-.12h-.01l-11.26-.16z"/></g></svg>