<svg id="Layer_1_1_" enable-background="new 0 0 64 64" height="512" viewBox="0 0 64 64" width="512" xmlns="http://www.w3.org/2000/svg"><path d="m50.654 3.023c-.378.035-.702.281-.84.634-.137.353-.062.754.192 1.034l1.851 2.034c-5.671 4.353-11.812 8.036-18.27 10.954-.475.214-.705.757-.529 1.247l2 5.605c.094.264.294.476.553.585.124.052.257.079.389.079.142 0 .284-.03.416-.091 7.324-3.35 14.225-7.65 20.525-12.79l2.092 2.301c.258.283.654.394 1.021.287s.641-.415.705-.792l1.873-10.944c.053-.306-.04-.62-.252-.848s-.514-.344-.826-.316zm8.48 8.731-1.354-1.489c-.362-.396-.97-.438-1.38-.096-6.08 5.061-12.745 9.316-19.827 12.657l-1.323-3.709c6.619-3.071 12.903-6.93 18.692-11.479.218-.171.355-.426.378-.703s-.069-.551-.256-.756l-1.229-1.352 7.605-.71z"/><path d="m32 30c.553 0 1-.448 1-1v-4c0-.552-.447-1-1-1l-1.474-.026c-.172-.538-.391-1.065-.676-1.582l1.049-1.049c.391-.391.391-1.023 0-1.414l-2.828-2.829c-.391-.391-1.023-.39-1.414 0l-1.062 1.026c-.504-.262-1.033-.481-1.596-.644v-1.482c0-.552-.447-1-1-1h-4c-.553 0-1 .448-1 1l-.024 1.474c-.538.171-1.067.39-1.583.675l-1.05-1.049c-.391-.39-1.023-.39-1.414 0l-2.828 2.829c-.391.391-.391 1.023 0 1.414l1.025 1.062c-.262.503-.48 1.031-.644 1.595h-1.481c-.553 0-1 .448-1 1v4c0 .552.447 1 1 1l1.474.026c.172.538.391 1.065.676 1.582l-1.049 1.049c-.391.391-.391 1.023 0 1.414l2.828 2.829c.391.391 1.023.39 1.414 0l1.062-1.026c.504.262 1.033.481 1.596.644v1.482c0 .552.447 1 1 1h4c.553 0 1-.448 1-1l.024-1.474c.538-.171 1.067-.39 1.583-.675l1.05 1.049c.391.39 1.023.39 1.414 0l2.828-2.829c.391-.391.391-1.023 0-1.414l-1.025-1.062c.262-.503.48-1.031.644-1.595zm-3.38-.582c-.137.43-.312.852-.521 1.254-.411.792-.275 1.737.338 2.349l.342.342-1.414 1.415-.342-.341c-.612-.614-1.558-.75-2.349-.338-.402.209-.825.384-1.255.521-.849.27-1.419 1.032-1.419 1.898v.482h-2v-.482c0-.865-.57-1.628-1.419-1.898-.43-.136-.853-.312-1.255-.521-.79-.412-1.735-.277-2.348.337l-.343.342-1.414-1.415.342-.341c.613-.613.749-1.557.338-2.349-.209-.403-.385-.826-.521-1.254-.27-.849-1.032-1.419-1.898-1.419h-.482v-2h.482c.865 0 1.628-.57 1.897-1.418.137-.43.312-.852.521-1.254.411-.792.275-1.737-.338-2.349l-.342-.342 1.414-1.415.342.341c.612.614 1.558.75 2.349.338.402-.209.825-.384 1.255-.521.85-.27 1.42-1.032 1.42-1.898v-.482h2v.482c0 .865.57 1.628 1.419 1.898.43.136.853.312 1.255.521.788.41 1.735.275 2.348-.337l.343-.342 1.414 1.415-.342.341c-.613.613-.749 1.557-.338 2.349.209.403.385.826.521 1.254.27.849 1.032 1.419 1.898 1.419h.482v2h-.482c-.866 0-1.628.57-1.898 1.418z"/><path d="m21 21c-3.309 0-6 2.691-6 6s2.691 6 6 6 6-2.691 6-6-2.691-6-6-6zm0 10c-2.206 0-4-1.794-4-4s1.794-4 4-4 4 1.794 4 4-1.794 4-4 4z"/><path d="m38 27c0 5.427-2.511 10.401-6.889 13.647-1.341.995-2.111 2.481-2.111 4.08v3.273h-16v-3.276c0-1.598-.766-3.081-2.101-4.068-4.746-3.512-7.305-9.126-6.846-15.018.621-7.976 7.07-14.652 15.003-15.529 5.06-.56 10.056 1.122 13.702 4.614l1.383-1.444c-4.075-3.903-9.654-5.776-15.306-5.158-9.015.998-16.07 8.3-16.776 17.362-.513 6.583 2.347 12.856 7.65 16.781.82.606 1.29 1.503 1.29 2.461v3.461c-1.16.412-1.999 1.512-1.999 2.814 0 1.053.548 1.978 1.372 2.513-.23.416-.372.886-.372 1.394v.187c0 1.602 1.304 2.906 2.907 2.906h.093v1c0 2.206 1.794 4 4 4h8c2.206 0 4-1.794 4-4v-1h.093c1.603 0 2.907-1.304 2.907-2.907v-.187c0-.508-.142-.978-.372-1.394.824-.534 1.372-1.459 1.372-2.512 0-1.302-.839-2.402-2-2.816v-3.457c0-.958.475-1.86 1.303-2.474 4.891-3.626 7.697-9.186 7.697-15.253zm-11 32c0 1.103-.897 2-2 2h-8c-1.103 0-2-.897-2-2v-1h12zm3-3.907c0 .5-.407.907-.907.907h-16.186c-.5 0-.907-.407-.907-.907v-.187c0-.5.407-.907.907-.907h16.186c.5 0 .907.407.907.907zm0-3.093h-.907-16.186-.907c-.552 0-1-.449-1-1s.448-1 1-1h18c.552 0 1 .449 1 1s-.448 1-1 1z"/><path d="m58 56h2v2h-2z"/><path d="m58 60h2v2h-2z"/><path d="m60 58h2v2h-2z"/><path d="m56 58h2v2h-2z"/><path d="m50 44h2v2h-2z"/><path d="m50 48h2v2h-2z"/><path d="m52 46h2v2h-2z"/><path d="m48 46h2v2h-2z"/><path d="m41 56h2v2h-2z"/><path d="m41 60h2v2h-2z"/><path d="m43 58h2v2h-2z"/><path d="m39 58h2v2h-2z"/></svg>