<svg id="Capa_1" enable-background="new 0 0 512.001 512.001" height="512" viewBox="0 0 512.001 512.001" width="512" xmlns="http://www.w3.org/2000/svg"><g><path d="m294.126 205.837c-.026-.069-.053-.137-.081-.206-1.505-3.659-5.032-6.021-8.988-6.021-.003 0-.006 0-.01 0-3.959.004-7.487 2.374-8.986 6.039-.023.057-.046.113-.067.17l-36.766 96.534c-1.475 3.871.468 8.204 4.339 9.678 3.872 1.476 8.204-.469 9.678-4.339l7.317-19.211h48.72l7.242 19.19c1.134 3.003 3.987 4.854 7.019 4.854.879 0 1.775-.156 2.646-.485 3.875-1.462 5.832-5.79 4.369-9.665zm-27.851 67.644 18.759-49.253 18.587 49.253z"/><path d="m41.787 297.441c-.014 0-.029 0-.043 0-7.98.045-19.427.085-26.744.082v-90.413c0-4.142-3.358-7.5-7.5-7.5s-7.5 3.358-7.5 7.5v97.831c0 3.653 2.632 6.775 6.232 7.392.544.093 1.136.195 11.652.195 5.18 0 12.768-.024 23.943-.087 4.142-.023 7.481-3.4 7.458-7.542-.022-4.128-3.375-7.458-7.498-7.458z"/><path d="m118.539 304.577c0-4.142-3.358-7.5-7.5-7.5h-33.38v-33.51h30.366c4.142 0 7.5-3.358 7.5-7.5s-3.358-7.5-7.5-7.5h-30.367v-33.51h33.38c4.142 0 7.5-3.358 7.5-7.5s-3.358-7.5-7.5-7.5h-40.88c-4.142 0-7.5 3.358-7.5 7.5v97.02c0 4.142 3.358 7.5 7.5 7.5h40.88c4.143 0 7.501-3.358 7.501-7.5z"/><path d="m185.11 312.523c29.299 0 49.762-23.216 49.762-56.457 0-4.142-3.358-7.5-7.5-7.5h-29.291c-4.142 0-7.5 3.358-7.5 7.5s3.358 7.5 7.5 7.5h21.384c-2.812 24.894-19.707 33.957-34.355 33.957-22.859 0-41.457-18.597-41.457-41.457s18.598-41.457 41.457-41.457c8.308 0 16.322 2.447 23.173 7.076 3.433 2.318 8.094 1.417 10.414-2.016 2.319-3.432 1.416-8.095-2.016-10.414-9.341-6.311-20.258-9.646-31.571-9.646-31.13 0-56.457 25.327-56.457 56.457s25.327 56.457 56.457 56.457z"/><path d="m508.592 201.072c-3.471-2.259-8.117-1.277-10.377 2.194l-24.743 38.01-24.986-38.267c-2.264-3.468-6.913-4.443-10.38-2.179-3.468 2.265-4.444 6.912-2.179 10.38l30.05 46.021-.117 47.774c-.01 4.142 3.339 7.508 7.481 7.518h.019c4.133 0 7.489-3.346 7.5-7.482l.117-47.799 29.81-45.793c2.258-3.471 1.276-8.117-2.195-10.377z"/><path d="m416.161 328.809c-4.142 0-7.5 3.358-7.5 7.5v112.431c0 .292-.238.531-.531.531h-305.17c-.292 0-.531-.238-.531-.531v-112.431c0-4.142-3.358-7.5-7.5-7.5s-7.5 3.358-7.5 7.5v112.431c0 8.563 6.967 15.531 15.531 15.531h305.17c8.563 0 15.531-6.967 15.531-15.531v-112.431c0-4.143-3.358-7.5-7.5-7.5z"/><path d="m94.929 183.192c4.142 0 7.5-3.358 7.5-7.5v-112.431c0-.292.238-.531.531-.531h241.455v48.716c0 8.563 6.967 15.531 15.531 15.531h48.715v48.715c0 4.142 3.358 7.5 7.5 7.5s7.5-3.358 7.5-7.5v-49.562c0-6.293-2.451-12.21-6.901-16.661l-54.838-54.838c-4.45-4.45-10.367-6.9-16.66-6.9h-242.302c-8.563 0-15.531 6.967-15.531 15.531v112.431c0 4.141 3.358 7.499 7.5 7.499zm303.126-71.215h-38.109c-.293 0-.531-.238-.531-.531v-38.11z"/><path d="m151.145 118.946h64.247c4.142 0 7.5-3.358 7.5-7.5s-3.358-7.5-7.5-7.5h-64.247c-4.142 0-7.5 3.358-7.5 7.5s3.357 7.5 7.5 7.5z"/><path d="m151.145 151.069h104.4c4.142 0 7.5-3.358 7.5-7.5s-3.358-7.5-7.5-7.5h-104.4c-4.142 0-7.5 3.358-7.5 7.5s3.357 7.5 7.5 7.5z"/><path d="m255.545 360.932h-56.215c-4.142 0-7.5 3.358-7.5 7.5s3.358 7.5 7.5 7.5h56.215c4.142 0 7.5-3.358 7.5-7.5s-3.358-7.5-7.5-7.5z"/><path d="m255.545 393.055h-32.123c-4.142 0-7.5 3.358-7.5 7.5s3.358 7.5 7.5 7.5h32.123c4.142 0 7.5-3.358 7.5-7.5s-3.358-7.5-7.5-7.5z"/><path d="m297.137 376.993h-1.438c-4.142 0-7.5 3.358-7.5 7.5s3.358 7.5 7.5 7.5h1.438c3.376 13.811 15.85 24.093 30.685 24.093s27.309-10.282 30.685-24.093h1.438c4.142 0 7.5-3.358 7.5-7.5s-3.358-7.5-7.5-7.5h-1.438c-3.376-13.81-15.85-24.092-30.685-24.092s-27.309 10.282-30.685 24.092zm47.278 7.5c0 9.149-7.443 16.593-16.592 16.593s-16.592-7.443-16.592-16.593c0-9.149 7.443-16.592 16.592-16.592s16.592 7.443 16.592 16.592z"/><path d="m425.41 285.243c-3.174-2.662-7.905-2.245-10.566.929-.997 1.189-2.077 2.304-3.208 3.312-5.819 5.183-13.17 7.81-21.849 7.81-22.826 0-41.396-18.571-41.396-41.397s18.57-41.397 41.396-41.397c8.297 0 16.298 2.443 23.141 7.065 3.431 2.319 8.095 1.416 10.413-2.017 2.319-3.432 1.416-8.094-2.017-10.413-9.331-6.304-20.236-9.636-31.537-9.636-31.097 0-56.396 25.3-56.396 56.397s25.299 56.397 56.396 56.397c12.292 0 23.297-4.014 31.825-11.608 1.674-1.491 3.265-3.132 4.728-4.877 2.66-3.173 2.244-7.904-.93-10.565z"/></g></svg>