<?xml version="1.0" encoding="UTF-8"?>
<svg xmlns="http://www.w3.org/2000/svg" viewBox="0 0 64 64" width="512" height="512"><g id="Delivery_Insurance" data-name="Delivery Insurance"><path d="M17,17.81982V15.92676A8.07142,8.07142,0,0,1,14.07324,13H7.92676A8.07142,8.07142,0,0,1,5,15.92676v1.89306a13.98969,13.98969,0,0,0,6,11.54A13.98969,13.98969,0,0,0,17,17.81982ZM9.59277,23.207l-2.09961-2.1001a.99989.99989,0,0,1,1.41407-1.41406l1.39257,1.39307,2.793-2.793A.99989.99989,0,0,1,14.50684,19.707l-3.5,3.5a.99964.99964,0,0,1-1.41407,0Z"/><path d="M11,35a1,1,0,0,0,.44727-.10547A18.98628,18.98628,0,0,0,22,17.81982V13a1,1,0,0,0-1-1,3.00328,3.00328,0,0,1-3-3,1,1,0,0,0-1-1H5A1,1,0,0,0,4,9a3.00328,3.00328,0,0,1-3,3,1,1,0,0,0-1,1v4.81982A18.98628,18.98628,0,0,0,10.55273,34.89453,1,1,0,0,0,11,35ZM3,17.81982v-2.4956a1.00007,1.00007,0,0,1,.56982-.90283,6.049,6.049,0,0,0,2.85157-2.85157A1.00007,1.00007,0,0,1,7.32422,11h7.35156a1.00007,1.00007,0,0,1,.90283.56982,6.049,6.049,0,0,0,2.85157,2.85157A1.00007,1.00007,0,0,1,19,15.32422v2.4956a15.98173,15.98173,0,0,1-7.46582,13.58545.99912.99912,0,0,1-1.06836,0A15.98173,15.98173,0,0,1,3,17.81982Z"/><path d="M7,49a1.003,1.003,0,0,0-1,1v2a1.003,1.003,0,0,0,1,1h6.29a7.042,7.042,0,0,1,0-4Z"/><path d="M26.71,49a7.042,7.042,0,0,1,0,4H44.29a7.042,7.042,0,0,1,0-4Z"/><path d="M63,49H57.71a7.042,7.042,0,0,1,0,4H63a1.003,1.003,0,0,0,1-1V50A1.003,1.003,0,0,0,63,49Z"/><path d="M51,46a5,5,0,1,0,5,5A5.00181,5.00181,0,0,0,51,46Zm0,8a3,3,0,1,1,3-3A3.00887,3.00887,0,0,1,51,54Z"/><path d="M20,46a5,5,0,1,0,5,5A5.00181,5.00181,0,0,0,20,46Zm0,8a3,3,0,1,1,3-3A3.00887,3.00887,0,0,1,20,54Z"/><path d="M54.8,26.4A1.01373,1.01373,0,0,0,54,26H47v7H59.75Z"/><rect x="58" y="39" width="3" height="2"/><path d="M61,43H57a1.003,1.003,0,0,1-1-1V38a1.003,1.003,0,0,1,1-1h4V35H46a1.003,1.003,0,0,1-1-1V26H42V47h3.26a6.99125,6.99125,0,0,1,11.48,0H61ZM48,39H46a1,1,0,0,1,0-2h2a1,1,0,0,1,0,2Z"/><path d="M21,32h8V20H23.89A20.99985,20.99985,0,0,1,21,28.7Z"/><path d="M40,21a1,1,0,0,0-1-1H31V33a1.003,1.003,0,0,1-1,1H20a1.003,1.003,0,0,1-1-1V31.47a21.16951,21.16951,0,0,1-6.66,5.21A2.97118,2.97118,0,0,1,11,37a3.08917,3.08917,0,0,1-1-.17V47h4.26a6.99125,6.99125,0,0,1,11.48,0H40Z"/><circle cx="20" cy="51" r="1"/><circle cx="51" cy="51" r="1"/></g></svg>
