<svg enable-background="new 0 0 512 512" height="512" viewBox="0 0 512 512" width="512" xmlns="http://www.w3.org/2000/svg"><g id="_x34_12_x2C__Courier_x2C__Delivery_x2C__Man"><g><circle cx="211" cy="396.006" r="10"/><circle cx="211" cy="426.006" r="10"/><circle cx="211" cy="456.006" r="10"/><path d="m232.214 259.599c3.905-3.906 3.905-10.238 0-14.143s-10.237-3.905-14.143 0c-3.907 3.908-10.234 3.909-14.143 0-3.905-3.905-10.237-3.905-14.143 0-3.905 3.905-3.905 10.237 0 14.143 11.697 11.695 30.731 11.697 42.429 0z"/><circle cx="251" cy="212.527" r="10"/><circle cx="171" cy="212.527" r="10"/><circle cx="43.857" cy="186.005" r="10"/><circle cx="433.857" cy="406.006" r="10"/><circle cx="433.857" cy="156.005" r="10"/><circle cx="293.857" cy="286.006" r="10"/><circle cx="123.857" cy="306.006" r="10"/><path d="m351.84 367.118-53.727-23.025c-9.26-3.969-17.865-9.266-25.576-15.744-13.136-11.035-14.213-15.476-17.067-17.917-1.496-1.276-3.224-2.023-5.101-2.301v-13.661c10.871-6.811 20.707-16.528 29.029-28.882 12.088-17.945 20.342-40.809 24.168-66.305 15.278-.9 27.434-13.611 27.434-29.111 0-14.668-10.885-26.836-25-28.864v-4.986c25.857-12.997 40-30.704 40-50.316 0-20.084-15.017-38.354-42.284-51.442-51.57-24.753-133.837-24.765-185.431 0-27.268 13.088-42.285 31.357-42.285 51.441 0 19.611 14.143 37.319 40 50.316v4.986c-14.115 2.029-25 14.197-25 28.864 0 15.5 12.156 28.211 27.434 29.111 5.458 36.379 21.371 74.444 51.935 94.375v14.733c-.101.031-.514.146-.925.303-1.336.515-2.55 1.317-3.494 2.262-2.201 2.201-4.87 8.125-18.345 18.916-7.225 5.787-15.204 10.572-23.718 14.221l-53.727 23.026c-33.494 14.355-52.018 67.583-52.018 98.888v20c0 5.522 4.477 10 10 10h365.715c5.522 0 10-4.478 10-10v-20c0-31.305-18.523-84.532-52.017-98.888zm-103.609-34.201c2.323 2.528 4.681 4.813 7.185 7.059l-16.985 36.494-14.29-19.463zm-112.231-185.912v-7.013h150c-.042 6.313.108 7.672-.179 10.265-1.633 14.678-14.022 25.748-28.821 25.748h-92c-15.991 0-29-13.009-29-29zm169.662 31.485c.538-10.077.271-15.733.273-16.504 2.999 1.509 6.683 13.288-.273 16.504zm-209.662-92.485c0-11.795 11.277-23.974 30.939-33.411 46.127-22.142 122.003-22.138 168.123 0 19.662 9.438 30.938 21.616 30.938 33.411 0 9.474-7.132 19.059-20 27.344v-17.344c0-5.523-4.478-10-10-10s-10 4.477-10 10v23.987h-150v-23.987c0-5.523-4.477-10-10-10s-10 4.477-10 10v17.344c-12.868-8.285-20-17.87-20-27.344zm20.003 76.011c-.007 5.241-.029 9.661.335 16.474-3.146-1.454-7.172-12.969-.335-16.474zm21.07 25.218c7.929 5.521 17.553 8.771 27.927 8.771h92c10.336 0 19.973-3.206 27.922-8.712-5.927 57.548-35.728 98.712-73.922 98.712-38.206.001-68.014-41.193-73.927-98.771zm93.296 116.135v19.125l-19.369 19.369-20.631-20.631v-18.237c13.1 3.902 26.967 3.998 40 .374zm-56.584 29.565 24.074 24.073-14.29 19.463-16.965-36.453c2.477-2.215 4.84-4.52 7.181-7.083zm210.072 143.072h-290v-20c0-5.522-4.477-10-10-10s-10 4.478-10 10v20h-35.714v-10c0-28.719 17.796-71.033 39.896-80.505l53.727-23.025c6.482-2.778 12.703-6.112 18.599-9.952l22.201 47.702c3.209 6.896 12.641 7.81 17.127 1.698l21.307-29.022 21.309 29.021c4.498 6.126 13.927 5.179 17.127-1.698l22.205-47.712c5.894 3.839 12.104 7.181 18.594 9.962l53.727 23.025c22.101 9.472 39.896 51.786 39.896 80.505v10.001z"/><path d="m63.857 306.006c16.542 0 30-13.458 30-30s-13.458-30-30-30-30 13.458-30 30 13.458 30 30 30zm0-40c5.514 0 10 4.486 10 10s-4.486 10-10 10-10-4.486-10-10 4.486-10 10-10z"/><path d="m413.857 136.005c22.056 0 40-17.944 40-40s-17.944-40-40-40-40 17.944-40 40 17.945 40 40 40zm0-60c11.028 0 20 8.972 20 20s-8.972 20-20 20-20-8.972-20-20 8.972-20 20-20z"/><path d="m323.857 406.006h-20v-10c0-5.522-4.478-10-10-10s-10 4.478-10 10v10h-20c-5.522 0-10 4.478-10 10v40c0 5.522 4.478 10 10 10h60c5.522 0 10-4.478 10-10v-40c0-5.523-4.477-10-10-10zm-10 40h-40v-20h40z"/><path d="m464.857 196.005c-12.054 0-89.963 0-102 0-15.99 0-29 13.009-29 29v102c0 15.99 13.01 29 29 29h102c15.99 0 29-13.01 29-29v-102c0-15.99-13.009-29-29-29zm-41 20v20h-20v-20zm50 111.001c0 4.963-4.037 9-9 9h-102c-4.963 0-9-4.037-9-9v-102c0-4.962 4.037-9 9-9h21v30c0 5.523 4.478 10 10 10h40c5.522 0 10-4.477 10-10v-30h21c4.963 0 9 4.038 9 9z"/><path d="m453.857 306.006h-10c-5.522 0-10 4.478-10 10s4.478 10 10 10h10c5.522 0 10-4.478 10-10s-4.477-10-10-10z"/><path d="m453.857 276.006h-10c-5.522 0-10 4.478-10 10s4.478 10 10 10h10c5.522 0 10-4.478 10-10s-4.477-10-10-10z"/><path d="m163.857 106.005h90c5.522 0 10-4.477 10-10s-4.478-10-10-10h-90c-5.523 0-10 4.477-10 10s4.477 10 10 10z"/></g></g></svg>