<svg id="Capa_1" enable-background="new 0 0 512 512" height="512" viewBox="0 0 512 512" width="512" xmlns="http://www.w3.org/2000/svg"><g><path d="m494.674 303.532c-.015-.049-.034-.096-.05-.145-.443-1.37-1.068-2.684-1.88-3.901l-26.819-40.229c-4.473-6.71-11.957-10.716-20.022-10.716h-83.019v-60.334c0-4.142-3.358-7.5-7.5-7.5s-7.5 3.358-7.5 7.5v60.334h-16.763c-.457 0-.912.017-1.365.042v-199.592c0-8.702-7.08-15.782-15.782-15.782h-215.331c-8.702 0-15.782 7.08-15.782 15.782v414.881h-18.129v-448.09c0-.215.077-.401.229-.553s.338-.229.553-.229l281.588.163c.431 0 .781.351.781.782v142.261c0 4.142 3.358 7.5 7.5 7.5s7.5-3.358 7.5-7.5v-142.262c0-8.697-7.076-15.777-15.773-15.782l-281.586-.162c-.003 0-.007 0-.01 0-4.214 0-8.176 1.64-11.156 4.619-2.983 2.981-4.625 6.945-4.625 11.163v448.09h-17.628c-8.547 0-15.5 6.953-15.5 15.5v17.128c0 8.547 6.953 15.5 15.5 15.5h66.14c4.142 0 7.5-3.358 7.5-7.5s-3.358-7.5-7.5-7.5h-66.14c-.276 0-.5-.224-.5-.5v-17.128c0-.276.224-.5.5-.5h348.407c.276 0 .5.224.5.5v17.128c0 .276-.224.5-.5.5h-252.268c-4.142 0-7.5 3.358-7.5 7.5s3.358 7.5 7.5 7.5h252.268c8.547 0 15.5-6.953 15.5-15.5v-17.128c0-8.547-6.953-15.5-15.5-15.5h-17.628v-18.128h116.729c8.702 0 15.782-7.08 15.782-15.782v-121.722c.001-1.611-.247-3.194-.721-4.708zm-198.046 9.701h59.538v18.128h-59.538zm74.537 0h34.692v50.474c0 .431-.351.782-.782.782h-33.128c-.431 0-.782-.351-.782-.782zm0-15v-34.692h34.692v34.692zm49.692 15h59.538v18.128h-59.538zm32.587-45.656 20.437 30.656h-53.024v-34.692h25.045c3.038 0 5.857 1.508 7.542 4.036zm-97.279-4.036v34.692h-53.024l20.437-30.656c1.685-2.527 4.504-4.036 7.542-4.036zm-257.522-215.332h215.331c.431 0 .782.351.782.782v205.976c-1.365 1.269-2.598 2.7-3.658 4.29l-26.819 40.228c-.818 1.226-1.447 2.549-1.89 3.931-.012.037-.026.072-.037.109-.475 1.516-.724 3.102-.724 4.715v89.376h-183.768v-348.625c0-.431.351-.782.783-.782zm-.783 415.663v-51.256h183.767v17.346c0 8.702 7.08 15.782 15.782 15.782h17.346v18.128zm250.024 0h-18.128v-18.128h18.128zm131.729-33.128h-124.22c-.003 0-.006 0-.01 0s-.006 0-.01 0h-57.963c-.431 0-.782-.351-.782-.782v-83.602h59.538v17.346c0 8.702 7.08 15.782 15.782 15.782h33.128c8.702 0 15.782-7.08 15.782-15.782v-17.346h59.538v83.602c0 .431-.352.782-.783.782z"/><path d="m140.052 296.668c13.269 0 24.064-10.795 24.064-24.064s-10.795-24.064-24.064-24.064-24.064 10.795-24.064 24.064c0 13.27 10.795 24.064 24.064 24.064zm0-33.127c4.998 0 9.064 4.066 9.064 9.064s-4.066 9.064-9.064 9.064-9.064-4.066-9.064-9.064 4.066-9.064 9.064-9.064z"/><path d="m164.616 147.593h83.384c8.547 0 15.5-6.953 15.5-15.5v-50.256c0-8.547-6.953-15.5-15.5-15.5h-83.384c-8.547 0-15.5 6.953-15.5 15.5v50.256c0 8.547 6.953 15.5 15.5 15.5zm-.5-65.756c0-.276.224-.5.5-.5h83.384c.276 0 .5.224.5.5v50.256c0 .276-.224.5-.5.5h-83.384c-.276 0-.5-.224-.5-.5z"/></g></svg>