<svg id="Layer_1" enable-background="new 0 0 450 450" viewBox="0 0 450 450" xmlns="http://www.w3.org/2000/svg"><g><path d="m316.28 366.48v35.61c0 7.63-6.22 13.85-13.85 13.85h-154.86c-7.63 0-13.85-6.22-13.85-13.85v-35.61c4.96 1.81 10.32 2.81 15.91 2.81h36.09v1.5c0 9.17 7.46 16.63 16.63 16.63h45.3c9.17 0 16.63-7.46 16.63-16.63v-1.5h36.09c5.59 0 10.95-.99 15.91-2.81z"/><path d="m254.09 357.62v13.18c0 3.55-2.89 6.44-6.44 6.44h-45.3c-3.55 0-6.44-2.89-6.44-6.44v-13.18c0-3.56 2.89-6.44 6.44-6.44h45.3c3.55 0 6.44 2.88 6.44 6.44z"/><path d="m336.45 323.02c0 12.99-6.9 24.4-17.23 30.76-.31.14-.6.31-.87.51-.01.01-.02.02-.03.02-4.97 2.86-10.67 4.58-16.76 4.77v-21.03h1.04c4.71 0 8.54-3.83 8.54-8.53v-13c0-4.71-3.83-8.53-8.54-8.53h-1.04v-21.04c19.35.63 34.89 16.57 34.89 36.07z"/><path d="m280.97 338.05h10.4v21.05h-10.4z"/><path d="m378.05 34.06c-34.17 0-61.96 27.8-61.96 61.95 0 19.69 9.23 37.26 23.59 48.61v-14.82c0-10.13 3.93-19.64 10.95-26.78-3.77-5.4-5.98-11.97-5.98-19.03 0-18.41 14.98-33.39 33.4-33.39 18.41 0 33.39 14.98 33.39 33.39 0 7.06-2.2 13.63-5.97 19.03 7.01 7.14 10.94 16.65 10.94 26.78v14.83c14.36-11.36 23.59-28.93 23.59-48.62 0-34.16-27.8-61.95-61.95-61.95z"/><path d="m378.05 117.39c-7.67 0-14.75-2.61-20.4-6.97-4.99 5.22-7.78 12.08-7.78 19.38v21.39c3.27 1.67 6.71 3.07 10.29 4.15v-19.91c0-2.81 2.28-5.09 5.09-5.09s5.09 2.28 5.09 5.09v22.07c2.53.32 5.09.48 7.7.48s5.18-.16 7.69-.48v-22.07c0-2.81 2.28-5.09 5.09-5.09s5.09 2.28 5.09 5.09v19.91c3.58-1.07 7.02-2.47 10.29-4.15v-21.39c0-7.3-2.79-14.16-7.78-19.38-5.63 4.37-12.7 6.97-20.37 6.97z"/><path d="m378.05 107.2c6.59 0 12.56-2.77 16.79-7.21 3.97-4.17 6.41-9.8 6.41-16 0-12.8-10.41-23.2-23.2-23.2-12.8 0-23.21 10.4-23.21 23.2 0 6.2 2.45 11.83 6.42 16 4.22 4.44 10.18 7.21 16.79 7.21z"/><path d="m383.14 167.98v7.37c0 17.49-14.22 31.72-31.71 31.72h-121.34v19.49h20.7c16.64 0 30.18 13.54 30.18 30.18v20h-10.19v-20c0-11.03-8.97-19.99-19.99-19.99h-51.58c-11.03 0-19.99 8.97-19.99 19.99v20h-10.19v-20c0-16.64 13.54-30.18 30.18-30.18h20.7v-19.49h-121.33c-17.49 0-31.72-14.23-31.72-31.72v-7.37c1.68.12 3.38.18 5.09.18s3.41-.06 5.09-.18v7.37c0 11.87 9.66 21.53 21.53 21.53h121.33v-28.9c1.68.12 3.38.18 5.09.18s3.41-.06 5.09-.18v28.9h121.34c11.86 0 21.52-9.66 21.52-21.53v-7.37c1.68.12 3.38.18 5.09.18 1.73 0 3.43-.06 5.11-.18z"/><path d="m271.4 318.18h29.55v9.68h-29.55z"/><path d="m280.97 286.93h10.4v21.06h-10.4z"/><path d="m261.21 316.52v13c0 4.7 3.82 8.53 8.53 8.53h1.04v21.05h-6.5v-1.49c0-9.17-7.46-16.63-16.63-16.63h-45.3c-9.17 0-16.63 7.46-16.63 16.63v1.49h-6.5v-21.05h1.04c4.71 0 8.53-3.83 8.53-8.53v-13c0-4.71-3.82-8.53-8.53-8.53h-1.04v-21.06h91.56v21.06h-1.04c-4.71 0-8.53 3.83-8.53 8.53z"/><path d="m186.64 144.62v-14.82c0-10.13 3.93-19.64 10.94-26.78-3.77-5.4-5.97-11.97-5.97-19.03 0-18.41 14.98-33.39 33.39-33.39s33.39 14.98 33.39 33.39c0 7.06-2.2 13.63-5.97 19.03 7.01 7.14 10.94 16.65 10.94 26.78v14.83c14.37-11.35 23.59-28.93 23.59-48.61 0-34.16-27.79-61.95-61.95-61.95s-61.95 27.8-61.95 61.95c0 19.68 9.22 37.25 23.59 48.6z"/><path d="m253.17 151.19v-21.39c0-7.3-2.79-14.16-7.78-19.38-5.65 4.37-12.72 6.97-20.39 6.97s-14.74-2.6-20.39-6.97c-4.99 5.22-7.78 12.08-7.78 19.38v21.39c3.27 1.67 6.7 3.07 10.28 4.15v-19.91c0-2.81 2.28-5.09 5.09-5.09s5.09 2.28 5.09 5.09v22.07c2.53.32 5.09.48 7.7.48s5.18-.16 7.7-.48v-22.07c0-2.81 2.28-5.09 5.09-5.09s5.09 2.28 5.09 5.09v19.91c3.6-1.09 7.03-2.48 10.3-4.15z"/><path d="m225 107.2c6.6 0 12.56-2.77 16.79-7.21 3.97-4.17 6.41-9.8 6.41-16 0-12.8-10.4-23.2-23.2-23.2s-23.2 10.4-23.2 23.2c0 6.2 2.44 11.83 6.41 16 4.23 4.44 10.19 7.21 16.79 7.21z"/><path d="m149.05 318.18h29.55v9.68h-29.55z"/><path d="m158.63 338.05h10.4v21.05h-10.4z"/><path d="m158.63 286.93h10.4v21.06h-10.4z"/><path d="m148.44 338.05h-1.05c-4.7 0-8.53-3.83-8.53-8.53v-13c0-4.71 3.83-8.53 8.53-8.53h1.05v-21.04c-19.35.63-34.89 16.57-34.89 36.07 0 12.99 6.9 24.4 17.23 30.76.31.14.6.31.87.51.01.01.02.02.03.02 4.97 2.86 10.67 4.58 16.76 4.77z"/><path d="m38.56 83.99c0-18.41 14.98-33.39 33.39-33.39 18.42 0 33.4 14.98 33.4 33.39 0 7.06-2.21 13.63-5.98 19.03 7.02 7.14 10.95 16.65 10.95 26.78v14.83c14.36-11.35 23.59-28.93 23.59-48.61 0-34.16-27.8-61.95-61.96-61.95-34.15-.01-61.95 27.78-61.95 61.94 0 19.69 9.23 37.26 23.59 48.61v-14.82c0-10.13 3.93-19.64 10.94-26.78-3.77-5.4-5.97-11.97-5.97-19.03z"/><path d="m71.95 157.97c2.61 0 5.18-.16 7.7-.48v-22.07c0-2.81 2.28-5.09 5.09-5.09s5.09 2.28 5.09 5.09v19.91c3.58-1.08 7.02-2.48 10.29-4.15v-21.38c0-7.3-2.79-14.16-7.78-19.38-5.65 4.36-12.73 6.97-20.4 6.97s-14.74-2.6-20.39-6.97c-4.99 5.22-7.78 12.08-7.78 19.38v21.39c3.27 1.68 6.71 3.08 10.29 4.15v-19.91c0-2.81 2.27-5.09 5.09-5.09 2.81 0 5.09 2.28 5.09 5.09v22.07c2.54.31 5.1.47 7.71.47z"/><path d="m48.75 83.99c0 6.2 2.44 11.83 6.41 16 4.23 4.44 10.2 7.21 16.79 7.21 6.6 0 12.56-2.77 16.79-7.21 3.97-4.17 6.42-9.8 6.42-16 0-12.8-10.41-23.2-23.21-23.2-12.79-.01-23.2 10.4-23.2 23.2z"/></g></svg>