<svg id="Layer_1" enable-background="new 0 0 512 512" height="512" viewBox="0 0 512 512" width="512" xmlns="http://www.w3.org/2000/svg"><path d="m128.381 183.744c-.882 1.32-1.353 2.875-1.353 4.467v179.979c0 4.437 3.597 8.035 8.033 8.035h241.996c2.134 0 4.175-.846 5.683-2.355 1.506-1.509 2.356-3.553 2.353-5.682l-.119-179.982c0-1.59-.472-3.141-1.354-4.461l-29.76-44.52c-1.493-2.229-3.997-3.564-6.679-3.564h-182.36c-2.682 0-5.188 1.336-6.681 3.564zm137.562 176.414h-19.762v-10.647c2.083.225 4.2-.342 5.912-1.709l3.94-3.155 4.035 3.188c1.712 1.348 3.818 1.9 5.874 1.676v10.647zm16.067 0v-25.773c0-3.091-1.768-5.91-4.553-7.244-2.773-1.336-6.089-.961-8.5.967l-3.941 3.155-4.034-3.188c-2.933-2.316-7.072-2.299-9.998.033l-3.907 3.129-3.912-3.129c-2.408-1.928-5.714-2.303-8.498-.967-2.783 1.334-4.552 4.153-4.552 7.244v25.773h-87.019v-163.916h87.019v25.773c0 3.09 1.769 5.904 4.552 7.242 2.784 1.348 6.09.961 8.498-.967l3.912-3.129 3.907 3.129c2.926 2.338 7.065 2.35 9.998.033l4.034-3.186 3.941 3.152c1.451 1.16 3.228 1.76 5.021 1.76 1.188 0 2.383-.262 3.493-.799 2.785-1.344 4.553-4.168 4.539-7.264l-.09-25.746h86.989l.108 163.916h-87.007zm-16.156-163.916.037 10.639c-2.047-.209-4.131.35-5.821 1.688l-4.035 3.182-3.94-3.15c-1.718-1.37-3.836-1.954-5.912-1.712v-10.646h19.671zm-18.834-16.066 2.832-28.451h12.312l2.823 28.451zm114.886 0h-80.771l-2.821-28.451h64.571zm-192.792-28.451h64.588l-2.829 28.451h-80.778zm110.812 82.853h-47.85c-11.781 0-21.366 9.58-21.366 21.366 0 11.845 9.585 21.483 21.366 21.483h47.85c11.848 0 21.484-9.639 21.484-21.483 0-11.786-9.637-21.366-21.484-21.366zm0 26.782h-47.85c-2.871 0-5.3-2.48-5.3-5.416 0-2.872 2.429-5.3 5.3-5.3h47.85c2.985 0 5.418 2.377 5.418 5.3 0 2.936-2.48 5.416-5.418 5.416zm-59.395-177.839h13.512v41.839c0 4.437 3.597 8.034 8.033 8.034h27.852c4.438 0 8.035-3.598 8.035-8.034v-41.839h13.512c.031 0 .061.006.082 0 4.442 0 8.04-3.599 8.04-8.034 0-1.855-.631-3.562-1.688-4.929l-34.95-60.396c-1.437-2.488-4.091-4.012-6.954-4.012-2.869 0-5.521 1.523-6.956 4.012l-35.473 61.301c-1.44 2.485-1.44 5.549-.004 8.038 1.436 2.488 4.087 4.02 6.959 4.02zm35.473-53.293 21.54 37.224h-7.616c-4.436 0-8.031 3.598-8.031 8.036v41.84h-11.788v-41.84c0-4.438-3.597-8.036-8.032-8.036h-7.615zm114.001 129.213c1.335 2.01 3.497 3.315 5.896 3.556.268.023.535.037.801.037 2.121 0 4.168-.837 5.68-2.354l44.67-44.666 9.56 9.556c2.029 2.031 4.998 2.818 7.759 2.074 2.772-.74 4.941-2.905 5.684-5.68l18.331-68.44c.741-2.773-.055-5.73-2.08-7.76-2.034-2.033-4.995-2.824-7.759-2.082l-68.565 18.33c-2.775.742-4.94 2.908-5.683 5.678-.746 2.777.049 5.739 2.079 7.767l9.554 9.554-40.622 40.626c-2.706 2.701-3.129 6.935-1.018 10.12zm42.969-68.752c1.509-1.504 2.354-3.547 2.354-5.68 0-2.134-.845-4.173-2.354-5.684l-5.39-5.384 41.676-11.144-11.133 41.566-5.395-5.398c-3.135-3.131-8.229-3.135-11.359.004l-43.408 43.404-6.647-10.027zm88.922 158.413-61.423-35.473c-2.485-1.433-5.543-1.433-8.037 0-2.486 1.436-4.016 4.091-4.016 6.961v13.389h-33.032c-4.436 0-8.033 3.595-8.033 8.033v27.979c0 4.434 3.598 8.033 8.033 8.033h33.032v13.391c0 2.871 1.529 5.52 4.01 6.957 1.249.721 2.635 1.079 4.026 1.079 1.381 0 2.766-.358 4.005-1.075l61.423-35.351c2.488-1.433 4.024-4.084 4.024-6.959.006-2.871-1.528-5.527-4.012-6.964zm-57.409 28.419v-7.531c0-4.441-3.597-8.034-8.031-8.034h-33.034v-11.909h33.034c4.435 0 8.031-3.598 8.031-8.035v-7.504l37.303 21.544zm-153.012 150.958h-13.512v-41.84c0-4.436-3.598-8.032-8.035-8.032h-27.852c-4.437 0-8.033 3.597-8.033 8.032v41.84h-13.512c-2.872 0-5.523 1.531-6.96 4.02s-1.437 5.554.004 8.036l35.473 61.308c1.436 2.483 4.087 4.008 6.956 4.008 2.863 0 5.518-1.524 6.954-4.008l35.473-61.308c1.439-2.482 1.439-5.548.004-8.036s-4.088-4.02-6.96-4.02zm-35.471 53.295-21.543-37.228h7.615c4.436 0 8.032-3.597 8.032-8.034v-41.84h11.788v41.84c0 4.438 3.596 8.034 8.031 8.034h7.616zm-180.457-182.324c1.386 0 2.772-.358 4.019-1.077 2.484-1.436 4.015-4.088 4.015-6.959v-13.391h33.033c4.437 0 8.032-3.6 8.032-8.033v-27.979c0-4.438-3.596-8.033-8.032-8.033h-33.034v-13.388c0-2.87-1.53-5.52-4.011-6.956-2.48-1.434-5.539-1.434-8.028-.007l-61.424 35.353c-2.489 1.43-4.025 4.082-4.025 6.96-.004 2.867 1.529 5.521 4.015 6.961l61.422 35.472c1.242.719 2.633 1.077 4.018 1.077zm-8.034-29.46v7.508l-37.301-21.541 37.301-21.475v7.529c0 4.438 3.598 8.035 8.034 8.035h33.031v11.909h-33.031c-4.437.001-8.034 3.594-8.034 8.035zm382.54 120.043c-.742-2.773-2.911-4.936-5.684-5.682-2.761-.73-5.729.049-7.759 2.082l-9.56 9.556-15.032-15.028c-1.506-1.51-3.548-2.354-5.679-2.354h-39.4c-3.246 0-6.18 1.956-7.418 4.956-1.244 3.002-.561 6.457 1.738 8.759l34.67 34.669-9.554 9.56c-2.034 2.029-2.825 4.986-2.079 7.762.742 2.774 2.911 4.938 5.683 5.681l68.565 18.331c.686.183 1.383.27 2.076.27 2.104 0 4.152-.823 5.683-2.354 2.025-2.028 2.821-4.984 2.08-7.757zm-42.469 48.03 5.39-5.394c1.509-1.506 2.354-3.547 2.354-5.68s-.845-4.174-2.354-5.678l-26.634-26.64h16.668l18.365 18.358c3.008 3.02 8.348 3.02 11.359 0l5.395-5.396 11.133 41.57zm-345.631-316.099c.742 2.774 2.912 4.939 5.685 5.684 2.764.728 5.732-.047 7.756-2.082l9.558-9.552 44.555 44.551c1.514 1.514 3.559 2.353 5.679 2.353.26 0 .517-.012.778-.037 2.393-.232 4.554-1.522 5.891-3.519l15.829-23.568c2.146-3.186 1.73-7.442-.987-10.157l-40.62-40.626 9.55-9.556c2.034-2.029 2.826-4.987 2.081-7.765-.743-2.77-2.913-4.936-5.685-5.678l-68.563-18.33c-2.758-.742-5.723.049-7.757 2.082-2.027 2.029-2.821 4.986-2.081 7.76zm42.462-48.022-5.383 5.388c-3.141 3.138-3.141 8.221-.004 11.359l41.631 41.637-6.7 9.971-43.329-43.326c-1.565-1.569-3.626-2.352-5.679-2.352-2.056 0-4.114.782-5.68 2.352l-5.394 5.395-11.133-41.567zm40.649 304.664h-39.401c-2.132 0-4.176.845-5.679 2.354l-15.033 15.028-9.55-9.556c-2.035-2.033-5-2.813-7.764-2.082-2.772.746-4.942 2.908-5.685 5.682l-18.332 68.449c-.74 2.772.054 5.729 2.081 7.757 1.53 1.53 3.579 2.354 5.683 2.354.693 0 1.39-.087 2.074-.27l68.563-18.331c2.771-.742 4.941-2.906 5.685-5.681.745-2.77-.047-5.732-2.075-7.762l-9.556-9.56 34.668-34.669c2.3-2.302 2.987-5.757 1.743-8.759-1.243-2.997-4.176-4.954-7.422-4.954zm-46.032 42.707c-3.141 3.135-3.141 8.221-.004 11.357l5.393 5.394-41.677 11.142 11.129-41.564 5.394 5.391c1.51 1.512 3.551 2.356 5.685 2.356 2.131 0 4.174-.845 5.679-2.356l18.362-18.358h16.675z"/></svg>