<svg id="icons" height="512" viewBox="0 0 64 64" width="512" xmlns="http://www.w3.org/2000/svg"><path d="m51.001 27.99707a.99893.99893 0 0 1 -.666-.25391c-.33984-.30371-8.334-7.52539-8.334-14.74609a9 9 0 0 1 18 0c0 7.2207-7.99414 14.44238-8.334 14.74609a.9989.9989 0 0 1 -.666.25391zm0-22a7.00849 7.00849 0 0 0 -7 7c0 5.20117 5.13476 10.7666 7 12.61719 1.86523-1.85059 7-7.416 7-12.61719a7.0085 7.0085 0 0 0 -7-7z"/><path d="m57.002 52h-22.9893a1 1 0 1 1 0-2h22.9893a1 1 0 0 1 0 2z"/><path d="m16.99316 28a1 1 0 0 1 0-2l28.00977-.00293a1 1 0 0 1 0 2z"/><path d="m57.002 52a1 1 0 1 1 0-2 4.9917 4.9917 0 0 0 0-9.9834 1 1 0 0 1 0-2 6.9917 6.9917 0 0 1 0 13.9834z"/><path d="m16.99316 39.98242a6.99121 6.99121 0 0 1 0-13.98242 1 1 0 1 1 0 2 4.99121 4.99121 0 0 0 0 9.98242 1 1 0 0 1 0 2z"/><path d="m50.99512 16.99707a4 4 0 1 1 4-4.002 4.005 4.005 0 0 1 -4 4.002zm0-6a2 2 0 1 0 2 1.998 2.00156 2.00156 0 0 0 -2-1.998z"/><path d="m57.002 39.98242h-40.00884a1 1 0 1 1 0-2h40.00884a1 1 0 0 1 0 2z"/><path d="m26.00684 60.00293h-24a1.00055 1.00055 0 0 1 -.99219-.876l-1-8.0039a.999.999 0 0 1 .99219-1.124h29a1.00039 1.00039 0 0 1 .89453 1.44727l-4 8.00391a.99932.99932 0 0 1 -.89453.55272zm-23.11719-2h22.499l3-6.00391h-26.249z"/><path d="m25.00684 51.999h-21a.99942.99942 0 0 1 -1-1v-3a.99942.99942 0 0 1 1-1h21a.99943.99943 0 0 1 1 1v3a.99942.99942 0 0 1 -1 1zm-20-2h19v-1h-19z"/><path d="m22.00684 48.999h-15a.99942.99942 0 0 1 -1-1v-3a.99942.99942 0 0 1 1-1h15a.99943.99943 0 0 1 1 1v3a.99942.99942 0 0 1 -1 1zm-14-2h13v-1h-13z"/><path d="m12.00684 45.999a.99942.99942 0 0 1 -1-1v-2a1 1 0 0 1 2 0v2a.99942.99942 0 0 1 -1 1z"/><path d="m17.00684 45.999a.99942.99942 0 0 1 -1-1v-2a1 1 0 0 1 2 0v2a.99942.99942 0 0 1 -1 1z"/><path d="m7.02637 55.999a1 1 0 0 1 -.00977-2h.00977a1 1 0 0 1 0 2z"/><path d="m12.02637 55.999a1 1 0 0 1 -.00977-2h.00977a1 1 0 0 1 0 2z"/><path d="m17.02637 55.999a1 1 0 0 1 -.00977-2h.00977a1 1 0 0 1 0 2z"/><path d="m22.02637 55.999a1 1 0 0 1 -.00977-2h.00977a1 1 0 0 1 0 2z"/></svg>