<svg id="Layer_1" enable-background="new 0 0 65 65" viewBox="0 0 65 65" xmlns="http://www.w3.org/2000/svg"><g><g><path d="m37.4 8.2c.2 3.1.4 8.8 7.2 10.8 2.2.6 8.3 2.4 10.3 4.4.1 0 .5.4 1.2.6l.9 7.5c.6 4.3 7.1 3.7 6.4-.4l-1.4-8.3c.4-.9.5-1.9.2-2.8-.4-1.2-1.4-2.1-2.3-2.6-1.8-4.2-1.8-5.2-3.3-6.4-2.2-1.5-8.6-6.5-9.1-7.6l-1-2.3c-.2-.5-.8-.8-1.3-.5l-8.1 3.3c-.5.2-.8.8-.5 1.3.6 1.6.7.6.8 3zm24.1 23.3c.2 1.4-2.2 1.5-2.4-.1l-.9-6.8c.6 0 1.3-.1 2.1-.3zm-16.3-28.7.6 1.4c.5 1.2 7.5 7.1 9.8 8.4.8.6.9 1.3 1.8 3.5-3.2-1.5-7-3.6-7.6-4.7-.3-.5-.9-.7-1.4-.4s-.7.9-.4 1.4c1.3 2.3 8.5 5.6 10 6.3.5.2 2.1 1.1 2.5 2.1.6 1.9-2.8 2.2-4.2 1.2-2.8-2.6-10.8-4.7-11.1-4.8-7.1-2.2-5.2-9.2-6.1-11.3l-.2-.5z"/><path d="m27.4 6.6.6-1.4c.2-.5 0-1.1-.5-1.3l-8.1-3.3c-.5-.2-1.1 0-1.3.5-1.5 3.5-.6 2.5-5.7 6.5-1.2.9-2.6 2-4.4 3.5-1.1.8-1.4 1.7-2.1 3.4-.3.8-.7 1.8-1.3 3.1-.9.6-1.9 1.4-2.3 2.6-.3.8-.2 1.8.3 2.7l-1.4 8.3c-.7 4.2 5.8 4.7 6.4.4l.9-7.5c.7-.3 1.2-.6 1.3-.7 2-1.9 8.1-3.8 10.3-4.4 8.4-2.5 6.7-11 7.3-12.4zm-21.8 24.7c-.2 1.7-2.7 1.6-2.4.1l1.2-7.3c.8.2 1.5.4 2.1.3zm.5-9c-1.4.1-2.3-.1-1.9-1.5.4-1.1 1.9-1.9 2.5-2.2 1.4-.6 8.7-3.9 10-6.2.3-.5.1-1.1-.4-1.4s-1.1-.1-1.4.4c-.6 1.1-4.4 3.2-7.6 4.7.1-.4.3-.7.4-1 .6-1.6.8-2 1.4-2.5 1.8-1.4 3.3-2.5 4.4-3.4 5.7-4.4 4.7-3.5 5.9-6.4l6.2 2.6-.2.5c-.9 2.1 1 9.1-6 11.3-9.5 2.4-9.9 4.8-13.3 5.1z"/><path d="m30.8 28.5 1.6 2 1.6-2c.4-.5 1.2-.5 1.6 0l.6.7v-5.5h-7.5v5.5l.6-.7c.3-.5 1.1-.5 1.5 0z"/><path d="m52.4 42.9v-16.1c0-1.7-1.3-3-3-3h-11.2v8.3c0 .4-.3.8-.7.9s-.9 0-1.1-.3l-1.6-2-1.6 2c-.4.5-1.2.5-1.6 0l-1.6-2-1.6 2c-.6.7-1.8.3-1.8-.6v-8.3h-11.2c-1.7 0-3 1.3-3 3v28.7c0 1.7 1.3 3 3 3h27.4c-.4-1.2-.7-2.5-.7-3.9 0-6 4.5-11 10.3-11.7zm-26.1 7h-2v-2h2zm-.9-12.3c0-.6.4-1 1-1h12c.5 0 1 .4 1 1 0 .5-.5 1-1 1h-12c-.6 0-1-.5-1-1zm7.9 12.3h-2v-2h2zm7 0h-2v-2h2z"/><path d="m54 44.8c-5.4 0-9.9 4.4-9.9 9.9 0 5.4 4.4 9.9 9.9 9.9 5.4 0 9.9-4.4 9.9-9.9s-4.5-9.9-9.9-9.9zm4 12.5c.4.4.4 1 0 1.4s-1 .4-1.4 0l-2.6-2.7-2.6 2.6c-.4.4-1 .4-1.4 0s-.4-1 0-1.4l2.6-2.6-2.6-2.6c-.4-.4-.4-1 0-1.4s1-.4 1.4 0l2.6 2.6 2.6-2.6c.4-.4 1-.4 1.4 0s.4 1 0 1.4l-2.6 2.6z"/></g></g></svg>