<?xml version="1.0" encoding="utf-8"?>
<!-- Generator: Adobe Illustrator 27.0.0, SVG Export Plug-In . SVG Version: 6.00 Build 0)  -->
<svg version="1.1" id="Layer_1" xmlns="http://www.w3.org/2000/svg" xmlns:xlink="http://www.w3.org/1999/xlink" x="0px" y="0px"
	 viewBox="0 0 700 700" style="enable-background:new 0 0 700 700;" xml:space="preserve">
<style type="text/css">
	.st0{fill:#FFFFFF;}
</style>
<g>
	<path class="st0" d="M547.6,255.1h42.5c17.2,0,31.2-14,31.2-31.2l0-112.4c0-17.2-14-31.1-31.2-31.1h-42.5
		c-15.6,0-28.4,11.5-30.7,26.4l-15.7,0c-13.5,0-24.5,11-24.5,24.5v6.8h-79.4c-9.9-15.7-27.4-26.3-47.3-26.3
		c-19.9,0-37.4,10.5-47.3,26.3h-79.4v-6.8c0-13.5-11-24.5-24.5-24.5h-15.7c-2.3-14.9-15.1-26.4-30.7-26.4h-42.5
		c-17.2,0-31.1,14-31.1,31.1V224c0,17.2,14,31.2,31.1,31.2h42.5c17.2,0,31.1-14,31.1-31.2v-0.1h15.2c13.5,0,24.5-11,24.5-24.5v-1.9
		h79.4c4.5,7.1,10.5,13.2,17.7,17.7v75.7c-7.5,2-13,8.7-13,16.8v67.6c0,8.1,5.5,14.8,13,16.8v93c-7.1,4.5-13.2,10.5-17.7,17.6h-79.4
		v-6.9c0-13.5-11-24.5-24.5-24.5h-15.7c-2.3-14.9-15.1-26.4-30.7-26.4l-42.5,0c-17.2,0-31.1,14-31.1,31.1v112.4
		c0,17.2,14,31.2,31.1,31.2h42.5c17.2,0,31.1-14,31.1-31.2v-0.1h15.2c13.5,0,24.5-11,24.5-24.5v-2h79.4
		c9.9,15.8,27.4,26.3,47.3,26.3c19.9,0,37.4-10.5,47.3-26.3h79.4v2c0,13.5,11,24.5,24.5,24.5h15.2v0.1c0,17.2,14,31.2,31.2,31.2
		h42.5c17.2,0,31.2-14,31.2-31.2l0-112.4c0-17.2-14-31.1-31.2-31.1h-42.5c-15.6,0-28.4,11.5-30.7,26.4l-15.7,0
		c-13.5,0-24.5,11-24.5,24.5v6.9h-79.4c-4.5-7.1-10.5-13.2-17.7-17.6v-93c7.5-2,13-8.7,13-16.8v-67.6c0-8.1-5.5-14.8-13-16.8v-75.7
		c7.1-4.5,13.2-10.5,17.7-17.6h79.4v1.9c0,13.5,11,24.5,24.5,24.5h15.2v0.1C516.4,241.2,530.4,255.1,547.6,255.1L547.6,255.1z
		 M533.9,111.5c0-7.5,6.1-13.6,13.7-13.6h42.5c7.5,0,13.7,6.1,13.7,13.6V224c0,7.5-6.1,13.7-13.7,13.7h-42.5
		c-7.5,0-13.7-6.1-13.7-13.7V111.5z M166.1,224c0,7.5-6.1,13.7-13.6,13.7h-42.5c-7.5,0-13.6-6.1-13.6-13.7V111.5
		c0-7.5,6.1-13.6,13.6-13.6h42.5c7.5,0,13.6,6.1,13.6,13.6L166.1,224z M205.8,199.4c0,3.8-3.2,7-7,7h-15.2v-82.1h15.2
		c3.8,0,7,3.2,7,7V199.4z M223.3,179.9v-24.4h72.2c-0.9,3.9-1.4,8-1.4,12.2s0.5,8.2,1.4,12.2L223.3,179.9z M375.2,307.5v67.6
		l-50.4,0.1l-0.1-67.5L375.2,307.5z M166.1,588.4c0,7.5-6.1,13.7-13.6,13.7h-42.5c-7.5,0-13.6-6.1-13.6-13.7V476
		c0-7.5,6.1-13.6,13.6-13.6h42.5c7.5,0,13.6,6.1,13.6,13.6L166.1,588.4z M205.8,563.9c0,3.8-3.2,7-7,7h-15.2v-82.1h15.2
		c3.8,0,7,3.2,7,7V563.9z M223.3,544.4v-24.3h72.2c-0.9,3.9-1.4,8-1.4,12.2c0,4.2,0.5,8.2,1.4,12.2L223.3,544.4L223.3,544.4z
		 M533.9,476c0-7.5,6.1-13.6,13.7-13.6h42.5c7.5,0,13.7,6.1,13.7,13.6v112.4c0,7.5-6.1,13.7-13.7,13.7h-42.5
		c-7.5,0-13.7-6.1-13.7-13.7V476z M494.2,495.7c0-3.8,3.1-7,7-7h15.2v82.1h-15.2c-3.8,0-7-3.2-7-7V495.7z M476.7,520.1v24.3h-72.2
		c0.9-3.9,1.4-8,1.4-12.2c0-4.2-0.5-8.2-1.4-12.2L476.7,520.1L476.7,520.1z M350,570.7c-21.2,0-38.4-17.2-38.4-38.4
		c0-21.2,17.2-38.4,38.4-38.4c21.2,0,38.4,17.2,38.4,38.4C388.4,553.4,371.2,570.7,350,570.7z M350,476.3c-4.2,0-8.2,0.5-12.2,1.4
		v-85.1h24.4v85.1C358.2,476.8,354.2,476.3,350,476.3L350,476.3z M362.2,290.1h-24.4v-67.8c3.9,0.9,8,1.4,12.2,1.4
		c4.2,0,8.2-0.5,12.2-1.4L362.2,290.1L362.2,290.1z M350,206.2c-21.2,0-38.4-17.2-38.4-38.4c0-21.2,17.2-38.4,38.4-38.4
		c21.2,0,38.4,17.2,38.4,38.4C388.4,189,371.2,206.2,350,206.2z M404.5,179.9c0.9-3.9,1.4-8,1.4-12.2s-0.5-8.2-1.4-12.2h72.2v24.4
		L404.5,179.9z M501.2,206.4c-3.8,0-7-3.1-7-7v-68.1c0-3.8,3.1-7,7-7h15.2v82.1L501.2,206.4z"/>
</g>
</svg>
