<?xml version="1.0" encoding="utf-8"?>
<!-- Generator: Adobe Illustrator 27.0.0, SVG Export Plug-In . SVG Version: 6.00 Build 0)  -->
<svg version="1.1" id="Layer_1" xmlns="http://www.w3.org/2000/svg" xmlns:xlink="http://www.w3.org/1999/xlink" x="0px" y="0px"
	 viewBox="0 0 700 700" style="enable-background:new 0 0 700 700;" xml:space="preserve">
<style type="text/css">
	.st0{fill:#FFFFFF;}
</style>
<g>
	<path class="st0" d="M442.5,561.2c-2.1-12.5-12.7-21.5-25.4-21.5l-242.7,0c-12.6,0-23.3,9-25.4,21.5l-6.5,38.9
		c-0.2,1.4-0.3,2.8-0.3,4.2c0,14.2,11.5,25.7,25.7,25.7h255.7c14.2,0,25.7-11.5,25.7-25.7c0-1.4-0.1-2.8-0.4-4.2L442.5,561.2z
		 M423.7,611.9H168c-4.2,0-7.6-3.4-7.6-7.6c0-0.4,0-0.8,0.1-1.3l6.5-38.9c0.6-3.7,3.8-6.4,7.5-6.4h242.7c3.8,0,6.9,2.7,7.5,6.4
		l6.5,38.9c0.1,0.4,0.1,0.8,0.1,1.3C431.3,608.5,427.9,611.9,423.7,611.9L423.7,611.9z"/>
	<path class="st0" d="M187.4,503.5v18.1h18.1v-33.2c0-31.2-16.3-59.4-42-75.2c25.7-15.8,42-44,42-75.2v-33.2h-18.1v18.1l-90.3,0
		v-18.1l-18.1,0V338c0,31.2,16.3,59.4,42,75.2c-25.7,15.8-42,44-42,75.2v33.2h18.1v-18.1H187.4z M187.2,485.5H97.3
		c0.3-6.2,1.2-12.3,3-18.1h83.8C186,473.2,186.9,479.3,187.2,485.5L187.2,485.5z M97.3,341h89.9c-0.3,6.2-1.2,12.3-3,18.1l-83.8,0
		C98.6,353.3,97.6,347.2,97.3,341L97.3,341z M109.1,377.1h66.3c-7.9,11.8-19.3,21.1-33.1,26.4C128.5,398.1,117,388.9,109.1,377.1
		L109.1,377.1z M142.3,423c13.8,5.3,25.2,14.6,33.1,26.4h-66.3C117,437.6,128.4,428.3,142.3,423L142.3,423z"/>
	<path class="st0" d="M602.9,142.3H404.2c-4.9,0-9.6,1.4-13.7,3.8c-17.6-33.3-51.7-55.9-90.5-57.8C293.7,77.4,282.1,70,268.7,70
		c-13.3,0-24.8,7.3-31.1,18.1H70v18.1h162.6v63.2h-5.3c-5.8,0-11.3-2.3-15.4-6.4l-12.8,12.8c7.5,7.5,17.5,11.7,28.2,11.7h50.5
		c14.9,0,27.1,12.2,27.1,27.1c0,5-4,9-9,9h-88.1c-22.3,0-43.3-8.7-59-24.4l-2.6-2.6H70v18.1h68.6c11.6,10.8,25.4,18.6,40.3,23
		c-0.3,1.3-0.5,2.7-0.5,4.1v18.1c0,10,8.1,18.1,18.1,18.1h36.1v117.4c0,19.9,16.2,36.1,36.1,36.1s36.1-16.2,36.1-36.1V277.7H341
		c6.7,0,12.4-3.7,15.6-9.1c5.5,5.1,12.7,8.3,20.6,8.9v187.8c0,11.1,9.1,20.2,20.2,20.2c7.7,0,14.6-4.3,18.1-11.2l21.5-43h166
		c14.9,0,27.1-12.2,27.1-27.1V169.4C630,154.4,617.8,142.3,602.9,142.3L602.9,142.3z M250.7,169.4v-63.2c0-10,8.1-18.1,18.1-18.1
		c10,0,18.1,8.1,18.1,18.1v63.2H250.7z M313.6,187.4h12.5c4.3,0,8,3.1,8.9,7.3l5.8,28.9h-19.5c1-2.8,1.7-5.9,1.7-9
		C322.9,204.3,319.4,195,313.6,187.4L313.6,187.4z M304.8,241.6v18.1h-27.1v-18.1H304.8z M232.6,259.7v-18.1h27.1v18.1H232.6z
		 M196.5,241.6h18.1v18.1h-18.1L196.5,241.6z M286.8,395.2c0,10-8.1,18.1-18.1,18.1c-10,0-18.1-8.1-18.1-18.1l0-117.4h36.1
		L286.8,395.2z M322.9,259.7v-18.1H341l0,18.1H322.9z M363.9,247l-11.2-55.9c-2.5-12.6-13.7-21.8-26.6-21.8h-21.3v-62.6
		c39,4.4,71.2,33.7,78.6,73l11.5,61.2c0.2,1,0.3,1.9,0.3,2.9c0,8.7-7.1,15.8-15.8,15.8C371.9,259.7,365.4,254.4,363.9,247L363.9,247
		z M611.9,404.2c0,5-4,9-9,9H425.7l-26.5,53c-0.9,1.8-4,1-4-0.9V273.7c10.7-5.7,18.1-16.8,18.1-29.8c0-2.1-0.2-4.2-0.6-6.2
		l-11.5-61.2c-0.9-4.6-2.1-9-3.5-13.3c1.7-1.8,4-2.8,6.5-2.8h198.7c5,0,9,4,9,9L611.9,404.2z"/>
	<path class="st0" d="M485.5,467.4h18.1v18.1h-18.1V467.4z"/>
	<path class="st0" d="M521.6,467.4h90.3v18.1h-90.3V467.4z"/>
	<path class="st0" d="M485.5,503.5h108.4v18.1H485.5L485.5,503.5z"/>
	<path class="st0" d="M485.5,539.7h18.1v18.1h-18.1V539.7z"/>
	<path class="st0" d="M521.6,539.7h18.1v18.1h-18.1V539.7z"/>
	<path class="st0" d="M557.8,539.7h18.1v18.1h-18.1V539.7z"/>
	<path class="st0" d="M525.2,189.2c-5.1-6.8-13.2-10.8-21.7-10.8c-8.5,0-16.6,4-21.7,10.8L471,203.7
		c-25.6,34.2-39.8,76.5-39.8,119.2c0,39.8,32.4,72.3,72.3,72.3s72.3-32.4,72.3-72.3c0-42.7-14.1-85.1-39.7-119.2L525.2,189.2z
		 M503.8,289.6c-5.9-5.9-12.2-11.4-19-16.4l18.8-18.8l18.8,18.8C515.7,278.1,509.6,283.7,503.8,289.6L503.8,289.6z M490.8,241.6
		l-21.5,21.5c-2.6-1.5-5.2-2.9-7.9-4.2c4.1-10.9,9.2-21.5,15.4-31.4L490.8,241.6z M537.8,263.1l-21.5-21.5l14.1-14.1
		c6.2,10,11.3,20.6,15.5,31.6C543.2,260.5,540.5,261.6,537.8,263.1L537.8,263.1z M503.6,196.5c2.8,0,5.5,1.3,7.2,3.6l9.2,12.3
		l-16.5,16.5l-16.5-16.5l9.2-12.3C498,197.8,500.7,196.5,503.6,196.5L503.6,196.5z M449.4,322.9c0-15.8,2.2-31.4,6.3-46.6
		c37.1,19.3,63.6,53.8,72.5,94.8c-7.4,3.8-15.7,6-24.6,6C473.7,377.1,449.4,352.8,449.4,322.9L449.4,322.9z M543.8,359.1
		c-5.6-20.6-15.2-39.6-28-56c10.4-10.7,22.5-19.7,35.8-26.6c4,15.1,6.2,30.7,6.2,46.4C557.7,336.8,552.4,349.5,543.8,359.1
		L543.8,359.1z"/>
</g>
</svg>
