<?xml version="1.0" encoding="utf-8"?>
<!-- Generator: Adobe Illustrator 27.0.0, SVG Export Plug-In . SVG Version: 6.00 Build 0)  -->
<svg version="1.1" id="Layer_1" xmlns="http://www.w3.org/2000/svg" xmlns:xlink="http://www.w3.org/1999/xlink" x="0px" y="0px"
	 viewBox="0 0 700 700" style="enable-background:new 0 0 700 700;" xml:space="preserve">
<style type="text/css">
	.st0{fill:#FFFFFF;}
</style>
<g>
	<path class="st0" d="M616,372.4v-44.8l-61.5,0v-168H392v-44.8H168v212.8H84v44.8l16.9,0.1l-0.1,162.4H84v50.4h532v-50.4h-16.8
		V372.4L616,372.4z M492.8,176.4v40.8l-27.8-9.2l-28.2,9.2v-40.8L492.8,176.4z M420,176.4v64l45-14.7l44.6,14.8l0-64h28.1v151.2H392
		V176.4L420,176.4z M308,131.6v41.7l-27.8-9.2l-28.2,9.2v-41.8L308,131.6z M184.8,131.6h50.4v65l45-14.7l44.6,14.8v-65h50.4v196
		H184.8L184.8,131.6z M599.2,551.6v16.8H100.8v-16.8h16.8l0.1-195.9l-16.9-0.1v-11.2h498.4v11.2h-16.8v196L599.2,551.6z"/>
	<path class="st0" d="M151.2,364.1H168v184.5h-16.8V364.1z"/>
	<path class="st0" d="M526.4,364.1h16.8v184.5h-16.8V364.1z"/>
	<path class="st0" d="M207.2,364.1H224v184.5h-16.8V364.1z"/>
	<path class="st0" d="M257.6,364.1h16.8v184.5h-16.8V364.1z"/>
	<path class="st0" d="M308,364.1h16.8v184.5H308V364.1z"/>
	<path class="st0" d="M364,364.1h16.8v184.5H364V364.1z"/>
	<path class="st0" d="M420,364.1h16.8v184.5H420V364.1z"/>
	<path class="st0" d="M476,364.1h16.8v184.5H476V364.1z"/>
</g>
</svg>
