<?xml version="1.0" encoding="utf-8"?>
<!-- Generator: Adobe Illustrator 27.0.0, SVG Export Plug-In . SVG Version: 6.00 Build 0)  -->
<svg version="1.1" id="Layer_1" xmlns="http://www.w3.org/2000/svg" xmlns:xlink="http://www.w3.org/1999/xlink" x="0px" y="0px"
	 viewBox="0 0 700 700" style="enable-background:new 0 0 700 700;" xml:space="preserve">
<style type="text/css">
	.st0{fill:#FFFFFF;}
</style>
<g>
	<path class="st0" d="M591.8,8.5H108.2c-16.1,0-29.7,13.6-29.7,29.7v376.7c0,17,13.6,29.7,29.7,29.7h152.7L249,486.2h-28.8
		c-30.5,0-56,25.5-56,56c0,5.1,3.4,8.5,8.5,8.5h355.5c5.1,0,8.5-3.4,8.5-8.5c0-30.5-25.5-56-56-56h-28.8L440,444.6h152.7
		c17,0,29.7-13.6,29.7-29.7l0-376.7C621.5,22.1,608,8.5,591.8,8.5L591.8,8.5z M518,534.5H182c4.2-17.8,19.5-30.5,38.2-30.5h259.6
		C498.5,504,514.6,516.7,518,534.5L518,534.5z M433.2,487H266.9l11.9-41.6h142.6L433.2,487z M604.5,414.9c0,6.8-5.9,12.7-12.7,12.7
		H109c-6.8,0-12.7-5.9-12.7-12.7V38.2c-0.9-6.8,5.1-12.7,11.9-12.7H591c7.6,0,13.6,5.9,13.6,12.7L604.5,414.9z"/>
	<path class="st0" d="M495.1,47.5c-11,0-21.2,6.8-24.6,17h-17c-3.4,0-5.9,1.7-7.6,4.2l-13.6,23.8H389V68.7c0-5.1-3.4-8.5-8.5-8.5
		h-65.3c-5.1,0-8.5,3.4-8.5,8.5v23.8h-60.2l-13.6-23.8c-1.7-2.5-4.2-4.2-7.6-4.2h-12.7c-3.4-10.2-13.6-17.8-24.6-17.8
		c-14.4,0-26.3,11.9-26.3,26.3s11.9,26.3,26.3,26.3c11.9,0,21.2-7.6,24.6-17.8h7.6l13.6,23.8c1.7,2.5,4.2,4.2,7.6,4.2h64.5v32.2H255
		c-3.4-10.2-13.6-17.8-24.6-17.8c-14.4,0-26.3,11.9-26.3,26.3s11.9,26.3,26.3,26.3c11.9,0,21.2-7.6,24.6-17.8h50.9v18.7
		c-42.4,17-71.3,58.5-71.3,104.4c0,61.9,50.1,112.9,112.9,112.9c61.9,0,112.9-50.1,112.9-112.9v-4.2v-0.8v-0.8
		c-2.5-44.1-29.7-82.3-71.3-98.4v-18.7h45c2.5,11.9,12.7,20.4,25.5,20.4c14.4,0,26.3-11.9,26.3-26.3s-11.9-26.3-26.3-26.3
		c-10.2,0-19.5,5.9-23.8,15.3H389v-32.2h47.5c3.4,0,5.9-1.7,7.6-4.2l13.6-23.8h11.9c3.4,10.2,13.6,18.7,24.6,18.7
		c14.4,0,26.3-11.9,26.3-26.3C520.6,59.4,509.5,47.5,495.1,47.5L495.1,47.5z M187.9,82.3c-5.1,0-9.3-4.2-9.3-9.3s4.2-9.3,9.3-9.3
		c5.1,0,9.3,4.2,9.3,9.3C197.3,78.1,193,82.3,187.9,82.3z M231.2,159.5c-5.1,0-9.3-4.2-9.3-9.3s4.2-9.3,9.3-9.3s9.3,4.2,9.3,9.3
		C240.5,155.3,236.3,159.5,231.2,159.5z M459.5,143.4c5.1,0,9.3,4.2,9.3,9.3s-4.2,9.3-9.3,9.3s-9.3-4.2-9.3-9.3
		S454.4,143.4,459.5,143.4z M348.3,377.6c-51.8,0-93.3-40.7-95-92.5h190.1C441.6,336.8,399.2,377.6,348.3,377.6L348.3,377.6z
		 M442.5,269H253.3c5.1-35.6,29.7-65.3,64.5-77.2c3.4-0.8,5.9-4.2,5.9-7.6V78.1h48.4v106.1c0,3.4,2.5,6.8,5.9,7.6
		C412.8,202.8,437.4,233.3,442.5,269z M495.1,83.1c-5.1,0-9.3-4.2-9.3-9.3s4.2-9.3,9.3-9.3s9.3,4.2,9.3,9.3
		C504.4,78.9,500.2,83.1,495.1,83.1z"/>
</g>
</svg>
