<?xml version="1.0" encoding="utf-8"?>
<!-- Generator: Adobe Illustrator 27.0.0, SVG Export Plug-In . SVG Version: 6.00 Build 0)  -->
<svg version="1.1" id="Layer_1" xmlns="http://www.w3.org/2000/svg" xmlns:xlink="http://www.w3.org/1999/xlink" x="0px" y="0px"
	 viewBox="0 0 700 700" style="enable-background:new 0 0 700 700;" xml:space="preserve">
<style type="text/css">
	.st0{fill:#FFFFFF;}
</style>
<g>
	<path class="st0" d="M509,201.5v-0.4c0-0.4,0-0.7-0.2-1.1c0-0.2-0.2-0.6-0.2-0.7c-0.2-0.4-0.2-0.6-0.4-0.9
		c-0.2-0.2-0.2-0.6-0.4-0.7c-0.2-0.4-0.4-0.6-0.6-0.9c-0.2-0.2-0.4-0.4-0.4-0.6c-0.2-0.4-0.6-0.6-0.7-0.7s-0.2-0.4-0.4-0.4h-0.2
		c-0.4-0.2-0.6-0.4-0.9-0.6c-0.2-0.2-0.4-0.2-0.6-0.4c-0.4-0.2-0.6-0.2-0.9-0.4c-0.2-0.2-0.6-0.2-0.7-0.4h-0.2l-30.8-8.4
		c3.2-20.5,3.7-38.1-6.3-50.4c-8-9.7-21.7-14.6-41.6-14.6c-22.8,0-43.9,6.9-62.3,18.3c-11.9-16.4-26.7-31-49.7-31
		c-21.8,0-41.4,9.7-55.6,27.1c-13.1,15.9-20,37-19,56l-48,5c-0.4,0-0.6,0.2-0.7,0.2s-0.6,0-0.7,0.2c-0.4,0-0.6,0.2-0.7,0.4
		s-0.6,0.2-0.7,0.4s-0.6,0.4-0.7,0.4c-0.2,0.2-0.4,0.2-0.7,0.4c-0.2,0.2-0.4,0.4-0.7,0.6l-0.6,0.6c-0.2,0.2-0.4,0.6-0.6,0.7
		c-0.2,0.2-0.4,0.4-0.4,0.6c-0.2,0.2-0.4,0.6-0.4,0.7c-0.2,0.2-0.2,0.4-0.4,0.7c-0.2,0.4-0.2,0.6-0.4,0.9c0,0.2-0.2,0.6-0.2,0.7
		c0,0.4,0,0.7-0.2,0.9v0.7l-8.2,352.2c0,3.9,2.2,7.5,5.8,8.8l64.6,26.5h0.2c0.4,0.2,0.7,0.2,1.1,0.4c0.2,0,0.4,0.2,0.6,0.2
		c0.4,0,0.9,0.2,1.3,0.2h0.4h0.6h0.7l271.8-38.1c4.9-0.7,8.2-4.9,8-9.7L509,201.5z M319.2,213.8c2.2-4.9,4.9-9.5,7.7-14.2l53.9-5.6
		c2.2,0.6,4.7,0.4,6.7-0.7l48.5-5c0,0.4,0.2,0.7,0.2,0.9c0.9,3.2,3.4,5.8,6.5,6.5l7.5,2.1v0.4L319.2,213.8z M275.1,212.7
		c-0.9-3.5-4.1-6.2-7.7-6.7l-0.7-0.2l37.5-3.9c-2.4,4.7-4.5,9.5-6.3,14.4l-23.3,2.8C275.5,217.2,275.7,214.9,275.1,212.7
		L275.1,212.7z M356.5,164.7c2.6,4.1,5.4,8.4,8.2,12.3l-23.1,2.4C346.3,174.1,351.3,169.2,356.5,164.7L356.5,164.7z M450.8,146.3
		c3.7,4.7,4.7,12.1,4.1,21.7h-0.7l-67.6,6.9c-5.2-6.2-9.9-13.4-14.9-21.1c16.2-9.9,34-15.3,51.9-15.3
		C437.4,138.4,446.5,141,450.8,146.3L450.8,146.3z M270.3,146.1c7.5-9.1,20.7-20.2,41.3-20.2c14.9,0,25,9.7,34.5,23.1
		c-11.4,9.3-21.5,20.7-29.9,33l-60.5,6.2C255.2,174.1,260.6,158,270.3,146.1L270.3,146.1z M199,215.3l45,6.3l-3.7,3l-0.4,0.4
		c-0.4,0.2-0.6,0.6-0.7,0.7s-0.4,0.4-0.4,0.6c-0.2,0.2-0.4,0.6-0.6,0.7c-0.2,0.2-0.2,0.4-0.4,0.7c-0.2,0.4-0.2,0.6-0.4,0.9
		c0,0.2-0.2,0.6-0.2,0.7c0,0.4-0.2,0.6-0.2,0.9c0,0.2-0.6,0.6-0.6,0.7s-0.6,0.4-0.6,0.4v337.5l-45.4-18.9L199,215.3z M254.6,572.4
		V240.1l36.4-4.3c-3.2,12.3-4.7,25-4.7,37.3c0,5.2,4.3,9.3,9.5,9.3c5.2,0,9.3-4.1,9.3-9.3c0-13.3,2.2-26.7,6.2-39.8l39.2-4.7
		l15.7,40.3l-28.7,11.2l-5.2,12.1l41.6,107.1l12.1,5.2l74.5-28.9l5.2-12.1l-41.6-107.1l-12.1-5.2l-28.2,11l-14-35.6l76.9-9
		c-2.2,13.8-4.3,28.6-4.3,44.1c0,5.2,4.1,9.3,9.3,9.3c5.2,0,9.3-4.1,9.3-9.3c0-15.9,2.2-31.7,4.9-46.3l25-3l16.8,324.6L254.6,572.4z
		 M380.6,306.2c1.5,3.7,5,6,8.8,6c1.1,0,2.2-0.2,3.4-0.6c4.9-1.9,7.1-7.3,5.2-12.1l-7.7-19.6l19.6-7.7l34.9,89.6l-57.1,22.2
		l-34.9-89.6l20.2-7.8L380.6,306.2z"/>
</g>
</svg>
