<?xml version="1.0" encoding="utf-8"?>
<!-- Generator: Adobe Illustrator 27.0.0, SVG Export Plug-In . SVG Version: 6.00 Build 0)  -->
<svg version="1.1" id="Layer_1" xmlns="http://www.w3.org/2000/svg" xmlns:xlink="http://www.w3.org/1999/xlink" x="0px" y="0px"
	 viewBox="0 0 700 700" style="enable-background:new 0 0 700 700;" xml:space="preserve">
<style type="text/css">
	.st0{fill:#FFFFFF;}
</style>
<g>
	<path class="st0" d="M96.3,612.5h175c2.3,0,4.5-0.9,6.2-2.6s2.6-3.9,2.6-6.2v-83.1c3.7-1.2,7.3-2.7,10.8-4.4l33-16.5v42.7
		c0,6.2,1.7,12.2,4.9,17.5h-22.4c-4.8,0-8.8,3.9-8.8,8.8v35c0,2.3,0.9,4.5,2.6,6.2s3.9,2.6,6.2,2.6h297.5c2.3,0,4.5-0.9,6.2-2.6
		s2.6-3.9,2.6-6.2v-35c0-2.3-0.9-4.5-2.6-6.2c-1.6-1.6-3.9-2.6-6.2-2.6h-66.1c3.1-5.3,4.8-11.3,4.9-17.5v-35h35
		c9.3,0,18.2-3.7,24.8-10.2c6.6-6.6,10.2-15.5,10.2-24.8V323.8c0-9.3-3.7-18.2-10.2-24.8c-6.6-6.6-15.5-10.2-24.8-10.2h-43.8
		c-4.8,0-8.8,3.9-8.8,8.8v136L460.5,490H343.3l41.2-20.6h0l66.4-34.1c5.9-3.1,10.4-8.2,12.7-14.5c2.3-6.2,2.1-13.1-0.5-19.2
		l-12.4-28.9c-2.9-6.7-8.4-11.9-15.2-14.4c-6.9-2.5-14.4-2-20.9,1.4l-13.2,6.8c-2.1-6.5-6.9-11.8-13.1-14.5
		c-6.2-2.7-13.4-2.7-19.5,0.2c-6.2,2.8-10.9,8.2-12.8,14.7l-7.7,25.3L280,424.2V323.8c0-5.4-1.7-10.7-4.8-15.1
		c-3.1-4.4-7.6-7.8-12.7-9.5V245h26.2c3.2,0,6.2-1.8,7.7-4.6c1.5-2.8,1.4-6.3-0.4-9l-25.9-38.9h36.2c9.4,0,18-5,22.7-13.1
		c4.7-8.1,4.7-18.1,0-26.2c-4.7-8.1-13.4-13.1-22.7-13.1h-44.4c-0.2-1.1-0.5-2.2-0.7-3.3c-0.3-1.2-0.5-2.5-0.8-3.7
		c-0.4-1.5-0.9-3-1.5-4.4c-0.3-0.9-0.6-1.8-1-2.7c-0.7-1.8-1.5-3.3-2.4-5c-0.3-0.6-0.6-1.2-0.9-1.8c-1-1.8-2.2-3.6-3.4-5.3
		c-0.2-0.3-0.4-0.6-0.6-0.9h0c-1.4-1.9-2.9-3.7-4.5-5.4l-0.2-0.3c-1.7-1.8-3.6-3.5-5.5-5.1l-0.1-0.1c-1.9-1.6-3.9-3-6-4.3
		c-0.1-0.1-0.2-0.1-0.3-0.2H234v0c-3-1.9-6.2-3.6-9.5-4.9l-2-0.8c-7.1-2.9-14.8-4.4-22.4-4.4h-32.6c-7.7,0-15.3,1.5-22.5,4.4l-2,0.8
		h0c-11.2,4.4-20.9,12.2-27.6,22.2c-6.8,10-10.4,21.8-10.4,33.9v150.4c-5.1,1.8-9.5,5.1-12.7,9.6c-3.1,4.4-4.8,9.7-4.8,15.1v280
		c0,2.3,0.9,4.5,2.6,6.2C91.7,611.6,93.9,612.5,96.3,612.5L96.3,612.5z M542.5,306.3h35c4.6,0,9.1,1.8,12.4,5.1
		c3.3,3.3,5.1,7.7,5.1,12.4h-26.2v17.5H595v26.2h-26.2V385H595v26.2h-26.2v17.5H595V455h-26.2v17.5H595c0,4.6-1.8,9.1-5.1,12.4
		s-7.7,5.1-12.4,5.1h-35V306.3z M262.5,560h-79.4l31.7-44.8c14.6,7.9,31.2,11.2,47.7,9.3L262.5,560z M161.7,560h-48.5l63.2-88.4
		c5,13.1,13.2,24.7,23.9,33.8L161.7,560z M595,577.5V595H315v-17.5H595z M525,456.8V490h-38L525,456.8z M525,507.5v35
		c0,4.6-1.8,9.1-5.1,12.4s-7.7,5.1-12.4,5.1v-26.2H490V560h-26.2v-26.2h-17.5V560H420v-26.2h-17.5V560h-26.2v-26.2h-17.5V560
		c-4.6,0-9.1-1.8-12.4-5.1s-5.1-7.7-5.1-12.4v-35H525z M372.6,372c0.9-3,3.9-4.9,7-4.4c3.1,0.5,5.4,3.1,5.4,6.3v6.4
		c0,3.1,1.6,5.9,4.2,7.5c2.6,1.6,5.9,1.7,8.6,0.3l24.9-12.9c2.2-1.1,4.7-1.3,7-0.4c2.3,0.8,4.1,2.6,5.1,4.8l12.4,28.9
		c1.8,4.2,0,9.1-4.1,11.2l-57.9,29.8L364.6,398L372.6,372z M350.7,410.3l18.8,47L283,500.6c-16.8,8.4-36.4,9.2-53.8,2.1
		s-30.9-21.2-37.1-39l-26.7-76.2c-3-8.5-1.7-18,3.4-25.4s13.5-11.9,22.5-12.1c9-0.2,17.6,3.9,23.1,11.1c-8.2,0.4-15.7,4.8-20.1,11.7
		c-4.4,6.9-5.3,15.5-2.3,23.1l6.5,16.9c0.8,2.2,2.5,3.9,4.6,4.9s4.6,1,6.7,0.1l22.2-8.6l13.3,39.9v0c0.8,2.4,2.6,4.3,4.9,5.3
		c2.3,1,4.9,0.9,7.2-0.1L350.7,410.3z M216,378.5c3.5,0,6.6,2.3,7.7,5.6l2.8,8.5l-14.8,5.8l-3.4-8.7v0c-1-2.5-0.6-5.3,0.9-7.6
		C210.8,379.8,213.3,378.5,216,378.5L216,378.5z M241.2,380.9l21.3-29.8v66.2l-6.2,8.9l-10.4-31.2L241.2,380.9z M210,113.8h16.8
		l0.2,0.1h0c6.4,4.5,11.4,10.7,14.5,17.9c0.2,0.6,0.4,1.1,0.7,1.7c0.7,1.7,1.2,3.5,1.6,5.3c0.1,0.4,0.2,0.9,0.3,1.3h-34L210,113.8z
		 M122.5,148.8c0-8.6,2.5-17,7.4-24.1c4.8-7.1,11.7-12.6,19.7-15.8l2-0.8c5.1-2,10.5-3.1,16-3.1h25v43.8c0,2.3,0.9,4.5,2.6,6.2
		c1.6,1.6,3.9,2.6,6.2,2.6h105c4.8,0,8.8,3.9,8.8,8.8s-3.9,8.8-8.8,8.8H122.5V148.8z M122.5,192.5h16.3l-16.3,19.6V192.5z
		 M122.5,239.4l39.1-46.9h87.5l23.3,35h-18.7c-4.8,0-8.8,3.9-8.8,8.8v61.2H122.5V239.4z M105,323.8c0-4.8,3.9-8.8,8.8-8.8h140
		c2.4,0,4.6,1,6.2,2.7c1,1.1,1.8,2.4,2.1,3.9l-27.9,39.1c-6.2-14.7-19.6-25.2-35.4-27.5c-15.8-2.3-31.7,3.8-41.9,16.1
		c-10.2,12.3-13.2,29.1-7.9,44.1l20.4,58.2l-64.3,90L105,323.8z M105,577.5h157.5V595H105V577.5z"/>
	<path class="st0" d="M327.4,444.6l16.1-6.9L350,453l-16.1,6.9L327.4,444.6z"/>
</g>
</svg>
