<?xml version="1.0" encoding="utf-8"?>
<!-- Generator: Adobe Illustrator 27.0.0, SVG Export Plug-In . SVG Version: 6.00 Build 0)  -->
<svg version="1.1" id="Layer_1" xmlns="http://www.w3.org/2000/svg" xmlns:xlink="http://www.w3.org/1999/xlink" x="0px" y="0px"
	 viewBox="0 0 700 700" style="enable-background:new 0 0 700 700;" xml:space="preserve">
<style type="text/css">
	.st0{fill:#FFFFFF;}
</style>
<g>
	<path class="st0" d="M611.8,574.4h-19.9v-16.9l0-116.2H607c3.1,0,5.5-2.5,5.5-5.5V335.5c0-3.1-2.5-5.5-5.5-5.5h-15.1v-46.4
		c0-9.6-7.8-17.3-17.3-17.3H337.5v-54.7c0-6.4,5.2-11.6,11.6-11.6s11.6,5.2,11.6,11.6v18c0,12.6,10.2,22.7,22.7,22.7
		c12.6,0,22.7-10.2,22.7-22.7V201c16.8-2.5,30.5-15.8,32.8-33c0.3-1.8,0.4-3.5,0.4-5.3c0-21.3-17.3-38.6-38.6-38.6
		c-21.4,0-38.7,17.3-38.7,38.6c0,1.8,0.2,3.5,0.4,5.3c2.3,17.1,16,30.5,32.8,32.9v28.7c0,6.4-5.2,11.6-11.6,11.6
		s-11.6-5.2-11.6-11.6v-18c0-12.5-10.2-22.7-22.7-22.7s-22.7,10.2-22.7,22.7v54.7H189.4c-9.6,0-17.3,7.8-17.3,17.3v155.6h-5.4
		c-7,0-12.6-5.7-12.6-12.6l0-175.3c7.1-2.4,12.4-9,12.4-16.9v-24.9c13.1-2.6,25.5-8.1,36-15.9c7.1-5.3,8.7-15.4,3.4-22.6
		c-0.1-0.1-0.3-0.3-0.3-0.4c5.9-10.1,9.1-21.6,9.1-33.3v-32.7c0-7.3-5.9-13.2-13.2-13.2h-12c-2.2-5.5-7.6-9.4-13.9-9.4
		c-8.2,0-15,6.7-15,15c0,8.2,6.7,15,15,15c6.3,0,11.7-3.9,13.9-9.4h12c1.2,0,2.1,0.9,2.1,2.1v32.7c0,9.8-2.5,19.2-7.5,27.6
		c-4.3-0.9-9-0.1-12.9,2.8c-20.4,15.1-48.8,15.1-69.1,0c-3.8-2.9-8.5-3.6-12.8-2.8c-4.9-8.3-7.5-17.8-7.5-27.6v-32.8
		c0-1.2,0.9-2.1,2.1-2.1h12c2.2,5.5,7.6,9.4,13.9,9.4c8.2,0,15-6.7,15-15c0-8.2-6.7-15-15-15c-6.3,0-11.7,3.9-13.9,9.4l-12.1,0
		c-7.3,0-13.2,5.9-13.2,13.2v32.7c0,11.8,3.1,23.2,9.1,33.3c-0.2,0.2-0.3,0.3-0.3,0.4c-5.3,7.2-3.7,17.3,3.4,22.6
		c10.5,7.8,22.8,13.2,35.9,15.9v25c0,7.9,5.2,14.5,12.3,16.8v175.3c0,13.1,10.6,23.8,23.8,23.8h5.4v124.1l-20.1,0
		c-3.1,0-5.5,2.5-5.5,5.5v10.9c0,15.2,12.4,27.6,27.6,27.6h415.7c15.2,0,27.6-12.4,27.6-27.6v-10.9
		C617.4,576.8,614.9,574.4,611.8,574.4L611.8,574.4z M373.3,166.4c-0.2-1.3-0.3-2.5-0.3-3.7c0-15.2,12.4-27.6,27.7-27.6
		c15.2,0,27.6,12.4,27.6,27.6c0,1.3-0.1,2.5-0.3,3.7c-1.8,13.6-13.6,23.8-27.2,23.8C386.8,190.3,375,180,373.3,166.4L373.3,166.4z
		 M175.4,100.9c-2.1,0-3.9-1.8-3.9-3.9s1.8-3.9,3.9-3.9s3.9,1.8,3.9,3.9S177.5,100.9,175.4,100.9z M121.7,93c2.1,0,3.9,1.8,3.9,3.9
		s-1.7,3.9-3.9,3.9s-3.9-1.8-3.9-3.9S119.6,93,121.7,93z M137,199.3c-13.1-1.9-25.4-7-35.7-14.6c-2.1-1.6-2.6-4.6-1-7
		c0.1-0.1,0.2-0.2,0.3-0.3c1.7-2,4.8-2.4,6.9-0.8c24.3,18,58,18,82.3,0c2.1-1.6,5.1-1.3,7,1l0.2,0.2c1.5,2.3,1,5.3-1.1,7
		c-10.4,7.6-22.7,12.7-35.7,14.6c-2.7,0.4-4.8,2.9-4.8,5.6v29.5c0,3.7-3.1,6.7-6.8,6.7s-6.7-3.1-6.7-6.7v-29.6
		C141.7,202,139.7,199.7,137,199.3L137,199.3z M601.4,430.2H457v-89.1h144.4V430.2z M451.5,330c-3.1,0-5.5,2.5-5.5,5.5v100.2
		c0,3.1,2.5,5.5,5.5,5.5h129.3v110.6H183.1V311.4h397.7V330L451.5,330z M183.1,283.7c0-3.5,2.8-6.3,6.3-6.3h385.1
		c3.5,0,6.3,2.8,6.3,6.3v16.7H183.1L183.1,283.7z M183.1,563h397.7v11.4l-397.7,0V563z M354.9,585.4h54v5.3h-54V585.4z M606.3,590.8
		c0,9.1-7.4,16.5-16.5,16.5H174.1c-9.1,0-16.5-7.4-16.5-16.5v-5.3h186.2v10.9c0,3.1,2.5,5.5,5.5,5.5h65.1c3.1,0,5.5-2.5,5.5-5.5
		v-10.9h186.2v5.3H606.3z"/>
	<path class="st0" d="M268.5,454c0.8,0.4,1.7,0.7,2.6,0.7s1.8-0.3,2.6-0.7c2.4-1.3,58.5-32.3,58.5-75.9c0-21.8-17.7-39.5-39.5-39.5
		c-7.7,0-15.3,2.2-21.6,6.4c-6.4-4.2-13.8-6.4-21.6-6.4c-21.8,0-39.5,17.7-39.5,39.5C210,421.8,266.1,452.7,268.5,454L268.5,454z
		 M249.5,349.7c6.6,0,13,2.3,18,6.4c2,1.7,5,1.7,7.1,0c5.1-4.2,11.3-6.4,18.1-6.4c15.7,0,28.4,12.7,28.4,28.4
		c0,32.2-39.4,58.1-50.1,64.7c-10.7-6.4-50.1-32.5-50.1-64.7C221,362.5,233.8,349.7,249.5,349.7L249.5,349.7z"/>
	<path class="st0" d="M346.8,361.2h80.9c3.1,0,5.5-2.5,5.5-5.5s-2.5-5.5-5.5-5.5h-80.9c-3.1,0-5.5,2.5-5.5,5.5
		S343.7,361.2,346.8,361.2z"/>
	<path class="st0" d="M346.8,385.8h78.9c3.1,0,5.5-2.5,5.5-5.5s-2.5-5.5-5.5-5.5h-78.9c-3.1,0-5.5,2.5-5.5,5.5
		S343.7,385.8,346.8,385.8z"/>
	<path class="st0" d="M346.8,410.4h78.9c3.1,0,5.5-2.5,5.5-5.5s-2.5-5.5-5.5-5.5h-78.9c-3.1,0-5.5,2.5-5.5,5.5
		S343.7,410.4,346.8,410.4z"/>
	<path class="st0" d="M346.8,435h45.6c3.1,0,5.5-2.5,5.5-5.5s-2.5-5.5-5.5-5.5h-45.6c-3.1,0-5.5,2.5-5.5,5.5S343.7,435,346.8,435z"
		/>
	<path class="st0" d="M559.5,377.6c-0.8-2-2.8-3.3-4.9-3.3c-2.2-0.1-4.2,1.1-5.1,3.1l-9.1,17.7l-14.3-33.8c-0.8-2.1-3-3.5-5.2-3.4
		c-2.3,0.1-4.2,1.4-5.1,3.6l-7.9,20.9l-4.6-10.5c-0.8-1.8-2.5-3.1-4.5-3.3c-2-0.2-3.9,0.7-5.1,2.3l-8.4,11.8l-7.2,0
		c-3.1,0-5.5,2.5-5.5,5.5s2.5,5.5,5.5,5.5h10.1c1.8,0,3.5-0.8,4.5-2.3l4.4-6.2l6.1,14c0.9,2,2.9,3.4,5.2,3.3c2.2-0.1,4.2-1.4,5-3.6
		l7.8-20.6l13.6,32c0.8,2,2.7,3.3,4.9,3.4h0.2c2,0,4-1.2,4.9-3.1l9.3-18.2c1,1.1,2.5,1.8,4.1,1.8h28.1c3.1,0,5.5-2.5,5.5-5.5
		s-2.5-5.5-5.5-5.5h-24.4L559.5,377.6z"/>
	<path class="st0" d="M214.8,480.6v28.3c0,3.1,2.5,5.5,5.5,5.5h323.1c3.1,0,5.5-2.5,5.5-5.5v-28.3c0-3.1-2.5-5.5-5.5-5.5h-323
		C217.4,475,214.8,477.6,214.8,480.6L214.8,480.6z M226,486.2h312v17.1H226L226,486.2z"/>
	<path class="st0" d="M420.8,162.7c0-11.1-9.1-20.2-20.2-20.2c-11.1,0-20.2,9.1-20.2,20.2c0,11.1,9.1,20.2,20.2,20.2
		C411.7,182.9,420.8,173.8,420.8,162.7z M400.6,171.9c-5,0-9.2-4.1-9.2-9.2c0-5,4.1-9.2,9.2-9.2c5,0,9.2,4.1,9.2,9.2
		C409.7,167.7,405.6,171.9,400.6,171.9z"/>
</g>
</svg>
