<?xml version="1.0" encoding="utf-8"?>
<!-- Generator: Adobe Illustrator 27.0.0, SVG Export Plug-In . SVG Version: 6.00 Build 0)  -->
<svg version="1.1" id="Layer_1" xmlns="http://www.w3.org/2000/svg" xmlns:xlink="http://www.w3.org/1999/xlink" x="0px" y="0px"
	 viewBox="0 0 700 700" style="enable-background:new 0 0 700 700;" xml:space="preserve">
<style type="text/css">
	.st0{fill:#FFFFFF;}
</style>
<g>
	<path class="st0" d="M140,157.5h166.3c4.8,0,8.8-3.9,8.8-8.8s-3.9-8.8-8.8-8.8H140c-4.8,0-8.8,3.9-8.8,8.8S135.2,157.5,140,157.5z"
		/>
	<path class="st0" d="M148.8,183.7c0,4.8,3.9,8.8,8.8,8.8h175c4.8,0,8.8-3.9,8.8-8.8s-3.9-8.8-8.8-8.8h-175
		C152.7,175,148.8,178.9,148.8,183.7z"/>
	<path class="st0" d="M280.1,385.1H157.5c-4.8,0-8.8,3.9-8.8,8.8s3.9,8.8,8.8,8.8h122.5c4.8,0,8.8-3.9,8.8-8.8
		S284.9,385.1,280.1,385.1z"/>
	<path class="st0" d="M367.5,192.5H385c4.8,0,8.8-3.9,8.8-8.8s-3.9-8.8-8.8-8.8h-17.5c-4.8,0-8.8,3.9-8.8,8.8
		S362.7,192.5,367.5,192.5z"/>
	<path class="st0" d="M192.5,420H140c-4.8,0-8.8,3.9-8.8,8.8s3.9,8.8,8.8,8.8h52.5c4.8,0,8.8-3.9,8.8-8.8S197.4,420,192.5,420z"/>
	<path class="st0" d="M175,227.5h35c4.8,0,8.8-3.9,8.8-8.8s-3.9-8.8-8.8-8.8h-35c-4.8,0-8.8,3.9-8.8,8.8S170.2,227.5,175,227.5z"/>
	<path class="st0" d="M236.3,218.7c0,4.8,3.9,8.8,8.8,8.8h183.8c4.8,0,8.8-3.9,8.8-8.8s-3.9-8.8-8.8-8.8H245
		C240.2,210,236.3,213.9,236.3,218.7z"/>
	<path class="st0" d="M376.3,245H175c-4.8,0-8.8,3.9-8.8,8.8c0,4.8,3.9,8.8,8.8,8.8h201.3c4.8,0,8.8-3.9,8.8-8.8
		C385,248.9,381.1,245,376.3,245z"/>
	<path class="st0" d="M297.5,288.7c0-4.8-3.9-8.8-8.8-8.8H175c-4.8,0-8.8,3.9-8.8,8.8c0,4.8,3.9,8.8,8.8,8.8h113.8
		C293.6,297.5,297.5,293.5,297.5,288.7z"/>
	<path class="st0" d="M350.1,350H175c-4.8,0-8.8,3.9-8.8,8.8s3.9,8.8,8.8,8.8h175.1c4.8,0,8.8-3.9,8.8-8.8S354.9,350,350.1,350z"/>
	<path class="st0" d="M236.3,332.5H350c4.8,0,8.8-3.9,8.8-8.8s-3.9-8.8-8.8-8.8H236.3c-4.8,0-8.8,3.9-8.8,8.8
		C227.5,328.5,231.4,332.5,236.3,332.5L236.3,332.5z"/>
	<path class="st0" d="M175,315c-4.8,0-8.8,3.9-8.8,8.8c0,4.8,3.9,8.8,8.8,8.8h26.3c4.8,0,8.8-3.9,8.8-8.8s-3.9-8.8-8.8-8.8H175z"/>
	<path class="st0" d="M627.4,343.8l-52.5-52.5c-0.8-0.8-1.8-1.4-2.8-1.9c-1.1-0.4-2.2-0.7-3.4-0.7h-43.9l0-174.9
		c0-0.3-0.1-0.5-0.2-0.8V96.2c0-14.5-11.8-26.2-26.2-26.2H96.3C81.8,70,70,81.8,70,96.2v17.5c0,0.3,0.1,0.5,0.2,0.8v357.9
		c0,4.8,3.9,8.8,8.8,8.8h297.3v140c0,4.8,3.9,8.8,8.8,8.8h210c4.8,0,8.8-3.9,8.8-8.8v-17.5h17.5c4.8,0,8.8-3.9,8.8-8.8V350
		c0-1.2-0.2-2.3-0.7-3.4C628.9,345.5,628.2,344.6,627.4,343.8L627.4,343.8z M577.5,318.6l22.6,22.7h-22.6V318.6z M96.3,87.5h8.9
		c-4.8,0-8.7,3.9-8.7,8.8c0,4.8,4,8.8,8.8,8.8s8.8-3.9,8.8-8.8c0-4.8-3.9-8.8-8.8-8.8h26.2c-4.8,0-8.7,3.9-8.7,8.8
		c0,4.8,4,8.8,8.8,8.8s8.8-3.9,8.8-8.8c0-4.8-3.9-8.8-8.8-8.8h26.2c-4.8,0-8.7,3.9-8.7,8.8c0,4.8,4,8.8,8.8,8.8
		c4.8,0,8.8-3.9,8.8-8.8c0-4.8-3.9-8.8-8.8-8.8h340.7c4.8,0,8.8,3.9,8.8,8.8v8.8h-402c-0.1,0-0.1,0-0.2,0s-0.1,0-0.2,0H87.5v-8.8
		C87.5,91.4,91.4,87.5,96.3,87.5L96.3,87.5z M87.7,122.5h8.6v341.2h-8.6V122.5z M113.8,463.7V122.5h393.6v166.2h-96.1
		c-4.8,0-8.8,3.9-8.8,8.8V315H385c-4.8,0-8.8,3.9-8.8,8.8v140L113.8,463.7z M586.2,612.5H393.8v-280h8.8V595c0,4.8,3.9,8.8,8.8,8.8
		h175L586.2,612.5z M420,586.2v-280h95.8c0.1,0,0.2,0.1,0.3,0.1s0.2-0.1,0.3-0.1H560V350c0,4.8,3.9,8.8,8.8,8.8h43.8v227.5
		L420,586.2z"/>
	<path class="st0" d="M577.5,402.5H455c-4.8,0-8.8,3.9-8.8,8.8s3.9,8.8,8.8,8.8h122.5c4.8,0,8.8-3.9,8.8-8.8
		S582.3,402.5,577.5,402.5z"/>
	<path class="st0" d="M577.5,437.5H455c-4.8,0-8.8,3.9-8.8,8.8s3.9,8.8,8.8,8.8h122.5c4.8,0,8.8-3.9,8.8-8.8
		S582.3,437.5,577.5,437.5z"/>
	<path class="st0" d="M577.5,472.5H455c-4.8,0-8.8,3.9-8.8,8.8s3.9,8.8,8.8,8.8h122.5c4.8,0,8.8-3.9,8.8-8.8
		S582.3,472.5,577.5,472.5z"/>
	<path class="st0" d="M516.2,507.5H455c-4.8,0-8.8,3.9-8.8,8.8c0,4.8,3.9,8.8,8.8,8.8h61.2c4.8,0,8.8-3.9,8.8-8.8
		C525,511.4,521.1,507.5,516.2,507.5z"/>
</g>
</svg>
