<?xml version="1.0" encoding="utf-8"?>
<!-- Generator: Adobe Illustrator 27.0.0, SVG Export Plug-In . SVG Version: 6.00 Build 0)  -->
<svg version="1.1" id="Layer_1" xmlns="http://www.w3.org/2000/svg" xmlns:xlink="http://www.w3.org/1999/xlink" x="0px" y="0px"
	 viewBox="0 0 700 700" style="enable-background:new 0 0 700 700;" xml:space="preserve">
<style type="text/css">
	.st0{fill:#FFFFFF;}
</style>
<g>
	<path class="st0" d="M618.1,586.5h-52.3c-2.5,0-4.5,2-4.5,4.5c0,2.5,2,4.5,4.5,4.5h52.3c2.5,0,4.5-2,4.5-4.5
		C622.6,588.5,620.6,586.5,618.1,586.5z"/>
	<path class="st0" d="M134.2,586.5H81.9c-2.5,0-4.5,2-4.5,4.5c0,2.5,2,4.5,4.5,4.5h52.3c2.5,0,4.5-2,4.5-4.5
		C138.7,588.5,136.7,586.5,134.2,586.5z"/>
	<path class="st0" d="M544.8,586.5V425.1c0,0,0,0,0-0.1c0.1-5.7,3.3-139.1-13.6-179.3c-3.6-8.6-11.7-14.2-20.8-14.7l-9-14.2
		c15-9.9,25-23.4,29.6-40.6c0.2-0.7,3.2-16.1-2.5-27.8c0.8-0.7,1.5-1.5,2.1-2.4c1.7-2.9,1.8-6.5,0.3-9.5l-10.3-20.9
		c-1.5-3.2-4.6-5.4-8.2-5.7l-57.7-5.2c-0.1,0-0.7,0-0.8,0c-5,0-9.1,3.7-9.6,8.5l-2,16.6c-0.1,0.4-0.4,0.7-0.8,0.7H418
		c-5.7,0-10.3,4.6-10.3,10.3c0,5.7,4.6,10.2,10.3,10.2h21.6c-3.2,14.2-10.1,50.3-3.7,69.1c2.6,7.5,9.8,12.6,18,12.6
		c2.2,0,6.2-0.7,8.4-1v20.8c-2.5,2.6-4.5,5.7-5.8,9.1l-19.7,52.8c-0.3,0.7-1,1.2-2,1.2h0l-71.6-7.2c-2-3.6-6.4-9.6-13.5-9.6
		c-2.7,0-5.4,0.9-8,2.7c-0.2,0.1-0.4,0.3-0.6,0.5c-0.1,0.1-9.5,8.2-34.6,6.2c-1.2-0.1-2.4,0.3-3.3,1.1c-1.9,1.6-3.9,4.8-3.2,8.2
		c0.6,3.2,3.1,5.5,7,6.9c0.7,0.3,18.4,8.1,34.1,8.1c6.6,0,12-1.5,16.1-4.2l81.6,29.1c4.3,1.5,9.3,0.1,12-3.3l7.4-8.9v79.9
		c0,0,0,0.1,0,0.1v161.6h-26.7c2.6-3.5,4.1-7.8,4.1-12.5l0-174.1c0-11.8-9.6-21.4-21.4-21.4H197.5c-11.8,0-21.4,9.6-21.4,21.4v174.1
		c0,4.7,1.6,9,4.1,12.5h-24.7c-2.5,0-4.5,2-4.5,4.5c0,2.5,2,4.5,4.5,4.5h389c2.5,0,4.5-2,4.5-4.5C549,588.6,547.1,586.7,544.8,586.5
		L544.8,586.5z M352.6,320.4c-2.7,1.9-6.6,2.9-11.7,2.9c-10.1,0-21.6-3.9-27.3-6c21.6,0.3,31.1-6.9,33.2-8.7c1-0.6,1.9-1,2.7-1
		c2.3,0,4.5,2.9,5.8,5.1C355.1,313.4,352.4,321.1,352.6,320.4L352.6,320.4z M281.2,387.3h49.2V408h-49.2V387.3z M330.4,586.5h-49.2
		v-20.7h49.2V586.5z M426.5,574c0,6.9-5.6,12.5-12.5,12.5l-74.7,0v-25.1c0-2.5-2-4.5-4.5-4.5h-58.1c-2.5,0-4.5,2-4.5,4.5v25.1h-74.7
		c-6.9,0-12.5-5.6-12.5-12.5V399.9c0-6.9,5.6-12.5,12.5-12.5h74.7v25.1c0,2.5,2,4.5,4.5,4.5h58.1c2.5,0,4.5-2,4.5-4.5v-25.1H414
		c6.9,0,12.5,5.6,12.5,12.5V574z M418,142c-0.8,0-1.4-0.6-1.4-1.3c0-0.8,0.6-1.4,1.4-1.4h23.5c4.8,0,9-3.6,9.6-8.5l2-16.7
		c0-0.4,0.4-0.6,0.8-0.6l57.7,5.2c0.4,0,0.7,0.3,0.9,0.7l10.3,21c0.2,0.4,0.1,0.8,0,1.1c-0.1,0.2-0.4,0.5-0.9,0.6l-76.7,0L418,142z
		 M455.1,223.7c-4.8,0.6-9.3-2.2-10.8-6.5c-5.9-17.5,1.8-54.7,4.4-66.2h71c5.2,8.8,2.5,23.2,2.5,23.2l0,0
		C514.1,204.6,486,219.9,455.1,223.7L455.1,223.7z M500.6,232.3c-2.3,0.8-4.3,1.9-29.5,13.9v-16.4c7.4-1.9,15.8-4.9,22.6-8.4
		L500.6,232.3z M490.6,586.5l10.9-101.9l10.9,101.9H490.6z M535.9,586.5h-14.6L505.9,442c-0.2-2.3-2.2-4-4.4-4c-2.3,0-4.2,1.7-4.4,4
		l-15.4,144.4H467V429.3h68.9L535.9,586.5z M536,420.4h-69v-87.9c0-1.9-1.2-3.6-3-4.2c-1.8-0.6-3.8-0.1-4.9,1.4l-15.4,18.5
		c-0.5,0.6-1.4,0.8-2.1,0.5l-79.6-28.3l1.1-3.1l70.5,7.1c4.9,0.5,9.6-2.4,11.3-7l19.7-52.9c4.3-11.6,16.8-11.6,37.5-23.2
		c1.9-0.9,3.9-1.4,5.8-1.5c0.6,0.2,10.6-0.8,14.9,9.4C537.5,283.7,536.4,396.7,536,420.4L536,420.4z"/>
	<path class="st0" d="M206.7,270.1h-27c-2.5,0-4.5,2-4.5,4.5v38.7h-15.8c-1.8,0-3.4,1.1-4.1,2.8c-0.7,1.7-0.3,3.6,1,4.9l33.8,33.8
		c0.8,0.8,2,1.3,3.2,1.3s2.3-0.5,3.2-1.3l33.8-33.8c1.3-1.3,1.7-3.2,1-4.9c-0.7-1.7-2.3-2.8-4.1-2.8h-15.8v-38.7
		C211.2,272.1,209.2,270.1,206.7,270.1L206.7,270.1z M216.2,322.2l-23,23l-23-23h9.5c2.5,0,4.5-2,4.5-4.5v-38.7h18.1v38.7
		c0,2.5,2,4.5,4.5,4.5H216.2z"/>
	<path class="st0" d="M366.9,287.3c6.6,0,12-5.4,12-12l0-100.4c0-6.6-5.4-12-12-12H261.6c-6.6,0-12,5.4-12,12v100.4
		c0,6.6,5.4,12,12,12H366.9z M297.4,171.8H331v14.9h-33.6V171.8z M258.5,275.3V174.8c0-1.7,1.4-3.1,3.1-3.1h26.9v19.4
		c0,2.5,2,4.5,4.5,4.5h42.6c2.5,0,4.5-2,4.5-4.5v-19.4h26.9c1.7,0,3.1,1.4,3.1,3.1v100.4c0,1.7-1.4,3.1-3.1,3.1l-105.3,0
		C259.9,278.3,258.5,277,258.5,275.3L258.5,275.3z"/>
</g>
</svg>
