<?xml version="1.0" encoding="utf-8"?>
<!-- Generator: Adobe Illustrator 27.0.0, SVG Export Plug-In . SVG Version: 6.00 Build 0)  -->
<svg version="1.1" id="Layer_1" xmlns="http://www.w3.org/2000/svg" xmlns:xlink="http://www.w3.org/1999/xlink" x="0px" y="0px"
	 viewBox="0 0 700 700" style="enable-background:new 0 0 700 700;" xml:space="preserve">
<style type="text/css">
	.st0{fill:#FFFFFF;}
</style>
<g>
	<path class="st0" d="M595,210H297.5c-2.3,0-4.5,0.9-6.2,2.6c-1.6,1.6-2.6,3.9-2.6,6.2V350h17.5v-17.5h157.5V595h-140v17.5H595
		c2.3,0,4.5-0.9,6.2-2.6s2.6-3.9,2.6-6.2v-385c0-2.3-0.9-4.5-2.6-6.2S597.3,210,595,210z M306.3,315v-87.5h157.5V315H306.3z
		 M586.3,595h-105V227.5h105V595z"/>
	<path class="st0" d="M428.8,367.5h17.5V420h-17.5V367.5z"/>
	<path class="st0" d="M428.8,245h17.5v52.5h-17.5V245z"/>
	<path class="st0" d="M262.5,560h-8.7v-35h113.7c2.3,0,4.5-0.9,6.2-2.6c1.6-1.6,2.6-3.9,2.6-6.2v-140c0-2.3-0.9-4.5-2.6-6.2
		s-3.9-2.6-6.2-2.6H105c-2.3,0-4.5,0.9-6.2,2.6s-2.6,3.9-2.6,6.2v140c0,2.3,0.9,4.5,2.6,6.2c1.6,1.6,3.9,2.6,6.2,2.6h96.2v35h-8.8
		c-11.6,0-22.7,4.6-30.9,12.8s-12.8,19.3-12.8,30.9c0,2.3,0.9,4.5,2.6,6.2s3.9,2.6,6.2,2.6h140c2.3,0,4.5-0.9,6.2-2.6
		c1.6-1.6,2.6-3.9,2.6-6.2c0-11.6-4.6-22.7-12.8-30.9S274.1,560,262.5,560z M358.8,507.5h-17.5V385h17.5V507.5z M113.8,385h210
		v122.5h-210V385z M218.8,525h17.5v35h-17.5V525z M167.8,595c1.8-5.1,5.2-9.5,9.6-12.7c4.4-3.1,9.7-4.8,15.2-4.8h70
		c5.4,0,10.7,1.7,15.2,4.8c4.4,3.1,7.8,7.6,9.6,12.7H167.8z"/>
	<path class="st0" d="M140,245h8.8v8.8c0,2.3,0.9,4.5,2.6,6.2s3.9,2.6,6.2,2.6h105c2.3,0,4.5-0.9,6.2-2.6c1.6-1.6,2.6-3.9,2.6-6.2
		v-35c0-2.3-0.9-4.5-2.6-6.2s-3.9-2.6-6.2-2.6h-105c-2.3,0-4.5,0.9-6.2,2.6s-2.6,3.9-2.6,6.2v8.8H140c-7,0-13.6-2.8-18.6-7.7
		c-4.9-4.9-7.7-11.6-7.7-18.6v-70c0-7,2.8-13.6,7.7-18.6c4.9-4.9,11.6-7.7,18.6-7.7h175c-5.7,7.6-8.8,16.8-8.8,26.2v61.2h17.5v-61.2
		c0-7,2.8-13.6,7.7-18.6c4.9-4.9,11.6-7.7,18.6-7.7h61.2v87h17.5V96.2c0-2.3-0.9-4.5-2.6-6.2s-3.9-2.6-6.2-2.6H140
		c-11.6,0-22.7,4.6-30.9,12.8s-12.8,19.3-12.8,30.9v70c0,11.6,4.6,22.7,12.8,30.9S128.4,245,140,245L140,245z M166.3,227.5h87.5V245
		h-87.5V227.5z"/>
	<path class="st0" d="M131.3,166.3h157.5v17.5H131.3V166.3z"/>
	<path class="st0" d="M218.8,140c0,4.8-3.9,8.8-8.8,8.8s-8.8-3.9-8.8-8.8s3.9-8.8,8.8-8.8S218.8,135.2,218.8,140"/>
</g>
</svg>
