<?xml version="1.0" encoding="utf-8"?>
<!-- Generator: Adobe Illustrator 27.0.0, SVG Export Plug-In . SVG Version: 6.00 Build 0)  -->
<svg version="1.1" id="Layer_1" xmlns="http://www.w3.org/2000/svg" xmlns:xlink="http://www.w3.org/1999/xlink" x="0px" y="0px"
	 viewBox="0 0 700 700" style="enable-background:new 0 0 700 700;" xml:space="preserve">
<style type="text/css">
	.st0{fill:#FFFFFF;}
</style>
<g>
	<path class="st0" d="M193.1,398.6c0-16.2-13.2-29.3-29.3-29.3c-16.2,0-29.3,13.2-29.3,29.3s13.2,29.3,29.3,29.3
		S193.1,414.8,193.1,398.6L193.1,398.6z M147.6,398.6c0-8.9,7.2-16.1,16.1-16.1c8.9,0,16.1,7.2,16.1,16.1s-7.2,16.1-16.1,16.1
		C154.8,414.7,147.6,407.5,147.6,398.6z"/>
	<path class="st0" d="M237.8,427.9c16.2,0,29.3-13.2,29.3-29.3s-13.2-29.3-29.3-29.3s-29.3,13.2-29.3,29.3
		C208.5,414.8,221.7,427.9,237.8,427.9z M237.8,382.5c8.9,0,16.1,7.2,16.1,16.1c0,8.9-7.2,16.1-16.1,16.1c-8.9,0-16.1-7.2-16.1-16.1
		C221.7,389.7,228.9,382.5,237.8,382.5z"/>
	<path class="st0" d="M312,427.9c16.2,0,29.3-13.2,29.3-29.3s-13.2-29.3-29.3-29.3s-29.3,13.2-29.3,29.3S295.8,427.9,312,427.9z
		 M312,382.5c8.9,0,16.1,7.2,16.1,16.1c0,8.9-7.2,16.1-16.1,16.1s-16.1-7.2-16.1-16.1C295.8,389.7,303.1,382.5,312,382.5z"/>
	<path class="st0" d="M386.1,427.9c16.2,0,29.3-13.2,29.3-29.3s-13.2-29.3-29.3-29.3s-29.3,13.2-29.3,29.3S369.9,427.9,386.1,427.9z
		 M386.1,382.5c8.9,0,16.1,7.2,16.1,16.1c0,8.9-7.2,16.1-16.1,16.1c-8.9,0-16.1-7.2-16.1-16.1C369.9,389.7,377.2,382.5,386.1,382.5z
		"/>
	<path class="st0" d="M460.2,427.9c16.2,0,29.3-13.2,29.3-29.3s-13.2-29.3-29.3-29.3s-29.3,13.2-29.3,29.3
		C430.9,414.8,444,427.9,460.2,427.9z M460.2,382.5c8.9,0,16.1,7.2,16.1,16.1c0,8.9-7.2,16.1-16.1,16.1s-16.1-7.2-16.1-16.1
		C444.1,389.7,451.3,382.5,460.2,382.5z"/>
	<path class="st0" d="M534.3,427.9c16.2,0,29.3-13.2,29.3-29.3s-13.2-29.3-29.3-29.3S505,382.4,505,398.6
		C505,414.8,518.1,427.9,534.3,427.9z M534.3,382.5c8.9,0,16.1,7.2,16.1,16.1c0,8.9-7.2,16.1-16.1,16.1c-8.9,0-16.1-7.2-16.1-16.1
		C518.2,389.7,525.4,382.5,534.3,382.5z"/>
	<path class="st0" d="M407,211.2c-3.6,0-6.6,3-6.6,6.6v65.4c0,3.6,3,6.6,6.6,6.6c3.6,0,6.6-3,6.6-6.6v-65.4
		C413.6,214.1,410.7,211.2,407,211.2L407,211.2z"/>
	<path class="st0" d="M407,294.3c-3.6,0-6.6,3-6.6,6.6v8.6c0,3.6,3,6.6,6.6,6.6c3.6,0,6.6-3,6.6-6.6v-8.6
		C413.6,297.3,410.7,294.3,407,294.3z"/>
	<path class="st0" d="M517.2,317.7h-37.7c-3.6,0-6.6,3-6.6,6.6c0,3.6,3,6.6,6.6,6.6h37.7c3.6,0,6.6-3,6.6-6.6
		C523.8,320.6,520.8,317.7,517.2,317.7z"/>
	<path class="st0" d="M517.2,298.6h-37.7c-3.6,0-6.6,3-6.6,6.6c0,3.6,3,6.6,6.6,6.6h37.7c3.6,0,6.6-3,6.6-6.6
		C523.8,301.6,520.8,298.6,517.2,298.6z"/>
	<path class="st0" d="M517.2,279.6h-37.7c-3.6,0-6.6,3-6.6,6.6c0,3.6,3,6.6,6.6,6.6h37.7c3.6,0,6.6-3,6.6-6.6
		C523.8,282.6,520.8,279.6,517.2,279.6z"/>
	<path class="st0" d="M188.2,211.2c-3.6,0-6.6,3-6.6,6.6v65.4c0,3.6,3,6.6,6.6,6.6c3.6,0,6.6-3,6.6-6.6v-65.4
		C194.8,214.1,191.8,211.2,188.2,211.2L188.2,211.2z"/>
	<path class="st0" d="M188.2,294.3c-3.6,0-6.6,3-6.6,6.6v8.6c0,3.6,3,6.6,6.6,6.6c3.6,0,6.6-3,6.6-6.6v-8.6
		C194.8,297.3,191.8,294.3,188.2,294.3z"/>
	<path class="st0" d="M298.3,317.7h-37.7c-3.6,0-6.6,3-6.6,6.6c0,3.6,3,6.6,6.6,6.6h37.7c3.6,0,6.6-3,6.6-6.6
		C304.9,320.6,302,317.7,298.3,317.7z"/>
	<path class="st0" d="M298.3,298.6h-37.7c-3.6,0-6.6,3-6.6,6.6c0,3.6,3,6.6,6.6,6.6h37.7c3.6,0,6.6-3,6.6-6.6
		C304.9,301.6,302,298.6,298.3,298.6z"/>
	<path class="st0" d="M298.3,279.6h-37.7c-3.6,0-6.6,3-6.6,6.6c0,3.6,3,6.6,6.6,6.6h37.7c3.6,0,6.6-3,6.6-6.6
		C304.9,282.6,302,279.6,298.3,279.6z"/>
	<path class="st0" d="M590.6,474h-24.7L550,456.4c26.9-5.5,47.2-29.3,47.2-57.8c0-28.9-21-53-48.6-57.9V190.7c0-3.6-3-6.6-6.6-6.6
		H375.9c-3.6,0-6.6,3-6.6,6.6v148.9h-39.5V190.7c0-3.6-3-6.6-6.6-6.6H157c-3.6,0-6.6,3-6.6,6.6v150.1c-27.1,5.3-47.6,29.2-47.6,57.8
		c0,28.5,20.3,52.3,47.2,57.8L134.1,474l-17.6,0c-3.6,0-6.6,3-6.6,6.6v28.6c0,3.6,3,6.6,6.6,6.6h474.1c3.6,0,6.6-3,6.6-6.6v-28.6
		C597.2,477,594.2,474,590.6,474L590.6,474z M444.3,197.3h29.4v38.4l-12.2-5c-1.6-0.6-3.3-0.7-5,0l-12.2,5L444.3,197.3z
		 M382.5,197.3h48.6v48.2c0,2.2,1.1,4.2,2.9,5.5c1.1,0.7,2.4,1.1,3.7,1.1c0.8,0,1.7-0.2,2.5-0.5L459,244l18.8,7.7
		c2,0.9,4.3,0.6,6.2-0.6c1.8-1.2,2.9-3.3,2.9-5.5v-48.2h48.6v142.3h-153L382.5,197.3z M225.4,197.3h29.4v38.4l-12.2-5
		c-1.6-0.6-3.4-0.7-5,0l-12.2,5L225.4,197.3z M163.6,197.3h48.6v48.2c0,2.2,1.1,4.2,2.9,5.5c1.1,0.7,2.4,1.1,3.7,1.1
		c0.8,0,1.7-0.2,2.5-0.5l18.8-7.7l18.8,7.7c2,0.9,4.3,0.6,6.2-0.6c1.8-1.2,2.9-3.3,2.9-5.5v-48.2h48.6v142.3h-153L163.6,197.3z
		 M116,398.6c0-25.2,20.5-45.8,45.8-45.8h376.5c25.2,0,45.8,20.5,45.8,45.8s-20.5,45.8-45.8,45.8H161.8
		C136.5,444.4,116,423.8,116,398.6L116,398.6z M548.2,474H151.8l14.8-16.5h366.7L548.2,474z M584,502.7H123.1v-15.5H584V502.7z"/>
</g>
</svg>
