<?xml version="1.0" encoding="utf-8"?>
<!-- Generator: Adobe Illustrator 27.0.0, SVG Export Plug-In . SVG Version: 6.00 Build 0)  -->
<svg version="1.1" id="Layer_1" xmlns="http://www.w3.org/2000/svg" xmlns:xlink="http://www.w3.org/1999/xlink" x="0px" y="0px"
	 viewBox="0 0 700 700" style="enable-background:new 0 0 700 700;" xml:space="preserve">
<style type="text/css">
	.st0{fill:#FFFFFF;}
</style>
<g>
	<path class="st0" d="M328.1,577.5c-4.8,0-8.8,3.9-8.8,8.8c0,4.8,3.9,8.8,8.8,8.8h43.8c4.8,0,8.8-3.9,8.8-8.8s-3.9-8.8-8.8-8.8
		H328.1z"/>
	<path class="st0" d="M507.5,165c-0.4-9.1-2.3-18.1-5.6-26.7c-12.3-31.4-42-50.8-77.5-50.8c-35.5,0-65.2,19.5-77.5,50.8
		c-3.3,8.5-5.2,17.5-5.6,26.6c-1,24.2,11.1,44.3,24.7,64.3l2.9,4.3c17.4,24.6,33.3,50.2,47.6,76.6c1.5,2.9,4.5,4.7,7.8,4.7
		s6.3-1.8,7.8-4.7c14.4-26.4,30.3-52,47.6-76.6l2.9-4.3C496.3,209.2,508.4,189.2,507.5,165L507.5,165z M468.3,219.5l-2.9,4.3
		c-14,20.7-28.4,41.9-40.9,64c-12.5-22.1-26.9-43.4-40.9-64l-2.9-4.3c-12.3-18.2-22.5-34.9-21.7-53.8h0c0.3-7.2,1.8-14.3,4.4-21
		c11.5-29.3,39.1-39.7,61.2-39.7s49.7,10.4,61.2,39.7c2.6,6.7,4.1,13.8,4.4,21v0C490.7,184.6,480.6,201.3,468.3,219.5L468.3,219.5z"
		/>
	<path class="st0" d="M424.4,126.9c-11.6,0-22.7,4.6-30.9,12.8c-8.2,8.2-12.8,19.3-12.8,30.9s4.6,22.7,12.8,30.9
		c8.2,8.2,19.3,12.8,30.9,12.8c11.6,0,22.7-4.6,30.9-12.8c8.2-8.2,12.8-19.3,12.8-30.9c0-11.6-4.6-22.7-12.8-30.9
		C447.1,131.5,436,126.9,424.4,126.9z M424.4,196.9c-7,0-13.6-2.8-18.6-7.7c-4.9-4.9-7.7-11.6-7.7-18.6c0-7,2.8-13.6,7.7-18.6
		c4.9-4.9,11.6-7.7,18.6-7.7s13.6,2.8,18.6,7.7c4.9,4.9,7.7,11.6,7.7,18.6c0,7-2.8,13.6-7.7,18.6C438,194.1,431.3,196.9,424.4,196.9
		L424.4,196.9z"/>
	<path class="st0" d="M503.1,106.3V105c0-9.3-3.7-18.2-10.3-24.7c-6.6-6.6-15.5-10.2-24.7-10.3h-43.8
		C454.7,69.7,483.7,83,503.1,106.3L503.1,106.3z"/>
	<path class="st0" d="M227.5,630h240.6c9.3,0,18.2-3.7,24.7-10.3c6.6-6.6,10.3-15.5,10.3-24.7V230.3c-2,3.2-4,6.1-5.9,8.9l-2.9,4.3
		c-2.9,4.3-5.8,8.6-8.7,12.9V595c0,4.6-1.9,9.1-5.1,12.4c-3.3,3.3-7.7,5.1-12.4,5.1H227.5c-4.6,0-9.1-1.9-12.4-5.1
		c-3.3-3.3-5.1-7.7-5.1-12.4V105c0-4.6,1.8-9.1,5.1-12.4c3.3-3.3,7.7-5.1,12.4-5.1h138.8C383.5,76,403.7,69.9,424.4,70H227.5
		c-9.3,0-18.2,3.7-24.7,10.3c-6.6,6.6-10.3,15.5-10.3,24.7v490c0,9.3,3.7,18.2,10.3,24.7C209.3,626.3,218.2,630,227.5,630L227.5,630
		z"/>
	<path class="st0" d="M329.7,199.4l-65.4,52.4l-15.9-15.7c-3.4-3.4-9-3.4-12.4,0.1c-3.4,3.4-3.4,9,0.1,12.4l53.4,52.9l-49.2,36.1
		c-1.9,1.4-3.1,3.4-3.5,5.7c-0.4,2.3,0.2,4.6,1.6,6.5c2.9,3.9,8.3,4.7,12.2,1.9l21.1-15.5l43.6,42.6c0.1,0.1,0.1,0.1,0.2,0.2
		l-42.1,32.6v0c-3.8,3-4.5,8.4-1.6,12.3c3,3.8,8.5,4.5,12.3,1.6l96.2-74.5l34.6,34.6l-105.6,84.7c-3.8,3-4.4,8.5-1.4,12.3
		c3,3.8,8.5,4.4,12.3,1.4l37.4-30l17.9,19.3l-71,55.7l-53.1-62c-1.5-1.8-3.7-2.9-6-3c-2.3-0.2-4.6,0.6-6.4,2.1c-1.8,1.5-2.9,3.7-3,6
		c-0.2,2.3,0.6,4.6,2.1,6.4l52.6,61.4l-9.8,7.7c-3.8,3-4.4,8.5-1.5,12.3c3,3.8,8.5,4.5,12.3,1.5l95.7-75.2l21.5,23.2
		c1.6,1.7,3.8,2.7,6.1,2.8c2.3,0.1,4.6-0.8,6.3-2.3c1.7-1.6,2.7-3.8,2.8-6.1c0.1-2.3-0.8-4.6-2.3-6.3l-3.9-4.2l42.5-35.6
		c1.8-1.5,2.9-3.6,3.1-5.9c0.2-2.3-0.5-4.6-2-6.4c-1.5-1.8-3.6-2.9-6-3.1c-2.3-0.2-4.6,0.5-6.4,2l-43.2,36.2l-34.7-37.3l62.1-49.8
		c1.9-1.6,3.1-3.9,3.3-6.3c0.1-2.5-0.8-4.9-2.6-6.7L394.5,340l15.4-11.9c-3.7-2.5-6.7-5.8-8.8-9.8c-0.7-1.3-1.4-2.6-2.1-3.9
		l-69.7,53.9c-0.4-0.8-0.9-1.5-1.6-2.2l-41.6-40.5l22-16.1l0,0c2.1-1.5,3.4-3.9,3.6-6.4c0.2-2.6-0.7-5.1-2.6-6.9l-32.3-32l60.3-48.3
		C334.2,210.6,331.8,205.1,329.7,199.4L329.7,199.4z"/>
</g>
</svg>
