<?xml version="1.0" encoding="utf-8"?>
<!-- Generator: Adobe Illustrator 27.0.0, SVG Export Plug-In . SVG Version: 6.00 Build 0)  -->
<svg version="1.1" id="Layer_1" xmlns="http://www.w3.org/2000/svg" xmlns:xlink="http://www.w3.org/1999/xlink" x="0px" y="0px"
	 viewBox="0 0 700 700" style="enable-background:new 0 0 700 700;" xml:space="preserve">
<style type="text/css">
	.st0{fill:#FFFFFF;}
	.st1{fill-rule:evenodd;clip-rule:evenodd;fill:#FFFFFF;}
</style>
<g>
	<path class="st0" d="M401.8,259.1c-11-8.8,2.2-24.2,13.2-15.4l19.8,17.6l26.4-35.1l-37.3-30.7L228.3,428.2v6.6l32.9,26.4
		c2.2,0,4.4,0,4.4-2.2l30.7-32.9l-19.8-17.6c-11-8.8,2.2-24.2,13.2-15.4l17.6,17.6l19.8-22l-19.8-17.6c-8.8-8.8,2.2-24.2,13.2-15.4
		l19.8,17.6l17.6-24.2l-19.8-15.4c-8.8-8.8,4.4-24.2,13.2-15.4l19.8,17.6l19.8-24.2l-19.8-15.4c-11-8.8,2.2-24.2,11-15.4l19.8,17.6
		l19.8-24.2L401.8,259.1L401.8,259.1z M281,472.1c-4.4,6.6-15.4,11-24.2,8.8l-19.8,22c-6.6,8.8-17.6,6.6-26.4,0l-103.2,123
		c-8.8,11-24.2-2.2-15.4-13.2l105.4-123c-8.8-6.6-13.2-15.4-6.6-26.4l19.8-22c-4.4-8.8-2.2-19.8,2.2-26.4l195.4-232.8L395.2,169
		c-11-6.6,2.2-22,11-13.2c8.8,6.6,17.6,13.2,26.4,22l65.9-79.1l-13.2-11c-8.8-8.8,2.2-24.2,13.2-15.4l70.3,59.3
		c11,8.8-2.2,24.2-11,15.4l-13.2-11l-65.9,79.1c8.8,6.6,17.6,15.4,26.4,22c8.8,8.8-2.2,24.2-13.2,15.4l-15.4-13.2
		C412.8,316.2,346.9,395.2,281,472.1L281,472.1z M463.3,202l65.9-76.9l-15.4-13.2l-65.9,76.9L463.3,202z M223.9,487.5l15.4-17.6
		l-15.4-15.4l-15.4,19.8C215.2,478.7,219.5,483.1,223.9,487.5L223.9,487.5z"/>
	<path class="st0" d="M566.5,329.4h-68.1c-13.2,0-24.2,8.8-24.2,22V415c-13.2,4.4-19.8,15.4-19.8,28.6v155.9
		c0,17.6,13.2,30.7,28.6,30.7h96.6c17.6,0,30.7-13.2,30.7-30.7V443.6c0-13.2-8.8-24.2-19.8-28.6v-63.7
		C590.7,338.1,579.7,329.4,566.5,329.4L566.5,329.4z M491.9,393h79.1v19.8h-79.1V393z M581.9,432.6c6.6,0,11,4.4,11,11v155.9
		c0,6.6-6.6,11-13.2,11h-96.6c-6.6,0-11-4.4-11-11V443.6c0-6.6,4.4-11,11-11L581.9,432.6z"/>
	<path class="st0" d="M542.4,540.2v-22h19.8v-19.8h-19.8v-19.8h-19.8v19.8h-19.8v19.8h19.8v22H542.4z"/>
	<path class="st1" d="M404,498.4h-94.4c-39.5,0-37.3,61.5,0,61.5H404C443.5,559.9,443.5,498.4,404,498.4z M357.9,542.4V516H404
		c17.6,0,17.6,26.4,0,26.4H357.9z"/>
	<path class="st1" d="M278.8,568.7h94.4c39.5,0,37.3,61.5,0,61.5h-94.4C239.3,630.2,239.3,568.7,278.8,568.7L278.8,568.7z
		 M327.2,612.6v-26.4h-48.3c-17.6,0-17.6,26.4,0,26.4H327.2z"/>
</g>
</svg>
