<?xml version="1.0" encoding="utf-8"?>
<!-- Generator: Adobe Illustrator 27.0.0, SVG Export Plug-In . SVG Version: 6.00 Build 0)  -->
<svg version="1.1" id="Layer_1" xmlns="http://www.w3.org/2000/svg" xmlns:xlink="http://www.w3.org/1999/xlink" x="0px" y="0px"
	 viewBox="0 0 700 700" style="enable-background:new 0 0 700 700;" xml:space="preserve">
<style type="text/css">
	.st0{fill:#FFFFFF;}
</style>
<path class="st0" d="M234.7,298.4c-28.4,0-51.6,23.1-51.6,51.6c0,28.4,23.1,51.6,51.6,51.6c28.4,0,51.6-23.1,51.6-51.6
	C286.3,321.5,263.1,298.4,234.7,298.4z M234.7,373.6c-13,0-23.6-10.6-23.6-23.6s10.6-23.6,23.6-23.6c13,0,23.6,10.6,23.6,23.6
	C258.3,363,247.7,373.6,234.7,373.6z M465.3,298.4c-28.4,0-51.6,23.1-51.6,51.6c0,28.4,23.1,51.6,51.6,51.6
	c28.4,0,51.6-23.1,51.6-51.6C516.9,321.5,493.8,298.4,465.3,298.4L465.3,298.4z M465.3,373.6c-13,0-23.6-10.6-23.6-23.6
	s10.6-23.6,23.6-23.6c13,0,23.6,10.6,23.6,23.6C488.9,363,478.3,373.6,465.3,373.6z M349.4,298.4c-28.4,0-51.6,23.1-51.6,51.6
	c0,28.4,23.1,51.6,51.6,51.6c28.4,0,51.6-23.1,51.6-51.6C401,321.5,377.8,298.4,349.4,298.4L349.4,298.4z M349.4,373.6
	c-13,0-23.6-10.6-23.6-23.6s10.6-23.6,23.6-23.6c13,0,23.6,10.6,23.6,23.6S362.4,373.6,349.4,373.6z M350,98C211.1,98,98,211,98,350
	s113.1,252,252,252s252-113,252-252S489,98,350,98L350,98z M350,574c-123.5,0-224-100.5-224-224s100.5-224,224-224
	s224,100.5,224,224S473.5,574,350,574z"/>
</svg>
