<?xml version="1.0" encoding="utf-8"?>
<!-- Generator: Adobe Illustrator 27.0.0, SVG Export Plug-In . SVG Version: 6.00 Build 0)  -->
<svg version="1.1" id="Layer_1" xmlns="http://www.w3.org/2000/svg" xmlns:xlink="http://www.w3.org/1999/xlink" x="0px" y="0px"
	 viewBox="0 0 700 700" style="enable-background:new 0 0 700 700;" xml:space="preserve">
<style type="text/css">
	.st0{fill:#FFFFFF;}
</style>
<g>
	<path class="st0" d="M590.8,630H109.2c-17.9,0-35-7.1-47.7-19.7c-12.6-12.6-19.7-29.8-19.7-47.7V137.4c0-17.9,7.1-35,19.7-47.7
		C74.2,77.1,91.4,70,109.2,70h481.5c17.9,0,35,7.1,47.7,19.7c12.6,12.6,19.7,29.8,19.7,47.7V563c-0.1,17.8-7.2,34.9-19.9,47.4
		C625.7,622.9,608.6,630,590.8,630L590.8,630z M109.2,89.3c-12.8,0-25,5.1-34,14.1s-14.1,21.3-14.1,34V563c0,12.8,5.1,25,14.1,34
		c9,9,21.3,14.1,34,14.1h481.5c12.8,0,25-5.1,34-14.1c9-9,14.1-21.3,14.1-34V137.4c0-12.8-5.1-25-14.1-34s-21.3-14.1-34-14.1
		L109.2,89.3z"/>
	<path class="st0" d="M271.6,231.2c-5.3,0-9.6-4.3-9.6-9.6V79.6c0-5.3,4.3-9.6,9.6-9.6h156.8c2.6,0,5,1,6.8,2.8
		c1.8,1.8,2.8,4.3,2.8,6.8v141.9c0.1,3.1-1.2,6-3.7,7.9c-2.4,1.9-5.6,2.5-8.6,1.7L350,209.5l-75.8,21.4
		C273.4,231.1,272.5,231.2,271.6,231.2L271.6,231.2z M281.2,89.3v119.6l66.2-18.7v0c1.7-0.4,3.5-0.4,5.2,0l66.2,18.7V89.3
		L281.2,89.3z"/>
	<path class="st0" d="M520,536.8H388.5c-21.4,0-41.3-11.4-52-30c-10.7-18.6-10.7-41.5,0-60s30.6-30,52-30h131.9
		c21.4,0,41.2,11.4,51.9,29.9c10.7,18.5,10.7,41.4,0,59.9c-10.7,18.5-30.5,29.9-51.9,29.9L520,536.8z M388.5,435.9
		c-14.5,0-27.9,7.7-35.2,20.3c-7.3,12.6-7.3,28.1,0,40.6c7.3,12.6,20.7,20.3,35.2,20.3h131.9c14.5,0,27.9-7.7,35.2-20.3
		c7.3-12.6,7.3-28.1,0-40.6c-7.3-12.6-20.7-20.3-35.2-20.3H388.5z"/>
	<path class="st0" d="M471,486.5h-34.3c-5.3,0-9.6-4.3-9.6-9.6s4.3-9.6,9.6-9.6h33.9c5.3,0,9.6,4.3,9.6,9.6s-4.3,9.6-9.6,9.6H471z"
		/>
</g>
</svg>
