<?xml version="1.0" encoding="utf-8"?>
<!-- Generator: Adobe Illustrator 27.0.0, SVG Export Plug-In . SVG Version: 6.00 Build 0)  -->
<svg version="1.1" id="Layer_1" xmlns="http://www.w3.org/2000/svg" xmlns:xlink="http://www.w3.org/1999/xlink" x="0px" y="0px"
	 viewBox="0 0 700 700" style="enable-background:new 0 0 700 700;" xml:space="preserve">
<style type="text/css">
	.st0{fill:#FFFFFF;}
</style>
<g>
	<path class="st0" d="M347.3,551.4l-19,11V355.8l179.5-103.7v78.3c0.1,11.5,17.4,11.5,17.5,0c-0.3-0.3,0.3-94.3-0.1-94.6
		c-0.2-2.9-1.7-5.6-4.3-7.1L323.9,115c-2.7-1.6-6-1.6-8.8,0l-197,113.7c-2.7,1.6-4.4,4.4-4.4,7.6v227.5c0,3.1,1.7,6,4.4,7.6
		l197,113.8c2.8,1.5,6,1.5,8.8,0l32.1-18.6C365.9,560.7,357.2,545.7,347.3,551.4L347.3,551.4z M200.4,292l29.4,17v49.6l-29.4-17V292
		z M208.5,276.5l180.1-104l29.4,17l-180.1,104L208.5,276.5z M435.5,199.6l64.1,37l-180.1,104l-64.1-37L435.5,199.6z M319.5,132.6
		l51.6,29.8L191,266.4l-51.6-29.8L319.5,132.6z M131.2,252.1l51.6,29.8v64.7c0,3.1,1.7,6,4.4,7.6l46.9,27.1c5.6,3.4,13.3-1,13.1-7.6
		v-54.6l63.5,36.7v206.6L131.2,458.7L131.2,252.1z"/>
	<path class="st0" d="M298.3,503.3l-60.9-35.2c-9.9-5.7-18.6,9.4-8.8,15.2l60.9,35.2C299.4,524.1,308.2,509.1,298.3,503.3z"/>
	<path class="st0" d="M228.6,448.3c0,0,14.6,8.4,29.5,17.1c15.5,9,31.4,18.1,31.4,18.1c4.1,2.4,9.5,1,12-3.2c2.4-4.2,1-9.5-3.2-12
		l-60.9-35.2C227.5,427.5,218.7,442.6,228.6,448.3L228.6,448.3z"/>
	<path class="st0" d="M472.5,358.8c-62.7,0-113.8,51-113.8,113.8c6.2,150.9,221.3,150.9,227.5,0
		C586.2,409.8,535.2,358.8,472.5,358.8z M472.5,568.8c-53.1,0-96.2-43.2-96.2-96.2c5.3-127.7,187.2-127.6,192.5,0
		C568.7,525.6,525.6,568.8,472.5,568.8z"/>
	<path class="st0" d="M524.5,419.7L460,508.1l-45.8-32.2c-9.4-6.6-19.4,7.7-10.1,14.3l52.8,37.1c3.9,2.7,9.3,1.9,12.1-2l69.6-95.3
		C545.3,420.7,531.3,410.4,524.5,419.7L524.5,419.7z"/>
</g>
</svg>
