<?xml version="1.0" encoding="utf-8"?>
<!-- Generator: Adobe Illustrator 27.0.0, SVG Export Plug-In . SVG Version: 6.00 Build 0)  -->
<svg version="1.1" id="Layer_1" xmlns="http://www.w3.org/2000/svg" xmlns:xlink="http://www.w3.org/1999/xlink" x="0px" y="0px"
	 viewBox="0 0 700 700" style="enable-background:new 0 0 700 700;" xml:space="preserve">
<style type="text/css">
	.st0{fill:#FFFFFF;}
</style>
<g>
	<path class="st0" d="M122.5,201.2h166.2c5.2,0,8.8-3.5,8.8-8.8v-70c0-5.2-3.5-8.8-8.8-8.8H122.5c-5.2,0-8.8,3.5-8.8,8.8v70
		C113.8,197.7,117.3,201.2,122.5,201.2z M131.3,131.2H280v52.5H131.3V131.2z"/>
	<path class="st0" d="M113.8,218.7h175v17.5h-175V218.7z"/>
	<path class="st0" d="M113.8,253.7h175v17.5h-175V253.7z"/>
	<path class="st0" d="M113.8,288.7h175v17.5h-175V288.7z"/>
	<path class="st0" d="M113.8,323.7h175v17.5h-175V323.7z"/>
	<path class="st0" d="M618.6,186.4l-70-70c-1.8-1.8-3.5-2.6-6.1-2.6h-96.2V87.5c0-5.2-3.5-8.8-8.8-8.8h-350c-5.2,0-8.8,3.5-8.8,8.8
		v481.2c0,28.9,23.6,52.5,52.5,52.5h350c28.9,0,52.5-23.6,52.5-52.5v-96.2c0-5.2-3.5-8.8-8.8-8.8h-78.8v-17.5h166.2
		c5.2,0,8.8-3.5,8.8-8.8v-245C621.2,189.9,620.4,188.1,618.6,186.4z M551.2,143.5l40.2,40.2h-40.2V143.5z M516.2,481.2v87.5
		c0,19.2-15.8,35-35,35s-35-15.8-35-35v-87.5H516.2z M441.9,603.8H131.3c-19.2,0-35-15.8-35-35V96.2h332.5v17.5h-61.2
		c-5.2,0-8.8,3.5-8.8,8.8v315c0,5.2,3.5,8.8,8.8,8.8h61.2v122.5C428.8,581.9,434,594.1,441.9,603.8L441.9,603.8z M603.8,428.8H376.3
		V131.2h157.5v61.2c0,5.2,3.5,8.8,8.8,8.8h61.2V428.8z"/>
	<path class="st0" d="M393.8,323.7H490v17.5h-96.2V323.7z"/>
	<path class="st0" d="M393.8,358.7H490v17.5h-96.2V358.7z"/>
	<path class="st0" d="M393.8,393.7H490v17.5h-96.2V393.7z"/>
	<path class="st0" d="M393.8,288.7h192.5v17.5H393.8V288.7z"/>
	<path class="st0" d="M393.8,253.7h192.5v17.5H393.8V253.7z"/>
	<path class="st0" d="M393.8,218.7h192.5v17.5H393.8V218.7z"/>
	<path class="st0" d="M113.8,568.7h297.5v17.5H113.8V568.7z"/>
	<path class="st0" d="M113.8,533.7h297.5v17.5H113.8V533.7z"/>
	<path class="st0" d="M113.8,498.7h297.5v17.5H113.8V498.7z"/>
</g>
</svg>
