<?xml version="1.0" encoding="utf-8"?>
<!-- Generator: Adobe Illustrator 27.0.0, SVG Export Plug-In . SVG Version: 6.00 Build 0)  -->
<svg version="1.1" id="Layer_1" xmlns="http://www.w3.org/2000/svg" xmlns:xlink="http://www.w3.org/1999/xlink" x="0px" y="0px"
	 viewBox="0 0 700 700" style="enable-background:new 0 0 700 700;" xml:space="preserve">
<style type="text/css">
	.st0{fill:#FFFFFF;}
</style>
<g>
	<path class="st0" d="M620.2,288.3c-1.5-2.4-4.2-3.8-7-3.8H322.7c-3.2,0-6.1,1.9-7.5,4.8l-23.8,50.7l-23.8-50.7
		c-1.4-2.9-4.2-4.8-7.5-4.8H86.7c-2.8,0-5.4,1.4-7,3.8s-1.7,5.3-0.5,7.9l30.5,65v247.3c0,4.6,3.6,8.2,8.2,8.2h464.1
		c4.6,0,8.2-3.6,8.2-8.2l0-247.3l30.5-65.1C621.9,293.6,621.8,290.6,620.2,288.3L620.2,288.3z M255.1,300.9l23.5,50.2H123.1
		l-23.5-50.2L255.1,300.9z M283.2,600.3h-157V367.6h157.1L283.2,600.3L283.2,600.3z M573.8,600.4H299.8V367.6h274.1V600.4z
		 M576.9,351.2H304.4l23.5-50.2h272.5L576.9,351.2z"/>
	<path class="st0" d="M236.4,534.4h7.9c4.6,0,8.2-3.6,8.2-8.2s-3.6-8.2-8.2-8.2h-7.9c-4.6,0-8.2,3.6-8.2,8.2
		S231.8,534.4,236.4,534.4z"/>
	<path class="st0" d="M164.9,534.4h44.4c4.6,0,8.2-3.6,8.2-8.2s-3.6-8.2-8.2-8.2h-44.4c-4.6,0-8.2,3.6-8.2,8.2
		S160.3,534.4,164.9,534.4z"/>
	<path class="st0" d="M164.9,571.2h24.9c4.6,0,8.2-3.6,8.2-8.2c0-4.6-3.6-8.2-8.2-8.2h-24.9c-4.6,0-8.2,3.6-8.2,8.2
		C156.6,567.5,160.3,571.2,164.9,571.2L164.9,571.2z"/>
	<path class="st0" d="M343.3,262.1c1.5,2.1,4.1,3.5,6.7,3.5s5.2-1.3,6.7-3.5l48.3-67.5c1.8-2.5,2-5.8,0.6-8.6
		c-1.4-2.7-4.2-4.5-7.3-4.5h-18.7l0-90c0-4.6-3.6-8.2-8.2-8.2h-42.7c-4.6,0-8.2,3.6-8.2,8.2v90h-18.7c-3.1,0-5.9,1.7-7.3,4.5
		c-1.4,2.7-1.2,6,0.6,8.6L343.3,262.1z M328.7,198c4.6,0,8.2-3.6,8.2-8.2v-90h26.2v90c0,4.6,3.6,8.2,8.2,8.2h10.9L350,243.1
		L317.8,198L328.7,198z"/>
	<path class="st0" d="M470.8,577.9c4.6,0,8.2-3.6,8.2-8.2v-36.3c0-4.6-3.6-8.2-8.2-8.2s-8.2,3.6-8.2,8.2v36.3
		C462.6,574.3,466.3,577.9,470.8,577.9z"/>
	<path class="st0" d="M503.6,577.9c4.6,0,8.2-3.6,8.2-8.2v-36.3c0-4.6-3.6-8.2-8.2-8.2s-8.2,3.6-8.2,8.2v36.3
		C495.3,574.3,499,577.9,503.6,577.9z"/>
	<path class="st0" d="M536.3,577.9c4.6,0,8.2-3.6,8.2-8.2v-36.3c0-4.6-3.6-8.2-8.2-8.2s-8.2,3.6-8.2,8.2v36.3
		C528.1,574.3,531.8,577.9,536.3,577.9z"/>
</g>
</svg>
