<?xml version="1.0" encoding="utf-8"?>
<!-- Generator: Adobe Illustrator 27.0.0, SVG Export Plug-In . SVG Version: 6.00 Build 0)  -->
<svg version="1.1" id="Layer_1" xmlns="http://www.w3.org/2000/svg" xmlns:xlink="http://www.w3.org/1999/xlink" x="0px" y="0px"
	 viewBox="0 0 700 700" style="enable-background:new 0 0 700 700;" xml:space="preserve">
<style type="text/css">
	.st0{fill:#FFFFFF;}
</style>
<g>
	<path class="st0" d="M343.2,495.5c1.7,2.1,4.2,3.3,6.8,3.3s5.2-1.2,6.8-3.3l35-43.8c2.1-2.6,2.6-6.2,1.1-9.3c-1.5-3-4.5-5-7.9-5
		h-8.8V385c0-2.3-0.9-4.5-2.6-6.2s-3.9-2.6-6.2-2.6h-35c-4.8,0-8.8,3.9-8.8,8.8v52.5H315c-3.4,0-6.5,1.9-7.9,5
		c-1.5,3.1-1,6.7,1.1,9.3L343.2,495.5z M341.3,446.2v-52.5h17.5v52.5c0,4.6,3.5,8.4,8.1,8.8L350,476l-16.8-21
		C337.8,454.6,341.3,450.8,341.3,446.2L341.3,446.2z"/>
	<path class="st0" d="M542.5,498.8H525V315c0-2.3-0.9-4.5-2.6-6.2s-3.9-2.6-6.2-2.6h-43.8V140c0-2.3-0.9-4.5-2.6-6.2
		s-3.9-2.6-6.2-2.6H236.2c-4.8,0-8.8,3.9-8.8,8.8v166.2h-43.8c-4.8,0-8.8,3.9-8.8,8.8v183.8h-17.5c-4.8,0-8.8,3.9-8.8,8.8
		c0,16.2,6.5,31.8,17.9,43.3c11.5,11.5,27.1,17.9,43.3,17.9h280c16.2,0,31.8-6.5,43.3-17.9c11.5-11.5,17.9-27.1,17.9-43.3
		c0-2.3-0.9-4.5-2.6-6.2S544.8,498.8,542.5,498.8z M323.8,148.8h52.5v79.4l-21.2-15c-3-2.2-7.1-2.2-10.1,0l-21.2,15V148.8z
		 M245,148.8h61.2V245c0,3.3,1.8,6.3,4.7,7.8c2.9,1.5,6.4,1.3,9.1-0.6l29.9-21.1l29.9,21.1v0c2.6,1.8,5.9,2,8.8,0.6
		c3-1.4,5-4.4,5.1-7.8v-96.2H455v192.5H245L245,148.8z M192.5,323.8h35V350c0,2.3,0.9,4.5,2.6,6.2s3.9,2.6,6.2,2.6h227.5
		c2.3,0,4.5-0.9,6.2-2.6s2.6-3.9,2.6-6.2v-26.2h35v175h-96.2c-4.8,0-8.8,3.9-8.8,8.8v8.8h-105v-8.8c0-2.3-0.9-4.5-2.6-6.2
		s-3.9-2.6-6.2-2.6h-96.2V323.8z M520.9,538.5c-8.2,8.2-19.3,12.8-30.9,12.8H210c-10.1,0-19.9-3.5-27.7-9.9s-13.2-15.3-15.2-25.1
		H280v8.8c0,2.3,0.9,4.5,2.6,6.2c1.6,1.6,3.9,2.6,6.2,2.6h122.5c2.3,0,4.5-0.9,6.2-2.6s2.6-3.9,2.6-6.2v-8.8h112.9
		C531.2,524.7,527,532.4,520.9,538.5L520.9,538.5z"/>
</g>
</svg>
