<?xml version="1.0" encoding="utf-8"?>
<!-- Generator: Adobe Illustrator 27.0.0, SVG Export Plug-In . SVG Version: 6.00 Build 0)  -->
<svg version="1.1" id="Layer_1" xmlns="http://www.w3.org/2000/svg" xmlns:xlink="http://www.w3.org/1999/xlink" x="0px" y="0px"
	 viewBox="0 0 700 700" style="enable-background:new 0 0 700 700;" xml:space="preserve">
<style type="text/css">
	.st0{fill:#FFFFFF;}
</style>
<g>
	<path class="st0" d="M624.6,72c-1.1-0.5-2.2-0.6-3.4-0.6v-0.1H297.5c-2.3,0-4.6,0.9-6.2,2.6l-105,105c-1.6,1.6-2.6,3.8-2.6,6.2
		v218.8c0,4.8,3.9,8.8,8.8,8.8h323.7c2.4,0,4.6-1,6.2-2.6l105-105c1.6-1.6,2.6-3.9,2.6-6.2V80.1C630,76.6,627.9,73.4,624.6,72
		L624.6,72z M512.6,176.3h-89l87.5-87.5h89L512.6,176.3z M486.4,88.8l-90.1,90.1c-1.6,1.6-2.6,3.9-2.6,6.2V265l-12.6-8.4
		c-2.9-2-6.8-2-9.7,0L350,270.8l-21.4-14.3c-1.5-1-3.2-1.5-4.9-1.5s-3.4,0.5-4.9,1.5l-12.6,8.4v-76.3l99.9-99.9L486.4,88.8z
		 M301.1,88.8h80.3l-87.5,87.5h-80.3L301.1,88.8z M507.5,395.1H201.3V193.8h87.5v87.5c0,3.2,1.8,6.2,4.6,7.7c2.8,1.5,6.3,1.3,9-0.4
		l21.4-14.3l21.4,14.3c2.9,2,6.8,2,9.7,0l21.4-14.3l21.4,14.3c1.5,1,3.2,1.5,4.9,1.5c1.4,0,2.8-0.3,4.1-1c2.8-1.5,4.6-4.5,4.6-7.7
		v-87.5h96.2L507.5,395.1z M612.5,295.2L525,382.7v-194l87.5-87.5V295.2z"/>
	<path class="st0" d="M236.3,587.6c4.8,0,8.8-3.9,8.8-8.8h24.2l93.5,46.8c4,2,8.4,3,12.8,3c5,0,9.9-1.3,14.4-3.9l190.9-111.4
		c8.8-5.1,14.2-14.6,14.2-24.7c0-8.5-3.7-16.4-10.2-21.9c-6.5-5.4-15-7.7-23.3-6.3L388,490.7l-49.3-49.3c-1.6-1.6-3.9-2.6-6.2-2.6
		H245c0-4.8-3.9-8.8-8.8-8.8H70v17.5h122.5v122.5H70v17.5L236.3,587.6z M328.9,456.3l68.9,68.9c3,3,4.7,7.1,4.7,11.3
		c0,8.8-7.2,16-16,16c-4.2,0-8.3-1.7-11.3-4.7l-45.3-45.3L317.6,515l45.3,45.3c6.3,6.3,14.7,9.8,23.7,9.8c18.5,0,33.5-15,33.5-33.5
		c0-8.9-3.5-17.4-9.8-23.7l-7.1-7.1l161.4-28.1c3.3-0.6,6.5,0.3,9,2.4c2.5,2.1,4,5.2,4,8.5c0,3.9-2.1,7.6-5.5,9.6L381.1,609.6
		c-3.2,1.9-7.2,2-10.6,0.3l-95.4-47.7c-1.2-0.6-2.6-0.9-3.9-0.9H245v-105L328.9,456.3z M227.5,570.1H210V447.6h17.5V570.1z"/>
	<path class="st0" d="M148.8,150.1c0,4.8,3.9,8.8,8.8,8.8s8.8-3.9,8.8-8.8c0-14.5,11.8-26.2,26.2-26.2c4.8,0,8.8-3.9,8.8-8.8
		s-3.9-8.8-8.8-8.8c-14.5,0-26.2-11.8-26.2-26.2c0-4.8-3.9-8.8-8.8-8.8s-8.8,3.9-8.8,8.8c0,14.5-11.8,26.2-26.2,26.2
		c-4.8,0-8.8,3.9-8.8,8.8s3.9,8.8,8.8,8.8C137,123.8,148.8,135.6,148.8,150.1z M157.5,106.3c2.5,3.3,5.5,6.3,8.8,8.8
		c-3.3,2.5-6.3,5.5-8.8,8.8c-2.5-3.3-5.5-6.3-8.8-8.8C152.1,112.6,155,109.6,157.5,106.3z"/>
</g>
</svg>
