<?xml version="1.0" encoding="utf-8"?>
<!-- Generator: Adobe Illustrator 27.0.0, SVG Export Plug-In . SVG Version: 6.00 Build 0)  -->
<svg version="1.1" id="Layer_1" xmlns="http://www.w3.org/2000/svg" xmlns:xlink="http://www.w3.org/1999/xlink" x="0px" y="0px"
	 viewBox="0 0 700 700" style="enable-background:new 0 0 700 700;" xml:space="preserve">
<style type="text/css">
	.st0{fill:#FFFFFF;}
</style>
<g>
	<path class="st0" d="M574,121.7H126c-2.4,0-4.3,1.9-4.3,4.3v448c0,2.4,1.9,4.3,4.3,4.3h448c2.4,0,4.3-1.9,4.3-4.3V126
		C578.3,123.6,576.4,121.7,574,121.7z M345.7,130.3V238l-16-12.1c-1.6-1.2-3.6-1.2-5.2,0l-20.4,15.3l-20.4-15.3
		c-1.5-1.2-3.6-1.2-5.2,0l-20.4,15.3l-20.4-15.3c-0.8-0.6-1.7-0.9-2.6-0.9c-0.9,0-1.8,0.3-2.6,0.9L216.5,238V130.3L345.7,130.3z
		 M130.3,130.3h77.5v116.3c0,1.6,0.9,3.1,2.4,3.9c0.6,0.3,1.3,0.5,1.9,0.5c0.9,0,1.8-0.3,2.6-0.9l20.4-15.3l20.4,15.3
		c1.5,1.1,3.6,1.1,5.2,0l20.4-15.3l20.4,15.3c1.5,1.2,3.6,1.2,5.2,0l20.4-15.3l20.3,15.3c1.3,1,3.1,1.1,4.5,0.4
		c1.5-0.7,2.4-2.2,2.4-3.8V130.3h77.5v439.4H130.3L130.3,130.3z M569.7,569.7H440.5V130.3h129.2V569.7z"/>
	<path class="st0" d="M462,535.2h51.7c2.4,0,4.3-1.9,4.3-4.3s-1.9-4.3-4.3-4.3H462c-2.4,0-4.3,1.9-4.3,4.3S459.6,535.2,462,535.2
		L462,535.2z"/>
	<path class="st0" d="M513.7,509.4h34.5c2.4,0,4.3-1.9,4.3-4.3s-1.9-4.3-4.3-4.3h-34.5c-2.4,0-4.3,1.9-4.3,4.3
		S511.3,509.4,513.7,509.4z"/>
	<path class="st0" d="M462,509.4h34.5c2.4,0,4.3-1.9,4.3-4.3s-1.9-4.3-4.3-4.3H462c-2.4,0-4.3,1.9-4.3,4.3S459.6,509.4,462,509.4z"
		/>
	<path class="st0" d="M522.3,483.5h25.8c2.4,0,4.3-1.9,4.3-4.3s-1.9-4.3-4.3-4.3h-25.8c-2.4,0-4.3,1.9-4.3,4.3
		S519.9,483.5,522.3,483.5z"/>
	<path class="st0" d="M462,483.5h43.1c2.4,0,4.3-1.9,4.3-4.3s-1.9-4.3-4.3-4.3H462c-2.4,0-4.3,1.9-4.3,4.3S459.6,483.5,462,483.5z"
		/>
	<path class="st0" d="M358.6,397.4c-2.4,0-4.3,1.9-4.3,4.3c0,40.4-32.9,73.2-73.2,73.2c-40.4,0-73.2-32.9-73.2-73.2
		s32.9-73.2,73.2-73.2c16.5,0,32.1,5.4,45.1,15.5c1.9,1.5,4.6,1.1,6-0.7c1.5-1.9,1.1-4.6-0.7-6c-14.5-11.4-31.9-17.4-50.4-17.4
		c-45.1,0-81.8,36.7-81.8,81.8s36.7,81.8,81.8,81.8s81.8-36.7,81.8-81.8C362.9,399.3,361,397.4,358.6,397.4L358.6,397.4z"/>
	<path class="st0" d="M245.6,399.5c-1.7-1.7-4.4-1.7-6.1,0c-1.7,1.7-1.7,4.4,0,6.1l34.6,34.6c0.8,0.8,1.9,1.3,3.1,1.3
		c1.1,0,2.2-0.4,3.1-1.3l72.2-72.2c1.7-1.7,1.7-4.4,0-6.1c-1.7-1.7-4.4-1.7-6.1,0l-69.2,69.2L245.6,399.5z"/>
</g>
</svg>
