<?xml version="1.0" encoding="utf-8"?>
<!-- Generator: Adobe Illustrator 27.0.0, SVG Export Plug-In . SVG Version: 6.00 Build 0)  -->
<svg version="1.1" id="Layer_1" xmlns="http://www.w3.org/2000/svg" xmlns:xlink="http://www.w3.org/1999/xlink" x="0px" y="0px"
	 viewBox="0 0 700 700" style="enable-background:new 0 0 700 700;" xml:space="preserve">
<style type="text/css">
	.st0{fill:#FFFFFF;}
</style>
<g>
	<path class="st0" d="M462.8,540.9v50.9c0,3.4-2.5,6.8-6.8,6.8h-50.9c-3.4,0-6.8-2.5-6.8-6.8v-50.9c0-3.4,2.5-6.8,6.8-6.8h50.9
		C460.3,535,462.8,537.5,462.8,540.9z"/>
	<path class="st0" d="M244.8,210.8v-93.3c0-9.3,7.6-16.1,16.1-16.1h175.6c9.3,0,16.1,7.6,16.1,16.1v93.3c0,9.3-7.6,16.1-16.1,16.1
		H261.8C252.4,227,244.8,219.3,244.8,210.8L244.8,210.8z"/>
	<path class="st0" d="M461.1,343.2h99.3c6.8,0,11.9,5.1,11.9,11.9v74.7c0,6.8-5.1,11.9-11.9,11.9h-99.3c-6.8,0-11.9-5.1-11.9-11.9
		v-74.7C449.3,349.1,454.4,343.2,461.1,343.2L461.1,343.2z"/>
	<path class="st0" d="M127.7,429.8v-74.7c0-6.8,5.1-11.9,11.9-11.9h99.3c6.8,0,11.9,5.1,11.9,11.9v74.7c0,6.8-5.1,11.9-11.9,11.9
		h-98.4C133.6,441.6,127.7,436.5,127.7,429.8z"/>
	<path class="st0" d="M142.1,540.9v50.9c0,3.4-2.5,6.8-6.8,6.8H84.4c-3.4,0-5.9-2.5-5.9-6.8v-50.9c0-3.4,2.5-6.8,6.8-6.8h50.9
		C139.6,535,142.1,537.5,142.1,540.9z"/>
	<path class="st0" d="M300.8,540.9v50.9c0,3.4-2.5,6.8-6.8,6.8h-50.9c-3.4,0-6.8-2.5-6.8-6.8v-50.9c0-3.4,2.5-6.8,6.8-6.8H294
		C297.4,535,300.8,537.5,300.8,540.9z"/>
	<path class="st0" d="M621.5,540.9v50.9c0,3.4-2.5,6.8-6.8,6.8h-50.9c-3.4,0-6.8-2.5-6.8-6.8v-50.9c0-3.4,2.5-6.8,6.8-6.8h50.9
		C619,535,621.5,537.5,621.5,540.9z"/>
	<path class="st0" d="M596.1,491.7v30.5h-12.7v-24.6H437.4v24.6h-12.7v-30.5c0-3.4,2.5-6.8,6.8-6.8h73v-30.5h12.7v30.5h73
		C593.5,484.9,596.1,487.5,596.1,491.7L596.1,491.7z"/>
	<path class="st0" d="M275.3,491.7v30.5h-12.7v-24.6H116.7v24.6h-12.7v-30.5c0-3.4,2.5-6.8,6.8-6.8h73v-30.5h12.7v30.5h73
		C271.9,484.9,275.3,487.5,275.3,491.7L275.3,491.7z"/>
	<path class="st0" d="M517.1,277v54.3h-12.7v-47.5l-309.7,0v47.5H182V277c0-3.4,2.5-6.8,6.8-6.8h155.3v-30.5h12.7v30.5h154.4
		C513.8,270.2,517.1,273.6,517.1,277L517.1,277z"/>
</g>
</svg>
