<?xml version="1.0" encoding="utf-8"?>
<!-- Generator: Adobe Illustrator 27.0.0, SVG Export Plug-In . SVG Version: 6.00 Build 0)  -->
<svg version="1.1" id="Layer_1" xmlns="http://www.w3.org/2000/svg" xmlns:xlink="http://www.w3.org/1999/xlink" x="0px" y="0px"
	 viewBox="0 0 700 700" style="enable-background:new 0 0 700 700;" xml:space="preserve">
<style type="text/css">
	.st0{fill:#FFFFFF;}
</style>
<g>
	<path class="st0" d="M400.1,311.6c-38.1,0-69.4,31.4-69.4,69.4c0,38.1,31.4,69.4,69.4,69.4c38.1,0,69.4-31.4,69.4-69.4
		S438.2,311.6,400.1,311.6L400.1,311.6z M400.1,431.5c-28,0-51-23-51-51s23-51,51-51s51,23,51,51S428.1,431.5,400.1,431.5z"/>
	<path class="st0" d="M551.3,394l-19.6-11.2v-5.6l18.5-7.3c3.9-1.7,6.2-5.6,5.6-10.1c-2.2-14.6-6.2-29.1-12.3-42
		c-1.7-3.4-5-5.6-9-5.6l-22.4,0.6l-2.8-4.5l11.2-15.1c2.8-3.4,2.2-8.4-0.6-11.8c-10.1-11.8-21.8-22.4-35.3-30.8
		c-3.4-2.2-7.8-1.7-10.6,0.6L458.3,264l-5-1.7v-20.7c0-3.9-2.8-7.8-6.7-9c-14.6-4.5-29.7-6.7-44.2-6.7c-3.9,0-7.3,2.2-9,6.2
		l-7.3,20.2h-5.6L370.4,236c-2.2-3.4-6.7-5-10.6-3.9c-14,3.9-27.4,10.1-40.3,17.9c-3.4,2.2-5,5.6-4.5,9.5l3.4,23l-4.5,3.4l-17.4-9.5
		c-3.9-2.2-8.4-1.1-11.8,1.7c-10.1,11.8-19,24.6-25.2,38.6c-1.7,3.9-1.1,7.8,2.2,10.6l15.1,14l-1.1,5.6l-20.7,2.8
		c-3.9,0.6-7.3,3.9-7.8,7.8c-1.1,9-2.2,16.8-2.2,24.1c0,6.7,0.6,12.9,1.7,21.3c0.6,3.9,3.4,7.3,7.3,7.8l20.7,3.9l2.2,5l-16.2,14
		c-2.8,2.8-3.9,7.3-2.2,10.6c6.2,13.4,14,26.3,23.5,37.5c2.8,3.4,6.7,3.9,10.6,2.8l20.7-8.4l4.5,3.4l-6.2,22.4
		c-1.1,3.9,0.6,7.8,3.9,10.6c12.9,8.4,26.9,15.1,41.4,19c3.9,1.1,8.4-0.6,10.6-3.9l11.8-18.5h5.6l8.4,23c1.1,3.9,5,6.2,9,6.2
		c14,0,28.6-2.2,42.6-6.2c3.9-1.1,6.2-4.5,6.7-8.4l1.7-23l5-2.8l15.7,14.6c3.4,2.8,7.8,3.4,11.2,1.1c13.4-8.4,25.2-19,35.3-30.8
		c2.8-3.4,2.8-7.8,0.6-11.2l-12.3-18.5l2.2-5l23.5,1.7c3.9,0.6,7.8-1.7,9.5-5.6c5.6-12.9,9.5-26.3,11.2-40.9
		C556.3,399.6,554.6,396.2,551.3,394L551.3,394z M530,430.9l-23.5-1.7c-3.9-0.6-7.8,1.7-9.5,5.6l-7.3,15.7c-1.1,2.8-1.1,6.2,0.6,9
		l11.2,16.8c-6.2,6.7-12.9,12.3-20.2,17.9l-15.1-14.6c-2.8-2.8-7.3-3.4-10.6-1.7l-15.7,8.4c-2.8,1.7-5,4.5-5,7.8l-1.7,21.8
		c-7.8,1.7-16.2,3.4-24.6,3.4l-7.8-23c-1.1-3.9-5-6.2-9-6.2h-17.4c-3.4,0-6.2,1.7-7.8,4.5l-10.6,16.8c-8.4-2.8-16.2-6.7-24.1-11.2
		l6.2-21.8c1.1-3.9-0.6-7.8-3.4-10.1l-14-10.1c-2.8-1.7-6.2-2.2-9-1.1l-19,7.8c-5-6.7-9.5-14-13.4-21.3l15.7-13.4
		c2.8-2.8,3.9-6.7,2.8-10.6l-6.2-16.2c-1.1-2.8-3.9-5-7.3-5.6l-19-3.4c-0.6-4.5-0.6-8.4-0.6-11.8c0-4.5,0.6-9.5,1.1-14.6l20.2-2.8
		c3.9-0.6,7.3-3.4,7.8-7.3l3.4-16.8c0.6-3.4-0.6-6.7-2.8-9l-13.4-12.9c3.9-7.8,9-15.1,14.6-22.4l16.2,9c3.4,1.7,7.8,1.7,10.6-1.1
		l12.9-11.2c2.2-2.2,3.9-5.6,3.4-8.4l-3.4-21.8c7.3-4.5,15.1-7.8,23.5-10.6l9,14.6c1.7,2.8,4.5,4.5,7.8,4.5h17.4
		c3.9,0,7.3-2.2,9-6.2l7.3-20.2c9,0.6,17.4,1.7,25.8,3.9v20.2c0,3.9,2.8,7.3,6.2,9l16.2,5.6c2.8,1.1,6.7,0.6,9-1.7l14.6-11.8
		c7.3,5,14.6,11.2,20.7,17.9l-11.2,13.4c-2.2,3.4-2.2,7.3-0.6,10.6l9.5,14.6c1.7,2.8,5,4.5,7.8,4.5l21.3-0.6
		c3.4,7.8,5.6,15.7,7.3,24.1l-17.4,7.3c-3.4,1.7-6.2,5-5.6,9l0.6,17.4c0,3.4,1.7,6.2,4.5,7.8l18.5,10.6
		C535,415.2,532.8,423.1,530,430.9L530,430.9z"/>
	<path class="st0" d="M456.6,191.2v-82.3c0-17.9-15.1-33.6-33.6-33.6l-235.2,0c-17.9,0-33.6,15.1-33.6,33.6v42
		c-5.6,0-10.1,4.5-10.1,10.1v46.5c0,5.6,4.5,10.1,10.1,10.1v14.6c-5.6,0-10.1,4.5-10.1,10.1v15.7c0,5.6,4.5,10.1,10.1,10.1v323.1
		c0,17.9,15.1,33.6,33.6,33.6H278c1.7-2.2,3.9-3.9,6.7-3.9h41.4c2.8,0,5.6,1.7,6.7,3.9H423c17.9,0,33.6-15.1,33.6-33.6v-17.9
		l-16.8,0v17.9c0,9.5-6.7,16.2-16.2,16.2H187.8c-9.5,0-16.2-6.7-16.2-16.2l0-482.2c0-9.5,6.7-16.2,16.2-16.2h33L222,119
		c0,5.6,4.5,9.5,9.5,9.5h147.3c5.6,0,9.5-4.5,9.5-9.5l1.7-26.3h32.5c9.5,0,16.2,6.7,16.2,16.2v82.3L456.6,191.2z"/>
</g>
</svg>
