<?xml version="1.0" encoding="utf-8"?>
<!-- Generator: Adobe Illustrator 27.0.0, SVG Export Plug-In . SVG Version: 6.00 Build 0)  -->
<svg version="1.1" id="Layer_1" xmlns="http://www.w3.org/2000/svg" xmlns:xlink="http://www.w3.org/1999/xlink" x="0px" y="0px"
	 viewBox="0 0 700 700" style="enable-background:new 0 0 700 700;" xml:space="preserve">
<style type="text/css">
	.st0{fill:#FFFFFF;}
</style>
<g>
	<path class="st0" d="M422.1,397.3l4.9-8.5l14,1.7l8-30.1l-13-5.5l0-9.7l12.9-5.5l-8-30.1l-14,1.7l-4.9-8.4l8.4-11.3l-22-22
		l-11.3,8.4l-8.5-4.9l1.7-14l-30.1-8l-5.5,13l-9.7,0l-5.5-12.9l-30.1,8l1.7,14.1l-8.4,4.9l-11.3-8.4l-22,22l8.4,11.3l-4.9,8.5
		l-14-1.7l-8,30.1l13,5.5l0,9.7l-12.9,5.5l8,30.1l14-1.7l4.9,8.5l-8.4,11.3l22,22l11.3-8.4l8.5,4.9l-1.7,14l30.1,8l5.5-12.9l9.7,0
		l5.5,12.9l30.1-8l-1.7-14.1l8.5-4.9l11.3,8.4l22-22L422.1,397.3z M407.7,419l-9.8-7.4l-18.5,10.7l1.5,12.2l-15.4,4.1l-4.8-11.3
		l-21.3,0l-4.8,11.3l-15.4-4.1l1.5-12.2l-18.5-10.7l-9.8,7.4L281,407.7l7.4-9.9l-10.7-18.4l-12.2,1.5l-4.1-15.4l11.3-4.8l0-21.3
		l-11.3-4.8l4.1-15.4l12.2,1.5l10.7-18.5l-7.4-9.8l11.3-11.3l9.8,7.4l18.4-10.7l-1.5-12.2l15.4-4.1l4.8,11.3l21.3,0l4.8-11.3
		l15.4,4.1l-1.5,12.2l18.5,10.7l9.8-7.3l11.3,11.3l-7.4,9.8l10.7,18.4l12.2-1.5l4.1,15.4l-11.3,4.8l0,21.3l11.3,4.8l-4.1,15.4
		l-12.2-1.5l-10.7,18.5l7.3,9.8L407.7,419z M350,298.5c-28.4,0-51.5,23.1-51.5,51.5c0,28.4,23.1,51.5,51.5,51.5s51.5-23.1,51.5-51.5
		S378.4,298.5,350,298.5z M350,392.7c-23.6,0-42.7-19.2-42.7-42.7c0-23.6,19.2-42.7,42.7-42.7c23.6,0,42.7,19.2,42.7,42.7
		C392.7,373.6,373.6,392.7,350,392.7z M298.4,616.9c11.3,2.2,22.8,3.6,34.3,4.3l-0.6,8.7c-11.9-0.8-23.8-2.3-35.4-4.5L298.4,616.9z
		 M617,298.4l8.6-1.6c2.2,11.6,3.7,23.5,4.4,35.4l-8.7,0.5C620.6,321.2,619.2,309.7,617,298.4L617,298.4z M401.6,83.1
		c-11.3-2.2-22.8-3.6-34.3-4.3l0.6-8.7c11.8,0.8,23.8,2.3,35.4,4.5L401.6,83.1z M433.4,273.8l-6.2-6.2l50.3-50.3l6.2,6.2
		L433.4,273.8z M608.2,435.1l8.3,2.7c-3.7,11.3-8.1,22.4-13.2,33.2l-7.9-3.7C600.4,456.8,604.7,446,608.2,435.1L608.2,435.1z
		 M298.4,83l-1.6-8.6c11.6-2.2,23.5-3.6,35.4-4.4l0.5,8.7C321.2,79.4,309.7,80.8,298.4,83L298.4,83z M616.9,262.2l-8.3,2.7
		c-3.5-10.9-7.8-21.8-12.7-32.2l7.9-3.7C608.8,239.8,613.2,250.9,616.9,262.2L616.9,262.2z M467.2,104.5
		c-10.4-4.9-21.2-9.2-32.1-12.8l2.7-8.3c11.3,3.7,22.4,8.1,33.2,13.2L467.2,104.5z M621.2,367.3l8.7,0.6
		c-0.8,11.9-2.3,23.8-4.5,35.4l-8.6-1.6C619,390.3,620.5,378.8,621.2,367.3L621.2,367.3z M401.6,617l1.6,8.6
		c-11.6,2.2-23.5,3.7-35.4,4.4l-0.5-8.7C378.8,620.6,390.3,619.2,401.6,617L401.6,617z M477.5,482.7l-50.3-50.3l6.2-6.2l50.3,50.3
		L477.5,482.7z M467.3,595.9l3.7,7.9c-10.8,5-21.9,9.4-33.2,13.1l-2.7-8.3C446,605,456.8,600.7,467.3,595.9L467.3,595.9z
		 M268.7,426.2l6.2,6.2l-50.3,50.3l-6.2-6.2L268.7,426.2z M232.8,595.5c10.4,4.9,21.2,9.2,32.1,12.8l-2.7,8.3
		c-11.3-3.7-22.4-8.1-33.2-13.2L232.8,595.5z M78.8,332.7l-8.7-0.6c0.8-11.8,2.3-23.8,4.5-35.4l8.6,1.6
		C81,309.7,79.5,321.2,78.8,332.7z M83,401.6l-8.6,1.6c-2.2-11.6-3.7-23.5-4.4-35.4l8.7-0.5C79.4,378.8,80.8,390.3,83,401.6
		L83,401.6z M224.5,217.3l50.3,50.3l-6.2,6.2l-50.3-50.3L224.5,217.3z M104.5,232.8c-4.9,10.4-9.2,21.2-12.8,32.1l-8.3-2.7
		c3.7-11.3,8.1-22.4,13.2-33.2L104.5,232.8z M91.5,435.1c3.5,10.9,7.8,21.8,12.7,32.2l-7.9,3.7c-5-10.8-9.4-21.9-13.1-33.2
		L91.5,435.1z M232.7,104.2l-3.7-7.9c10.8-5,21.9-9.4,33.2-13.1l2.7,8.3C254,95,243.2,99.3,232.7,104.2L232.7,104.2z M157.1,243.5
		c41.7,0,75.7-34,75.7-75.7c0-41.7-34-75.7-75.7-75.7c-41.7,0-75.7,34-75.7,75.7C81.4,209.6,115.4,243.5,157.1,243.5L157.1,243.5z
		 M198.2,220.6c-3.1,2.4-6.4,4.6-9.9,6.4v-30.5c0-2.4-2-4.4-4.4-4.4s-4.4,2-4.4,4.4v34.3c-13.2,4.7-29.8,5.3-44.7,0.1v-34.4
		c0-2.4-2-4.4-4.4-4.4s-4.4,2-4.4,4.4v30.5c-3.6-1.9-6.9-4.1-10.1-6.5v-23.4c0-12.1,11.3-29.4,41.1-29.4c30.6,0,41.1,17.3,41.1,29.4
		L198.2,220.6L198.2,220.6z M134.6,138c0-12.4,10.1-22.5,22.5-22.5c12.4,0,22.5,10.1,22.5,22.5c0,11.3-8.9,22.5-22.5,22.5
		C144.7,160.5,134.6,150.4,134.6,138z M157.1,100.9c36.9,0,66.9,30,66.9,66.9c0,17.1-6.5,32.8-17.1,44.6v-15.2
		c0-14.4-10.9-30.5-30-35.1c3.3-2.7,11.4-10.6,11.4-24.1c0-17.2-14-31.2-31.2-31.2c-17.2,0-31.2,14-31.2,31.2
		c0,9.7,4.4,18.3,11.4,24.1c-16.8,4-30,18.7-30,35.1v15.2c-10.6-11.9-17.1-27.5-17.1-44.6C90.2,130.9,120.2,100.9,157.1,100.9
		L157.1,100.9z M157.1,607.9c41.7,0,75.7-34,75.7-75.7s-34-75.7-75.7-75.7s-75.7,34-75.7,75.7S115.4,607.9,157.1,607.9L157.1,607.9z
		 M198.2,585c-3.1,2.4-6.4,4.6-9.9,6.4v-30.5c0-2.4-2-4.4-4.4-4.4s-4.4,2-4.4,4.4v34.3c-13.2,4.7-29.8,5.3-44.7,0.1v-34.4
		c0-2.4-2-4.4-4.4-4.4s-4.4,2-4.4,4.4v30.5c-3.6-1.9-6.9-4.1-10.1-6.5v-23.4c0-12.1,11.3-29.4,41.1-29.4c30.6,0,41.1,17.3,41.1,29.4
		L198.2,585L198.2,585z M134.6,502.4c0-12.4,10.1-22.5,22.5-22.5c12.4,0,22.5,10.1,22.5,22.5c0,11.3-8.9,22.5-22.5,22.5
		C144.7,524.9,134.6,514.8,134.6,502.4z M157.1,465.2c36.9,0,66.9,30,66.9,66.9c0,17.1-6.5,32.8-17.1,44.6v-15.3
		c0-14.4-10.9-30.5-30-35.1c3.3-2.7,11.4-10.6,11.4-24.1c0-17.2-14-31.2-31.2-31.2c-17.2,0-31.2,14-31.2,31.2
		c0,9.7,4.4,18.3,11.4,24.1c-16.8,4-30,18.7-30,35.1v15.2c-10.6-11.9-17.1-27.5-17.1-44.6C90.2,495.3,120.2,465.2,157.1,465.2
		L157.1,465.2z M542.9,607.9c41.7,0,75.7-34,75.7-75.7s-34-75.7-75.7-75.7s-75.7,34-75.7,75.7C467.2,573.9,501.2,607.9,542.9,607.9z
		 M584,585c-3.1,2.4-6.4,4.6-9.9,6.4v-30.5c0-2.4-2-4.4-4.4-4.4s-4.4,2-4.4,4.4v34.3c-13.2,4.7-29.8,5.3-44.7,0.1v-34.4
		c0-2.4-2-4.4-4.4-4.4c-2.4,0-4.4,2-4.4,4.4v30.5c-3.6-1.9-6.9-4.1-10.1-6.5v-23.4c0-12.1,11.3-29.4,41.1-29.4
		c30.6,0,41.1,17.3,41.1,29.4L584,585L584,585z M520.4,502.4c0-12.4,10.1-22.5,22.5-22.5c12.4,0,22.5,10.1,22.5,22.5
		c0,11.3-8.9,22.5-22.5,22.5C530.5,524.9,520.4,514.8,520.4,502.4z M542.9,465.2c36.9,0,66.9,30,66.9,66.9
		c0,17.1-6.5,32.8-17.1,44.6v-15.3c0-14.4-10.9-30.5-30-35.1c3.3-2.7,11.4-10.6,11.4-24.1c0-17.2-14-31.2-31.2-31.2
		s-31.2,14-31.2,31.2c0,9.7,4.4,18.3,11.4,24.1c-16.7,4-30,18.7-30,35.1v15.2c-10.6-11.8-17.1-27.5-17.1-44.6
		C476,495.3,506,465.2,542.9,465.2L542.9,465.2z M542.9,243.5c41.7,0,75.7-34,75.7-75.7c0-41.7-34-75.7-75.7-75.7
		c-41.7,0-75.7,34-75.7,75.7C467.2,209.6,501.2,243.5,542.9,243.5L542.9,243.5z M584,220.6c-3.1,2.4-6.4,4.6-9.9,6.4v-30.5
		c0-2.4-2-4.4-4.4-4.4s-4.4,2-4.4,4.4v34.3c-13.2,4.7-29.8,5.3-44.7,0.1v-34.4c0-2.4-2-4.4-4.4-4.4c-2.4,0-4.4,2-4.4,4.4v30.5
		c-3.6-1.9-6.9-4.1-10.1-6.5v-23.4c0-12.1,11.3-29.4,41.1-29.4c30.6,0,41.1,17.3,41.1,29.4L584,220.6L584,220.6z M520.4,138
		c0-12.4,10.1-22.5,22.5-22.5c12.4,0,22.5,10.1,22.5,22.5c0,11.3-8.9,22.5-22.5,22.5C530.5,160.5,520.4,150.4,520.4,138z
		 M542.9,100.9c36.9,0,66.9,30,66.9,66.9c0,17.1-6.5,32.8-17.1,44.6v-15.2c0-14.4-10.9-30.5-30-35.1c3.3-2.7,11.4-10.6,11.4-24.1
		c0-17.2-14-31.2-31.2-31.2s-31.2,14-31.2,31.2c0,9.7,4.4,18.3,11.4,24.1c-16.7,4-30,18.7-30,35.1v15.2
		c-10.6-11.9-17.1-27.5-17.1-44.6C476,130.9,506,100.9,542.9,100.9L542.9,100.9z"/>
</g>
</svg>
