<svg id="Capa_1" enable-background="new 0 0 512 512" height="512" viewBox="0 0 512 512" width="512" xmlns="http://www.w3.org/2000/svg"><g><path d="m479.332 209.314h-12.21c-17.114-48.225-50.327-89.188-94.147-116.073-13.97-51.499-61.115-89.491-116.975-89.491-66.824 0-121.19 54.366-121.19 121.19 0 11.831 1.76 23.475 5.09 34.596-15.372 14.293-27.784 31.002-36.979 49.778h-42.024c12.179-31.68 31.987-60.068 57.768-82.564 3.121-2.724 3.443-7.462.72-10.582-2.723-3.122-7.461-3.443-10.582-.721-29.078 25.374-51.093 57.739-63.92 93.867h-12.215c-18.013 0-32.668 14.656-32.668 32.668v84.576c0 18.013 14.655 32.668 32.668 32.668h12.212c14.99 42.291 42.012 78.684 78.422 105.501 38.659 28.473 84.545 43.523 132.698 43.523s94.039-15.05 132.697-43.522c36.41-26.817 63.433-63.21 78.422-105.501h12.212c18.014 0 32.668-14.655 32.668-32.668v-84.576c.001-18.013-14.654-32.669-32.667-32.669zm-28.205 0h-42.049c-9.195-18.776-21.607-35.485-36.979-49.778 4.184-14.033 6.062-30.031 4.558-45.906 33.737 23.877 59.669 57.15 74.47 95.684zm-84.775-34.44c10.12 10.228 18.863 21.887 25.807 34.44h-49.207c9.758-10.087 17.657-21.765 23.4-34.44zm-110.352-156.124c58.553 0 106.19 47.637 106.19 106.19 0 32.985-15.557 64.34-41.723 84.374h-128.934c-26.166-20.034-41.723-51.389-41.723-84.374 0-58.553 47.637-106.19 106.19-106.19zm-110.352 156.124c5.743 12.674 13.641 24.352 23.4 34.44h-49.207c6.944-12.552 15.687-24.212 25.807-34.44zm234.153 277.776c-36.062 26.561-78.871 40.6-123.801 40.6s-87.739-14.039-123.801-40.6c-32.531-23.96-57.028-56.106-71.33-93.424h42.058c17.574 35.851 47.122 64.411 83.677 80.729.993.443 2.031.653 3.053.653 2.869 0 5.608-1.655 6.853-4.444 1.688-3.783-.009-8.218-3.792-9.906-31.065-13.867-56.581-37.429-72.887-67.031h272.337c-16.387 29.753-42.059 53.386-73.33 67.228-3.788 1.677-5.499 6.106-3.823 9.895 1.24 2.801 3.985 4.466 6.862 4.466 1.014 0 2.045-.207 3.032-.644 36.784-16.282 66.504-44.92 84.162-80.944h42.058c-14.3 37.316-38.797 69.463-71.328 93.422zm117.199-126.091c0 9.742-7.926 17.668-17.668 17.668h-446.664c-9.743 0-17.668-7.926-17.668-17.668v-84.576c0-9.742 7.926-17.668 17.668-17.668h446.663c9.743 0 17.668 7.926 17.668 17.668v84.576z"/><path d="m281.633 421.064-8.455-1.186-3.815-7.729c-2.529-5.123-7.649-8.307-13.363-8.307s-10.834 3.184-13.363 8.307l-3.74 7.676-8.531 1.239c-5.655.822-10.264 4.709-12.029 10.144s-.32 11.287 3.771 15.273l6.144 5.931-1.457 8.495c-.966 5.631 1.306 11.216 5.928 14.574 4.623 3.359 10.637 3.793 15.694 1.135l7.537-4.011 7.629 4.011c2.2 1.156 4.58 1.728 6.948 1.728 3.077 0 6.133-.965 8.746-2.862 4.622-3.358 6.894-8.943 5.928-14.574l-1.485-8.409 6.171-6.016c4.092-3.987 5.537-9.84 3.772-15.274s-6.374-9.322-12.03-10.145zm-8.383 20.693c-3.513 3.424-5.116 8.354-4.287 13.19l1.421 8.298-7.45-3.917c-2.172-1.142-4.553-1.712-6.935-1.712s-4.764.57-6.935 1.712l-7.452 3.916 1.423-8.297c.829-4.836-.773-9.767-4.286-13.189l-6.027-5.878 8.332-1.211c4.854-.706 9.048-3.753 11.219-8.151l3.728-7.549 3.726 7.549c2.171 4.398 6.365 7.445 11.22 8.151l8.331 1.212z"/><path d="m225.002 176.489c5.199 5.198 12.028 7.798 18.857 7.798s13.658-2.6 18.857-7.798l11.78-11.78c2.929-2.93 2.929-7.678 0-10.607-2.929-2.928-7.678-2.928-10.606 0l-11.78 11.78c-4.55 4.552-11.952 4.551-16.501 0l-36.119-36.119c-1.218-1.218-1.218-3.198 0-4.416l14.098-14.098c1.218-1.219 3.199-1.219 4.417 0l21.592 21.592c2.929 2.928 7.678 2.928 10.606 0l55.062-55.062c1.218-1.219 3.199-1.219 4.417 0l13.058 13.058c.796.795.915 1.725.915 2.208s-.119 1.413-.915 2.208l-33.925 33.925c-2.929 2.93-2.929 7.678 0 10.607 2.929 2.928 7.678 2.928 10.606 0l33.925-33.925c7.066-7.066 7.066-18.564 0-25.631l-13.058-13.058c-7.066-7.065-18.564-7.063-25.63 0l-49.758 49.759-16.289-16.289c-7.067-7.066-18.564-7.063-25.63 0l-14.098 14.098c-7.066 7.066-7.066 18.564 0 25.631z"/><path d="m62.045 255.382c-.026-.068-.053-.138-.082-.206-1.342-3.263-4.488-5.369-8.015-5.369-.002 0-.005 0-.008 0-3.53.003-6.676 2.116-8.014 5.384-.023.057-.046.114-.068.173l-19.343 50.789c-1.474 3.87.469 8.203 4.339 9.678.879.335 1.781.493 2.668.493 3.022 0 5.871-1.841 7.01-4.833l13.388-35.151 13.257 35.131c1.462 3.874 5.789 5.831 9.665 4.368 3.875-1.462 5.832-5.789 4.369-9.665z"/><path d="m417.743 266.355c4.142 0 7.5-3.357 7.5-7.5s-3.358-7.5-7.5-7.5h-21.508c-4.142 0-7.5 3.357-7.5 7.5v51.044c0 4.143 3.358 7.5 7.5 7.5h21.508c4.142 0 7.5-3.357 7.5-7.5s-3.358-7.5-7.5-7.5h-14.008v-10.522h12.422c4.142 0 7.5-3.357 7.5-7.5s-3.358-7.5-7.5-7.5h-12.422v-10.521h14.008z"/><path d="m457.745 250.569h-14.158c-1.992 0-3.901.792-5.308 2.202-1.407 1.409-2.196 3.32-2.192 5.312v.036.002 49.126c-.051 2.532 2.024 8.226 7.63 8.312.428-.002 10.531-.041 14.573-.111 15.728-.275 27.143-13.895 27.143-32.384 0-19.436-11.127-32.495-27.688-32.495zm.284 49.881c-1.604.028-4.266.052-6.866.069-.019-5.809-.053-28.897-.063-34.95h6.645c11.773 0 12.688 13.391 12.688 17.495 0 8.546-3.835 17.237-12.404 17.386z"/><path d="m372.058 250.284c-3.931-1.307-8.176.821-9.482 4.753l-10.935 32.916-11.491-33.105c-1.358-3.914-5.632-5.987-9.545-4.626-3.913 1.358-5.984 5.631-4.626 9.544l17.63 50.79c1.226 3.455 4.501 5.766 8.163 5.766h.056c3.685-.023 6.958-2.384 8.163-5.924l16.82-50.632c1.306-3.931-.822-8.176-4.753-9.482z"/><path d="m244.137 270.93c0-11.518-9.71-20.888-21.646-20.888h-13.689c-.003 0-.006 0-.009 0s-.006 0-.008 0c-4.142 0-7.5 3.357-7.5 7.5v51.515c0 4.143 3.358 7.5 7.5 7.5s7.5-3.357 7.5-7.5v-11.772l14.722 16.727c1.482 1.685 3.552 2.545 5.633 2.545 1.76 0 3.527-.616 4.952-1.87 3.109-2.736 3.412-7.476.675-10.585l-12.032-13.671c8.121-3.014 13.902-10.616 13.902-19.501zm-21.646-5.888c3.602 0 6.646 2.696 6.646 5.888s-3.043 5.889-6.646 5.889c-1.46 0-3.801.009-6.135.02-.011-2.259-.025-9.423-.031-11.796h6.166z"/><path d="m113.601 250.042h-14.344c-3.703-.076-7.647 3.271-7.5 7.5v51.515c0 4.143 3.358 7.5 7.5 7.5s7.5-3.357 7.5-7.5v-14.917c2.577-.012 5.229-.023 6.844-.023 12.309 0 22.322-9.887 22.322-22.038s-10.014-22.037-22.322-22.037zm0 29.075c-1.604 0-4.224.011-6.785.022-.013-2.662-.03-11.304-.037-14.098h6.822c3.969 0 7.322 3.223 7.322 7.037 0 3.817-3.353 7.039-7.322 7.039z"/><path d="m168.362 250.042h-14.344c-3.703-.076-7.647 3.271-7.5 7.5v51.515c0 4.143 3.358 7.5 7.5 7.5s7.5-3.357 7.5-7.5v-14.917c2.577-.012 5.229-.023 6.844-.023 12.309 0 22.322-9.887 22.322-22.038s-10.013-22.037-22.322-22.037zm0 29.075c-1.604 0-4.224.011-6.785.022-.013-2.662-.03-11.304-.037-14.098h6.822c3.969 0 7.322 3.223 7.322 7.037.001 3.817-3.352 7.039-7.322 7.039z"/><path d="m287.505 249.807c-18.338 0-33.257 14.919-33.257 33.258 0 18.338 14.919 33.257 33.257 33.257s33.257-14.919 33.257-33.257c0-18.339-14.919-33.258-33.257-33.258zm0 51.514c-10.067 0-18.257-8.19-18.257-18.257s8.19-18.258 18.257-18.258 18.257 8.19 18.257 18.258c0 10.067-8.19 18.257-18.257 18.257z"/></g></svg>