<svg height="512pt" viewBox="-58 0 512 512.001" width="512pt" xmlns="http://www.w3.org/2000/svg"><path d="m1.15625 446.648438c1.632812 3.089843 4.757812 5.105468 8.246094 5.3125l61.925781 3.714843c.027344.015625.058594.027344.089844.046875l34.1875 51.789063c1.855469 2.804687 4.992187 4.488281 8.347656 4.488281h.21875c3.4375-.078125 6.597656-1.914062 8.363281-4.863281l75.996094-127.035157c.410156-.003906.820312-.011718 1.230469-.027343l73.539062 126.9375c1.734375 3 4.898438 4.882812 8.359375 4.984375.097656.003906.195313.003906.292969.003906 3.351563 0 6.488281-1.683594 8.34375-4.492188l34.214844-51.824218 61.992187-3.722656c3.460938-.207032 6.566406-2.195313 8.207032-5.25 1.640624-3.054688 1.582031-6.742188-.15625-9.746094l-70.960938-122.480469c2.183594-2.015625 4.792969-3.535156 7.664062-4.417969 13.265626-4.09375 24.398438-12.964844 31.347657-24.992187 6.929687-12.011719 9.042969-26.082031 5.957031-39.617188-1.476562-6.472656.339844-13.238281 4.867188-18.113281 9.4375-10.1875 14.632812-23.429688 14.632812-37.292969 0-13.859375-5.195312-27.101562-14.640625-37.296875-4.515625-4.863281-6.332031-11.632812-4.859375-18.101562 3.085938-13.535156.972656-27.605469-5.960938-39.625-6.945312-12.019532-18.078124-20.890625-31.339843-24.980469-6.332031-1.957031-11.289063-6.917969-13.253907-13.269531-4.097656-13.269532-12.96875-24.390625-24.976562-31.320313-11.78125-6.792969-25.589844-8.96875-38.890625-6.128906-6.90625 1.480469-14.15625-.46875-19.394531-5.199219-10.089844-9.109375-23.140625-14.128906-36.746094-14.128906-13.871094 0-27.113281 5.199219-37.292969 14.640625-4.863281 4.515625-11.628906 6.328125-18.101562 4.851563-13.527344-3.085938-27.601563-.96875-39.628907 5.96875-12.015624 6.945312-20.886718 18.070312-24.980468 31.332031-1.957032 6.339843-6.914063 11.292969-13.273438 13.253906-13.269531 4.109375-24.390625 12.984375-31.3125 24.984375-6.9375 12.023438-9.054687 26.09375-5.964844 39.632812 1.476563 6.457032-.335937 13.222657-4.855468 18.09375-9.441406 10.179688-14.640625 23.421876-14.640625 37.292969 0 13.875 5.199219 27.125 14.644531 37.304688 4.511719 4.863281 6.328125 11.628906 4.847656 18.101562-3.085937 13.527344-.96875 27.597657 5.972656 39.628907 6.941407 12.015624 18.066407 20.886718 31.328126 24.980468 3.53125 1.089844 6.664062 3.167969 9.09375 5.921875l-72.414063 120.851563c-1.796875 3-1.898437 6.714844-.265625 9.808594zm112.378906 36.570312-24.714844-37.433594 53.3125-85.082031c.15625-.03125.316407-.058594.472657-.09375 6.460937-1.472656 13.230469.34375 18.113281 4.867187 5.003906 4.632813 10.699219 8.230469 16.851562 10.699219zm168.96875-.210938-62.316406-107.574218c5.503906-2.4375 10.605469-5.789063 15.117188-9.964844 4.863281-4.515625 11.632812-6.332031 18.089843-4.863281 1.054688.242187 2.128907.445312 3.210938.625l50.609375 84.351562zm42.070313-47.363281-45.230469-75.394531c4.753906-1.230469 9.355469-3.101562 13.691406-5.601562 8.136719-4.703126 14.824219-11.328126 19.566406-19.234376l56.523438 97.554688zm-253.933594-144.691406c-8.425781-2.597656-15.5-8.238281-19.910156-15.871094-4.40625-7.640625-5.753907-16.582031-3.792969-25.175781 2.957031-12.925781-.667969-26.441406-9.683594-36.15625-6-6.46875-9.304687-14.882812-9.304687-23.699219 0-8.8125 3.304687-17.222656 9.304687-23.691406 9.019532-9.730469 12.640625-23.25 9.6875-36.152344-1.964844-8.597656-.617187-17.539062 3.789063-25.179687 4.398437-7.625 11.46875-13.261719 19.898437-15.871094 12.671875-3.910156 22.570313-13.804688 26.476563-26.464844 2.601562-8.429687 8.238281-15.5 15.871093-19.910156 7.640626-4.40625 16.582032-5.753906 25.175782-3.792969 12.925781 2.953125 26.445312-.667969 36.160156-9.6875 6.464844-5.996093 14.878906-9.300781 23.6875-9.300781 8.644531 0 16.933594 3.1875 23.335938 8.972656 9.992187 9.023438 23.820312 12.726563 36.984374 9.917969 8.453126-1.808594 17.230469-.425781 24.714844 3.890625 7.625 4.398438 13.257813 11.464844 15.859375 19.90625 3.921875 12.667969 13.816407 22.5625 26.46875 26.46875 8.429688 2.597656 15.503907 8.238281 19.914063 15.871094 4.402344 7.628906 5.746094 16.574218 3.78125 25.183594-2.9375 12.929687.6875 26.441406 9.695312 36.144531 6 6.480469 9.304688 14.894531 9.304688 23.695312 0 8.808594-3.304688 17.226563-9.296875 23.695313-9.019531 9.714844-12.648438 23.234375-9.703125 36.160156 1.964844 8.601562.621094 17.542969-3.777344 25.171875-4.414062 7.636719-11.488281 13.277344-19.917969 15.875-12.734375 3.929687-22.617187 13.9375-26.46875 26.476563-2.601562 8.421874-8.234375 15.492187-15.859375 19.898437-7.898437 4.558594-16.878906 5.6875-25.1875 3.78125-12.925781-2.941406-26.441406.6875-36.140625 9.691406-5.082031 4.703125-11.335937 7.765625-18.101562 8.859375-3.136719.507813-6.414063.589844-9.488281.230469-7.425782-.820313-14.273438-3.960937-19.808594-9.082031-16.761719-15.546875-35.457032-9.601563-39.566406-9.097656-7.582032.96875-15.109376-.546876-21.761719-4.378907-7.628907-4.410156-13.269531-11.480469-15.875-19.902343-3.769531-12.222657-13.523438-22.484376-26.464844-26.476563zm13.835937 46.1875c4.664063 7.144531 10.964844 13.152344 18.507813 17.511719 4.921875 2.835937 10.152344 4.855468 15.542969 6.054687l-46.960938 74.945313-44.519531-2.667969zm0 0"/><path d="m239.160156 246.699219c3.0625-2.226563 4.605469-5.992188 3.984375-9.726563l-5.660156-34.089844 24.613281-24.25c2.699219-2.65625 3.664063-6.613281 2.492188-10.214843-1.167969-3.601563-4.273438-6.230469-8.019532-6.796875l-34.167968-5.144532-15.457032-30.910156c-1.695312-3.386718-5.15625-5.527344-8.945312-5.527344s-7.25 2.140626-8.945312 5.53125l-15.449219 30.90625-34.175781 5.144532c-3.746094.5625-6.847657 3.195312-8.019532 6.800781-1.167968 3.601563-.203125 7.554687 2.496094 10.214844l24.617188 24.246093-5.65625 34.089844c-.621094 3.734375.921874 7.5 3.984374 9.726563 3.066407 2.226562 7.125 2.53125 10.484376.785156l30.664062-15.917969 30.671875 15.921875c3.371094 1.746094 7.429687 1.433594 10.488281-.789062zm-22.253906-45.660157 3.234375 19.484376-17.535156-9.097657c-1.441407-.75-3.023438-1.125-4.605469-1.125s-3.164062.375-4.605469 1.125l-17.523437 9.097657 3.234375-19.484376c.535156-3.210937-.527344-6.480468-2.847657-8.761718l-14.066406-13.855469 19.53125-2.941406c3.21875-.484375 6-2.507813 7.453125-5.417969l8.828125-17.660156 8.835938 17.664062c1.457031 2.910156 4.234375 4.929688 7.453125 5.414063l19.527343 2.941406-14.066406 13.855469c-2.320312 2.28125-3.382812 5.550781-2.847656 8.761718zm0 0"/><path d="m207.949219 310c0 5.523438-4.476563 10-10 10-5.523438 0-10-4.476562-10-10s4.476562-10 10-10c5.523437 0 10 4.476562 10 10zm0 0"/><path d="m150.039062 310.921875c5.132813 2.039063 10.945313-.472656 12.984376-5.605469 2.039062-5.128906-.46875-10.945312-5.601563-12.984375-42.164063-16.75-69.410156-56.898437-69.410156-102.28125 0-60.65625 49.34375-110 110-110 60.652343 0 110 49.34375 110 110 0 45.429688-27.289063 85.59375-69.515625 102.320313-5.136719 2.035156-7.648438 7.847656-5.617188 12.980468 2.035156 5.136719 7.847656 7.648438 12.980469 5.617188 48.792969-19.328125 82.148437-66.695312 82.148437-120.917969 0-71.683593-58.316406-130-130-130-71.679687 0-130 58.316407-130 130 .003907 54.132813 33.253907 101.496094 82.03125 120.871094zm0 0"/></svg>