<svg id="line" height="512" viewBox="0 0 64 64" width="512" xmlns="http://www.w3.org/2000/svg"><path d="m54.39258 36.457a4.05793 4.05793 0 0 0 -2.8916-1.62109c-1.626-.18067-5.874-.32129-7.90528.44531l-5.18512 1.90454-11.0014-5.45434a.99417.99417 0 0 0 -.82031-.03125l-4.05469 1.64355a1.00786 1.00786 0 0 0 -.25973 1.69923l6.78 5.58129-6.42169 2.363-3.93945-3.13964a1.00207 1.00207 0 0 0 -.917-.17383l-3.83008 1.17969a1.007 1.007 0 0 0 -.47263 1.59766l5.99411 7.166c2.2065 2.3221 4.95558 1.63312 8.33884.424l3.41214-1.22091-1.75385 10.00694a1.00756 1.00756 0 0 0 1.35354 1.1025l4.6699-1.84957a1.00309 1.00309 0 0 0 .54395-.51856l5.459-12.11914 2.31152-.76172a1.00037 1.00037 0 0 0 -.625-1.90037l-2.73042.8994a1.00373 1.00373 0 0 0 -.59961.53906l-5.47272 12.15137-2.63184 1.042 1.74219-9.93945a1.00756 1.00756 0 0 0 -1.32228-1.11424l-5.06834 1.81443c-2.64356 1.06836-4.23243 1.0332-5.10157.81738a1.99008 1.99008 0 0 1 -.99609-.6621l-5.02441-6.00586 1.88769-.58106 3.9668 3.16113a.99981.99981 0 0 0 .96875.15625c3.9962-1.46368 11.99605-4.423 15.958-5.86854l5.5391-2.03479c1.41113-.53027 5.01855-.55078 6.99316-.33105 2.04982.25291 2.43118 2.3496.30172 3.19536l-4.59078 1.51069a1.00037 1.00037 0 0 0 .625 1.90038l4.5898-1.51073c2.26175-.68937 3.72485-3.55138 2.18068-5.46292zm-29.54981-1.89059 2.08106-.84375 8.89795 4.41134-4.59162 1.68964z"/><path d="m14.23438 38.65527a1.00374 1.00374 0 0 0 .44332-1.89747l-3.71286-1.82909v-19.9541l16.77246 8.02051v4.94531a1.0001 1.0001 0 0 0 2 0v-4.94531l4.32056-2.06806-.0227 4.82587a1.00636 1.00636 0 0 0 1.4004.92087l5.20311-2.27341a1 1 0 0 0 .59961-.91113l.02741-6.00464c.31183-.14705 2.94107-1.41546 3.30635-1.58483l1.91722-.91432-.19526 15.61707a1.0002 1.0002 0 0 0 2 .02534l.21583-17.22749a1.03853 1.03853 0 0 0 -.58205-.91894l-18.28813-8.39063a.99726.99726 0 0 0 -.81543-.00781l-19.25879 8.38574a1.05006 1.05006 0 0 0 -.60057.919v22.16307a1.00247 1.00247 0 0 0 .55762.89746c.25183.05749 4.53808 2.3706 4.7119 2.20699zm8.47875-29.7301 15.30579 7.88922c-.33075.1662-2.66777 1.26406-2.92515 1.40242-.00114.00563-15.24726-8.044-15.24868-8.04249zm16.52808 13.90393-3.19921 1.39746.02039-4.25256 3.19879-1.53034zm-10.0293-16.73437 15.93714 7.31286c-1.13617.54825-3.71075 1.765-4.86351 2.325l-15.20687-7.83769zm-11.71557 5.1026 15.34222 8.0935-4.0993 1.95817-16.36626-7.82029z"/></svg>