<svg id="Layer_1" enable-background="new 0 0 512.001 512.001" height="512" viewBox="0 0 512.001 512.001" width="512" xmlns="http://www.w3.org/2000/svg"><g><path d="m474.043 124.339-213.043-122.999c-3.094-1.787-6.906-1.787-10 0l-213.043 122.999c-3.094 1.786-5 5.088-5 8.66v246.001c0 3.572 1.906 6.874 5 8.66l213.043 123c3.094 1.787 6.906 1.787 10 0l213.043-123c3.094-1.786 5-5.088 5-8.66v-246c0-3.573-1.906-6.875-5-8.661zm-218.043-102.792 193.043 111.453-50.368 29.08-193.042-111.454zm0 222.905-193.042-111.453 45.585-26.318 193.042 111.453zm-70.367-182.279 193.042 111.453-57.091 32.961-193.041-111.453zm145.952 161.734 57.091-32.961v59.32l-22.046-4.832c-3.663-.806-7.468.513-9.854 3.404l-25.19 30.531v-55.462zm-278.628-73.588 193.043 111.453v222.908l-193.043-111.453zm213.043 334.361v-222.908l45.585-26.318v71.749c0 4.219 2.648 7.984 6.619 9.411 1.105.397 2.248.59 3.379.59 2.928-.001 5.778-1.289 7.716-3.637l39.017-47.288 28.22 6.185c2.955.647 6.05-.078 8.409-1.978 2.359-1.897 3.731-4.763 3.731-7.791v-83.296l50.367-29.079v222.907z"/><path d="m132.493 369.147-45.643-26.352c-4.784-2.762-10.9-1.122-13.66 3.66-2.762 4.783-1.123 10.899 3.66 13.66l45.644 26.352c4.698 2.737 10.883 1.167 13.66-3.66 2.761-4.783 1.123-10.899-3.661-13.66z"/><path d="m76.85 315.115 25.102 14.492c4.698 2.737 10.883 1.167 13.66-3.66 2.762-4.783 1.123-10.898-3.66-13.66l-25.102-14.493c-4.784-2.761-10.9-1.122-13.66 3.66-2.762 4.784-1.123 10.899 3.66 13.661z"/></g></svg>