<svg enable-background="new 0 0 32 32" viewBox="0 0 32 32" xmlns="http://www.w3.org/2000/svg"><g id="Guides"/><g id="_x32_0"/><g id="_x31_9"/><g id="_x31_8"/><g id="_x31_7"><path d="m29.8320313 21.4453125-2-3c-.1855469-.2783203-.4975586-.4453125-.8320313-.4453125h-3v-2c0-.5527344-.4477539-1-1-1h-20c-.5522461 0-1 .4472656-1 1v11c0 .5527344.4477539 1 1 1h2.1843262c.4141235 1.161499 1.5137329 2 2.8156738 2s2.4016113-.838501 2.8157349-2h10.3685913c.4141235 1.161499 1.5137329 2 2.8156738 2s2.4016113-.838501 2.8157349-2h2.1842651c.5522461 0 1-.4472656 1-1v-5c0-.1972656-.0585937-.390625-.1679687-.5546875zm-3.3671875-1.4453125.666687 1h-3.1315308v-1zm-22.4648438-3h18v7.7802734c-.366272.3303223-.6468506.7461548-.8157349 1.2197266h-10.3685302c-.4141236-1.161499-1.513794-2-2.8157349-2s-2.4016113.838501-2.8157349 2h-1.1842651zm4 11c-.5512695 0-1-.4482422-1-1s.4487305-1 1-1 1 .4482422 1 1-.4487305 1-1 1zm16 0c-.5512695 0-1-.4482422-1-1s.4487305-1 1-1 1 .4482422 1 1-.4487305 1-1 1zm4-2h-1.1842651c-.4141236-1.161499-1.513794-2-2.8157349-2v-1h4z"/><path d="m18 14h7c.2651367 0 .5195313-.1054688.7070313-.2929688l3-3c.1875-.1874999.2929687-.4414062.2929687-.7070312v-7c0-.5527344-.4477539-1-1-1h-7c-.2651367 0-.5195313.1054688-.7070313.2929688l-3 3c-.1874999.1875-.2929687.4414062-.2929687.7070312v7c0 .5527344.4477539 1 1 1zm1-2v-5h5v5zm7-1.4140625v-4.171875l1-1v4.171875zm-4.5859375-6.5859375h4.171875l-1 1h-4.171875z"/><path d="m6.2929688 13.7070313c.1875.1875.4418945.2929687.7070312.2929687h7c.5522461 0 1-.4472656 1-1v-7c0-.265625-.1054688-.5195313-.2929688-.7070313l-3-3c-.1874999-.1874999-.4418945-.2929687-.7070312-.2929687h-7c-.5522461 0-1 .4472656-1 1v7c0 .265625.1054688.5195313.2929688.7070313zm-1.2929688-8.2929688 1 1v4.171875l-1-1zm8 6.5859375h-5v-5h5zm-1.4140625-7h-4.171875l-1-1h4.171875z"/></g><g id="_x31_6"/><g id="_x31_5"/><g id="_x31_4"/><g id="_x31_3"/><g id="_x31_2"/><g id="_x31_1"/><g id="_x31_0"/><g id="_x30_9"/><g id="_x30_8"/><g id="_x30_7"/><g id="_x30_6"/><g id="_x30_5"/><g id="_x30_4"/><g id="_x30_3"/><g id="_x30_2"/><g id="_x30_1"/></svg>