<svg id="Capa_1" enable-background="new 0 0 512 512" height="512" viewBox="0 0 512 512" width="512" xmlns="http://www.w3.org/2000/svg"><path d="m502 336.001h-5v-46.25c0-14.937-9.494-27.623-22.323-31.373l-20.692-65.231c10.178-4.804 17.241-15.163 17.241-27.145 0-16.542-13.458-30-29.999-30h-93.219v-70.003c0-5.523-4.478-10-10-10h-208.007c-5.523 0-10 4.477-10 10s4.477 10 10 10h198.007v260.002h-159.086c-12.63-12.36-29.897-20-48.922-20s-36.293 7.639-48.922 20h-41.078v-260.002h10.001c5.523 0 10-4.477 10-10s-4.477-10-10-10h-20.001c-5.523 0-10 4.477-10 10v270.002c-5.523 0-10 4.477-10 10v25c0 13.786 11.214 25.001 24.999 25.001h25.727c4.868 33.876 34.072 60 69.274 60s64.406-26.124 69.274-60h62.726c5.523 0 10-4.477 10-10s-4.477-10-10-10h-62.726c-1.014-7.059-3.08-13.781-6.042-20h155.536c-4.334 9.098-6.768 19.27-6.768 30 0 38.598 31.402 70 70 70 35.202 0 64.406-26.124 69.274-60h15.726c13.785-.001 25-11.216 25-25.002v-25c0-5.522-4.477-9.999-10-9.999zm-68.092-139.999 19.429 61.249h-65.329v-61.249zm-85.9-40h93.219c5.514 0 9.999 4.486 9.999 10 0 5.51-4.479 9.993-9.987 10-.043 0-.085 0-.128.001h-63.103c-5.522 0-10 4.477-10 10v81.249c0 5.523 4.478 10 10 10h88.928.007c5.549.085 10.056 5.681 10.056 12.5v6.875h-6.614c-5.522 0-10 4.477-10 10s4.478 10 10 10h6.615v19.375h-26.078c-12.63-12.36-29.897-20-48.922-20s-36.292 7.639-48.922 20h-5.069v-180zm-328.008 214.998v-15h36.768c-2.963 6.219-5.028 12.942-6.042 20h-25.727c-2.71.001-4.999-2.289-4.999-5zm100 65.001c-27.57 0-50-22.43-50-50s22.43-50 50-50c27.568 0 49.996 22.426 50 49.994v.006s0 .004 0 .006c-.004 27.568-22.432 49.994-50 49.994zm282 0c-27.57 0-50-22.43-50-50s22.43-50 50-50 50 22.43 50 50-22.43 50-50 50zm90-65.001c0 2.711-2.29 5.001-5.001 5.001h-15.726c-1.015-7.059-3.08-13.781-6.043-20h26.77z"/><path d="m120 356.001c-16.542 0-30 13.458-30 30s13.458 30 30 30 30-13.458 30-30-13.458-30-30-30zm0 40c-5.514 0-10-4.486-10-10s4.486-10 10-10 10 4.486 10 10-4.485 10-10 10z"/><path d="m402 356.001c-16.542 0-30 13.458-30 30s13.458 30 30 30c16.543 0 30.001-13.458 30.001-30-.001-16.542-13.459-30-30.001-30zm0 40c-5.514 0-10-4.486-10-10s4.486-10 10-10c5.515 0 10.001 4.486 10.001 10s-4.487 10-10.001 10z"/><path d="m179.005 316c60.654 0 110-49.346 110-110s-49.346-110-110-110-110 49.346-110 110 49.346 110 110 110zm0-200c49.626 0 90 40.374 90 90s-40.374 90-90 90-90-40.374-90-90 40.373-90 90-90z"/><path d="m150.725 216c1.242 3.503 3.118 6.705 5.489 9.475l-15.869 27.486c-2.761 4.783-1.123 10.899 3.66 13.66 10.626 6.135 22.729 9.378 35 9.378s24.374-3.243 35-9.378c2.297-1.326 3.973-3.51 4.659-6.072.687-2.562.327-5.291-.999-7.588l-15.869-27.486c2.371-2.77 4.247-5.973 5.489-9.476h31.72c5.523 0 10-4.477 10-10 0-12.271-3.243-24.374-9.378-35-6.136-10.627-14.996-19.487-25.622-25.622-2.296-1.326-5.024-1.685-7.588-.999-2.562.687-4.746 2.362-6.072 4.659l-15.861 27.472c-1.778-.33-3.607-.51-5.478-.51-1.872 0-3.701.181-5.479.51l-15.861-27.472c-1.326-2.297-3.51-3.973-6.072-4.659-2.563-.687-5.293-.327-7.588.999-10.626 6.135-19.486 14.995-25.622 25.622-6.135 10.626-9.378 22.729-9.378 35 0 5.523 4.477 10 10 10h31.719zm12.445 37.424 10.355-17.935c1.778.33 3.608.51 5.48.51s3.701-.181 5.478-.51l10.355 17.935c-10.174 3.395-21.493 3.396-31.668 0zm48.988-84.848c4.014 3.557 7.449 7.751 10.147 12.424s4.613 9.746 5.687 15h-20.708c-1.242-3.503-3.118-6.705-5.489-9.475zm-23.154 37.424c0 5.514-4.486 10-10 10s-10-4.486-10-10 4.486-10 10-10c5.515 0 10 4.486 10 10zm-53.301-25c2.698-4.673 6.134-8.868 10.147-12.424l10.363 17.949c-2.37 2.77-4.246 5.973-5.489 9.475h-20.708c1.074-5.254 2.989-10.327 5.687-15z"/><path d="m85.005 75.999c5.523 0 10-4.477 10-10s-4.477-10-10-10h-.008c-5.523 0-9.996 4.477-9.996 10s4.481 10 10.004 10z"/><path d="m297.003 376.001h-.008c-5.522 0-9.996 4.477-9.996 10s4.481 10 10.004 10 10-4.477 10-10-4.477-10-10-10z"/></svg>