<svg id="Layer_1" height="512" viewBox="0 0 64 64" width="512" xmlns="http://www.w3.org/2000/svg" data-name="Layer 1"><path d="m41 48v-2h4v-2h-5a1 1 0 0 0 -1 1v3h-14v-7a1 1 0 0 0 -1-1h-3v2h2v7a1 1 0 0 0 1 1h25v2h2v-3a1 1 0 0 0 -1-1z"/><path d="m17 40h2v2h-2z"/><path d="m47 44h2v2h-2z"/><path d="m52.71 2.29a1 1 0 0 0 -.71-.29h-8a1 1 0 0 0 -1 1v15h-2v-13a1 1 0 0 0 -1-1h-32a1 1 0 0 0 -1 1v13h-4a1 1 0 0 0 -1 1v12a1 1 0 0 0 1 1h3a6 6 0 0 0 5.4 6l-9.29 18.55a.91.91 0 0 0 -.11.45v4a1 1 0 0 0 1 1h58a1 1 0 0 0 1-1v-4a.91.91 0 0 0 -.11-.45l-9.29-18.55a6 6 0 0 0 5.4-6h3a1 1 0 0 0 1-1v-19a1 1 0 0 0 -.29-.71zm-27.71 3.71h5v5h4v-5h5v12h-14zm-16 0h5v5h4v-5h5v12h-14zm-1 26a4 4 0 1 1 4 4 4 4 0 0 1 -4-4zm45.38 12h-2.38v2h3.38l5 10h-8.38v-2h-2v2h-44.38l7-14h3.38v-2h-2.38l1.13-2.26a6 6 0 0 0 4.25-5.74h28a6 6 0 0 0 4.25 5.74zm-1.38-8a4 4 0 1 1 4-4 4 4 0 0 1 -4 4zm8-18h-11v-10h6.59l4.41 4.41z"/><circle cx="12" cy="32" r="2"/><circle cx="52" cy="32" r="2"/></svg>